<?xml version="1.0" encoding="utf-8"?>
<!-- Generator: Adobe Illustrator 16.0.0, SVG Export Plug-In . SVG Version: 6.00 Build 0)  -->
<!DOCTYPE svg PUBLIC "-//W3C//DTD SVG 1.1//EN" "http://www.w3.org/Graphics/SVG/1.1/DTD/svg11.dtd">
<svg version="1.1" id="Layer_1" xmlns="http://www.w3.org/2000/svg" xmlns:xlink="http://www.w3.org/1999/xlink" x="0px" y="0px"
	 width="1400px" height="1612.471px" viewBox="0 0 1400 1612.471" enable-background="new 0 0 1400 1612.471" xml:space="preserve">
<g>
	<linearGradient id="SVGID_1_" gradientUnits="userSpaceOnUse" x1="684.8345" y1="134.6187" x2="684.8344" y2="1369.4487">
		<stop  offset="0" style="stop-color:#23385D"/>
		<stop  offset="1" style="stop-color:#0F254A"/>
	</linearGradient>
	<path fill="url(#SVGID_1_)" d="M-49,451.121c7.135-5.587,15.52-5.048,20.556-14.462c4.396-8.219,5.334-18.558,7.334-27.283
		c1.808-7.89-0.223-53.641,10.659-49.105c5.966,2.487,8.148,16.858,9.451,21.921c2.373,9.227,3.155,17.628,4.007,27.184
		c1.079,12.101,7.923,17.229,13.705,27.176c2.428,4.177,1.161,21.583,10,17.759c-0.421-11.908,3.754-24.462,4.295-36.636
		c0.566-12.73,4.356-24.346,6.104-36.937c1.354-9.762,3.019-19.642,3.883-29.512c1.126-12.876,5.374-23.85,8.063-36.615
		c1.797-8.524,1.751-17.561,3.943-25.518c2.83-10.273,4.845-18.879,6.445-29.225c2.809-18.165,13.276-36.916,19.109-53.817
		C90,231.733,84.907,238.627,88,261.395c2.285,16.82-0.806,40.212,2.946,56.724c1.695,7.458,5.342,13.65,6.047,21.358
		c0.739,8.086-0.093,16.014-1.993,23.199c-3.024,11.436,1.09,9.438,8.05,17.088c6.595,7.246,0.848,9.19-0.541,17.485
		c-1.602,9.565,6.232,7.346,8.537,15.965c0.921,3.442-0.056,8.12,0.399,11.695c0.549,4.319,2.729,8.849,1.601,13.636
		c-1.747,7.419-9.347,8.766-8.149,17.53c0.953,6.978,7.741,16.401,10.605,23.245c6.667,15.929,3.829,28.416,1.505,44.619
		c-2.346,16.355,1.571,33.718-0.452,50.044c-2.043,16.485-1.653,27.613-3.704,44.314c4.386-7.091,8.425-13.823,9.737-21.866
		c1.074-6.595,12.397-21.789,15.412-27.799c7.981,0.752,14.862,26.496,16,32.129c1.848,9.148-0.519,24.164,2,33.871
		c2.008,7.738,0.005,13.605,5,21c5.061,7.494,8.335,12.92,16.445,16.345c9.15,3.864,17.617,7.025,27.555,7.286
		c10.74,0.282,21.127,3.087,31.943,1.986c12.135-1.235,23.831-4.892,36.05-5.863c10.352-0.822,20.919,0.351,31.299-0.151
		c-7.126,9.036-18.655,15.571-29.292,20.094c-6.524,2.772-13.696,4.593-20.438,6.802c-9.031,2.96-9.622,4.249-15.071,12.083
		c-8.332,11.979-14.629,14.554-26.937,20.826c-7.926,4.039-22.089,16.313-23.303,25.435c8.915,1.379,12.893,12.12,17.253,18.194
		c6.731,9.375,16.282,9.929,26.089,14.96c1.036-6.276-0.503-12.988,0.858-19.224c0.668-3.063,3.599-6.533,3.645-9.701
		c0.071-4.965-2.381-5.459-3.595-9.771c-1.055-3.747-4.279-2.632-0.638-6.348c2.346-2.394,7.106-1.209,10.032-1.365
		c8.49-0.451,17.196,0.781,25.658-0.007c28.912-2.688,89.948-30.319,120.112-26.582c4.365,32.892-45.333,37.978-55.333,63.334
		c-4.833,12.257-36.759,33.144-36.333,46.746c0.227,7.231-4,12.42,10.5,13.42c17.181,1.186,38.645,3.021,55-1
		c10.175-2.501,20.522-2.366,30.493-5.179c7.573-2.138,15.764-1.651,23.466-3.302c31.622-6.777,64.824-8.893,96.089-17.479
		c16.317-4.48,32.453-7.139,48.11-9.511c-0.111,9.354,3.247,13.315-2.16,22.619c-4.313,7.418-12.117,12.844-17.053,19.849
		c-5.104,7.24-7.914,15.435-12.009,23.299c-4.89,9.397-9.615,16.6-18.438,25.242c-16.982,16.638-40.912,20.358-64.097,24.757
		c-10.037,1.905-19.858,2.772-29.8,4.269c-6.567,0.986-25.851,1.442-29.802,7.722c-4.271,6.786,22.214,34.828,28.246,38.584
		c5.251,3.271,13.292,2.792,19.349,4.277c9.361,2.297,16.756,2.132,26.057,0c10.436-2.393,21.338-3.909,31.95-6.257
		c11.088-2.453,27.234-3.717,34.146-13.111c1.49-2.025,1.313-7.676,4.35-9.47c2.514-1.485,8.673-0.296,11.602-0.287
		c10.587,0.028,21.561,0.831,32.104,0c19.771-1.561,36.7-5.433,39.45,19.511c1.59,14.406,9.358,18.585,24.445,21.789
		c5.883,1.25,13.923,3.425,18.595-0.38c2.687-2.188,1.513-7.785,5.805-9.46c7.006-2.733,16.04,8.688,25.705,7.474
		c8.357-1.052,14.639-0.071,23.896-0.101c12.248-0.039,15.771-2.56,26-8.3c6.537-3.668,16.674-6.452,18.349-14.661
		c16.77-2.281,32.891,3.35,49.35,1.31c0.858-6.533,0.116-12.774,1.754-19.123c2.025-7.851,2.497-9.821,0-16.942
		c-1.795-5.121-5.74-11.83-1.601-16.643c4.28-4.979,14.457-2.579,20.143-3.313c5.729-0.739,10.429-3.475,15.96-3.922
		c7.072-0.571,12.829,2.623,20.047,1.979c14.525-1.295,19.584-13.237,24.349-24.896c11.088-1.594,22.703-0.679,33.651-2.325
		c5.474-0.822,11.093-0.65,16.445-1.789c5.215-1.109,10.119-4.396,15.26-4.277c1.901-9.959-2.591-11.167-9.705-15.678
		c-6.024-3.821-8.383-7.847-12.502-13.104c-9.34-11.923-21.924-20.438-32.804-31.222c11.272-0.768,21.831-5.807,33.306-5.725
		c8.724,0.063,33.085,6.707,39.246-0.056c-6.739-0.111-7.396-11.97-8.459-17.088c0.917-0.313,1.859-0.535,2.825-0.663
		c2.536-6.092-2.66-8.979-5.167-13.691c-2.808-5.274-3.263-11.716-5.947-17.089c-4.178-8.362-13.209-16.099-16.299-24.701
		c9.986-8.069,38.325-1.758,49.801-0.449c15.786,1.8,33.487,3.612,49.69,1.604c2.393-6.631-5.335-12.673-3.389-18.975
		c4.225,0.569,4.201,4.515,7.595,5.815c2.31,0.885,7.398-0.179,9.801-0.433c1.139-8.658,0.368-18.085,0.303-26.89
		c-0.069-9.287,2.441-18.214,3.556-27.184c1.216-9.795,2.212-19.585,4.393-29.08c2.561-11.153,7.623-21.501,8.395-32.797
		c1.105-0.71,2.211-0.71,3.316,0c-0.465,4.403,1.907,7.369,2.389,11.35c0.604,5.012-0.047,10.521-0.047,15.578
		c0,10.811-2.036,20.448-2,31.065c0.036,10.745,1.776,19.325,3.993,29.132c2.056,9.097,2.467,15.964,10.444,23.044
		c9.541-0.874,0.959-24.589,11.568-27.12c3.855-0.921,6.622,5.36,12.542,2.705c4.666-2.094,7.931-8.588,9.388-12.233
		c4.146-10.375,1.843-22.521,0.51-33.001c-1.535-12.058,2.33-23.362,1.953-34.75c4.018,1.544,8.602,14.39,9.949,18.885
		c11.341-0.761,12.334,19.755,21.097,13.574c3.917-2.764,7.126-12.649,8.659-17.126c1.963-5.733,3.234-11.381,6.342-17.313
		c6.188,1.855,10.973,11.089,19.147,1.873c4.757-5.359,5.354-16.703,4.511-23.393c-1.14-9.026-1.262-11.651,1.451-19.85
		c2.48-7.5,4.225-16.756,4.444-24.802c0.283-10.31-5.948-14.089-8.097-23.307c-1.964-8.429,0.216-19.644,2.152-27.608
		c2.062-8.471,4.937-19.085,12.499-24.809c4.671-3.536,1.298-4.363,7.341-1.563c4.475,2.074,5.859,7.409,11.802,5.139
		c1.536-12.475-2.223-26.046-3.802-38.533c-0.875-6.92,1.32-12.938,2.15-19.417c0.877-6.853-0.047-14.438-0.047-21.358
		c0-13.568-0.441-27.214,0-40.774c0.41-12.598,0.322-27.923,2.406-40.62c7.851,6.01,12.311,17.626,15.587,27.128
		c3.36,9.748,7.074,20.58,10.007,31.066c2.77,9.902,3.504,20.705,5.89,30.966c2.616,11.25,6.14,21.097,6.11,32.963
		c-0.063,25.626-4,50.16-4,75.769c0,13.91,0.403,27.32,1.896,40.875c0.678,6.156,5.321,22.443,10.604,26.79
		c2.414-1.92,4.327-1.063,7.21-1.354c-0.524,4.291,1.474,7.697,5.939,7.224c1.154-7.26,1.257-13.152,3.856-19.645
		c2.79-6.967,7.028-14.202,8.046-21.313c2.567-17.925-7.581-32.547-7.555-50.05c0.005-3.368-1.062-8.562-0.098-11.744
		c0.924-3.046,5.301-4.249,5.744-7.673c0.944-7.262-12.563-11.068-7.79-21.396c2.453-5.307,6.612-2.313,10.285-6.181
		c2.909-3.063,1.882-7.229,1.857-11.256c-0.053-8.724-1.666-14.99-4.491-22.823c-0.609-1.689-4.421-8.553-3.31-10.323
		c2.055-3.271,6.441-1.94,9.292-5.749c4.792-6.403,2.024-15.576,6.014-23.23c7.649-14.684,6.715-30.904,8.542-46.562
		c1.82-15.606,6.437-32.49,4.057-48.686c-2.094-14.244-16.692-25.271,0.445-36.304c13.993-9.008,7.532-20.078,9.8-35.099
		c7.058-1.324,12.95-10.944,17.604-15.878c8.528-9.04,16.766-17.206,24.104-27.176c5.588-7.591,9.734-13.285,17.84-17.962
		c5.837-3.368,20.66-13.349,26.104-9.221l-2.951,1221.679c5.409,2.639,8.813,5.739,8.616,11.144
		c-23.852,3.354-47.494-2.633-71.612-2.404c-16.425,0.153-15.843-3.219-20.275-17.478c-2.992-9.626-7.692-17.881-13.502-25.774
		c-6.787,4.94-36.785,5.329-44.386,0.349c-10.058-6.593-7.794-24.591-9.31-35.302c-7.746-1.646-13.559,1.077-19.957,2.101
		c-0.807-9.232-9.486-14.295-11.995-22.931c-3.854-13.267,5.43-11.573,7.87-20.237c2.494-8.86-18.958-26.109-29.027-26.863
		c1.773-14.93-14.225-10.321-23.922-11.594c-1.797-11.818-15.982-21.079-12.38-33.482c-2.456,3.131-5.573,8.986-9.076,10.828
		c-7.796,4.099-7.164,0.447-15.071-0.357c-7.455-0.76-20.558-1.521-26.249,2.634c-4.853-5.323-11.31-17.578-18.23-16.674
		c-0.671,10.625-0.818,34.602-15.002,34.196c0.865-8.316-6.94-33.728-13.048-39.737c-7.281-7.166-17.92-1.42-26.47-3.431
		c-7.145-1.681-13.804-6.674-20.704-9.459c0.281-9.949,13.443-7.831,14.907-16.823c1.672-10.271-9.446-9.725-15.227-11.563
		c-5.87-1.868-19.247-4.959-23.384-9.49c-5.441-5.963-4.49-15.434-9.693-21.611c-3.268,6.753-6.614,19.666-6.359,27.589
		c-23.597,8.175-20.022-41.948-23.628-54.021c6.804,26.347-32.394,6.938-42.016,7.801c-8.745,0.784-15.369,9.73-23.768,12.496
		c-9.75,3.211-21.795-2.03-21.227-14.471c0.782,10.615-5.126,26.33-11.189,34.71c-6.46,8.928-3.52,7.709-12.589,4.446
		c-8.847-3.185-12.047-8.506-15.898-16.437c-6.865,3.51-5.593,10.063-14.328,5.79c-6.381-3.12-7.695-13.853-8.856-19.622
		c-14.555,14.902-15.495,38.063-24.755,54.15c-15.548,27.012-30.159-12.83-35.412-25.105c-7.961,21.454-2.047,52.929-20.836,69.384
		c-3.633-3.799-5.602-9.604-11.568-8.791c0.316,21.422-11.907,42.521-18.601,62.827c-5.634-20.771-8.985-40.744-8.915-63.2
		c0.061-19.26-6.646-35.771-11.915-54.312c-6.591,9.097-7.901,55.822-20.575,53.929c0.073-13.227-9.573-25.401-12.68-38.121
		c-2.554-10.456-4.264-20.843-9.348-30.886c-13.174-5.211-9.15,9.641-13.607,14.741c-7.578,8.673-17.935,0.141-27.287-4.329
		c-15.224-7.271-33.322-4.996-51.603-5.104c-13.659-0.08-20.808,3.68-33.072,9.536c-11.27,5.38-13.487,3.232-23.778,1.964
		c-11.502-1.419-16.024,1.9-24.745-5.535c-5.4-4.605-11.538-19.896-19.971-17.233c-1.249,9.028,0.246,26.532-8.691,31.426
		c-8.968-10.534-5.313-30.286-12.018-42.521c-0.644,1.404-1.063,2.871-1.261,4.4c-6.899,1.473-11.316-6.608-17.622-5.618
		c-4.574,0.718-6.221,6.598-9.454,8.936c-13.82,9.992-13.264,0.929-25.883,0.456c-1.942,13.026,0.743,26.894-0.977,39.966
		c-11.854-1.189-21.008,8.584-32.773,10.992c-8.606-6.935,2.456-22.283-9.589-29.91c-5.959,9.49,1.642,23.514-5.866,33.265
		c-8.947,11.62-19.523,3.493-23.992-7.858c-2.491,2.044-5.988,3.142-7.58,7.371c-0.799-0.902-1.799-1.325-3.001-1.27
		c-6.14,4.621-8.172,26.885-9.086,34.455c-1.532,12.674-0.757,32.608-12.081,40.546c-0.081-10.032-6.245-17.169-9.589-25.831
		c-4-10.363-2.925-20.888-6.747-31.533c-5.965-16.607-14.565-37.458-23.342-51.989c-0.943,6.202-4.161,13.089-5.75,19.302
		c-2.263,8.854-4.223,17.345-6.245,26.204c-1.201,5.261,0.867,9.352-3.684,13.974c-2.317,2.354-7.169,2.24-8.313,3.362
		c-4.424,4.341-6.075,16.973-14.494,14.321c0.26-6.957-4.031-12.767-4.021-19.706c-13.474,5.025-13.177,34.751-14.403,46.304
		c-1.352,12.726,1.208,39.207-11.414,46.372c0.866-9.527-3.601-24.816-7.267-34.073c-3.131-7.905-9.11-28.734-16.735-32.454
		c-1.515,9.387,2.619,23.51-4.122,31.148c-3.742,4.241-10.449,2.298-13.869,7.075c-1.971,2.753-0.896,10.223-1.121,13.475
		c-1.658,0.332-3.317,0.664-4.976,0.995c-2.576,10.548,4.445,17.535,2.034,28.122c-10.109,2.272-18.896,2.521-29.096,3.861
		c-0.602,13.22-4.459,25.066-6.443,37.436c-1.473,9.172,0.619,12.432-5.275,20.598c-2.86,3.964-8.498,5.867-12.06,10.412
		c-7.725-7.495-10.826-21.104-16.422-30.729c-3.944,2.438-4.495,9.392-8.023,10.921c-5.208,2.257-10.269-1.493-14.714-2.099
		c-1.103,7.069,2.354,17.346-4.131,22.338c-3.987,3.069-18.303,0.59-23.395,0.591c-16.211,0.005-37.735-3.365-36.004,17.477
		L-49,451.121z"/>
	<g transform="matrix(1, 0, 0, 1, 0, 2.842170943040401e-14)">
		<g>
			<path fill="#00294E" d="M78,204.633c9.538,5.817,3.913,40.675,4,52.046c0.114,14.773-7.28,27.079-8.007,41.968
				C72.575,327.676,70,355.661,70,384.996c0,27.744-0.188,55.496-0.007,83.238c0.154,23.608-10.701,45.29-14.043,68.413
				c-3.164,21.886-3.511,45.778-3.904,67.851c-0.265,14.889-3.726,29.824-6.602,44.381c-3.338,16.895-3.505,34.74-5.883,51.673
				c-3.286-2.638-2.289-14.796-3.021-19.775c-1.866-12.697-4.539-25.034-4.588-37.897C31.885,624.898,30,607.178,30,589.135
				c0-19.613,0.79-38.959,2-58.604c1.095-17.778,2.5-32.352-2-49.897c-2.07-8.075-0.931-15.71-1.954-24.046
				c-0.467-3.802-2.349-0.729-2.136-4.914c0.309-6.052,1.796-17.374,2.637-23.542c1.708-12.523,5.528-25.215,5.452-37.975
				c-0.034-5.706,0.854-12.765,1.896-18.278c0.869-4.593,3.583-8.431,4.15-13.245c0.908-7.725-0.03-16.207-0.046-24
				c-0.021-10.065,2.548-18.571,3.555-27.954c3.304-30.8,10.808-67.237,27.843-92.498"/>
			<path fill="#00294E" d="M138,568.633c12.364,8.481,4.06,77.979,4,96c-0.114,34.719,12.044,60.789,3.11,95.588
				c-9.854-3.847-5.623-10.917-7.125-19.588c-1.886-10.887-3.976-14.314-9.083-23.779c-7.458-13.821-16.104-28.398-19.886-43.237
				c-10.204-40.037,9.097-65.575,24.982-100.982"/>
			<path fill="#00294E" d="M897.694,815.08c14.854,2.781,96.886,24.566,112.213,25.554c24.461,1.577,22.924,0.876,41.218,16.207
				c10.229,8.572,30.148,12.421,36.569,23.895c-38.811,1.696-133.656,5.13-134.989-5.649c-1.995-16.13-11.996-11.51-20.704-24.924
				C922.288,835.197,908.498,830.027,897.694,815.08"/>
			<path fill="#00294E" d="M1390,200.633c-7.608,15.282-10.84,38.056-18,52.5c-7.044,14.21-4.851,30.514-11.5,44.5
				c-14.516,30.53-6.438,51.469-6.5,83.89c-0.042,21.938,3.426,46.752-0.797,68.192c-4.124,20.938-11.272,37.087-11.203,58.825
				l24.128,48.954c4.738-22.613,12.664-44.014,11.872-67.972c-0.969-29.299,3.591-118.019,7.203-133.987
				c2.96-13.092,2.256-29.854,3.907-42.903c1.988-15.718-2.622-28.52-3.11-44c-0.504-15.963,4-49.527,4-65.5"/>
			<path fill="#00294E" d="M1223.406,312.448c-0.019,14.662,9.996,22.864,13.927,36.852c8.071,28.721,8.667,49.854,8.667,79.633
				c0,43.313,4.951,89.692,0.207,132.69c-2.045,18.525-7.756,35.148-8.207,54.028c-0.536,22.416,0,44.924,0,67.345
				c0,51.035-8.167,56.003,2.5,110.138c6.706-44.467,25.479-78.356,25.5-140.5c0.013-36,0-72,0-108c0-36.838-4.381-71.8-4-108
				c0.104-9.941-1.867-15.437-4-24c-2.34-9.394-2.434-17.804-3.907-28.092C1252.223,371.488,1244.706,329.967,1223.406,312.448"/>
			<path fill="#00294E" d="M1070.658,607.679c-0.19,0.764,9.776,43.917,11.008,51.954c2.635,17.213-1.778,29.079,4.667,45.667
				c5.857,15.074,8.28,12.874,12.667,28c3.689,12.728-2.02,52.234-3.334,65.333c-2.666-11.333-7.985-51.391-9.68-61.986
				c-1.889-11.798-9.278-19.047-13.653-30.681c-5.484-14.588-2.531-24.001-3-40.667
				C1068.959,651.99,1070.658,620.994,1070.658,607.679"/>
			<path fill="#00294E" d="M1187,780.633c0,51.93-10.08,114.567,8.982,162.777c8.464-12.361,4.744-40.313,7.906-55.859
				c2.668-13.117,11.917-25.823,11.779-38.611c17.659,1.973,7.664,49.636,22.557,51.375c2.425-10.038,4.123-21.548,8.89-30.679
				c-0.414,14.255,4.873,33.248,8.882,47.09c5.126,17.696,5.855,32.8,7.895,51.019c1.82,16.279,4.146,32.734,8.093,48.89
				c3.201,13.109,1.789,26.039,3.701,39.476c2.188,1.462,4.368,1.462,6.541,0c12.433-50.752,10.023-101.72,29.665-150.08
				c3.209,5.987,7.52,11.355,14.319,10.094c7.376-28.749,8.806-54.172,12.583-83.488c1.896-14.711,4.309-28.106,4.207-43.793
				c-0.115-17.927,5.713-33.954,3.203-51.873c-8.512,3.958-16.602,48.127-18.313,59.46c-2.981,19.748-0.127,46.521-13.895,62.997
				c-7.628-9.079-6.005-22.572-16.093-29.788c-8.92,23.257-9.183,54.312-11.886,79.092c-13.076-20.033-4.075-69.081-27.907-82.912
				c-7.229,8.108-8.949,21.28-18.028,26.406c-5.209-8.208-12.826-14.843-17.067-23.381c-4.067-8.187-2.807-15.569-11.218-19.794
				c-1.789,10.556,1.223,20.906-5.004,30.585c0.389-18.327-1.883-41.265-15.793-54.998"/>
			<path fill="#00294E" d="M937,736.133c0.76-1.249,3.803,0.564,4.975,1.012c1.94,0.744,4.345,0.528,6.414,0.988
				c4.449,0.988,8.982,3.887,13.109,6.014c5.479,2.824,10.234,7.117,14.465,11.486c4.569,4.72,11.472,9.559,18.025,10.389
				c2.861,0.363,5.844,0.419,8.637,1.128c3.523,0.895,4.396,2.41,6.85,4.994c2.051,2.158,4.988,3.419,7.505,4.868
				c2.026,1.168,4.261,2.189,6.284,3.497c2.684,1.731,5.437,2.64,8.188,4.125c6.773,3.661,9.37,12.659,16.498,16.011
				c5.34,2.513,11.521,3.236,16.31,6.865c-3.582,2.424-9.368,0.932-13.231,0.233c-2.124-0.384-4.283-0.318-6.401-0.709
				c-3.266-0.604-6.505-2.327-9.676-3.302c-2.446-0.754-4.595-1.497-6.887-2.589c-3.354-1.596-6.516-3.98-10.085-5.032
				c-3.563-1.051-7.364-2.011-10.978-0.978c-3.026,0.865-6.012,1.032-8.889,2.125c-0.945,0.359-3.595,0.889-3.044,2.276
				c0.611,1.54,6.02,1.065,7.333,1.211c3.378,0.371,6.36,1.854,9.464,3.266c2.369,1.078,4.796,2.137,7.258,2.997
				c1.908,0.667,4.416,2.069,6.375,2.235c-1.676,1.486-5.975,1.251-8.12,1.401c-3.747,0.264-7.293,0.548-11.002,1.018
				c-3.014,0.381-6.161,0.667-9.225,0.36c-3.127-0.312-6.609-0.166-9.662-0.86c-4.715-1.071-8.558-2.991-13.488-3.028
				c-1.847-0.014-3.498,0.861-5.111,0.889c-2.626,0.045-3.114-1.05-4.524-3.276c-2.133-3.37-2.958-6.906-3.878-10.623
				c-0.182-0.732-0.732-1.678-0.505-2.5c0.418-1.512,1.129-0.748,2.516-0.99c1.856-0.325,3.119-2.285,1.904-4.398
				c-0.412-0.717-1.4-0.734-1.803-1.198c-0.435-0.503-0.552-1.471-0.962-2.039c-0.974-1.348-2.25-2.51-3.248-3.863
				c-0.986-1.338-2.258-2.412-2.902-3.974c-0.77-1.863-1.062-4.147-1.485-6.027c-0.768-3.396-0.81-6.318-2.391-9.499
				c-0.76-1.527-1.521-3.219-2.609-4.499c-0.854-1.004-2.104-1.951-2.876-3.101c-1.632-2.434-3.271-4.608-4.999-6.915
				c-1.682-2.247-2.676-6.256-4.625-7.986"/>
			<path fill="#00294E" d="M560.658,807.662c-3.057,4.632-5.526,8.529-9.411,13.242c-4.423,5.367-9.471,11.403-14.81,15.78
				c-15.672,12.847-35.546,17.27-54.185,23.697c-8.692,2.998-16.027,4.251-25.23,4.251c-8.308,0-15.248,0.724-22.801,3.807
				c-3.886,1.586-8.226,3.95-12.197,5.241c-5.574,1.813-11.209,1.918-16.774,4.197c-4.906,2.009-9.943,3.062-14.922,4.953
				c-3.3,1.255-9.994,3.604-12.246,5.599c6.337,0.467,14.645-1.274,21.185-2.017c6.585-0.746,13.018-1.231,19.681-1.758
				c5.307-0.419,10.893-1.16,16.052-1.802c4.814-0.597,10.044-1.711,14.869-1.048c0.754,2.749-8.634,7.133-10.92,8.63
				c-3.905,2.56-8.54,3.114-13,4.444c-4.169,1.245-7.917,3.222-11.872,4.974c-6.686,2.964-13.843,3.912-20.548,6.777
				c-12.797,5.469-25.931,9.524-38.971,14.248c-3.863,1.4-9.127,0.933-12.555,2.704c-3.63,1.877-7.068,5.951-11.521,6.87
				c6.148-2.889,17.738-3.488,24.537-2.873c6.367,0.576,12.426,3.338,18.755,4.104c8.816,1.064,17.689-1.162,26.226-1.053
				c8.222,0.106,17.761-0.062,25.667-2c8.687-2.129,16.597-4.911,25.216-5.955c8.519-1.03,17.509-3.195,25.784-4.045
				c7.387-0.756,15.825-4.066,22.336-7.199c8.251-3.968,17.123-11.972,21.664-19.467c4.308-7.111,6.627-15.048,10.562-22.147
				c3.461-6.244,8.707-11.241,12.574-17.212c3.249-5.017,7.123-9.339,10.95-14.222C568.667,820.634,559.838,814.698,560.658,807.662
				"/>
			<path fill="#00294E" d="M388.667,720.633c0.215,2.231-4.359,4.545-5.968,6.021c-2.758,2.526-7.214,5.856-10.662,7.312
				c-10.349,4.366-21.106,7.832-32.037,10.854c-8.161,2.256-16.885,5.938-24.518,9.686c-10.25,5.03-22.25,7.106-32.498,12.164
				c8.238-0.229,16.423-0.94,24.531-2.185c3.347-0.515,6.533-2.015,9.82-2.531c2.987-0.471,6.484-0.266,9.065-1.268
				c-7.848,5.833-18.167,7.693-26.733,11.981c2.175-0.065,4.905-0.431,7.014,0.101c1.756,0.442,3.592,1.707,5.284,1.902
				c4.138,0.479,8.518-0.599,12.613,0.082c0.002,2.434-2.701,4.611-4.563,6.05c-4.396,3.396-9.836,5.95-14.713,8.501
				c-8.924,4.666-17.429,10.107-25.981,15.35c-0.949,0.582-3.889,1.826-4.521,2.817c-1.063,1.668,0.039,1.431-0.25,3.151
				c-0.253,1.506-1.521,3.149-1.898,4.682c-0.359,1.46-0.322,2.535-0.817,3.984c-1.546,4.523-5.171,7.771-8.813,10.846
				c-3.03,2.56-8.738,5.943-10.153,9.718c3.872,1.164,9.741-3.729,12.956-5.228c3.81-1.775,7.804-3.471,11.509-5.303
				c2.668-1.319,5.125-3.042,7.984-3.366c2.545-0.289,5.865,0.543,8.05-0.617c3.141-1.667,5.505-2.762,8.133-5.201
				c4.323-4.012,9.91-7.882,13.5-12.471c3.188-4.074,7.277-6.984,10.75-10.779c3.396-3.71,7.222-6.886,9.75-11.5
				c2.739-4.999,4.905-10.35,9.75-13.75c3.256-2.285,5.441-3.989,8.75-6.25c3.156-2.157,7.786-3.692,10.75-6.25
				c3.338-2.88,7.928-5.18,11-8.25c2.907-2.903,5.146-8.896,8.436-11.308C387.863,736.879,391.5,726.633,388.667,720.633"/>
			<path fill="#00294E" d="M14,640.633c0,0-3.999-4.591-3.999-5.333c0,17.179,5.196,39.371,6.942,56.569
				c0.928,9.13,1.946,18.048,3.054,27.109c0.318,2.607,1.037,10.055,3.345,11.773c3.771,2.811,8.687-2.668,11.392-4.113
				c1.203,6.787-1.189,13.794-1.193,20.84c-0.004,6.811-0.915,14.271-0.077,20.998c1.607,12.907,6.419,25.673,10.25,37.832
				c4.173,13.248,4.871,29.205,4.828,43.165c-0.02,6.354,0.761,11.742,1.465,18.033c0.749,6.688,5.313,11.587,7.799,17.886
				c5.189-1.177,8.354-8.06,11.7-11.92c3.707-4.275,8.786-8.912,13.229-11.996c1.847,2.715,1.853,6.198,3.228,9.031
				c1.579,3.254,3.801,5.167,4.944,8.965c1.764,5.856,2.146,12.268,4.466,17.999c2.541,6.283,6.166,11.957,9.077,18.076
				c2.547,5.354,2.885,10.758,3.755,16.422c2.427,15.796,4.276,30.209,11.161,44.921c2.484,5.31,3.655,11.598,8.637,13.523
				c7.567,2.927,9.215-4.411,14.772-8.453c2.027,3.784,1.3,7.402,2.061,11.435c1.256,6.648,4.55,14.446,6.826,20.814
				c3.32,9.285,5.813,17.584,8.208,27.101c5.104-2.285,10.477-12.976,13.165-17.814c5.95-10.71,10.167-23.982,13.946-35.641
				c5.406-16.683,7.471-34.291,16.088-49.578c7.764,23.793-3.752,52.248-3.029,76.488c0.659,22.144,9.667,44.629,5.655,67.077
				c-5.407-5.521-4.655-20.571-5.626-28.384c-1.121-9.016-5.335-16.318-6.369-25.451c-2.224,2.471-2.68,11.548-3.792,15.36
				c-1.339,4.586-3.05,8.738-5.249,13.131c-2.692,5.375-9.086,20.937-15.79,20.884c-1.694-4.062-2.243-12.579-6.034-14.8
				c0.928,11.615-16.2,26.703-22.832,35.956c-7.156,9.984-12.944,22.883-22.222,30.64c-2.891-18.844-0.28-40.084-0.28-59.215
				c0-8,0-16,0-24c0-6.245,2.545-18.53-0.286-24.026c-2.21-4.293-4.419-2.533-8.685-2.978c-5.701-0.591-5.939-2.011-7.913-7.494
				c-3.266-9.071-7.765-17.489-10.075-27.032c-2.254-9.31-3.753-18.696-5.709-28.25c-1.646-8.045-3.723-18.757-3.633-26.76
				c-4.578,8.643-9.535,17.512-18.897,7.046c-5.905-6.6-10.102-14.631-14.167-22.462c-2.744,3.242-1.65,11.993-2.928,16.452
				c-1.455,5.083-3.059,9.777-4.209,15.011c-1.369,6.227-3.076,12.551-4.452,18.865c-0.416,1.913-0.781,4.986-1.428,6.71
				c-0.893,2.382-3.479,2.574-3.333,5.877c-9.605-2.229-9.302-28.086-10.32-35.987c-1.369-10.614-2.923-20.597-2.923-31.506
				c0-8.711,1.161-18.318,0.077-26.956c-1.198-9.553-3.077-18.492-3.077-28.499c0-17.911-3.756-36.119-1.534-53.998
				c1.976-15.901,3.318-34.576,1.313-50.854c-0.914,0.612-3.031,0.619-3.979,1.212c-5.412-13.65-4.799-26.556-4.799-41.854
				c0-7.262-0.836-14.418-1.577-20.922c-0.923-8.088,4.936-44.243,5.035-52.26"/>
		</g>
	</g>
</g>
</svg>
