<?xml version="1.0" encoding="utf-8"?>
<!-- Generator: Adobe Illustrator 16.0.0, SVG Export Plug-In . SVG Version: 6.00 Build 0)  -->
<!DOCTYPE svg PUBLIC "-//W3C//DTD SVG 1.1//EN" "http://www.w3.org/Graphics/SVG/1.1/DTD/svg11.dtd">
<svg version="1.1" id="Layer_1" xmlns="http://www.w3.org/2000/svg" xmlns:xlink="http://www.w3.org/1999/xlink" x="0px" y="0px"
	 width="1400px" height="1612.471px" viewBox="0 0 1400 1612.471" enable-background="new 0 0 1400 1612.471" xml:space="preserve">
<linearGradient id="SVGID_1_" gradientUnits="userSpaceOnUse" x1="486.4932" y1="355.9473" x2="486.4931" y2="1007.1763">
	<stop  offset="0" style="stop-color:#3B6A8D"/>
	<stop  offset="0.114" style="stop-color:#366387"/>
	<stop  offset="0.6812" style="stop-color:#1F446D"/>
	<stop  offset="1" style="stop-color:#163963"/>
</linearGradient>
<path fill="url(#SVGID_1_)" d="M642,1004.633c1.137,0.849,1.364-42.607-4.106-63.984c-5.263-20.561-7.063-41.653-12.684-63.317
	c-13.948-2.284-15.986-18.148-19.21-28.697c-3.432-11.229-11.511-21.896-15.096-32.903c-8.578-26.336-10.588-59.197-13.794-86.776
	c-9.393,8.089,1.054,33.611-7.226,46.378c-3.514-9.713-9.417-19.693-11.898-29.317c0.006,7.708-14.094,10.944-20.271,6.016
	c-6.364-5.077-3.788-16.048-3.715-23.396c0.161-16.166,2.634-35.535-0.904-51.109c-3.304-14.547-15.096-27.213-20.192-40.685
	c-5.178-13.683-2.968-30.35-10.903-42.997c-7.302,11.661-7.127,33.177-8,46.599c-1.346,20.69-0.48,42.254,0.207,62.982
	c-6.59-19.253-27.212-37.033-24.797-58.2c-2.986,0.543-7.83-1.718-10.818-1.181c-1.615-12.923,0.53-26.334-0.604-39.41
	c-1.201-13.844-7.847-23.067-11.973-36.207c-4.632-14.752,0.069-13.999,5.068-27.587c5.286-14.365,1.932-17.705-3.986-29.21
	c-3.646-7.09-8.302-5.382-9.382-15.01c-0.742-6.616,6.159-12.325,4.464-20.192c-2.347-10.895-16.558-14.045-20.371-23.601
	c-2.214-5.547,1.44-14.335,0.285-20.285c-1.013-5.217-4.087-7.265-5.188-11.701c-2.964-11.933-1.975-23.347-3.494-35.616
	c-19.272,2.325-11.285-19.507-26.633-21.352c-0.578-2.165-1.064-4.35-1.459-6.555c-28.586-11.423-19.419,51.862-19.317,67.317
	c0.12,18.055-7.102,17.772-12.192,31.808c-3.86,10.646-0.548,28.776-2.918,40.192c-5.034,24.254-2.357,52.18-9.004,75.886
	c-6.881,24.549-17.103,50.322-7.886,76.114l-3.671,358.541L642,1004.633z"/>
<linearGradient id="SVGID_2_" gradientUnits="userSpaceOnUse" x1="1049.9355" y1="352.1929" x2="1049.9355" y2="1011.2886">
	<stop  offset="0" style="stop-color:#3B6A8D"/>
	<stop  offset="0.114" style="stop-color:#366387"/>
	<stop  offset="0.6812" style="stop-color:#1F446D"/>
	<stop  offset="1" style="stop-color:#163963"/>
</linearGradient>
<path fill="url(#SVGID_2_)" d="M1279.872,1011.288c0.064-22.796-6.688-204.613-6.823-227.409
	c-0.078-13.251,4.462-23.968,6.069-35.875c2.04-15.112-0.065-28.279-6.165-41.182c-7.396-15.646-12.077-35.46-23.154-49.042
	c-8.705-10.673-14.907-16.184-18.668-29.858c-3.227-11.73-4.982-24.707-9.755-36.003c-9.646-22.834-23.888-39.804-13.667-66.076
	c3.26-8.378,5.75-6.961,3.07-15.669c-1.402-4.557-8.453-8.918-9.204-11.932c-1.653-6.643,3.169-8.17,2.681-14.266
	c-0.426-5.319-5.03-12.946-6.962-18.07c-7.603-20.158-20.088-37.324-29.256-57.006c-2.702-5.803-4.476-12.549-8.926-17.479
	c-2.446-2.71-8.329-3.083-11.409-7.191c-4.842-6.458-7.248-24.001-7.267-32.037c-5.271,4.096-13.615,2.695-20.335,3.369
	c-8.772,0.88-17.771,3.883-26.629,5.846c0.185,19.293-18.919,32.638-36.445,32.491c-14.523-0.122-16.608-1.522-21.002,12.001
	c-3.228,9.932-4.232,16.554-5.847,27.002c-1.888,12.224-6.742,14.268-3.893,27.083c2.574,11.573,4.411,18.098,1.475,29.923
	c-2.646,10.653-6.43,18.946-6.737,30.003c-0.213,7.604,2.631,20.094,0.145,27.146c-2.607,7.4-12.405,10.344-16.037,17.121
	c-2.92,5.449-4.54,18.6-5.265,24.584c-2.219,18.337,0.103,38.646,0.155,57.16c0.03,10.971-1.705,15.47-5.333,24.67
	c-3.612,9.159-2.524,16.931-3.514,27.003c-1.966,20.022-9.512,37.989-9.001,58.433c-7.283-13.012-3.194-24.167-6.012-38.098
	c-2.837-14.03-11.256-23.513-9.3-39.004c2.352-18.618,13.356-61.181-14.324-66.53c-0.377-4.554-0.717-9.433-0.976-14.024
	c-21.424-2.927-16.384-2.477-23.464-21.611c-3.201-8.653-14.643-17.256-15.002-25.871c-5.534,8.382-8.429,25.271-9.087,35.027
	c-0.8,11.871-3.122,22.161-5.836,33.014c-3.227,12.908-6.285,22.306-6.165,35.993c0.088,9.934-0.747,23.229-14.559,21.445
	c-4.104,11.104,9.697,22.748-8.862,27.142c-0.415,1.652-0.803,3.312-1.164,4.977c-10.86-2.166-12.328-3.075-14.408,9.455
	c-1.396,8.407,0.338,17.54,2.252,24.729c4.725,17.729-2.119,32.071-8.932,50.269c-6.711,17.931-15.874,32.476-21.07,51.005
	c-5.08,18.11-5.293,147.167-5.266,166.119L1279.872,1011.288z"/>
</svg>
