<svg xmlns="http://www.w3.org/2000/svg" width="1400" height="899.215" viewBox="0 0 1400 899.215"><linearGradient id="a" gradientUnits="userSpaceOnUse" x1="404.232" y1="1130.554" x2="640.318" y2="1539.468" gradientTransform="translate(638 -640.012)"><stop offset="0" stop-color="#fceea6"/><stop offset=".557" stop-color="#fdd4af"/><stop offset="1" stop-color="#ffb395"/></linearGradient><path fill="url(#a)" d="M1602.57 899.247V406.092c-8-26.202-73.679-3.904-87.095 7.251-8.717-33.558-25.945-73.134-67.355-74.242-41.196-1.101-66.698 39.863-72.949 74.25-20.548-14.957-49.174-9.09-46.425 20.373-45.509-1.688-79.478 45.82-76.021 89.019-1.404-48.825-87.223-90.127-106.155-31.711 5.667-49.865-45.202-40.853-71.073-18.045-30.593 26.97-48.18 75.022-47.835 115.001-10.771-45.465-85.228-33.784-105.685-6.873-5.843 7.688-5.526 11.969-13.455 17.102-8.818 5.707-23.288 3.236-31.722 11.169-13.511 12.709-6.173 37.312-3.923 53.179-28.549 2.641-50.994-10.506-102.803-.172-34.451 6.873-104.682 35.543-122.828 111.662-32.001 104.434 42.421 126.154 39.791 125.16"/><linearGradient id="b" gradientUnits="userSpaceOnUse" x1="298.788" y1="1514.026" x2="168.875" y2="1904.179" gradientTransform="rotate(9.957 6082.64 862.376)"><stop offset="0" stop-color="#fceea6"/><stop offset=".557" stop-color="#fdd4af"/><stop offset="1" stop-color="#ffb395"/></linearGradient><path fill="url(#b)" d="M-242.941 335.037c-.273-22.894 73.128-12.372 85.976-5.695 25.592 13.299 33.291 33.457 42.662 58.269 16.483-10.921 45.723-10.354 36.956 17.397 22.693-7.992 41.176 6.17 45.733 29 4.229 21.202-6.06 36.279-16.754 53.452 14.037-7.617 21.184 5.853 17.657 18.312 28.697-25.693 66.445-5.38 74.379 25.864 20.149-29.316 48.001-51.183 84.616-50.648 28.83.422 61.259 20.698 66.634 50.655 7.547-16.744 44.091-17.427 38.706 7.358 18.167-20.507 62.17-17.563 55.465 17.161 22.804 2.08 49.821-5.337 64.83 19.178 12.012 19.621 23.091 59.121 19.375 82.557 11.619-2.133 22.906-10.988 35.87-12.451 18.701-2.109 38.041 5.152 53.674 14.723 29.683 18.168 64.574 44.906 77.449 78.301 10.729 27.826 3.257 54.041-6.547 80.047-7.701 20.43-6.445 16.721 12.581 24.924 18.057 7.787 17.454 13.289 21.192 31.818 21.589-1.869 39.485-3.816 58.538 9.098 10.689 7.246 26.126 39.822 28.782 40.482l-901.935 7.248 4.161-597.05z"/></svg>