<svg xmlns="http://www.w3.org/2000/svg" width="1400" height="899.215" viewBox="0 0 1400 899.215"><linearGradient id="a" gradientUnits="userSpaceOnUse" x1="355.685" y1="639.011" x2="355.685" y2="948.887" gradientTransform="translate(638 -640.012)"><stop offset="0" stop-color="#a4a9bd"/><stop offset=".335" stop-color="#d4a8af"/><stop offset=".645" stop-color="#e9aaa4"/><stop offset="1" stop-color="#f6aba2"/></linearGradient><path fill="url(#a)" d="M900.249-.998c-13.854 19.452 30.816 54.146 8.446 67.025-9.61 5.534-18.465-4.644-26.938 7.365-6.546 9.278-4.646 23.195 1.217 31.67-30.435 7.887-27.154 35.113-21.497 60.089 12.58 55.528-46.056 2.635-40.997 35.834-20.916-3.601-17.076 6.697-22.162 24.279-7.213 24.936-15.452 1.406-30.389 12.406-9.683 7.13-5.289 30.217-13.853 40.532-7.676 9.246-24.549 13.469-34.961 10.337-15.141 33.401 51.624 16.626 62.525 12.208 9.914-4.019 15.05-13.88 23.973-18.37 12.111-6.095 19.846 4.533 31.857 1.538 11.349-2.829 13.738-14.52 20.904-22.58 11.183-12.577 22.491-10.112 37.617-4.174 16.265 6.385 89.1 30.25 71.431-12.131 5.938-.324 21.455 2.9 26.337-.532 7.782-5.474 3.421-21.381 4.502-30.884 3.806-33.461 17.265-64.195 52.45-66.583 33.729-2.29 99.796 22.69 100.984-37.27 37.713-2.229 70.439.102 96.087-35.964 10.274-14.446 33.608-57.803 16.759-74.799l-364.292.004z"/><linearGradient id="b" gradientUnits="userSpaceOnUse" x1="-211.418" y1="639.832" x2="-211.418" y2="919.744" gradientTransform="translate(638 -640.012)"><stop offset="0" stop-color="#a4a9bd"/><stop offset=".335" stop-color="#d4a8af"/><stop offset=".645" stop-color="#e9aaa4"/><stop offset="1" stop-color="#f6aba2"/></linearGradient><path fill="url(#b)" d="M190.752-.18c-3.971.971 45.383 84.693 81.948 107.322 16.287 10.08 32.513 14.102 49.939 18.224 17.304 4.093 18.315 7.529 29.025 22.718 23.625 33.507 55.622 56.094 92.451 62.384 9.663 1.65 34.29-4.966 40.429-.649 5.091 3.58 3.068 15.983 9.51 21.447 5.51 4.671 11.082 2.939 17.739 3.448 30.564 2.331 46.562 13.559 72.935 28.298 26.587 14.857 49.354 22.316 77.908 11.796-17.775-23.52-48.196-13.932-69.191-33.523-18.598-17.354-18.427-42.694-46.682-43.327-3.908-49.825-39.591-10.792-61.033-32.552-18.119-18.385-3.722-56.153-39.618-60.589-1.082-24.346-.041-43.384-12.023-64.546-10.63-18.776-22.743-29.777-36.827-39.102L190.752-.18z"/></svg>