<svg xmlns="http://www.w3.org/2000/svg" width="1400" height="899.215" viewBox="0 0 1400 899.215"><linearGradient id="a" gradientUnits="userSpaceOnUse" x1="521.642" y1="1132.047" x2="1038.091" y2="615.598" gradientTransform="translate(638 -640.012)"><stop offset="0" stop-color="#fed1ad"/><stop offset="1" stop-color="#fec8a7"/></linearGradient><path fill="url(#a)" d="M1617.458 148.263c1.582.819-19.074 5.963-27.219 8.019-14.83 3.745-28.24 8.901-40.906 18.031-20.905 15.068-32.84 37.95-52.83 54.324-11.053 9.054-20.134 13.03-33.262 16.531-11.206 2.987-12.299 7.954-19.567 16.36-16.995 19.651-50.748 22.283-73.681 28.75-25.285 7.132-45.064 11.042-64.273 31.087-5.123 5.347-10.111 11.951-16.492 15.498-7.138 3.967-16.013 3.262-23.489 6.766-13.953 6.542-27.167 13.755-41.799 19.04-13.972 5.045-38.799 20.104-54.013 14.046-15.257-6.075 18.485-18.053 24.89-21.313 6.608-3.364 13.566-6.885 19.774-11.523 6.811-5.091 11.408-12.998 17.882-18.057 13.463-10.521 31.374-3.197 45.384-12.449 16.522-10.911 28.984-30.707 45.59-42.882 14.504-10.632 31.619-18.249 48.379-22.096 12.863-2.955 29.257-.016 40.938-8.209 12.522-8.783 8.717-27.514 19.308-39.095 12.395-13.549 25.594-5.779 38.222.144.432-2.349.69-4.882 2.02-6.886 9.595-14.449 17.394-27.231 36.287-26.049 8.181.513 13.34 5.094 18.839-3.956 3.771-6.205 3.641-15.417 5.301-22.148 4.158-16.854 17.342-28.625 34.686-24.236 11.863 3.004 30.951 18.831 40.729 2.25l9.302 28.053z"/><linearGradient id="b" gradientUnits="userSpaceOnUse" x1="-655.845" y1="860.978" x2="-804.085" y2="946.565" gradientTransform="translate(638 -640.012)"><stop offset="0" stop-color="#fed1ad"/><stop offset="1" stop-color="#f9b4a0"/></linearGradient><path fill="url(#b)" d="M-216.789 218.731s66.954 32.727 99.518 60.779c32.564 28.052 130.241 90.169 170.248 95.179 40.008 5.01 4.645-5.009-22.338-25.047-26.982-20.037-1.865-57.107-33.5-71.133-31.633-14.026-44.663-12.023-44.663-12.023s3.053-44.031-39.078-62.116c-42.13-18.086-22.294-19.036-39.042-46.086-16.749-27.051-58.583-55.682-91.146-26.839v87.286z"/></svg>