<svg xmlns="http://www.w3.org/2000/svg" width="1400" height="899.215" viewBox="0 0 1400 899.215"><linearGradient id="a" gradientUnits="userSpaceOnUse" x1="-75.853" y1="1080.766" x2="964.57" y2="1080.766" gradientTransform="translate(638 -640.012)"><stop offset="0" stop-color="#f7b1a2"/><stop offset=".497" stop-color="#f9bda3"/><stop offset="1" stop-color="#fbcaa3"/></linearGradient><path fill="url(#a)" d="M1484.928-6.567c-33.106 7.158-23.037 39.797-34.697 60.313-11.648 20.495-45.679 25.799-63.263 40.24-23.544 19.335-31.735 40.821-37.509 69.366-2.181 10.797-3.809 22.401-13.227 30.305-9.354 7.849-24.76 7.728-35.203 15.584-13.856 10.426-17.575 29.91-26.422 43.656-12.895 20.039-28.516 26.753-48.345 38.11 27.221-18.694 16.192-47.464 21.384-73.495 3.835-19.225 21.047-23.251 36.284-34.774 19.891-15.042 19.347-20.187 8.988-39.108-10.761-19.653-2.479-16.666 12.564-27.308 15.439-10.923 3.672-22.12 15.106-33.828 4.81-4.925 17.225-4.681 23.529-8.658 6.033-3.807 14.202-12.07 17.604-18.2 8.391-15.116 12.057-70.435-10.814-75.701-.633 34.251-18.396 41.585-47.067 53.281-28.925 11.798-37.762 26.764-39.265 55.566-30.201 3.689-41.62 28.477-42.149 56.134-23.202-.218-47.318 10.436-56.392 32.089-12.3 29.357 1.205 64.165-8.943 95.536-12.201 37.711-36.384 39.739-71.769 46.997-16.11 3.305-34.485 10.227-45.31 22.836-10.965 12.774-8.677 24.981-9.638 40.768-10.424-4.543-15-12.967-27.828-14.977-16.323-2.558-33.096 2.297-46.752 10.536-30.098 18.157-37.546 39.947-34.083 72.906 1.908 18.146.092 18.63-17.514 18.543-14.56-.072-24.217 2.176-35.56 11.762-10.868 9.186-19.116 22.737-22.201 36.448-2.802 12.455-.742 22.372-14.396 26.972-19.534 6.58-35.114-12.741-47.706-22.836-16.089-12.898-33.045-13.926-50.725-4.507-32.068 17.082-53.324 49.75-57.568 83.584-30.722 5.072-50.952-24.855-73.135 7.815-16.723 24.628-34.772 256.862-40.763 292.183l1040.424-2.326L1600.444-.5l-115.516-6.067z"/><linearGradient id="b" gradientUnits="userSpaceOnUse" x1="-857.176" y1="1057.225" x2="252.5" y2="1057.225" gradientTransform="translate(638 -640.012)"><stop offset="0" stop-color="#f9b4a0"/><stop offset="1" stop-color="#fbcaa3"/></linearGradient><path fill="url(#b)" d="M-219.176-71.825c28.96.089 69.088 19.026 75.862 53.518 2.48 12.624-3.497 26.518-3.524 36.856-.048 16.873 9.941 20.331 24.66 26.032 24.199 9.373 39.136 22.697 23.122 50.99-1.825 3.225-8.998 10.674-9.172 14.203-.611 12.346 3.687 5.924 10.381 12.611 9.672 9.659 16.584 17.155 19.587 31.214 2.587 12.113-3.885 26.251 4.893 35.277 9.047 9.305 29.479 6.333 36.11-4.379 14.91-24.086-30.403-49.541-27.09-74.44 9.743-.968 16.478 15.334 22.169 22.82 8.227 10.819 16.972 19.373 29.136 26.033 27.306 14.948 51.955 20.979 73.894 45.372 20.856 23.188 28.911 47.761 56.456 64.013 9.646 5.691 29.709 12.542 36.412 21.533 12.869 17.262-10.789 8.927-19.817 6.534-18.163-4.818-35.621-10.472-51.454-22.756-17.468-13.551-33.174-36.143-57.102-32.106 9.777 6.29 8.85 23.735 16.588 33.771 7.422 9.625 16.021 17.983 25.436 25.587 21.558 17.412 47.133 10.699 72.674 15.003 11.854 1.999 26.643 6.802 36.402 16.045 20.69 19.598 14.856 24.638 43.59 19.774 21.979-3.721 46.737.469 65.11 14.598 10.387 7.987 19.76 16.743 27.866 27.889 3.858 5.303 5.744 14.393 11.217 18.04 9.685 6.453 3.066 1.619 13.394-.941 16.338-4.05 24.714-11.148 41.495-2.065 15.132 8.191 18.166 24.266 30.608 35.114 15.652 13.646 17.194-2.702 35.865 1.415 13.826 3.048 19.467 18.319 33.503 18.679 10.601.273 20.848-7.632 33.494-6.115 12.249 1.469 23.823 6.64 35.26 11.583 26.338 11.385 48.989 26.607 71.274 45.583 16.877 14.372 46.007 50.641 46.007 50.641s65.767-15.736 117.256 32.487c29.868 27.973 91.155 61.717 108.116 300.633-32.244 14.316-293.608 2.357-328.354 2.357h-778.517l-2.807-973.403z"/></svg>