<svg xmlns="http://www.w3.org/2000/svg" width="1400" height="899.215" viewBox="0 0 1400 899.215"><linearGradient id="a" gradientUnits="userSpaceOnUse" x1="781.58" y1="1296.922" x2="501.023" y2="1190.397" gradientTransform="translate(638 -640.012)"><stop offset="0" stop-color="#fcb39d"/><stop offset="1" stop-color="#fbc9a7"/></linearGradient><path fill="url(#a)" d="M1602.799 567.52s-128.411 57.686-150.656 66.061c-22.243 8.373-53.044 13.025-26.521-5.584 26.521-18.607 59.032-37.217 59.032-37.217s-135.175 64.199-166.83 40.939c0 0-319.973 106.066-397.828 83.736s65.877-19.537 126.62-34.426c60.745-14.887 53.044-51.172 116.354-56.754 63.313-5.582 65.878-50.242 120.633-56.756 54.756-6.513 73.577 5.582 73.577 5.582s11.121-52.103 51.333-54.894c40.21-2.792 82.132 6.513 82.132 6.513s-2.567-46.521 43.633-54.895c46.199-8.374 68.443 9.305 68.443 9.305l.078 88.39z"/><linearGradient id="b" gradientUnits="userSpaceOnUse" x1="-2.174" y1="1314.021" x2="-304.465" y2="1546.617" gradientTransform="matrix(1.1087 .0906 -.0814 .9967 301.427 -799.76)"><stop offset="0" stop-color="#fbc9a7"/><stop offset="1" stop-color="#fcb39d"/></linearGradient><path fill="url(#b)" d="M-219.176 635.194c.012.07 100.082 41.254 158.872 44.531-2.705-3.008-6.597-5-10.763-7.104-62.92-31.748-78.223-38.6-78.223-38.6s99.358 31.924 208.383 49.234c109.023 17.311 229.049 14.514 229.049 14.514s80.559-1.043 1.24-14.914c-50.4-8.813-102.976-2.533-152.113-17.561-58.745-17.965-40.27-74.578-117.65-81.955-34.698-3.306-27.25 3.586-50.93-18.086-17.274-15.807-31.788-31.868-52.5-45.67-31.839-21.217-136.521-31.848-136.521-31.848s-1.327 133.206 1.156 147.459z"/></svg>