<svg xmlns="http://www.w3.org/2000/svg" width="400" height="400" viewBox="0 0 400 400"><path fill="#EDEEF1" d="M177.8 138.991s-27.488 37.766-29.678 42.475c-1.926 4.133 18.69 16.532 20.656 16.321 2.633-.281 28.781-34.196 28.781-34.196l91.523 66.614 37.859-49.553-63.761-49.574-6.572 7.205s-35.413-1.929-36.957-2.185c-1.545-.258-41.851 2.893-41.851 2.893zm-30.919 117.558c-1.042 1.455-3.693 1.359-5.928-.216l-12.161-8.559c-2.234-1.578-3.208-4.038-2.171-5.496l16.693-23.24c1.042-1.459 3.694-1.36 5.935.216l12.156 8.559c2.234 1.58 3.209 4.037 2.174 5.496l-16.698 23.24zm22.634 18.292c-.997 1.389-3.676 1.209-5.991-.409l-12.559-8.792c-2.313-1.616-3.379-4.06-2.386-5.452l24.123-33.457c.998-1.395 3.682-1.209 5.994.405l12.56 8.795c2.31 1.616 3.375 4.059 2.382 5.452l-24.123 33.458zm21.234 15.123c-1.14 1.617-4.063 1.511-6.521-.229l-10.402-7.36c-2.462-1.746-3.526-4.466-2.392-6.082l21.137-29.596c1.142-1.614 4.063-1.507 6.525.238l10.396 7.36c2.463 1.741 3.531 4.461 2.394 6.074l-21.137 29.595zm19.274 12.894c-1.147 1.607-4.335 1.317-7.126-.665l-6.745-4.772c-2.792-1.975-4.135-4.885-2.991-6.5l12.866-17.923c1.142-1.608 4.333-1.321 7.125.661l6.743 4.772c2.794 1.978 4.136 4.892 2.988 6.503l-12.86 17.924z"/><path fill="none" stroke="#EDEEF1" stroke-width="7" stroke-miterlimit="10" d="M120.733 121.758l-30.985-21.71-43.986 64.022 30.985 21.714 43.986-64.026zm167.745 107.507l-46.041-30.108-38.785-34.491 16.021-17.112-45.882-3.369v.001l-42.214-14.312-43.561 63.566 56.585 51.715 28.567 15.698 44.692 29.221c3.147 2.063 7.044 1.67 8.684-.869l3.973-6.143c1.644-2.546.417-6.277-2.729-8.337l-31.99-20.922 2.072-2.432 42.155 27.564c2.675 1.749 5.89 1.569 7.171-.402l5.403-8.361c1.276-1.976.144-5-2.544-6.752l-40.085-26.219 2.318-2.722 48.803 31.916c2.43 1.589 5.428 1.271 6.71-.711l6.946-10.738c1.279-1.981.352-4.869-2.077-6.454l-46.429-30.358 2.236-2.616 48.426 31.66c3.336 2.175 7.069 2.341 8.345.364l6.95-10.745c1.276-1.981-.389-5.352-3.72-7.532z"/><ellipse fill="#EDEEF1" cx="69.935" cy="159.498" rx="6.822" ry="6.75"/><path fill="#EDEEF1" d="M290.938 96.104l-23.893 30.756 63.298 49.173 23.895-30.753-63.3-49.176zm39.471 61.455c-3.768 0-6.821-3.024-6.821-6.753s3.054-6.751 6.821-6.751c3.771 0 6.823 3.022 6.823 6.751s-3.052 6.753-6.823 6.753z"/></svg>