<?xml version="1.0" encoding="utf-8"?>
<!-- Generator: Adobe Illustrator 16.0.0, SVG Export Plug-In . SVG Version: 6.00 Build 0)  -->
<!DOCTYPE svg PUBLIC "-//W3C//DTD SVG 1.1//EN" "http://www.w3.org/Graphics/SVG/1.1/DTD/svg11.dtd">
<svg version="1.1" xmlns="http://www.w3.org/2000/svg" xmlns:xlink="http://www.w3.org/1999/xlink" x="0px" y="0px" width="500px"
	 height="500px" viewBox="0 0 500 500" enable-background="new 0 0 500 500" xml:space="preserve">
<g id="Layer_2">
</g>
<g id="Layer_1">
	<g>
		<path fill="#FFFFFF" d="M238.691,191.297c-16.924,0-26.827,14.095-26.827,31.478c0,17.386,9.903,31.479,26.827,31.479
			c16.922,0,26.824-14.094,26.824-31.479C265.516,205.392,255.613,191.297,238.691,191.297z"/>
		<polygon fill="#FFFFFF" points="227.999,262.715 236.979,275.427 231.045,279.862 238.229,326.037 246.005,279.399 
			239.229,275.437 248.461,262.715 		"/>
		<path fill="#FFFFFF" d="M417.313,102.315c-12.048,0-21.814,9.6-21.814,21.443c0,4.639,1.504,8.931,4.052,12.44l-72.701,71.353
			c-14.462-35.161-48.453-59.908-87.984-59.908c-13.348,0-26.062,2.826-37.608,7.917l-37.431-93.941
			c3.748-2.182,6.856-5.501,8.729-9.746c4.781-10.836-0.277-23.561-11.302-28.425c-11.022-4.864-23.833-0.024-28.615,10.812
			c-4.782,10.835,0.277,23.561,11.3,28.425c4.036,1.781,8.312,2.256,12.345,1.617l37.776,94.807
			c-30.089,16.459-50.613,48.946-50.613,86.253c0,25.748,9.779,49.198,25.727,66.671L81.371,376.72
			c-0.772-0.459-1.576-0.883-2.419-1.255c-11.023-4.865-23.834-0.025-28.615,10.81c-4.782,10.836,0.277,23.563,11.3,28.427
			s23.834,0.023,28.616-10.813c3.268-7.404,1.937-15.69-2.75-21.748l87.361-64.362c16.94,15.717,39.397,25.305,64.002,25.305
			c52.614,0,95.419-43.837,95.419-97.721c0-10.287-1.564-20.206-4.455-29.525l75.539-74.138c3.432,2.213,7.534,3.504,11.945,3.504
			c12.048,0,21.815-9.602,21.815-21.444C439.128,111.915,429.36,102.315,417.313,102.315z M300.261,307.734
			c-5.265-16.719-11.54-36.634-11.54-36.634l-28.086-14.323v28.646l-23.432,48.016l-20.568-48.016v-28.646l-27.466,14.323
			l-11.557,36.883c-15.601-16.059-25.213-38.203-25.213-62.621c0-48.919,38.791-88.719,86.442-88.719s86.431,39.799,86.431,88.719
			C325.271,269.655,315.721,291.696,300.261,307.734z"/>
		<path fill="#FFFFFF" d="M395.498,443.425c-3.375,0-6.569,0.754-9.422,2.099l-90.497-121.498l-6.416,4.779l90.425,121.4
			c-3.659,3.835-5.904,8.989-5.904,14.663c0,11.843,9.766,21.443,21.814,21.443s21.814-9.601,21.814-21.443
			C417.313,453.024,407.547,443.425,395.498,443.425z"/>
	</g>
</g>
</svg>
