<?xml version="1.0" encoding="utf-8"?>
<!-- Generator: Adobe Illustrator 16.0.0, SVG Export Plug-In . SVG Version: 6.00 Build 0)  -->
<!DOCTYPE svg PUBLIC "-//W3C//DTD SVG 1.1//EN" "http://www.w3.org/Graphics/SVG/1.1/DTD/svg11.dtd">
<svg version="1.1" id="Layer_3_copy" xmlns="http://www.w3.org/2000/svg" xmlns:xlink="http://www.w3.org/1999/xlink" x="0px"
	 y="0px" width="400px" height="400px" viewBox="0 0 400 400" enable-background="new 0 0 400 400" xml:space="preserve">
<g>
	<ellipse fill="none" stroke="#EDEEF1" stroke-width="3" stroke-miterlimit="10" cx="299.746" cy="122.209" rx="6.979" ry="6.848"/>
	
		<ellipse fill="none" stroke="#EDEEF1" stroke-width="7" stroke-miterlimit="10" cx="105.779" cy="121.198" rx="48.539" ry="48.012"/>
	
		<line fill="none" stroke="#EDEEF1" stroke-width="7" stroke-miterlimit="10" x1="130.875" y1="164.279" x2="156.117" y2="200.542"/>
	
		<line fill="none" stroke="#EDEEF1" stroke-width="7" stroke-miterlimit="10" x1="228.457" y1="199.547" x2="256.379" y2="153.515"/>
	<ellipse fill="none" stroke="#EDEEF1" stroke-width="4" stroke-miterlimit="10" cx="258.157" cy="96.493" rx="10.185" ry="9.993"/>
	<g>
		<ellipse fill="#EDEEF1" cx="297.945" cy="70.557" rx="6.979" ry="6.847"/>
		<path fill="#EDEEF1" d="M280.102,33.95c-34.604,0-62.66,27.806-62.66,62.103c0,34.299,28.056,62.104,62.66,62.104
			s62.658-27.806,62.658-62.104C342.76,61.756,314.705,33.95,280.102,33.95z M278,68.01l5.891-1.175l1.86-3.126l-2.815-4.41
			l3.549-3.335l3.896,2.773l4.129-2.07l0.756-5.617h5.094l0.791,5.635l3.767,2.029l4.295-2.823l3.428,3.353l-2.805,3.868
			l0.738,3.731l4.428,1.101v5.095l-4.543,0.936l-1.103,4.242l3.171,3.855l-3.763,3.212l-3.871-2.837l-3.754,1.922l-0.516,4.682
			h-5.16l-1.051-4.83l-3.436-2.024l-4.488,3.227l-3.156-3.547l3.215-4.485l-3.074-3.433L278,73.302V68.01z M279.629,113.258
			l-5.594,4.651l-5.693-4.214l-5.504,3.238l-0.771,7.116h-7.531L253,116.715l-5.014-2.948l-6.549,4.563l-4.604-5.245l4.694-6.581
			l-3.016-5.03L232,100.5v-7.723l7.119-1.707l1.974-4.559l-4.478-6.417l5.002-4.837l5.594,4.105l5.979-3.128l1.059-8.186h7.432
			l1.172,8.213l5.517,2.837l6.301-4.065l5.069,4.921l-3.948,5.658l1.772,5.452L285,92.681v7.435l-7.607,1.355l-2.379,6.182
			L279.629,113.258z M316,124.953l-3.625,0.661l-1.702,3.441l3.448,4.496l-3.035,3.572l-4.434-3.175l-3.402,2.594l-1.021,5.507
			h-5.16l-0.53-5.354l-3.771-2.365l-3.903,2.72l-3.832-3.271l3.038-3.883l-2.684-4.257L279,124.688v-5.094l6.273-1.09l1.925-3.724
			l-2.476-3.844l3.592-3.312l4.379,2.907l3.809-1.023l0.83-4.461h5.092l0.729,4.444l4.103,1.311l3.836-2.98l3.441,3.231
			l-3.043,4.358l0.469,3.098l4.043,1.149L316,124.953L316,124.953z"/>
	</g>
	<path fill="#EDEEF1" d="M107,105.547v-4.104l-3.82-0.908l-1.2-2.42l2.433-3.412l-2.631-2.57l-2.959,2.182l-3.17-2.286l-0.555-4.979
		h-3.949l-0.619,4.991l-2.928,1.822l-3.342-2.006l-2.684,2.694l2.127,3.046l-1.875,2.917L77,101.392v3.95l4.92,0.726l1.649,3.289
		l-2.157,2.988l3.07,2.492l3.076-2.203l2.949,2.142l0.434,4.274h4.002l0.824-4.392l2.672-1.891l3.496,2.341l2.48-2.833l-2.432-3.518
		l1.512-2.684L107,105.547z M93.02,108.729c-2.986,0-5.412-2.38-5.412-5.312c0-2.934,2.426-5.31,5.412-5.31
		c2.99,0,5.414,2.376,5.414,5.31C98.434,106.35,96.01,108.729,93.02,108.729z"/>
	<g>
		<path fill="none" stroke="#EDEEF1" stroke-width="4" stroke-miterlimit="10" d="M121.34,133.292c0,4.181-3.455,7.57-7.713,7.57
			c-4.264,0-7.719-3.391-7.719-7.57s3.455-7.57,7.719-7.57C117.885,125.722,121.34,129.112,121.34,133.292z"/>
		<polygon fill="none" stroke="#EDEEF1" stroke-width="4" stroke-miterlimit="10" points="98.777,129.196 100.331,125.081 
			97.303,120.831 101.131,117.17 105.895,120.386 110.07,118.619 110.957,113.05 116.586,113.05 117.393,118.6 121.926,120.369 
			126.168,117.232 129.971,120.883 126.607,125.738 127.826,129.186 133,130.476 133,136.327 128.283,137.059 126.054,140.863 
			129.695,145.835 126.25,149.784 121.305,146.275 117.52,149.054 116.369,155.05 110.662,155.05 110.076,149.217 105.908,146.648 
			101.594,149.68 97.355,146.075 100.717,141.786 98.906,137.083 93,136.034 93,130.403 		"/>
	</g>
	
		<ellipse fill="none" stroke="#EDEEF1" stroke-width="4" stroke-miterlimit="10" cx="219.163" cy="258.957" rx="12.164" ry="11.936"/>
	<g>
		<rect x="102.731" y="201.55" fill="none" stroke="#EDEEF1" stroke-width="7" stroke-miterlimit="10" width="190" height="118"/>
		<polygon fill="none" stroke="#EDEEF1" stroke-width="4" stroke-miterlimit="10" points="319.966,366.05 80.034,366.05 
			101.644,356.374 295.376,355.997 		"/>
		<rect x="197.731" y="319.55" fill="none" stroke="#EDEEF1" stroke-width="7" stroke-miterlimit="10" width="16" height="25"/>
		<rect x="168.231" y="341.05" fill="#EDEEF1" width="75" height="7"/>
		<ellipse fill="none" stroke="#EDEEF1" stroke-width="4" stroke-miterlimit="10" cx="173.17" cy="269.242" rx="7.791" ry="7.646"/>
		<path fill="#EDEEF1" d="M116.231,216.05v92h163v-92H116.231z M195.231,272.436l-5.615,0.806l-2.667,4.209l3.929,5.494
			l-3.862,4.363l-5.486-3.892l-4.201,3.046l-1.288,6.588h-6.311l-0.683-6.404l-4.643-2.801l-4.84,3.354l-4.826-3.986l3.438-4.741
			l-3.436-5.198l-8.51-1.16v-6.229l8.371-1.355l3.273-4.571l-3.132-4.748l4.34-4.134l5.326,3.379l4.639-2.422l1.004-6.981h6.229
			l0.893,6.958l5.013,2.727l4.688-3.442l4.213,4.052l-3.717,5.377l1.746,3.815l6.115,1.43V272.436z M255.231,263.741l-7.697,1.153
			l-3.644,5.997l5.669,7.838l-5.459,6.229l-7.809-5.535l-5.976,3.779l-1.83,8.848h-8.994l-0.926-8.587l-6.569-3.751l-6.8,4.93
			l-6.682-5.605l5.295-6.729l-2.562-7.396l-9.02-1.631v-8.877l8.815-1.906l2.305-6.484l-4.848-6.701l6-5.771l7.495,5.069
			l6.571-3.283l1.383-9.275h8.88l1.27,9.24l7.148,3.039l6.686-4.819l5.996,5.819l-5.303,7.687l2.186,5.453l8.416,2.05v9.221H255.231
			z"/>
	</g>
</g>
</svg>
