<svg xmlns="http://www.w3.org/2000/svg" width="400" height="400" viewBox="0 0 400 400"><ellipse fill="none" stroke="#EDEEF1" stroke-width="3" stroke-miterlimit="10" cx="299.746" cy="122.209" rx="6.979" ry="6.848"/><ellipse fill="none" stroke="#EDEEF1" stroke-width="7" stroke-miterlimit="10" cx="105.779" cy="121.198" rx="48.539" ry="48.012"/><path fill="none" stroke="#EDEEF1" stroke-width="7" stroke-miterlimit="10" d="M130.875 164.279l25.242 36.263m72.34-.995l27.922-46.032"/><ellipse fill="none" stroke="#EDEEF1" stroke-width="4" stroke-miterlimit="10" cx="258.157" cy="96.493" rx="10.185" ry="9.993"/><g fill="#EDEEF1"><ellipse cx="297.945" cy="70.557" rx="6.979" ry="6.847"/><path d="M280.102 33.95c-34.604 0-62.66 27.806-62.66 62.103 0 34.299 28.056 62.104 62.66 62.104s62.658-27.806 62.658-62.104c0-34.297-28.055-62.103-62.658-62.103zM278 68.01l5.891-1.175 1.86-3.126-2.815-4.41 3.549-3.335 3.896 2.773 4.129-2.07.756-5.617h5.094l.791 5.635 3.767 2.029 4.295-2.823 3.428 3.353-2.805 3.868.738 3.731 4.428 1.101v5.095l-4.543.936-1.103 4.242 3.171 3.855-3.763 3.212-3.871-2.837-3.754 1.922-.516 4.682h-5.16l-1.051-4.83-3.436-2.024-4.488 3.227-3.156-3.547 3.215-4.485-3.074-3.433-5.473-.657V68.01zm1.629 45.248l-5.594 4.651-5.693-4.214-5.504 3.238-.771 7.116h-7.531L253 116.715l-5.014-2.948-6.549 4.563-4.604-5.245 4.694-6.581-3.016-5.03L232 100.5v-7.723l7.119-1.707 1.974-4.559-4.478-6.417 5.002-4.837 5.594 4.105 5.979-3.128 1.059-8.186h7.432l1.172 8.213 5.517 2.837 6.301-4.065 5.069 4.921-3.948 5.658 1.772 5.452L285 92.681v7.435l-7.607 1.355-2.379 6.182 4.615 5.605zM316 124.953l-3.625.661-1.702 3.441 3.448 4.496-3.035 3.572-4.434-3.175-3.402 2.594-1.021 5.507h-5.16l-.53-5.354-3.771-2.365-3.903 2.72-3.832-3.271 3.038-3.883-2.684-4.257-6.387-.951v-5.094l6.273-1.09 1.925-3.724-2.476-3.844 3.592-3.312 4.379 2.907 3.809-1.023.83-4.461h5.092l.729 4.444 4.103 1.311 3.836-2.98 3.441 3.231-3.043 4.358.469 3.098 4.043 1.149-.002 5.295z"/></g><path fill="#EDEEF1" d="M107 105.547v-4.104l-3.82-.908-1.2-2.42 2.433-3.412-2.631-2.57-2.959 2.182-3.17-2.286-.555-4.979h-3.949l-.619 4.991-2.928 1.822-3.342-2.006-2.684 2.694 2.127 3.046-1.875 2.917-4.828.878v3.95l4.92.726 1.649 3.289-2.157 2.988 3.07 2.492 3.076-2.203 2.949 2.142.434 4.274h4.002l.824-4.392 2.672-1.891 3.496 2.341 2.48-2.833-2.432-3.518 1.512-2.684 3.505-.526zm-13.98 3.182c-2.986 0-5.412-2.38-5.412-5.312 0-2.934 2.426-5.31 5.412-5.31 2.99 0 5.414 2.376 5.414 5.31 0 2.933-2.424 5.312-5.414 5.312z"/><g fill="none" stroke="#EDEEF1" stroke-width="4" stroke-miterlimit="10"><path d="M121.34 133.292c0 4.181-3.455 7.57-7.713 7.57-4.264 0-7.719-3.391-7.719-7.57s3.455-7.57 7.719-7.57c4.258 0 7.713 3.39 7.713 7.57z"/><path d="M98.777 129.196l1.554-4.115-3.028-4.25 3.828-3.661 4.764 3.216 4.175-1.767.887-5.569h5.629l.807 5.55 4.533 1.769 4.242-3.137 3.803 3.651-3.364 4.855 1.219 3.448 5.174 1.29v5.851l-4.717.732-2.229 3.804 3.641 4.972-3.445 3.949-4.945-3.509-3.785 2.779-1.151 5.996h-5.707l-.586-5.833-4.168-2.569-4.314 3.032-4.239-3.605 3.362-4.289-1.811-4.703L93 136.034v-5.631z"/></g><ellipse fill="none" stroke="#EDEEF1" stroke-width="4" stroke-miterlimit="10" cx="219.163" cy="258.957" rx="12.164" ry="11.936"/><path fill="none" stroke="#EDEEF1" stroke-width="7" stroke-miterlimit="10" d="M102.731 201.55h190v118h-190z"/><path fill="none" stroke="#EDEEF1" stroke-width="4" stroke-miterlimit="10" d="M319.966 366.05H80.034l21.61-9.676 193.732-.377z"/><path fill="none" stroke="#EDEEF1" stroke-width="7" stroke-miterlimit="10" d="M197.731 319.55h16v25h-16z"/><path fill="#EDEEF1" d="M168.231 341.05h75v7h-75z"/><ellipse fill="none" stroke="#EDEEF1" stroke-width="4" stroke-miterlimit="10" cx="173.17" cy="269.242" rx="7.791" ry="7.646"/><path fill="#EDEEF1" d="M116.231 216.05v92h163v-92h-163zm79 56.386l-5.615.806-2.667 4.209 3.929 5.494-3.862 4.363-5.486-3.892-4.201 3.046-1.288 6.588h-6.311l-.683-6.404-4.643-2.801-4.84 3.354-4.826-3.986 3.438-4.741-3.436-5.198-8.51-1.16v-6.229l8.371-1.355 3.273-4.571-3.132-4.748 4.34-4.134 5.326 3.379 4.639-2.422 1.004-6.981h6.229l.893 6.958 5.013 2.727 4.688-3.442 4.213 4.052-3.717 5.377 1.746 3.815 6.115 1.43v6.466zm60-8.695l-7.697 1.153-3.644 5.997 5.669 7.838-5.459 6.229-7.809-5.535-5.976 3.779-1.83 8.848h-8.994l-.926-8.587-6.569-3.751-6.8 4.93-6.682-5.605 5.295-6.729-2.562-7.396-9.02-1.631v-8.877l8.815-1.906 2.305-6.484-4.848-6.701 6-5.771 7.495 5.069 6.571-3.283 1.383-9.275h8.88l1.27 9.24 7.148 3.039 6.686-4.819 5.996 5.819-5.303 7.687 2.186 5.453 8.416 2.05v9.221h.004z"/></svg>