<svg xmlns="http://www.w3.org/2000/svg" width="775.054" height="1215" viewBox="0 0 775.054 1215"><g fill="#ABA5BB"><path d="M72.387 448c210 27 411.999 25 620.999-2 26.545-3.123 47.873-7.454 73.406-11.111l-16.99-11.414-154.346-56.159-59.172-130.764-60.439-57.679L406.011 8.441l-30.228 93.689-39.424.04-51.456 74.187-58.701-14.253-13.438 98.316-89.377 39.471-1 2.704L6.493 441.361l.04.302c7.294 1.946 14.574 2.878 21.868 4.337 15 4 28.986 0 43.986 2z"/><path d="M693.386 446c-209 27-431.451 21.277-620.999 2-15.055-1.531-58.588-4.391-65.882-6.337L82.56 778.292l47.991 16.66 36.621 148.085 80.582 28.096 133.402 233.964 132.546-127.441 11.424-95.184 48.084 12.65 39.387-94.14 20.594-12.672 14.33-132.32 23.162 36.806 97.373-356.549-1.262-1.358c-25.535 3.657-46.863 7.988-73.408 11.111z"/></g><path fill="#B6B6C8" d="M530.137 945.69v.01l-.06.41-4.951 36.36-11.419 95.18-77.621-433.38v-.01l-30.779-171.85 141.76 167.84z"/><path fill="#9F9AAF" d="M436.086 644.27l-70.099 319.74-.05-.12-118.18 7.25v-.01z"/><path fill="#ABA5BB" d="M405.307 472.41l30.779 171.85-254.579-186.6h.02l56.3 5.76z"/><path fill="#B6B6C8" d="M436.086 644.26v.01L247.757 971.13l73.59-324.68h.17l-140.01-188.79z"/><path fill="#8F8B9E" d="M130.917 794.13l50.59-336.47v467.13l-.01.15-14.32 18.1-.23.05-36.04-148.02h.01l.12-.44z"/><path fill="#E9E9F0" d="M181.507 924.79V457.66l104.5 340.09-38.25 173.38h-.01z"/><path fill="#9F9AAF" d="M321.347 646.45l-73.59 324.68 38.25-173.38-104.5-340.09 140.01 188.79z"/><path fill="#F4F7F9" d="M592.796 357.16l.021.03-.021-.03zm180.261 79.09l-17.13 53.89v.03l-83.93 303.5-.32 1.1-78.841-337.68z"/><path fill="#B6B6C8" d="M773.057 436.25l-180.221 20.84-128.679-8.17h-.01l-53.71-3.41 68.46-50.82 272.91 28.79h.02z"/><path fill="#F4F7F9" d="M751.827 423.48h-.02l-272.91-28.79 120.56-27.37.01-.01z"/><path fill="#ABA5BB" d="M671.997 793.67l-.32 1.13-24.16-38.81-100.45-115.74-82.91-191.33 128.679 8.17 78.841 337.68z"/><path fill="#9F9AAF" d="M547.067 640.25l100.45 115.74-14.33 132.32-20.17 12.41-.42-.68z"/><path fill="#ABA5BB" d="M612.597 900.04l.42.68-.42.26-39.39 94.14h-.01l-43.06-49.42v-.01l16.93-305.44z"/><path fill="#B6B6C8" d="M592.817 357.19l6.64 10.13-120.56 27.37 13.11-158.23 100.789 120.7z"/><path fill="#F4F7F9" d="M538.287 236.55l54.509 120.61-100.789-120.7-63.12-31.92-.03-.26.03.03-.03-.06-20.84-195.8 69.83 170.42h.01z"/><path fill="#838191" d="M530.137 945.7l43.06 49.42-48.06-12.65h-.011l4.951-36.36z"/><path fill="#E9E9F0" d="M464.157 448.92l82.91 191.33-141.76-167.84 58.84-23.49z"/><path fill="#838191" d="M513.707 1077.65l-66.97 63.66-64.96 64.11-.62.62-.41-.71.41-.23 47.24-79.61.89-1.49z"/><path fill="#ABA5BB" d="M492.007 236.46l-13.11 158.23-68.46 50.82-7.04-13.89-47.85-103.15-.36-.74z"/><path fill="#B6B6C8" d="M492.007 236.46l-136.82 91.27-.23-.49 73.93-122.7z"/><path fill="#F4F7F9" d="M464.147 448.92l-58.84 23.49-167.48-8.99-56.3-5.76 120.27-20.61 108.64 8.46z"/><path fill="#9F9AAF" d="M365.987 964.01l63.3 159.99-.89 1.49-47.24 79.61-15.25-240.74z"/><path fill="#ABA5BB" d="M428.857 204.28l.03.26-73.93 122.7-70.05-150.88 1.23-1.78 50.22-72.41.03-.04h.21z"/><path fill="#E9E9F0" d="M428.857 204.25v.03l-92.26-102.15h39.19l.04-.14z"/><path fill="#B6B6C8" d="M408.017 8.45l20.84 195.8-53.03-102.26z"/><path fill="#E9E9F0" d="M403.397 431.62l7.04 13.89-108.64-8.46-179.52-138.16 90.43-38.47 89.72 167.52-76.22-265.84.06-.42 58.64 14.68 70.05 150.88.23.49.36.74z"/><path fill="#8F8B9E" d="M365.907 964.36l15.25 240.74-.41.23-133-234.19h.01l118.18-7.25.05.12z"/><path fill="#B6B6C8" d="M226.207 162.1l76.22 265.84-89.72-167.52z"/><path fill="#ABA5BB" d="M301.797 437.05l-120.27 20.61-176.14-18.04 116.89-140.73z"/><path fill="#586490" d="M247.747 971.13h.01v.01h-.01z"/><path fill="#838191" d="M247.747 971.13v.01l-80.58-27.16-.22-.89.23-.05 14.32-18.1.01-.15z"/><path fill="#9F9AAF" d="M5.387 439.62l176.14 18.04h-.02l-50.59 336.47.12.5-.12.44-107.55-304.62z"/><path fill="#8F8B9E" d="M23.367 490.45l107.55 304.62h-.01l-.36-.12-30.61-10.31-17.38-6.35-77.17-338.67z"/></svg>