<?xml version="1.0" encoding="utf-8"?>
<!-- Generator: Adobe Illustrator 16.0.0, SVG Export Plug-In . SVG Version: 6.00 Build 0)  -->
<!DOCTYPE svg PUBLIC "-//W3C//DTD SVG 1.1//EN" "http://www.w3.org/Graphics/SVG/1.1/DTD/svg11.dtd">
<svg version="1.1" xmlns="http://www.w3.org/2000/svg" xmlns:xlink="http://www.w3.org/1999/xlink" x="0px" y="0px"
	 width="775.054px" height="1215px" viewBox="0 0 775.054 1215" enable-background="new 0 0 775.054 1215" xml:space="preserve">
<g id="Layer_2">
	<path fill="#ABA5BB" d="M72.387,448c210,27,412,25,621-2c26.544-3.123,51.873-7.454,77.406-11.111l-18.99-11.414l-154.346-56.159
		l-59.173-130.764l-60.438-57.679L408.012,8.441l-32.229,93.689l-39.424,0.04l-51.455,74.187l-58.701-14.253l-13.438,98.316
		l-89.377,39.471l-1,2.704L6.493,441.361l0.04,0.302c7.294,1.946,14.574,2.878,21.868,4.337C43.401,450,57.387,446,72.387,448z"/>
	<path fill="#313B67" d="M693.387,446c-209,27-431.452,21.277-621,2c-15.055-1.531-58.588-4.391-65.882-6.337L82.56,778.292
		l47.991,16.66l36.621,148.085l80.582,28.096l133.402,233.964l132.546-127.442l11.425-95.183l48.083,12.65l39.387-94.14
		l20.593-12.672l14.33-132.32l24.163,38.806l100.373-358.549l-1.261-1.358C745.26,438.546,719.931,442.877,693.387,446z"/>
</g>
<g id="Layer_1">
	<polygon fill="#7588B0" points="773.056,436.247 755.93,490.142 755.923,490.171 671.995,793.674 671.678,794.769 592.842,457.087 
			"/>
	<polygon fill="#B6B6C8" points="773.056,436.247 592.842,457.087 413.796,466.088 410.438,445.509 478.895,394.693 
		751.804,423.477 751.823,423.483 	"/>
	<polygon fill="#F4F7F9" points="751.827,423.48 751.804,423.477 478.895,394.693 599.458,367.317 599.462,367.313 	"/>
	<polygon fill="#6574A0" points="671.995,793.674 671.682,794.797 647.519,755.992 547.065,640.245 413.796,466.088 
		592.842,457.087 671.678,794.769 	"/>
	<polygon fill="#60719C" points="547.065,640.245 647.519,755.992 633.189,888.312 613.018,900.723 612.6,900.042 	"/>
	<polygon fill="#6677A1" points="613.018,900.723 612.596,900.984 573.209,995.12 573.209,995.124 573.198,995.12 530.132,945.7 
		530.136,945.692 547.065,640.245 612.6,900.042 	"/>
	<polygon fill="#B6B6C8" points="592.792,357.156 599.458,367.317 478.895,394.693 492.003,236.462 	"/>
	<polygon fill="#E9E9F0" points="538.286,236.553 592.817,357.186 592.792,357.156 492.003,236.462 428.886,204.545 428.857,204.28 
		428.886,204.313 428.853,204.25 408.02,8.454 477.848,178.874 477.855,178.87 	"/>
	<polygon fill="#53638F" points="530.132,945.7 573.198,995.12 525.134,982.474 525.126,982.474 530.075,946.114 	"/>
	<polygon fill="#64719D" points="418.021,495.42 417.188,490.298 413.796,466.088 547.065,640.245 530.136,945.692 530.132,945.7 
		530.075,946.114 525.126,982.474 513.702,1077.652 419.206,502.741 418.104,495.939 	"/>
	<polygon fill="#4D5B88" points="419.206,502.741 513.702,1077.652 429.282,1124.005 365.983,964.014 439.064,646.45 
		439.133,646.45 439.079,646.385 317.984,462.405 318.206,461.744 418.021,495.42 418.104,495.939 	"/>
	<polygon fill="#37416F" points="513.702,1077.652 446.738,1141.315 381.778,1205.425 381.156,1206.039 381.153,1206.039 
		380.749,1205.331 381.156,1205.098 428.399,1125.491 429.282,1124.005 	"/>
	<polygon fill="#ABA5BB" points="492.003,236.462 478.895,394.693 410.438,445.509 403.393,431.623 355.543,328.468 355.19,327.733 
			"/>
	<polygon fill="#B6B6C8" points="492.003,236.462 355.19,327.733 354.958,327.243 428.886,204.545 	"/>
	<polygon fill="#586490" points="317.984,462.405 439.079,646.385 439.064,646.45 247.753,971.132 321.343,646.45 321.521,646.45 	
		"/>
	<polygon fill="#515D8A" points="439.064,646.45 365.983,964.014 365.936,963.895 247.757,971.136 247.753,971.132 	"/>
	<polygon fill="#414A79" points="365.983,964.014 429.282,1124.005 428.399,1125.491 381.156,1205.098 365.903,964.363 	"/>
	<polygon fill="#ABA5BB" points="428.857,204.28 428.886,204.545 354.958,327.243 284.904,176.358 286.137,174.584 336.36,102.172 
		336.389,102.132 336.396,102.132 336.596,102.132 	"/>
	<polygon fill="#E9E9F0" points="428.853,204.25 428.857,204.28 336.596,102.132 375.784,102.132 375.831,101.99 	"/>
	<polygon fill="#B6B6C8" points="408.02,8.454 428.853,204.25 375.831,101.99 408.013,8.443 	"/>
	<polygon fill="#56628E" points="417.188,490.298 418.021,495.42 318.206,461.744 317.984,461.667 413.796,466.088 	"/>
	<polygon fill="#F4F7F9" points="355.19,327.733 355.543,328.468 403.393,431.623 410.438,445.509 413.796,466.088 302.106,449.151 
		122.278,298.892 212.71,260.421 301.793,437.047 302.106,436.89 300.427,430.936 226.204,162.104 226.262,161.676 284.904,176.358 
		354.958,327.243 	"/>
	<polygon fill="#B6B6C8" points="413.796,466.088 317.984,461.667 221.765,462.034 221.787,461.951 302.106,449.151 	"/>
	<polygon fill="#434E7B" points="365.903,964.363 381.156,1205.098 380.749,1205.331 247.75,971.139 247.753,971.132 
		247.757,971.136 365.936,963.895 365.983,964.014 	"/>
	<polygon fill="#4C5785" points="241.839,499.099 193.153,566.912 214.033,490.374 221.765,462.034 317.984,461.667 
		318.206,461.744 317.984,462.405 321.521,646.45 321.343,646.45 242.108,499.291 	"/>
	<polygon fill="#434E7B" points="282.687,797.876 283.003,797.753 242.108,499.291 321.343,646.45 247.753,971.132 247.75,971.132 
		181.502,924.787 193.153,566.912 	"/>
	<polygon fill="#B6B6C8" points="300.427,430.936 302.106,436.89 301.793,437.047 212.71,260.421 226.204,162.104 	"/>
	<polygon fill="#ABA5BB" points="302.106,449.151 221.787,461.951 221.765,462.034 131.032,455.593 5.386,439.624 122.274,298.892 
		122.278,298.892 	"/>
	<polygon fill="#3F4B79" points="242.108,499.291 283.003,797.753 282.687,797.876 193.153,566.912 241.839,499.099 	"/>
	<polygon fill="#586490" points="247.753,971.132 247.75,971.139 247.75,971.132 	"/>
	<polygon fill="#333E6D" points="247.75,971.132 247.75,971.139 167.169,943.98 166.951,943.09 167.172,943.035 181.499,924.937 
		181.502,924.787 	"/>
	<polygon fill="#414A79" points="221.765,462.034 214.033,490.374 193.153,566.912 130.912,794.132 131.032,794.626 130.912,795.07 
		23.369,490.447 5.386,439.624 131.032,455.593 	"/>
	<polygon fill="#37416F" points="181.502,924.787 181.499,924.937 167.172,943.035 166.951,943.09 130.908,795.073 130.912,795.07 
		131.032,794.626 130.912,794.132 193.153,566.912 	"/>
	<polygon fill="#313B67" points="23.369,490.447 130.912,795.07 130.908,795.073 130.552,794.953 99.94,784.637 82.561,778.294 
		5.386,439.624 	"/>
</g>
</svg>
