<?xml version="1.0" encoding="utf-8"?>
<svg version="1.1" id="Layer_1" xmlns="http://www.w3.org/2000/svg" xmlns:xlink="http://www.w3.org/1999/xlink" x="0px" y="0px"
	 width="2102.148px" height="3299.229px" viewBox="1025.724 560.89 2102.148 3299.229"
	 enable-background="new 1025.724 560.89 2102.148 3299.229" xml:space="preserve">
<g>
	<g>
		<path fill="#93B2AF" d="M1426.756,1484.402"/>
		<g>
			<g id="XMLID_37_">
				<g>
					<polygon fill="#A1B5B3" points="2698.002,3016.197 2589.631,3275.174 2471.137,3139.199 2422.148,3499.289 2241.735,3677.323 
						2061.321,3855.383 1694.337,3209.185 1472.669,3134.48 1372.918,2724.848 1239.917,2680.025 1060.969,1886.857 
						3092.275,1886.085 2860.534,2724.088 2794.071,2617.335 2754.65,2981.335 					"/>
					<polygon fill="#AAC1BE" points="1597.949,1254.068 1635.226,982.429 1796.551,1022.819 1938.172,818.626 2046.544,818.626 
						2135.211,560.894 2327.323,1029.742 2557.711,1389.347 2678.471,1573.47 3080.996,1702.635 3122.866,1775.484 
						3092.275,1886.085 1060.969,1886.857 1028.963,1744.968 1349.163,1359.9 					"/>
				</g>
			</g>
			<polygon fill="#F2F8F8" points="3081.005,1702.626 2330.2,1623.434 2661.86,1548.121 			"/>
			<polygon fill="#F2F8F8" points="2046.553,818.004 2192.626,1099.716 1938.182,818.004 			"/>
			<polygon fill="#F2F8F8" points="2135.22,560.886 2192.626,1100.354 2327.333,1029.729 			"/>
			<path fill="#93B2AF" d="M1635.235,982.416"/>
			<polygon fill="#F2F8F8" points="1630.309,982.416 1845.23,1744.349 2160.52,1797.592 1791.634,1022.811 			"/>
			<polygon fill="#F2F8F8" points="1597.944,1254.061 1850.157,1744.349 1349.172,1359.895 			"/>
			<polygon fill="#7C9390" points="2019.458,3189.255 1694.346,3209.177 2061.329,3855.374 2194.331,3631.26 			"/>
			<polygon fill="#728783" points="1372.926,2724.839 1544.245,2096.854 1512.084,3084.669 1472.677,3134.473 			"/>
			<polygon fill="#728783" points="2517.73,2301.512 2794.073,2617.332 2754.659,2981.326 2698.011,3016.189 			"/>
			<polygon fill="#F2F8F8" points="2366.261,1188.156 2192.626,1100.354 2327.333,1029.729 2493.575,1188.404 2643.589,1520.262 			
				"/>
			<polygon fill="#9DB2AF" points="1938.182,818.618 2192.626,1100.354 1984.737,1445.395 1797.202,1011.605 			"/>
			<polygon fill="#9DB2AF" points="2134.882,1741.224 2330.2,1623.434 2366.261,1188.156 1984.737,1445.395 			"/>
			<polygon fill="#B1C4C2" points="2517.73,2301.512 2471.153,3139.185 2422.157,3499.279 2136.882,1741.224 			"/>
			<polygon fill="#586D69" points="2589.64,3275.167 2456.157,3240.046 2471.153,3139.185 			"/>
			<polygon fill="#728783" points="2019.458,3204.197 2061.329,3855.374 2194.331,3631.26 			"/>
			<polygon fill="#586D69" points="2061.329,3855.374 2194.331,3631.26 2422.157,3499.279 			"/>
			<polygon fill="#586D69" points="1512.084,3084.669 1694.346,3209.177 1472.677,3134.473 			"/>
			<polygon fill="#B1C4C2" points="1029.419,1751.82 1372.926,2724.839 1622.919,1808.459 1845.23,1754.31 			"/>
		</g>
		<polygon fill="#9DB2AF" points="1851.388,1754.31 1349.172,1364.875 1025.724,1751.82 1373.801,1867.945 		"/>
		<polygon fill="#7C9390" points="2019.458,3214.157 2220.809,2315.207 2422.157,3509.241 2194.331,3641.221 		"/>
		<polygon fill="#B1C4C2" points="2218.162,2312.445 2220.809,2307.936 2214.581,2307.871 1887.552,1907.168 1893.399,2316.004 
			1896.792,2316.004 1678.338,3192.543 2216.225,2316.004 2220.809,2316.004 		"/>
		<polygon fill="#7C9390" points="1544.245,2124.428 1791.321,2734.799 1893.399,2315.207 1678.338,1910.285 		"/>
		<polygon fill="#728783" points="1060.705,1891.257 1372.926,2729.818 1239.92,2681.27 		"/>
		<polygon fill="#7C9390" points="1887.552,1906.721 2163.384,1904.541 2220.809,2315.207 		"/>
		<polygon fill="#728783" points="1678.338,1910.285 1791.321,2734.799 1893.399,2315.207 		"/>
		<polygon fill="#B1C4C2" points="2643.589,1886.004 2860.532,2724.01 3098.854,1886.004 		"/>
	</g>
	
		<linearGradient id="SVGID_1_" gradientUnits="userSpaceOnUse" x1="1102.8965" y1="1278.2017" x2="3183.8721" y2="1278.2017" gradientTransform="matrix(1 0 0 -1 -56 4096)">
		<stop  offset="0.0108" style="stop-color:#0F363D"/>
		<stop  offset="0.1403" style="stop-color:#0F3E4D"/>
		<stop  offset="0.9912" style="stop-color:#5695A4"/>
	</linearGradient>
	<polyline opacity="0.8" fill="url(#SVGID_1_)" enable-background="new    " points="3127.872,1775.474 2860.532,2724.08 
		2797.398,2622.074 2757.979,2986.075 2701.331,3020.938 2592.96,3279.914 2459.854,3242.536 2425.479,3504.027 2245.063,3682.064 
		2064.649,3860.123 1697.666,3213.925 1475.998,3139.22 1515.405,3089.417 1475.998,3139.22 1376.247,2729.589 1243.246,2684.766 
		1046.896,1824.424 	"/>
</g>
</svg>
