<?xml version="1.0" encoding="utf-8"?>
<!-- Generator: Adobe Illustrator 16.0.0, SVG Export Plug-In . SVG Version: 6.00 Build 0)  -->
<!DOCTYPE svg PUBLIC "-//W3C//DTD SVG 1.1//EN" "http://www.w3.org/Graphics/SVG/1.1/DTD/svg11.dtd">
<svg version="1.1" xmlns="http://www.w3.org/2000/svg" xmlns:xlink="http://www.w3.org/1999/xlink" x="0px" y="0px"
	 width="3835.462px" height="11063.466px" viewBox="0 0 3835.462 11063.466" enable-background="new 0 0 3835.462 11063.466"
	 xml:space="preserve">

<g id="iceberg">
	<g>
		<path fill="#93B2AF" d="M1323.121,1670.457"/>
		<g>
			<g id="XMLID_37_">
				<g>
					<polygon fill="#AAC1BE" points="2977.367,1888.678 3019.237,1961.528 2988.647,2072.128 957.34,2072.9 925.333,1931.011 
						1245.534,1545.944 1494.319,1440.112 1531.597,1168.472 1692.922,1208.863 1834.543,1004.669 1942.915,1004.669 
						2031.582,746.937 2223.694,1215.786 2454.082,1575.391 2574.842,1759.513 					"/>
					<polygon fill="#A1B5B3" points="1369.04,3320.523 1269.289,2910.891 1136.288,2866.068 957.34,2072.9 2988.647,2072.128 
						2756.905,2910.131 2690.441,2803.378 2651.021,3167.378 2594.373,3202.24 2486.002,3461.217 2367.508,3325.242 
						2318.519,3685.333 2138.106,3863.367 1957.692,4041.426 1590.708,3395.228 					"/>
				</g>
			</g>
			<polygon fill="#F2F8F8" points="2977.369,1888.68 2226.564,1809.488 2558.226,1734.175 			"/>
			<polygon fill="#F2F8F8" points="1942.917,1004.466 2088.991,1286.178 1834.546,1004.466 			"/>
			<polygon fill="#F2F8F8" points="2031.585,746.939 2088.991,1286.407 2223.697,1215.783 			"/>
			<path fill="#93B2AF" d="M1531.6,1168.47"/>
			<polygon fill="#F2F8F8" points="1526.674,1168.47 1741.596,1930.402 2056.884,1983.646 1687.999,1208.865 			"/>
			<polygon fill="#F2F8F8" points="1494.309,1440.114 1746.521,1930.402 1245.537,1545.948 			"/>
			<polygon fill="#7C9390" points="1915.823,3375.309 1590.71,3395.23 1957.694,4041.428 2090.695,3817.313 			"/>
			<polygon fill="#728783" points="1269.291,2910.893 1440.609,2282.908 1408.449,3270.723 1369.042,3320.526 			"/>
			<polygon fill="#728783" points="2414.097,2487.565 2690.438,2803.386 2651.024,3167.38 2594.375,3202.242 			"/>
			<polygon fill="#F2F8F8" points="2262.625,1374.21 2088.991,1286.407 2223.697,1215.783 2389.939,1374.458 2539.953,1706.316 
				2262.625,1374.21 			"/>
			<polygon fill="#9DB2AF" points="1834.546,1004.672 2088.991,1286.407 1881.103,1631.448 1693.567,1197.659 			"/>
			<polygon fill="#9DB2AF" points="2031.247,1927.277 2226.564,1809.488 2262.625,1374.21 1881.103,1631.448 			"/>
			<polygon fill="#B1C4C2" points="2414.097,2487.565 2367.518,3325.239 2318.521,3685.334 2033.247,1927.277 			"/>
			<polygon fill="#586D69" points="2486.004,3461.221 2352.522,3426.1 2367.518,3325.239 			"/>
			<polygon fill="#728783" points="1915.823,3390.251 1957.694,4041.428 2090.695,3817.313 			"/>
			<polygon fill="#586D69" points="1957.694,4041.428 2090.695,3817.313 2318.521,3685.334 			"/>
			<polygon fill="#586D69" points="1408.449,3270.723 1590.71,3395.23 1369.042,3320.526 			"/>
			<polygon fill="#B1C4C2" points="925.784,1937.874 1269.291,2910.893 1519.284,1994.513 1741.596,1940.363 			"/>
		</g>
		<polygon fill="#9DB2AF" points="1747.753,1940.363 1245.537,1550.929 922.088,1937.874 1270.166,2054 		"/>
		<polygon fill="#7C9390" points="1915.823,3400.211 2117.172,2501.261 2318.521,3695.295 2090.695,3827.274 		"/>
		<polygon fill="#B1C4C2" points="2114.527,2498.704 2117.172,2494.091 2110.945,2493.977 1783.917,2093.451 1789.764,2502.466 
			1793.157,2502.466 1574.702,3379.005 2112.588,2502.466 2117.172,2502.466 		"/>
		<polygon fill="#7C9390" points="1440.609,2310.482 1687.686,2920.853 1789.764,2501.261 1574.702,2096.339 		"/>
		<polygon fill="#728783" points="957.069,2077.311 1269.291,2915.873 1136.285,2867.323 		"/>
		<polygon fill="#7C9390" points="1783.917,2092.774 2059.748,2090.594 2117.172,2501.261 		"/>
		<polygon fill="#728783" points="1574.702,2096.339 1687.686,2920.853 1789.764,2501.261 		"/>
		<polygon fill="#B1C4C2" points="2539.953,2072.466 2756.896,2910.472 2995.22,2072.466 		"/>
	</g>
	<linearGradient id="SVGID_25_" gradientUnits="userSpaceOnUse" x1="943.2617" y1="3003.8521" x2="3024.2373" y2="3003.8521">
		<stop  offset="0.0108" style="stop-color:#0F363D"/>
		<stop  offset="0.1403" style="stop-color:#0F3E4D"/>
		<stop  offset="0.9912" style="stop-color:#5695A4"/>
	</linearGradient>
	<polyline opacity="0.8" fill="url(#SVGID_25_)" points="3024.237,1961.527 2756.896,2910.134 2693.764,2808.128 2654.345,3172.129 
		2597.696,3206.99 2489.325,3465.968 2356.218,3428.59 2321.842,3690.082 2141.428,3868.117 1961.015,4046.177 1594.03,3399.979 
		1372.362,3325.273 1411.77,3275.471 1372.362,3325.273 1272.611,2915.643 1139.61,2870.819 943.262,2010.478 	"/>
</g>
</svg>
