<svg xmlns="http://www.w3.org/2000/svg" width="400" height="400" viewBox="0 0 400 400"><path fill="#EDEEF1" d="M200 345.062c-67.047 0-121.594-53.298-121.594-118.809 0-65.512 54.547-118.809 121.594-118.809s121.594 53.297 121.594 118.809c0 65.511-54.547 118.809-121.594 118.809zm0-222.767c-58.857 0-106.742 46.636-106.742 103.958S141.143 330.21 200 330.21s106.742-46.635 106.742-103.957S258.857 122.295 200 122.295z"/><path fill="none" stroke="#EDEEF1" stroke-width="7" stroke-miterlimit="10" d="M292.262 226.104c0 49.807-41.389 90.184-92.438 90.184-51.051 0-92.439-40.377-92.439-90.184s41.389-90.184 92.439-90.184c51.049.001 92.438 40.378 92.438 90.184z"/><path fill="#EDEEF1" d="M191 92h16v25h-16z"/><ellipse fill="none" stroke="#EDEEF1" stroke-width="7" stroke-miterlimit="10" cx="199.668" cy="77.479" rx="24" ry="22.539"/><path fill="none" stroke="#EDEEF1" stroke-width="5" stroke-miterlimit="10" d="M156.619 272.919l29.781-55.906 56.803-38.422-33.906 57.368z"/><path d="M186.4 217.013l6.594-4.461-21.148-16.465 13.656 22.611zm20.532-13.888l-6.334-35.657-6.967 44.652zm-21.709 16.098l-44.317 7.03 37.664 5.459zm74.492 7.03l-41.293-5.734-9.125 15.44-14.656 10.283 6.287 36.94 6.808-44.862 18.717 14.541-12.84-19.492z" fill="#EDEEF1"/><ellipse fill="#EDEEF1" cx="197.331" cy="226.717" rx="4.989" ry="4.757"/><path d="M115 220.684v10.211l6.961-5.106zm168 .928v10.21l-6.963-5.105zM204.641 144h-10.209l5.103 6.955zm-.928 165h-10.211l5.105-6.955z" fill="#EDEEF1"/></svg>