<svg version="1.1" id="Layer_2" x="0px" y="0px" width="500px" height="500px" viewBox="0 0 500 500" enable-background="new 0 0 500 500" xmlns="http://www.w3.org/2000/svg">
  <g>
    <ellipse cx="164.284" cy="214.406" rx="22.263" ry="21.618" style="fill: rgb(255, 255, 255);"/>
    <ellipse cx="106.721" cy="213.961" rx="21.732" ry="21.705" style="fill: rgb(255, 255, 255);"/>
    <ellipse cx="107.682" cy="303.588" rx="9.723" ry="9.248" style="fill: rgb(255, 255, 255);"/>
    <ellipse cx="55.824" cy="137.646" rx="9.723" ry="9.247" style="fill: rgb(255, 255, 255);"/>
    <path d="M193.75,286.563l9.508-9.219c0,0-10.085-14.724-30.683-14.55c-18.978,0.16-35.292,12.101-36.445,35.292&#10;&#9;&#9;&#9;c-1.167,23.467,16.423,36.877,36.734,37.309c20.31,0.433,30.394-13.107,30.394-13.107l-10.229-9.451c0,0-5.041,8.586-20.454,8.875&#10;&#9;&#9;&#9;c-16.565,0.311-22.615-12.822-22.615-23.48c0-10.659,8.497-21.607,22.183-21.751C185.828,276.336,193.75,286.563,193.75,286.563z" style="fill: rgb(255, 255, 255);"/>
    <path d="M230.635,283.968c-14.398,0-26.073,11.515-26.073,25.718c0,14.202,11.674,25.72,26.073,25.72&#10;&#9;&#9;&#9;c14.4,0,26.075-11.518,26.075-25.72C256.71,295.482,245.035,283.968,230.635,283.968z M230.635,325.249&#10;&#9;&#9;&#9;c-8.712,0-15.776-6.969-15.776-15.563s7.064-15.562,15.776-15.562c8.717,0,15.776,6.967,15.776,15.562&#10;&#9;&#9;&#9;S239.353,325.249,230.635,325.249z" style="fill: rgb(255, 255, 255);"/>
    <polygon points="256.419,335 265.783,335 271.328,304.744 283.859,335 287.101,335 299.849,304.853 305.108,335 &#10;&#9;&#9;&#9;314.543,335 305.251,283 296.607,283 285.805,314.223 274.857,283 265.637,283 &#9;&#9;" style="fill: rgb(255, 255, 255);"/>
    <polygon points="316.19,335 325.554,335 331.1,304.744 343.631,335 346.872,335 359.62,304.853 364.88,335 &#10;&#9;&#9;&#9;374.314,335 365.022,283 356.38,283 345.577,314.223 334.629,283 325.409,283 &#9;&#9;" style="fill: rgb(255, 255, 255);"/>
    <rect x="381" y="262" width="13" height="73" style="fill: rgb(255, 255, 255);"/>
    <polygon points="435,262 399,262 399,276 411,276 411,335 424,335 424,276 435,276 &#9;&#9;" style="fill: rgb(255, 255, 255);"/>
    <path d="M135.904,229.972c-5.714,10.02-16.452,16.833-28.871,16.833c-18.378,0-33.275-14.801-33.275-33.059&#10;&#9;&#9;&#9;s14.897-33.059,33.275-33.059c12.642,0,23.555,7.053,29.185,17.367c4.427-7.31,11.739-12.753,20.435-14.897&#10;&#9;&#9;&#9;c-10.485-15.751-28.75-26.238-49.619-26.238c-32.578,0-58.988,25.443-58.988,56.827s26.41,56.827,58.988,56.827&#10;&#9;&#9;&#9;c20.476,0,38.438-10.098,49.011-25.358C147.417,242.918,140.195,237.363,135.904,229.972z" style="fill: rgb(255, 255, 255);"/>
  </g>
</svg>