<svg width="500" height="500" viewBox="0 0 500 500" xmlns="http://www.w3.org/2000/svg"><g fill="#fff"><ellipse cx="164.284" cy="214.406" rx="22.263" ry="21.618"/><ellipse cx="106.721" cy="213.961" rx="21.732" ry="21.705"/><ellipse cx="107.682" cy="303.588" rx="9.723" ry="9.248"/><ellipse cx="55.824" cy="137.646" rx="9.723" ry="9.247"/><path d="M193.75 286.563l9.508-9.219s-10.085-14.724-30.683-14.55c-18.978.16-35.292 12.101-36.445 35.292-1.167 23.467 16.423 36.877 36.734 37.309 20.31.433 30.394-13.107 30.394-13.107l-10.229-9.451s-5.041 8.586-20.454 8.875c-16.565.311-22.615-12.822-22.615-23.48 0-10.659 8.497-21.607 22.183-21.751 13.685-.145 21.607 10.082 21.607 10.082zm36.885-2.595c-14.398 0-26.073 11.515-26.073 25.718 0 14.202 11.674 25.72 26.073 25.72 14.4 0 26.075-11.518 26.075-25.72 0-14.204-11.675-25.718-26.075-25.718zm0 41.281c-8.712 0-15.776-6.969-15.776-15.563s7.064-15.562 15.776-15.562c8.717 0 15.776 6.967 15.776 15.562s-7.058 15.563-15.776 15.563zM256.419 335h9.364l5.545-30.256L283.859 335h3.242l12.748-30.147L305.108 335h9.435l-9.292-52h-8.644l-10.802 31.223L274.857 283h-9.22zm59.771 0h9.364l5.546-30.256L343.631 335h3.241l12.748-30.147L364.88 335h9.434l-9.292-52h-8.642l-10.803 31.223L334.629 283h-9.22zM381 262h13v73h-13zm54 0h-36v14h12v59h13v-59h11zm-299.096-32.028c-5.714 10.02-16.452 16.833-28.871 16.833-18.378 0-33.275-14.801-33.275-33.059s14.897-33.059 33.275-33.059c12.642 0 23.555 7.053 29.185 17.367 4.427-7.31 11.739-12.753 20.435-14.897-10.485-15.751-28.75-26.238-49.619-26.238-32.578 0-58.988 25.443-58.988 56.827s26.41 56.827 58.988 56.827c20.476 0 38.438-10.098 49.011-25.358-8.628-2.297-15.85-7.852-20.141-15.243z"/></g></svg>