<svg xmlns="http://www.w3.org/2000/svg" width="1400" height="1000" viewBox="0 0 1400 1000"><path fill="#0b1c37" d="M-6 135c4.732-17.658 21.531-10.022 33.993-15.904 12.598-5.945 14.438-15.958 30.007-18.089 13.547-1.854 24.16 3.791 36.007 5.541 15.18 2.243 29.128-2.886 41.986 8.652 18.153-17.677 29.201-6.303 48.007-10.214 8.817-1.833 13.38-9.83 21.896-13.986 11.27-5.5 27.808-5.604 40.097-7.947 20.285-3.868 105.927-28.021 100.206 13.541 8.953.605 31.006-4.007 37.89.31 9.464 5.935 5.066 17.854 9.369 26.638 5.449 11.121 29.151 36.777 40.143 39.156 12.308-5.595 13.56-18.828 14.701-31.538 12.001 9.436 25.089 16.882 37.246 26.285 14.821 11.464 31.743 10.827 50.548 17.555 31.412 11.238 58.105 20.776 91.602 26.295-.693 12.712 12.513 16.806 20.594 23.705-12.497 8.68-1.636 18.006 7.406 24.495-2.861 2.716-3.7 9.002-5.396 11.156 33.201 11.404 54.977 48.277 85.349 60.697.592 13.477 14.541 16.631 22.641 25.594-44.193 33.069 64.87 38.056 77.502 51.555-4.136.551-8.847 3.862-13.196 4.463 11.518 9.536 15.63 33.297 17.848 47.879 1.146-6.639 6.375-14.843 13.608-18.086 26.373 34.283 44.924 78.283 71.644 113.744-.057.333-3.612 4.168-3.943 4.556-.354-.311 4.288 3.7 4.054 2.392-3.666 2.308-6.304 7.472-11.164 9.665.283 1.441 1.337 7.438 1.556 11.484 17.647 1.277 40.971-5.028 53.95 4.302 7.072 5.084.979 11.396 11.805 16.149 5.416 2.379 18.911.676 24.491 1.509 20.294 3.032 38.738 9.969 57.548 18.993 17.313 8.308 47.22 18.667 59.299 33.061-5.955 4.725-5.631 8.725-4.989 16.082 21.365-1.202 41.045-13.982 63.697-15.245 29.216-1.629 57.373 2.288 85.729 1.903-5.354 11.017-19.312 16.109-31.53 18.043 7.885 10.649 8.87 42.646 11.751 56.907 7.887-8.233 16.012-15.672 21.946-25.047 15.722 9.115 38.172 6.727 53.751 18.146 17.461 12.8 30.844 41.297 44.064 51.937 1.569 10.233 12.469 12.288 21.985 11.968.754 25.831 36.272 63.293 58.257 73.697 24.652 11.668 69.619 18.623 81.84 45.602-26.698 3.051 14.875 114.459 17.943 130.089-29.224-3.293-55.002 4.833-84.143 9.808-58.985 10.068-118.502 11.242-177.538 22.502-148.4 28.305-295.592 33.107-446.462 32.046-87.794-.617-175.306-6.046-263.189-6.046-79.091 0-160.261 2.081-238.406-11.946-103.449-18.57-259.71-12.402-364-18.054-6.926-19.92 19.528-133.35 9.491-168.359C-42.443 802.188-82.69 708.06-86.15 613.007c-2.716-74.597-.534-147.119 16.26-219.903 8.629-37.399 17.295-72.677 24.334-110.104 3.448-18.332 7.925-37.319 11.602-56 4.015-20.402 8.521-30.167 15.947-49.89 4.61-12.244 6.656-35.274 2.007-46.11"/></svg>