<svg xmlns="http://www.w3.org/2000/svg" width="1400" height="1000" viewBox="0 0 1400 1000"><path fill="#0b1c37" d="M-26.253 184.787c.63 1.211 32.359 14.723 44.326 15.648 18.346 1.418 24.972-10.06 42.683 11.644 17.032-16.274 25.814 2.997 36.516 5.199 17.612 3.624 28.258-.685 44.636-4.297 4.3 13.481 12.872 38.682 23.789 43.883 14.613 6.963 53.615-.104 68.612-2.605-6.77 40.545-4.083 79.344 15.631 109.799 8.486 13.109 18.451 36.501 27.505 48.074 16.656 21.292 24.097 11.093 46.895 7.143-1.463 21.604 2.44 46.401 4.121 68.313 10.45-14.111 30.883-7.723 47.316-5.019 8.363 1.376 15.961 8.051 23.943 8.462 7.946.409 15.951-12.422 24.216-9.429 18.508 6.702 9.992 19.363 11.857 33.217 3.558 26.422 3.481 29.416 21.755 47.936 13.765 13.95 33.584 18.917 46.584 30.75 9.072 8.258 12.969 19.884 22.412 28.583 7.932 7.308 31.885 13.117 36.142 20.853 4.498 8.171-4.613 32.446-6.428 42.132 26.368 15.384 61.616 11.948 89.47 25.509 19.853 9.666 53.211 35.718 74.554 18.226-2.442 5.072-.438 14.167-1.938 19.514 28.678 12.722 76.141 31.032 95.034 51.288-1.271-8.588 3.411-15.848 4.131-23.379 36.244 10.519 44.465 49.374 71.25 71.703 28.898 24.091 61.78 14.443 96.09 20.922 35.615 6.726 58.464-2.424 93.009-11.179 33.496-8.489 68.891-12.058 98.422-24.525 5.625 35.667 70.117 23.964 95.93 23.703 37.297-.376 78.507-15.797 82.108-59.563 22.15-4.224 42.589-10.122 61.906-23.703 17.26-12.135 15.901-4.857 21.67-24.676 4.861-16.702-.855-40.38-.069-57.753 3.871-85.578 23.129-170.474 24.071-255.16.833-74.827-20.171-146.66-21.002-220.457-.801-71.133 11.022-136.416-2.412-207.021-7.363-38.698 7.871-60.378-39.522-60.759-70.11-.563-139.276-5.938-209.434-6-154.374-.137-308.638 2.157-462.869-9.738-160.34-12.366-335.932-11.605-494.873 9.893-54.023 7.307-110.557 6.661-165.241 8.835-32.984 1.312-80.897-7.882-99.383 18.023-24.059 33.712-13.308 178.454.587 210.01"/></svg>