<svg xmlns="http://www.w3.org/2000/svg" width="1400" height="1000" viewBox="0 0 1400 1000"><path fill="#52688c" d="M-6 119c6.12-8.113 21.844-41.403 28.342-16.31 9.315-1.09 8.791-10.432 7.96-19.435 2.027.576 5.047.786 7.396 1.545-7.715-39.691 27.065 1.476 35.896 4-1.143-8.046-.237-15.718 6.349-19.602 16.563 29.201 25.811-4.559 30.502-17.402 1.424.436 2.5 2.037 3.602 2.405 2.078-5.539 1.594-25.808 6.462-28.694 12.344-7.315 11.035 14.276 13.936 21.491 16.59 41.258 15.996-13.263 31.046-21.69.967 1.642 1.943 3.916 2.954 5.438 9.451-15.033 61.093-16.868 79.509-15.794 17.702 1.033 70.462 27.881 74.395 10.402 13.746 1.099 39.71 24.692 51.705 5.398 3.54 6.999 10.658 14.582 17.947 18.439 20.784-24.11 88.622-7.412 117.651-5.891 5.091 12.72 3.548 25.023 7.753 35.7 5.706 14.487 18.998 14.973 30.285 22.398-7.634 9.104 2.557 28.565 4.31 41.602 2.151 15.998 5.932 30.05 7.896 46.104 1.821 14.877-1.02 28.549.057 41.896 1.38 17.104 15.699 35.013 24.595 49.548 20.161 32.941 28.182 79.278 50.903 108.897 16.963 22.113 63.978 20.082 90.103 32.064 34.471 15.811 72.307 33.801 110.445 37.484 18.27 1.765 36.103-5.813 52.495 1.512 8.146 3.64 6.575 10.539 17.505 12.542 9.897 1.813 16.912-7.153 27.658-1.705.53 1.864.212 3.474.637 5.363 8.33-.407 17.509-.181 25.356 2.644 10.293 23.063 27.082 19.643 49.801 23.708 16.911 3.027 63.884 5.053 74.833 13.84-9.358 13.039-18.641 19.25-34.133 22.502 6.111 7.657 19.801 10.141 27.499 13.246 7.963-19.263 45.078-3.673 58.395-.082 18.621 5.021 40.059 10.282 57.954 16.334 9.227 3.121 18.467 8.79 22.491 17.556 3.896 8.487-1.196 16.826 4.961 28.541 7.395 14.071 43.682 25.835 22.355 44.014 11.746 13.957 34.481 20.724 47.74 33.937 13.883 13.833 7.746 28.28 14.897 48.502 3.229 9.134 10.443 20.229 11.651 29.438 1.114 8.503-3.254 15.844-.691 25.672 5.952 22.833 24.838 24.166 44.104 26.335 20.164 2.271 40.211 3.513 60.1 8.602 31.754 8.125 51.438 39.307 67.939 67.954 21.623 37.537 38.867 77.039 58.452 115.555 12.48 24.544 27.106 20 48.285 20h-1712.57 17.727c-21.168 5.873-21.801-18.874-25.499-34.413-8.834-37.122-21.46-70.925-36.046-106.182-17.569-42.469-34.474-84.585-42.395-129.9-13.485-77.146 19.891-156.499 31.957-232.28 12.526-78.673 56.014-145.793 84.541-219.231 21.966-56.55 38.726-120.243 52.349-179.73C-9.909 131.75-13.021 121.55-2 105"/></svg>