<svg xmlns="http://www.w3.org/2000/svg" width="1400" height="1000" viewBox="0 0 1400 1000"><path fill="#52688c" d="M-11.251 277.796c-5.146 9.351-2.828 23.783.443 35.55 19.605 3.88 35.478-8.877 53.119-11.083-.789 5.082 1.667 11.994.897 17.073 4.686-2.514 11.93-1.328 17.538-5.825 4.589 3.349 7.218 6.732 8.713 12.205-5.225 2.789-10.644 10.158-16.641 12.231 15.274.397 10.211 3.468 17.383 11.344 26.1 9.314 70.292 11.469 98.044 9.967 5.102 12.688 8.424 24.749 18.68 32.908 1.857-3.603 9.428-8.831 11.179-11.981 9.851 19.062 28.69 27.59 43.339 40.958 20.88 19.054 22.012 33.386 47.412 25.413 9.319-2.926 12.184-12.533 20.858-15.813 8.519-3.222 33.278-7.468 42.063-8.333 23.828-2.348 62.218 5.063 84.019 15.167 37.107 17.198 67.284 58.694 98.999 83.987 20.49 16.341 86.646 34.885 95.412 56.263 9.237 22.526-9.254 15.683-12.274 32.347-2.251 12.42 4.572 25.363 12.13 36.815 16.289 24.683 27.992 33.084 34.423 62.185 7.954 35.987 7.995 69.621 20.992 105.01 2.12 5.772 1.614 16.691 5.269 21.745 7.492 10.36 13.226-.895 21.804 8.866 11.967 13.617 16.109 36.112 14.797 53.681 2.397-1.67 8.077-3.087 11.479-5.905 20.938 17.236 49.95 35.152 75.094 42.362 37.845 10.853 65.118-10.6 101.924-6.14 16.193 1.962 29.462 12.411 45.005 15.061 22.631 3.858 30.064-.972 48.896 12.012 12.615 8.696 12.964 24.39 35.112 24.072 17.612-.252 20.683-11.188 35.992-18.371 37.636 40.022 72.285 21.944 114.022 6.428 46.783-17.392 54.332-67.759 89.267-101.674 2.099 3.667 23.953 35.751 22.343 34.941 21.874 10.982 25.159-7.549 41.406-23.56 21.774-21.458 60.163-39.023 89.486-48.373 14.462-37.158 31.236-64.536 33.525-104.283 8.244-143.18-48.273-282.904-48.005-426.46.231-124.108-16.721-254.948-27.456-377.371-274.063-14.756-551.268 21.294-825.5 23.587C439.145-54.105 308.09-52 177.1-52H13.515c-24.45 0-60.603 6.956-82.13-5.56 7.35 34.528 9.191 69.339 9.429 104.547.202 29.934 8.232 73.855-6.07 101.826"/></svg>