<svg xmlns="http://www.w3.org/2000/svg" width="1400" height="1554.414" viewBox="0 0 1400 1554.414"><linearGradient id="a" gradientUnits="userSpaceOnUse" x1="676.5" y1="2.578" x2="676.5" y2="1585.707"><stop offset="0" stop-color="#14325b"/><stop offset=".259" stop-color="#133057"/><stop offset=".488" stop-color="#12284d"/><stop offset=".707" stop-color="#0e1c3b"/><stop offset=".916" stop-color="#0a0b21"/><stop offset="1" stop-color="#080315"/></linearGradient><path fill="url(#a)" d="M1424.386 152.044s-19.793-.213-29.659-1.858c-12.035-2.007-24.337-3.02-36.485-4.008-7.16-.582-14.345-1.151-21.528-1.279-3.346-.06-9.875 1.463-12.46-.368-6.184 4.455-7.748 13.165-13.764 18.002-5.862 4.714-15.035 7.62-17.986-.917-3.987-11.534 6.422-18.803 10.945-28.042 2.737-5.593 1.86-11.057 2.493-17.061.81-7.693 4.18-14.796 6.778-21.992 2.393-6.618 9.175-34.671-6.384-33.204-12.39 1.169-5.6 22.172-11.961 28.045-1.172 1.082-4.042 3.424-5.873 3.161-4.811-.689-4.049-7.211-4.002-11.026.124-10.121 4.357-19.504 5-29.498.375-5.824-1.563-21.322-9.137-12.111-3.551 4.315-7.267 17.129-14.862 15.524-13.008-2.751 6.901-55.135-16.092-52.756-12.225 1.265 1.287 37.694 2.09 46.011-23.289 8.924-26.578-29.916-49.373-12.518-3.64 22.484 57.507 20.102 53.183 46.603-12.306 7.132-17.598-19.772-27.194-12.876-12.36 8.883 9.434 20.051 15.271 23.445 13.846 8.052 22.807 11.689 25.254 29.938 1.346 10.043 1.047 26.142-12.76 26.021-11.956-.104-7.476-15.335-7.879-23.281-.152-3.007-3.244-21.571-9.535-18.424-4.077 2.039-.041 19.037-3.579 22.924-9.313 10.232-14.01-30.451-14.411-34.5-.732-7.388 1.678-17.82-1.338-24.5-1.902-4.218-6.746-5.942-9.522-.889-1.892 3.439-.195 8.482.274 11.889.553 3.986.89 8.108 1.101 12 .624 11.521-7.624 5.397-13.323.692-5.628-4.646-11.112-9.989-15.69-15.69-3.982-4.96-14.799-23.381-20.599-11.613-4.168 8.457 5.209 18.551 11.598 23.1 7.367 5.245 16.271 8.083 24.068 12.628 3.859 2.249 8.689 8.777 1.983 12.382-6.564 3.529-10.734-1.837-15.525-5.496-5.201-3.973-32.152-21.361-29.433-5.22 3.852 22.864 37.229 29.989 55.544 34.606 7.153 1.804 13.022 3.383 18.273 8.756 5.589 5.721 8.644 13.931 3.618 21.019-3.725 5.254-11.42 4.193-16.489 1.208-6.536-3.848-13.474-12.465-20.892-13.996-4.196-.865-6.561.813-5.635 6.135.667 3.839 4.794 7.129 8.012 9.39 6.249 4.393 14.84 8.68 22.111 9.989 2.408.434 10.83.648 9.423 5.135-.94 2.998-11.021 3.352-13.436 3.474-3.433.175-26.679-.882-20.124 7.635 5.239 6.808 22.354.042 29.527.865 9.708 1.116 5.14 8.069.364 12.439-4.605 4.215-9.101 4.712-14.181 7.652-8.693 5.031-25.201 20.655-35.576 11.298-8.455-7.625 1.996-18.8 4.265-26.75 2.45-8.592 5.739-16.68 6.627-25.637.596-6.014.799-11.267-1.518-16.988-3.167-7.826-6.168-3.058-8.846 3.51-1.617 3.965-12.314 38.055-18.749 24.976-2.059-4.184-1.209-9.063-1.876-13.5-1.255-8.348-4.101-16.774-7.405-24.474-1.484-3.462-3.769-10.425-8.608-10.024-5.87.486-4.993 11.786-5 16.373-.018 10.871 5.573 17.597 9.124 27.128 1.697 4.56 5.465 15.076-4.124 12.497-4.47-1.202-7.646-4.611-11.5-6.998-4.31-2.669-8.239-5.557-11.976-9.004-4.246-3.92-6.849-10.696-11.537-14.022-4.325-3.07-9.101-1.041-10.61 4.024-1.421 4.764 1.587 8.631 4.733 11.9 6.106 6.343 14.623 11.198 21.39 16.712 7.834 6.385 17.139 11.107 24.623 17.75 3.341 2.966 6.028 6.929 7.382 11.126 7.977 24.679-29.746-3.306-36.302-3.084-18.521.627-12.464 15.415-2.388 23.951 14.175 12.005 34.494 11.595 49.484 22.078 5.354 3.743 12.123 9.34 4.131 13.49-4.898 2.544-12.455 3.308-17.934 3.076-4.346-.184-29.331-5.58-29.061 2.974.24 7.546 18.447 12.181 23.575 13.012 8.72 1.412 15.087-2.923 22.659-6.299 12.258-5.464 1.641 11.221-.326 16.625-3.451 9.488-4.668 18.861-4.592 28.832.027 3.818.57 7.531-1.177 10.719-1.727 3.15-7.806 7.249-11.496 9.431-5.183 3.063-23.095 11.369-28.218 4.816-2.209-2.824-.587-6.948 1.246-9.5 4.319-6.016 11.778-10.169 14.524-17.609 3.552-9.625-5.914-5.638-9.012-.374-2.97 5.046-5.752 13.143-12.331 7.396-5.963-5.21-.329-11.039 3.594-15.996 4.864-6.146 11.899-16.321 11.113-24.526-1.438-14.993-14.123 4.518-18.111 6.901-10.894 6.51-12.173-4.302-13.416-11.901-1.643-10.041-6.322-41.455-21.973-39.5-7.118.889-7.392 13.296-6.525 19.387.588 4.145 2.665 8.601 4.903 12.128 2.517 3.963 7.511 8.158-.409 8.375-3.784.104-7.468-2.488-10.105-4.917-3.129-2.883-5.526-6.616-7.424-10.395-.472-.939-3.529-10.49-3.722-10.522-26.827-4.52-11.76 25.494 2.149 32.876 8.823 4.684 18.119 8.89 25.759 15.45 3.469 2.979 20.846 17.078 11.763 20.505-3.79 1.43-10.725-1.31-13.766-3.474-6.947-4.946-10.293-19.108-18.236-21.8-5.073-1.719-8.581 2.579-9.498 6.889-.999 4.696 1.137 7.543 3.486 11.524 3.854 6.529 7.076 16.187 12.727 21.353 5.159 4.669 15.423 6.432 21.643 9.6 2.574 1.311 8.118 3.402 9.067 6.515 1.355 4.447-3.7 14.115-6.826 16.896-4.479 3.985-12.133 8.555-18.41 7.536-.87-4.115 2.345-9.181 2.911-13.3.734-5.319.431-10.571-1.488-15.625-1.313-3.46-4.021-8.71-8.495-6.036-3.992 2.386-2.69 11.334-2.515 15.159.49 10.611-.795 16.732-9.488 23.875-3.102 2.548-6.675 4.162-10.381 5.61-10.51 4.104-2.971-6.266-.981-10.108 2.125-4.106 3.838-8.976 4.752-13.5.907-4.49 1.514-24.984-8.414-18.898-7.938 4.864-2.318 17.941-6.113 24.286-1.753 2.931-6.651 6.759-10.387 4.26-3.767-2.52-1.687-10.263-1.476-14.01.309-5.458 1.565-10.75 1.5-16.163-.063-5.275-2.25-6.375-5.104-1.396-3.934 6.862-.563 15.861-5.306 22.384-.249-4.262-5.29-7.333-5.943-12.171-.758-5.621 1.522-11.427 2.854-16.793 1.679-6.771 3.966-29.151-4.362-33.646-8.604-4.644-3.755 15.749-5.111 19.648-3.499 10.062-14.749-9.292-21.025-10.524-4.076-.801-7.68 1.705-7.01 6.024.603 3.884 6.423 7.866 9.508 9.999 5.059 3.497 17.457 7.803 14.162 16.03-3.028 7.565-12.768 4.027-17.686.571C965 359.888 958.012 348.308 949.5 338c-3.965-4.801-15.005-23.428-21.889-13.998-7.214 9.881 9.796 22.015 16.369 27.029 8.717 6.649 17.813 13.167 24.789 21.732 1.955 2.401 14.196 22.378 5.729 22.747-4.259.186-12.663-11.265-15.986-14.121-4.317-3.71-23.675-23.804-30.053-16.902-7.021 7.598 14.307 17.877 18.65 21.027 2.355 1.709 9.724 6.13 8.909 9.986-1.224 5.802-12.852.933-16.145.476-2.542-.353-10.896.106-10.95 4.024-.05 3.703 9.439 6.254 11.978 6.889 10.038 2.512 20.675.708 30.706.113 6.886-.408 15.471 1.783 17.413 9.468 1.485 5.88-.317 11.583-6.233 13.874-4.719 1.827-14.93 5.218-19.789 4.168-6.995-1.511-8.773-8.656-11.125-14.512-1.955-4.868-8.008-13.318-9.4-3-.842 6.235 6.563 9.991 5.45 15.425-8.195 2.228-14.826-17.16-21.438-20.048-6.494-2.837-4.655 4.85-1.986 8.124 3.122 3.83 8.307 5.402 11.375 9.124 2.944 3.572 2.012 6.145-3.35 5.4-3.918-.545-10.14-8.101-14.523-6.034-6.974 3.285 5.922 8.263 8.621 8.885 5.035 1.161 10.066 2.317 14.877 4 2.673.936 6.084 1.519 5.413 5.037-.156.819-16.826 3.291-18.373 3.251-7.693-.201-10.387-4.547-16.948-7.283-5.528-2.306-11.188-3.811-17.036-6.887-5.832-3.068-10.782-5.256-16.918-6.443-8.64-1.67-19.217 1.06-27.534-1.415-5.924-1.761-10.756-7.05-17.221-8.762-7.04-1.866-17.847-2.337-24.832-.036-5.706 1.878-11.375 6.322-16.567 8.873-16.633-12.891-28.204-25.719-51.087-29.164-4.681-.703-12.265.258-16.258-2.08-1.916-1.119-4.062-4.611-5.688-6.223-4.968-4.921-9.475-7.258-16.986-5.867-6.854 1.268-11.307 6.76-17.82 8.905 7.958-10.394 26.993-16.38 22.302-31.128-7.282-22.89-16.563 20.064-30.064 15.132.133-3.75-3.529-7.112-3.369-9.845.251-4.23 2.908-4.311 3.73-7.67 1.868-7.649 2.681-14.942 1.598-22.984-14.245-4.283-2.299 34.021-19.755 21.032-9.331-6.944-.292-27.718-8.175-36.568-10.612 4.551-6.438 12.271-5.189 19.899-21.066 7.535-16.729-21.543-26.815-22.535-3.344 14.742 7.548 23.563 16.122 33.806 4.302 5.139 23.624 24.698 21.741 30.088-16.887 3.61-19.418-25.98-32.326-25.107-4.584 19.647 28.564 31.299 21.821 48.671-5.359 13.8-14.372-2.443-22.229-2.738-12.413-.471-10.265 16.896-21.51 17.617-26.274 1.68-5.295-27.48 2.778-34.898 4.179-3.838 17.729-8.773 7.038-15.584-9.318-5.939-14.732 6.084-16.507 11.912-2.88 1.081-7.213 1.081-10.095 0-5.479-10.597-2.699-19.299.277-29.899 2.37-8.45 2.879-19.101 1.588-28.52-17.742-6.944-12.653 25.21-13.966 32.842-15.29-7.038-22.372-13.644-27.707-30.542-22.217-5.973-5.688 14.707-.122 21.006 6.708 7.596 17.674 19.937 14.077 30.088-14.963 1.109-26.651-29.104-37.729-27.694-6.227 24.374 39.705 32.87 32.271 53.384-13.497 4.322-13.319-15.378-21.616-15.43-18.683-.115 7.104 19.42 8.817 20.858 8.873 7.444 14.388 14.822 13.209 25.888-.598 5.616-.151 14.052-4.31 18.486-1.923 2.052-5.932 3.854-8.657 2.047-4.622-3.063-1.554-11.313-.764-15.405.59-3.059 4.316-16.587-2.732-12.998-4.721 2.404-4.041 12.361-5.265 16.506-1.539 5.21-8.808 10.748-14.18 6.471-4.646-3.698-1.223-13.229.595-17.618 5.147-12.445 5.039-17.7 1.604-30.643-9.721-1.107-12.998 16.301-8.022 22.328-21.428 4.52-13.579-9.637-22.32-20.132-8.758-10.512-21.085-4.72-19.004 7.905 2.856 17.323 25.089 29.063 25.211 47.854-9.189-4.147-11.91-11.214-18.863-17.13-9.503-8.084-13.832-2.886-8.285 7.854 4.283 8.293 11.635 11.104 13.193 20.556 1.266 7.668.543 17.914-.483 25.502-22.208-4.875-9.147-25.527-16.64-40.64-16.482.146-3.643 26.011-2.789 32.851-9.319-6.092-19.975-3.566-29.218-10.63-3.548-2.71-23.686-22.788-25.208-7.646 9.813 7.813 19.519 11.653 29.9 16.682 23.196 11.233-1.135 15.177-11.05 23.116-8.241 6.603-4.426 11.536 1.988 14.461-2.036.333-4.126.679-6.328.922-10.955 1.216-6.744 4.084-6.522 13.044.129 5.207 1.593 13.446-3.478 17.067-5.049 3.604-9.77-2.035-16.685-1.234-2.645.306-4.319 1.722-7.645 1.558-3.18-.157-5.83-2.305-9.041-1.264.133 10.328-9.776 8.776-14.354 14.234 2.527 3.063 10.836 6.063 4.467 11.338-5.459 4.521-6.218-4.245-11.959-5.203-14.888-2.482-1.269 21.652-12.369 22.95-3.324.39-5.856-2.458-9.338-1.575-1.833.465-2.562 2.992-4.141 3.352-4.724 1.07-11.807-1.137-9.763-7.704 2.756-8.856 22.685-5.905 21.502-15.619-6.673-1.482-13.821 1.86-21.193.979-5.296-17.383 21.946-14.144 30.695-17.135 3.365-1.151 12.318-8.652 8.994-13.188-3.664-4.999-11.559 1.845-12.388 5.647-11.556 3.858-3.948-11.706-4.599-16.914-14.097-4.728-2.347 22.91-14.985 18.396-.679-5.086.276-10.461-.491-15.527-.854-.528-1.708-.528-2.563 0 .19 6.229-7.199 13.532-8.056 4.119-.376-4.139 5.945-11.221 9.25-13.436 6.63-4.44 25.675-7.691 21.483-19.634-6.361-2.254-4.682 6.974-12.204 3.066-3.106-1.613-5.354-6-4.242-9.128 1.227-3.439 7.753-5.636 10.804-6.886 6.07-2.486 7.711-3.054 10.076-9.018 1.396-3.521 2.415-13.371-5.438-8.402-3.107 1.968-.897 9.81-6.531 8.501-7.56-1.755-.704-18.327-1.732-23.063-9.539-3.528-8.705 11.293-9.273 15.498-1.615.582-4.079.563-5.676-.032-.837-2.972-2.792-5.221-3.629-8.19-8.438-1.069-12.052.698-9 8.442 2.221 5.631 9.28 9.071 10.654 14.307-1.815.127-21.833-14.459-18.18-1.477 5.909-.468 11.354 5.672 14.122 10.034 3.936 6.205 1.045 7.978-.688 14.597a20.284 20.284 0 0 1-7.255 0c-.622-3.221 2.276-5.367 2.966-8.477.551-2.488.006-6.046-.309-8.511-2.574-.194-4.629.967-7.257 1.518-.759 5.544.351 11.427-.503 16.951-6.936.495-8.087-9.063-10.505-12.897-4.265-6.761-18.42-5.719-13.634 4.102 1.269 2.6 5.637 3.959 7.455 6.015 2.914 3.296 5.032 7.934 7.297 11.665 4.734 7.806 5.381 13.093 3.178 21.549-.839.529-1.681.529-2.526 0-.738-3.155 2.446-9.43 1.083-11.509-3.146-4.799-8.071-.04-9.145 3.009-2.594 7.365 7.26 12.337 6.02 18.4-2.85-3.32-7.869-4.881-10.274-8.589-2.153-3.32-1.868-7.612-3.664-11.015-5.62-.675-11.407-1.379-10.617 5.619.574 5.084 6.655 7.743 9.421 11.115 3.27 3.985 2.808 8.046 4.176 13.126 1.08 4.004 7.066 9.639 6.355 12.852-9.256-2.21-5.37-14.351-16.557-9.346-.152 6.448 7.783 12.128 11.777 17.185 5.749 7.285 5.272 12.852 3.174 21.435-9.635 2.647-11.026-11.222-16.385-14.118-4.02 9.525-5.246 15.004-17.182 12.642 2.861-5.958 2.07-11.222 6.407-16.854 2.854-3.706 8.704-7.953 7.104-13.111-8.634-2.869-7.288 6.69-12.046 10.035-7.51 5.275-12.736-2.007-10.923-8.834 2.208-8.308 20.784-15.623 16.794-25.834-7.24-1.5-10.589 1.477-13.324 7.026-3.162 6.414-2.766 8.236-10.999 3.984 6.376-7.617.063-12.699-.233-19.848-.297-7.195 4.032-13.57 2.932-21.599-17.813-6.054 1.891 27.928-12.543 20.496-5.138-2.646-4.736-12.154-6.109-16.367-2.108-6.463-5.688-10.456-6.064-17.172-11.689-3.756-5.899 13.314-4.486 18.621 2.205 8.271 10.778 13.788 12.285 21.52-9.161 2.878-10.109-12.149-18.452-8.58-9.647 4.13 1.372 12.966 6.253 14.597 8.182 2.732 12.191 8.182 17.336 14.137 2.533 2.935 8.961 15.648-.079 14.664.019-6.363-9.343-19.797-9.607-7.057-.12 5.742 3.851 18.316-4.485 21.838-9.014 3.805-13.354-5.03-12.469-11.698.545-4.085 1.529-6.248 4.596-8.696 3.541-2.823 8.355-2.143 6.02-8.477-5.14-1.744-6.266 3.021-10.234 2.426-1.201-.182-8.141-4.741-9.072-5.434 1.627-4.375 5.383-8.009 3.859-12.935-1.604-.572-4.107-.572-5.712 0-.696 5.111.216 10.494-.467 15.612-6.489-1.972-6.408-7.704-9.458-12.933-4.367-7.488-3.383-3.847-11.695-4.141-1.641 3.87 8.879 15.363 11.736 18.702 4.932 5.762 13.188 5 10.926 14.238-2.127.021-24.444-13.402-19.916.254 1.268 3.828 8.783 4.523 12.113 6.089 3.498 1.642 6.365 4.327 9.696 6.563 8.553 5.736 14.146 8.134 13.824 19.162-.431 14.754-10.203 5.015-20.081 7.535-6.998 1.785-6.305 8.171-12.364 7.021-4.411-.839-7.778-5.949-12.353-7.021-9.48-2.218-14.223 7.05-18.586 12.713-1.954 2.535-.241 2.909-4.59 4.459-1.85.658-5.694-.063-7.719-.067-4.424-.016-9.288-.482-13.559.32-10.115 1.903-16.705 3.726-26.457-1.738.75-5.695 10.207-7.982 15.221-10.184 3.307-1.451 8.335-2.426 6.326-7.311-1.209-2.944-4.409-3.682-7.527-2.582l-.527 2.404c-1.606.595-4.094.608-5.718.027-.539-4.681 1.831-10.21 1.118-15.533-6.839-2.067-5.708 7.886-6.179 11.181-1.445.508-2.733.508-4.179 0-.65-4.922 1.147-15.384-4.438-18.713-7.439-4.438-3.93 6.819-3.477 10.24.676 5.125.818 12.667-1.121 17.392-2.854 6.946-8.854 6.401-15.674 5.579-2.381-7.694 8.317-11.611 5.717-18.397-5.837-1.575-7.686 4.281-11.785 5.39-6.355-4.254-2.211-12.997-.768-18.656 1.829-7.172 6.772-9.849 10.893-15.946 3.857-5.709 3.615-19.016-4.672-10.176-3.971 4.232-2.404 15.987-11.743 12.858-.546-4.004-1.129-9.807.894-13.217 2.185-3.686 6.994-4.084 4.783-9.498-10.05-.854 1.73-21.619-11.818-14.494-.467 2.702-.087 5.505-.504 8.226-7.822 2.637-13.963-17.604-19.534-6.734-3.572 6.969 11.611 15.15 15.016 19.702-9.345 1.323-12.197-2.232-19.929-5.535-3.031-1.296-8.521-3.421-9.444 1.487-.892 4.74 5.015 3.617 7.864 4.626 4.063 1.437 7.016 2.868 10.818 3.985 3.616 1.061 5.758 1.604 7.757 4.391 1.783 2.484 5.606 12.588 4.362 15.754-11.512 3.669-10.336-17.186-19.619-14.044-1.223 5.849 1.075 9.391 5.568 13.177 1.725 1.454 5.346 2.871 6.591 4.278 3.563 4.026 1.539 2.396 1.429 6.957-.264 10.966 7.484 18.871 6.031 30.211-6.56 2.093-9.158-3.26-12.513-6.738-1.673-1.735-4.617-2.59-5.905-4.599-2.154-3.361-.254-3.513-.229-6.153.029-3.104 2.15-10.854-.748-13.146-6.164-4.877-6.674 4.224-6.86 7.557-4.85-1.417-8.55-4.279-10.967-8.511-2.179-3.813-2.992-11.818-8.501-11.371-12.529 1.018 3.199 19.581 6.882 22.605-7.966 4.651-13.446.939-22.476 1.957-3.377 7.639 9.289 5.589 13.664 5.578 7.289-.017 8.486-.153 12.199 5.47-4.406 1.065-18.871 3.543-16.631 10.259 5.097.596 9.717.64 14.28-1.853 3.568-1.947 6.543-6.284 11.082-5.795 4.231.456 8.132 4.227 5.5 8.522-4.208 6.868-14.264 7.083-21.361 7.062-3.842-.012-7.772-.143-11.599-.502-4.744-.446-7.826-2.855-12.351-3.995-3.664-.922-8.171-.326-12.014-.327-6.432-.002-17.741-.291-21.627 4.587L-82 1585.707h1517l-10.614-1433.663zM364.551 883.292c-4.378 5.282-21.313 1.433-29.146-.285-16.258-3.564-27.064-20.727-43.922-24.079-19.621-3.901-41.615 17.63-59.488 11.475-4.109-14.424 11.096-22.576 6.791-34.869-15.16-4.812-8.842 21.873-26.805 14.869-3.403-25.789-3.919-42.154-21.701-12.479-12.043 20.099-24.967 17.7-42.969 27.604-4.744-7.723-5.139-17.256-3.224-25.81 16.66-3.744 22.584-15.468 18.399-32.392-9.236 14.075-13.587 13.481-31.189 15.602-5.881.708-13.092 7.237-19.096 3.475-9.803-6.145-2.896-16.622 6.598-16.064.439-10.544 6.241-21.537 4.591-31.315l-3.928 3.928a51.125 51.125 0 0 1-4.072 4.072l4.072-4.072c17.114-19.061 18.085-47.085 51.928-51.038 11.65-1.36 27.245 2.107 37.188-3.7 11.543-6.744 6.254-16.83 26.193-12.585 7.916 23.268-30.106 28.816-22.764 50.791 27.941 7.854 29.102-33.441 46.685-30.869 3.559 11.409-6.388 20.262-2.685 30.869 6.051 1.199 12.727 1.199 18.777 0 4.184-11.235-4.397-25.886-2.713-38.869 2.213-1.458 4.429-1.462 6.648-.015-.914 8.83 2.976 15.966 11.986 14.977-.676-6.814.392-14.301 7.985-15.169 3.895 10.668-5.188 22.919-2.712 35.063 14.858 5.817 16.212-13.569 23.303-19.966 14.983 6.66 7.229 29.087 3.103 39.787-4.89 12.682-8.678 19.994-6.299 36.101 5.575 1.071 8.96 4.267 14.513 5.395 1.043 17.022 21.582 22.267 29.787 34.32 4.52 6.634 10.452 17.662 4.166 25.248zm608.744-444.08c5.6-1.672 11.303-3.999 16.554-4.32-1.054 7.16-8.034 17.923-16.542 12.799-5.205-3.137-2.784-5.542-.012-8.479zm-505.674 77.934c2.098-2.244 4.086-4.774 6.061-7.554l27.66-9.441c-1.106 1.685-2.081 3.339-2.537 4.797-6.07 2.915-13.393 1.72-19.771 5.004-3.869 1.99-7.63 4.629-11.413 7.194zm756.024 201.429c-3.438 3.36-20.182 9.348-24.815 8.754-2.818-.36-2.293-4.597-6.688-3.706-3.475.703-5.553 7.387-6.228 10.274-1.916 8.192-.789 16.713-1.854 25.12-1.485 11.728-26.763 43.77-28.937 18.896-.635-7.266-.246-14.51 2.512-21.257 1.297-3.174 11.247-22.245 1.543-21.488-5.809.454-4.532 13.98-6.073 17.623-2.096 4.957-6.739 17.881-14.161 15.161-.428-9.606-1.503-28.328-14.363-28.44-2.378 15.297 8.985 21.688 7.675 36.17-6.331 1.766-15.818-7.326-20.073-1.771-5.572 7.273 9.385 10.735 8.225 17.237 5.438 1.764 10.003-2.966 15.854-1.354 7.704 18.304-43.723.596-36.484 18.754 11.876 2.479 20.646-7.417 32.365-5.22 4.417 9.879-19 9.239-10.586 17.667 4.316 4.322 16.276-4.247 23.256-2.538 15.411 3.773-.16 13.987-6.172 19.369-6.766 6.057-9.633 13.973-15.873 19.748-21.356 19.767-56.422 7.457-80.631 23.236-7.318 4.771-11.706 13.665-18.794 18.84-8.847 6.459-19.938 6.92-30.681 5.512-.813-7.854-.531-13.249 3.855-19.507 4.403-6.281 6.274-9.989 8.186-16.924 1.836-6.671-.066-14.876 1.967-21.25 2.062-6.458 16.311-10.148 14.294-17.139-7.857-1.996-18.265 15.376-20.839 20.958-3.812 8.263-4.418 21.045-12.305 26.853-9.347-1.655-5.035-20.095-6.132-26.607-10.159 3.586 2.192 21.703-7.271 27.423-10.436 6.307-10.749-15.349-14.477-20.367-8.541-11.502-20.254.574-12.447 9.752 4.331 5.092 19.197 11.988 15.749 21.356-5.399.672-21.821-1.994-17.899 7.729 3.177.187 6.527.384 9.708.569 2.488 7.165-13.219 9.557-15.888 14.696 3.652 3.998 10.681 5.833 16.152 4.437 5.102-1.303 8.614-7.647 14.12-5.592 1.146 9.202.451 13.697-7.941 19.073-5.477 3.509-12.714 11.539-18.432 13.572-8.82 3.137-22.914-.178-32.59 1.84-13.291 2.77-26.496 2.919-39.651 5.804-11.98 2.627-22.119 6.734-32.904 12.066-10.734 5.306-18.516 12.615-30.896 15.556-10.248 2.435-20.869 1.455-30.896 3.675-7.667 1.698-18.497 11.56-26.465 8.979-.129-2.652-3.16-11.825-2.108-13.321 2.598-3.694 11.775-1.611 15.902-2.132 4.216-11.029-15.367-13.987-14.253-24.923.895-8.775 18.485-12.511 14.154-22.896-5.538 3.585-14.041 8.039-17.661 13.804-3.918 6.234-.379 13.764-6.089 19.316-15.977 15.542-3.768-32.669-18.791-27.223.694 5.435-2.471 9.52-2.355 15.16.123 6.025 4.86 12.091-.531 16.899-9.849 8.784-16.267-14.007-16.404-20.618-8.644 6.97 7.1 22.227-13.654 21.402 1.979 15.92-15.88 7.906-12.72-6.234.925-4.131 4.267-6.87 4.264-11.493-.003-3.935-3.282-7.58-4.621-11.353-10.654 1.935-4.912 23.529-12.418 28.11-3.533-2.591-3.846-5.642-6.12-8.604-2.316-3.019-8.067-1.263-5.461-7.731 1.352-3.357 6.615-3.226 7.976-8.064 1.024-3.644.136-9.668-.359-13.324-7.37-1.602-16.334 9.839-12.243 15.25-10.374 9.481-12.248-5.077-12.161-11.632.123-9.421-4.551-17.943-4.472-26.807-9.608-1.8-8.979 12.577-7.888 17.044 2.063 8.461 2.124 16.342 2.061 25.222-.082 11.309 5.072 12.764 10.35 21.209 5.382 8.611.938 15.213-9.991 13.282-.791-3.091-1.877-13.144-4.896-14.867-8.048-4.601-6.326 5.889-9.274 7.998-6.648 4.756-9.726-1.633-15.131-4.048-8.849-3.952-3.022 2.81-10.085 3.655-5.387.646-9.498-5.448-10.506-9.845-1.694-7.4 2.314-9.082 8.332-12.116 7.23-3.648 20.325-7.93 16.173-18.503-8.271-1.706-22.091 2.316-26.868 9.123-10.063-.786-5.503-17.696-3.648-22.844 1.285-3.57 5.591-9.544 4.191-13.727-.861-2.58-8.08-7.677-11.043-6.358-2.606 1.16-2.451 9.352-3.979 11.87-2.722 4.487-6.366 3.544-5.807 10.048.747 8.658 14.643 21.7-4.026 25.259-8.621 1.646-5.919-2.94-10.709-6.078-3.979-2.606-10.311.363-13.589-2.08-2.885-2.148-4.183-12.415-4.072-15.212.218-5.604.151-6.62 5.6-9.719 3.59-2.041 6.091-.555 9.902-4.144 2.96-2.786 5.227-7.387 4.723-11.271-1.184-9.085-16.203-10.537-22.227-5.936-9.58-10.778 2.971-15.199 9.309-21.07 4.802-4.444 3.308-5.999 10.767-7.768 4.258-1.01 11.839-2.656 16.166-2.182 5.924-27.857-26.06 1.487-26.414-12.513-3.599 3.626-8.806 10.763-14.471 11.117-7.798.489-14.13-7.138-12.405-13.815 2.629-10.186 30.471-9.666 26.466-18.957a173.273 173.273 0 0 1-3.361-.652c-.914-3.063-1.971-5.951-2.811-9.033-6.823-1.923-20.103 4.886-24.883 9.314-2.542 2.354-5.507 9.379-9.73 9.842-6.38.699-7.238-7.131-5.871-11.479 11.289 2.087 8.771-2.467 8.346-11.842-.312-6.871 3.076-13.962 8.29-18.839 5.186-4.852 13.056-3.507 18.183-8.063 3.929-3.491 9.747-16.095 7.767-21.114a13.569 13.569 0 0 0-3.523-.476c-.969.5-1.938 1.022-2.915 1.577-1.697.963-4.9 1.968-8.422 3.074-4.916 3.617-9.571 8.132-15.451 8.813-.646-3.749 8.099-6.504 15.451-8.813 3.473-2.558 7.078-4.659 11.337-4.651 8.187-4.235 16.132-6.455 26.182-5.323 1.114 8.189-1.042 42.438 16.478 36.132 2.891-7.276-4.401-18.803-3.551-26.462 1.979-.688 3.643-.629 5.619 0-.846 7.182 5.516 17.584 14.762 12.836 11.304-5.805-3.789-12.021-9.979-13.473-.918-5.488-6.524-10.004-6.168-14.88 4.218 2.885 8.514 3.145 11.578 7.449 3.203 4.498.719 10.58 10.396 7.475 2.063-9.044-3.857-13.73-11.48-17.629-9.735-4.977-16.736.405-27.07-1.732-.753-1.067-.753-2.137 0-3.204 8.973-1.198 17.869.895 26.498-2.271 6.261-2.295 21.205-9.241 18.179-17.145-7.29.519-14.812 6.318-22.291 8.937-4.786 1.676-23.367 5.467-16.618-3.908 3.485-4.842 19.496-4.939 24.857-7.156 5.951-2.459 13.203-7.979 16.266-13.188-18.279-4.281-34.039 13.057-53.028 10.918-3.895-10.555 9.213-11.184 16.166-14.638 6.287-3.123 14.27-12.113 21.701-12.163 6.266-8.169 19.156-15.816 26.082-21.211 14.421-11.229 30.378-20.483 44.997-31.442 20.924-15.685 44.459-24.23 67.429-36.685 18.058-9.791 35.678-21.135 54.044-30.104 18.082-8.83 37.253-13.319 57.739-16.313 20.625-3.015 40.582-2.129 59.611 6.273 16.588 7.327 29.178 20.016 42.764 31.449 15.222 12.813 29.445 21.768 50.087 24.2 10.837 1.277 19.223-1.396 30.137.491 18.081 3.123 35.882 2.387 53.699-2.424 22.934-6.191 43.429-14.688 68.02-15.068 8.919-.137 17.863.046 26.784.046 4.813 0 14.126-1.646 18.53.393 3.85 1.781 5.748 6.56 8.657 9.361 2.965 2.859 7.168 4.786 10.25 7.551 10.132 9.086 20.207 21.022 24.864 33.417 3.545 9.434 2.068 20.7 4.585 30.446 2.101 8.218 4.923 24.635-2.084 31.488z"/></svg>