<?xml version="1.0" encoding="utf-8"?>
<!-- Generator: Adobe Illustrator 16.0.0, SVG Export Plug-In . SVG Version: 6.00 Build 0)  -->
<!DOCTYPE svg PUBLIC "-//W3C//DTD SVG 1.1//EN" "http://www.w3.org/Graphics/SVG/1.1/DTD/svg11.dtd">
<svg version="1.1" id="Layer_1" xmlns="http://www.w3.org/2000/svg" xmlns:xlink="http://www.w3.org/1999/xlink" x="0px" y="0px"
	 width="1400px" height="1612.471px" viewBox="0 0 1400 1612.471" enable-background="new 0 0 1400 1612.471" xml:space="preserve">
<linearGradient id="SVGID_1_" gradientUnits="userSpaceOnUse" x1="774.9102" y1="420.1235" x2="774.9102" y2="992.9565">
	<stop  offset="0" style="stop-color:#337395"/>
	<stop  offset="0.3114" style="stop-color:#316F92"/>
	<stop  offset="0.6085" style="stop-color:#2D6488"/>
	<stop  offset="0.8989" style="stop-color:#255177"/>
	<stop  offset="1" style="stop-color:#224870"/>
</linearGradient>
<path fill="url(#SVGID_1_)" d="M1027.909,992.955c0,0,3.06-71.293,2.166-77.596c-1.36-9.617-3.948-17.438-3.954-27.494
	c-0.003-8.646,0-17.291,0-25.937c0-18.767,2.226-36.584,2.226-55.291c0-33.023,2.077-65.69,2.225-98.501
	c0.139-31.068-4.779-62.623-4.456-93.669c0.188-18.019-4.573-35.897-4.435-53.927c0.097-12.189,1.448-25.302,0.044-37.426
	c-1.762-15.21-4.063-31.098-6.66-46.335c-1.395-8.17-1.145-56.855-10.929-56.656c-0.901,15.561-5.396,31.054-7.046,46.671
	c-1.598,15.14-0.773,30.336-2.604,45.448c-0.663,5.483-2.644,29.071-11.288,23.028c-6.835-4.778-3.692-19.367-12.297-24.518
	c-1.301,15.268-6.208,31.016-8.782,46.397c-1.21,7.225,0.081,14.564-0.452,21.848c-0.771,10.508-3.575,20.861-4.615,31.475
	c-1.112,11.372,1.233,22.957-0.327,34.327c-1.878,13.675-6.184,27.456-9.006,41.021c-5.438,26.142-10.033,52.321-17.631,78.042
	c-19.923,4.16-34.713-72.438-37.478-84.396c-3.408-14.742-5.315-29.538-7.117-44.559c-1.233-10.293-3.818-20.003-3.945-30.417
	c-0.124-10.188-0.141-19.553-2.295-29.633c-5.783,18.812-13.891,38.186-15.4,57.979c-1.389,18.209-10.348,34.401-11.615,52.418
	c-9.266-4.521-4.171-20.455-12.578-23.437c0.393,6.714-3.757,14.726-5.44,21.606c-1.543,6.313-1.984,12.614-3.773,18.746
	c-2.052,7.028-2.086,12.853-2.287,20.06c-0.195,6.96-3.758,11.175-4.944,17.794c-4.81-2.438-12.126-21.919-13.274-27.605
	c-5.936,0.699-4.908,17.171-10.696,21.984c-2.325,1.933-4.599,0.5-7.275,4.101c-2.754,3.699-1.423,9.496-2.108,13.628
	c-3.57,21.474,0.328,46.831-8.965,67.267c-3.906-6.724-3.812-14.927-6.068-22.208c-3.868-12.487-4.258-24.646-6.178-37.438
	c-1.348-8.979-5.175-71.019-13.505-69.183c-5.363,30.543-8.333,62.704-9.337,93.975c-0.461,14.377,6.974,136.209-8.406,133.031
	c-3.09-11.764-3.764-23.595-7.067-35.168c-2.479-8.673-7.878-16.188-8.984-25.024c-0.551-4.391,1.804-10.872-1.693-13.309
	c-0.307,6.098-2.416,28.245-13.505,25.573c0.759-7.301-6.722-15.375-7.002-23.691c-0.149-4.462,0.677-9.243-0.494-13.525
	c-0.665-2.433-3.636-5.72-4.069-8.324c-2.294-13.773-4.201-28.107-6.063-42.113c-1.593-11.993-1.639-35.832-11.181-45.219
	c-0.858,12.381-2.661,24.49-2.661,37.34c0,14.746-0.846,28.962-2.719,43.459c-1.537,11.899-4.93,24.466-6.293,36.255
	c-1.189,10.295,1.701,18.364-4.885,27.836c-8.291-3.123-6.525-16.965-8.408-23.735c-3.354-12.057-4.13-25.07-7.106-37.412
	c-2.758-11.443-7.063-23.12-10.14-34.429c-2.362-8.688-2.316-29.428-11.279-33.962c-0.619,10.601-3.725,21.377-4.893,32.012
	c-1.321,12.032-0.29,24.607-1.854,36.437c-7.102-6.563-7.135-18.81-9.153-27.449c-2.624-11.229,0.079-33.73-8.339-42.284
	c-5.03,4.571-4.818,25.106-13.523,23.011c0.09-6.177-4.159-11.712-4.944-17.697c-0.902-6.886,0.326-11.38-2.667-17.96
	c-6.864-15.097-11.518-27.602-13.283-43.79c-0.546,1.179-2.142,2.988-2.108,5.617c-7.604,0.858-5.694-7.112-6.293-11.82
	c-0.653-5.134-2.403-7.292-4.44-11.769c-2.94-6.458-2.561-27.596-8.474-29.979c-3.708,7.242-3.874,13.944-4.888,21.888
	c-1.029,8.061-4.139,15.35-4.44,23.955c-0.321,9.097-1.073,17.256-2.276,25.943c-1.124,8.115,1.971,16.313-2.172,23.946
	l-10.855,250.77C545.142,992.738,1027.909,992.955,1027.909,992.955z"/>
</svg>
