<svg xmlns="http://www.w3.org/2000/svg" width="1400" height="1554.414" viewBox="0 0 1400 1554.414"><linearGradient id="a" gradientUnits="userSpaceOnUse" x1="1638.281" y1="1340.601" x2="1638.281" y2="1348.097"><stop offset="0" stop-color="#375e7b"/><stop offset="1" stop-color="#1f3054"/></linearGradient><path fill="url(#a)" d="M1636.514 1340.601l-.021 5.966c.321.507.642 1.011.964 1.53 6.287-1.334-.715-3.446-.943-7.496z"/><linearGradient id="b" gradientUnits="userSpaceOnUse" x1="703.754" y1="739.629" x2="703.754" y2="1564.035"><stop offset="0" stop-color="#375e7b"/><stop offset="1" stop-color="#1f3054"/></linearGradient><path fill="url(#b)" d="M1515.881 1309.509c-11.146-9.973-20.771-19.418-29.767-33.548-6.472-10.164-15.511-37.962-22.569-44.896-19.348-19.014-50.402-21.952-75.227-29.332-6.447-1.917-13.112-3.849-19.187-6.784-8.189-3.961-6.104-5.118-10.04-11.367-6.23-9.893-15.822-15.979-27.593-18.08-14.984-2.676-31.361-4.613-44.717-12.026 3.133-1.239 7.104-2.035 10.612-3.195-10.471-12.192-38.188-6.133-44.867-21.626 16.138-.401 30.98-3.602 44.095-11.125-3.386-4.941-9.201-7.534-13.04-11.823 11.62-.855 21.146-4.095 32.091-7.23 5.92-1.697 12.285-1.87 17.896-4.946 2.648-1.452 5.309-5.53 8.048-7.025-6.308-10.187-22.696-2.502-32.043-6.004.413-.373 1.434-1.287 1.849-1.772-6.021-1.132-11.367-3.825-16.746-6.396-.385-9.217 60.991-18.834 70.742-28.652-11.552-.646-22.876-3.709-33.92-4.226-6.468-.303-11.972 3.356-18.023 3.298-5.121-.051-7.339-3.126-12.119-5.22 16.125-14.2 56.604-8.291 66.714-28.05-17.039-6.395-40.114-2.016-58.643-2.978-8.355-.434-15.538-2.913-23.961-4.052-10.458-1.413-22.841-.188-32.733-4.226 15.067-5.346 90.953-16.921 87.614-38.568-5.956.528-12.578 3.081-18.071 3.063-8.688-.024-16.76-1.62-25.842.027-7.06 1.28-51.805 7.79-34.71-6.999 5.181-4.479 18.237-5.517 24.774-7.523 6.773-2.082 13.353-4.47 19.977-7 12.511-4.781 27.325-7.269 35.772-18.571-4.431-.229-9.395 1.964-13.772.845-4.67-1.192-6-4.456-10.251-6.745-9.412-5.068-21.335-4.115-30.741-11.199-2.971-2.236-3.697-6.144-6.965-7.066-3.878-1.098-10.061 2.527-14.046 3.039-7.979 1.021-13.714-1.344-20.974-3.271-10.272-2.725-29.006-12.662-38.025-1.802-2.405 2.896-.926 6.421-2.959 8.996-3.411 4.322-8.429 6.054-13.765 8.326-7.129 3.035-14.75 6.233-22.168 7.896 5.476 6.872 32.67 5.337 42.613 5.056-10.396 5.664-29.156 3.191-37.744 14.504-11.946 15.733 27.979 13.805 36.965 15.443-1.774 1.097-4.878 4.479-7.036 5.822 5.045 5.937 21.235 13.684 28.991 15.175-7.022 16.181-67.23 7.182-82.74 7.98 1.133 5.012 5.035 4.338 7.892 7.877 2.058 2.55 2.462 6.013 3.953 7.995 5.568 7.4 14.086 6.612 20.144 11.947-8.845 9.231-31.424 6.267-43.108 5.028-13.218-1.398-21.15-7.751-22.833-21.826 11.287-5.709 22.693-12.11 33.742-17.896-18.019-8.38-33.739-5.174-52.144-7.055-9.567-.979-17.806-4.767-11.723 6.776 3.947 7.489 10.647 9.744 16.063 14.974-6.928 8.61-23.111-3.605-29.358-7.774-7.745-5.167-7.944-3.214-5.46-11.995.573-2.027 8.043-18.534 10.183-18.269-13.416-1.663-23.052-12.086-35.773-15.601-14.163-3.91-29.25 2.531-43.484 4.889-13.397 2.217-26.75 4.747-40.196 7.023-13.451 2.279-29.495 1.377-41.942 5.729 2.745 2.298 5.472 5.769 4.766 9.876-1.563.208-3.279 1.191-4.598 1.373 4.008 2.729 8.955 3.72 13.427 4.479-.584.808-1.269 1.529-1.824 2.319 12.373 10.373 54.641-2.082 62.263 11.945-10.783 12.994-53.303 5.222-69.063 6.202.534.713 1.308 1.939 1.871 2.623-26.226 3.102-52.729 7.697-78.863 12.4 2.441 8.83 21.458 9.38 29.21 12.803 10.238 4.521 7.813 6.8 12.459 15 6.744 11.905 15.068 7.245 26.067 8.754 5.438.747 19.091 7.749 21.067 13.1-4.204.229-8.582.068-12.784.299 8.417 13.383-2.274 16.116-16.352 18.095-9.908 1.392-20.881 4.342-30.294 1.994-9.803-2.444-19.104-7.902-29.21-10.24-10.055-2.326-24.845-1.123-33.316-7.648 1.186 3.228 3.234 6.135 5.737 8.668-3.77.883-7.923 1.439-10.789 3.934 6.124 9.603 15.67 11.605 25.431 13.938-1.827.872-3.335 2.118-4.669 3.565-9.217 1.169-20.704-.144-28.618-.455-7.692-.304-12.338-3.281-19.224-4.801-5.355-1.183-13.293.538-17.123-1.021 2.593 2.916 5.791 5.946 8.271 8.623-9.841.642-8.964 7.415-18.918 9.249-7.675 1.414-15.496-.116-23.028 1.948-10.104 2.771-7.604 5.828-6.958 16.023.425 6.698-1.969 11.302 5.811 15.146.031 3.2 1.308 3.609 3.571 3.75-9.861 12.564-17.983 27.706-31.004 37.39-3.198 2.38-17.137 11.755-21.253 8.408-3.994-3.248 7.061-19.372 7.854-23.772.796-4.422-1.413-7.283-1.993-11.949-.208-1.671 1.802-6.309 1.821-6.215-.513-2.332-2.741-3.497-3.096-5.809-1.583-10.308 3.95-14.418 5.517-23.974 1.645-10.035 1.777-17.479-10.092-18.151.964-6.384 5.903-12.063 6.868-19.123.747-5.46.106-11.974-.174-17.427-9.26 8.471-21.51 12.472-33.697 13.854.51 12.916-14.647 17.107-24.174 21.6-3.833 1.807-9.126.868-8.997 6.249.107 4.477 5.188 5.774 8.895 6.223-6.881 7.754-25.093 11.121-34.992 12.802-6.927 1.175-9.759-.124-12.105 6.754-1.83 5.366-1.708 9.118 6.14 8.418-6.104 4.836-10.086 3.871-11.789 12.604 8.387 5.504 24.902 4.36 30.987 11.203-7.084 7.302-24.081 14.16-33.894 18.021-7.742 3.044-33.094 4.879-36.379 10.799-5.65.378-42.989 3.715-22.197 10.433-18.822 12.876-44.765 7.84-64.392 17.522 8.565 2.84 17.704 4.379 26.619 5.394.158 19.73 46.927 1.827 59.001 8.003-6.043 19.552-45.189 20.746-60.672 23.074-10.084 1.516-18.854 4.272-28.977 3.752-6.567-.338-13.605-3.055-19.071 2.248 2.408 2.631 6.095 5.001 7.563 7.807-15.906 7.037-32.449 13.152-48.638 19.164 7.64 8.017 18.048 5.193 27.766 7.936-.478 6.996-9.429 9.956-14.965 11.588-3.379.996-7.485 1.955-11.033 1.824-3.259-.12-7.164-3.327-9.695-2.414 1.3 11.683-12.274 13.621-17.899 6.843-6.72-8.097-1.437-21.609-7-30.688-1.672 5.787-6.529 15.809-13.322 10.017.306 3.354-1.416 3.756-1.932 5.774-16.321-9.854 1.76-28.564 3-41.346 1.654-17.063.95-34.52-.196-51.449-2.528 5.622-6.396 11.829-12.626 12.569-1.069-11.812 3.27-25.095 3.826-37.095.638-13.778.032-27.488-2.151-40.646-10.625 1.988-7.998 21.553-18.649 26.77-.306-.952-.072-1.793-.347-2.749-6.196.41-8.801 9.038-14.64 11.739 4.197-1.941-5.081-17.797-6.104-18.893-3.208-3.433-6.394-.465-8.25-6.93-3.311-11.541 9.094-23.824 12.138-34.069 2.528-8.508 1.729-8.448 9.007-14.223 7.921-6.284 22.117-19.002 25.87-27.606-9.893-2.85-29.458-4.378-39.593-3.123 6.492-2.478 13.307-3.602 19.641-6.324-1.502-.269-4.939-2.383-6.817-2.699 3.513-4.162 9.513-7.138 14.04-10.05-6.673-4.846-32.731-3.735-40.968-2.801-2.576 4.612-22.898 4.481-28.875 4.778.638.549 1.861.865 2.628 1.271-4.352 4.104-17.046 1.571-23.772 2.929.535 13.399 31.435 11.662 39.769 15.825-6.921 8.555-21.814 5.47-31.844 6.227 3.616 3.088 8.987 5.424 11.817 9.598-7.417.722-29.49-.351-28.726-10.63a32.502 32.502 0 0 0 1.682-.364c-.463-.612-1.177-2.729-1.972-3.78 2.857-3.339 7.665-3.304 11.043-5.83-7.701-1.565-19.317-10.453-25.295-6.325-3.544 2.446-6.85 14.106-9.997 18.046-7.152 8.952-19.808 18.009-22.979.915-3.225-17.382 5.191-35.249 4.173-52.656-3.524-1.159-9.866-9.664-11.071-11.878-4.987-9.152-1.084-7.819 1.297-17.297 1.241-4.938.947-17.536.222-21.776-.827-4.842.034-3.342-3.274-8.027-2.69-3.811-6.868-3.52-8.071-9.247-.748-3.56 2.071-14.884 2.071-19.948 0-7.854-.629-15.53 1.751-23.02 2.262-7.118 5.726-9.5 2.998-17.98-1.916-5.956-4.51-15.844-8.003-20.853-12.465 2.281-8.168-19.896-11.774-27.898-3.625-8.044-5.833-13.259-5.749-22.029.037-3.884 1.364-7.817.575-11.996-.732-3.873-4.899-8.396-4.846-12.224.081-5.673 5.062-8.621 6.097-14 1.011-5.256-1.069-11.249-2.274-16-2.79-10.995-4.54-22.152-7.945-32.875-8.005 1.52-7.238 14.423-9.555 20.928-5.28 14.817-5.426 24.902-5.274 40.7.119 12.36-4.214 23.894-4 36.247.135 7.793-2.354 17.682-.155 23.829-13.097 2.393-7.274 14.851-2.894 24.171 2.614 5.563 8.548 8.744 6.897 15.774-.412 1.754-5.632 2.904-6.697 4.451-1.346 1.956.387 5.003-1.08 7.049-4.266 5.949-6.701 4.438-7.071 12.674-.237 5.271 3.762 10.588 3.016 15.078-.878 5.284-6.222 5.021-6.068 11.974.12 5.43 4.658 10.202 4.897 15.85-16.028-2.663-3.515 39.747-2.793 47.175.939 9.675-.074 16.865 3.197 26.973 1.116 3.447 3.601 7.376 4.029 11.004.774 6.57-.704 5.349-2.527 10.774-4.401 13.102 8.062 31.24 2.252 43.229-3.087 6.372-10.944 8.514-13.055 14.994-2.329 7.154-1.313 15.146-4.245 21.981-.736-.113-1.032-.862-1.851-.97-6.311 6.759-5.779 17.576-12.603 23.836-2.795-3.835-2.302-8.192-2.248-12.846.021-1.767 2.149-5.718 1.79-7-.952-3.405-3.381-2.677-4.793-5.199-5.664-10.121-3.206-16.868 2.706-27.071 5.583-9.636 9.911-10.298 5.02-21.004-1.402-3.067-1.087-3.81-4.698-7.974-3.047-3.516-6.519-4.442-6.851-9.582 8.797-3.582 10.298-14.355 9.087-22.394-1.407-9.342-6.828-16.112-9.042-25.801-2.895-12.662 12.583-45.722-2.223-56.073-1.112.921-3.066 1.424-3.826 1.969-1.078-18.671-2.549-36.311-7.896-53.872-5.053-16.596.368-36.78-7.306-53.646-1.388 7.598-5.458 13.502-8.223 20.646-3.744 9.675-1.674 16.058-.752 26.053.731 7.925 3.873 36.769-6.646 35.122 4.508 5.813.852 8.822.404 14.825-.419 5.618 2.58 11.093 2.297 15.948-.387 6.653-4.662 9.209-5.075 16.052-.317 5.245 2.625 12.706 3.872 17.802-3.818 2.031-5.049 3.231-3.948 6.974-1.672.169-3.097 1.19-4.772 1.399.679 2.159 3.546 6.398 3.673 8.773.208 3.91-2.121 7.97-1.82 11.025.728 7.402 7.408 11.906 3.765 19.774-1.17 2.526-5.91 2.655-6.817 5.151-1.805 4.964 3.059 8.387 3.872 12.322.704 3.41-.418 5.599-.02 8.829.28 2.271 2.132 6.056 2.464 8.193.788 5.069-1.728 12.104-2.493 16.506-.599 3.442-2.232 5.104-1.998 9.248.234 4.132 3.23 6.638 3.02 11-1.777 36.816-50.258 41.568-77.669 40.125 7.439 39.807-40.495 46.775 11.874 83.396-15.976 28.015-31.773 15.551-55.602 23.922-31.859 11.191-35.904 26.575-52.876 52.078l8 232.012 1712.827-10.397.666-194.067c-15.029-23.708-29.032-32.529-48.624-50.062z"/></svg>