<svg xmlns="http://www.w3.org/2000/svg" width="1400" height="1612.471" viewBox="0 0 1400 1612.471"><linearGradient id="a" gradientUnits="userSpaceOnUse" x1="486.493" y1="355.947" x2="486.493" y2="1007.176"><stop offset="0" stop-color="#3b6a8d"/><stop offset=".114" stop-color="#366387"/><stop offset=".681" stop-color="#1f446d"/><stop offset="1" stop-color="#163963"/></linearGradient><path fill="url(#a)" d="M642 1004.633c1.137.849 1.364-42.607-4.106-63.984-5.263-20.561-7.063-41.653-12.684-63.317-13.948-2.284-15.986-18.148-19.21-28.697-3.432-11.229-11.511-21.896-15.096-32.903-8.578-26.336-10.588-59.197-13.794-86.776-9.393 8.089 1.054 33.611-7.226 46.378-3.514-9.713-9.417-19.693-11.898-29.317.006 7.708-14.094 10.944-20.271 6.016-6.364-5.077-3.788-16.048-3.715-23.396.161-16.166 2.634-35.535-.904-51.109-3.304-14.547-15.096-27.213-20.192-40.685-5.178-13.683-2.968-30.35-10.903-42.997-7.302 11.661-7.127 33.177-8 46.599-1.346 20.69-.48 42.254.207 62.982-6.59-19.253-27.212-37.033-24.797-58.2-2.986.543-7.83-1.718-10.818-1.181-1.615-12.923.53-26.334-.604-39.41-1.201-13.844-7.847-23.067-11.973-36.207-4.632-14.752.069-13.999 5.068-27.587 5.286-14.365 1.932-17.705-3.986-29.21-3.646-7.09-8.302-5.382-9.382-15.01-.742-6.616 6.159-12.325 4.464-20.192-2.347-10.895-16.558-14.045-20.371-23.601-2.214-5.547 1.44-14.335.285-20.285-1.013-5.217-4.087-7.265-5.188-11.701-2.964-11.933-1.975-23.347-3.494-35.616-19.272 2.325-11.285-19.507-26.633-21.352a80.284 80.284 0 0 1-1.459-6.555c-28.586-11.423-19.419 51.862-19.317 67.317.12 18.055-7.102 17.772-12.192 31.808-3.86 10.646-.548 28.776-2.918 40.192-5.034 24.254-2.357 52.18-9.004 75.886-6.881 24.549-17.103 50.322-7.886 76.114l-3.671 358.541L642 1004.633z"/><linearGradient id="b" gradientUnits="userSpaceOnUse" x1="1049.936" y1="352.193" x2="1049.936" y2="1011.289"><stop offset="0" stop-color="#3b6a8d"/><stop offset=".114" stop-color="#366387"/><stop offset=".681" stop-color="#1f446d"/><stop offset="1" stop-color="#163963"/></linearGradient><path fill="url(#b)" d="M1279.872 1011.288c.064-22.796-6.688-204.613-6.823-227.409-.078-13.251 4.462-23.968 6.069-35.875 2.04-15.112-.065-28.279-6.165-41.182-7.396-15.646-12.077-35.46-23.154-49.042-8.705-10.673-14.907-16.184-18.668-29.858-3.227-11.73-4.982-24.707-9.755-36.003-9.646-22.834-23.888-39.804-13.667-66.076 3.26-8.378 5.75-6.961 3.07-15.669-1.402-4.557-8.453-8.918-9.204-11.932-1.653-6.643 3.169-8.17 2.681-14.266-.426-5.319-5.03-12.946-6.962-18.07-7.603-20.158-20.088-37.324-29.256-57.006-2.702-5.803-4.476-12.549-8.926-17.479-2.446-2.71-8.329-3.083-11.409-7.191-4.842-6.458-7.248-24.001-7.267-32.037-5.271 4.096-13.615 2.695-20.335 3.369-8.772.88-17.771 3.883-26.629 5.846.185 19.293-18.919 32.638-36.445 32.491-14.523-.122-16.608-1.522-21.002 12.001-3.228 9.932-4.232 16.554-5.847 27.002-1.888 12.224-6.742 14.268-3.893 27.083 2.574 11.573 4.411 18.098 1.475 29.923-2.646 10.653-6.43 18.946-6.737 30.003-.213 7.604 2.631 20.094.145 27.146-2.607 7.4-12.405 10.344-16.037 17.121-2.92 5.449-4.54 18.6-5.265 24.584-2.219 18.337.103 38.646.155 57.16.03 10.971-1.705 15.47-5.333 24.67-3.612 9.159-2.524 16.931-3.514 27.003-1.966 20.022-9.512 37.989-9.001 58.433-7.283-13.012-3.194-24.167-6.012-38.098-2.837-14.03-11.256-23.513-9.3-39.004 2.352-18.618 13.356-61.181-14.324-66.53a547.684 547.684 0 0 1-.976-14.024c-21.424-2.927-16.384-2.477-23.464-21.611-3.201-8.653-14.643-17.256-15.002-25.871-5.534 8.382-8.429 25.271-9.087 35.027-.8 11.871-3.122 22.161-5.836 33.014-3.227 12.908-6.285 22.306-6.165 35.993.088 9.934-.747 23.229-14.559 21.445-4.104 11.104 9.697 22.748-8.862 27.142a156.802 156.802 0 0 0-1.164 4.977c-10.86-2.166-12.328-3.075-14.408 9.455-1.396 8.407.338 17.54 2.252 24.729 4.725 17.729-2.119 32.071-8.932 50.269-6.711 17.931-15.874 32.476-21.07 51.005-5.08 18.11-5.293 147.167-5.266 166.119l459.874 1.223z"/></svg>