<?xml version="1.0" encoding="utf-8"?>
<svg version="1.1" id="Layer_1" x="0px" y="0px" width="1400px" height="1612.471px" viewBox="0 0 1400 1612.471" enable-background="new 0 0 1400 1612.471" xmlns="http://www.w3.org/2000/svg">
  <path fill="#85B9CC" d="M1027.909,992.955c0,0,3.06-71.293,2.166-77.596c-1.36-9.617-3.948-17.438-3.954-27.494&#10;&#9;c-0.003-8.646,0-17.291,0-25.936c0-18.767,2.226-36.584,2.226-55.291c0-33.024,2.077-65.691,2.224-98.501&#10;&#9;c0.139-31.069-4.779-62.623-4.456-93.669c0.188-18.019-4.573-35.898-4.434-53.927c0.096-12.189,1.448-25.302,0.044-37.426&#10;&#9;c-1.762-15.21-4.063-31.097-6.661-46.335c-1.394-8.17-1.144-56.855-10.928-56.656c-0.902,15.561-5.396,31.054-7.046,46.671&#10;&#9;c-1.598,15.14-0.774,30.336-2.604,45.448c-0.663,5.484-2.643,29.071-11.288,23.028c-6.835-4.778-3.692-19.367-12.297-24.517&#10;&#9;c-1.3,15.267-6.208,31.016-8.782,46.397c-1.21,7.225,0.081,14.565-0.452,21.848c-0.77,10.508-3.575,20.861-4.615,31.475&#10;&#9;c-1.113,11.372,1.233,22.957-0.327,34.327c-1.878,13.675-6.184,27.456-9.006,41.02c-5.438,26.142-10.033,52.322-17.631,78.042&#10;&#9;c-19.923,4.16-34.713-72.437-37.478-84.396c-3.408-14.742-5.315-29.538-7.117-44.559c-1.233-10.293-3.818-20.003-3.945-30.417&#10;&#9;c-0.124-10.188-0.141-19.553-2.295-29.633c-5.783,18.812-13.891,38.186-15.4,57.979c-1.389,18.209-10.348,34.401-11.616,52.418&#10;&#9;c-9.265-4.522-4.17-20.455-12.578-23.437c0.393,6.714-3.757,14.726-5.44,21.607c-1.543,6.313-1.984,12.614-3.774,18.746&#10;&#9;c-2.051,7.028-2.085,12.852-2.287,20.059c-0.195,6.96-3.758,11.175-4.944,17.794c-4.81-2.438-12.126-21.919-13.274-27.605&#10;&#9;c-5.936,0.699-4.909,17.171-10.697,21.984c-2.325,1.933-4.598,0.5-7.275,4.101c-2.754,3.699-1.423,9.496-2.109,13.628&#10;&#9;c-3.57,21.473,0.329,46.831-8.964,67.266c-3.907-6.723-3.812-14.926-6.069-22.208c-3.868-12.487-4.258-24.646-6.178-37.437&#10;&#9;c-1.347-8.979-5.174-71.019-13.504-69.183c-5.364,30.543-8.333,62.704-9.337,93.975c-0.461,14.377,6.973,136.209-8.407,133.031&#10;&#9;c-3.089-11.763-3.763-23.595-7.067-35.168c-2.478-8.673-7.878-16.188-8.984-25.024c-0.551-4.391,1.803-10.872-1.694-13.309&#10;&#9;c-0.306,6.098-2.416,28.245-13.505,25.574c0.759-7.301-6.721-15.375-7.002-23.692c-0.149-4.462,0.677-9.243-0.494-13.525&#10;&#9;c-0.665-2.433-3.635-5.72-4.069-8.324c-2.294-13.774-4.201-28.108-6.063-42.114c-1.593-11.993-1.639-35.832-11.181-45.218&#10;&#9;c-0.859,12.38-2.661,24.49-2.661,37.339c0,14.746-0.846,28.962-2.719,43.459c-1.537,11.9-4.93,24.466-6.293,36.255&#10;&#9;c-1.189,10.295,1.701,18.364-4.885,27.836c-8.291-3.123-6.525-16.965-8.408-23.735c-3.354-12.057-4.13-25.07-7.106-37.412&#10;&#9;c-2.758-11.444-7.063-23.12-10.14-34.429c-2.362-8.688-2.316-29.428-11.279-33.962c-0.619,10.601-3.725,21.377-4.893,32.012&#10;&#9;c-1.321,12.032-0.29,24.607-1.853,36.436c-7.102-6.563-7.135-18.809-9.154-27.449c-2.624-11.229,0.079-33.73-8.339-42.284&#10;&#9;c-5.03,4.571-4.818,25.106-13.523,23.011c0.09-6.177-4.159-11.712-4.944-17.698c-0.903-6.885,0.326-11.379-2.667-17.96&#10;&#9;c-6.865-15.096-11.518-27.601-13.283-43.79c-0.546,1.179-2.142,2.989-2.109,5.618c-7.604,0.858-5.694-7.113-6.293-11.821&#10;&#9;c-0.653-5.134-2.403-7.292-4.44-11.768c-2.941-6.458-2.561-27.596-8.474-29.98c-3.708,7.242-3.874,13.945-4.888,21.888&#10;&#9;c-1.029,8.06-4.138,15.349-4.44,23.955c-0.321,9.097-1.073,17.256-2.276,25.943c-1.124,8.116,1.97,16.314-2.172,23.947&#10;&#9;l-10.856,250.769C545.142,992.738,1027.909,992.955,1027.909,992.955z"/>
  <linearGradient id="SVGID_1_" gradientUnits="userSpaceOnUse" x1="486.4927" y1="355.9458" x2="486.4926" y2="1007.1743">
    <stop offset="0" style="stop-color:#85B3C5"/>
    <stop offset="0.5074" style="stop-color:#6DA7BC"/>
    <stop offset="1" style="stop-color:#4B799D"/>
  </linearGradient>
  <path fill="url(#SVGID_1_)" d="M642,1004.633c1.137,0.848,1.364-42.608-4.106-63.985c-5.263-20.56-7.063-41.653-12.684-63.317&#10;&#9;c-13.948-2.284-15.986-18.148-19.21-28.697c-3.432-11.23-11.511-21.896-15.096-32.904c-8.578-26.335-10.588-59.197-13.794-86.776&#10;&#9;c-9.392,8.089,1.054,33.611-7.225,46.378c-3.514-9.713-9.417-19.693-11.899-29.317c0.006,7.708-14.093,10.944-20.271,6.015&#10;&#9;c-6.364-5.077-3.788-16.048-3.715-23.395c0.161-16.166,2.634-35.535-0.904-51.11c-3.304-14.546-15.096-27.212-20.193-40.684&#10;&#9;c-5.177-13.683-2.967-30.35-10.903-42.997c-7.302,11.661-7.127,33.177-8,46.598c-1.346,20.691-0.48,42.254,0.207,62.983&#10;&#9;c-6.59-19.253-27.212-37.033-24.797-58.2c-2.986,0.543-7.83-1.718-10.818-1.181c-1.615-12.923,0.53-26.334-0.605-39.41&#10;&#9;c-1.201-13.844-7.846-23.067-11.972-36.207c-4.632-14.752,0.069-13.999,5.068-27.587c5.286-14.365,1.932-17.705-3.986-29.21&#10;&#9;c-3.647-7.09-8.302-5.382-9.382-15.01c-0.742-6.616,6.159-12.325,4.464-20.192c-2.347-10.895-16.558-14.045-20.371-23.601&#10;&#9;c-2.214-5.547,1.44-14.335,0.285-20.285c-1.013-5.217-4.087-7.265-5.189-11.701c-2.964-11.933-1.974-23.347-3.494-35.616&#10;&#9;c-19.272,2.325-11.285-19.507-26.633-21.352c-0.578-2.165-1.064-4.35-1.459-6.555c-28.586-11.423-19.419,51.862-19.317,67.317&#10;&#9;c0.12,18.055-7.102,17.772-12.192,31.807c-3.861,10.646-0.548,28.777-2.918,40.193c-5.035,24.254-2.358,52.179-9.004,75.886&#10;&#9;c-6.881,24.548-17.103,50.322-7.886,76.114l-3.671,358.541L642,1004.633z"/>
  <linearGradient id="SVGID_2_" gradientUnits="userSpaceOnUse" x1="1049.9375" y1="352.1934" x2="1049.9375" y2="964.9497">
    <stop offset="0" style="stop-color:#85B3C5"/>
    <stop offset="0.5074" style="stop-color:#6DA7BC"/>
    <stop offset="1" style="stop-color:#4B799D"/>
  </linearGradient>
  <path fill="url(#SVGID_2_)" d="M1279.873,959.174c0.065-22.796-6.689-152.499-6.824-175.295&#10;&#9;c-0.078-13.251,4.462-23.968,6.069-35.875c2.04-15.112-0.065-28.279-6.165-41.182c-7.396-15.645-12.077-35.46-23.154-49.042&#10;&#9;c-8.705-10.673-14.907-16.183-18.668-29.858c-3.227-11.731-4.982-24.707-9.755-36.003c-9.645-22.834-23.888-39.804-13.667-66.076&#10;&#9;c3.26-8.378,5.75-6.961,3.07-15.669c-1.402-4.557-8.453-8.918-9.204-11.932c-1.653-6.642,3.169-8.17,2.681-14.265&#10;&#9;c-0.426-5.32-5.03-12.947-6.962-18.071c-7.602-20.158-20.088-37.324-29.256-57.006c-2.702-5.802-4.475-12.548-8.926-17.479&#10;&#9;c-2.446-2.71-8.329-3.083-11.409-7.191c-4.842-6.458-7.248-24.001-7.266-32.037c-5.271,4.096-13.616,2.695-20.335,3.369&#10;&#9;c-8.773,0.88-17.771,3.883-26.629,5.846c0.184,19.293-18.919,32.638-36.446,32.491c-14.523-0.122-16.608-1.522-21.002,12.001&#10;&#9;c-3.227,9.932-4.232,16.554-5.846,27.002c-1.888,12.224-6.742,14.268-3.893,27.083c2.574,11.574,4.411,18.098,1.475,29.923&#10;&#9;c-2.646,10.653-6.43,18.946-6.738,30.003c-0.212,7.604,2.631,20.094,0.145,27.147c-2.608,7.4-12.405,10.343-16.037,17.121&#10;&#9;c-2.92,5.449-4.54,18.599-5.265,24.584c-2.219,18.337,0.103,38.646,0.155,57.16c0.031,10.971-1.705,15.47-5.333,24.67&#10;&#9;c-3.612,9.159-2.524,16.93-3.513,27.003c-1.966,20.022-9.512,37.989-9.001,58.432c-7.283-13.011-3.195-24.167-6.012-38.097&#10;&#9;c-2.837-14.031-11.256-23.513-9.3-39.004c2.352-18.618,13.357-61.181-14.324-66.53c-0.377-4.554-0.717-9.433-0.976-14.025&#10;&#9;c-21.423-2.927-16.383-2.476-23.463-21.611c-3.202-8.653-14.643-17.256-15.002-25.871c-5.535,8.382-8.429,25.27-9.087,35.027&#10;&#9;c-0.8,11.871-3.122,22.161-5.836,33.014c-3.227,12.908-6.285,22.305-6.165,35.993c0.088,9.934-0.747,23.229-14.559,21.445&#10;&#9;c-4.103,11.104,9.697,22.748-8.862,27.142c-0.415,1.652-0.803,3.311-1.164,4.976c-10.861-2.166-12.328-3.075-14.408,9.455&#10;&#9;c-1.396,8.408,0.337,17.54,2.252,24.729c4.724,17.728-2.12,32.071-8.932,50.268c-6.711,17.931-15.874,32.476-21.07,51.005&#10;&#9;c-5.08,18.111-5.292,102.053-5.265,121.005L1279.873,959.174z"/>
  <linearGradient id="SVGID_3_" gradientUnits="userSpaceOnUse" x1="1022.2227" y1="4.9946" x2="1022.2226" y2="1033.0005">
    <stop offset="0" style="stop-color:#5D84A8"/>
    <stop offset="0.3645" style="stop-color:#4B6C97"/>
    <stop offset="0.9951" style="stop-color:#263B75"/>
  </linearGradient>
  <path fill="url(#SVGID_3_)" d="M589.025,1033c-5.544,0-9.34-4.222-14.689-4.917c-1.822-6.013,3.281-15.351,4.01-21.478&#10;&#9;c0.904-7.62,1.092-18.983-1.88-25.833c10.279-11.414,30.862-18.726,44.274-25.929c6.677-3.586,13.938-2.871,20.553-5.847&#10;&#9;c6.334-2.849,7.893-9.349,13.186-13.409c6.218-4.77,8.035-5.527,10.734-12.974c1.597-4.404,3.917-16.885,8.107-17.274&#10;&#9;c4.069,3.671,7.273,11.539,7.273,16.787c7.188,1.108,13.481,13.727,21.093,17.334c2.464,1.168,4.66,0.824,7.019,2.075&#10;&#9;c1.695,0.9,2.518,3.493,4.188,4.467c4.39,2.561,9.078,3.491,14.219,2.337c1.138-9.045-1.288-19.109,0.753-28.021&#10;&#9;c2.174-9.49,8.717-18.447,12.391-27.58c3.59,1.86,5.311,5.309,4.245,9.36c4.416-5.042,10.277-8.836,11.312-15.965&#10;&#9;c3.832,3.588,8.891,13.448,8.422,18.596c3.773,0.513,8.519-0.658,12.082,0.765c4.329,1.729,5.441,6.944,10.882,5.813&#10;&#9;c2.715-19.926,2.471-40.189,2.471-60.778c0-11.244-6.472-58.291,10.307-56.423c0.468,5.637,5.447,12.334,9.11,16.396&#10;&#9;c-0.475-13.596,2.224-26.061,1.993-39.745c12.165-17.024,18.296,23.326,19.832,29.612c2.443,9.992,4.051,12.258,12.884,7.079&#10;&#9;c7.298-4.28,9.045-15.284,16.641-18.146c16.587-6.251,32.585,7.12,49.517-1.412c6.825-3.439,11.327-9.453,19.21-8.829&#10;&#9;c8.645,0.685,16.729,5.839,25.741,6.035c8.55,0.185,17.138-2.958,17.112-12.814c-0.029-10.464-9.09-17.212-16.37-22.948&#10;&#9;c-4.94-3.891-22.432-13.082-21.922-19.785c8.935-1.162,18.018,13.917,25.384,10.955c-1.83-9.159-13.111-12.601-16.984-20.736&#10;&#9;c1.048,0.171,2.9-0.656,4.038-0.521c0.858-7.641-1.96-13.355-1.14-20.853c4.932,0.999,10.152,5.96,11.302,10.989&#10;&#9;c1.486,0.587,2.813,0.663,4.315,0.038c1.193-9.685-0.557-17.427-2.98-25.916c-2.237-7.832-8.908-17.844-9.448-25.884&#10;&#9;c9.54-1.415,18.041,6.769,27.155,4.428c8.797-2.259,7.746-10.216,7.857-17.759c0.264-17.883,7.468-34.539,25.331-40.263&#10;&#9;c6.338-2.031,13.906-3.537,18.774-9.096c7.061-8.062,3.58-10.034,15.235-10.799c1.496-11.91-1.838-23.112-1.87-34.616&#10;&#9;c-0.03-10.365,7.77-16.686,6.383-27.435c8.351,2.737,6.177-21.535,6.916-26.656c9.629-4.544,11.409-1.144,15.125,7.808&#10;&#9;c2.735,6.595,7.828,12.677,10.355,19.512c-0.645-20.047-2.25-39.568-2.25-60.413c0-13.121,2.203-26.18,1.389-39.323&#10;&#9;c-0.401-6.48-3.27-11.94-4.118-17.963c-1.057-7.5,0.961-16.858,1.649-24.497c0.65-7.23-4.155-19.35-0.623-24.58&#10;&#9;c2.295-3.396,13.49-7.208,17.424-8.514c1.428-9.906-0.365-17.458,4.077-26.283c2.241-4.45,6.94-8.721,8.736-13.078&#10;&#9;c1.648-3.995-0.848-7.66,2.104-10.245c3.519,19.223,4.585,38.995,7.24,58.485c10.314-1.565,17.51-13.282,25.385-19.349&#10;&#9;c6.701-5.163,12.979-9.464,19.354-15.371c3.918-3.63,9.076-9.306,14.228-10.803c-3.003-3.681,0.337-10.548,0.787-15.211&#10;&#9;c0.813-8.453,1.619-20.484-0.42-28.612c-1.684-6.703-6.203-8.21-1.276-14.563c3.504-4.518,13.488-6.313,18.386-9.208&#10;&#9;c11.668-6.899,8.05-18.254,14.918-28.849c6.165-9.511,16.362-15.43,15.877-27.595c7.992-1.104,15.626,0.011,23.389-1.968&#10;&#9;c4.938-1.258,12.082-1.236,16.639-3.159c9.293-3.92,8.883-13.486,16.031-1.886c3.504,5.687,7.542,19.126,8.426,26.094&#10;&#9;c8.424-1.939,29.705-11.133,34.592-18.813c4.941-7.766-1.999-19.016-2.888-26.648c-0.574-4.933,1.179-10.519,0.153-15.379&#10;&#9;c-1.172-5.556-7.377-7.311-8.301-11.34c-0.98-4.268,4.152-9.099,5.574-12.712c1.844-4.686,2.658-7.275,3.111-12.798&#10;&#9;c7.875,4.415,24.081,31.578,33.583,27.797c1.97-6.543-4.002-25.708-6.54-32.434c-2.154-5.708-6.817-8.485-6.107-15.216&#10;&#9;c0.493-4.655,5.145-10.515,7.073-14.78c4.925-10.894,5.098-23.128,1.13-34.887c-3.536-10.479-5.007-20.807-3.49-32.876&#10;&#9;c10.474-3.964,28.51,8.313,36.753,14.339c10.055,7.352,17.212,16.94,26.72,25.127c10.66,9.179,21.15,14.196,34.666,17.02&#10;&#9;c10.708,2.237,22.646,6.036,27.646,17.334V1033H589.025z"/>
  <linearGradient id="SVGID_4_" gradientUnits="userSpaceOnUse" x1="304.625" y1="-40.6895" x2="304.6249" y2="1108.9919">
    <stop offset="0" style="stop-color:#5D84A8"/>
    <stop offset="0.3645" style="stop-color:#4B6C97"/>
    <stop offset="0.9951" style="stop-color:#263B75"/>
  </linearGradient>
  <path fill="url(#SVGID_4_)" d="M693.75,1033.917c-3.971,3.247-18.704-36.118-20.895-41.403&#10;&#9;c-6.652-16.055-11.827-32.352-19.338-47.891c-8.237-17.045-16.01-37.281-27.304-51.916c-5.342-6.923-11.802-8.866-18.381-6.909&#10;&#9;c-9.554,2.843-10.159,12.358-16.929,18.899c-4.474-6.549-7.074-15.421-10.922-22.785c-5.659-10.832-8.386-15.289-20.19-16.168&#10;&#9;c-2.807-5.947-1.002-14.342-8.199-16.829c-4.448,7.249-11.435,17.015-19.086,20.752c-6.692-11.086-9.321-27.47-13.547-40.589&#10;&#9;c-4.454-13.823-7.636-27.461-12.623-41.353c-5.189-14.454-9.255-27.814-14.195-41.454c-1.997-5.514-2.626-15.378-10.514-15.355&#10;&#9;c-6.729,0.02-8.998,9.093-12.093,13.009c-4.31-15.615-9.236-31.449-16.824-46.073c-2.979-5.74-15.786-37.329-22.016-26.429&#10;&#9;c-5.818-4.811-8.243-19.587-16.93-15.13c-6.14,3.151-9.918,16.134-14.142,20.563c-8.765-8.077-7.016-32.024-10.974-43.424&#10;&#9;c-2.511-7.23-6.86-16.425-8-24.448c-0.902-6.359,4.129-22.729-5.949-22.164c-0.195-4.847,0.25-9.924-2.529-14.223&#10;&#9;c0.935,10.297-7.436,19.252-8.235,29.077c-4.769-4.469-1.285-14.53-2.637-20.535c-1.77-7.859-3.75-13.33-3.73-22.326&#10;&#9;c0.016-7.056,3.435-40.656-5.956-38.895c0.058,7.127-5.512,25.954-10.398,30.062c-0.236-8.737-6.587-15.583-8.46-23.804&#10;&#9;c-2.152-9.446-0.604-18.867-3.992-28.441c-3.238-9.15-7.431-16.212-8.575-26.037c-0.821-7.052,0.08-14.429-0.787-21.462&#10;&#9;c-6.489-0.781-19.237,4.992-24.495,1.521c-8.862-5.852-1.891-18.817-2.899-25.604c-9.164,7.316-38.559,3.275-41.726-8.883&#10;&#9;c-1.266-4.863,0.127-7.894-2.529-12.745c-1.732-3.165-4.466-1.744-5.882-6.867c-1.768-6.402,3.911-16.975-6.042-17.968&#10;&#9;c5.962-6.896,17.525-8.537,25.543-14.222c10.222-7.248,12.58-18.27,20.629-28.836c11.928-15.661,8.331-41.071,8.331-41.071&#10;&#9;s-17.411,16.815-22.711,27.906c-4.999,10.461-7.483,23.534-16.706,31.214c-3.469,2.888-8.215,4.04-11.614,7.472&#10;&#9;c-4.976,5.021-6.775,12.017-11.681,17.363c-6.722-4.954-0.37-20.583-0.419-27.67c-0.043-6.273,1.063-13.522-0.007-19.655&#10;&#9;c-0.839-4.805-3.403-6.667-4.3-10.748c-2.614-11.899,4.669-55.617-16.084-52.396c25.242,0.229,50.045-2.448,75.191-7.654&#10;&#9;c14.83-3.07,46.179,0.624,46.179,0.624s-25.856-16.899-40.001-16.948c-12.984-0.044-27.1-1.676-39.951-0.051&#10;&#9;c-8.54,1.08-37.119,17.575-41.894,11.423c9.928-0.316,24.164-9.222,32.959-14.095c11.222-6.218,13.707-19.082,16.885-30.442&#10;&#9;c4.265-15.244,23.59-32.753,23.59-32.753s-31.609,3.481-37.265,17.984c-5.601,14.362-14.042,35.341-27.919,41.986&#10;&#9;c-7.27,3.48-9.485,3.805-14.719,10.306c-4.077,5.063-6.104,11.054-12.666,6.103c-5.459-4.12-4.771-14.588-7.743-19.713&#10;&#9;c-5.092-8.777-11.267-8.499-19.592-6.002c-4.966,1.489-14.651,7.668-19.493,2.819c-4.721-4.728-0.56-14.715,1.135-19.717&#10;&#9;c5.245-15.485,2.171-31.85,4.157-48.477c0.963-8.066,2.789-14.054-0.536-21.729c-1.645-3.799-9.612-15.741-14.236-15.029&#10;&#9;c-3.159,12.777-7.574,24.072-10.988,36.758c-3.131,11.631-11.112,26.083-10.29,38.453c-11.273-7.519-1.549-29.289-18.729-29.457&#10;&#9;c0.021,6.901-4.315,8.135-6.249,13.237c-2.091,5.521,0.179,12.977-0.737,18.841c-10.084,3.046-20.609-7.117-30.904-6.537&#10;&#9;c-2.538-20.596,1.522-42.122-0.326-62.866c-0.628-7.047-2.889-25.417-8.83-30.178c-2.987-2.394-10.712,0.464-14.341-0.279&#10;&#9;c-4.169-0.853-7.83-5.234-12.258-4.13c0.182,7.347-4.004,16.124-6.094,23.207c-2.731,9.256-1.965,13.85-11.044,15.731&#10;&#9;c-11.162,2.313-11.162-2.828-14.652-11.001c-1.893-4.435-6.292-8.118-6.465-12.962c-0.177-4.962,4.314-12.566,5.889-17.434&#10;&#9;c2.247-6.94,3.601-12.961,6.241-19.62c5.209-13.14,2.991-27.281,4.727-40.687c-6.164,6.664-9.71,14.719-16.403,21.02&#10;&#9;c-5.946,5.598-6.059,10.25-11.076,16.786c2.98-18.202,7.793-35.584,12.873-53.39c-16.458-7.924-20.78,5.437-29.958,16.634&#10;&#9;C-58.118,51.275-68.5,64.382-84.5,62.023v980.609L693.75,1033.917z"/>
  <linearGradient id="SVGID_9_" gradientUnits="userSpaceOnUse" x1="684.8364" y1="1369.4482" x2="684.8364" y2="134.6201">
    <stop offset="0" style="stop-color:#0F1547"/>
    <stop offset="1" style="stop-color:#263B75"/>
  </linearGradient>
  <path fill="url(#SVGID_9_)" d="M-49,451.121c7.135-5.587,15.52-5.048,20.556-14.462c4.396-8.219,5.334-18.557,7.334-27.283&#10;&#9;c1.808-7.89-0.223-53.641,10.659-49.105c5.966,2.487,8.148,16.858,9.451,21.921c2.373,9.227,3.155,17.628,4.007,27.184&#10;&#9;c1.079,12.101,7.923,17.229,13.705,27.176c2.428,4.177,1.161,21.583,10,17.759c-0.421-11.909,3.754-24.462,4.295-36.636&#10;&#9;c0.566-12.731,4.356-24.346,6.104-36.937c1.354-9.762,3.019-19.642,3.883-29.512c1.126-12.876,5.374-23.85,8.063-36.615&#10;&#9;c1.797-8.524,1.751-17.561,3.943-25.518c2.83-10.273,4.845-18.879,6.445-29.225c2.809-18.165,13.276-36.916,19.109-53.817&#10;&#9;C90,231.733,84.907,238.627,88,261.395c2.285,16.82-0.806,40.212,2.946,56.724c1.695,7.458,5.342,13.65,6.047,21.358&#10;&#9;c0.739,8.086-0.093,16.014-1.993,23.199c-3.024,11.436,1.09,9.438,8.05,17.088c6.595,7.246,0.848,9.19-0.541,17.485&#10;&#9;c-1.602,9.565,6.232,7.346,8.537,15.965c0.921,3.442-0.056,8.12,0.399,11.695c0.549,4.319,2.729,8.849,1.601,13.636&#10;&#9;c-1.747,7.419-9.347,8.766-8.149,17.53c0.953,6.978,7.741,16.402,10.605,23.245c6.667,15.929,3.829,28.416,1.505,44.619&#10;&#9;c-2.346,16.356,1.571,33.718-0.452,50.044c-2.043,16.486-1.653,27.614-3.704,44.315c4.386-7.091,8.425-13.823,9.737-21.866&#10;&#9;c1.074-6.595,12.397-21.789,15.412-27.799c7.981,0.752,14.862,26.496,16,32.129c1.848,9.148-0.519,24.164,2,33.871&#10;&#9;c2.008,7.738,0.005,13.605,5,21c5.061,7.494,8.335,12.92,16.445,16.345c9.15,3.864,17.617,7.025,27.555,7.286&#10;&#9;c10.74,0.282,21.127,3.087,31.943,1.986c12.135-1.235,23.831-4.892,36.05-5.863c10.352-0.823,20.919,0.35,31.299-0.152&#10;&#9;c-7.126,9.036-18.655,15.572-29.292,20.094c-6.524,2.773-13.696,4.593-20.438,6.802c-9.031,2.96-9.622,4.249-15.071,12.083&#10;&#9;c-8.332,11.979-14.629,14.554-26.937,20.826c-7.926,4.039-22.089,16.313-23.303,25.435c8.915,1.378,12.893,12.12,17.253,18.194&#10;&#9;c6.731,9.375,16.282,9.929,26.089,14.96c1.036-6.277-0.503-12.988,0.858-19.224c0.668-3.063,3.599-6.533,3.645-9.701&#10;&#9;c0.071-4.965-2.381-5.459-3.595-9.771c-1.055-3.747-4.279-2.631-0.638-6.347c2.346-2.394,7.106-1.209,10.032-1.365&#10;&#9;c8.49-0.452,17.196,0.781,25.658-0.007c28.912-2.689,89.948-30.32,120.112-26.582c4.365,32.891-45.333,37.977-55.333,63.334&#10;&#9;c-4.833,12.257-36.759,33.143-36.333,46.746c0.227,7.231-4,12.42,10.5,13.42c17.181,1.185,38.645,3.021,55-1&#10;&#9;c10.175-2.501,20.523-2.366,30.493-5.179c7.573-2.138,15.764-1.651,23.466-3.302c31.622-6.777,64.824-8.892,96.089-17.479&#10;&#9;c16.317-4.481,32.453-7.139,48.11-9.511c-0.111,9.355,3.247,13.316-2.16,22.619c-4.312,7.418-12.117,12.844-17.053,19.849&#10;&#9;c-5.103,7.24-7.914,15.434-12.008,23.299c-4.89,9.397-9.616,16.599-18.438,25.242c-16.982,16.638-40.912,20.358-64.097,24.757&#10;&#9;c-10.037,1.905-19.858,2.772-29.8,4.268c-6.567,0.987-25.85,1.443-29.801,7.722c-4.272,6.786,22.214,34.828,28.246,38.584&#10;&#9;c5.251,3.271,13.292,2.792,19.348,4.277c9.362,2.297,16.756,2.132,26.057,0c10.436-2.392,21.338-3.909,31.95-6.257&#10;&#9;c11.088-2.453,27.235-3.716,34.146-13.111c1.49-2.025,1.312-7.676,4.349-9.47c2.514-1.485,8.673-0.295,11.602-0.287&#10;&#9;c10.587,0.029,21.561,0.831,32.104,0c19.772-1.56,36.701-5.432,39.451,19.511c1.589,14.406,9.358,18.585,24.445,21.789&#10;&#9;c5.883,1.25,13.923,3.425,18.595-0.38c2.686-2.188,1.512-7.785,5.804-9.46c7.006-2.733,16.04,8.688,25.705,7.474&#10;&#9;c8.358-1.052,14.639-0.071,23.896-0.101c12.248-0.039,15.77-2.559,26-8.299c6.537-3.668,16.674-6.453,18.349-14.662&#10;&#9;c16.769-2.281,32.89,3.35,49.349,1.31c0.859-6.533,0.116-12.774,1.754-19.123c2.025-7.851,2.497-9.821,0-16.942&#10;&#9;c-1.795-5.122-5.74-11.83-1.601-16.643c4.281-4.978,14.458-2.579,20.143-3.313c5.729-0.739,10.429-3.474,15.96-3.921&#10;&#9;c7.072-0.572,12.829,2.623,20.047,1.979c14.525-1.295,19.584-13.237,24.349-24.896c11.087-1.594,22.703-0.679,33.651-2.326&#10;&#9;c5.474-0.822,11.093-0.65,16.445-1.789c5.215-1.109,10.119-4.396,15.26-4.277c1.901-9.959-2.591-11.167-9.705-15.678&#10;&#9;c-6.025-3.821-8.383-7.846-12.502-13.104c-9.34-11.923-21.924-20.439-32.804-31.222c11.273-0.767,21.831-5.807,33.306-5.725&#10;&#9;c8.723,0.063,33.085,6.707,39.246-0.055c-6.739-0.112-7.395-11.97-8.459-17.088c0.917-0.314,1.859-0.535,2.825-0.663&#10;&#9;c2.536-6.092-2.66-8.98-5.167-13.692c-2.807-5.274-3.263-11.715-5.947-17.088c-4.178-8.363-13.209-16.099-16.299-24.702&#10;&#9;c9.986-8.069,38.325-1.757,49.801-0.449c15.786,1.8,33.487,3.613,49.69,1.604c2.393-6.631-5.335-12.673-3.388-18.975&#10;&#9;c4.224,0.569,4.201,4.515,7.594,5.815c2.31,0.885,7.399-0.178,9.801-0.432c1.139-8.658,0.368-18.085,0.303-26.89&#10;&#9;c-0.069-9.287,2.441-18.214,3.555-27.183c1.216-9.795,2.212-19.585,4.393-29.08c2.561-11.154,7.623-21.501,8.395-32.797&#10;&#9;c1.105-0.71,2.211-0.71,3.316,0c-0.465,4.403,1.907,7.369,2.389,11.349c0.604,5.012-0.047,10.521-0.047,15.578&#10;&#9;c0,10.811-2.036,20.449-2,31.066c0.036,10.745,1.776,19.325,3.993,29.132c2.056,9.096,2.467,15.964,10.444,23.044&#10;&#9;c9.541-0.874,0.959-24.589,11.569-27.121c3.855-0.92,6.622,5.361,12.542,2.706c4.666-2.094,7.93-8.588,9.387-12.234&#10;&#9;c4.147-10.375,1.843-22.521,0.51-33.001c-1.535-12.057,2.33-23.362,1.953-34.75c4.018,1.544,8.602,14.39,9.95,18.885&#10;&#9;c11.34-0.761,12.333,19.755,21.096,13.574c3.917-2.763,7.126-12.649,8.659-17.126c1.963-5.733,3.235-11.381,6.342-17.313&#10;&#9;c6.188,1.855,10.973,11.089,19.148,1.873c4.757-5.36,5.354-16.703,4.51-23.393c-1.139-9.026-1.261-11.651,1.451-19.849&#10;&#9;c2.481-7.5,4.225-16.756,4.445-24.802c0.283-10.31-5.948-14.089-8.097-23.307c-1.964-8.429,0.216-19.643,2.153-27.608&#10;&#9;c2.061-8.471,4.936-19.085,12.499-24.809c4.671-3.536,1.298-4.363,7.341-1.562c4.474,2.074,5.859,7.409,11.801,5.138&#10;&#9;c1.536-12.474-2.222-26.046-3.801-38.533c-0.875-6.92,1.32-12.937,2.15-19.417c0.877-6.852-0.047-14.438-0.047-21.358&#10;&#9;c0-13.568-0.441-27.214,0-40.774c0.41-12.598,0.322-27.923,2.406-40.62c7.851,6.01,12.311,17.626,15.587,27.128&#10;&#9;c3.36,9.748,7.074,20.58,10.007,31.066c2.77,9.902,3.504,20.705,5.89,30.966c2.616,11.25,6.139,21.097,6.11,32.963&#10;&#9;c-0.062,25.626-4,50.16-4,75.769c0,13.91,0.403,27.32,1.896,40.875c0.678,6.156,5.322,22.443,10.605,26.79&#10;&#9;c2.414-1.92,4.327-1.063,7.21-1.355c-0.524,4.291,1.474,7.698,5.939,7.224c1.155-7.26,1.257-13.152,3.857-19.645&#10;&#9;c2.79-6.966,7.028-14.202,8.046-21.313c2.567-17.925-7.581-32.547-7.555-50.05c0.005-3.368-1.061-8.561-0.097-11.744&#10;&#9;c0.923-3.046,5.3-4.249,5.744-7.673c0.944-7.262-12.564-11.068-7.79-21.396c2.453-5.307,6.612-2.313,10.285-6.181&#10;&#9;c2.909-3.064,1.882-7.229,1.857-11.256c-0.053-8.724-1.666-14.99-4.491-22.823c-0.61-1.69-4.421-8.553-3.31-10.323&#10;&#9;c2.055-3.271,6.442-1.941,9.292-5.749c4.792-6.403,2.025-15.576,6.014-23.23c7.649-14.684,6.715-30.904,8.542-46.562&#10;&#9;c1.82-15.606,6.437-32.49,4.057-48.686c-2.094-14.244-16.693-25.271,0.445-36.304c13.993-9.008,7.532-20.078,9.8-35.099&#10;&#9;c7.057-1.324,12.95-10.944,17.604-15.878c8.529-9.04,16.766-17.206,24.104-27.176c5.588-7.591,9.734-13.285,17.84-17.962&#10;&#9;c5.836-3.368,20.66-13.349,26.104-9.221l-2.951,1221.679c5.409,2.639,8.813,5.739,8.616,11.144&#10;&#9;c-23.851,3.353-47.494-2.633-71.612-2.405c-16.425,0.154-15.843-3.218-20.275-17.477c-2.993-9.626-7.693-17.881-13.502-25.774&#10;&#9;c-6.787,4.94-36.786,5.329-44.386,0.348c-10.058-6.593-7.794-24.591-9.31-35.301c-7.746-1.646-13.558,1.077-19.957,2.1&#10;&#9;c-0.806-9.232-9.486-14.295-11.995-22.93c-3.854-13.267,5.43-11.574,7.87-20.238c2.494-8.86-18.958-26.109-29.027-26.863&#10;&#9;c1.773-14.93-14.225-10.321-23.922-11.594c-1.797-11.818-15.982-21.079-12.38-33.482c-2.456,3.131-5.573,8.986-9.076,10.828&#10;&#9;c-7.796,4.099-7.164,0.447-15.071-0.357c-7.455-0.76-20.558-1.521-26.249,2.633c-4.853-5.323-11.31-17.578-18.231-16.674&#10;&#9;c-0.67,10.626-0.818,34.602-15.002,34.197c0.866-8.317-6.94-33.728-13.047-39.737c-7.282-7.166-17.92-1.42-26.47-3.431&#10;&#9;c-7.145-1.681-13.804-6.674-20.704-9.459c0.281-9.949,13.443-7.831,14.907-16.823c1.672-10.271-9.446-9.725-15.227-11.563&#10;&#9;c-5.87-1.868-19.247-4.959-23.383-9.49c-5.442-5.963-4.491-15.434-9.694-21.612c-3.267,6.753-6.614,19.667-6.359,27.589&#10;&#9;c-23.597,8.175-20.023-41.948-23.628-54.021c6.804,26.347-32.394,6.938-42.016,7.801c-8.745,0.784-15.369,9.73-23.767,12.496&#10;&#9;c-9.75,3.211-21.795-2.031-21.227-14.471c0.782,10.615-5.126,26.33-11.189,34.71c-6.46,8.928-3.52,7.709-12.589,4.446&#10;&#9;c-8.847-3.184-12.047-8.506-15.899-16.436c-6.865,3.509-5.592,10.063-14.328,5.79c-6.381-3.12-7.695-13.853-8.856-19.622&#10;&#9;c-14.555,14.902-15.495,38.063-24.755,54.15c-15.548,27.012-30.159-12.83-35.412-25.106c-7.961,21.455-2.047,52.929-20.836,69.384&#10;&#9;c-3.633-3.799-5.602-9.604-11.568-8.791c0.316,21.422-11.908,42.522-18.601,62.827c-5.634-20.77-8.985-40.744-8.915-63.2&#10;&#9;c0.061-19.26-6.647-35.77-11.915-54.311c-6.591,9.096-7.901,55.822-20.575,53.928c0.073-13.226-9.574-25.401-12.68-38.121&#10;&#9;c-2.554-10.456-4.264-20.843-9.348-30.885c-13.173-5.211-9.15,9.64-13.607,14.741c-7.578,8.673-17.935,0.14-27.287-4.329&#10;&#9;c-15.224-7.272-33.322-4.997-51.603-5.104c-13.659-0.08-20.807,3.68-33.072,9.536c-11.269,5.38-13.487,3.233-23.778,1.964&#10;&#9;c-11.502-1.419-16.025,1.9-24.745-5.535c-5.401-4.605-11.538-19.896-19.971-17.233c-1.249,9.028,0.246,26.532-8.691,31.425&#10;&#9;c-8.968-10.534-5.314-30.286-12.018-42.521c-0.644,1.404-1.063,2.871-1.261,4.4c-6.899,1.473-11.316-6.608-17.622-5.618&#10;&#9;c-4.574,0.718-6.221,6.598-9.454,8.936c-13.82,9.992-13.264,0.928-25.883,0.456c-1.942,13.026,0.743,26.893-0.976,39.965&#10;&#9;c-11.855-1.189-21.008,8.584-32.774,10.993c-8.606-6.935,2.456-22.284-9.589-29.911c-5.959,9.491,1.642,23.514-5.866,33.265&#10;&#9;c-8.947,11.62-19.523,3.493-23.992-7.858c-2.491,2.044-5.988,3.141-7.58,7.371c-0.799-0.902-1.799-1.325-3.001-1.27&#10;&#9;c-6.14,4.621-8.172,26.885-9.086,34.455c-1.532,12.674-0.757,32.609-12.081,40.546c-0.081-10.032-6.245-17.169-9.589-25.831&#10;&#9;c-4-10.363-2.925-20.887-6.747-31.533c-5.965-16.607-14.565-37.458-23.342-51.989c-0.943,6.202-4.161,13.089-5.75,19.302&#10;&#9;c-2.263,8.854-4.223,17.344-6.245,26.204c-1.201,5.261,0.867,9.351-3.684,13.973c-2.317,2.354-7.169,2.241-8.313,3.363&#10;&#9;c-4.424,4.341-6.075,16.972-14.494,14.321c0.26-6.957-4.031-12.767-4.021-19.706c-13.474,5.025-13.177,34.751-14.403,46.304&#10;&#9;c-1.352,12.725,1.208,39.207-11.414,46.372c0.866-9.528-3.601-24.817-7.267-34.073c-3.131-7.906-9.11-28.735-16.735-32.455&#10;&#9;c-1.515,9.387,2.619,23.51-4.122,31.149c-3.742,4.241-10.449,2.298-13.869,7.075c-1.971,2.753-0.896,10.223-1.121,13.475&#10;&#9;c-1.658,0.332-3.317,0.664-4.976,0.995c-2.576,10.548,4.445,17.535,2.034,28.122c-10.109,2.272-18.896,2.521-29.096,3.861&#10;&#9;c-0.602,13.22-4.459,25.067-6.443,37.436c-1.473,9.172,0.619,12.431-5.275,20.597c-2.86,3.964-8.498,5.868-12.06,10.413&#10;&#9;c-7.725-7.496-10.826-21.105-16.422-30.73c-3.944,2.438-4.495,9.392-8.023,10.921c-5.208,2.257-10.269-1.493-14.714-2.099&#10;&#9;c-1.103,7.07,2.354,17.346-4.131,22.338c-3.987,3.069-18.303,0.59-23.395,0.591c-16.211,0.005-37.735-3.365-36.004,17.477&#10;&#9;L-49,451.121z"/>
  <g>
    <path fill="#141D4F" d="M78,204.633c9.538,5.817,3.913,40.675,4,52.046c0.114,14.773-7.28,27.079-8.007,41.968&#10;&#9;&#9;C72.575,327.676,70,355.661,70,384.996c0,27.744-0.188,55.496-0.007,83.238c0.154,23.609-10.701,45.29-14.043,68.413&#10;&#9;&#9;c-3.164,21.886-3.511,45.779-3.904,67.851c-0.265,14.889-3.726,29.824-6.602,44.381c-3.338,16.894-3.505,34.74-5.883,51.673&#10;&#9;&#9;c-3.286-2.638-2.289-14.796-3.021-19.776c-1.866-12.697-4.539-25.034-4.588-37.897C31.885,624.898,30,607.178,30,589.135&#10;&#9;&#9;c0-19.614,0.79-38.959,2-58.605c1.095-17.778,2.5-32.351-2-49.897c-2.07-8.075-0.931-15.71-1.954-24.046&#10;&#9;&#9;c-0.467-3.802-2.349-0.729-2.136-4.914c0.309-6.052,1.796-17.374,2.637-23.542c1.708-12.524,5.528-25.215,5.452-37.975&#10;&#9;&#9;c-0.034-5.706,0.854-12.765,1.896-18.278c0.869-4.593,3.583-8.431,4.15-13.245c0.908-7.725-0.03-16.207-0.046-24&#10;&#9;&#9;c-0.021-10.065,2.548-18.571,3.555-27.954c3.304-30.8,10.808-67.237,27.843-92.498"/>
    <path fill="#141D4F" d="M138,568.633c12.364,8.481,4.06,77.978,4,96c-0.114,34.719,12.044,60.789,3.11,95.588&#10;&#9;&#9;c-9.854-3.847-5.623-10.917-7.125-19.588c-1.886-10.887-3.976-14.315-9.083-23.779c-7.458-13.822-16.104-28.399-19.886-43.238&#10;&#9;&#9;c-10.204-40.037,9.097-65.575,24.982-100.982"/>
    <path fill="#141D4F" d="M897.694,815.08c14.855,2.781,96.886,24.566,112.213,25.554c24.461,1.577,22.924,0.876,41.218,16.207&#10;&#9;&#9;c10.229,8.572,30.148,12.421,36.569,23.894c-38.81,1.697-133.656,5.13-134.989-5.649c-1.995-16.13-11.996-11.51-20.704-24.924&#10;&#9;&#9;C922.288,835.197,908.498,830.027,897.694,815.08"/>
    <path fill="#141D4F" d="M1390,200.633c-7.608,15.282-10.84,38.056-18,52.5c-7.044,14.21-4.851,30.514-11.5,44.5&#10;&#9;&#9;c-14.516,30.53-6.438,51.469-6.5,83.89c-0.042,21.938,3.426,46.752-0.797,68.192c-4.124,20.937-11.272,37.087-11.203,58.825&#10;&#9;&#9;l24.128,48.954c4.738-22.613,12.664-44.014,11.872-67.972c-0.969-29.298,3.591-118.018,7.203-133.987&#10;&#9;&#9;c2.96-13.092,2.256-29.854,3.907-42.903c1.989-15.718-2.622-28.52-3.11-44c-0.504-15.963,4-49.527,4-65.5"/>
    <path fill="#141D4F" d="M1223.406,312.448c-0.018,14.662,9.996,22.864,13.927,36.852c8.071,28.721,8.667,49.854,8.667,79.633&#10;&#9;&#9;c0,43.313,4.951,89.692,0.207,132.69c-2.045,18.525-7.756,35.148-8.207,54.028c-0.536,22.416,0,44.924,0,67.345&#10;&#9;&#9;c0,51.035-8.167,56.003,2.5,110.138c6.706-44.467,25.479-78.357,25.5-140.5c0.013-36,0-72,0-108c0-36.838-4.381-71.8-4-108&#10;&#9;&#9;c0.104-9.942-1.867-15.437-4-24c-2.34-9.394-2.434-17.804-3.907-28.092C1252.223,371.488,1244.706,329.967,1223.406,312.448"/>
    <path fill="#141D4F" d="M1070.658,607.679c-0.19,0.763,9.777,43.917,11.008,51.954c2.635,17.213-1.778,29.079,4.667,45.667&#10;&#9;&#9;c5.857,15.074,8.28,12.874,12.667,28c3.69,12.727-2.019,52.234-3.334,65.333c-2.666-11.333-7.985-51.391-9.68-61.986&#10;&#9;&#9;c-1.888-11.798-9.278-19.047-13.653-30.681c-5.484-14.588-2.531-24.001-3-40.667&#10;&#9;&#9;C1068.959,651.99,1070.658,620.994,1070.658,607.679"/>
    <path fill="#141D4F" d="M1187,780.633c0,51.929-10.08,114.567,8.982,162.777c8.464-12.361,4.745-40.313,7.907-55.859&#10;&#9;&#9;c2.668-13.117,11.917-25.823,11.779-38.612c17.659,1.973,7.664,49.636,22.556,51.375c2.425-10.038,4.123-21.547,8.89-30.678&#10;&#9;&#9;c-0.414,14.255,4.873,33.248,8.882,47.09c5.126,17.696,5.856,32.799,7.894,51.018c1.821,16.279,4.147,32.735,8.093,48.89&#10;&#9;&#9;c3.201,13.109,1.789,26.039,3.701,39.475c2.188,1.462,4.368,1.462,6.541,0c12.433-50.752,10.024-101.719,29.665-150.08&#10;&#9;&#9;c3.209,5.988,7.52,11.356,14.32,10.094c7.376-28.749,8.805-54.172,12.583-83.488c1.896-14.711,4.308-28.107,4.207-43.793&#10;&#9;&#9;c-0.115-17.927,5.713-33.954,3.203-51.873c-8.512,3.958-16.602,48.127-18.313,59.46c-2.981,19.748-0.127,46.521-13.894,62.997&#10;&#9;&#9;c-7.628-9.079-6.005-22.573-16.093-29.788c-8.92,23.256-9.182,54.311-11.886,79.091c-13.076-20.033-4.075-69.081-27.907-82.912&#10;&#9;&#9;c-7.228,8.109-8.949,21.281-18.028,26.407c-5.209-8.208-12.826-14.843-17.068-23.381c-4.067-8.187-2.806-15.57-11.217-19.794&#10;&#9;&#9;c-1.789,10.555,1.222,20.906-5.004,30.585c0.388-18.327-1.883-41.265-15.793-54.998"/>
    <path fill="#141D4F" d="M937,736.133c0.76-1.249,3.803,0.564,4.975,1.012c1.94,0.744,4.344,0.528,6.414,0.988&#10;&#9;&#9;c4.449,0.988,8.982,3.887,13.109,6.014c5.48,2.824,10.234,7.117,14.465,11.486c4.569,4.72,11.472,9.558,18.025,10.389&#10;&#9;&#9;c2.862,0.363,5.844,0.418,8.637,1.127c3.523,0.895,4.395,2.411,6.85,4.995c2.05,2.158,4.988,3.418,7.504,4.868&#10;&#9;&#9;c2.027,1.168,4.261,2.189,6.285,3.497c2.683,1.731,5.436,2.639,8.187,4.125c6.774,3.661,9.37,12.659,16.498,16.011&#10;&#9;&#9;c5.34,2.512,11.522,3.236,16.31,6.865c-3.582,2.424-9.368,0.931-13.232,0.233c-2.124-0.384-4.283-0.318-6.401-0.709&#10;&#9;&#9;c-3.266-0.603-6.505-2.327-9.676-3.302c-2.446-0.753-4.595-1.497-6.887-2.588c-3.353-1.596-6.515-3.981-10.085-5.033&#10;&#9;&#9;c-3.562-1.05-7.364-2.01-10.977-0.977c-3.026,0.865-6.012,1.032-8.889,2.125c-0.945,0.359-3.595,0.889-3.044,2.276&#10;&#9;&#9;c0.612,1.54,6.02,1.066,7.333,1.211c3.378,0.371,6.361,1.854,9.464,3.266c2.369,1.078,4.796,2.137,7.258,2.997&#10;&#9;&#9;c1.908,0.667,4.416,2.069,6.375,2.235c-1.676,1.487-5.975,1.251-8.12,1.402c-3.747,0.263-7.293,0.548-11.002,1.017&#10;&#9;&#9;c-3.014,0.381-6.161,0.667-9.225,0.361c-3.127-0.312-6.609-0.167-9.662-0.861c-4.715-1.071-8.557-2.991-13.488-3.028&#10;&#9;&#9;c-1.847-0.014-3.498,0.861-5.111,0.889c-2.626,0.044-3.115-1.05-4.525-3.277c-2.133-3.37-2.958-6.906-3.878-10.623&#10;&#9;&#9;c-0.181-0.732-0.732-1.678-0.505-2.5c0.418-1.512,1.129-0.748,2.516-0.99c1.856-0.325,3.119-2.285,1.904-4.399&#10;&#9;&#9;c-0.412-0.716-1.4-0.734-1.802-1.198c-0.435-0.503-0.552-1.471-0.962-2.039c-0.974-1.348-2.25-2.51-3.248-3.863&#10;&#9;&#9;c-0.987-1.338-2.258-2.412-2.903-3.974c-0.769-1.863-1.061-4.147-1.485-6.027c-0.768-3.397-0.81-6.319-2.391-9.499&#10;&#9;&#9;c-0.76-1.528-1.521-3.219-2.609-4.499c-0.854-1.004-2.105-1.951-2.876-3.101c-1.632-2.433-3.271-4.608-4.999-6.915&#10;&#9;&#9;c-1.682-2.247-2.676-6.256-4.625-7.986"/>
    <path fill="#141D4F" d="M560.658,807.662c-3.056,4.632-5.526,8.529-9.411,13.242c-4.423,5.367-9.471,11.404-14.81,15.781&#10;&#9;&#9;c-15.671,12.846-35.545,17.269-54.184,23.697c-8.692,2.998-16.027,4.251-25.231,4.251c-8.307,0-15.248,0.723-22.8,3.806&#10;&#9;&#9;c-3.886,1.586-8.226,3.951-12.198,5.242c-5.574,1.812-11.209,1.918-16.774,4.197c-4.906,2.009-9.943,3.061-14.922,4.953&#10;&#9;&#9;c-3.3,1.255-9.994,3.604-12.246,5.599c6.337,0.466,14.645-1.275,21.185-2.017c6.584-0.746,13.017-1.231,19.68-1.758&#10;&#9;&#9;c5.307-0.419,10.893-1.16,16.052-1.801c4.814-0.597,10.044-1.711,14.869-1.048c0.754,2.749-8.634,7.132-10.92,8.63&#10;&#9;&#9;c-3.905,2.559-8.54,3.114-13,4.444c-4.169,1.245-7.917,3.222-11.872,4.974c-6.685,2.963-13.843,3.912-20.548,6.777&#10;&#9;&#9;c-12.797,5.469-25.93,9.524-38.97,14.248c-3.864,1.4-9.127,0.933-12.555,2.704c-3.63,1.877-7.068,5.951-11.521,6.87&#10;&#9;&#9;c6.149-2.889,17.739-3.488,24.538-2.873c6.367,0.576,12.425,3.338,18.754,4.104c8.817,1.064,17.69-1.162,26.226-1.053&#10;&#9;&#9;c8.222,0.106,17.761-0.062,25.667-2c8.686-2.129,16.597-4.911,25.216-5.955c8.518-1.03,17.509-3.196,25.784-4.045&#10;&#9;&#9;c7.387-0.756,15.825-4.067,22.336-7.199c8.251-3.968,17.123-11.972,21.664-19.467c4.308-7.112,6.627-15.048,10.562-22.148&#10;&#9;&#9;c3.46-6.244,8.707-11.241,12.574-17.212c3.249-5.016,7.123-9.338,10.95-14.221C568.667,820.634,559.838,814.698,560.658,807.662"/>
    <path fill="#141D4F" d="M388.667,720.633c0.215,2.231-4.359,4.545-5.968,6.02c-2.758,2.527-7.214,5.857-10.662,7.312&#10;&#9;&#9;c-10.349,4.366-21.106,7.832-32.037,10.854c-8.161,2.256-16.885,5.938-24.518,9.686c-10.249,5.03-22.25,7.106-32.497,12.164&#10;&#9;&#9;c8.238-0.229,16.423-0.94,24.531-2.185c3.346-0.514,6.533-2.014,9.82-2.531c2.987-0.471,6.484-0.265,9.065-1.267&#10;&#9;&#9;c-7.847,5.833-18.167,7.693-26.733,11.981c2.175-0.065,4.905-0.431,7.014,0.101c1.755,0.442,3.591,1.707,5.284,1.902&#10;&#9;&#9;c4.137,0.478,8.517-0.599,12.613,0.082c0.002,2.434-2.701,4.611-4.563,6.05c-4.396,3.396-9.836,5.95-14.714,8.501&#10;&#9;&#9;c-8.924,4.666-17.429,10.107-25.981,15.349c-0.949,0.582-3.889,1.827-4.521,2.818c-1.063,1.668,0.039,1.43-0.25,3.151&#10;&#9;&#9;c-0.253,1.506-1.521,3.15-1.898,4.682c-0.359,1.46-0.322,2.535-0.817,3.984c-1.546,4.524-5.171,7.771-8.813,10.846&#10;&#9;&#9;c-3.03,2.559-8.738,5.943-10.153,9.718c3.872,1.164,9.741-3.73,12.956-5.228c3.81-1.775,7.804-3.471,11.509-5.303&#10;&#9;&#9;c2.668-1.319,5.125-3.042,7.984-3.366c2.545-0.289,5.865,0.543,8.05-0.617c3.141-1.667,5.505-2.762,8.133-5.201&#10;&#9;&#9;c4.323-4.012,9.91-7.882,13.5-12.471c3.187-4.074,7.277-6.984,10.75-10.779c3.396-3.71,7.222-6.886,9.75-11.5&#10;&#9;&#9;c2.739-4.999,4.905-10.35,9.75-13.75c3.256-2.285,5.441-3.989,8.75-6.25c3.156-2.157,7.786-3.693,10.75-6.25&#10;&#9;&#9;c3.338-2.88,7.928-5.18,11-8.25c2.907-2.904,5.146-8.897,8.435-11.308C387.863,736.879,391.5,726.633,388.667,720.633"/>
    <path fill="#141D4F" d="M14,640.633c0,0-3.999-4.591-3.999-5.333c0,17.179,5.196,39.371,6.942,56.569&#10;&#9;&#9;c0.928,9.13,1.946,18.048,3.054,27.11c0.318,2.607,1.037,10.054,3.345,11.773c3.771,2.811,8.687-2.668,11.392-4.113&#10;&#9;&#9;c1.203,6.787-1.189,13.794-1.193,20.839c-0.004,6.811-0.915,14.272-0.077,20.999c1.607,12.907,6.419,25.672,10.25,37.832&#10;&#9;&#9;c4.173,13.248,4.871,29.205,4.828,43.165c-0.02,6.354,0.761,11.742,1.465,18.033c0.749,6.688,5.313,11.587,7.799,17.885&#10;&#9;&#9;c5.189-1.176,8.354-8.059,11.7-11.919c3.707-4.276,8.786-8.913,13.229-11.997c1.847,2.715,1.853,6.199,3.228,9.032&#10;&#9;&#9;c1.579,3.254,3.801,5.167,4.944,8.965c1.764,5.856,2.146,12.267,4.466,17.999c2.541,6.283,6.166,11.957,9.077,18.076&#10;&#9;&#9;c2.547,5.354,2.885,10.758,3.755,16.422c2.427,15.796,4.276,30.209,11.161,44.921c2.484,5.309,3.655,11.597,8.637,13.523&#10;&#9;&#9;c7.567,2.927,9.215-4.411,14.772-8.453c2.027,3.784,1.3,7.402,2.061,11.434c1.256,6.649,4.55,14.447,6.826,20.815&#10;&#9;&#9;c3.32,9.285,5.813,17.584,8.208,27.1c5.104-2.285,10.477-12.975,13.165-17.814c5.95-10.71,10.167-23.983,13.946-35.641&#10;&#9;&#9;c5.406-16.682,7.471-34.291,16.088-49.578c7.764,23.793-3.752,52.248-3.029,76.488c0.659,22.144,9.667,44.629,5.655,67.078&#10;&#9;&#9;c-5.407-5.521-4.655-20.572-5.626-28.384c-1.121-9.016-5.335-16.318-6.369-25.451c-2.224,2.47-2.68,11.548-3.792,15.36&#10;&#9;&#9;c-1.339,4.586-3.05,8.738-5.249,13.131c-2.692,5.375-9.086,20.936-15.79,20.884c-1.694-4.062-2.243-12.579-6.034-14.8&#10;&#9;&#9;c0.928,11.615-16.2,26.703-22.832,35.956c-7.156,9.984-12.944,22.883-22.222,30.64c-2.891-18.844-0.28-40.084-0.28-59.215&#10;&#9;&#9;c0-8,0-16,0-24c0-6.245,2.545-18.531-0.286-24.027c-2.21-4.293-4.419-2.533-8.685-2.977c-5.701-0.591-5.939-2.011-7.913-7.494&#10;&#9;&#9;c-3.266-9.072-7.765-17.49-10.075-27.033c-2.254-9.309-3.753-18.696-5.709-28.25c-1.646-8.044-3.723-18.756-3.633-26.759&#10;&#9;&#9;c-4.578,8.642-9.535,17.511-18.897,7.046c-5.905-6.6-10.102-14.631-14.167-22.462c-2.744,3.242-1.65,11.993-2.928,16.452&#10;&#9;&#9;c-1.455,5.083-3.059,9.777-4.209,15.01c-1.369,6.227-3.076,12.551-4.452,18.866c-0.416,1.913-0.781,4.986-1.428,6.71&#10;&#9;&#9;c-0.893,2.381-3.479,2.574-3.333,5.877c-9.605-2.229-9.302-28.086-10.32-35.988c-1.369-10.614-2.923-20.596-2.923-31.506&#10;&#9;&#9;c0-8.711,1.161-18.318,0.077-26.956c-1.198-9.552-3.077-18.492-3.077-28.499c0-17.911-3.756-36.119-1.534-53.998&#10;&#9;&#9;c1.976-15.901,3.318-34.576,1.313-50.854c-0.914,0.612-3.031,0.619-3.979,1.212c-5.412-13.651-4.799-26.556-4.799-41.854&#10;&#9;&#9;c0-7.262-0.836-14.418-1.577-20.922c-0.923-8.088,4.936-44.243,5.035-52.259"/>
  </g>
</svg>