<svg xmlns="http://www.w3.org/2000/svg" width="1400" height="1612.471" viewBox="0 0 1400 1612.471"><linearGradient id="a" gradientUnits="userSpaceOnUse" x1="774.91" y1="420.123" x2="774.91" y2="992.957"><stop offset="0" stop-color="#337395"/><stop offset=".311" stop-color="#316f92"/><stop offset=".609" stop-color="#2d6488"/><stop offset=".899" stop-color="#255177"/><stop offset="1" stop-color="#224870"/></linearGradient><path fill="url(#a)" d="M1027.909 992.955s3.06-71.293 2.166-77.596c-1.36-9.617-3.948-17.438-3.954-27.494-.003-8.646 0-17.291 0-25.937 0-18.767 2.226-36.584 2.226-55.291 0-33.023 2.077-65.69 2.225-98.501.139-31.068-4.779-62.623-4.456-93.669.188-18.019-4.573-35.897-4.435-53.927.097-12.189 1.448-25.302.044-37.426-1.762-15.21-4.063-31.098-6.66-46.335-1.395-8.17-1.145-56.855-10.929-56.656-.901 15.561-5.396 31.054-7.046 46.671-1.598 15.14-.773 30.336-2.604 45.448-.663 5.483-2.644 29.071-11.288 23.028-6.835-4.778-3.692-19.367-12.297-24.518-1.301 15.268-6.208 31.016-8.782 46.397-1.21 7.225.081 14.564-.452 21.848-.771 10.508-3.575 20.861-4.615 31.475-1.112 11.372 1.233 22.957-.327 34.327-1.878 13.675-6.184 27.456-9.006 41.021-5.438 26.142-10.033 52.321-17.631 78.042-19.923 4.16-34.713-72.438-37.478-84.396-3.408-14.742-5.315-29.538-7.117-44.559-1.233-10.293-3.818-20.003-3.945-30.417-.124-10.188-.141-19.553-2.295-29.633-5.783 18.812-13.891 38.186-15.4 57.979-1.389 18.209-10.348 34.401-11.615 52.418-9.266-4.521-4.171-20.455-12.578-23.437.393 6.714-3.757 14.726-5.44 21.606-1.543 6.313-1.984 12.614-3.773 18.746-2.052 7.028-2.086 12.853-2.287 20.06-.195 6.96-3.758 11.175-4.944 17.794-4.81-2.438-12.126-21.919-13.274-27.605-5.936.699-4.908 17.171-10.696 21.984-2.325 1.933-4.599.5-7.275 4.101-2.754 3.699-1.423 9.496-2.108 13.628-3.57 21.474.328 46.831-8.965 67.267-3.906-6.724-3.812-14.927-6.068-22.208-3.868-12.487-4.258-24.646-6.178-37.438-1.348-8.979-5.175-71.019-13.505-69.183-5.363 30.543-8.333 62.704-9.337 93.975-.461 14.377 6.974 136.209-8.406 133.031-3.09-11.764-3.764-23.595-7.067-35.168-2.479-8.673-7.878-16.188-8.984-25.024-.551-4.391 1.804-10.872-1.693-13.309-.307 6.098-2.416 28.245-13.505 25.573.759-7.301-6.722-15.375-7.002-23.691-.149-4.462.677-9.243-.494-13.525-.665-2.433-3.636-5.72-4.069-8.324-2.294-13.773-4.201-28.107-6.063-42.113-1.593-11.993-1.639-35.832-11.181-45.219-.858 12.381-2.661 24.49-2.661 37.34 0 14.746-.846 28.962-2.719 43.459-1.537 11.899-4.93 24.466-6.293 36.255-1.189 10.295 1.701 18.364-4.885 27.836-8.291-3.123-6.525-16.965-8.408-23.735-3.354-12.057-4.13-25.07-7.106-37.412-2.758-11.443-7.063-23.12-10.14-34.429-2.362-8.688-2.316-29.428-11.279-33.962-.619 10.601-3.725 21.377-4.893 32.012-1.321 12.032-.29 24.607-1.854 36.437-7.102-6.563-7.135-18.81-9.153-27.449-2.624-11.229.079-33.73-8.339-42.284-5.03 4.571-4.818 25.106-13.523 23.011.09-6.177-4.159-11.712-4.944-17.697-.902-6.886.326-11.38-2.667-17.96-6.864-15.097-11.518-27.602-13.283-43.79-.546 1.179-2.142 2.988-2.108 5.617-7.604.858-5.694-7.112-6.293-11.82-.653-5.134-2.403-7.292-4.44-11.769-2.94-6.458-2.561-27.596-8.474-29.979-3.708 7.242-3.874 13.944-4.888 21.888-1.029 8.061-4.139 15.35-4.44 23.955-.321 9.097-1.073 17.256-2.276 25.943-1.124 8.115 1.971 16.313-2.172 23.946l-10.855 250.77c25.889-.22 508.656-.003 508.656-.003z"/></svg>