<svg xmlns="http://www.w3.org/2000/svg" width="1400" height="1554.414" viewBox="0 0 1400 1554.414"><linearGradient id="a" gradientUnits="userSpaceOnUse" x1="253.833" y1="599.733" x2="253.833" y2="1590.462"><stop offset="0" stop-color="#2d537e"/><stop offset=".754" stop-color="#14224a"/></linearGradient><path fill="url(#a)" d="M467.669 1287.107c-11.536-1.642-12.521-22.133-19.422-33.698a22.174 22.174 0 0 0-2.255-3.166c15.394-8.385 51.916-61.673 50.656-82.751-.044-.014-.089-.026-.134-.045-8.325 9.919-15.725 16.185-28.52 16.716-5.237.214-12.488-1.823-17.33.643-6.002 3.057-5.724 8.332-9.875 13.506-8.121 10.118-19.128 9.88-26.302 22.885 7.172-13.005 18.181-12.767 26.302-22.886 4.151-5.174 3.873-10.449 9.875-13.506 4.843-2.466 12.093-.429 17.33-.643 12.796-.531 20.196-6.797 28.521-16.716-14.695-5.028-17.256-16.949-28.033-26.696-7.957-7.198-20.047-10.92-29.524-20.031-19.965-19.182-23.042-33.686-47.905-29.267-1.639.29-3.375.664-5.218 1.127-.015-22.61 10.61-78.828 23.856-94.25-2.397-1.52-3.412-3.541-4.969-5.26-1.219-1.34-2.769-2.488-5.563-3.068a62749.66 62749.66 0 0 0 3.902-27.509c-13.695-5.045-32.932-12.167-44.141-22.422 2.576-2.232 4.813-4.704 6.854-7.302 8.582-10.906 13.714-24.043 26.19-31.204a45.44 45.44 0 0 0-3.197-8.512c-9.109-18.321-28.914-25.54-45.285-28.304-1.096-27.921 2.888-45.614-22.411-51.413 2.249-3.665 3.955-7.122 5.177-10.392 4.2-11.21 2.77-20.273-1.754-28.107a42.914 42.914 0 0 1 0-.001c-8.295-14.381-27.019-24.602-40.469-36.292-3.472-3.02-6.589-6.129-9.091-9.438 2.87-1.733 6.062-6.614 9.351-8.409a71.076 71.076 0 0 0-2.263-4.843c-8.693-17.149-29.989-47.53-39.258-55.578 5.507-.503-5.066-35.931.063-37.251 1.476-7.131-15.036-23.292-15.036-23.292s-14.343 60.206-20.642 74.616l-9.749 22.765c7.073.65 13.971-.029 20.898 2.169 8.522 2.708 15.378 6.358 24.176 6.813a8.348 8.348 0 0 1 0 .001c-8.797-.456-15.654-4.107-24.176-6.813-6.927-2.199-13.825-1.52-20.898-2.17l-.609 1.43c3.066-5.052 8.987 12.97 14.022 21.327h.004c1.969 3.266 3.805 5.056 5.281 3.412a27.612 27.612 0 0 1-1.829 3.861c-2.924 5.051-7.027 7.62-13.019 8.65 1.773 10.473 4.408 20.567 12.197 24.494-.189 12.771-3.939 22.329-2.003 33.191-2.787.027-5.738.85-8.541.907-.925 10.588 2.765 20.24 8.358 27.348-4.671 1.458-7.269 6.171-12.811 6.832a80.79 80.79 0 0 1 1.672 5.702c1.123.65 2.17 1.249 3.07 1.78 5.634 3.305 13.439 5.365 19.56 8.551 6.268 3.266 13.417 3.925 20.376 4.824-6.959-.898-14.108-1.558-20.376-4.823-6.121-3.187-13.926-5.246-19.56-8.551-.9-.532-1.948-1.13-3.07-1.78 2.973 11.479 4.479 23.877 12.506 29.213 2.724.495 5.47.979 8.263 1.228-2.793-.248-5.539-.731-8.263-1.228 1.554 1.029 3.346 1.8 5.441 2.245-10.418 18.535-30.419 43.424-37.723 64.313a35.872 35.872 0 0 0-.792 2.573c2.297 3.265 4.95 6.624 7.483 9.761-2.534-3.137-5.186-6.496-7.483-9.76-3.679 13.878 4.364 20.591 2.554 32.883-.468 3.186-1.238 5.797-2.252 8.042 2.448 1.49 5.312 2.705 8.059 3.644-2.747-.938-5.611-2.153-8.059-3.644-3.274 7.263-9.072 10.645-15.286 16.945 24.856 29.905-35.04 94.779-42.305 87.886-2.865 5.563-7.009 11.28-11.923 16.138 1.011.451 2.125.808 3.303 1.094-1.178-.286-2.292-.643-3.302-1.093-3.037 3-6.37 5.673-9.875 7.775 3.255 11.832 7.994 24.59 16.04 32.565 1.739 1.724 3.631 3.224 5.698 4.443-10.27 11.553-83.131-2.554-93.567 22.438 8.808 5.717 19.3 10.492 26.41 14.52 13.283 7.515 27.2 7.259 40.51 13.615a115.712 115.712 0 0 0 0 .001c-13.31-6.357-27.227-6.1-40.51-13.615-7.109-4.027-17.602-8.803-26.41-14.52-4.783 11.447 3.53 31.093 36.946 65.158a473.437 473.437 0 0 0 5.675 5.688c-5.159 5.36-42.446 56.651-47.263 62.443 5.199 15.074 23.488 53.356 35.162 59.941-6.953 5.422-11.48 10.587-14.123 15.668-7.095 13.621-.699 26.654 8.667 42.503 3.446 5.833 7.296 12.044 11.023 18.81-1.635 1.898-3.355 3.821-5.095 5.778-13 14.641-26.934 31.216-12.792 54.028-12.603 16.223-35.852 98.71-35.852 98.71l477.843-1.937 7.847-278.651c0 .005-26.881-9.338-29.008-22.762z"/></svg>