<svg xmlns="http://www.w3.org/2000/svg" width="1400" height="1554.414" viewBox="0 0 1400 1554.414"><linearGradient id="a" gradientUnits="userSpaceOnUse" x1="1055.23" y1="297.242" x2="1055.23" y2="295.705"><stop offset="0" stop-color="#160a2b"/><stop offset="1" stop-color="#131b52"/></linearGradient><path fill="url(#a)" d="M1055.462 297.242a36.676 36.676 0 0 0-.464-1.537c.147.516.304 1.026.464 1.537z"/><linearGradient id="b" gradientUnits="userSpaceOnUse" x1="718.748" y1="1554.414" x2="718.748" y2="24.564"><stop offset="0" stop-color="#160a2b"/><stop offset="1" stop-color="#131b52"/></linearGradient><path fill="url(#b)" d="M1507.361 721.44c-30.662-32.981-61.901 27.851-88.843 43.36-15.194-21.321-24.708-75.491-27.96-104.437-23.691 1.411-30.32 31.997-48.844 40.388 3.723-61.649-10.884-118.728-12.222-180.024-56.493 76.612-53.725-108.22-52.679-138.81-11.8 6.921-22.35 16.646-36.013 24.36-.621-61.879-13.955-118.917-23.345-180.042-2.963-19.291-11.018-37.073-18.588-54.886-3.811-8.96-7.544-17.944-10.526-27.221-1.173-3.645-3.894-9.108-3.96-12.893-.075-4.316 3.195-7.731 2.792-12.051-2.586-2.119-3.902-3.425-5.66-6.3-17.302.536-4.901-6.343-2.43-12.539 2.741-6.881-2.208-15.444-10.799-17.286 3.867-11.44-3.271-22.032-5.158-33.379-1.466-8.817-.488-16.837-3.131-25.118-13.838 12.486-9.451 53.904-9.481 71.526-.031 17.813 4.314 40.618-5.89 55.91-6.472-7.639-5.464-29.527-6.773-39.542-.263-2.014 1.087-6.32.26-8.021-1.613-3.321-6.598-4.82-8.948-8.25-2.772-4.044-2.164-9.666-5.822-13.414-1.484 12.203-3.183 22.909-2.001 34.801 1.785 17.967-3.977 35.947 1.095 52.169 9.043 28.974-1.111 56.681-1.274 86.041-.069 12.592 6.751 25.742-2.638 36.614.817-9.155-3.451-15.82-5.167-24.998-1.837-9.818-.679-18.982-3.104-28.25-5.303-20.275-13.965-44.915-13.979-65.658-1.836-.014-6.091 1.004-7.792 1.652-.859 21.037 7.841 41.085 5.45 63.063-5.312.582-10.609-.889-15.43-2.72 5.747 2.961 1.837 9.273 2.944 14.271 1.307 5.903 6.713 11.164 8.372 17.181 2.459 8.926-1.526 8.544-3.803 16.074-2.305 7.619.455 11.673 3.006 19.204 4.082 12.037 6.569 24.166 6.55 36.851-.02 12.303 2.909 28.879-3.97 40.279-5.704-4.821-3.687-16.107-6.795-23.128-9.668-1.501-16.983-24.403-19.405-33.268-2.442-8.934-7.146-16.817-9.942-25.708 3.681 13.121-2.234 21.044-4.234 33.984-1.502 9.712 2.298 20.372 2.301 30.059-8.959 1.798-12.869-10.274-16.859-15.663 1.086 17.63 8.155 34.85 8.126 52.418-.025 12.511-12.283 54.535 4.677 59.668-2.862 32.899.403 66.494-1.305 99.568-.878 16.992-2.131 34.402-6.499 50.911-1.655 6.254-3.572 12.937-7.118 18.428-.653 1.013-9.827 10.293-9.901 9.691-5.412-43.814-10.728-87.754-12.636-131.818-.111-2.588.411-7.484-.26-10.031-1.479-5.604-2.837-4.222-5.563-8.549-4.272-6.782-6.468-12.089-5.92-21.079.227-3.737 1.759-6.278 1.807-9.924.064-4.729-5.298-4.067-1.165-9.347-10.98-5.93-14.063-12.797-13.406-24.45.71-12.571-2.005-24.065-3.123-36.461-2.351-26.094-4.697-52.351-7.2-78.145-18.57 32.283-15.293 71.82-15.63 109.156-3.028-4.63-4.111-13.194-4.969-19.035-7.092-1.673-10.04-18.145-10.817-24.655-4.902 11.269-4.58 30.894-6.853 43.84-2.769 15.774-2.488 33.704-.941 49.333 2.159 21.823 1.731 43.698 3.595 65.517 1.04 12.197 4.943 15.867 8.865 26.968 2.593 7.34 1.365 16.112-.247 23.77-1.676 7.956-4.243 8.542-8.112 15.598-6.042 11.016 3.039 19.705 3.795 30.432.751 10.667-5.269 21.151-4.791 32.356.376 8.844 4.114 16.543 3.741 25.424-.773 18.417-1.662 36.275-7.972 53.632-9.112-8.142-4.414-26.657-5.848-38.046-1.447-11.508-3.883-22.543-5.004-34.577-1.175-12.635-7.982-23.045-9.429-35.486-1.31-11.277-6.264-27.214-5.21-38.216-2.073 1.165-5.759 3.119-7.132 3.93 3.431 10.851 1.607 37.363-3.416 48.493-2.402 5.324-7.421 7.142-9.684 12.534-1.888 4.522.327 8.469-2.619 12.072-1.986 2.429-7.667 1.135-10.138 4.789-3.241 4.791 1.962 18.001-6.929 19.406 9.965 12.298 3.267 9.599-4.955 19.766-7.082 8.758 1.14 10.491 2.804 19.874 1.719 9.688-3.763 20.622-4.614 30.15-.92 10.317 2.228 28.946-7.813 35.021-2.951-5.295-.815-11.503-3.109-16.857-3.443-8.034-5.325-4.133-12.486-8.911 2.666-5.375-.58-9.879-.323-15.505.296-6.456 4.385-10.006 4.854-16.048.706-9.095-5.323-21.703-6.373-32.174-.839-8.355 1.603-15.155 2.234-23.388.727-9.459-2.293-18.604-3.334-27.964-1.533-13.77-2.071-28.554-3.834-41.164-7.438 13.109-9.455 33.73-12.782 48.346-2.929 12.87-.416 22.656-7.734 34.404-4.119 6.614-11.089 13.23-14.387 20.036-3.54 7.307-4.392 18.812-5.13 27.237-.625 7.133 1.821 20.346-4.293 24.956-5.842-9.547-3.303-33.569-2.666-45.317.887-16.349-7.08-32.491-7.677-49.156-5.522 6.753-3.673 13.548-4.857 21.421-1.353 8.991-5.014 17.695-5.442 26.807-.337 7.163 2.28 38.445-8.27 32.164-4.099-2.44-6.545-13.354-7.917-17.501-5.958-18.013-8.875-37.15-11.74-55.846-5.332-34.795-5.709-72.524-15.909-106.342-3.927 5.915-16.207 11-19.073 14.111-4.623-15.655-10.059-31.148-11.274-46.922-.917 8.961-7.105 20.305-9.355 30.029-23.368-13.206-22.805-81.58-21.708-107.763-.365.461-4.136 8.857-4.363 9.424-11.173-14.416-10.826-37.299-17.542-52.377-5.336-1.389-3.409 5.862-5.385 7.933-1.745-3.323-4.852-9.531-9.63-11.716-12.162 44.649 1.801 147.615-29.124 177.896-8.532-37.948-13.149-100.336-33.314-132.26 4.632 7.335-6.807 46.94-13.324 50.951-4.202-13.415-2.929-30.457-3.349-44.532-.286-9.542-.723-15.569-3.457-24.239-2.835-8.991-5.343-20.165-3.744-30.201 1.455-9.134 3.612-13.506 2.208-22.92-1.214-8.134-.229-14.521.188-23.021.9-18.352 1.457-40.135-1.992-57.854-3.534 6.06-8.949 11.389-11.245 18.115-2.435 7.13-2.177 16.4-3.717 23.862-2.467 11.967-.805 24.658-5.969 36.031-1.342-8.521-6.182-15.792-7.78-24.123-2.539-13.246-.522-28.708-1.479-42.271-2.021-28.612-5.928-57.054-8.012-85.66-14.445 21.451-17.419 45.998-18.784 71.795-1.162 21.954 3.674 45.982-3.646 67.731-1.285.102-2.403.016-3.681-.119-2.375-13.449-5.958-26.506-7.886-40.181-2.01-14.266 1.125-28.256-.264-42.342-1.202-12.193.418-27.958-3.703-39.172-5.453-14.839-9.516-31.822-14.847-47.877-3.626-10.92-4.771-22.646-9.258-33.171-19.142 16.872-5.084 48.175-16.408 68.939-7.305 13.394-5.143 23.521-5.202 38.784-.04 10.177-2.321 20.259-3.185 30.384-1.548-18.539-8.493-39.252-21.363-50.547-4.096 8.397-4.076 22.527-5.844 31.838-3.189 16.796 1.838 32.708.176 49.875-.71 7.328-3.425 15.237-2.749 22.616.649 7.081 4.509 13.204 4.759 20.77.304 9.237 1.329 27.313-5.532 33.431-1.454-17.92-8.881-36.955-9.479-54.43-.443-12.949-2.368-25.286-8.098-36.654-13.181 17.622-6.665 45.303-13.562 65.417-8.782-2.368-4.596-19.035-4.67-26.367-.106-10.532-6.686 4.688-14.768-.566-16.471-10.708-35.148-7.39-26.998 1.584-2.708 3.474-7.796 3.936-12.217 4.574-.872 7.471 1.611 14.52.75 21.694-.966 8.061-.197 10.233 4.131 18.433-8.967 11.036 9.094 42.099-5.413 49.008-9.48 4.515-12.769-37.148-14.671-45.032-1.717-7.116-5.084-14.038-5.175-21.299-.094-7.576 1.397-10.736-1.055-18.035-3.647-10.859-10.365-19.912-11.401-31.67-.724-8.232 1.413-12.655-7.994-16.334-.458 8.617 1.679 17.16.731 25.989-.692 6.455 3.392 13.977 1.843 19.098-2.038 6.732-10.728 6.175-15.358 9.471-9.536 6.788-2.998 5.908.268 15.565 1.931 5.704-.75 13.04-.313 19.208.956 13.522.699 22.06-1.625 35.837-2.829 16.762 1.926 32.453-4.485 48.98-2.875 7.413-5.369 12.883-8.351 2.33-1.602-5.67-1.038-13.792-2.229-19.871-1.48-7.56-.451-12.021 1.072-18.847-4.748-1.265-11.869-4.906-14.34-8.731 6.2-1.62 3.264-9.565 9.709-12.655-2.825-2.597-8.21-2.78-10.73-6.344 1.399-.802 2.137-2.191 2.996-2.873-3.524-2.034-6.9-5.057-8.358-8.666 12.009-6.255-5.12-30.09-7.448-38.407-4.978-17.789-.869-38.658-5.004-56.281-4.767 5.764-11.496 16.882-13.097 24.328-2.218 10.323 3.436 20.693 2.274 30.952-2.963-.357-5.057.972-7.829.896 2.614 4.331 7.201 9.67 12.259 11.729-5.991 5.631-11.695 5.278-10.784 16.462.881 10.812 13.081 18.684-4.875 19.7-1.994 18.61-4.017 36.912-6.025 55.617-1.697 15.804.416 33.615-6.731 47.625-5.948-6.816-3.32-18.011-4.3-26.19-1.247-10.392-5.407-20.674-5.485-31.297-.06-8.328.574-15.893-.55-23.79-3.136-22.004-7.646-45.19-6.897-67.569-12.443-4.316-9.177 28.741-10.689 36.393-1.71 8.66-5.732 16.314-6.396 25.882-1.939 27.981-4.825 54.077-12.403 81.16-6.983-7.714-6.103-20.738-7.23-30.625-1.027-9.015-3.027-15.303-5.555-23.825-2.363-7.961-.563-13.267-4.144-21.546-2.979-6.89-5.455-11.785-5.899-19.947-2.602 6.901-9.705 10.472-11.973 17.132-2.93 8.622-1.876 18.049-4.782 26.968-2.972 9.123-7.229 17.022-6.943 27.041.589 20.716 2.666 38.881-.38 60.426-2.847 20.13-3.306 40.883-4.338 61.355-.927 18.383-6.899 30.569-15.618 46.461.09-18.044-11.489-33.763-17.604-50.052-3.859-10.285-15.333-59.93-24.601-56.024-10.901 4.593-74.25 44.625-74.564 53.326-.466 12.963-2.823 924.453-.882 924.707.016.002 1583.168-.455 1583.168-.455l-2.411-844.075c-.197 3.821.257 7.659-.938 11.557z"/></svg>