<svg xmlns="http://www.w3.org/2000/svg" width="1400" height="1612.471" viewBox="0 0 1400 1612.471"><linearGradient id="a" gradientUnits="userSpaceOnUse" x1="1022.223" y1="4.995" x2="1022.223" y2="1033.001"><stop offset="0" stop-color="#4b85a2"/><stop offset=".381" stop-color="#366588"/><stop offset=".768" stop-color="#244c72"/><stop offset="1" stop-color="#1e426a"/></linearGradient><path fill="url(#a)" d="M589.025 1033c-5.544 0-9.341-4.222-14.689-4.917-1.822-6.013 3.281-15.351 4.01-21.478.904-7.62 1.092-18.983-1.88-25.834 10.279-11.413 30.862-18.726 44.274-25.929 6.677-3.586 13.938-2.871 20.553-5.847 6.334-2.85 7.893-9.35 13.186-13.409 6.219-4.77 8.035-5.527 10.734-12.974 1.597-4.404 3.917-16.886 8.107-17.274 4.068 3.671 7.272 11.539 7.272 16.787 7.188 1.108 13.481 13.727 21.093 17.334 2.465 1.168 4.66.824 7.02 2.075 1.695.899 2.518 3.493 4.188 4.467 4.391 2.561 9.078 3.491 14.22 2.337 1.138-9.045-1.288-19.109.753-28.021 2.174-9.49 8.717-18.447 12.391-27.58 3.59 1.859 5.311 5.309 4.245 9.359 4.416-5.042 10.277-8.836 11.312-15.965 3.832 3.588 8.892 13.448 8.423 18.596 3.772.514 8.519-.657 12.081.766 4.329 1.729 5.441 6.943 10.883 5.813 2.715-19.926 2.471-40.188 2.471-60.777 0-11.244-6.472-58.291 10.307-56.424.469 5.638 5.447 12.334 9.11 16.396-.475-13.596 2.224-26.061 1.993-39.745 12.165-17.024 18.296 23.326 19.832 29.612 2.442 9.992 4.051 12.258 12.884 7.079 7.298-4.28 9.045-15.284 16.641-18.146 16.587-6.251 32.585 7.12 49.518-1.412 6.825-3.438 11.327-9.453 19.21-8.829 8.645.686 16.729 5.84 25.741 6.035 8.55.186 17.138-2.958 17.111-12.813-.028-10.464-9.09-17.212-16.37-22.948-4.939-3.891-22.432-13.082-21.922-19.785 8.936-1.162 18.019 13.917 25.385 10.955-1.83-9.159-13.111-12.601-16.984-20.736 1.048.171 2.9-.655 4.038-.521.857-7.642-1.96-13.355-1.141-20.854 4.933.999 10.152 5.96 11.303 10.989 1.485.587 2.813.663 4.314.038 1.193-9.685-.557-17.427-2.979-25.916-2.237-7.832-8.908-17.844-9.448-25.884 9.54-1.415 18.041 6.769 27.155 4.428 8.797-2.259 7.746-10.216 7.856-17.759.265-17.883 7.469-34.539 25.331-40.263 6.338-2.031 13.906-3.537 18.774-9.097 7.061-8.062 3.58-10.034 15.235-10.799 1.495-11.91-1.839-23.112-1.87-34.616-.03-10.365 7.77-16.686 6.383-27.435 8.351 2.737 6.177-21.535 6.916-26.656 9.629-4.544 11.409-1.144 15.125 7.808 2.735 6.596 7.828 12.678 10.354 19.513-.645-20.047-2.25-39.568-2.25-60.413 0-13.121 2.203-26.18 1.39-39.323-.401-6.479-3.271-11.939-4.118-17.963-1.057-7.5.961-16.858 1.648-24.497.65-7.23-4.154-19.35-.623-24.58 2.296-3.396 13.49-7.208 17.425-8.514 1.428-9.906-.365-17.458 4.077-26.283 2.24-4.45 6.939-8.721 8.735-13.078 1.648-3.995-.848-7.66 2.104-10.245 3.519 19.223 4.585 38.995 7.239 58.485 10.314-1.565 17.511-13.282 25.386-19.349 6.701-5.163 12.979-9.464 19.354-15.371 3.918-3.63 9.076-9.306 14.229-10.803-3.004-3.681.337-10.548.787-15.211.813-8.453 1.618-20.484-.421-28.612-1.684-6.703-6.202-8.21-1.275-14.563 3.504-4.518 13.487-6.313 18.386-9.208 11.668-6.899 8.05-18.254 14.918-28.849 6.165-9.511 16.362-15.43 15.877-27.595 7.992-1.104 15.626.011 23.389-1.968 4.938-1.258 12.082-1.236 16.64-3.159 9.293-3.92 8.883-13.486 16.03-1.886 3.505 5.687 7.543 19.126 8.427 26.094 8.424-1.939 29.705-11.133 34.592-18.813 4.941-7.766-1.999-19.016-2.888-26.648-.574-4.933 1.179-10.519.152-15.379-1.172-5.556-7.377-7.311-8.301-11.34-.979-4.268 4.152-9.099 5.574-12.712 1.844-4.686 2.658-7.275 3.111-12.798 7.875 4.415 24.08 31.578 33.582 27.797 1.971-6.543-4.002-25.708-6.539-32.434-2.154-5.708-6.817-8.485-6.107-15.216.493-4.655 5.145-10.515 7.073-14.78 4.925-10.894 5.098-23.128 1.13-34.887-3.536-10.479-5.007-20.807-3.49-32.876 10.474-3.964 28.51 8.313 36.753 14.339 10.056 7.352 17.212 16.94 26.72 25.127 10.66 9.179 21.15 14.196 34.666 17.02 10.708 2.237 22.646 6.036 27.646 17.334V1033H589.025z"/><linearGradient id="b" gradientUnits="userSpaceOnUse" x1="304.625" y1="20.781" x2="304.625" y2="1042.632"><stop offset="0" stop-color="#4b85a2"/><stop offset=".381" stop-color="#366588"/><stop offset=".768" stop-color="#244c72"/><stop offset="1" stop-color="#1e426a"/></linearGradient><path fill="url(#b)" d="M693.75 1033.917c-3.971 3.247-18.704-36.118-20.895-41.403-6.652-16.055-11.827-32.352-19.339-47.891-8.236-17.045-16.01-37.281-27.304-51.916-5.342-6.923-11.802-8.866-18.381-6.909-9.554 2.843-10.159 12.358-16.929 18.899-4.475-6.549-7.074-15.421-10.923-22.785-5.658-10.832-8.386-15.289-20.189-16.168-2.807-5.947-1.002-14.342-8.199-16.829-4.448 7.249-11.435 17.015-19.086 20.752-6.691-11.086-9.321-27.47-13.547-40.589-4.454-13.823-7.636-27.461-12.623-41.354-5.188-14.453-9.255-27.813-14.195-41.453-1.997-5.515-2.626-15.379-10.514-15.355-6.729.021-8.998 9.093-12.093 13.009-4.311-15.614-9.236-31.448-16.824-46.073-2.979-5.739-15.786-37.328-22.016-26.429-5.818-4.811-8.243-19.587-16.931-15.13-6.14 3.151-9.918 16.134-14.142 20.563-8.765-8.077-7.016-32.024-10.974-43.425-2.512-7.229-6.86-16.425-8-24.447-.902-6.359 4.129-22.729-5.949-22.164-.195-4.848.25-9.924-2.529-14.224.936 10.297-7.436 19.252-8.235 29.077-4.769-4.469-1.284-14.53-2.637-20.535-1.77-7.858-3.75-13.33-3.729-22.325.016-7.057 3.435-40.656-5.956-38.896.058 7.127-5.513 25.954-10.398 30.063-.235-8.737-6.587-15.583-8.46-23.805-2.152-9.445-.604-18.867-3.992-28.44-3.237-9.15-7.431-16.212-8.574-26.037-.821-7.052.079-14.429-.787-21.462-6.489-.781-19.237 4.992-24.495 1.521-8.862-5.852-1.891-18.816-2.899-25.604-9.164 7.315-38.559 3.274-41.726-8.884-1.266-4.862.127-7.894-2.529-12.744-1.732-3.165-4.466-1.744-5.882-6.867-1.768-6.402 3.911-16.975-6.042-17.968 5.962-6.896 17.525-8.537 25.543-14.222 10.222-7.248 12.58-18.27 20.629-28.836 11.928-15.661 8.331-41.071 8.331-41.071s-17.411 16.815-22.711 27.906c-4.999 10.461-7.483 23.534-16.706 31.214-3.469 2.888-8.215 4.04-11.614 7.472-4.976 5.021-6.775 12.017-11.681 17.363-6.722-4.954-.37-20.583-.419-27.67-.043-6.273 1.063-13.522-.007-19.655-.839-4.805-3.403-6.667-4.3-10.748-2.614-11.899 4.669-55.617-16.084-52.396 25.242.229 50.045-2.448 75.191-7.654 14.83-3.07 46.179.624 46.179.624s-25.855-16.899-40-16.948c-12.984-.044-27.1-1.676-39.951-.051-8.54 1.08-37.119 17.575-41.894 11.423 9.928-.316 24.164-9.222 32.959-14.095 11.222-6.218 13.707-19.082 16.885-30.442 4.265-15.244 23.59-32.753 23.59-32.753s-31.609 3.481-37.265 17.984c-5.601 14.362-14.042 35.341-27.919 41.986-7.27 3.48-9.485 3.805-14.719 10.306-4.077 5.063-6.104 11.054-12.666 6.104-5.459-4.12-4.771-14.588-7.743-19.713-5.092-8.777-11.267-8.499-19.592-6.002-4.966 1.489-14.651 7.668-19.493 2.819-4.721-4.728-.56-14.715 1.135-19.717 5.245-15.485 2.171-31.85 4.157-48.477.963-8.066 2.789-14.054-.536-21.729-1.645-3.799-9.612-15.741-14.236-15.029-3.159 12.777-7.574 24.072-10.988 36.758-3.131 11.631-11.112 26.083-10.29 38.453-11.273-7.519-1.549-29.289-18.729-29.457.021 6.901-4.315 8.135-6.249 13.237-2.091 5.521.179 12.977-.737 18.841-10.084 3.046-20.609-7.117-30.904-6.537-2.538-20.596 1.522-42.122-.326-62.866-.628-7.047-2.889-25.417-8.83-30.178-2.987-2.394-10.712.464-14.341-.279-4.169-.854-7.83-5.234-12.258-4.13.182 7.347-4.004 16.124-6.094 23.207-2.731 9.256-1.965 13.85-11.044 15.731-11.162 2.313-11.162-2.828-14.652-11.001-1.893-4.435-6.292-8.118-6.465-12.962-.177-4.962 4.314-12.566 5.889-17.434 2.247-6.94 3.601-12.961 6.241-19.62 5.209-13.14 2.991-27.281 4.727-40.687-6.164 6.664-9.71 14.719-16.403 21.02-5.946 5.598-6.059 10.25-11.076 16.786 2.98-18.202 7.793-35.584 12.873-53.39-16.458-7.924-20.78 5.437-29.958 16.634C-58.118 51.275-68.5 64.382-84.5 62.023v980.609l778.25-8.715z"/></svg>