<?xml version="1.0" encoding="utf-8"?>
<!-- Generator: Adobe Illustrator 16.0.0, SVG Export Plug-In . SVG Version: 6.00 Build 0)  -->
<!DOCTYPE svg PUBLIC "-//W3C//DTD SVG 1.1//EN" "http://www.w3.org/Graphics/SVG/1.1/DTD/svg11.dtd">
<svg version="1.1" xmlns="http://www.w3.org/2000/svg" xmlns:xlink="http://www.w3.org/1999/xlink" x="0px" y="0px" width="3835px"
	 height="4356.066px" viewBox="0 0 3835 4356.066" enable-background="new 0 0 3835 4356.066" xml:space="preserve">
<g id="Layer_6">
	<linearGradient id="SVGID_2_" gradientUnits="userSpaceOnUse" x1="1252.563" y1="4088.7593" x2="1252.5629" y2="1664.1001">
		<stop  offset="0" style="stop-color:#0D0D14"/>
		<stop  offset="1" style="stop-color:#0B2A47"/>
	</linearGradient>
	<path fill="url(#SVGID_2_)" d="M-16.56,3451.032c-10.384-89.173,239.412-815.47,239.412-815.47l9.429-137.228
		c0,0,53.863-55.339,89.933-65.396l8.487-121.561l73.127-15.836l23.336-52.137l108.749,23.531c0,0,18.192-87.771,19.947-94.127
		c73.053-22.495,129.723-127.402,213.12-118.791c-3.607-24.008,0.308-45.148-12.507-67.826
		c49.647-70.539,94.315-56.51,88.249-165.051c12.006,2.63,29.882-5.002,41.888-2.371c3.084-57.744,9.913-101.359,24.253-154.671
		c20.614,8.418,39.973,22.307,56.422,39.571c-14.374,35.194,6.891,34.938,15.815,55.506c3.856,8.889,22.772,4.029,28.112,15.319
		c6.235,13.183-4.661,33.265,1.321,45.46c25.113,51.191,40.453,101.67,52.719,155.854c30.663-2.544,46.788-27.017,44.137-60.571
		c32.851-10.476,61.651-2.494,58.815,36.839c25.815,0.685,53.078,1.567,78.818,2.552c-5.028,6.001-12.714,28.254-20.553,36.068
		c90.138,14.564,71.575,118.109,87.87,189.745c17.321,76.147,41.939,152.181,64.152,225.261
		c16.232-75.462,45.605-139.434,54.38-216.008c90.175-7.808,83.681,34.418,144.815,87.012
		c-39.05,45.995,48.122,86.715,75.678,115.71c-11.046,7.537-19.907,29.776-29.318,37.187
		c34.704,31.066,175.488,80.426,131.928,133.361c40.667,36.309,81.783,30.254,118.705,29.637
		c16.438,12.118,34.57,43.998,43.587,73.061c73.196-0.994,115.673,1.477,175.332,48.025c65.242,50.904,73.44,67.622,160.29,56.467
		c36.166,124.932,126.543,224.56,164.854,351.504c17.96,59.507,33.063,96.533,66.156,147.049
		c21.483,32.795,37.1,113.846,37.1,113.846s-393.632,689.989-401.868,682.895l-1735.697,23.311L-16.56,3451.032z"/>
</g>
<g id="Layer_4">
	<linearGradient id="SVGID_3_" gradientUnits="userSpaceOnUse" x1="2726.3438" y1="3863.4917" x2="2726.3435" y2="1056.896">
		<stop  offset="0" style="stop-color:#090C14"/>
		<stop  offset="1" style="stop-color:#0B2C45"/>
	</linearGradient>
	<path fill="url(#SVGID_3_)" d="M3202,2073.066c-16.787-40.168-13.637-162.379-30.938-204.794
		c-21.196-3.723-45.095-1.755-63.725,4.356c-1.63-24.672-1.245-50.009-0.906-75.028c-0.824,2.283-2.482,3.258-4.975,2.925
		c-5.006-35.026-9.429-85.803-24.902-115.025c-15.601-29.461-34.168-25.19-42.398-70.223
		c-10.705-58.574,6.739-141.725-16.544-181.458c-18.65-31.827,14.142-72.465,4.388-112.753
		c-7.714-31.86-87.961-130.353-87.961-130.353l-26.785-96.425c-17.263-2.979-47.992-40.202-65.254-37.223
		c-2.893,56.517,13.896,146.962,11.285,203.354c-8.219-3.474-26.002-0.671-34.221-4.144c1.218,47.957-26.568,74.927-35.373,114.245
		c-5.16,23.043,2.816,44.841-1.527,64.813c-5.442,25.027-20.992,32.057-28.777,55.303c-28.5,85.104-32.852,193.938-38.095,285.701
		c-97.343-20.68,2.015,153.82-30.304,197.65c-9.444,12.809-31.008-13.049-45.268,2.434c-14.794,16.062-15.594,45.13-18.168,64.771
		c-4.713,35.95,15.824,96.229-36.441,96.865c-4.361,88.043-8.514,173.191-36.879,254.938
		c-33.005-60.075-16.414-128.22-35.684-189.838c-14.931-47.745-39.482-21.251-56.061-52.366
		c-13.782-25.865,6.401-55.891-5.102-84.74c-22.857-4.092-29.543-12.105-30.015-36.069c-75.679,27.138-1.496,226.837-88.521,245.022
		c11.665,23.881-26.775,83.754-35.234,114.116c-11.479,41.202-22.773,78.858-72.702,91.317c13.296,16.2,35.482,20.662,57.695,17.568
		c-27.529,24.271-63.457,38.282-93.517,60.256c11.562,18.087,30.779,29.146,51.556,34.104c16.038-13.525,37.77-14.775,60.726-10.377
		c16.458,60.771-12.391,80.482-70.033,96.12c-0.369,16.328-2.56,44.673,4.836,59.081c10.656,20.762,36.813,20.845,48.086,37.52
		c14.637,21.65,35.996,8.746,6.159,39.131c-8.592,8.749-46.505,9.776-59.37,14.218c7.945,21.297,28.909,31.798,51.439,36.323
		c-20.896,17.827-92.765,51.42-88.616,82.917c3.818,28.993,86.976,46.927,106.761,67.183c22.289,22.818,36.593,18.797,21.254,52.504
		c-18.313,40.243-57.682,11.555-73.888,29.705C2228.597,3118.426,2094,3281.066,2094,3281.066v582.426
		c0,0,1194.793-3.109,1227.599,0c-2.581-0.877,43.188-17.337,36.401-18.426c-17.391-337.226-36.401-1688-36.401-1688l-43.164-30.315
		L3258,2045.066L3202,2073.066z"/>
</g>
<g id="Layer_3">
	<g id="XMLID_2_">
		<g>
			<path fill="#0A1726" d="M3912.54,4381.446l-361.88,1.47c-1.8-34.84,1.37-71.31,1.37-105.46c0-40.17-0.38-60.39,19.33-94.689
				c36.84-64.101,112.42-113.41,132.29-185.94c12.659-46.22-9.28-116.89,57.43-127.02c6.17-47.63-18.07-88.57-17.09-136.931
				c0.51-24.8,1.79-47.04,16.51-67.609c9.8-13.681,27.85-22.36,37-33.17c-15.65-2.45-31.88,0.84-47.65-1.061
				c-12.92-1.55-21.38-8.68-36.159-6.439c-19.5,2.939-46.771,27.41-61.15,40.649c-27.21,25.051-31.95,40.851-70.51,32.98
				c-25.851-5.271-42.32-18.101-70.04-20.55c25.16-24.9,47.02-42.92,62.84-77.101c12.43-26.87,19.75-51.899,35.85-77.63
				c28.71-45.84,66.19-83.939,92.63-130.649c10.5-18.54,23.681-47.28,41.881-59.79c21.619-14.851,50.55-13.83,75.02-21.021
				c30.72-9.03,62.2-19.49,91.86-33.06C3912.39,3836.166,3912.54,4381.446,3912.54,4381.446z"/>
			<linearGradient id="SVGID_4_" gradientUnits="userSpaceOnUse" x1="3246.1514" y1="4386.7261" x2="3246.1511" y2="397.5166">
				<stop  offset="0.0354" style="stop-color:#0B141F"/>
				<stop  offset="1" style="stop-color:#0C4C52"/>
			</linearGradient>
			<path fill="url(#SVGID_4_)" d="M3495.66,2597.186c-10.26,9.49-32.96,56.7-33.73,74.07c-1.05,23.869,21.601,38.529,30.11,59.51
				c21,51.78,29.4,108.31,35.86,162.28c7.81,65.319,14.14,135.779,29.8,198.289c13.319,53.181,2.41,121.57,28.99,171.82
				c-1.311-17.53,7.449-33.01,7.329-52.17c-0.109-18,0-36,0-53.99c0-41.17-1.439-80.51-6.31-119.979
				c-4.78-38.82,0.24-82.16,0.31-121.311c0.101-52.3-5.989-103.04-5.989-156.109c0-65.65-16.53-164.561,13.5-220.311
				c16.229-30.14,42.64-65.83,66.12-88.97c20.77-20.46,40.949-49.9,68.409-61.6c-15.55,3.75-29.68,14.46-46.06,18.59
				c-14.3,3.6-31.2,1.79-43.61,10.21c-24.72,16.78-29.199,47.59-44.72,69.28c-15.33,21.409-40.92,31-57.12,52.17
				c-10.13,13.239-17.09,28.77-27.02,42.449C3507.45,2587.036,3501.41,2592.076,3495.66,2597.186z M2795.52,2863.146
				c4.601,35.24,13.11,70.62,17.341,106.55c2.609,22.2,5.58,43.72,8.63,65.84c1.99,14.4,1.54,46.95,9.37,54.99
				c3.75-53.29,5.979-107.03,7.31-161.49c0.65-26.67,8.28-29.56,28.35-43.489c11.98-8.32,38.471-15.57,43-27.301
				c-35.39-6.1-76.119,4.811-113.34,4.811L2795.52,2863.146z M3762.93,1758.026c1.4-9.04,16.471,10.72,28.7,28.72
				c6.36,22.08,20.95,45.11,7.98,68.771c-12.79,23.34-48.19,37.91-69.08,52.37c-25.511,17.649-29.37,30.59-39.19,61.319
				c-4.16,13.021-3.95,27.9-8.67,40.66c-0.35,0.96-5.67,12.82-6.02,13.311c-6.94,9.729-11.271,6.46-16.79,11.85
				c-23.37,22.82-17.841,43.85-17.841,78.15c0,38.909,0.021,77.46-4.67,115.14c-2.33,18.71-9.29,82.71,3.19,94.48
				c9.16-52.311,36.63-102.7,49.78-154.29c10.01-39.311,16.64-76.37,24.88-114.841c17.35,10.42,8.67,40.57,24.439,51.391
				c1.65-6.32,6.38-13.58,5.67-21.391c7.45,7.641,7.75,39.71,9.351,53.351c3.08,26.34,0.95,51.939,5.859,78.12
				c8.2,43.75,15.671,88.17,25.301,130.66c7.75,34.229,11.109,67.67,12.17,103.31c0.87,29.58,15.819,61.46,13.04,89.2
				c24.59,3.279,52.939-170.601,64.96-201.36c9.609,23.01,18.229,40.71,25.29,64.17c2.39,7.95,6.239,16.17,10.1,24.42
				c0.29,226.42,0.521,541.601,0.69,852.891c-29.66,13.569-61.141,24.029-91.86,33.06c-24.47,7.19-53.4,6.17-75.02,21.021
				c-18.2,12.51-31.381,41.25-41.881,59.79c-26.439,46.71-63.92,84.81-92.63,130.649c-16.1,25.73-23.42,50.76-35.85,77.63
				c-15.82,34.181-37.68,52.2-62.84,77.101c27.72,2.449,44.189,15.279,70.04,20.55c38.56,7.87,43.3-7.93,70.51-32.98
				c14.38-13.239,41.65-37.71,61.15-40.649c14.779-2.24,23.239,4.89,36.159,6.439c15.771,1.9,32-1.39,47.65,1.061
				c-9.15,10.81-27.2,19.489-37,33.17c-14.72,20.569-16,42.81-16.51,67.609c-0.98,48.36,23.26,89.301,17.09,136.931
				c-66.71,10.13-44.771,80.8-57.43,127.02c-19.87,72.53-95.45,121.84-132.29,185.94c-19.71,34.3-19.33,54.52-19.33,94.689
				c0,34.15-3.17,70.62-1.37,105.46l-940.45,3.811c0,0-19.34-703.44-29.979-1234.141c-0.33-16.329,83.979-68.42,83.979-68.42
				s-23.69-184.22-24-200.14c-0.79-40.88,75.5-21.18,74.79-59.64c-0.57-30.45,0.07-202.83,0-231.351
				c-0.09-31.529,39.19-90.47,39.19-152.93c0-97.54,72.72-34.99,71.71-128.97c-0.551-50.771,16.64-76.83,24.27-119.971
				c7.16-40.5-32.81-108.42,28.95-115.029c5.54-94.7-23.63-201.11,1.93-291.99c13.561-3.49,38.63-3.47,52.2,0
				c-0.03,1.77-0.04,3.54-0.03,5.31c-7.479,14.04-14.399,30.261-15.729,37.141c-6.521,33.81,4.87,54.8,15.49,83.979
				c18.229,50.08,31.319,114.19,31.17,166.63c-0.15,53.29-9.04,119.62,7.659,167.66c18.96,54.51-11.04,110.391-41.39,156.71
				c13.29,0.11,35.34-4.66,46.15-10.189c-2.88,44.85-7.29,82.239-6.42,128.55c0.58,31.35,8.619,33.11,22.47,56.37
				c13.01,21.87,3.37,46.89,12.78,69.77c-14.551,1.75-28.74,29.17-28.511,41.99c55.46-5.62-0.63,88.89-6.909,109
				c-7.271,23.26-12.61,49.46-23.83,71.96c-14.511,29.12-23,20.88-53.08,24.93c-6.61,51.78-2.15,103.9-12.57,154.891
				c-6.23,30.439-6.33,58.84-6.33,90.149c0,19.801-9,69.84,5.86,82.48c21.95-24.93,23.04-75.82,29.97-106.47
				c6.73-29.79,9.9-62.061,18-90.011c10.56-36.449,30.64-54.46,52.93-84.27c9.57-12.8,7.65-23.01,13.051-35.84
				c6.47-15.36,14.02-20.54,28.489-31.48c27.12-20.49,18.57-41.729,19.66-76.34c0.88-27.86,4.54-60.68,19.5-82.48
				c6.95-10.119,15.86-15.51,22.84-24.76c4.71,30.311,11.05,59.771,20.521,87.101c1.1,3.899,2.2,6.979,3.25,8.989
				c-1.12-2.97-2.21-5.96-3.25-8.989c-7.141-25.21-14.351-84.63-9.11-110.641c0.08-0.42,0.17-0.819,0.26-1.22
				c8.75-38.67,138.801-129.1,150.24-171.75c5.23-19.52,0.15-38.05-10.28-56.12c19.29,7.47,60.881-3.96,75.841-6.22
				c29.04-4.391,57.609-7.03,87.88-5.43c-5.24-8.08-4.41-19.58-4.66-29.521c-31.72-4.29-52.21-0.93-77.061-23.57
				c-19.96-18.18-32.68-36.83-60.01-41.989c-48.68-9.181-92.32-4.32-125-36.15c-1.57-7.85-1.81-15.84-0.38-24.01
				c4.7-26.721,109.08-51.88,122.68-145.86c0.98-6.8-1.52-15.25-6.43-24.83c8.72-1.569,17.31-3.66,27.13-4.43
				c19.99-1.58,40.22,1.1,59.99-1.34c39.86-4.92,74.86-13.62,113.36-23.99c-10.98-20.75-64.4-25.1-84.7-27.33
				c-16.24-1.78-36.91,2.38-52.66-2.55c-19.17-6-34.75-26.73-48.13-40.75c-23.351-24.49-46.74-41.391-77.53-54.01
				c-18.64-7.65-24.11-9.851-37.66-23.86c-2.95-3.05-6.72-7.7-10.87-12.17c11.551-29.271,38.23-72.811,42.21-85.29
				c5.7-17.84,25.49-22.37,18.891-51.76c15.979-0.5,24.859-11.521,40.06-13.931c0.181-3.109,0.32-6.199,0.431-9.279
				c18.68,2.189,37.3-1.65,60.6-1.65c29.13,0,61.15,3.86,89.979,0.31c61.061-7.52,120.41-13.31,184.011-12.17
				c-16.36-4.659-35.71-7.97-52.061-13.18c-26.42-8.43-52.149-30.02-79.6-39.42c-38.47-13.18-73.58-7.73-106.34-35.88
				c-12.721-10.93-25.601-25.101-41.681-31.61c-20.25-8.21-38.319-5.51-47.08-30.04c-7.3-20.41,8.91-104.58-25.22-101.96l-0.53,0.05
				c-4.109-39.77-7.119-79.989,1.87-114.05c5.99-22.689,24.63-39.41,31.471-58.46c10.949-0.609,21.04-1.5,27.18-1.5
				c26.689,0,47.58,1.38,71.85,7.47c25.19,6.32,51.561,4.53,78.12,4.521c26.99,0,56.12-8.98,81.84-5.68
				c-13.14-15.11-60.72-6.271-80.5-13.65c-24.08-8.979-46.949-25.72-73.319-28.79c-29.561-3.45-62.891,9.91-82.48-11.75
				c-15.05-16.62-24.81-52.05-31.81-73l-0.37,0.021c-3.101-57.181-7.17-125.811,7.57-178.2c13.72,1.069,21.909-7.54,34.06-7.95
				c4.36-74.54-17.5-127.6-27.6-196.9c-9.96-68.38,54.97-112.9,52.64-179.98l39.28-227.96l73.399,47.51
				c-1.75,33.86-4.729,67.47-4.729,102.49c0,21.25-0.57,42.47,4.37,61.32c6.08,23.23,10,44.89,7.63,70.65
				c-1.95,21.13-9.82,40.3-12.12,59.85c-2.771,23.61,3.899,48.79,0.28,72.27c-5.74,37.31-55.86,75.07-82.33,100.79
				c20.62,7.07,46.83-12.07,66.6-17.07c14-3.54,25.89-9.14,39.45-12.01c12.13-2.58,23.24-2.35,34.78-4.3l1.35,16.399l112.76,90.761
				c57.601,126.72,67.75,273.85,73.21,407.149c1.351,32.931,11.55,58.58,18.13,89.84c10.82,51.351,11.19,40.86,40.19,79.32
				C3756.1,1604.606,3769.15,1700.946,3762.93,1758.026z M3172.72,3306.076c0.82,11.66,1.38,23.21,1.391,34.561
				C3174.11,3328.996,3173.62,3317.486,3172.72,3306.076z M3345.91,3013.186c-21.97,22.8-45.73,44.52-68.49,65.8
				c-43.32,40.51-88.37,22.18-144.71,31.21c15.25,19.21,19.44,73.09,24.88,98.98c6.74,32.14,12.521,63.899,15.09,96.37
				c-3.64-51.37-12.449-104.931-3.66-153.95c28.15-6.851,36.99,12.64,47.37,33.71c-0.72-21.75-6.739-57.94,5.57-76.471
				c13.31,8.66,26.61,36.65,30.42,54.131c4.66,21.33-11.39,48.149,22.66,49.04c10.16,42.699,9.79,81.14,29.56,120.239
				c10.591,20.94,17.74,28.98,19.48,52.681c1.95,26.51,5.67,46.43,12.02,71.84c20.341,81.38,32.7,164.26,38.33,248.03
				c1.641,34.6,3.44,69.399,3.63,104.539c-0.109-34.97-1.3-69.829-3.63-104.539c-0.989-20.7-1.91-41.32-2.38-61.9
				c-1.359-59.08-2.43-125.98-11.649-184.49c-10.351-65.689-3.601-134.8-10.99-200.96c-5.891-52.72-8.07-112.439-7.61-165.25
				C3341.89,3081.726,3342.02,3040.375,3345.91,3013.186z"/>
			<path fill="#0A1726" d="M3910.62,2102.816c0.29,27.11,0.54,148.7,0.76,322.72c-3.86-8.25-7.71-16.47-10.1-24.42
				c-7.061-23.46-15.681-41.16-25.29-64.17c-12.021,30.76-40.37,204.64-64.96,201.36c2.779-27.74-12.17-59.62-13.04-89.2
				c-1.061-35.64-4.42-69.08-12.17-103.31c-9.63-42.49-17.101-86.91-25.301-130.66c-4.909-26.181-2.779-51.78-5.859-78.12
				c-1.601-13.641-1.9-45.71-9.351-53.351c0.71,7.811-4.02,15.07-5.67,21.391c-15.77-10.82-7.09-40.971-24.439-51.391
				c-8.24,38.471-14.87,75.53-24.88,114.841c-13.15,51.59-40.62,101.979-49.78,154.29c-12.48-11.771-5.521-75.771-3.19-94.48
				c4.69-37.68,4.67-76.23,4.67-115.14c0-34.301-5.529-55.33,17.841-78.15c5.52-5.39,9.85-2.12,16.79-11.85
				c0.35-0.49,5.67-12.351,6.02-13.311c4.72-12.76,4.51-27.64,8.67-40.66c9.82-30.729,13.68-43.67,39.19-61.319
				c20.89-14.46,56.29-29.03,69.08-52.37c12.97-23.66-1.62-46.69-7.98-68.771c8.44,12.41,15.521,23.98,15.84,24.7
				c13.82,31.22,10.061,72.58,28.271,101.87c16.899,27.17,48.979,33.12,64.42,58.04
				C3919.59,2002.736,3910.24,2066.976,3910.62,2102.816z"/>
			<path fill="#0A1726" d="M3684,2407.306c16.38-4.13,30.51-14.84,46.06-18.59c-27.46,11.699-47.64,41.14-68.409,61.6
				c-23.48,23.14-49.891,58.83-66.12,88.97c-30.03,55.75-13.5,154.66-13.5,220.311c0,53.069,6.09,103.81,5.989,156.109
				c-0.069,39.15-5.09,82.49-0.31,121.311c4.87,39.47,6.31,78.81,6.31,119.979c0,17.99-0.109,35.99,0,53.99
				c0.12,19.16-8.64,34.64-7.329,52.17c-26.58-50.25-15.671-118.64-28.99-171.82c-15.66-62.51-21.99-132.97-29.8-198.289
				c-6.46-53.971-14.86-110.5-35.86-162.28c-8.51-20.98-31.16-35.641-30.11-59.51c0.771-17.37,23.471-64.58,33.73-74.07
				c5.75-5.11,11.79-10.15,15.87-15.771c9.93-13.68,16.89-29.21,27.02-42.449c16.2-21.17,41.79-30.761,57.12-52.17
				c15.521-21.69,20-52.5,44.72-69.28C3652.8,2409.096,3669.7,2410.906,3684,2407.306z"/>
			<path fill="#0A1726" d="M3574.07,1735.416c-63.601-1.14-122.95,4.65-184.011,12.17c-28.829,3.551-60.85-0.31-89.979-0.31
				c-23.3,0-41.92,3.84-60.6,1.65c2.069-62.19-11.551-119.091-11.391-181.641c0.07-26.02-3.52-54.84-6.53-83.91l0.53-0.05
				c34.13-2.62,17.92,81.55,25.22,101.96c8.761,24.53,26.83,21.83,47.08,30.04c16.08,6.51,28.96,20.681,41.681,31.61
				c32.76,28.149,67.87,22.7,106.34,35.88c27.45,9.4,53.18,30.99,79.6,39.42C3538.36,1727.446,3557.71,1730.756,3574.07,1735.416z"
				/>
			<path fill="#0A1726" d="M3513.89,1315.676c-25.72-3.301-54.85,5.68-81.84,5.68c-26.56,0.01-52.93,1.8-78.12-4.521
				c-24.27-6.09-45.16-7.47-71.85-7.47c-6.14,0-16.23,0.891-27.18,1.5c0.869-2.42,1.55-4.88,1.989-7.39
				c4.681-26.73-9.3-72.851-10.8-102.101c-0.22-4.21-0.45-8.51-0.68-12.869l0.37-0.021c7,20.95,16.76,56.38,31.81,73
				c19.59,21.66,52.92,8.3,82.48,11.75c26.37,3.07,49.239,19.811,73.319,28.79C3453.17,1309.406,3500.75,1300.566,3513.89,1315.676z
				"/>
			<path fill="#0A1726" d="M3444.05,457.506l34.641,421.51c-11.54,1.95-22.65,1.72-34.78,4.3c-13.561,2.87-25.45,8.47-39.45,12.01
				c-19.77,5-45.979,24.141-66.6,17.07c26.47-25.72,76.59-63.48,82.33-100.79c3.619-23.48-3.051-48.66-0.28-72.27
				c2.3-19.55,10.17-38.72,12.12-59.85c2.37-25.76-1.55-47.42-7.63-70.65c-4.94-18.85-4.37-40.07-4.37-61.32
				c0-35.02,2.979-68.63,4.729-102.49L3444.05,457.506z"/>
			<path fill="#0A1726" d="M3364.74,2042.526c20.3,2.23,73.72,6.58,84.7,27.33c-38.5,10.37-73.5,19.07-113.36,23.99
				c-19.771,2.439-40-0.24-59.99,1.34c-9.82,0.77-18.41,2.86-27.13,4.43c-26.12-51.06-120.19-134.359-116.25-172.399
				c0.5-4.761,2.4-10.98,5.18-18.03c4.15,4.47,7.92,9.12,10.87,12.17c13.55,14.01,19.021,16.21,37.66,23.86
				c30.79,12.619,54.18,29.52,77.53,54.01c13.38,14.02,28.96,34.75,48.13,40.75C3327.83,2044.906,3348.5,2040.746,3364.74,2042.526z
				"/>
			<path fill="#0A1726" d="M3395.16,2396.026c0.25,9.94-0.58,21.44,4.66,29.521c-30.271-1.601-58.84,1.039-87.88,5.43
				c-14.96,2.26-56.551,13.689-75.841,6.22c-27.649-47.87-92.869-92.39-103.01-142.88c32.68,31.83,76.32,26.97,125,36.15
				c27.33,5.159,40.05,23.81,60.01,41.989C3342.95,2395.096,3363.44,2391.736,3395.16,2396.026z"/>
			<linearGradient id="SVGID_5_" gradientUnits="userSpaceOnUse" x1="3376.2441" y1="3809.3354" x2="3376.2441" y2="3704.7964">
				<stop  offset="0.0354" style="stop-color:#0B141F"/>
				<stop  offset="1" style="stop-color:#0C4C52"/>
			</linearGradient>
			<path fill="url(#SVGID_5_)" d="M3378.06,3809.335c-0.189-35.14-1.989-69.939-3.63-104.539
				C3376.76,3739.506,3377.95,3774.366,3378.06,3809.335z"/>
			<path fill="#0A1726" d="M3372.05,3642.896c0.47,20.58,1.391,41.2,2.38,61.9c-5.63-83.771-17.989-166.65-38.33-248.03
				c-6.35-25.41-10.069-45.33-12.02-71.84c-1.74-23.7-8.89-31.74-19.48-52.681c-19.77-39.1-19.399-77.54-29.56-120.239
				c-34.05-0.891-18-27.71-22.66-49.04c-3.81-17.48-17.11-45.471-30.42-54.131c-12.31,18.53-6.29,54.721-5.57,76.471
				c-10.38-21.07-19.22-40.561-47.37-33.71c-8.789,49.02,0.021,102.58,3.66,153.95c-2.569-32.471-8.35-64.23-15.09-96.37
				c-5.439-25.891-9.63-79.771-24.88-98.98c56.34-9.03,101.39,9.3,144.71-31.21c22.76-21.28,46.521-43,68.49-65.8
				c-3.891,27.189-4.021,68.54-4.11,79.01c-0.46,52.811,1.72,112.53,7.61,165.25c7.39,66.16,0.64,135.271,10.99,200.96
				C3369.62,3516.916,3370.69,3583.816,3372.05,3642.896z"/>
			<linearGradient id="SVGID_6_" gradientUnits="userSpaceOnUse" x1="3173.415" y1="3340.6362" x2="3173.415" y2="3306.0757">
				<stop  offset="0.0354" style="stop-color:#0B141F"/>
				<stop  offset="1" style="stop-color:#0C4C52"/>
			</linearGradient>
			<path fill="url(#SVGID_6_)" d="M3174.11,3340.636c-0.011-11.351-0.57-22.9-1.391-34.561
				C3173.62,3317.486,3174.11,3328.996,3174.11,3340.636z"/>
			<linearGradient id="SVGID_7_" gradientUnits="userSpaceOnUse" x1="3106.6152" y1="2785.9155" x2="3106.6152" y2="2776.9263">
				<stop  offset="0.0354" style="stop-color:#0B141F"/>
				<stop  offset="1" style="stop-color:#0C4C52"/>
			</linearGradient>
			<path fill="url(#SVGID_7_)" d="M3104.99,2776.926c1.04,3.029,2.13,6.02,3.25,8.989
				C3107.19,2783.906,3106.09,2780.826,3104.99,2776.926z"/>
			<path fill="#0A1726" d="M3064.79,2515.096c7.61,55.38,10.65,116.62,19.68,174.729c-6.979,9.25-15.89,14.641-22.84,24.76
				c-14.96,21.801-18.62,54.62-19.5,82.48c-1.09,34.61,7.46,55.85-19.66,76.34c-14.47,10.94-22.02,16.12-28.489,31.48
				c-5.4,12.83-3.48,23.04-13.051,35.84c-22.29,29.81-42.37,47.82-52.93,84.27c-8.1,27.95-11.27,60.221-18,90.011
				c-6.93,30.649-8.02,81.54-29.97,106.47c-14.86-12.641-5.86-62.68-5.86-82.48c0-31.31,0.1-59.71,6.33-90.149
				c10.42-50.99,5.96-103.11,12.57-154.891c30.08-4.05,38.569,4.19,53.08-24.93c11.22-22.5,16.56-48.7,23.83-71.96
				c6.279-20.11,62.369-114.62,6.909-109c-0.229-12.82,13.96-40.24,28.511-41.99c-9.41-22.88,0.229-47.899-12.78-69.77
				c-13.851-23.26-21.89-25.021-22.47-56.37c-0.87-46.311,3.54-83.7,6.42-128.55c-10.811,5.529-32.86,10.3-46.15,10.189
				c30.35-46.319,60.35-102.2,41.39-156.71c-16.699-48.04-7.81-114.37-7.659-167.66c0.149-52.439-12.94-116.55-31.17-166.63
				c-10.62-29.18-22.011-50.17-15.49-83.979c1.33-6.88,8.25-23.101,15.729-37.141c0.2,80.561,35.471,165.471,47.59,245.74
				c12.25,81.13,43.921,152.62,36.131,239.95c-5.891,65.97,9.13,55.229,31.329,107.84
				C3062.33,2416.306,3059.78,2478.596,3064.79,2515.096z"/>
			<path fill="#0A1726" d="M2909.52,2858.246c-4.529,11.73-31.02,18.98-43,27.301c-20.069,13.93-27.699,16.819-28.35,43.489
				c-1.33,54.46-3.56,108.2-7.31,161.49c-7.83-8.04-7.38-40.59-9.37-54.99c-3.05-22.12-6.021-43.64-8.63-65.84
				c-4.23-35.93-12.74-71.31-17.341-106.55l0.66-0.09C2833.4,2863.056,2874.13,2852.146,2909.52,2858.246z"/>
		</g>
		<g>
		</g>
	</g>
</g>
<g id="Layer_5">
	<linearGradient id="SVGID_8_" gradientUnits="userSpaceOnUse" x1="402.978" y1="4505.0659" x2="402.9779" y2="1663.2661">
		<stop  offset="0.0354" style="stop-color:#171C2F"/>
		<stop  offset="1" style="stop-color:#162D39"/>
	</linearGradient>
	<path fill="url(#SVGID_8_)" d="M-29.254,1663.266c56.429,29.618,71.475,92.374,71.986,157.245
		c0.55,69.773,18.77,97.993,40.518,157.244c8.878,24.187,7.765,66.728,19.31,85.348c18.902,30.488,34.61,20.599,58.931,40.467
		c-9.531-7.785,52.041,62.424,48.011,52.543c10.728,26.307,21.114,43.671-16.183,52.25c42.805,54.432,140.483,5.743,185.793,55.726
		c17.03,18.785,6.681,70.392,30.741,92.683c16.82,15.584,49.402,2.117,69.883,28.844c-10.634,22.676-31.994,46.242-46.604,62.58
		c53.125,12.701,110.361,38.775,156.387,67.151c4.384-0.183,4.227-0.46-0.47-0.829c-10.007,41.051-9.056,83.422-53.959,106.754
		c21.483,10.895,43.155,30.059,65.86,38.192c24.922,8.928,45.047-7.562,71.944,23.489c-0.837-3.325-0.542-6.574,0.886-9.746
		c20.723,13.766,63.627,37.472,58.771,71.115c-6.765,46.865-33.694,9.006-58.729,34.088c-5.666,5.677-15.936,51.113-25.233,64.166
		c-17.775,24.956-52.712,16.311-47.063,64.4c84.247,29.838,148.294,29.61,238.16,34.891c20.904,59.947-28.287,88.026-22.224,142.813
		c6.953,62.822,73.857,88.885,83.407,137.928c4.071,20.906-14.87,1282.459-14.87,1282.459l-981.487-16L-29.254,1663.266z"/>
	<g id="XMLID_1_">
		<g>
			<linearGradient id="SVGID_9_" gradientUnits="userSpaceOnUse" x1="402.9766" y1="4505.0659" x2="402.9765" y2="2181.7856">
				<stop  offset="0.0354" style="stop-color:#090D1C"/>
				<stop  offset="1" style="stop-color:#163D52"/>
			</linearGradient>
			<path fill="url(#SVGID_9_)" d="M95.86,2787.886c-0.15,0-1.25,0.08-2.78,0.21c52.94-34.511,79.61-2.86,138.05,20.27
				c32.29,12.78,148.18-43.819,171.85-72.83c-62.67-38.25-160.42,11.33-218.47-35.85c-53.96-43.851-76.65-92.99-115.94-145.04
				c-46.65-61.8-79.68-50.12-92.13-139c-2.65-18.91-10.53-98.271-19.99-142.3l2.15-91.561c4.24,1.101,9.42,1.58,18.13,3.41
				c26.04,5.46,52.06,12.12,78,17.84c28.51,6.28,55.43,16.721,83.99,18.13c19.88,0.99,38.72-3.409,57.2-9.71
				c40.25,45.23,122.92,10.78,170.74,42.011c-18,13.97-43.2,18.75-61.62,32.04c-40.32,29.1-173.72,26.989-220.31,43.64
				c18.31,6.6,149.33,28.04,168.27,23.99c29.3-6.261,58.89-6.08,89.68-5.99c20.65,0.06,37.77-1.5,55.63-8.68
				c2.62,7.08,6.25,13.399,11.54,18.31c16.82,15.58,49.41,2.11,69.89,28.84c-10.64,22.67-32,46.24-46.61,62.58
				c52.3,12.5,108.58,37.96,154.23,65.84c-15.45,4.761-31.73,5.261-52.72,8.4c-15.08,2.26-33.06,6.96-47.99,10.33
				c-14.22,3.21-34.85,2.37-47.97,7.38c-32.68,12.47-40.1,55.64-78.01,65.229c-17.23,4.36-75.2-0.489-71.19,28.66
				c32.95,5.471,64.4-3.87,96.68-4.93c32.22-1.07,63.84,0.85,94.49,4.64c24.61,3.04,46.64,0.38,68.82-4.17
				c16.8,10.57,33.83,23.561,51.48,29.891c24.92,8.93,45.05-7.561,71.95,23.489c-0.84-3.33-0.55-6.58,0.88-9.75
				c20.72,13.771,63.63,37.471,58.77,71.12c-0.02,0.141-0.04,0.28-0.06,0.42c-10.16,0.04-20.19-0.35-29.89-1.55
				c-14.88-1.85-32.31-11.16-48.13-6.25c-14.25,4.42-17.23,13.92-28.21,25.75c-34.31,37-100.15,54.96-110.95,117.72
				c-33.09-13.76,14.8-74.689-15.18-99.119c-29.07,19.689-28.14,58.319-47.83,83.359c-15.82,20.11-58.38,33.92-67.01,57.311
				c13.35,2.01,26.28-6.54,41.37-5.08c16.7,1.609,30.33,6.26,47.99,6.14c32.8-0.24,64.97,3.26,95.98-7.5
				c10.55-3.66,20.63-8.12,30.49-12.81c0.1,1.369,0.23,2.79,0.41,4.26c84.24,29.84,148.29,29.609,238.16,34.89
				c20.9,59.95-28.29,88.03-22.23,142.811c6.96,62.83,73.86,88.89,83.41,137.93c4.07,20.91-14.87,1282.46-14.87,1282.46l-981.49-16
				l47.25-2015.48l30.79,712.061c11.39,31.15,110.3,85.45,144.26,95.78c4.58,84.92,9.38,163.109,24.43,245.04
				c14.34,78.1-20.96,123.18,0.15,195.64c41.34,141.86,15.23,312.26,46.15,458.85c0.19-176.84,30.52-345.92,23.26-521.939
				c-3.8-92.36-1.42-400.311-1.42-400.311l-134.62-77.72c2.41,0.65,138.31,37.46,182.51,4.08c13.62,28.14,27.87,54.44,62.93,45.72
				c2.32,26.53,12.22,47.851,34.86,56.95c3.9,147.96-2.41,308.22,6.53,457.73c30.37-110.69,29.6-242.131,35.16-357.851
				c2.95-61.39-24.46-302.3,58.55-273.75c4.29-55.7,115.19-71.29,155.86-66.14c-5.24,84.77,8.03,169.52,11.45,259.6
				c-0.23,11.431-0.01,22.84,0.77,34.2c-0.06-11.49-0.34-22.89-0.77-34.2c1.95-98.229,36.74-199.02,30.7-297.439
				c17.81-0.311,37.47-3.4,55.48-0.63c-56.33-15.29-101.58-34.95-161.09-38.051c-32.04-1.67-67.87-8.97-103.3-6.46
				c-28.78,2.051-48.02,15.71-70.61,19.24c-48.51,7.58-105.65,10.75-151.37,12.32c-47.97,1.649-101.5-51.5-133.95,4.1
				c-7.23-35.72-15.34-88.16-15.8-124.16c-0.41-32.56,16.97-51.68-0.63-87.12c1.42-0.199,7.43-0.729,11.04-1.029
				c-0.04,0.029-0.08,0.05-0.12,0.08C94.84,2788.006,95.71,2787.916,95.86,2787.886z"/>
			<path fill="#021126" d="M702.6,2743.196c9.7,1.2,19.73,1.59,29.89,1.55c-6.86,46.21-33.71,8.66-58.67,33.66
				c-5.66,5.68-15.93,51.12-25.23,64.17c-17.24,24.2-50.59,16.811-47.47,60.141c-9.86,4.689-19.94,9.149-30.49,12.81
				c-31.01,10.76-63.18,7.26-95.98,7.5c-17.66,0.12-31.29-4.53-47.99-6.14c-15.09-1.46-28.02,7.09-41.37,5.08
				c8.63-23.391,51.19-37.2,67.01-57.311c19.69-25.04,18.76-63.67,47.83-83.359c29.98,24.43-17.91,85.359,15.18,99.119
				c10.8-62.76,76.64-80.72,110.95-117.72c10.98-11.83,13.96-21.33,28.21-25.75C670.29,2732.036,687.72,2741.346,702.6,2743.196z"/>
			<path fill="#021126" d="M84.76,3180.986l134.62,77.72c0,0-2.38,307.95,1.42,400.311c7.26,176.02-23.07,345.1-23.26,521.939
				c-30.92-146.59-4.81-316.989-46.15-458.85c-21.11-72.46,14.19-117.54-0.15-195.64c-15.05-81.931-19.85-160.12-24.43-245.04
				c-33.96-10.33-132.87-64.63-144.26-95.78l-30.79-712.061l4.69-200.239c9.46,44.029,17.34,123.39,19.99,142.3
				c12.45,88.88,45.48,77.2,92.13,139c39.29,52.05,61.98,101.189,115.94,145.04c58.05,47.18,155.8-2.4,218.47,35.85
				c-23.67,29.011-139.56,85.61-171.85,72.83c-58.44-23.13-85.11-54.78-138.05-20.27c-3.61,0.3-9.62,0.83-11.04,1.029
				c17.6,35.44,0.22,54.561,0.63,87.12c0.46,36,8.57,88.44,15.8,124.16c32.45-55.6,85.98-2.45,133.95-4.1
				c45.72-1.57,102.86-4.74,151.37-12.32c22.59-3.53,41.83-17.189,70.61-19.24c35.43-2.51,71.26,4.79,103.3,6.46
				c59.51,3.101,104.76,22.761,161.09,38.051c-18.01-2.771-37.67,0.319-55.48,0.63c6.04,98.42-28.75,199.21-30.7,297.439
				c-3.42-90.08-16.69-174.83-11.45-259.6c-40.67-5.15-151.57,10.439-155.86,66.14c-83.01-28.55-55.6,212.36-58.55,273.75
				c-5.56,115.72-4.79,247.16-35.16,357.851c-8.94-149.511-2.63-309.771-6.53-457.73c-22.64-9.1-32.54-30.42-34.86-56.95
				c-35.06,8.721-49.31-17.58-62.93-45.72C223.07,3218.446,87.17,3181.636,84.76,3180.986z"/>
			<path fill="#021126" d="M632.61,3307.326c0.43,11.311,0.71,22.71,0.77,34.2C632.6,3330.166,632.38,3318.756,632.61,3307.326z"/>
			<linearGradient id="SVGID_10_" gradientUnits="userSpaceOnUse" x1="590.8169" y1="2515.3462" x2="590.8169" y2="2514.5161">
				<stop  offset="0.0354" style="stop-color:#090D1C"/>
				<stop  offset="1" style="stop-color:#163D52"/>
			</linearGradient>
			<path fill="url(#SVGID_10_)" d="M589.05,2514.516c4.7,0.37,4.85,0.649,0.47,0.83c-0.19-0.12-0.38-0.24-0.58-0.36
				C588.97,2514.826,589.01,2514.676,589.05,2514.516z"/>
			<path fill="#021126" d="M587.36,2514.036c0.53,0.311,1.06,0.63,1.58,0.95c-9.89,40.9-9.12,83.04-53.85,106.29
				c4.78,2.43,9.57,5.26,14.38,8.3c-22.18,4.55-44.21,7.21-68.82,4.17c-30.65-3.79-62.27-5.71-94.49-4.64
				c-32.28,1.06-63.73,10.4-96.68,4.93c-4.01-29.149,53.96-24.3,71.19-28.66c37.91-9.59,45.33-52.76,78.01-65.229
				c13.12-5.01,33.75-4.17,47.97-7.38c14.93-3.37,32.91-8.07,47.99-10.33C555.63,2519.296,571.91,2518.796,587.36,2514.036z"/>
			<path fill="#021126" d="M379.11,2264.085c13.28,14.66,9.91,49.28,19.2,74.381c-17.86,7.18-34.98,8.739-55.63,8.68
				c-30.79-0.09-60.38-0.271-89.68,5.99c-18.94,4.05-149.96-17.391-168.27-23.99c46.59-16.65,179.99-14.54,220.31-43.64
				c18.42-13.29,43.62-18.07,61.62-32.04C371.14,2256.396,375.31,2259.896,379.11,2264.085z"/>
			<linearGradient id="SVGID_11_" gradientUnits="userSpaceOnUse" x1="90.3374" y1="2196.3062" x2="90.3374" y2="1663.2661">
				<stop  offset="0.0354" style="stop-color:#090D1C"/>
				<stop  offset="1" style="stop-color:#163D52"/>
			</linearGradient>
			<path fill="url(#SVGID_11_)" d="M209.5,2156.116c7.02,17.21,13.89,30.59,7.36,40.19c-21.79-5.26-46.74-19.38-60.28-23.13
				c-45.2-12.5-61.66-42.65-97.18-70.79c-29.11-23.061-66.45-13.971-98.21-31.34l9.56-407.78c56.43,29.62,71.47,92.37,71.98,157.25
				c0.55,69.77,18.77,97.99,40.52,157.24c8.88,24.189,7.77,66.729,19.31,85.35c18.81,30.35,34.46,20.69,58.59,40.19
				C153.57,2097.625,213.48,2165.866,209.5,2156.116z"/>
			<path fill="#021126" d="M216.86,2196.306c-3.45,5.069-10.64,9.09-23.54,12.06c0.84,1.07,1.7,2.101,2.6,3.09
				c-18.48,6.301-37.32,10.7-57.2,9.71c-28.56-1.409-55.48-11.85-83.99-18.13c-25.94-5.72-51.96-12.38-78-17.84
				c-8.71-1.83-13.89-2.31-18.13-3.41l2.59-110.739c31.76,17.369,69.1,8.279,98.21,31.34c35.52,28.14,51.98,58.29,97.18,70.79
				C170.12,2176.926,195.07,2191.046,216.86,2196.306z"/>
			<path fill="#021126" d="M95.86,2787.886c-0.15,0.029-1.02,0.12-2.9,0.29c0.04-0.03,0.08-0.051,0.12-0.08
				C94.61,2787.966,95.71,2787.886,95.86,2787.886z"/>
			<path fill="#021126" d="M-43.55,2273.346l-4.69,200.239l-9.88-228.34C-53.17,2238.786-48.17,2251.856-43.55,2273.346z"/>
		</g>
		<g>
		</g>
	</g>
</g>
<g id="Layer_8">
	<g id="XMLID_3_">
		<g>
			<linearGradient id="SVGID_12_" gradientUnits="userSpaceOnUse" x1="945.46" y1="4386.7261" x2="945.4599" y2="2375.936">
				<stop  offset="0" style="stop-color:#0A2933"/>
				<stop  offset="0.1911" style="stop-color:#0C3039"/>
				<stop  offset="0.4609" style="stop-color:#13424B"/>
				<stop  offset="0.7759" style="stop-color:#1E6069"/>
				<stop  offset="1" style="stop-color:#277A82"/>
			</linearGradient>
			<path fill="url(#SVGID_12_)" d="M910.66,3548.625c-0.01,0-0.01,0-0.01,0c-3.47-1.1-6.37-2.51-8.5-4.34
				c-0.53-0.81-1.2-1.52-2.01-2.149c0.56,0.779,1.24,1.489,2.01,2.149c0.8,1.25,1.27,2.7,1.4,4.38
				c-5.76,0.11-11.48,0.42-17.07,1.131c-3.75,29.35,0.31,59.489,5.09,87.75c3.61,21.35,1.21,61.729,22.82,72.699
				c-0.07-20.41,4.84-45.41,7.03-66.68c1.51-14.59,3.52-45.21,16.96-52.22c0.06,25.7,17.21,82.35,41.97,94.899
				c4.72-28.54,7.95-54.46,14.22-82.88c28.08,2.91,17.6,51.84,29.14,69.69c4.37-17.26,5.62-32.05,5.83-50.36
				c0,40.28-10.69,99.66,7.33,135.4c18.9-7.33,14.01-58.49,16.55-76.24c5.36-37.49,25.85-86.34,23.34-123.17
				c-0.76-11.25-0.22-16.88-6.25-26.72c-25.5-10.131-19.28,24.989-34.68,34.02c-15.78,9.25-31.27-4.89-43.62-9.59
				C975.54,3550.056,932.2,3555.436,910.66,3548.625z M756.81,3654.776c6.96-0.729,12.44-2.65,15.52-6.35
				C767.24,3650.786,762.06,3652.896,756.81,3654.776z M1116.71,3557.146c3.1-17.69,13.09-34.3,12.83-51.5
				c19.17-3.76,24.27,27.74,35.12,39.13c1.58-17.3,13.44-33.91,17.85-49.92c1.39,12.41,7.43,22.54,13.48,33.56
				c19.08-15.1,22.95-48.409,29.98-71.64c6.24-20.6,17.51-38.5,23.71-58.94c19.32-0.71,34.77,23.28,58.78,17.37
				c3.25-0.8,6.22-2.02,8.95-3.59c66.9-9.31,75.18,21.24,128.9,61.641c25.5,19.189,58.03,27.029,79.44,42.189
				c29,20.53,35.89,45.64,75.43,56.23c-22.4,20.89-42.31,34.09-76.74,35.21c-14.09,0.449-33.6-3.84-46.63,1.35
				c-16.15,6.44-15.4,17.55-26.57,28.45c-21.85,21.31-51.47,20.81-70.77,48.2c-13.78,19.56-38.21,47.25-64.8,47.199
				c-2.84-17-16.3-29.51-19.01-44.96c-18.02,22.04-25.56,44.261-48.16,63.73c-21.48,18.51-42.8,18.85-68.85,18.31
				c-7.16-1.159-14.07-1.63-19.32-0.31c6.75,0,13.17,0.18,19.32,0.31c9.61,1.561,19.69,4.351,26.85,5.7
				c17.29,3.271,32.08,6.03,47.82,12.15c13.64,5.31,27.64,19.939,41.86,24.12c14.99,4.39,40.34-2.87,54.61-5.96
				c28.24-6.12,58.98-17.091,85-28.851c14.06-6.359,24.48-15.75,35.52-23.59c18.57,24.36,21.22,67.521,52.26,70.98
				c5.72,28.27,78.05,47.949,78.05,47.949v515.061l-1312.32-5.28c0,0,68.03-92.53,101.94-126.7c-38.05-48.05-0.56-82.96,34.42-113.8
				c14.07,5.32,28.28,10.271,43.15,16.33c13.26,5.4,38.01,7.87,35.05,25.35c-3.4,20.08-31.23,20-22.3,47.23
				c18.84-0.99,35.2,7.47,52.03,13.95c0.76,9.189,0.25,19.16,1.96,28.35c20.15-2.97,39.57-14.87,58.77-17.71
				c22.49-3.33,46.13-3.49,66.29-11.689c19.3-7.851,31.78-28.471,51.73-37.75c30.26-14.101,71.37,0.619,103.47-5.29
				c1.71-27.98-33.7-22.98-53.08-22.95c-16.44,0.04-37.42,3.49-53.1-1.351c-9.6-2.96-20.8-17.26-31.33-17.399
				c-22.29-0.311-43.91,29.93-71.65,19.18c-31.54-12.22-22.59-42.26-18.79-65.229c-47.66-12.42-85.41-34.721-131.21-53.67
				c-20.62-8.53-42.03-16.561-55.63-35.851c-5.32-7.55-9.95-15.29-14.63-22.81c7.11-10.7,19.29-21.58,38-33
				c-31.41-13.87-80.62-94.5-94.61-126.25c12.96-12.2,113.29-120.23,127.17-131.521c-5.29-4.08-10.38-8.08-15.27-11.979
				c11.06-0.58,22.18-1.5,32.95,0c34.42,4.779,61.52,9.68,96.31-4.511c57.39-23.409,126.39-16.3,185.86-37.6
				c-26.79,2.82-75.56-12.07-94.54-11.9c-48.32,0.421-95.41-7.329-139.93-23.97c-35.81-13.39-73.26-12.85-109-28.68
				c-19.13-8.48-47.36-18.54-71.06-30.58c28.08-52.64,224.13-22.93,251.76-47.26c-5.56-2.57-10.65-5.73-15.33-9.36
				c15.51,3.22,31.06,5.6,45.94,7.86c27.35,4.149,66.71,16.37,91.61,7.8c7.5-2.58,5.72-13.11,16.35-14.351
				c12.53-1.46,9.68,10.551,17.97,11.211c13.5,1.069,14.43,6.84,22.53-10.04c7.41,33.04,59.71,57.479,84.9,75.43
				c-10.21-23.271-20.85-55.47-16.4-81.24c9.3-1.68,14.44,6.09,17.42,15.08c-4.35-39.979-37.79-37.94-65.08-47.22
				c-23.16-7.88-44.88-30.62-67.5-42.12c-26.55-13.49-52.21-4.521-83.84-4.521c-15.43,0-57.28,5.25-80.49-2.859
				c13.22-10.23,24.37-22.271,32.08-33.99c19.55,14.52,180.71-122.12,113.83-185.11c16.72-13.27,32.32-20.39,41.13-35.689
				c16.86,8.03,41.06,12.29,48.53,12.609c0.7,16.28,1.03,29.74,11.26,42.73c12.26,15.58,22.29,11.28,25.78,34.35
				c3.43,22.75-11.23,82.021,4.54,95.5c0.72-26.13,20.24-45.979,20.49-70.909c26.16,27.77,78.01-1.591,82.79-30.61
				c3.68-22.38,12.27-110.43-4.81-119.48c-0.44,27.351-28.03,50.25-49.02,65.32c-38.13,27.36-32.65-17.76-37.18-46.75
				c-23.11-11.51-45.41-10.86-65.09-30.89c-9.81-10-25.84-24.431-38.1-38.07c0.59-1.75,1.3-3.55,2.13-5.42
				c19.65-44,73.47-96.42,101.5-135.46c-5.64-0.94-10.46-2.561-14.64-4.73c14.66,2.091,29.55,4.07,45.24,2.23
				c29.99-3.521,58.87-14.99,89.64-18c-29.67-18.64-73.51-10.08-107.64-24c-16.47-6.71-37.47-11.05-52.63-18.01
				c-2.42-1.12-5.24-2.38-8.26-3.75c-1.35-4.091-2.82-8.12-4.5-12.011c14.91-1.39,21.9-11.319,34.47-14.39
				c-15.05-14.97-24.98-35.3-22.49-57.6c7.54-0.12,15.48-1.851,22.98-1.91c-5.21-22.88,4.88-43.01,5.39-69.91
				c-20.96-8.271-28.05-29.53-32.82-51.59c16.12-2.17,27.16-7.58,35.03-18.22c9.68-0.86,18.3-2.03,22.83-2.931
				c16.87-3.37,61-20.56,53.06-41.399c-23.67-0.96-42.12-8.65-65.05-14.351c-18.64-4.63-37.2-3.2-56.23-4.569l26.23-47.95
				c16.95-30.351,55.54-157.16,55.54-157.16s44.43,34.04,40.46,49.06c-13.8,2.78,14.65,77.4-0.17,78.46
				c24.94,16.95,82.24,80.94,105.63,117.061c-2.68,1.47-5.4,2.87-8.18,4.189c-17.03,8.061-37.36,11.58-55.47,16.21
				c-19.81,5.07-40.54,5.82-60.13,16.67c-18.28,10.131-33.66,21.65-52.48,30.131c53.69,10.649,109.28-9.75,160.76-16.78
				c7.03-0.96,13.99-1.79,20.89-2.63c36.19,24.62,86.57,46.149,108.89,76.439c-8.36,5.561-16.68,9.59-21.8,10.601
				c-26.51,5.22-56.17-4.96-82.65,0.899c-10.82,2.4-23.18,9.79-35.99,12.141c-11.4,2.09-23.42,4.71-37.33,4.66
				c-21.72-0.061-45.06,4.869-66.46,5.989c-5.14-0.38-10.37-0.41-15.71-0.01c5.08,0.34,10.33,0.3,15.71,0.01
				c52.03,3.84,95,43.65,148.99,41.98c32.34-1,68.89-9.08,99.96-17.07c-3.29,6.89-7.88,14.17-13.93,21.89
				c68.07,12.211,57.35,49.48,60.3,108.29c44.05,5.82,97.34,21.021,121.85,59.61c-10.95-2.5-22.41-3.72-32.77-4.71
				c-21.84-2.08-39.79,6.32-58.51,7.43c-9.93,0.591-6.59,2.551-18.16-1.33c-9.02-3.029-12-12.489-25.45-12.399
				c-16.74,0.12-29.47,22.38-43.32,1.03c-12.4,3.35-16.8,18.21-23.74,28.479c-13.39-6.41-31.86-21.729-45.75-22.46
				c-0.37,21.18-5.96,45.021-8.36,66.72c-0.87,7.891-1.56,16.811-2.74,25.67c-4.11,11.381-7.11,22.53-8.2,30.86
				c4.43-8.63,6.71-19.68,8.2-30.86c6.21-17.199,14.95-34.939,23.43-44.399c10.13,2.609,15.74,11.899,17.97,22.47
				c11.39-5.189,14.04-20.8,27.78-22.76c-1.25,19.63,4.14,45.25,6.57,65.51c1.58,13.16,4,59.5,10.97,65.51
				c3.1-26.6,5.35-64.88,23.98-83.05c-0.72,6.44,2.98,15.98,2.26,22.63c37.44,4.36,43.96-20.84,77.08-29.229
				c2.47-0.62,4.75-1.09,6.89-1.46c-5.49,5.47-11.51,10.68-18.44,15.38c30.16,21.6,81.92,36.6,118.77,47.229
				c-3.2,17.69-7.29,40.25-10.5,57.94c7.52,1.22,11.69,3.64,14.97,6.46c-10.92,6.52-22.89,18.55-29.33,23.06
				c-9.48,6.641-9.5,13.591-22.55,13.931c-10.8,0.27-14.74-15.21-28.77-11.521c-10.44,21.51-12.21,45.32-23.55,66.58
				c-14.9,27.92-21.95,29.59-48.13,17.09c-6.37,23.811-14.54,47.601-18.02,71.391c-3.35,22.939-14.7,48.3-14.33,71.199
				c-20.93,4.051-30.89-50.649-39.68-63.39C1124.12,3447.436,1117.86,3501.046,1116.71,3557.146z M1116.71,3557.156
				c-1.02,5.84-1.29,11.79-0.19,17.92C1116.52,3569.076,1116.58,3563.096,1116.71,3557.156z M654.25,3825.306
				c-19.55-4.07-36.68-11.44-57.22-21.03c10.8,24.26,26.01,46.65,39.43,68.05c12.21,19.48,10.13,59.771,25.35,75.29
				c12.66,12.92,25.6,3.03,41.11,6.891c8.81,2.189,22.5,11.09,29.68,16.97c13.59,11.12,19.74,5.38,4.49,23.8
				c-6.93,8.37-17.9,11.2-27.73,14.86c17.67,34.1,83.61,5.41,78.14,57.609c48.22,11.16,102.31,11.91,149.04-4.97
				c10.37-3.75,18.97-12.09,29.87-13.57c22.08-3,16.65,10.42,36.13,18.681c16.12,6.83,52.84,2.27,69.75,0
				c-8.97-20.931-4.93-43.011-14.25-65.08c-7.66-18.15-15.61-34.17-20.86-53.391c-18.69,14.9-97.36,9.21-118.62-0.149
				c-24.33-10.72-23.51-28.24-53.99-24.58c-26.01,3.12-41.53,13.08-67.32,6.11c-21.11-5.7-40.56-17.37-63.32-10.95
				c-9.65,2.72-10.21,11.37-25.33,11.09c-10.93-0.2-21.34-3.58-28.77-12.14C665.4,3902.206,650.75,3851.506,654.25,3825.306z"/>
			<path fill="#041C26" d="M1601.54,3571.776c3.39,44.39-94.88,156.63-136.3,174.29c2.21,2,4.22,4.24,6.07,6.67
				c-11.04,7.84-21.46,17.23-35.52,23.59c-26.02,11.76-56.76,22.73-85,28.851c-14.27,3.09-39.62,10.35-54.61,5.96
				c-14.22-4.181-28.22-18.811-41.86-24.12c-15.74-6.12-30.53-8.88-47.82-12.15c-7.16-1.35-17.24-4.14-26.85-5.7
				c26.05,0.54,47.37,0.2,68.85-18.31c22.6-19.47,30.14-41.69,48.16-63.73c2.71,15.45,16.17,27.96,19.01,44.96
				c26.59,0.051,51.02-27.64,64.8-47.199c19.3-27.391,48.92-26.891,70.77-48.2c11.17-10.9,10.42-22.01,26.57-28.45
				c13.03-5.189,32.54-0.9,46.63-1.35c34.43-1.12,54.34-14.32,76.74-35.21C1601.3,3571.716,1601.42,3571.746,1601.54,3571.776z"/>
			<path fill="#041C26" d="M1354.19,3204.396c4.19,3.62,6.92,7.88,13.37,11.08c-35.64,32.479-64.23,150.89-64.19,198.51
				c4.96-0.97,9.63-1.76,14.04-2.37c-2.73,1.57-5.7,2.79-8.95,3.59c-24.01,5.91-39.46-18.08-58.78-17.37
				c-6.2,20.44-17.47,38.341-23.71,58.94c-7.03,23.23-10.9,56.54-29.98,71.64c-6.05-11.02-12.09-21.149-13.48-33.56
				c-4.41,16.01-16.27,32.62-17.85,49.92c-10.85-11.39-15.95-42.89-35.12-39.13c0.26,17.2-9.73,33.81-12.83,51.5
				c1.15-56.1,7.41-109.71,13.12-164.41c8.79,12.74,18.75,67.44,39.68,63.39c-0.37-22.899,10.98-48.26,14.33-71.199
				c3.48-23.79,11.65-47.58,18.02-71.391c26.18,12.5,33.23,10.83,48.13-17.09c11.34-21.26,13.11-45.07,23.55-66.58
				c14.03-3.689,17.97,11.79,28.77,11.521c13.05-0.34,13.07-7.29,22.55-13.931C1331.3,3222.946,1343.27,3210.916,1354.19,3204.396z"
				/>
			<path fill="#041C26" d="M1311.26,2993.736c3.48,5.49,6.39,11.45,8.6,17.93c-33.57,15.08-47.38,42.75-70.47,65.721
				c-2.14,0.37-4.42,0.84-6.89,1.46c-33.12,8.39-39.64,33.59-77.08,29.229c0.72-6.649-2.98-16.189-2.26-22.63
				c-18.63,18.17-20.88,56.45-23.98,83.05c-6.97-6.01-9.39-52.35-10.97-65.51c-2.43-20.26-7.82-45.88-6.57-65.51
				c-13.74,1.96-16.39,17.57-27.78,22.76c-2.23-10.57-7.84-19.86-17.97-22.47c-8.48,9.46-17.22,27.2-23.43,44.399
				c1.18-8.859,1.87-17.779,2.74-25.67c2.4-21.699,7.99-45.54,8.36-66.72c13.89,0.73,32.36,16.05,45.75,22.46
				c6.94-10.27,11.34-25.13,23.74-28.479c13.85,21.35,26.58-0.91,43.32-1.03c13.45-0.09,16.43,9.37,25.45,12.399
				c11.57,3.881,8.23,1.921,18.16,1.33c18.72-1.109,36.67-9.51,58.51-7.43C1288.85,2990.016,1300.31,2991.236,1311.26,2993.736z"/>
			<linearGradient id="SVGID_13_" gradientUnits="userSpaceOnUse" x1="1169.9897" y1="3769.1655" x2="1169.9897" y2="3768.0581">
				<stop  offset="0" style="stop-color:#0A2933"/>
				<stop  offset="0.1911" style="stop-color:#0C3039"/>
				<stop  offset="0.4609" style="stop-color:#13424B"/>
				<stop  offset="0.7759" style="stop-color:#1E6069"/>
				<stop  offset="1" style="stop-color:#277A82"/>
			</linearGradient>
			<path fill="url(#SVGID_13_)" d="M1160.33,3768.856c5.25-1.32,12.16-0.85,19.32,0.31
				C1173.5,3769.036,1167.08,3768.856,1160.33,3768.856z"/>
			<path fill="#041C26" d="M1138.32,2744.746c12.17,16.5,16.02,35.59,4.72,59.2c-31.07,7.99-67.62,16.07-99.96,17.07
				c-53.99,1.67-96.96-38.141-148.99-41.98c21.4-1.12,44.74-6.05,66.46-5.989c13.91,0.05,25.93-2.57,37.33-4.66
				c12.81-2.351,25.17-9.74,35.99-12.141c26.48-5.859,56.14,4.32,82.65-0.899C1121.64,2754.335,1129.96,2750.306,1138.32,2744.746z"
				/>
			<linearGradient id="SVGID_14_" gradientUnits="userSpaceOnUse" x1="1116.2603" y1="3575.0757" x2="1116.2603" y2="3557.1558">
				<stop  offset="0" style="stop-color:#0A2933"/>
				<stop  offset="0.1911" style="stop-color:#0C3039"/>
				<stop  offset="0.4609" style="stop-color:#13424B"/>
				<stop  offset="0.7759" style="stop-color:#1E6069"/>
				<stop  offset="1" style="stop-color:#277A82"/>
			</linearGradient>
			<path fill="url(#SVGID_14_)" d="M1116.71,3557.156c-0.13,5.94-0.19,11.92-0.19,17.92
				C1115.42,3568.946,1115.69,3562.996,1116.71,3557.156z"/>
			<path fill="#041C26" d="M903.55,3548.666c2.36-0.05,4.73-0.06,7.1-0.04c0,0,0,0,0.01,0c21.54,6.811,64.88,1.431,81.55,7.771
				c12.35,4.7,27.84,18.84,43.62,9.59c15.4-9.03,9.18-44.15,34.68-34.02c6.03,9.84,5.49,15.47,6.25,26.72
				c2.51,36.83-17.98,85.68-23.34,123.17c-2.54,17.75,2.35,68.91-16.55,76.24c-18.02-35.74-7.33-95.12-7.33-135.4
				c-0.21,18.311-1.46,33.101-5.83,50.36c-11.54-17.851-1.06-66.78-29.14-69.69c-6.27,28.42-9.5,54.34-14.22,82.88
				c-24.76-12.55-41.91-69.199-41.97-94.899c-13.44,7.01-15.45,37.63-16.96,52.22c-2.19,21.27-7.1,46.27-7.03,66.68
				c-21.61-10.97-19.21-51.35-22.82-72.699c-4.78-28.261-8.84-58.4-5.09-87.75C892.07,3549.085,897.79,3548.776,903.55,3548.666z"/>
			<path fill="#041C26" d="M1058.04,4002.806c9.32,22.069,5.28,44.149,14.25,65.08c-16.91,2.27-53.63,6.83-69.75,0
				c-19.48-8.261-14.05-21.681-36.13-18.681c-10.9,1.48-19.5,9.82-29.87,13.57c-46.73,16.88-100.82,16.13-149.04,4.97
				c5.47-52.199-60.47-23.51-78.14-57.609c9.83-3.66,20.8-6.49,27.73-14.86c15.25-18.42,9.1-12.68-4.49-23.8
				c-7.18-5.88-20.87-14.78-29.68-16.97c-15.51-3.86-28.45,6.029-41.11-6.891c-15.22-15.52-13.14-55.81-25.35-75.29
				c-13.42-21.399-28.63-43.79-39.43-68.05c20.54,9.59,37.67,16.96,57.22,21.03c-3.5,26.2,11.15,76.899,25.58,93.49
				c7.43,8.56,17.84,11.939,28.77,12.14c15.12,0.28,15.68-8.37,25.33-11.09c22.76-6.42,42.21,5.25,63.32,10.95
				c25.79,6.97,41.31-2.99,67.32-6.11c30.48-3.66,29.66,13.86,53.99,24.58c21.26,9.359,99.93,15.05,118.62,0.149
				C1042.43,3968.636,1050.38,3984.656,1058.04,4002.806z"/>
			<linearGradient id="SVGID_15_" gradientUnits="userSpaceOnUse" x1="1048.3599" y1="3113.0259" x2="1048.3599" y2="3082.1655">
				<stop  offset="0" style="stop-color:#0A2933"/>
				<stop  offset="0.1911" style="stop-color:#0C3039"/>
				<stop  offset="0.4609" style="stop-color:#13424B"/>
				<stop  offset="0.7759" style="stop-color:#1E6069"/>
				<stop  offset="1" style="stop-color:#277A82"/>
			</linearGradient>
			<path fill="url(#SVGID_15_)" d="M1052.46,3082.166c-1.49,11.181-3.77,22.23-8.2,30.86
				C1045.35,3104.696,1048.35,3093.546,1052.46,3082.166z"/>
			<path fill="#041C26" d="M1024.04,2620.516c2.42,3.72,4.47,7.149,6.09,10.2c-8.85,3.779-17.44,14.06-25.16,17.71
				c6.73,6.97,15.12,13.52,24.46,19.88c-6.9,0.84-13.86,1.67-20.89,2.63c-51.48,7.03-107.07,27.43-160.76,16.78
				c18.82-8.48,34.2-20,52.48-30.131c19.59-10.85,40.32-11.6,60.13-16.67c18.11-4.63,38.44-8.149,55.47-16.21
				C1018.64,2623.386,1021.36,2621.986,1024.04,2620.516z"/>
			<path fill="#041C26" d="M937.73,3127.456c17.08,9.051,8.49,97.101,4.81,119.48c-4.78,29.02-56.63,58.38-82.79,30.61
				c-0.25,24.93-19.77,44.779-20.49,70.909c-15.77-13.479-1.11-72.75-4.54-95.5c-3.49-23.069-13.52-18.77-25.78-34.35
				c-10.23-12.99-10.56-26.45-11.26-42.73c-7.47-0.319-31.67-4.579-48.53-12.609c2.73-4.73,4.8-10.23,6.06-16.94
				c4.87-25.89-16.77-40.029-6.87-69.26c12.26,13.64,28.29,28.07,38.1,38.07c19.68,20.029,41.98,19.38,65.09,30.89
				c4.53,28.99-0.95,74.11,37.18,46.75C909.7,3177.706,937.29,3154.806,937.73,3127.456z"/>
			<path fill="#041C26" d="M972.21,2915.686c-30.77,3.01-59.65,14.479-89.64,18c-15.69,1.84-30.58-0.14-45.24-2.23
				c-21.6-11.239-25.65-37.35-33.65-61.529c3.02,1.37,5.84,2.63,8.26,3.75c15.16,6.96,36.16,11.3,52.63,18.01
				C898.7,2905.606,942.54,2897.046,972.21,2915.686z"/>
			<path fill="#041C26" d="M832.45,2628.976c-0.01,0-0.01,0-0.01,0c-13.55-17.601-29.48-55.561-37.73-44.92l1.64-3.01
				c19.03,1.369,37.59-0.061,56.23,4.569c22.93,5.7,41.38,13.391,65.05,14.351c7.94,20.84-36.19,38.029-53.06,41.399
				c-4.53,0.9-13.15,2.07-22.83,2.931c1.8-2.431,3.43-5.131,4.92-8.131C842.69,2639.625,837.75,2635.856,832.45,2628.976z"/>
			<linearGradient id="SVGID_16_" gradientUnits="userSpaceOnUse" x1="906.3999" y1="3548.6655" x2="906.3999" y2="3544.2856">
				<stop  offset="0" style="stop-color:#0A2933"/>
				<stop  offset="0.1911" style="stop-color:#0C3039"/>
				<stop  offset="0.4609" style="stop-color:#13424B"/>
				<stop  offset="0.7759" style="stop-color:#1E6069"/>
				<stop  offset="1" style="stop-color:#277A82"/>
			</linearGradient>
			<path fill="url(#SVGID_16_)" d="M910.65,3548.625c-2.37-0.02-4.74-0.01-7.1,0.04c-0.13-1.68-0.6-3.13-1.4-4.38
				C904.28,3546.116,907.18,3547.526,910.65,3548.625z"/>
			<linearGradient id="SVGID_17_" gradientUnits="userSpaceOnUse" x1="901.145" y1="3544.2856" x2="901.145" y2="3542.1362">
				<stop  offset="0" style="stop-color:#0A2933"/>
				<stop  offset="0.1911" style="stop-color:#0C3039"/>
				<stop  offset="0.4609" style="stop-color:#13424B"/>
				<stop  offset="0.7759" style="stop-color:#1E6069"/>
				<stop  offset="1" style="stop-color:#277A82"/>
			</linearGradient>
			<path fill="url(#SVGID_17_)" d="M902.15,3544.286c-0.77-0.66-1.45-1.37-2.01-2.149
				C900.95,3542.766,901.62,3543.476,902.15,3544.286z"/>
			<linearGradient id="SVGID_18_" gradientUnits="userSpaceOnUse" x1="886.2349" y1="2779.2671" x2="886.2349" y2="2778.7378">
				<stop  offset="0" style="stop-color:#0A2933"/>
				<stop  offset="0.1911" style="stop-color:#0C3039"/>
				<stop  offset="0.4609" style="stop-color:#13424B"/>
				<stop  offset="0.7759" style="stop-color:#1E6069"/>
				<stop  offset="1" style="stop-color:#277A82"/>
			</linearGradient>
			<path fill="url(#SVGID_18_)" d="M878.38,2779.026c5.34-0.4,10.57-0.37,15.71,0.01
				C888.71,2779.326,883.46,2779.366,878.38,2779.026z"/>
			<path fill="#041C26" d="M859.02,3514.776c-2.98-8.99-8.12-16.76-17.42-15.08c-4.45,25.771,6.19,57.97,16.4,81.24
				c-25.19-17.95-77.49-42.39-84.9-75.43c-8.1,16.88-9.03,11.109-22.53,10.04c-8.29-0.66-5.44-12.671-17.97-11.211
				c-10.63,1.24-8.85,11.771-16.35,14.351c-24.9,8.57-64.26-3.65-91.61-7.8c-14.88-2.261-30.43-4.641-45.94-7.86
				c-21.65-16.8-34.4-43.67-43.16-68.59c9.43-4.43,18.4-10.061,26.57-16.38c23.21,8.109,65.06,2.859,80.49,2.859
				c31.63,0,57.29-8.97,83.84,4.521c22.62,11.5,44.34,34.24,67.5,42.12C821.23,3476.835,854.67,3474.796,859.02,3514.776z"/>
			<path fill="#041C26" d="M409.71,4089.156c-25.2-33.38-42.41-60.83-23.32-89.52c4.68,7.52,9.31,15.26,14.63,22.81
				c13.6,19.29,35.01,27.32,55.63,35.851c45.8,18.949,83.55,41.25,131.21,53.67c-3.8,22.97-12.75,53.01,18.79,65.229
				c27.74,10.75,49.36-19.49,71.65-19.18c10.53,0.14,21.73,14.439,31.33,17.399c15.68,4.841,36.66,1.391,53.1,1.351
				c19.38-0.03,54.79-5.03,53.08,22.95c-32.1,5.909-73.21-8.811-103.47,5.29c-19.95,9.279-32.43,29.899-51.73,37.75
				c-20.16,8.199-43.8,8.359-66.29,11.689c-19.2,2.84-38.62,14.74-58.77,17.71c-1.71-9.189-1.2-19.16-1.96-28.35
				c-16.83-6.48-33.19-14.94-52.03-13.95c-8.93-27.23,18.9-27.15,22.3-47.23c2.96-17.479-21.79-19.949-35.05-25.35
				c-14.87-6.06-29.08-11.01-43.15-16.33c4.68-4.12,9.31-8.17,13.71-12.17C429.34,4114.526,418.98,4101.446,409.71,4089.156z"/>
			<linearGradient id="SVGID_19_" gradientUnits="userSpaceOnUse" x1="764.5698" y1="3654.7759" x2="764.5698" y2="3648.4263">
				<stop  offset="0" style="stop-color:#0A2933"/>
				<stop  offset="0.1911" style="stop-color:#0C3039"/>
				<stop  offset="0.4609" style="stop-color:#13424B"/>
				<stop  offset="0.7759" style="stop-color:#1E6069"/>
				<stop  offset="1" style="stop-color:#277A82"/>
			</linearGradient>
			<path fill="url(#SVGID_19_)" d="M772.33,3648.426c-3.08,3.699-8.56,5.62-15.52,6.35
				C762.06,3652.896,767.24,3650.786,772.33,3648.426z"/>
			<path fill="#041C26" d="M662.26,3642.875c18.98-0.17,67.75,14.721,94.54,11.9c-59.47,21.3-128.47,14.19-185.86,37.6
				c-34.79,14.19-61.89,9.29-96.31,4.511c-10.77-1.5-21.89-0.58-32.95,0c-89.91-71.75-112.28-113.13-99.41-137.24
				c23.7,12.04,51.93,22.1,71.06,30.58c35.74,15.83,73.19,15.29,109,28.68C566.85,3635.546,613.94,3643.296,662.26,3642.875z"/>
		</g>
		<g>
		</g>
	</g>
</g>
<g id="Layer_7">
	<g id="XMLID_4_">
		<g>
			<path fill="#042429" d="M3805.662,4073.681c0.63,0.021,1.26,0.03,1.899,0.04c-6.01,30.15-41.819,57.61-59.2,82.96
				c-16.93,24.69,2.19,23.761-23.88,43.301c-17.14,12.859-44.58,16.739-64.92,17.87c-15.01,49.689-60.479,73.199-97.33,105.43
				c-34.85,30.479-83.68,79.49-83.68,79.49l-1268.98-7.69c162.471-24.6,656.181-100.82,664-120.09
				c7.15-17.64,169.12-72.521,184.33-83.87c11.721,9.57,101.12,23.97,113.07,33.2c17.58,13.56,31.34,21.79,44.97,40.17
				c12.11,16.33,24.38,50.979,45.49,36.71c13.79-9.32,5.89-39.2,24-42.05c5.72,24.85,3.85,45.88,31.16,47.6
				c12.84,0.811,37.11-4.82,47.37-13.46c-18.45-16.55-17.57-78.96-5.53-100.76c13.01-23.55,37.4-45.94,52.65-69.601
				c12.79,11.131,23.5,31.921,38.819,38.681c14.561,6.42,35.761-0.94,51.301,2.569c17.71,4,27.43,13.471,49.34,10.78
				c15.989-1.96,39.97-8.01,52.64-19.33c12.67-11.33,21.28-53.16,37.17-58.029c12.4-3.79,31.16,12.52,48.19,11.369
				C3731.002,4106.112,3767.191,4087.721,3805.662,4073.681z"/>
			<linearGradient id="SVGID_20_" gradientUnits="userSpaceOnUse" x1="2157.4072" y1="4395.0815" x2="2157.4072" y2="3169.1001">
				<stop  offset="0" style="stop-color:#123C40"/>
				<stop  offset="1" style="stop-color:#2E7D75"/>
			</linearGradient>
			<path fill="url(#SVGID_20_)" d="M2016.031,4012.482c-8.42-0.24-16.829-0.11-24.72,1.55c2.05,18.06,14.23,34.32,28.05,48.3
				c16.19,16.38,17.561,18.89,36.131,4.521c12.939-10.011,24.96-24.15,37.479-34.32c15.23-12.37,35.61-30.12,41.19-48.87
				C2104.422,3988.242,2051.812,4020.931,2016.031,4012.482z M2066.132,3717.912c-9.03,0-21.82-14.14-47.94-24.271
				c89.2,83.11-3,61.801,98.641,61.261c33.85-0.17,59.77-6.7,88.76-17.4c6.3,39.29,0.39,76.05,14.55,112.07
				c11.23,28.54,13.58,123.91,30.37,138.81c4.66-32.64,13.73-65.5,10.15-95.37c-3.9-32.529,1.05-67.149-0.17-99.989
				c26.569,35.58,30.079,86.1,48.75,127.899c17.649-18.81,0.77-314.74,0.77-314.74s-98.03-118.3-116.25-134.27
				c2.3-39.521-0.61-61.84,17.85-90.45c8.7-13.49,22.98-15.01,31.341-27c8.96-12.85,4.56-34.05,11.71-43.62
				c25.93-34.67,241.609-65.859,259.109-36.89c16.91-2.18,35.771-0.76,51.75-10.36c1.12,3.851,2.26,7.9,3.431,12.09
				c-9.78,15.811-21.58,34.591-27.54,41.29c-3.91,4.391-13.96,8.511-16.78,13.21c-3.3,5.5-3.11,19.98-5.57,23.091
				c-15.12,19.06-18.41,2.39-35.399-10.471c-0.61,14.62-1.681,26.04-7.931,39.11c-5.52,2.14-10.47,2.44-16.06,0.16
				c-3.84-9.91-0.021-18.29,8.99-23.38c-25.95,0.87-56.5,10.39-80.96,5.41c-4.44-15.271-53.49-20.521-60.58,1.21
				c-9.021,27.64,0.22,16.279,16.659,41.1c24.771,37.39,33.051,91.16,44.351,133.77c9.47,35.721,21.2,70.881,28.78,106.86
				c5.02,23.88,2.68,48.021,7.05,71.37c32.439-19.66,5.83-126.23,4.81-161.47c-0.58-19.95-0.06-40.021,0-59.99
				c0.07-23.66-5.35-36.47-11.38-58.19c10.21,10.551,25.13,24.04,40.49,21.45c-0.28-13.42,8-20.939,7.76-34.33
				c12.97-4.49,48.851,3.931,64.061,5.99c3.88,16.16,7.55,42.46,17.689,52.61c3.34-15.261,0.84-31.9,1.351-47.65
				c0.539-16.55,7.22-31.19,7.029-47.09c14.75-1.13,27.521,18.939,33.471,28.77c4.229-14.27,13.329-37.52,21.5-57.51
				c2.26,1.87,4.64,3.57,7.149,5.08l60.62-8.01c0,0,75.85,40.819,109.29,71.069c-18.48,10.851-42.28,18.271-54.36,24.921
				c-12.92,7.109-18,15.92-34.37,19.949c-7.92,1.94-58.439,12.15-65.529,19.45c-10.931,11.25,32.05,4.55,33.33,16.21
				c3.699,33.69,14.72,56.37,19.89,89.98c4.82,31.319,7.95,71.52,18.31,100.149c7.381-49.59,7.24-99.37,19.33-147.66
				c7.46,4.641,10.66,13.171,12.16,23.04c6.67-7.04,11.7-22.779,11.391-34.92c8.659,3.551,12.109,69.13,21.67,65.58
				c5.64-17.1,3.68-100.26,15.239-112.38c9.301,16.21,1.771,110.38,6.011,143.021c4.1,31.64,13.479,102.81,34,126.8
				c0,0-16.03-244.771-22.95-320.49c14.92-8.97,29.91-16.77,45.689-24.85c-0.89-5.101-2.51-10.03-4.689-14.84
				c9.88,2.529,19.689,4.479,24.24,6.35c17.83,7.32,34.489,11.189,53.27,15.75c48.42,11.76,98.25,29.45,149.78,20.33
				c-17.2-13.771-49.69-17.311-71.931-25.58c-12.159-4.521-23.84-9.68-35.619-12.67c-14.15-3.58-28.471-4.21-42.23-9.75
				c-12.22-4.92-22.93-13.17-33.84-19.5c-9.91-5.76-21.14-8.66-32.32-12.83c-15.2-5.68-33.529-10.9-47.069-21.55
				c21.609-3.79,44.659-9.511,65.04-15.69c-11.721-9.09-22.82-29.47-33.301-41.109c8.86-0.98,17.46-6.171,26.971-6.881
				c-5.891-9.39-8.79-31.319-16.61-41.439c40.89-21.84,114.54-25.811,160.87-24.86c-1.9-0.66-11.15-3.899-16.5-5.689
				c-1.38-4.091-3.69-14.75-6.28-16.95c29.61-28.46,106.45-26.01,142.61-10.82c-3.88,5.48-7.07,17.311-10.62,22.771
				c36.84,38.739,111.979,42.399,109.62,89.46c-32.88-1.98-103.01,25.81-122.37,30.72c-25.65,6.51-52.34,11.25-77.98,17.83
				c-20.319,5.21-48.59,6.86-63.87,24.28c33.11-1.141,66.9,2.43,99.86-0.15c32.41-2.54,64.38-18.02,95.96-18.25
				c23.51-0.17,45.88,6.97,71.271,5.4c6.83,13.52,16.5,26.819,26.21,35.38c34.21,30.189,51.92,23.489,100.5,25.31
				c26.399,1,48.81-2.71,61.319,5.01c-21.189,5.92-50.56,20.83-59.83,26.49c-14.77,9.03-16.989,23.36-31.35,33.28
				c-15,10.38-33.83,5.56-48.27,13.07c-10.23,5.31-15.971,15.55-25.181,22.81c-4.3,3.38-12.52,3.55-16.8,7.19
				c-5.29,4.5-6.36,12.39-13.39,16.609c-22.351,13.42-64.75,10.311-86.95-3.59c-17.36,21.1-40.25,28.75-65.87,35.11
				c-25.27,6.279-77.37,6.199-95.46,24.31c43.07-1.78,87.52,3.62,130.14-1.649c34.44-4.25,72.391-0.061,107.65-4.681
				c28.71-3.77,53.95-33.58,84.33-30.27c8.47,0.92,18.03,8.51,26.87,13.93c-0.851-0.13-1.71-0.27-2.59-0.43
				c27.14,43.489,48.079,66.51,32.75,96.239c-5.2,0.711-10.33,1.66-15.37,2.891c-33.75,8.25-59.66,13.64-95.98,13.64
				c-11.75,0-36.63-4.85-46.79,0.891c-6.81,3.84-54.13,49.869-54.13,49.869s-89.52,44.521-117.17,23.44l50.13,44.58
				c-4.75,20.15-10.34,41.979-12.31,62.36c-3.67,37.869-5.07,75.779-5.511,113.979c-1.1,11.2-1.279,22.25-0.18,33
				c0-11.03,0.05-22.03,0.18-33c4.591-46.87,25.381-96.479,37.311-138.689c2.51,5.26,8.93,12.819,14.85,16.819
				c3.4-6.649,9.29-7.53,12.29-10.819c7.44,10.979,7.181,24.06,14.86,34.909c14.83-7.97,16.74-31.729,22.51-47.37
				c6.95-18.829,20.32-34.34,25.021-53.369c12.739,3.29,16.899,18.64,28.949,22.449c15.841,5.011,22.721-6.33,35.99-11.38
				c3.72-1.41,7.561-2.55,11.49-3.489c-0.19,13.26-1.521,25.039-22.561,35.289c44.801,48.711,89.211,45.141,136.74,71.181
				c-6.08,2.84-11.5,5.43-14.13,6.42c-14.38,5.399-29.93,8.149-45.67,11.939c-31.35,7.551-62.77,20.87-90.68,37.58
				c-13.87,8.311-27.62,20.551-42.021,27c-15.92,7.12-33.72,8.721-50.319,15c-14.15,5.36-29.28,16.061-44.101,18.74
				c-0.3,0-0.59,0.01-0.899,0.01c-15.49,0.15-16.261,2.75,0,0.15c0.3-0.05,0.6-0.1,0.899-0.16c18.12-0.02,29.61,4.42,47.11-2.24
				c15.899-6.06,32.29-8.199,48.149-12.67c16.17-4.55,30.521-3.85,47.851-6.01c34.51-4.3,64.6-16.74,96.01-32.33
				c6.17-3.06,11.68-6.82,17-10.7c43.34,33.891,169.92,10.811,222.14,13.46c-2.699,11.44,4.42,28.561,1.83,40.04
				c34.54,1.53,66.83,36.931,101.07,48.86c46.71,16.28,85.89,24,135.15,25.02c-38.471,14.04-74.66,32.431-117.12,35.29
				c-17.03,1.15-35.79-15.159-48.19-11.369c-15.89,4.869-24.5,46.699-37.17,58.029c-12.67,11.32-36.65,17.37-52.64,19.33
				c-21.91,2.69-31.63-6.78-49.34-10.78c-15.54-3.51-36.74,3.851-51.301-2.569c-15.319-6.76-26.029-27.55-38.819-38.681
				c-15.25,23.66-39.641,46.051-52.65,69.601c-12.04,21.8-12.92,84.21,5.53,100.76c-10.26,8.64-34.53,14.271-47.37,13.46
				c-27.311-1.72-25.44-22.75-31.16-47.6c-18.11,2.85-10.21,32.729-24,42.05c-21.11,14.27-33.38-20.38-45.49-36.71
				c-13.63-18.38-27.39-26.61-44.97-40.17c-11.95-9.23-101.35-23.63-113.07-33.2c-15.21,11.35-177.18,66.23-184.33,83.87
				c-7.819,19.27-501.529,95.49-664,120.09l-1700.419-10.31c0,0,202.06-185,245.95-217.44c33.25-24.58,75.88-68.35,112.33-84.28
				c13.22-5.779,28.22-5.14,43-6.33c4.89,6.761,10.64,12.45,17.16,15.9c18.33,9.7,45.57,2.44,66.56,5.12
				c3.87,28.61-1.08,76.42,18.76,98.95c9.15-16.311,25.47-49.86,42.13-58.12c11.88-5.891,47.42-1.09,65.08,1.16
				c-1.49,24.85,13.07,127.05,35.71,136.449c-0.78-26.329,10.95-84.029,23.71-105.52c4.83,20.02,11.79,45.6,20.66,63.24
				c25.3-3.88,40.06-16.98,64.8,0.91c22.54,16.3,42.24,27.84,65.99,43.479c13.29,8.76,27.24,24.75,41.99,28.93
				c11.32,3.21,22.91-4.119,31.33-5.09c30.83-3.54,43.65,2.76,70.65,12.45c30.44,10.92,49.88,0.03,77.98-9.41
				c10.81-3.63,30.55-8.96,42.28-4.66c7.8,2.851,11.85,14.92,18.91,17.061c31.82,9.689,31.22-27.45,52.5-33.84
				c25.24-7.591,39.91,39.029,65.66,40.13c-10.52-18.86-27.35-30.271-40.04-48.42c-14.4-20.57-23.07-46.84-32.81-70.32
				c-14.72,11.2-18.98,35.78-40.53,34.59c-26.55-1.47-27.66-42.53-47.66-47.439c-40.91-10.051-61.68,89.97-106.78,47.34
				c-19.3-18.24-17.61-23.351-43.64-33.32c-20.86-7.99-38.04-34.45-59.85-37.92c-25.36-4.03-28.81,23.19-49.46,14.19
				c-19.28-8.4-32.68-41.9-35.57-60.96c-21.3-2.7-25.8,1.649-40.92-12.79c-11.3-10.79-19.24-25.54-18.91-41.061
				c-44.95-9.37-84.59,24.601-132.42,12.71c-32.43-8.06-58.55-29.18-90.13-39.42c-15.67-5.07-50.24-4.77-61.92-18.21
				c41.51-16.86,60.37-26.08,110.5-28.87c15.21-55.109,123.89-86.75,169.11-125.38c32.86-28.06,46.13-56.979,84.93-49.34
				c21.84,4.3,49.44,19.74,77.57,38.89c2.24,5.71,4.56,11.24,6.77,16.44c9.51,22.359,13.6,44.28,27.9,63.68
				c15.48,20.99,12.77,38.57,0.67,60.01c-16.24,28.771-28.95,59.311-51.14,83.92c23.32-6.479,45.66-19.6,66.06-32.239
				c17.6-10.91,38.96-14.761,44.34-36.681c3.89-15.819,0.8-33.05,6.6-48.68c2.74-7.4,6.46-14.31,10.2-21.18
				c0.61,0.46,1.2,0.91,1.79,1.35c49.89-86.33,19.86-74.28,113.98-91.439c-0.9-8.471,127.89-101.061,126.88-109.511
				c69.68-3.68,133.24,7.681,202.15,4.19c0,0,10.649,110.38,2.55,122.54c-11.6,17.41-12.44,16.52-12.31,39.01
				c0.14,22.49,5.439,22.41-23.59,25.311c-24.06,2.399-35.29,48.81-72.84,1.039c-0.52,3.341-33.25,9.511-48.87,11
				c-9.58,0.91-14.89,1.11-24.14,4.19c-7.77,2.59-10.46,14.06-17.54,14.521c-11.66,0.76-36.18-13.74-48.3-17.091
				c-17.31-4.79-27.25-9.21-45.95-6.62c1.32,1.66,2.64,3.32,3.95,4.98l0.8,1.36c-4.87,3.84-4.48,12.43-12.48,15.75
				c-7.2,2.979-16.71,0.699-24.31,0.88c-14.79,0.359-42.89-3.69-54.64,0.39c16.77,20.87,82.92,20.9,108.63,23.61
				c26.4,2.779,22.83,9.689,43.35,22.64c22.21,14.01,30.47-5.64,51.59,2.26c4.12,17.17,9.91,60.78,29.85,64.46
				c8.69-17.79,6.75-61.75,23.85-70.75c1.06,8.221,6.22,10.08,8.83,16.49c2.45-1.56,7-2.72,9.3-4.53
				c-0.92,12.051,1.68,25.07,11.71,33.171c6.73-3.54,11.31-8.83,13.06-15.32c-0.14,28.33,5.89,74.67,18.64,93.359
				c1.13,24.08,5.94,44.311,11.95,68.311c4.1,16.42,14.73,38.07,17.7,58.06c0.08,6.021,0.12,12.011,0.12,17.98
				c0.99-5.69,0.81-11.75-0.12-17.98c-1.17-91.989-10.32-189.18,1.01-279.27c10.44,0.34,19.25-4.46,28.06-6.11
				c7.29,50.351-6.149,100.38,11.381,149.061c6.54,18.17,9.46,76.01,31.779,42.25c11.28-17.08,5.88-46.46,5.88-66.101
				c0-48.899-6.239-96.68-6-144.109c0.11-22.95-1.989-44.28-4.67-65.851c-2.319-18.7-24.08-127.08-38.229-138.89
				c-5.62-40.91,18.99-58.34,37.92-88.05c24.83-5.261,19.149,13.67,43.46,3.859c4.729-69.92,35.84-93.689,86.29-137.189
				c14.02-12.08,15.68-32.24,30.899-41.95c12.94-8.25,44.37-5.07,62.381-11.58c9.489,21.63,95.6,142.04,95.6,142.04s-14,60-28,60
				c-40.17,0-75.56,23.48-111.69,31.63c-27.92,6.3-52.54,10.67-80.659,11.84L2066.132,3717.912z M3030.922,4120.522
				c3.76-25.261-0.95-50.5-6.141-74.261c-5.52-25.31-5.329-51.08-8.789-76.949c-6.721,3.869-12.521,5.18-18.311,10.14
				c-7.45,6.38-6.77,8.99-17.24,9.8c-16.609,1.271-33.64-6.03-51.08-5.99c-18.01,0.04-37.409,2.601-54.069-5.26
				c-13.851-6.53-18.05-17.87-28.59-28.11c0.56,0.421,6.149,0.771,10.81,1.99c2.16,2.07,4.17,4.2,5.9,6.311
				c1.859-3.33-1.631-5.19-5.9-6.311c-5.5-5.24-12.01-10.1-17.62-13.39c-1.59,11.979,4.73,28.96,10.71,39.43
				c8.66,15.181,23.601,26.15,31.561,41.101c7.85-1.761,4.84-12.42,13.68-11.36c5.33,20.72,18.479,39.92,22.46,59.49
				c-2.12-18.24-9.37-33.771-6.42-53.04c7.84,4.87,29.86,10.979,34.88,0.12c5.03,10.83,4.48,23.479,7.34,34.88
				c3.75,14.95,8.141,29.979,12.08,44.99c6.771-7.48,5.6-23.211,8.34-33.57c2.931-11.05,3.721-23.99,11.09-34.351
				c8.58,9.19,13.53,21.021,21.16,5.301c0.19,12.96,6.28,27.489,9.01,39.46C3019.122,4085.542,3019.962,4109.282,3030.922,4120.522z
				 M2775.502,4144.192c8.93-56.54-4.221-113.261-10.94-167.33c-6.74-54.2,13.3-109.41,4.92-161.37
				c-11,5.32-20.66,12.42-33.89,12.29c3.14,57.109-47.82,53.2-83.53,72.43c-24.2,13.03-27.24,18.46-55.02,10.66
				c-10.42-2.93-30.03-14.41-44.5-16.85c-21.011-11.28-46.13-17.11-67.53-31.71c22.25,19.189,33.21,46.859,55.65,66.829
				c-16.021-2.18-27.891-9.439-45.29-5.05c5.77,16.8,64.14,76.11,82.479,69.84c-0.49-6.05,2.87-15.479,2.08-21.119
				c9.92,18.96,39.62,24.979,58.22,35.55c-12.449,15.74,8.41,60.97,7.79,81.88c33.71-25.82,35.051,17.83,34.73,41.46
				c-0.51,1.65-0.54,3.39-0.09,5.22c0.029-1.58,0.069-3.34,0.09-5.22c0.29-0.97,0.75-1.91,1.38-2.82
				c9.3,14.561,7.16,46.37,9.35,63.94c3.08,24.68,1.88,49.47,18.11,70.149c16.68-99.689-15.99-209.05,2.53-308.29
				c2.02,6.811,6.09,13.421,6,21.721c0.569-1.261,4.85-6.55,6.16-10.98c16.739,14.101,10.89,54.87,16.5,77.45
				C2746.271,4065.242,2753.092,4134.902,2775.502,4144.192z M2462.901,4129.971c5.99-23.109,14.681-65.79-4.939-83.59
				c-13.8-12.52-31.271-10.68-46.91-16.41c-11.021-4.04-23.08-13.279-33.75-18.84c-26.74-13.95-69.47,12.45-85.89,22.971
				c-2.53,0.88-4.42,2.02-5.471,3.47c1.141-0.67,3.011-1.891,5.471-3.47c15.899-5.601,56.899-1.271,70.279-0.921
				c24.851,0.66,52.061,11.601,75.4,9.561c-1.25,6.979-3.73,13.34-4.46,20.89c-34.18,0.32-71.28,16.71-101.271,30.09
				c-25.29,11.29-32.6,23.601-50.479,39.771c-30.75,27.79-92.101,33.37-130.94,45.8c8.771,17.49,8.78,46.86,9.48,66.18
				c0.859,23.44-3.811,49.83,1.16,72.65c19.989-29.83,18.34-78.7,24.92-112.51c9.84,0.88,20.609-0.351,25.79-8.811
				c26.47,11.86,18.77,13.28,44.67-3.51c-3.55,13.64,6.24,25.25,9.88,37.86c3.7,12.77,0.88,32.04,8.729,43.04
				c13.75-35.681,16.051-72.59,27.811-108.53c14.399,13.56,13.33,50.75,19.12,70.12c4.1,13.7,3.59,56.01,18.97,61.21
				c11.72-39.47,14.54-79.79,25.17-119.771c6.86-25.819,27.811-47.819,32.76-73.229c45.28,26.34,5.431,100.46,43.271,127.03
				c1.55-17.761,9.29-35.15,12.35-52.73C2456.731,4162.772,2458.901,4145.402,2462.901,4129.971z"/>
			<path fill="#042429" d="M3419.901,3417.971c7.67,4.74,11.62,13.771,10.49,30.811c-1.86,28.149-33.95,52.59-58.77,61.21
				c6.25,35.52-6.511,66.34-45.83,60.59c-8.84-5.42-18.4-13.01-26.87-13.93c-30.38-3.311-55.62,26.5-84.33,30.27
				c-35.26,4.62-73.21,0.431-107.65,4.681c-42.62,5.27-87.069-0.131-130.14,1.649c18.09-18.11,70.19-18.03,95.46-24.31
				c25.62-6.36,48.51-14.011,65.87-35.11c22.2,13.9,64.6,17.01,86.95,3.59c7.029-4.22,8.1-12.109,13.39-16.609
				c4.28-3.641,12.5-3.811,16.8-7.19c9.21-7.26,14.95-17.5,25.181-22.81c14.439-7.511,33.27-2.69,48.27-13.07
				c14.36-9.92,16.58-24.25,31.35-33.28C3369.342,3438.801,3398.712,3423.891,3419.901,3417.971z"/>
			<path fill="#042429" d="M3376.271,3893.572c3.771,2.069,7.561,4.319,11.37,6.8c-11.51,17.05-27.979,30.7-46.439,42.13
				c1.31,1.34,2.739,2.61,4.27,3.8c-5.32,3.88-10.83,7.641-17,10.7c-31.41,15.59-61.5,28.03-96.01,32.33
				c-17.33,2.16-31.681,1.46-47.851,6.01c-15.859,4.471-32.25,6.61-48.149,12.67c-17.5,6.66-28.99,2.221-47.11,2.24
				c14.82-2.68,29.95-13.38,44.101-18.74c16.6-6.279,34.399-7.88,50.319-15c14.4-6.449,28.15-18.689,42.021-27
				c27.91-16.71,59.33-30.029,90.68-37.58c15.74-3.79,31.29-6.54,45.67-11.939
				C3364.771,3899.001,3370.191,3896.412,3376.271,3893.572z"/>
			<path fill="#042429" d="M3340.582,3669.282c5.04-1.23,10.17-2.18,15.37-2.891c-5.521,10.74-15.78,22.36-32.19,36.141
				c-20.78,17.45-42.87,30.74-55.3,52.229c-6.71,11.61-6.22,22.391-6.37,32.341c-3.93,0.939-7.771,2.079-11.49,3.489
				c-13.27,5.05-20.149,16.391-35.99,11.38c-12.05-3.81-16.21-19.159-28.949-22.449c-4.7,19.029-18.07,34.54-25.021,53.369
				c-5.77,15.641-7.68,39.4-22.51,47.37c-7.68-10.85-7.42-23.93-14.86-34.909c-3,3.289-8.89,4.17-12.29,10.819
				c-5.92-4-12.34-11.56-14.85-16.819c-11.93,42.21-32.72,91.819-37.311,138.689c0.44-38.2,1.841-76.11,5.511-113.979
				c1.97-20.381,7.56-42.21,12.31-62.36l-50.13-44.58c27.65,21.08,117.17-23.44,117.17-23.44s47.32-46.029,54.13-49.869
				c10.16-5.74,35.04-0.891,46.79-0.891C3280.922,3682.921,3306.832,3677.532,3340.582,3669.282z"/>
			<path fill="#042429" d="M3106.632,3323.162c19.36-4.91,89.49-32.7,122.37-30.72c-0.25,4.899-1.34,10.279-3.4,16.21
				c-6.56,8.569-2.479,26.279,6.271,43.62c-25.391,1.569-47.761-5.57-71.271-5.4c-31.58,0.23-63.55,15.71-95.96,18.25
				c-32.96,2.58-66.75-0.99-99.86,0.15c15.28-17.42,43.551-19.07,63.87-24.28
				C3054.292,3334.412,3080.981,3329.671,3106.632,3323.162z"/>
			<linearGradient id="SVGID_21_" gradientUnits="userSpaceOnUse" x1="3082.9482" y1="4011.561" x2="3082.9482" y2="4010.2515">
				<stop  offset="0" style="stop-color:#123C40"/>
				<stop  offset="1" style="stop-color:#2E7D75"/>
			</linearGradient>
			<path fill="url(#SVGID_21_)" d="M3089.352,4010.251c-0.3,0.061-0.6,0.11-0.899,0.16c-16.261,2.6-15.49,0,0-0.15
				C3088.762,4010.261,3089.052,4010.251,3089.352,4010.251z"/>
			<linearGradient id="SVGID_22_" gradientUnits="userSpaceOnUse" x1="3058.3613" y1="4011.0415" x2="3058.3613" y2="3978.0415">
				<stop  offset="0" style="stop-color:#123C40"/>
				<stop  offset="1" style="stop-color:#2E7D75"/>
			</linearGradient>
			<path fill="url(#SVGID_22_)" d="M3058.821,3978.042c-0.13,10.97-0.18,21.97-0.18,33
				C3057.542,4000.292,3057.722,3989.242,3058.821,3978.042z"/>
			<path fill="#042429" d="M3070.212,3445.532c-51.53,9.12-101.36-8.57-149.78-20.33c-18.78-4.561-35.439-8.43-53.27-15.75
				c-4.551-1.87-14.36-3.82-24.24-6.35c-9.5-21.011-29.641-39.511-46.13-57.75c3.42-0.511,6.899-1.08,10.41-1.7
				c13.54,10.649,31.869,15.87,47.069,21.55c11.181,4.17,22.41,7.07,32.32,12.83c10.91,6.33,21.62,14.58,33.84,19.5
				c13.76,5.54,28.08,6.17,42.23,9.75c11.779,2.99,23.46,8.149,35.619,12.67C3020.521,3428.221,3053.012,3431.761,3070.212,3445.532
				z"/>
			<path fill="#042429" d="M3024.781,4046.261c5.19,23.761,9.9,49,6.141,74.261c-10.96-11.24-11.8-34.98-15.141-49.58
				c-2.729-11.971-8.819-26.5-9.01-39.46c-7.63,15.72-12.58,3.89-21.16-5.301c-7.369,10.36-8.159,23.301-11.09,34.351
				c-2.74,10.359-1.569,26.09-8.34,33.57c-3.939-15.011-8.33-30.04-12.08-44.99c-2.859-11.4-2.31-24.05-7.34-34.88
				c-5.02,10.859-27.04,4.75-34.88-0.12c-2.95,19.27,4.3,34.8,6.42,53.04c-3.98-19.57-17.13-38.771-22.46-59.49
				c-8.84-1.06-5.83,9.6-13.68,11.36c-7.96-14.95-22.9-25.92-31.561-41.101c-5.979-10.47-12.3-27.45-10.71-39.43
				c5.61,3.29,12.12,8.149,17.62,13.39c-4.66-1.22-10.25-1.569-10.81-1.99c10.54,10.24,14.739,21.58,28.59,28.11
				c16.66,7.86,36.06,5.3,54.069,5.26c17.44-0.04,34.471,7.261,51.08,5.99c10.471-0.81,9.79-3.42,17.24-9.8
				c5.79-4.96,11.59-6.271,18.311-10.14C3019.452,3995.181,3019.262,4020.952,3024.781,4046.261z"/>
			<path fill="#042429" d="M2857.512,3951.881c4.27,1.12,7.76,2.98,5.9,6.311
				C2861.682,3956.082,2859.672,3953.952,2857.512,3951.881z"/>
			<path fill="#042429" d="M2801.922,3442.792c6.92,75.72,22.95,320.49,22.95,320.49c-20.521-23.99-29.9-95.16-34-126.8
				c-4.24-32.641,3.29-126.811-6.011-143.021c-11.56,12.12-9.6,95.28-15.239,112.38c-9.561,3.55-13.011-62.029-21.67-65.58
				c0.31,12.141-4.721,27.88-11.391,34.92c-1.5-9.869-4.7-18.399-12.16-23.04c-12.09,48.29-11.949,98.07-19.33,147.66
				c-10.359-28.63-13.489-68.83-18.31-100.149c-5.17-33.61-16.19-56.29-19.89-89.98c-1.28-11.66-44.261-4.96-33.33-16.21
				c7.09-7.3,57.609-17.51,65.529-19.45c16.37-4.029,21.45-12.84,34.37-19.949c12.08-6.65,35.88-14.07,54.36-24.921
				c5.75,5.19,10.24,10.08,12.89,14.391C2801.102,3443.282,2801.512,3443.032,2801.922,3442.792z"/>
			<path fill="#042429" d="M2552.542,3894.022c14.47,2.439,34.08,13.92,44.5,16.85c27.779,7.8,30.819,2.37,55.02-10.66
				c35.71-19.229,86.67-15.32,83.53-72.43c13.229,0.13,22.89-6.97,33.89-12.29c8.38,51.96-11.66,107.17-4.92,161.37
				c6.72,54.069,19.87,110.79,10.94,167.33c-22.41-9.29-29.23-78.95-34.8-101.32c-5.61-22.58,0.239-63.35-16.5-77.45
				c-1.311,4.431-5.591,9.72-6.16,10.98c0.09-8.3-3.98-14.91-6-21.721c-18.521,99.24,14.149,208.601-2.53,308.29
				c-16.23-20.68-15.03-45.47-18.11-70.149c-2.189-17.57-0.05-49.38-9.35-63.94c-0.63,0.91-1.09,1.851-1.38,2.82
				c0.32-23.63-1.021-67.28-34.73-41.46c0.62-20.91-20.239-66.14-7.79-81.88c-18.6-10.57-48.3-16.59-58.22-35.55
				c0.79,5.64-2.57,15.069-2.08,21.119c-18.34,6.271-76.71-53.04-82.479-69.84c17.399-4.39,29.27,2.87,45.29,5.05
				c-22.44-19.97-33.4-47.64-55.65-66.829C2506.412,3876.912,2531.531,3882.742,2552.542,3894.022z"/>
			<linearGradient id="SVGID_23_" gradientUnits="userSpaceOnUse" x1="2680.4688" y1="4136.9214" x2="2680.4688" y2="4131.7017">
				<stop  offset="0" style="stop-color:#123C40"/>
				<stop  offset="1" style="stop-color:#2E7D75"/>
			</linearGradient>
			<path fill="url(#SVGID_23_)" d="M2680.672,4131.702c-0.021,1.88-0.061,3.64-0.09,5.22
				C2680.132,4135.091,2680.162,4133.352,2680.672,4131.702z"/>
			<path fill="#042429" d="M2610.742,3361.001c-8.171,19.99-17.271,43.24-21.5,57.51c-5.95-9.83-18.721-29.899-33.471-28.77
				c0.19,15.899-6.49,30.54-7.029,47.09c-0.511,15.75,1.989,32.39-1.351,47.65c-10.14-10.15-13.81-36.45-17.689-52.61
				c-15.21-2.06-51.091-10.48-64.061-5.99c0.24,13.391-8.04,20.91-7.76,34.33c-15.36,2.59-30.28-10.899-40.49-21.45
				c6.03,21.721,11.45,34.53,11.38,58.19c-0.06,19.97-0.58,40.04,0,59.99c1.021,35.239,27.63,141.81-4.81,161.47
				c-4.37-23.35-2.03-47.49-7.05-71.37c-7.58-35.979-19.311-71.14-28.78-106.86c-11.3-42.609-19.58-96.38-44.351-133.77
				c-16.439-24.82-25.68-13.46-16.659-41.1c7.09-21.73,56.14-16.48,60.58-1.21c24.46,4.979,55.01-4.54,80.96-5.41
				c-9.011,5.09-12.83,13.47-8.99,23.38c5.59,2.28,10.54,1.979,16.06-0.16c6.25-13.07,7.32-24.49,7.931-39.11
				c16.989,12.86,20.279,29.53,35.399,10.471c2.46-3.11,2.271-17.591,5.57-23.091c2.82-4.699,12.87-8.819,16.78-13.21
				c5.96-6.699,17.76-25.479,27.54-41.29C2577.252,3305.341,2587.531,3341.822,2610.742,3361.001z"/>
			<path fill="#042429" d="M2457.962,4046.381c19.62,17.8,10.93,60.48,4.939,83.59c-4,15.431-6.17,32.801-8.88,48.32
				c-3.06,17.58-10.8,34.97-12.35,52.73c-37.84-26.57,2.01-100.69-43.271-127.03c-4.949,25.41-25.899,47.41-32.76,73.229
				c-10.63,39.98-13.45,80.301-25.17,119.771c-15.38-5.2-14.87-47.51-18.97-61.21c-5.79-19.37-4.721-56.561-19.12-70.12
				c-11.76,35.94-14.061,72.85-27.811,108.53c-7.85-11-5.029-30.271-8.729-43.04c-3.64-12.61-13.43-24.221-9.88-37.86
				c-25.9,16.79-18.2,15.37-44.67,3.51c-5.181,8.46-15.95,9.69-25.79,8.811c-6.58,33.81-4.931,82.68-24.92,112.51
				c-4.971-22.82-0.301-49.21-1.16-72.65c-0.7-19.319-0.71-48.689-9.48-66.18c38.84-12.43,100.19-18.01,130.94-45.8
				c17.88-16.17,25.189-28.48,50.479-39.771c29.99-13.38,67.091-29.77,101.271-30.09c-0.25,2.45-0.311,5.01-0.09,7.76
				c0.97-1.68,2.729-6.09,3.42-7.739c-1.11-0.021-2.22-0.03-3.33-0.021c0.729-7.55,3.21-13.91,4.46-20.89
				c-23.34,2.04-50.55-8.9-75.4-9.561c-13.38-0.35-54.38-4.68-70.279,0.921c16.42-10.521,59.149-36.921,85.89-22.971
				c10.67,5.561,22.729,14.8,33.75,18.84C2426.691,4035.702,2444.162,4033.862,2457.962,4046.381z"/>
			<path fill="#042429" d="M2432.632,4063.631c1.11-0.01,2.22,0,3.33,0.021c-0.69,1.649-2.45,6.06-3.42,7.739
				C2432.321,4068.641,2432.382,4066.082,2432.632,4063.631z"/>
			<path fill="#042429" d="M2066.162,3718.591c28.119-1.17,52.739-5.54,80.659-11.84c36.131-8.149,71.521-31.63,111.69-31.63
				c14,0,28-60,28-60s-86.11-120.41-95.6-142.04c1-0.36,1.949-0.75,2.85-1.17c18.22,15.97,116.25,134.27,116.25,134.27
				s16.88,295.931-0.77,314.74c-18.671-41.8-22.181-92.319-48.75-127.899c1.22,32.84-3.73,67.46,0.17,99.989
				c3.58,29.87-5.49,62.73-10.15,95.37c-16.79-14.899-19.14-110.27-30.37-138.81c-14.16-36.021-8.25-72.78-14.55-112.07
				c-28.99,10.7-54.91,17.23-88.76,17.4c-101.641,0.54-9.44,21.85-98.641-61.261c26.12,10.131,38.91,24.271,47.94,24.271
				L2066.162,3718.591z"/>
			<path fill="#042429" d="M2285.941,4037.572c1.051-1.45,2.94-2.59,5.471-3.47
				C2288.952,4035.681,2287.082,4036.902,2285.941,4037.572z"/>
			<path fill="#042429" d="M2134.162,3983.662c-5.58,18.75-25.96,36.5-41.19,48.87c-12.52,10.17-24.54,24.31-37.479,34.32
				c-18.57,14.369-19.94,11.859-36.131-4.521c-13.819-13.979-26-30.24-28.05-48.3c7.891-1.66,16.3-1.79,24.72-1.55
				C2051.812,4020.931,2104.422,3988.242,2134.162,3983.662z"/>
			<path fill="#042429" d="M1643.722,3948.232l-0.8-1.36c-1.31-1.66-2.63-3.32-3.95-4.98c18.7-2.59,28.64,1.83,45.95,6.62
				c12.12,3.351,36.64,17.851,48.3,17.091c7.08-0.461,9.77-11.931,17.54-14.521c9.25-3.08,14.56-3.28,24.14-4.19
				c15.62-1.489,48.35-7.659,48.87-11c37.55,47.771,48.78,1.36,72.84-1.039c29.03-2.9,23.73-2.82,23.59-25.311
				c-0.131-22.49,0.71-21.6,12.31-39.01c8.1-12.16-2.55-122.54-2.55-122.54c14.149,11.81,35.91,120.189,38.229,138.89
				c2.681,21.57,4.78,42.9,4.67,65.851c-0.239,47.43,6,95.21,6,144.109c0,19.641,5.4,49.021-5.88,66.101
				c-22.319,33.76-25.239-24.08-31.779-42.25c-17.53-48.681-4.091-98.71-11.381-149.061c-8.81,1.65-17.62,6.45-28.06,6.11
				c-11.33,90.09-2.18,187.28-1.01,279.27c-2.97-19.989-13.6-41.64-17.7-58.06c-6.01-24-10.82-44.23-11.95-68.311
				c0.03,0.051,0.06,0.091,0.09,0.141c-0.12-2.63-0.23-5.271-0.33-7.9c0.04,2.641,0.12,5.221,0.24,7.76
				c-12.75-18.689-18.78-65.029-18.64-93.359c0.89-3.271,1.05-6.84,0.4-10.641c-0.25,3.12-0.39,6.7-0.4,10.641
				c-1.75,6.49-6.33,11.78-13.06,15.32c-10.03-8.101-12.63-21.12-11.71-33.171c-2.3,1.811-6.85,2.971-9.3,4.53
				c-2.61-6.41-7.77-8.27-8.83-16.49c-17.1,9-15.16,52.96-23.85,70.75c-19.94-3.68-25.73-47.29-29.85-64.46
				c-21.12-7.899-29.38,11.75-51.59-2.26c-20.52-12.95-16.95-19.86-43.35-22.64c-25.71-2.71-91.86-2.74-108.63-23.61
				c11.75-4.08,39.85-0.03,54.64-0.39c7.6-0.181,17.11,2.1,24.31-0.88C1639.242,3960.662,1638.852,3952.072,1643.722,3948.232z"/>
			<linearGradient id="SVGID_24_" gradientUnits="userSpaceOnUse" x1="1901.144" y1="4274.9917" x2="1901.144" y2="4257.0112">
				<stop  offset="0" style="stop-color:#123C40"/>
				<stop  offset="1" style="stop-color:#2E7D75"/>
			</linearGradient>
			<path fill="url(#SVGID_24_)" d="M1900.752,4257.011c0.93,6.23,1.11,12.29,0.12,17.98
				C1900.872,4269.022,1900.832,4263.032,1900.752,4257.011z"/>
			<linearGradient id="SVGID_25_" gradientUnits="userSpaceOnUse" x1="1871.0269" y1="4130.7817" x2="1871.0269" y2="4122.8813">
				<stop  offset="0" style="stop-color:#123C40"/>
				<stop  offset="1" style="stop-color:#2E7D75"/>
			</linearGradient>
			<path fill="url(#SVGID_25_)" d="M1870.862,4122.881c0.1,2.63,0.21,5.271,0.33,7.9c-0.03-0.05-0.06-0.09-0.09-0.141
				C1870.982,4128.102,1870.902,4125.522,1870.862,4122.881z"/>
			<linearGradient id="SVGID_26_" gradientUnits="userSpaceOnUse" x1="1852.8599" y1="4037.2817" x2="1852.8599" y2="4026.6411">
				<stop  offset="0" style="stop-color:#123C40"/>
				<stop  offset="1" style="stop-color:#2E7D75"/>
			</linearGradient>
			<path fill="url(#SVGID_26_)" d="M1852.862,4026.641c0.65,3.801,0.49,7.37-0.4,10.641
				C1852.472,4033.341,1852.612,4029.761,1852.862,4026.641z"/>
			<path fill="#042429" d="M1692.252,4275.442c12.69,18.149,29.52,29.56,40.04,48.42c-25.75-1.101-40.42-47.721-65.66-40.13
				c-21.28,6.39-20.68,43.529-52.5,33.84c-7.06-2.141-11.11-14.21-18.91-17.061c-11.73-4.3-31.47,1.03-42.28,4.66
				c-28.1,9.44-47.54,20.33-77.98,9.41c-27-9.69-39.82-15.99-70.65-12.45c-8.42,0.971-20.01,8.3-31.33,5.09
				c-14.75-4.18-28.7-20.17-41.99-28.93c-23.75-15.64-43.45-27.18-65.99-43.479c-24.74-17.891-39.5-4.79-64.8-0.91
				c-8.87-17.641-15.83-43.221-20.66-63.24c-12.76,21.49-24.49,79.19-23.71,105.52c-22.64-9.399-37.2-111.6-35.71-136.449
				c-17.66-2.25-53.2-7.051-65.08-1.16c-16.66,8.26-32.98,41.81-42.13,58.12c-19.84-22.53-14.89-70.34-18.76-98.95
				c-20.99-2.68-48.23,4.58-66.56-5.12c-6.52-3.45-12.27-9.14-17.16-15.9c8.09-0.64,16.11-1.84,23.73-4.93
				c-6.01-10.9-5.16-35.31-10.03-45.92c2.59-1.04,5.09-2.05,7.52-3.04c11.68,13.44,46.25,13.14,61.92,18.21
				c31.58,10.24,57.7,31.36,90.13,39.42c47.83,11.891,87.47-22.08,132.42-12.71c-0.33,15.521,7.61,30.271,18.91,41.061
				c15.12,14.439,19.62,10.09,40.92,12.79c2.89,19.06,16.29,52.56,35.57,60.96c20.65,9,24.1-18.221,49.46-14.19
				c21.81,3.47,38.99,29.93,59.85,37.92c26.03,9.97,24.34,15.08,43.64,33.32c45.1,42.63,65.87-57.391,106.78-47.34
				c20,4.909,21.11,45.97,47.66,47.439c21.55,1.19,25.81-23.39,40.53-34.59C1669.182,4228.602,1677.852,4254.872,1692.252,4275.442z
				"/>
			<path fill="#042429" d="M1485.162,3943.402c-3.74,6.87-7.46,13.779-10.2,21.18c-5.8,15.63-2.71,32.86-6.6,48.68
				c-5.38,21.92-26.74,25.771-44.34,36.681c-20.4,12.64-42.74,25.76-66.06,32.239c22.19-24.609,34.9-55.149,51.14-83.92
				c12.1-21.439,14.81-39.02-0.67-60.01c-14.3-19.399-18.39-41.32-27.9-63.68c-2.21-5.2-4.53-10.73-6.77-16.44
				C1415.412,3886.471,1458.202,3922.931,1485.162,3943.402z"/>
		</g>
		<g>
		</g>
	</g>
</g>
</svg>
