<svg xmlns="http://www.w3.org/2000/svg" xmlns:xlink="http://www.w3.org/1999/xlink" width="1400" height="899.215" viewBox="0 0 1400 899.215"><defs><path id="a" d="M0 0h1400v899.247H0z"/></defs><clipPath id="b"><use xlink:href="#a" overflow="visible"/></clipPath><linearGradient id="c" gradientUnits="userSpaceOnUse" x1="47.948" y1="613.793" x2="47.948" y2="1422.09" gradientTransform="translate(638 -640.012)"><stop offset="0" stop-color="#a4a9bd"/><stop offset=".113" stop-color="#b2a9b8"/><stop offset=".326" stop-color="#d8aaaa"/><stop offset=".414" stop-color="#e9aaa4"/><stop offset=".67" stop-color="#f6aba2"/><stop offset="1" stop-color="#f6aba2"/></linearGradient><path clip-path="url(#b)" fill="url(#c)" d="M-207.021 0h1785.938v899.247H-207.021z"/><linearGradient id="d" gradientUnits="userSpaceOnUse" x1="-222.668" y1="721.952" x2="-222.668" y2="1038.619" gradientTransform="translate(638 -640.012)"><stop offset="0" stop-color="#a4a9bd"/><stop offset=".211" stop-color="#bba9b5"/><stop offset=".505" stop-color="#d4aaac"/><stop offset=".772" stop-color="#e4aaa6"/><stop offset=".985" stop-color="#e9aaa4"/></linearGradient><path clip-path="url(#b)" fill="url(#d)" d="M154.441 86.502c14.885 10.147 38.483 22.973 54.401 38.786 16.287 16.18 29.182 37.646 44.7 55.532 8.271 9.532 14.294 16.438 26.52 18.405 13.121 2.112 21.756 1.275 33.22 10.894 7.497 6.289 12.215 15.874 21.216 21.039 12.862 7.381 23.953-1.668 39.427-1.872 35.165-.464 38.43 16.788 45.719 46.591 4.721 19.297 10.472 12.801 25.118 15.031 9.128 1.389 6.304 3.104 12.908 7.55 5.534 3.727 5.55 4.53 12.217 7.479 8.74 3.868 10.126 3.625 18.145 11.646 7.353 7.354 13.626 13.429 23.76 15.485 15.568 3.158 27.516 2.112 41.841 11.904 13.979 9.553 22.86 14.914 39.082 18.079 10.524 2.052 17.058-10.279 26.559-4.378 25.969 16.12 52.357 20.463 79.376 30.731-8.65 14.366-51.094 8.164-65.457 6.046-24.14-3.559-46.4 1.931-69.788-4.971-22.271-6.574-45.127-20.762-67.003-24.417-24.847-4.152-43.524-.996-59.736-25.596-8.576-13.013-6.39-10.714-22.608-10.48-12.012.173-20.754-2.076-30.78-8.981-19.969-13.754-22.096-44.159-43.155-54.187-20.239-9.637-47.414-10.499-63.9-30.357-7.396-8.912-9.202-17.882-18.186-25.582-7.858-6.735-17.431-13.136-25.707-18.832-21.619-14.878-26.645-37.101-44.042-56.317-16.554-18.286-60.33-23.233-55.965-53.507 8.907-1.305 14.918 2.154 22.121 5.784"/><linearGradient id="e" gradientUnits="userSpaceOnUse" x1="355.685" y1="648.847" x2="355.685" y2="948.887" gradientTransform="translate(638 -640.012)"><stop offset="0" stop-color="#a4a9bd"/><stop offset=".335" stop-color="#d4a8af"/><stop offset=".645" stop-color="#e9aaa4"/><stop offset="1" stop-color="#f6aba2"/></linearGradient><path clip-path="url(#b)" fill="url(#e)" d="M900.249 8.838c-13.854 19.452 30.816 44.31 8.446 57.19-9.61 5.534-18.465-4.644-26.938 7.365-6.546 9.278-4.646 23.195 1.217 31.67-30.435 7.887-27.154 35.113-21.497 60.089 12.58 55.528-46.056 2.635-40.997 35.834-20.916-3.601-17.076 6.697-22.162 24.279-7.213 24.936-15.452 1.406-30.389 12.406-9.683 7.13-5.289 30.217-13.853 40.532-7.676 9.246-24.549 13.469-34.961 10.337-15.141 33.401 51.624 16.626 62.525 12.208 9.914-4.019 15.05-13.88 23.973-18.37 12.111-6.095 19.846 4.533 31.857 1.538 11.349-2.829 13.738-14.52 20.904-22.58 11.183-12.577 22.491-10.112 37.617-4.174 16.265 6.385 89.1 30.25 71.431-12.131 5.938-.324 21.455 2.9 26.337-.532 7.782-5.474 3.421-21.381 4.502-30.884 3.806-33.461 17.265-64.195 52.45-66.583 33.729-2.29 99.796 22.69 100.984-37.27 37.713-2.229 70.439.102 96.087-35.964 10.274-14.446 33.608-47.967 16.759-64.963l-364.292.003z"/><linearGradient id="f" gradientUnits="userSpaceOnUse" x1="-211.418" y1="639.832" x2="-211.418" y2="919.744" gradientTransform="translate(638 -640.012)"><stop offset="0" stop-color="#a4a9bd"/><stop offset=".335" stop-color="#d4a8af"/><stop offset=".645" stop-color="#e9aaa4"/><stop offset="1" stop-color="#f6aba2"/></linearGradient><path clip-path="url(#b)" fill="url(#f)" d="M190.752-.18c-3.971.971 45.383 84.693 81.948 107.322 16.287 10.08 32.513 14.102 49.939 18.224 17.304 4.093 18.315 7.529 29.025 22.718 23.625 33.507 55.622 56.094 92.451 62.384 9.663 1.65 34.29-4.966 40.429-.649 5.091 3.58 3.068 15.983 9.51 21.447 5.51 4.671 11.082 2.939 17.739 3.448 30.564 2.331 46.562 13.559 72.935 28.298 26.587 14.857 49.354 22.316 77.908 11.796-17.775-23.52-48.196-13.932-69.191-33.523-18.598-17.354-18.427-42.694-46.682-43.327-3.908-49.825-39.591-10.792-61.033-32.552-18.119-18.385-3.722-56.153-39.618-60.589-1.082-24.346-.041-43.384-12.023-64.546-10.63-18.776-22.743-29.777-36.827-39.102L190.752-.18z"/><linearGradient id="g" gradientUnits="userSpaceOnUse" x1="-864.303" y1="434.263" x2="-864.303" y2="774.952" gradientTransform="rotate(-5.498 -4367.433 -10192.83)"><stop offset="0" stop-color="#a4a9bd"/><stop offset=".522" stop-color="#c9aab0"/><stop offset=".985" stop-color="#e9aaa4"/></linearGradient><path clip-path="url(#b)" fill="url(#g)" d="M-24.665 97.977c1.705 19.166 30.457 23.2 42.593 21.208 23.259-3.818 27.447 5.739 35.071 27.958 7.833-11.21 21.495-17.227 34.82-14.396 16.854 3.582 22.656 21.845 33.646 31.645 1.884 1.678 6.091-1.018 9.009 1.685 2.177 2.015 1.596 9.193 3.268 10.59 6.547 5.475 10.515.625 18.669 3.738 13.434 5.13 15.022 23.229 13.229 36.518 20.945-1.026 39.903 1.241 57.323 15.798 18.483 15.448 14.496 26.512 17.569 47.366 19.038 24.093 44.042 33.61 67.062 48.756 21.771 14.322 48.401 23.788 67.616 39.912-18.802 5.184-95.91-38.403-114.499-47.086-37.598-17.563-151.455-103.973-176.188-119.172-19.307-11.865-37.192-25.503-55.355-39.556-18.114-14.014-37.25-25.933-54.775-40.665-13.781-11.585-40.123-31.677-39.261-53.233 12.654 8.519 20.91 23.783 40.203 28.934"/><linearGradient id="h" gradientUnits="userSpaceOnUse" x1="717.627" y1="193.813" x2="487.38" y2="495.58" gradientTransform="matrix(1.0853 .0319 -.0366 1.2445 276.325 -85.672)"><stop offset="0" stop-color="#a4a9bd"/><stop offset=".621" stop-color="#e9aaa4"/><stop offset="1" stop-color="#f6aba2"/></linearGradient><path clip-path="url(#b)" fill="url(#h)" d="M781.105 440.126c26.744-3.574 56.538-5.451 80.174-12.837 26.036-8.137 56.841-29.902 83.386-36.254 24.433-5.845 53.624-10.686 75.857-23.738 11.005-6.461 30.263-38.858 41.907-43.113 12.695-4.642 26.083-10.402 39.068-13.84 8.699-2.304 16.206-6.017 23.197-12.988 5.587-5.572 13.222-13.443 10.322-20.599-12.527-2.92-24.942 12.064-35.29 17.039-12.754 6.132-43.643 3.727-56.56 2.748-28.9-2.192-42.001 35.894-57.784 42.846-7.034 3.098-12.688 8.387-19.871 5.04-5.887-2.744-10.997-8.569-16.92-11.793-28.732-15.64-53.963-8.259-75.303 16.784-8.181 9.601-16.902 19.387-22.205 31.503-2.67 6.101-4.513 11.05-6.522 16.952-3.716 10.917-2.403 5.533-11.261 3.341-9.711-2.404-22.379.424-24.055 13.174-9.247-5.344-20.776-29.073-31.285-22.684-9.379 5.702-7.454 16.832-17.209 18.828-15.915 3.257-50.174 1.387-54.354 24.28 8.831 7.06 56.553 11.315 74.708 5.311"/><linearGradient id="i" gradientUnits="userSpaceOnUse" x1="-50.631" y1="1067.582" x2="965.638" y2="1067.582" gradientTransform="translate(638 -640.012)"><stop offset="0" stop-color="#f7b1a2"/><stop offset=".497" stop-color="#f9bda3"/><stop offset="1" stop-color="#fbcaa3"/></linearGradient><path clip-path="url(#b)" fill="url(#i)" d="M1484.928-6.567c-33.106 7.158-23.037 39.797-34.697 60.313-11.648 20.495-45.679 25.799-63.263 40.24-23.544 19.335-31.735 40.821-37.509 69.366-2.181 10.797-3.809 22.401-13.227 30.305-9.354 7.849-24.76 7.728-35.203 15.584-13.856 10.426-17.575 29.91-26.422 43.656-12.895 20.039-28.516 26.753-48.345 38.11 27.221-18.694 16.192-47.464 21.384-73.495 3.835-19.225 21.047-23.251 36.284-34.774 19.891-15.042 19.347-20.187 8.988-39.108-10.761-19.653-2.479-16.666 12.564-27.308 15.439-10.923 3.672-22.12 15.106-33.828 4.81-4.925 17.225-4.681 23.529-8.658 6.033-3.807 14.202-12.07 17.604-18.2 8.391-15.116 12.057-70.435-10.814-75.701-.633 34.251-18.396 41.585-47.067 53.281-28.925 11.798-37.762 26.764-39.265 55.566-30.201 3.689-41.62 28.477-42.149 56.134-23.202-.218-47.318 10.436-56.392 32.089-12.3 29.357 1.205 64.165-8.943 95.536-12.201 37.711-36.384 39.739-71.769 46.997-16.11 3.305-34.485 10.227-45.31 22.836-10.965 12.774-8.677 24.981-9.638 40.768-10.424-4.543-15-12.967-27.828-14.977-16.323-2.558-33.096 2.297-46.752 10.536-30.098 18.157-37.546 39.947-34.083 72.906 1.908 18.146.092 18.63-17.514 18.543-14.56-.072-24.217 2.176-35.56 11.762-10.868 9.186-19.116 22.737-22.201 36.448-2.802 12.455-.742 22.372-14.396 26.972-19.534 6.58-35.114-12.741-47.706-22.836-16.089-12.898-33.045-13.926-50.725-4.507-32.068 17.082-53.324 49.75-57.568 83.584-30.722 5.072-50.952-24.855-73.135 7.815-16.723 24.628-9.55 213.804-15.54 249.124l1016.269 16.689-3.19-875.702-115.517-6.066z"/><linearGradient id="j" gradientUnits="userSpaceOnUse" x1="-857.176" y1="1057.226" x2="198.443" y2="1057.226" gradientTransform="translate(638 -640.012)"><stop offset="0" stop-color="#f9b4a0"/><stop offset="1" stop-color="#fbcaa3"/></linearGradient><path clip-path="url(#b)" fill="url(#j)" d="M-219.176-71.825c28.96.089 69.088 19.026 75.862 53.518 2.48 12.624-3.497 26.518-3.524 36.856-.048 16.873 9.941 20.331 24.66 26.032 24.199 9.373 39.136 22.697 23.122 50.99-1.825 3.225-8.998 10.674-9.172 14.203-.611 12.346 3.687 5.924 10.381 12.611 9.672 9.659 16.584 17.155 19.587 31.214 2.587 12.113-3.885 26.251 4.893 35.277 9.047 9.305 29.479 6.333 36.11-4.379 14.91-24.086-30.403-49.541-27.09-74.44 9.743-.968 16.478 15.334 22.169 22.82 8.227 10.819 16.972 19.373 29.136 26.033 27.306 14.948 51.955 20.979 73.894 45.372 20.856 23.188 28.911 47.761 56.456 64.013 9.646 5.691 29.709 12.542 36.412 21.533 12.869 17.262-10.789 8.927-19.817 6.534-18.163-4.818-35.621-10.472-51.454-22.756-17.468-13.551-33.174-36.143-57.102-32.106 9.777 6.29 8.85 23.735 16.588 33.771 7.422 9.625 16.021 17.983 25.436 25.587 21.558 17.412 47.133 10.699 72.674 15.003 11.854 1.999 26.643 6.802 36.402 16.045 20.69 19.598 14.856 24.638 43.59 19.774 21.979-3.721 46.737.469 65.11 14.598 10.387 7.987 19.76 16.743 27.866 27.889 3.858 5.303 5.744 14.393 11.217 18.04 9.685 6.453 3.066 1.619 13.394-.941 16.338-4.05 24.714-11.148 41.495-2.065 15.132 8.191 18.166 24.266 30.608 35.114 15.652 13.646 17.194-2.702 35.865 1.415 13.826 3.048 19.467 18.319 33.503 18.679 10.601.273 20.848-7.632 33.494-6.115 12.249 1.469 23.823 6.64 35.26 11.583 26.338 11.385 48.989 26.607 71.274 45.583 16.877 14.372 46.007 50.641 46.007 50.641s65.767-15.736 117.256 32.487c29.868 27.973 37.099 61.719 54.06 300.635-32.244 14.316-239.552 2.355-274.297 2.355h-778.517l-2.808-973.403z"/><linearGradient id="k" gradientUnits="userSpaceOnUse" x1="404.232" y1="1130.554" x2="640.318" y2="1539.468" gradientTransform="translate(638 -640.012)"><stop offset="0" stop-color="#fceea6"/><stop offset=".557" stop-color="#fdd4af"/><stop offset="1" stop-color="#ffb395"/></linearGradient><path clip-path="url(#b)" fill="url(#k)" d="M1602.57 899.247V406.092c-8-26.202-73.679-3.904-87.095 7.251-8.717-33.558-25.945-73.134-67.355-74.242-41.196-1.101-66.698 39.863-72.949 74.25-20.548-14.957-49.174-9.09-46.425 20.373-45.509-1.688-79.478 45.82-76.021 89.019-1.404-48.825-87.223-90.127-106.155-31.711 5.667-49.865-45.202-40.853-71.073-18.045-30.593 26.97-48.18 75.022-47.835 115.001-10.771-45.465-85.228-33.784-105.685-6.873-5.843 7.688-5.526 11.969-13.455 17.102-8.818 5.707-23.288 3.236-31.722 11.169-13.511 12.709-6.173 37.312-3.923 53.179-28.549 2.641-50.994-10.506-102.803-.172-34.451 6.873-104.682 35.543-122.828 111.662-32.001 104.434 42.421 126.154 39.791 125.16"/><linearGradient id="l" gradientUnits="userSpaceOnUse" x1="298.788" y1="1514.026" x2="168.875" y2="1904.179" gradientTransform="rotate(9.957 6082.64 862.376)"><stop offset="0" stop-color="#fceea6"/><stop offset=".557" stop-color="#fdd4af"/><stop offset="1" stop-color="#ffb395"/></linearGradient><path clip-path="url(#b)" fill="url(#l)" d="M-242.941 335.037c-.273-22.894 73.128-12.372 85.976-5.695 25.592 13.299 33.291 33.457 42.662 58.269 16.483-10.921 45.723-10.354 36.956 17.397 22.693-7.992 41.176 6.17 45.733 29 4.229 21.202-6.06 36.279-16.754 53.452 14.037-7.617 21.184 5.853 17.657 18.312 28.697-25.693 66.445-5.38 74.379 25.864 20.149-29.316 48.001-51.183 84.616-50.648 28.83.422 61.259 20.698 66.634 50.655 7.547-16.744 44.091-17.427 38.706 7.358 18.167-20.507 62.17-17.563 55.465 17.161 22.804 2.08 49.821-5.337 64.83 19.178 12.012 19.621 23.091 59.121 19.375 82.557 11.619-2.133 22.906-10.988 35.87-12.451 18.701-2.109 38.041 5.152 53.674 14.723 29.683 18.168 64.574 44.906 77.449 78.301 10.729 27.826 3.257 54.041-6.547 80.047-7.701 20.43-6.445 16.721 12.581 24.924 18.057 7.787 17.454 13.289 21.192 31.818 21.589-1.869 39.485-3.816 58.538 9.098 10.689 7.246 26.126 39.822 28.782 40.482l-901.935 7.248 4.161-597.05z"/><linearGradient id="m" gradientUnits="userSpaceOnUse" x1="521.642" y1="1132.047" x2="1038.091" y2="615.598" gradientTransform="translate(638 -640.012)"><stop offset="0" stop-color="#fed1ad"/><stop offset="1" stop-color="#fec8a7"/></linearGradient><path clip-path="url(#b)" fill="url(#m)" d="M1617.458 148.263c1.582.819-19.074 5.963-27.219 8.019-14.83 3.745-28.24 8.901-40.906 18.031-20.905 15.068-32.84 37.95-52.83 54.324-11.053 9.054-20.134 13.03-33.262 16.531-11.206 2.987-12.299 7.954-19.567 16.36-16.995 19.651-50.748 22.283-73.681 28.75-25.285 7.132-45.064 11.042-64.273 31.087-5.123 5.347-10.111 11.951-16.492 15.498-7.138 3.967-16.013 3.262-23.489 6.766-13.953 6.542-27.167 13.755-41.799 19.04-13.972 5.045-38.799 20.104-54.013 14.046-15.257-6.075 18.485-18.053 24.89-21.313 6.608-3.364 13.566-6.885 19.774-11.523 6.811-5.091 11.408-12.998 17.882-18.057 13.463-10.521 31.374-3.197 45.384-12.449 16.522-10.911 28.984-30.707 45.59-42.882 14.504-10.632 31.619-18.249 48.379-22.096 12.863-2.955 29.257-.016 40.938-8.209 12.522-8.783 8.717-27.514 19.308-39.095 12.395-13.549 25.594-5.779 38.222.144.432-2.349.69-4.882 2.02-6.886 9.595-14.449 17.394-27.231 36.287-26.049 8.181.513 13.34 5.094 18.839-3.956 3.771-6.205 3.641-15.417 5.301-22.148 4.158-16.854 17.342-28.625 34.686-24.236 11.863 3.004 30.951 18.831 40.729 2.25l9.302 28.053z"/><linearGradient id="n" gradientUnits="userSpaceOnUse" x1="781.58" y1="1296.922" x2="501.023" y2="1190.397" gradientTransform="translate(638 -640.012)"><stop offset="0" stop-color="#fcb39d"/><stop offset="1" stop-color="#fbc9a7"/></linearGradient><path clip-path="url(#b)" fill="url(#n)" d="M1602.799 567.52s-128.411 57.686-150.656 66.061c-22.243 8.373-53.044 13.025-26.521-5.584 26.521-18.607 59.032-37.217 59.032-37.217s-135.175 64.199-166.83 40.939c0 0-319.973 106.066-397.828 83.736s65.877-19.537 126.62-34.426c60.745-14.887 53.044-51.172 116.354-56.754 63.313-5.582 65.878-50.242 120.633-56.756 54.756-6.513 73.577 5.582 73.577 5.582s11.121-52.103 51.333-54.894c40.21-2.792 82.132 6.513 82.132 6.513s-2.567-46.521 43.633-54.895c46.199-8.374 68.443 9.305 68.443 9.305l.078 88.39z"/><linearGradient id="o" gradientUnits="userSpaceOnUse" x1="-655.845" y1="860.978" x2="-804.085" y2="946.565" gradientTransform="translate(638 -640.012)"><stop offset="0" stop-color="#fed1ad"/><stop offset="1" stop-color="#f9b4a0"/></linearGradient><path clip-path="url(#b)" fill="url(#o)" d="M-216.789 218.731s66.954 32.727 99.518 60.779c32.564 28.052 130.241 90.169 170.248 95.179 40.008 5.01 4.645-5.009-22.338-25.047-26.982-20.037-1.865-57.107-33.5-71.133-31.633-14.026-44.663-12.023-44.663-12.023s3.053-44.031-39.078-62.116c-42.13-18.086-22.294-19.036-39.042-46.086-16.749-27.051-58.583-55.682-91.146-26.839v87.286z"/><linearGradient id="p" gradientUnits="userSpaceOnUse" x1="-2.174" y1="1314.021" x2="-304.465" y2="1546.617" gradientTransform="matrix(1.1087 .0906 -.0814 .9967 301.427 -799.76)"><stop offset="0" stop-color="#fbc9a7"/><stop offset="1" stop-color="#fcb39d"/></linearGradient><path clip-path="url(#b)" fill="url(#p)" d="M-219.176 635.194c.012.07 100.082 41.254 158.872 44.531-2.705-3.008-6.597-5-10.763-7.104-62.92-31.748-78.223-38.6-78.223-38.6s99.358 31.924 208.383 49.234c109.023 17.311 229.049 14.514 229.049 14.514s80.559-1.043 1.24-14.914c-50.4-8.813-102.976-2.533-152.113-17.561-58.745-17.965-40.27-74.578-117.65-81.955-34.698-3.306-27.25 3.586-50.93-18.086-17.274-15.807-31.788-31.868-52.5-45.67-31.839-21.217-136.521-31.848-136.521-31.848s-1.327 133.206 1.156 147.459z"/></svg>