<?xml version="1.0" encoding="utf-8"?>
<!-- Generator: Adobe Illustrator 16.0.0, SVG Export Plug-In . SVG Version: 6.00 Build 0)  -->
<!DOCTYPE svg PUBLIC "-//W3C//DTD SVG 1.1//EN" "http://www.w3.org/Graphics/SVG/1.1/DTD/svg11.dtd">
<svg version="1.1" id="Layer_1" xmlns="http://www.w3.org/2000/svg" xmlns:xlink="http://www.w3.org/1999/xlink" x="0px" y="0px"
	 width="3836px" height="1900.988px" viewBox="0 0 3836 1900.988" enable-background="new 0 0 3836 1900.988" xml:space="preserve">
<linearGradient id="SVGID_1_" gradientUnits="userSpaceOnUse" x1="1975.5" y1="1812.3457" x2="1975.4999" y2="74.8547" gradientTransform="matrix(1 0 0 -1 -56 1755.9883)">
	<stop  offset="0" style="stop-color:#A4A9BD"/>
	<stop  offset="0.1126" style="stop-color:#B2A9B8"/>
	<stop  offset="0.3256" style="stop-color:#D8AAAA"/>
	<stop  offset="0.4138" style="stop-color:#E9AAA4"/>
	<stop  offset="0.67" style="stop-color:#F6ABA2"/>
	<stop  offset="1" style="stop-color:#F6ABA2"/>
</linearGradient>
<rect fill="url(#SVGID_1_)" width="3839" height="1932.996"/>
<linearGradient id="SVGID_2_" gradientUnits="userSpaceOnUse" x1="1393.7905" y1="1579.8525" x2="1393.7905" y2="899.1548" gradientTransform="matrix(1 0 0 -1 -56 1755.9883)">
	<stop  offset="0" style="stop-color:#A4A9BD"/>
	<stop  offset="0.2113" style="stop-color:#BBA9B5"/>
	<stop  offset="0.5052" style="stop-color:#D4AAAC"/>
	<stop  offset="0.7719" style="stop-color:#E4AAA6"/>
	<stop  offset="0.9852" style="stop-color:#E9AAA4"/>
</linearGradient>
<path fill="url(#SVGID_2_)" d="M776.989,185.943c31.994,21.813,82.723,49.383,116.938,83.373
	c35.009,34.779,62.726,80.924,96.084,119.37c17.779,20.488,30.726,35.333,57.006,39.563c28.205,4.538,46.765,2.739,71.41,23.415
	c16.114,13.518,26.256,34.123,45.603,45.225c27.651,15.865,51.488-3.586,84.751-4.024c75.591-0.998,82.609,36.088,98.277,100.152
	c10.146,41.48,22.511,27.515,53.994,32.309c19.621,2.986,13.549,6.672,27.746,16.229c11.897,8.011,11.931,9.738,26.26,16.078
	c18.789,8.313,21.767,7.792,39.005,25.035c15.803,15.809,29.288,28.865,51.073,33.285c33.463,6.789,59.144,4.541,89.939,25.588
	c30.05,20.535,49.14,32.059,84.009,38.861c22.621,4.411,36.667-22.093,57.091-9.412c55.82,34.651,112.545,43.989,170.623,66.059
	c-18.596,30.881-109.83,17.549-140.705,12.998c-51.889-7.65-99.741,4.151-150.015-10.687
	c-47.873-14.131-97.005-44.627-144.025-52.485c-53.412-8.927-93.56-2.141-128.408-55.021
	c-18.436-27.973-13.736-23.032-48.599-22.528c-25.822,0.371-44.615-4.463-66.162-19.306
	c-42.926-29.566-47.498-94.924-92.769-116.479c-43.503-20.714-101.919-22.569-137.354-65.253
	c-15.902-19.158-19.783-38.439-39.094-54.992c-16.892-14.478-37.471-28.236-55.26-40.48c-46.469-31.981-57.275-79.75-94.67-121.057
	c-35.586-39.307-129.683-49.941-120.302-115.019c19.15-2.804,32.07,4.63,47.552,12.435"/>
<linearGradient id="SVGID_3_" gradientUnits="userSpaceOnUse" x1="2637.002" y1="1736.9951" x2="2637.002" y2="1092.0371" gradientTransform="matrix(1 0 0 -1 -56 1755.9883)">
	<stop  offset="0" style="stop-color:#A4A9BD"/>
	<stop  offset="0.335" style="stop-color:#D4A8AF"/>
	<stop  offset="0.6453" style="stop-color:#E9AAA4"/>
	<stop  offset="1" style="stop-color:#F6ABA2"/>
</linearGradient>
<path fill="url(#SVGID_3_)" d="M2380.154,18.997c-29.777,41.815,66.24,95.249,18.156,122.935
	c-20.658,11.896-39.689-9.982-57.904,15.832c-14.07,19.943-9.988,49.857,2.613,68.076c-65.42,16.952-58.369,75.477-46.207,129.166
	c27.041,119.359-99,5.664-88.129,77.027c-44.959-7.74-36.705,14.396-47.638,52.19c-15.504,53.599-33.215,3.022-65.323,26.668
	c-20.813,15.326-11.369,64.953-29.777,87.126c-16.5,19.874-52.769,28.952-75.152,22.219
	c-32.545,71.799,110.971,35.74,134.404,26.242c21.311-8.636,32.352-29.834,51.533-39.486c26.032-13.101,42.659,9.744,68.479,3.306
	c24.392-6.081,29.529-31.21,44.935-48.536c24.037-27.035,48.346-21.739,80.862-8.973c34.961,13.725,191.525,65.025,153.545-26.077
	c12.763-0.695,46.117,6.235,56.611-1.144c16.729-11.765,7.354-45.961,9.678-66.386c8.181-71.928,37.111-137.992,112.746-143.125
	c72.504-4.92,214.517,48.774,217.074-80.113c81.065-4.791,151.412,0.219,206.545-77.308
	c22.084-31.052,72.244-103.109,36.024-139.644L2380.154,18.997z"/>
<linearGradient id="SVGID_4_" gradientUnits="userSpaceOnUse" x1="1417.9731" y1="1756.376" x2="1417.9731" y2="1154.6846" gradientTransform="matrix(1 0 0 -1 -56 1755.9883)">
	<stop  offset="0" style="stop-color:#A4A9BD"/>
	<stop  offset="0.335" style="stop-color:#D4A8AF"/>
	<stop  offset="0.6453" style="stop-color:#E9AAA4"/>
	<stop  offset="1" style="stop-color:#F6ABA2"/>
</linearGradient>
<path fill="url(#SVGID_4_)" d="M855.041-0.387c-8.536,2.088,97.557,182.054,176.152,230.697
	c35.011,21.668,69.89,30.313,107.349,39.174c37.195,8.799,39.37,16.184,62.391,48.834
	c50.786,72.027,119.563,120.579,198.729,134.099c20.771,3.548,73.708-10.675,86.906-1.395c10.943,7.695,6.597,34.358,20.441,46.101
	c11.843,10.04,23.821,6.318,38.132,7.412c65.701,5.009,100.088,29.146,156.778,60.828c57.151,31.938,106.093,47.971,167.47,25.357
	c-38.21-50.558-103.601-29.947-148.732-72.06c-39.977-37.302-39.609-91.773-100.346-93.135
	c-8.401-107.102-85.103-23.199-131.196-69.972c-38.948-39.519-7.999-120.706-85.159-130.242
	c-2.33-52.332-0.092-93.256-25.848-138.746c-22.85-40.361-48.889-64.006-79.164-84.051L855.041-0.387z"/>
<linearGradient id="SVGID_5_" gradientUnits="userSpaceOnUse" x1="407.3091" y1="1801.1504" x2="407.309" y2="1068.8164" gradientTransform="matrix(0.9954 -0.0959 -0.0959 -0.9954 510.4902 1938.178)">
	<stop  offset="0" style="stop-color:#A4A9BD"/>
	<stop  offset="0.5222" style="stop-color:#C9AAB0"/>
	<stop  offset="0.9852" style="stop-color:#E9AAA4"/>
</linearGradient>
<path fill="url(#SVGID_5_)" d="M391.985,210.607c3.665,41.199,65.47,49.871,91.559,45.588c49.996-8.208,58.997,12.336,75.389,60.099
	c16.837-24.097,46.203-37.032,74.846-30.946c36.229,7.7,48.702,46.956,72.325,68.021c4.048,3.608,13.092-2.188,19.365,3.623
	c4.677,4.332,3.43,19.76,7.024,22.765c14.073,11.767,22.605,1.345,40.128,8.035c28.88,11.028,32.293,49.933,28.438,78.499
	c45.021-2.206,85.773,2.666,123.219,33.959c39.733,33.205,31.161,56.989,37.766,101.816
	c40.924,51.789,94.674,72.248,144.154,104.803c46.797,30.788,104.041,51.134,145.346,85.795
	c-40.416,11.143-206.168-82.551-246.123-101.215c-80.818-37.752-325.564-223.496-378.73-256.168
	c-41.499-25.504-79.945-54.82-118.989-85.028c-38.937-30.124-80.071-55.745-117.742-87.411
	c-29.625-24.904-86.249-68.094-84.394-114.428C332.767,166.725,350.514,199.537,391.985,210.607"/>
<linearGradient id="SVGID_6_" gradientUnits="userSpaceOnUse" x1="2901.874" y1="2121.626" x2="2406.9407" y2="1472.9562" gradientTransform="matrix(1.0853 0.0319 0.0366 -1.2445 -529.1438 2931.3213)">
	<stop  offset="0" style="stop-color:#A4A9BD"/>
	<stop  offset="0.6207" style="stop-color:#E9AAA4"/>
	<stop  offset="1" style="stop-color:#F6ABA2"/>
</linearGradient>
<path fill="url(#SVGID_6_)" d="M2124.047,946.084c57.488-7.683,121.533-11.718,172.338-27.596
	c55.971-17.49,122.185-64.277,179.244-77.929c52.521-12.565,115.27-22.97,163.063-51.027c23.656-13.889,65.052-83.528,90.082-92.675
	c27.291-9.976,56.066-22.359,83.979-29.75c18.701-4.953,34.836-12.934,49.865-27.917c12.01-11.977,28.42-28.899,22.188-44.281
	c-26.928-6.275-53.614,25.935-75.858,36.628c-27.418,13.181-93.812,8.011-121.578,5.905c-62.123-4.712-90.285,77.156-124.211,92.101
	c-15.121,6.661-27.275,18.029-42.715,10.833c-12.654-5.897-23.639-18.419-36.371-25.35c-61.76-33.62-115.996-17.752-161.869,36.079
	c-17.586,20.637-36.334,41.672-47.732,67.719c-5.739,13.114-9.7,23.753-14.02,36.441c-7.988,23.466-5.166,11.893-24.205,7.18
	c-20.875-5.168-48.105,0.912-51.707,28.32c-19.877-11.488-44.66-62.495-67.252-48.761c-20.16,12.256-16.02,36.181-36.991,40.472
	c-34.209,7-107.851,2.982-116.837,52.192C1982.438,949.842,2085.021,958.988,2124.047,946.084"/>
<linearGradient id="SVGID_7_" gradientUnits="userSpaceOnUse" x1="1763.6006" y1="836.8979" x2="3948.1426" y2="836.8979" gradientTransform="matrix(1 0 0 -1 -56 1755.9883)">
	<stop  offset="0" style="stop-color:#F7B1A2"/>
	<stop  offset="0.4975" style="stop-color:#F9BDA3"/>
	<stop  offset="1" style="stop-color:#FBCAA3"/>
</linearGradient>
<path fill="url(#SVGID_7_)" d="M3636.963-14.115c-71.164,15.387-49.52,85.547-74.584,129.646
	c-25.039,44.056-98.189,55.456-135.988,86.498c-50.608,41.563-68.217,87.748-80.627,149.108
	c-4.69,23.209-8.188,48.153-28.432,65.142c-20.107,16.871-53.223,16.611-75.67,33.5c-29.787,22.411-37.779,64.293-56.797,93.843
	c-27.719,43.073-61.295,57.508-103.92,81.919c58.512-40.186,34.807-102.028,45.965-157.982
	c8.242-41.327,45.242-49.982,77.996-74.751c42.756-32.334,41.588-43.393,19.32-84.065c-23.131-42.247-5.328-35.825,27.008-58.7
	c33.188-23.48,7.893-47.549,32.473-72.715c10.34-10.586,37.027-10.062,50.576-18.61c12.971-8.183,30.529-25.947,37.844-39.122
	c18.037-32.492,25.918-151.404-23.246-162.725c-1.361,73.625-39.545,89.391-101.176,114.532
	c-62.176,25.362-81.17,57.532-84.4,119.445c-64.92,7.929-89.467,61.212-90.604,120.663c-49.875-0.467-101.715,22.434-121.217,68.979
	c-26.441,63.104,2.59,137.926-19.226,205.36c-26.227,81.063-78.209,85.422-154.272,101.021
	c-34.631,7.103-74.127,21.985-97.394,49.088c-23.571,27.459-18.653,53.699-20.717,87.634c-22.408-9.765-32.244-27.872-59.818-32.193
	c-35.088-5.5-71.143,4.938-100.498,22.647c-64.696,39.03-80.709,85.869-73.264,156.717c4.101,39.007,0.197,40.048-37.646,39.859
	c-31.298-0.154-52.056,4.678-76.437,25.283c-23.363,19.746-41.096,48.877-47.726,78.35c-6.022,26.77-1.592,48.089-30.946,57.976
	c-41.99,14.144-75.479-27.387-102.548-49.087c-34.582-27.727-71.03-29.935-109.034-9.688
	c-68.932,36.719-114.625,106.943-123.748,179.672c-66.038,10.901-109.525-53.43-157.208,16.799
	c-35.946,52.941-20.528,459.588-33.403,535.512l2184.542,35.873L3885.279-1.07L3636.963-14.115z"/>
<linearGradient id="SVGID_8_" gradientUnits="userSpaceOnUse" x1="29.8701" y1="859.1543" x2="2299.001" y2="859.1543" gradientTransform="matrix(1 0 0 -1 -56 1755.9883)">
	<stop  offset="0" style="stop-color:#F9B4A0"/>
	<stop  offset="1" style="stop-color:#FBCAA3"/>
</linearGradient>
<path fill="url(#SVGID_8_)" d="M-26.13-154.393c62.252,0.191,148.51,40.898,163.073,115.039c5.331,27.138-7.517,57.002-7.578,79.225
	c-0.101,36.27,21.369,43.702,53.011,55.958c52.016,20.146,84.122,48.788,49.7,109.606c-3.924,6.932-19.341,22.943-19.716,30.531
	c-1.312,26.536,7.923,12.733,22.314,27.106c20.789,20.764,35.649,36.878,42.106,67.099c5.561,26.037-8.351,56.429,10.516,75.831
	c19.447,20,63.365,13.612,77.62-9.415c32.05-51.773-65.355-106.49-58.229-160.014c20.941-2.08,35.42,32.963,47.653,49.054
	c17.684,23.255,36.481,41.644,62.629,55.958c58.697,32.133,111.682,45.096,158.839,97.529
	c44.833,49.845,62.146,102.666,121.356,137.601c20.733,12.233,63.861,26.961,78.27,46.286
	c27.662,37.104-23.193,19.191-42.599,14.045c-39.045-10.356-76.57-22.512-110.607-48.917
	c-37.546-29.129-71.308-77.691-122.745-69.015c21.019,13.521,19.024,51.021,35.659,72.594
	c15.954,20.688,34.436,38.656,54.675,55.001c46.341,37.428,101.317,22.998,156.22,32.251c25.48,4.295,57.27,14.621,78.246,34.489
	c44.478,42.128,31.935,52.96,93.702,42.505c47.245-7.998,100.463,1.008,139.959,31.379c22.327,17.169,42.474,35.99,59.899,59.949
	c8.292,11.399,12.348,30.938,24.114,38.778c20.816,13.869,6.59,3.479,28.79-2.023c35.118-8.706,53.124-23.965,89.197-4.438
	c32.525,17.607,39.046,52.16,65.793,75.478c33.646,29.332,36.959-5.808,77.096,3.042c29.719,6.551,41.845,39.378,72.014,40.152
	c22.789,0.586,44.817-16.405,72-13.145c26.33,3.158,51.21,14.273,75.793,24.9c56.618,24.473,105.307,57.192,153.21,97.983
	c36.277,30.892,98.896,108.854,98.896,108.854s141.37-33.826,252.051,69.832c64.203,60.13,79.743,132.669,116.203,646.236
	c-69.312,30.777-514.935,5.063-589.621,5.063c-154.923,0-309.846,0-464.769,0c-324.559,0-649.115,0-973.672,0
	c-78.345,0-156.69,0-235.036,0L-26.13-154.393z"/>
<linearGradient id="SVGID_9_" gradientUnits="userSpaceOnUse" x1="2741.3555" y1="701.5337" x2="3237.5676" y2="-157.9311" gradientTransform="matrix(1 0 0 -1 -56 1755.9883)">
	<stop  offset="0" style="stop-color:#FCEEA6"/>
	<stop  offset="0.5567" style="stop-color:#FDD4AF"/>
	<stop  offset="1" style="stop-color:#FFB395"/>
</linearGradient>
<path fill="url(#SVGID_9_)" d="M3885.279,1900.67l4.565-1027.745c-17.196-56.323-158.375-8.394-187.217,15.588
	c-18.736-72.135-55.769-157.208-144.783-159.588c-88.555-2.367-143.373,85.688-156.811,159.604
	c-44.17-32.15-105.701-19.538-99.793,43.793c-97.824-3.628-170.841,98.493-163.41,191.353
	c-3.021-104.952-187.494-193.734-228.192-68.164c12.184-107.191-97.164-87.816-152.775-38.79
	c-65.762,57.974-103.566,161.266-102.824,247.203c-23.154-97.731-183.203-72.621-227.176-14.775
	c-12.563,16.527-11.881,25.729-28.924,36.762c-18.955,12.268-50.06,6.956-68.187,24.008c-29.043,27.319-13.27,80.203-8.434,114.313
	c-61.367,5.673-109.615-22.586-220.981-0.37c-74.056,14.772-225.022,76.404-264.026,240.024
	c-68.79,224.491,91.186,271.178,85.532,269.042"/>
<linearGradient id="SVGID_10_" gradientUnits="userSpaceOnUse" x1="1862.8491" y1="529.4434" x2="1583.592" y2="-309.2184" gradientTransform="matrix(0.9849 0.1729 0.1729 -0.9849 -893.9553 1283.0127)">
	<stop  offset="0" style="stop-color:#FCEEA6"/>
	<stop  offset="0.5567" style="stop-color:#FDD4AF"/>
	<stop  offset="1" style="stop-color:#FFB395"/>
</linearGradient>
<path fill="url(#SVGID_10_)" d="M-77.213,720.185c-0.59-49.212,157.194-26.594,184.809-12.242
	c55.013,28.588,71.563,71.918,91.708,125.254c35.43-23.476,98.282-22.258,79.44,37.397c48.779-17.18,88.511,13.264,98.304,62.336
	c9.094,45.574-13.023,77.984-36.015,114.899c30.177-16.373,45.539,12.582,37.957,39.363c61.688-55.229,142.83-11.565,159.884,55.597
	c43.312-63.016,103.185-110.021,181.888-108.871c61.97,0.906,131.678,44.49,143.235,108.887
	c16.222-35.994,94.776-37.461,83.201,15.816c39.05-44.081,133.639-37.752,119.225,36.889c49.02,4.47,107.094-11.473,139.356,41.224
	c25.821,42.178,49.635,127.084,41.646,177.464c24.976-4.587,49.239-23.619,77.106-26.764c40.199-4.536,81.771,11.073,115.376,31.646
	c63.803,39.054,138.805,96.53,166.483,168.315c23.063,59.813,7,116.161-14.074,172.064c-16.554,43.914-13.854,35.943,27.043,53.576
	c38.815,16.736,37.521,28.565,45.556,68.396c46.407-4.021,84.876-8.202,125.83,19.557c22.979,15.576,56.161,85.6,61.87,87.02
	l-1938.771,15.579L-77.213,720.185z"/>
<linearGradient id="SVGID_11_" gradientUnits="userSpaceOnUse" x1="2993.7363" y1="698.3237" x2="4103.8872" y2="1808.475" gradientTransform="matrix(1 0 0 -1 -56 1755.9883)">
	<stop  offset="0" style="stop-color:#FED1AD"/>
	<stop  offset="1" style="stop-color:#FEC8A7"/>
</linearGradient>
<path fill="url(#SVGID_11_)" d="M3921.846,318.703c3.402,1.762-41.002,12.816-58.508,17.237
	c-31.877,8.05-60.705,19.134-87.93,38.758c-44.938,32.39-70.594,81.575-113.563,116.773c-23.76,19.463-43.278,28.009-71.498,35.534
	c-24.088,6.423-26.436,17.097-42.063,35.167c-36.531,42.242-109.086,47.9-158.381,61.803c-54.354,15.33-96.869,23.734-138.16,66.823
	c-11.012,11.493-21.734,25.688-35.451,33.313c-15.344,8.53-34.42,7.013-50.492,14.546c-29.994,14.063-58.397,29.567-89.85,40.926
	c-30.033,10.846-83.402,43.214-116.104,30.193c-32.795-13.058,39.736-38.805,53.502-45.813c14.205-7.231,29.164-14.8,42.507-24.771
	c14.641-10.943,24.522-27.94,38.438-38.814c28.939-22.617,67.441-6.873,97.555-26.76c35.517-23.454,62.307-66.007,98-92.176
	c31.178-22.857,67.967-39.227,103.994-47.499c27.65-6.351,62.889-0.034,88-17.646c26.918-18.88,18.736-59.144,41.504-84.037
	c26.641-29.126,55.014-12.423,82.16,0.309c0.926-5.048,1.483-10.496,4.342-14.801c20.623-31.06,37.387-58.536,78-55.994
	c17.584,1.101,28.674,10.95,40.496-8.504c8.105-13.339,7.824-33.14,11.395-47.609c8.937-36.231,37.277-61.533,74.556-52.097
	c25.504,6.457,66.534,40.479,87.555,4.836L3921.846,318.703z"/>
<linearGradient id="SVGID_12_" gradientUnits="userSpaceOnUse" x1="3552.4902" y1="343.9116" x2="2949.4165" y2="572.8941" gradientTransform="matrix(1 0 0 -1 -56 1755.9883)">
	<stop  offset="0" style="stop-color:#FCB39D"/>
	<stop  offset="1" style="stop-color:#FBC9A7"/>
</linearGradient>
<path fill="url(#SVGID_12_)" d="M3890.334,1219.925c0,0-276.029,124-323.844,142c-47.816,18-114.021,28-57.012-12
	c57.012-40,126.895-80,126.895-80s-290.568,138-358.613,88c0,0-687.805,228-855.16,180c-167.354-48,141.607-42,272.181-74
	s114.021-110,250.11-122c136.091-12,141.607-108,259.308-122s158.158,12,158.158,12s23.907-112,110.344-118
	c86.435-6,176.549,14,176.549,14s-5.518-100,93.791-118c99.31-18,147.123,20,147.123,20L3890.334,1219.925z"/>
<linearGradient id="SVGID_13_" gradientUnits="userSpaceOnUse" x1="462.646" y1="1281.0078" x2="143.9909" y2="1097.0322" gradientTransform="matrix(1 0 0 -1 -56 1755.9883)">
	<stop  offset="0" style="stop-color:#FED1AD"/>
	<stop  offset="1" style="stop-color:#F9B4A0"/>
</linearGradient>
<path fill="url(#SVGID_13_)" d="M-21,470.18c0,0,143.923,70.348,213.923,130.648S472.884,794.652,558.884,805.42
	c86,10.77,9.981-10.768-48.019-53.84s-4.01-122.756-72.01-152.906S342.85,572.83,342.85,572.83s6.562-94.648-84-133.523
	c-90.563-38.877-47.925-40.919-83.925-99.066S49,220.549-21,282.549V470.18z"/>
<linearGradient id="SVGID_14_" gradientUnits="userSpaceOnUse" x1="1292.9077" y1="592.5469" x2="643.1124" y2="92.565" gradientTransform="matrix(1.1087 0.0906 0.0814 -0.9967 -623.8359 1569.1514)">
	<stop  offset="0" style="stop-color:#FBC9A7"/>
	<stop  offset="1" style="stop-color:#FCB39D"/>
</linearGradient>
<path fill="url(#SVGID_14_)" d="M-26.13,1365.393c0.026,0.152,215.132,88.682,341.506,95.724
	c-5.813-6.466-14.18-10.746-23.135-15.267c-135.25-68.246-168.145-82.975-168.145-82.975s213.578,68.625,447.932,105.834
	c234.354,37.21,492.357,31.197,492.357,31.197s173.168-2.24,2.667-32.057c-108.339-18.945-221.354-5.445-326.978-37.748
	c-126.276-38.617-86.561-160.314-252.898-176.168c-74.585-7.107-58.577,7.708-109.479-38.879
	c-37.129-33.979-68.329-68.503-112.853-98.173c-68.438-45.605-293.46-68.458-293.46-68.458S-31.467,1334.757-26.13,1365.393z"/>
</svg>
