<svg xmlns="http://www.w3.org/2000/svg" width="400" height="400" viewBox="0 0 400 400"><path fill="#EDEEF1" d="M259.845 95.86l7.093-8.489 16.453 16.703 31.879-39.285 7.994 7.518-38.829 48.109z"/><path fill="none" stroke="#EDEEF1" stroke-width="7" stroke-miterlimit="10" d="M291.671 37.83c-29.259 0-52.979 23.461-52.979 52.404 0 12.379 4.308 23.71 11.564 32.677l-8.698 19.726 22.396-7.742c8.064 4.907 17.553 7.742 27.717 7.742 29.257 0 52.978-23.461 52.978-52.403S320.928 37.83 291.671 37.83z"/><path fill="#EDEEF1" d="M246.471 203.799c2.085-.203 8.529 2.445 8.529 3.239V175h-32.991c.561-2 .884-4.388.884-6.212 0-8.57-6.754-16.027-15.084-16.027-8.331 0-15.083 7.712-15.083 16.281 0 1.826.324 3.958.885 5.958H164v27.386c-1-.586-3.04-.918-4.825-.918-8.328 0-14.955 6.95-14.955 15.519 0 8.57 6.565 15.517 14.894 15.517 1.785 0 3.887-.333 4.887-.918V257h32.111c-.56-1-.883-3.262-.883-5.088 0-8.568 6.753-15.463 15.081-15.463 8.333 0 15.085 6.865 15.085 15.435 0 1.828-.322 4.116-.885 5.116H255v-32.403c0 .796-4.667 3.236-8.529 3.24-5.663.006-11.085-3.949-11.085-12.519 0-8.571 6.348-11.057 11.085-11.519z"/><path fill="none" stroke="#EDEEF1" stroke-width="7" stroke-miterlimit="10" d="M164.5 286v-28.5h-29.941c.481 3 .75 4.158.75 5.838 0 8.572-6.755 15.613-15.085 15.613-8.329 0-15.081-7.088-15.081-15.658 0-1.681.267-2.793.747-5.793H75.5v26.468c-1-.588-3.416-.921-5.197-.921-8.334 0-15.147 6.948-15.147 15.518s6.847 15.518 15.177 15.518c1.783 0 4.168-.332 5.168-.919V342.5h28.721c-.48 1-.748 2.949-.748 4.629 0 8.572 6.752 15.426 15.082 15.426 8.332 0 15.085-6.811 15.085-15.383 0-1.681-.267-3.672-.75-4.672h31.61V311m82.218-110.532c2.1 0 4.781.44 4.781 1.239V174.5h-87v83h31.611c-.56-2-.883-3.182-.883-5.006 0-8.566 6.753-15.421 15.081-15.421 8.333 0 15.085 6.808 15.085 15.375 0 1.826-.322 3.052-.885 5.052h26.99v-27.234c0 .796-2.682 1.237-4.781 1.237-8.33 0-15.082-6.946-15.082-15.517.001-8.568 6.753-15.518 15.083-15.518z"/><path fill="none" stroke="#EDEEF1" stroke-width="7" stroke-miterlimit="10" d="M193 257.5h-28.5v27.247c1-.553 3.205-.866 4.935-.866 8.333 0 15.087 6.949 15.087 15.518 0 8.572-6.753 15.519-15.082 15.519-1.733 0-3.939-.313-4.939-.867v28.45h32.448c-.563-1-.887-3.558-.887-5.383 0-8.566 6.753-15.605 15.083-15.605 8.331 0 15.084 7.083 15.084 15.652 0 1.825-.323 4.336-.882 5.336H251.5v-28.932c2 .76 4.852 1.184 6.896 1.184 8.33 0 13.649-5.949 13.649-14.521 0-8.567-5.602-14.518-13.932-14.518-2.043 0-4.614.423-6.614 1.185V257.5H224m-91 0h31.5v-83h-29.806c.395-1 .614-3.277.614-4.793 0-8.569-6.755-15.734-15.085-15.734-8.329 0-15.081 7.271-15.081 15.841 0 1.517.219 3.687.612 4.687H75.5v26.834c2-.553 3.078-.866 4.811-.866 8.33 0 15.021 6.95 15.021 15.519 0 8.57-6.661 15.517-14.99 15.517-1.731 0-2.842-.314-4.842-.864V257.5H107"/></svg>