<svg xmlns="http://www.w3.org/2000/svg" width="400" height="400" viewBox="0 0 400 400"><path d="M149 92h103v65H149zM25 266h72v42H25zm279 0h71v42h-71zm-139 0h70v42h-70zm38.581-75h6.908l-10.78-15.472L189.44 191h7.073l3.453 59.841zm-111.639-1.627l-4.751-5.496 17.648-2.066-3.165 18.821-4.868-5.63c-7.824 3.164-14.289 10.776-17.887 16.386-8.565 13.357-10.352 34.67-10.352 34.67s-.641-21.162 6.149-35.544c6.414-13.578 17.226-21.141 17.226-21.141zM147 290.061v6.024l11.218-9.403L147 277.72v6.17l-43.395 3.011zm138 0v6.024l11.218-9.403L285 277.72v6.17l-43.396 3.011zm19.908-100.688l4.751-5.496-17.65-2.066 3.168 18.821 4.865-5.63c7.825 3.164 14.289 10.776 17.888 16.386 8.565 13.357 10.354 34.67 10.354 34.67s.641-21.162-6.151-35.544c-6.411-13.578-17.225-21.141-17.225-21.141z" fill="#EDEEF1"/></svg>