<?xml version="1.0" encoding="utf-8"?>
<!-- Generator: Adobe Illustrator 16.0.0, SVG Export Plug-In . SVG Version: 6.00 Build 0)  -->
<!DOCTYPE svg PUBLIC "-//W3C//DTD SVG 1.1//EN" "http://www.w3.org/Graphics/SVG/1.1/DTD/svg11.dtd">
<svg version="1.1" xmlns="http://www.w3.org/2000/svg" xmlns:xlink="http://www.w3.org/1999/xlink" x="0px" y="0px" width="500px"
	 height="500px" viewBox="0 0 500 500" enable-background="new 0 0 500 500" xml:space="preserve">
<g id="Layer_2">
</g>
<g id="Layer_1">
	<g>
		<g>
			<g>
				<path fill="#FFFFFF" d="M356.635,439.715h-228v-146h228V439.715z M140.635,427.715h204v-122h-204V427.715z"/>
			</g>
			<g>
				<path fill="#FFFFFF" d="M398.636,481.715H89.45l34.015-30.126l236.674-0.572L398.636,481.715z M107.911,474.715H378.63
					l-20.933-16.692l-231.571,0.561L107.911,474.715z"/>
			</g>
			<g>
				<path fill="#FFFFFF" d="M125.66,470.715h236.643l-9.849-7H133.539L125.66,470.715z"/>
			</g>
		</g>
		<g>
			<g>
				<path fill="#FFFFFF" d="M396.51,151.914c-6.028,0-10.934-4.824-10.934-10.754s4.905-10.754,10.934-10.754
					c6.026,0,10.93,4.824,10.93,10.754S402.536,151.914,396.51,151.914z M396.51,133.406c-4.375,0-7.934,3.479-7.934,7.754
					s3.559,7.754,7.934,7.754c4.372,0,7.93-3.479,7.93-7.754S400.882,133.406,396.51,133.406z"/>
			</g>
			<g>
				<path fill="#FFFFFF" d="M401.07,167.715h-9.522l-0.778-6.911l-3.568-1.928l-5.455,4.029l-7.209-5.998l4.476-5.66l-1.659-4.14
					l-7.719-1.33v-9.37l7.538-1.556l1.356-3.516l-3.963-5.597l6.498-6.203l6.143,4.141l3.601-1.595l1.155-7.366h9.467l1.046,7.312
					l3.962,1.583l5.535-4.065l6.477,6.238l-4.348,6.286l1.292,2.774l7.241,1.686v9.643l-6.837,0.98l-2.048,3.216l4.435,6.227
					l-5.952,6.727l-6.392-4.518l-3.229,1.826L401.07,167.715z M394.229,164.715h4.423l1.313-6.036l6.054-3.424l5.749,4.064
					l2.591-2.927l-4.226-5.931l3.874-6.084l5.628-0.807v-4.66l-6.345-1.477l-2.634-5.658l3.875-5.601l-2.82-2.716l-4.84,3.555
					l-7.12-2.844l-0.923-6.454h-4.299l-1.011,6.447l-6.612,2.929l-5.518-3.719l-2.877,2.747l3.396,4.795l-2.526,6.544l-6.747,1.393
					v4.398l6.879,1.186l2.931,7.309l-3.739,4.729l3.151,2.622l5.095-3.763l6.623,3.58L394.229,164.715z"/>
			</g>
		</g>
		<g>
			<path fill="#FFFFFF" d="M109.601,278.003c-39.847,0-72.265-30.679-72.265-68.389s32.418-68.389,72.265-68.389
				s72.264,30.679,72.264,68.389S149.447,278.003,109.601,278.003z M109.601,148.226c-35.986,0-65.265,27.539-65.265,61.389
				s29.278,61.389,65.265,61.389s65.264-27.539,65.264-61.389S145.587,148.226,109.601,148.226z"/>
		</g>
		<g>
			<polygon fill="#FFFFFF" points="186.273,304.759 147.143,264.767 152.203,259.931 192.334,301.923 			"/>
		</g>
		<g>
			
				<rect x="311.51" y="181.284" transform="matrix(0.9304 0.3665 -0.3665 0.9304 111.7061 -98.3919)" fill="#FFFFFF" width="7.001" height="127.492"/>
		</g>
		<g>
			<path fill="#FFFFFF" d="M370.219,193.244c-50.975,0-92.445-39.222-92.445-87.433s41.471-87.433,92.445-87.433
				s92.445,39.222,92.445,87.433S421.193,193.244,370.219,193.244z M370.219,25.379c-47.114,0-85.445,36.082-85.445,80.433
				s38.331,80.433,85.445,80.433s85.445-36.082,85.445-80.433S417.333,25.379,370.219,25.379z"/>
		</g>
		<g>
			<path fill="#FFFFFF" d="M418.635,74.705V67.82l-6.738-1.475l-1.734-5.028l3.779-5.198l-4.637-4.475l-5.807,3.932l-5.091-2.606
				l-1.069-7.255h-6.885l-0.984,7.23l-5.543,2.386l-5.186-3.723l-4.646,4.519l4.111,5.965l-1.871,4.228l-6.699,1.592v7.152
				l6.141,0.894l2.914,4.648l-4.355,6.08l4.26,4.828l6.063-4.292l4.642,2.78l1.423,6.713h6.975l0.717-6.512l5.094-2.831l5.275,3.859
				l5.18-4.33l-4.107-5.204l1.887-5.731L418.635,74.705z M394.074,80.605c-5.209,0-9.432-4.142-9.432-9.253
				c0-5.109,4.223-9.254,9.432-9.254s9.432,4.145,9.432,9.254C403.506,76.464,399.283,80.605,394.074,80.605z"/>
		</g>
		<g>
			<g>
				<path fill="#FFFFFF" d="M340.299,121.912c-8.691,0-15.762-6.956-15.762-15.505c0-8.549,7.07-15.504,15.762-15.504
					c8.693,0,15.766,6.955,15.766,15.504C356.064,114.957,348.992,121.912,340.299,121.912z M340.299,94.903
					c-6.485,0-11.762,5.161-11.762,11.504c0,6.344,5.276,11.505,11.762,11.505c6.487,0,11.766-5.161,11.766-11.505
					C352.064,100.064,346.786,94.903,340.299,94.903z"/>
			</g>
			<g>
				<path fill="#FFFFFF" d="M347.369,144.715h-13.571l-2.225-10.127l-4.881-2.668l-9.294,6.578l-8.462-9.585l6.504-9.074
					l-3.048-4.866l-9.758-1.419v-13.75l10.351-2.447l1.873-4.228l-6.328-9.153l9.214-8.896l8.025,5.856l5.99-2.446l1.521-10.773
					h13.494l1.684,10.86l5.458,2.522l8.919-6.006l9.271,8.826l-5.698,8.111l2.11,5.329l11.117,2.263v13.37l-11.388,1.928
					l-2.62,6.247l6.475,8.179l-10.273,8.524l-7.941-5.902l-5.392,2.87L347.369,144.715z M337.015,140.715h6.784l0.96-8.422
					l9.483-5.046l7.449,5.537l4.848-4.021l-5.514-6.966l4.384-10.454l10.226-1.732v-6.722l-10.039-2.043l-3.702-9.349l4.958-7.057
					l-4.448-4.234l-8.12,5.469l-9.45-4.367l-1.486-9.591h-6.592l-1.354,9.607l-10.186,4.159l-7.111-5.189l-4.353,4.201l5.672,8.204
					l-3.584,8.094l-9.204,2.176v7.125l8.164,1.188l5.456,8.707l-6.211,8.666l3.976,4.504l8.401-5.946l8.668,4.74L337.015,140.715z"
					/>
			</g>
		</g>
		<g>
			<path fill="#FFFFFF" d="M110.635,188.462v-5.546l-5.776-1.228l-1.926-3.271l3.136-4.611l-3.635-3.474l-4.032,2.947l-4.306-2.464
				l-0.77-6.102h-5.338l-0.838,6.119l-3.955,2.149l-4.518-2.866l-3.626,3.562l2.875,4.076l-1.649,3.924l-5.643,1.166v5.339
				l5.764,0.98l1.791,4.445l-3.14,4.039l4.041,3.368l4.103-2.978l3.956,1.895l0.561,4.78h5.408l1.114-4.938l3.61-2.054l4.726,3.412
				l3.351-3.702l-3.285-4.691l2.658-3.597L110.635,188.462z M90.519,192.763c-4.039,0-7.315-3.215-7.315-7.178
				c0-3.964,3.276-7.176,7.315-7.176s7.313,3.212,7.313,7.176C97.832,189.548,94.558,192.763,90.519,192.763z"/>
		</g>
		<g>
			<g>
				<path fill="#FFFFFF" d="M118.365,238.191c-6.853,0-12.429-5.487-12.429-12.231s5.576-12.231,12.429-12.231
					s12.428,5.487,12.428,12.231S125.218,238.191,118.365,238.191z M118.365,217.729c-4.647,0-8.429,3.692-8.429,8.231
					s3.781,8.231,8.429,8.231s8.428-3.692,8.428-8.231S123.013,217.729,118.365,217.729z"/>
			</g>
			<g>
				<path fill="#FFFFFF" d="M123.687,255.715h-11.112l-0.875-7.797l-3.599-1.955l-6.069,4.479l-8.431-7.021l5.05-6.389l-1.577-4.205
					l-8.438-1.483v-10.912l8.245-1.739l1.311-3.531l-4.498-6.291l7.579-7.264l6.883,4.649l3.613-1.493l1.284-8.05h11.046
					l1.169,7.998l4.01,1.546l6.206-4.603l7.592,7.276l-4.862,7.015l1.288,2.735l8.135,1.883v11.233l-7.722,1.103l-2.064,3.231
					l4.924,6.917l-6.966,7.871l-7.138-5.045l-3.254,1.857L123.687,255.715z M116.15,251.715h4.31l1.423-6.574l7.016-4.004
					l6.289,4.445l2.482-2.805l-4.645-6.525l4.505-7.052l6.104-0.872v-4.583l-6.928-1.603l-3.097-6.578l4.232-6.106l-2.689-2.578
					l-5.262,3.903l-8.245-3.179l-1.007-6.889h-4.176l-1.1,6.892l-7.668,3.169l-5.988-4.044l-2.747,2.633l3.719,5.2l-2.817,7.59
					l-7.228,1.524v4.309l7.382,1.297l3.172,8.458l-4.032,5.101l3.023,2.519l5.594-4.128l7.668,4.165L116.15,251.715z"/>
			</g>
		</g>
	</g>
</g>
</svg>
