<?xml version="1.0" encoding="utf-8"?>
<!-- Generator: Adobe Illustrator 16.0.0, SVG Export Plug-In . SVG Version: 6.00 Build 0)  -->
<!DOCTYPE svg PUBLIC "-//W3C//DTD SVG 1.1//EN" "http://www.w3.org/Graphics/SVG/1.1/DTD/svg11.dtd">
<svg version="1.1" id="Layer_1" xmlns="http://www.w3.org/2000/svg" xmlns:xlink="http://www.w3.org/1999/xlink" x="0px" y="0px"
	 width="400px" height="400px" viewBox="0 0 400 400" enable-background="new 0 0 400 400" xml:space="preserve">
<g>
	<g>
		<g>
			<path fill="#FFFFFF" d="M121.096,275.151c-24.678,0-44.754-19.431-44.754-43.313c0-23.888,20.076-43.323,44.754-43.323
				c24.677,0,44.753,19.435,44.753,43.323C165.849,255.721,145.772,275.151,121.096,275.151z M121.096,195.515
				c-20.817,0-37.754,16.294-37.754,36.323c0,20.023,16.937,36.313,37.754,36.313s37.753-16.29,37.753-36.313
				C158.849,211.81,141.913,195.515,121.096,195.515z"/>
		</g>
	</g>
	<g>
		<g>
			<path fill="#FFFFFF" d="M279.096,275.151c-24.678,0-44.754-19.431-44.754-43.313c0-23.888,20.076-43.323,44.754-43.323
				c24.677,0,44.753,19.435,44.753,43.323C323.849,255.721,303.772,275.151,279.096,275.151z M279.096,195.515
				c-20.817,0-37.754,16.294-37.754,36.323c0,20.023,16.937,36.313,37.754,36.313s37.753-16.29,37.753-36.313
				C316.849,211.81,299.913,195.515,279.096,195.515z"/>
		</g>
	</g>
	<path fill="#FFFFFF" d="M330.481,192.947l-0.002-0.33l-0.731-0.665l-39.097-68.805c-0.959-2.193-6.882-13.428-27.809-14.2
		c-20.824-0.775-31.443,9.844-35.326,14.955c-6.633-3.582-15.605-6.241-27.679-6.241c-11.226,0-19.986,2.548-26.668,5.919
		c-2.909-5.29-10.771-14.255-30.939-15.529c-23.091-1.462-32.231,14.255-32.604,14.915L70.354,192.03l-0.719,0.694v0.229
		c-8,10.791-12.823,23.626-12.823,37.203c0,34.126,28.725,61.89,64.015,61.89s64.007-27.764,64.007-61.89
		c0-3.666-0.315-7.27-0.98-10.899l-4.719-47.541h41.918l-4.489,47.006l0.072,0.095v0.465c-1,3.566-1.145,7.223-1.145,10.875
		c0,34.126,28.632,61.89,63.922,61.89s63.962-27.764,63.962-61.89C343.374,216.576,338.896,203.739,330.481,192.947z
		 M262.586,115.942c17.7,0.652,21.496,9.619,21.63,9.949l0.101,0.277l29.409,51.755c-10.131-6.259-21.979-9.669-34.391-9.669
		c-22.25,0-42.199,11.052-53.708,28.196l3.422-34.727c4.302-9.118,14.13-14.754,14.247-14.82l2.522-1.409l-0.907-2.744
		c-0.188-0.571-2.88-8.294-11.51-15.023C236.633,123.648,245.385,115.312,262.586,115.942z M115.708,126.432
		c0.298-0.514,7.501-12.573,26.081-11.395c17.61,1.112,23.553,8.597,25.389,12.12c-8.323,5.812-11.905,12.228-12.17,12.716
		l-1.906,3.532l3.758,1.408c6.243,2.339,11.422,11.444,14.408,18.307l3.289,33.324c-11.509-17.144-31.461-28.19-53.717-28.19
		c-12.411,0-24.26,3.408-34.39,9.666L115.708,126.432z M120.84,285.045c-31.431,0-57.001-24.623-57.001-54.89
		c0-12.32,4.109-23.958,11.946-33.666l0.85-0.885v-0.187c11-12.831,26.938-20.164,44.173-20.164
		c27.562,0,51.163,18.926,56.095,44.995c0.611,3.267,0.93,6.6,0.93,9.906C177.832,260.422,152.27,285.045,120.84,285.045z
		 M179.383,164.715c-2.027-6-7.445-18.47-16.169-24.335c4.21-5.219,15.283-15.674,36.624-15.674
		c24.884,0,34.372,12.542,37.312,17.939c-4.687,3.247-13.95,11.07-16.451,22.07H179.383z M279.335,285.045
		c-31.43,0-57-24.623-57-54.89c0-3.326,0.468-6.656,1.083-9.896l0.217-0.325v-0.005c5-25.905,28.492-44.675,55.932-44.675
		c17.236,0,33.068,7.335,44.068,20.169v0.289l0.859,0.853c7.798,9.692,11.879,21.301,11.879,33.59
		C336.373,260.422,310.765,285.045,279.335,285.045z"/>
</g>
</svg>
