<svg xmlns="http://www.w3.org/2000/svg" width="400" height="400" viewBox="0 0 400 400"><path fill="#EDEEF1" d="M323.867 196.313l-37.952-67.874c-.912-2.075-6.528-12.736-26.375-13.466-19.745-.729-29.818 9.333-33.5 14.189-6.284-3.406-14.8-5.928-26.248-5.928-10.65 0-18.959 2.418-25.293 5.615-2.759-5.018-10.216-13.515-29.344-14.729-21.899-1.385-30.566 13.524-30.916 14.151l-43.399 75.95s61.567-77.639 113.789 15.613L180.159 175h39.748l-4.297 44.328c46.206-81.018 108.257-23.015 108.257-23.015zM219.576 169h-39.188c-1.919-7-7.058-18.084-15.328-23.652 3.995-4.942 14.493-15.148 34.732-15.148 23.593 0 32.596 12.324 35.383 17.444-4.446 3.073-13.228 9.356-15.599 21.356z"/><ellipse fill="#EDEEF1" cx="200.662" cy="145.802" rx="8.457" ry="7.98"/><path fill="none" stroke="#EDEEF1" stroke-width="7" stroke-miterlimit="10" d="M165.919 230.866c0 21.288-18.248 38.549-40.752 38.549-22.508 0-40.753-17.261-40.753-38.549s18.245-38.549 40.753-38.549c22.504 0 40.752 17.261 40.752 38.549z"/><ellipse fill="none" stroke="#EDEEF1" stroke-width="7" stroke-miterlimit="10" cx="125.057" cy="231.04" rx="58.072" ry="54.932"/><g fill="none" stroke="#EDEEF1" stroke-width="7" stroke-miterlimit="10"><ellipse cx="275.053" cy="230.866" rx="40.754" ry="38.549"/><ellipse cx="274.943" cy="231.04" rx="58.073" ry="54.932"/></g></svg>