<?xml version="1.0" encoding="utf-8"?>
<!-- Generator: Adobe Illustrator 16.0.0, SVG Export Plug-In . SVG Version: 6.00 Build 0)  -->
<!DOCTYPE svg PUBLIC "-//W3C//DTD SVG 1.1//EN" "http://www.w3.org/Graphics/SVG/1.1/DTD/svg11.dtd">
<svg version="1.1" id="Layer_2_copy" xmlns="http://www.w3.org/2000/svg" xmlns:xlink="http://www.w3.org/1999/xlink" x="0px"
	 y="0px" width="400px" height="400px" viewBox="0 0 400 400" enable-background="new 0 0 400 400" xml:space="preserve">
<g>
	<path fill="#EDEEF1" d="M323.867,196.313l-37.952-67.874c-0.912-2.075-6.528-12.736-26.375-13.466
		c-19.745-0.729-29.818,9.333-33.5,14.189c-6.284-3.406-14.8-5.928-26.248-5.928c-10.65,0-18.959,2.418-25.293,5.615
		c-2.759-5.018-10.216-13.515-29.344-14.729c-21.899-1.385-30.566,13.524-30.916,14.151l-43.399,75.95
		c0,0,61.567-77.639,113.789,15.613L180.159,175h39.748l-4.297,44.328C261.816,138.31,323.867,196.313,323.867,196.313z
		 M219.576,169h-39.188c-1.919-7-7.058-18.084-15.328-23.652c3.995-4.942,14.493-15.148,34.732-15.148
		c23.593,0,32.596,12.324,35.383,17.444C230.729,150.717,221.947,157,219.576,169z"/>
	<ellipse fill="#EDEEF1" cx="200.662" cy="145.802" rx="8.457" ry="7.98"/>
	<path fill="none" stroke="#EDEEF1" stroke-width="7" stroke-miterlimit="10" d="M165.919,230.866
		c0,21.288-18.248,38.549-40.752,38.549c-22.508,0-40.753-17.261-40.753-38.549s18.245-38.549,40.753-38.549
		C147.671,192.317,165.919,209.578,165.919,230.866z"/>
	
		<ellipse fill="none" stroke="#EDEEF1" stroke-width="7" stroke-miterlimit="10" cx="125.057" cy="231.04" rx="58.072" ry="54.932"/>
	<g>
		
			<ellipse fill="none" stroke="#EDEEF1" stroke-width="7" stroke-miterlimit="10" cx="275.053" cy="230.866" rx="40.754" ry="38.549"/>
		
			<ellipse fill="none" stroke="#EDEEF1" stroke-width="7" stroke-miterlimit="10" cx="274.943" cy="231.04" rx="58.073" ry="54.932"/>
	</g>
</g>
</svg>
