<?xml version="1.0" encoding="UTF-8" standalone="no"?><svg xmlns="http://www.w3.org/2000/svg" id="Layer_1" viewBox="0 0 870 216.2" enable-background="new 0 0 870 216.2"><style id="style2">.st0{fill:#4ac0d3}.st1{fill:#58595b}.st2{fill:#fff}</style><g id="g44"><g id="g38"><g id="g14"><path class="st0" d="M372.8 126c-7.9.9-13.3-3.7-13.3-12.3V85.1h5.5v7.2h7.7v5.3H365v16.1c0 6 3.6 7.5 7.8 7.2v5.1z" id="path4"/><path class="st0" d="M379.2 87.2V83c0-1.5 1.2-2.7 2.8-2.7 1.6 0 2.8 1.2 2.8 2.7v4.2h-5.6zm5.5 38.8h-5.6V92.3h5.6V126z" id="path6"/><path class="st0" d="M428.4 109.1c0 10-7.3 17.8-16.9 17.8-9.4 0-17-7.6-17-17.8 0-10.1 7.5-17.6 16.8-17.6 4.7 0 8.9 2.2 11.7 5.7V77.3h5.4v31.8zm-16.9-12.5c-6.3 0-11.4 5.5-11.4 12.5 0 7.1 5.1 12.6 11.4 12.6 6.2 0 11.4-5.6 11.4-12.6s-5.2-12.5-11.4-12.5z" id="path8"/><path class="st0" d="M469.1 126h-5.4v-5.2c-2.6 3.7-6.9 6.1-11.7 6.1-9.3 0-16.8-7.6-16.8-17.7 0-10.2 7.6-17.8 17-17.8 9.6 0 16.9 7.8 16.9 17.8V126zm-16.9-29.4c-6.3 0-11.4 5.6-11.4 12.6 0 7.1 5.1 12.5 11.4 12.5 6.2 0 11.4-5.6 11.4-12.5 0-7-5.3-12.6-11.4-12.6z" id="path10"/><path class="st0" d="M478 77.3h5.5v36.2c0 6 3.7 7.5 7.9 7.3v5.2c-7.9.9-13.4-3.7-13.4-12.3V77.3z" id="path12"/></g><g id="g36"><path class="st1" d="M560.2 125.5h-5.6v-21.8c0-4.4-2.9-7.7-7.3-7.7-4.5 0-7.3 3.3-7.3 7.7v21.8h-5.6v-21.8c0-4.4-2.9-7.7-7.3-7.7-4.5 0-7.3 3.3-7.3 7.7v21.8h-5.6v-21.6c0-7.3 5.3-13 12.9-13 4.6 0 8.1 2.2 10.1 5.6 2-3.4 5.6-5.6 10.2-5.6 7.7 0 12.9 5.6 12.9 13v21.6z" id="path16"/><path class="st1" d="M569.4 86.7v-4.2c0-1.5 1.2-2.7 2.8-2.7 1.6 0 2.8 1.2 2.8 2.7v4.2h-5.6zm5.6 38.8h-5.6V91.8h5.6v33.7z" id="path18"/><path class="st1" d="M616 124c0 10.8-6.9 18.1-17.4 18.1-7.9 0-14.1-4.3-15.9-11.1h5.9c2.2 5 7.6 5.8 10 5.8 8.7 0 11.9-6.7 11.9-12.8v-3.2c-2.6 3.5-6.7 5.6-11.5 5.6-9.3 0-16.8-7.6-16.8-17.7 0-10.2 7.6-17.8 17-17.8 9.6 0 16.9 7.8 16.9 17.8V124zm-16.9-27.9c-6.3 0-11.4 5.6-11.4 12.6 0 7.1 5.1 12.5 11.4 12.5 6.2 0 11.4-5.6 11.4-12.5 0-7-5.2-12.6-11.4-12.6z" id="path20"/><path class="st1" d="M639.6 91.1v5.2c-6.5-.6-10.6 2.6-10.6 9v20.2h-5.5v-20c0-10.2 7.3-15.4 16.1-14.4z" id="path22"/><path class="st1" d="M676.9 125.5h-5.4v-5.2c-2.6 3.7-6.9 6.1-11.7 6.1-9.3 0-16.8-7.6-16.8-17.7 0-10.2 7.6-17.8 17-17.8 9.6 0 16.9 7.8 16.9 17.8v16.8zM660 96.1c-6.3 0-11.4 5.6-11.4 12.6 0 7.1 5.1 12.5 11.4 12.5 6.2 0 11.4-5.6 11.4-12.5 0-7-5.3-12.6-11.4-12.6z" id="path24"/><path class="st1" d="M697.3 125.5c-7.9.9-13.3-3.7-13.3-12.3V84.6h5.5v7.2h7.7v5.3h-7.7v16.1c0 6 3.6 7.5 7.8 7.2v5.1z" id="path26"/><path class="st1" d="M703.7 86.7v-4.2c0-1.5 1.2-2.7 2.8-2.7 1.6 0 2.8 1.2 2.8 2.7v4.2h-5.6zm5.5 38.8h-5.6V91.8h5.6v33.7z" id="path28"/><path class="st1" d="M750.3 108.8c0 9.7-7.3 17.6-17 17.6-9.6 0-17-7.9-17-17.6 0-9.8 7.4-17.8 17-17.8 9.7-.1 17 7.9 17 17.8zm-5.6 0c0-6.9-5.1-12.5-11.4-12.5-6.2 0-11.3 5.6-11.3 12.5 0 6.7 5.1 12.3 11.3 12.3 6.3-.1 11.4-5.6 11.4-12.3z" id="path30"/><path class="st1" d="M762.5 125.5H757V105c0-8.5 6-14.1 14.1-14.1s14 5.6 14 14.1v20.5h-5.5v-20.7c0-5-3.3-8.7-8.5-8.7s-8.6 3.7-8.6 8.7v20.7z" id="path32"/><path class="st1" d="M814.5 97.2c-2.6-.1-5 .3-6.7 1.9-1.5 1.5-2.6 3.7-2.6 9.5 0 6.7-1.2 10.5-4.2 13.4-2.6 2.5-6.4 3.7-10.6 3.5V120c2.9.1 5.4-.7 6.8-2 1.4-1.4 2.5-3.5 2.5-9.4 0-6.7 1.2-10.6 4.2-13.5 2.6-2.4 6.2-3.6 10.6-3.3v5.4z" id="path34"/></g></g><g id="g42"><path class="st0" d="M295.4 96.8c-3 0-8.3 1-9.4 1.2-3.7-16.4-18.4-28.6-35.9-28.6-6.1 0-11.8 1.5-16.9 4.1-.3-.8-12.8-29.2-49.1-29.2-34.6 0-47.4 25.7-48.8 28.7-4.8-2.3-10.2-3.6-15.9-3.6-17.5 0-32.1 12.2-35.9 28.5l-.2.1s-6.3-1.3-9.6-1.3c-20.5 0-37 16.6-37 37 0 15.4 9.3 28.5 22.6 34.1 4.7 2.1 9.8 3.3 15.2 3.3 19.4.6 38.9-24.1 38.9-24.1 29.4-38.7 48.7-54.7 75.9-60.8 26.5-5.9 48.7 6.4 48.7 23.3 0 7.8-5.4 17-16 17-3.6 0-9.8-2.8-11.2-8.6 1.2 1 2.7 1.5 4.3 1.5 3.8 0 6.8-3.1 6.8-6.8 0-2.7-1.8-6.8-7.2-6.8-12.6 0-23.7 21.9-14.7 43 5.7 13.4 19.1 22.9 34.6 22.9 18.5 0 40.5-1 60.7-1s37-16.6 37-37c.1-20.3-16.4-36.9-36.9-36.9z" id="path40"/></g></g></svg>