<?xml version="1.0" encoding="utf-8"?>
<!-- Generator: Adobe Illustrator 16.0.0, SVG Export Plug-In . SVG Version: 6.00 Build 0)  -->
<!DOCTYPE svg PUBLIC "-//W3C//DTD SVG 1.1//EN" "http://www.w3.org/Graphics/SVG/1.1/DTD/svg11.dtd">
<svg version="1.1" id="Layer_1" xmlns="http://www.w3.org/2000/svg" xmlns:xlink="http://www.w3.org/1999/xlink" x="0px" y="0px"
	 width="1400px" height="1554.414px" viewBox="0 0 1400 1554.414" enable-background="new 0 0 1400 1554.414" xml:space="preserve">
<linearGradient id="SVGID_1_" gradientUnits="userSpaceOnUse" x1="253.8335" y1="599.7334" x2="253.8335" y2="1590.4624">
	<stop  offset="0" style="stop-color:#2D537E"/>
	<stop  offset="0.7537" style="stop-color:#14224A"/>
</linearGradient>
<path fill="url(#SVGID_1_)" d="M467.669,1287.107c-11.536-1.642-12.521-22.133-19.422-33.698l0,0
	c-0.687-1.154-1.434-2.216-2.255-3.166c15.394-8.385,51.916-61.673,50.656-82.751c-0.044-0.014-0.089-0.026-0.134-0.045
	c-8.325,9.919-15.725,16.185-28.52,16.716c-5.237,0.214-12.488-1.823-17.33,0.643c-6.002,3.057-5.724,8.332-9.875,13.506
	c-8.121,10.118-19.128,9.88-26.302,22.885c7.172-13.005,18.181-12.767,26.302-22.886c4.151-5.174,3.873-10.449,9.875-13.506
	c4.843-2.466,12.093-0.429,17.33-0.643c12.796-0.531,20.196-6.797,28.521-16.716c-14.695-5.028-17.256-16.949-28.033-26.696
	c-7.957-7.198-20.047-10.92-29.524-20.031c-19.965-19.182-23.042-33.686-47.905-29.267c-1.015,0.746-2.119,1.325-3.327,1.704
	c1.208-0.379,2.312-0.959,3.327-1.704c-1.639,0.29-3.375,0.664-5.218,1.127c-0.015-22.61,10.61-78.828,23.856-94.25
	c-2.397-1.52-3.412-3.541-4.969-5.26c-1.219-1.34-2.769-2.488-5.563-3.068c1.193-8.399,2.713-19.109,3.902-27.509
	c-13.695-5.045-32.932-12.167-44.141-22.422c2.576-2.232,4.813-4.704,6.854-7.302c8.582-10.906,13.714-24.043,26.19-31.204
	c-0.821-3.076-1.903-5.905-3.197-8.512c-9.109-18.321-28.914-25.54-45.285-28.304c-1.096-27.921,2.888-45.614-22.411-51.413
	c2.249-3.665,3.955-7.122,5.177-10.392c4.2-11.21,2.77-20.273-1.754-28.107c-0.777,0.66-1.552,1.274-2.309,1.832
	c0.757-0.558,1.532-1.172,2.309-1.833c-8.295-14.381-27.019-24.602-40.469-36.292c-3.472-3.02-6.589-6.129-9.091-9.438
	c2.87-1.733,6.062-6.614,9.351-8.409c-0.602-1.448-1.364-3.075-2.263-4.843c-8.693-17.149-29.989-47.53-39.258-55.578
	c5.507-0.503-5.066-35.931,0.063-37.251c1.476-7.131-15.036-23.292-15.036-23.292s-14.343,60.206-20.642,74.616l-9.749,22.765
	c7.073,0.65,13.971-0.029,20.898,2.169c8.522,2.708,15.378,6.358,24.176,6.813c0.185,0.618,0.293,1.23,0.334,1.834
	c-0.041-0.604-0.149-1.215-0.334-1.833c-8.797-0.456-15.654-4.107-24.176-6.813c-6.927-2.199-13.825-1.52-20.898-2.17l-0.609,1.43
	c3.066-5.052,8.987,12.97,14.022,21.327c0,0,0,0,0.004,0c1.969,3.266,3.805,5.056,5.281,3.412c-0.553,1.424-1.16,2.707-1.829,3.861
	c-2.924,5.051-7.027,7.62-13.019,8.65c1.773,10.473,4.408,20.567,12.197,24.494c-0.189,12.771-3.939,22.329-2.003,33.191
	c-2.787,0.027-5.738,0.85-8.541,0.907c-0.925,10.588,2.765,20.24,8.358,27.348c-4.671,1.458-7.269,6.171-12.811,6.832
	c0.625,1.847,1.171,3.76,1.672,5.702c1.123,0.65,2.17,1.249,3.07,1.78c5.634,3.305,13.439,5.365,19.56,8.551
	c6.268,3.266,13.417,3.925,20.376,4.824c-6.959-0.898-14.108-1.558-20.376-4.823c-6.121-3.187-13.926-5.246-19.56-8.551
	c-0.9-0.532-1.948-1.13-3.07-1.78c2.973,11.479,4.479,23.877,12.506,29.213c2.724,0.495,5.47,0.979,8.263,1.228
	c-2.793-0.248-5.539-0.731-8.263-1.228c1.554,1.029,3.346,1.8,5.441,2.245c-10.418,18.535-30.419,43.424-37.723,64.313
	c-0.308,0.888-0.572,1.742-0.792,2.573c2.297,3.265,4.95,6.624,7.483,9.761c-2.534-3.137-5.186-6.496-7.483-9.76
	c-3.679,13.878,4.364,20.591,2.554,32.883c-0.468,3.186-1.238,5.797-2.252,8.042c2.448,1.49,5.312,2.705,8.059,3.644
	c-2.747-0.938-5.611-2.153-8.059-3.644c-3.274,7.263-9.072,10.645-15.286,16.945c24.856,29.905-35.04,94.779-42.305,87.886
	c-2.865,5.563-7.009,11.28-11.923,16.138c1.011,0.451,2.125,0.808,3.303,1.094c-1.178-0.286-2.292-0.643-3.302-1.093
	c-3.037,3-6.37,5.673-9.875,7.775c3.255,11.832,7.994,24.59,16.04,32.565c1.739,1.724,3.631,3.224,5.698,4.443
	c-10.27,11.553-83.131-2.554-93.567,22.438c8.808,5.717,19.3,10.492,26.41,14.52c13.283,7.515,27.2,7.259,40.51,13.615
	c8.508,4.063,17.273,6.982,26.219,8.856c-8.946-1.874-17.711-4.792-26.219-8.855c-13.31-6.357-27.227-6.1-40.51-13.615
	c-7.109-4.027-17.602-8.803-26.41-14.52c-4.783,11.447,3.53,31.093,36.946,65.158c1.817,1.852,3.709,3.751,5.675,5.688
	c-5.159,5.36-42.446,56.651-47.263,62.443c5.199,15.074,23.488,53.356,35.162,59.941c-6.953,5.422-11.48,10.587-14.123,15.668
	c-7.095,13.621-0.699,26.654,8.667,42.503c3.446,5.833,7.296,12.044,11.023,18.81c-1.635,1.898-3.355,3.821-5.095,5.778
	c-13,14.641-26.934,31.216-12.792,54.028c-12.603,16.223-35.852,98.71-35.852,98.71l477.843-1.937l7.847-278.651
	C496.677,1309.874,469.796,1300.531,467.669,1287.107z"/>
</svg>
