<?xml version="1.0" encoding="utf-8"?>
<!-- Generator: Adobe Illustrator 16.0.0, SVG Export Plug-In . SVG Version: 6.00 Build 0)  -->
<!DOCTYPE svg PUBLIC "-//W3C//DTD SVG 1.1//EN" "http://www.w3.org/Graphics/SVG/1.1/DTD/svg11.dtd">
<svg version="1.1" id="Layer_1" xmlns="http://www.w3.org/2000/svg" xmlns:xlink="http://www.w3.org/1999/xlink" x="0px" y="0px"
	 width="1400px" height="1554.414px" viewBox="0 0 1400 1554.414" enable-background="new 0 0 1400 1554.414" xml:space="preserve">
<g>
	<g>
		<g>
			<linearGradient id="SVGID_1_" gradientUnits="userSpaceOnUse" x1="1638.2813" y1="1340.6006" x2="1638.2813" y2="1348.0967">
				<stop  offset="0" style="stop-color:#375E7B"/>
				<stop  offset="1" style="stop-color:#1F3054"/>
			</linearGradient>
			<path fill="url(#SVGID_1_)" d="M1636.514,1340.601l-0.021,5.966c0.321,0.507,0.642,1.011,0.964,1.53
				C1643.744,1346.763,1636.742,1344.651,1636.514,1340.601z"/>
			<linearGradient id="SVGID_2_" gradientUnits="userSpaceOnUse" x1="703.7539" y1="739.6289" x2="703.7538" y2="1564.0347">
				<stop  offset="0" style="stop-color:#375E7B"/>
				<stop  offset="1" style="stop-color:#1F3054"/>
			</linearGradient>
			<path fill="url(#SVGID_2_)" d="M1515.881,1309.509c-11.146-9.973-20.771-19.418-29.767-33.548
				c-6.472-10.164-15.511-37.962-22.569-44.896c-19.348-19.014-50.402-21.952-75.227-29.332c-6.447-1.917-13.112-3.849-19.187-6.784
				c-8.189-3.961-6.104-5.118-10.04-11.367c-6.23-9.893-15.822-15.979-27.593-18.08c-14.984-2.676-31.361-4.613-44.717-12.026
				c3.133-1.239,7.104-2.035,10.612-3.195c-10.471-12.192-38.188-6.133-44.867-21.626c16.138-0.401,30.98-3.602,44.095-11.125
				c-3.386-4.941-9.201-7.534-13.04-11.823c11.62-0.855,21.146-4.095,32.091-7.23c5.92-1.697,12.285-1.87,17.896-4.946
				c2.648-1.452,5.309-5.53,8.048-7.025c-6.308-10.187-22.696-2.502-32.043-6.004c0.413-0.373,1.434-1.287,1.849-1.772
				c-6.021-1.132-11.367-3.825-16.746-6.396c-0.385-9.217,60.991-18.834,70.742-28.652c-11.552-0.646-22.876-3.709-33.92-4.226
				c-6.468-0.303-11.972,3.356-18.023,3.298c-5.121-0.051-7.339-3.126-12.119-5.22c16.125-14.2,56.604-8.291,66.714-28.05
				c-17.039-6.395-40.114-2.016-58.643-2.978c-8.355-0.434-15.538-2.913-23.961-4.052c-10.458-1.413-22.841-0.188-32.733-4.226
				c15.067-5.346,90.953-16.921,87.614-38.568c-5.956,0.528-12.578,3.081-18.071,3.063c-8.688-0.024-16.76-1.62-25.842,0.027
				c-7.06,1.28-51.805,7.79-34.71-6.999c5.181-4.479,18.237-5.517,24.774-7.523c6.773-2.082,13.353-4.47,19.977-7
				c12.511-4.781,27.325-7.269,35.772-18.571c-4.431-0.229-9.395,1.964-13.772,0.845c-4.67-1.192-6-4.456-10.251-6.745
				c-9.412-5.068-21.335-4.115-30.741-11.199c-2.971-2.236-3.697-6.144-6.965-7.066c-3.878-1.098-10.061,2.527-14.046,3.039
				c-7.979,1.021-13.714-1.344-20.974-3.271c-10.272-2.725-29.006-12.662-38.025-1.802c-2.405,2.896-0.926,6.421-2.959,8.996
				c-3.411,4.322-8.429,6.054-13.765,8.326c-7.129,3.035-14.75,6.233-22.168,7.896c5.476,6.872,32.67,5.337,42.613,5.056
				c-10.396,5.664-29.156,3.191-37.744,14.504c-11.946,15.733,27.979,13.805,36.965,15.443c-1.774,1.097-4.878,4.479-7.036,5.822
				c5.045,5.937,21.235,13.684,28.991,15.175c-7.022,16.181-67.23,7.182-82.74,7.98c1.133,5.012,5.035,4.338,7.892,7.877
				c2.058,2.55,2.462,6.013,3.953,7.995c5.568,7.4,14.086,6.612,20.144,11.947c-8.845,9.231-31.424,6.267-43.108,5.028
				c-13.218-1.398-21.15-7.751-22.833-21.826c11.287-5.709,22.693-12.11,33.742-17.896c-18.019-8.38-33.739-5.174-52.144-7.055
				c-9.567-0.979-17.806-4.767-11.723,6.776c3.947,7.489,10.647,9.744,16.063,14.974c-6.928,8.61-23.111-3.605-29.358-7.774
				c-7.745-5.167-7.944-3.214-5.46-11.995c0.573-2.027,8.043-18.534,10.183-18.269c-13.416-1.663-23.052-12.086-35.773-15.601
				c-14.163-3.91-29.25,2.531-43.484,4.889c-13.397,2.217-26.75,4.747-40.196,7.023c-13.451,2.279-29.495,1.377-41.942,5.729
				c2.745,2.298,5.472,5.769,4.766,9.876c-1.563,0.208-3.279,1.191-4.598,1.373c4.008,2.729,8.955,3.72,13.427,4.479
				c-0.584,0.808-1.269,1.529-1.824,2.319c12.373,10.373,54.641-2.082,62.263,11.945c-10.783,12.994-53.303,5.222-69.063,6.202
				c0.534,0.713,1.308,1.939,1.871,2.623c-26.226,3.102-52.729,7.697-78.863,12.4c2.441,8.83,21.458,9.38,29.21,12.803
				c10.238,4.521,7.813,6.8,12.459,15c6.744,11.905,15.068,7.245,26.067,8.754c5.438,0.747,19.091,7.749,21.067,13.1
				c-4.204,0.229-8.582,0.068-12.784,0.299c8.417,13.383-2.274,16.116-16.352,18.095c-9.908,1.392-20.881,4.342-30.294,1.994
				c-9.803-2.444-19.104-7.902-29.21-10.24c-10.055-2.326-24.845-1.123-33.316-7.648c1.186,3.228,3.234,6.135,5.737,8.668
				c-3.77,0.883-7.923,1.439-10.789,3.934c6.124,9.603,15.67,11.605,25.431,13.938c-1.827,0.872-3.335,2.118-4.669,3.565
				c-9.217,1.169-20.704-0.144-28.618-0.455c-7.692-0.304-12.338-3.281-19.224-4.801c-5.355-1.183-13.293,0.538-17.123-1.021
				c2.593,2.916,5.791,5.946,8.271,8.623c-9.841,0.642-8.964,7.415-18.918,9.249c-7.675,1.414-15.496-0.116-23.028,1.948
				c-10.104,2.771-7.604,5.828-6.958,16.023c0.425,6.698-1.969,11.302,5.811,15.146c0.031,3.2,1.308,3.609,3.571,3.75
				c-9.861,12.564-17.983,27.706-31.004,37.39c-3.198,2.38-17.137,11.755-21.253,8.408c-3.994-3.248,7.061-19.372,7.854-23.772
				c0.796-4.422-1.413-7.283-1.993-11.949c-0.208-1.671,1.802-6.309,1.821-6.215c-0.513-2.332-2.741-3.497-3.096-5.809
				c-1.583-10.308,3.95-14.418,5.517-23.974c1.645-10.035,1.777-17.479-10.092-18.151c0.964-6.384,5.903-12.063,6.868-19.123
				c0.747-5.46,0.106-11.974-0.174-17.427c-9.26,8.471-21.51,12.472-33.697,13.854c0.51,12.916-14.647,17.107-24.174,21.6
				c-3.833,1.807-9.126,0.868-8.997,6.249c0.107,4.477,5.188,5.774,8.895,6.223c-6.881,7.754-25.093,11.121-34.992,12.802
				c-6.927,1.175-9.759-0.124-12.105,6.754c-1.83,5.366-1.708,9.118,6.14,8.418c-6.104,4.836-10.086,3.871-11.789,12.604
				c8.387,5.504,24.902,4.36,30.987,11.203c-7.084,7.302-24.081,14.16-33.894,18.021c-7.742,3.044-33.094,4.879-36.379,10.799
				c-5.65,0.378-42.989,3.715-22.197,10.433c-18.822,12.876-44.765,7.84-64.392,17.522c8.565,2.84,17.704,4.379,26.619,5.394
				c0.158,19.73,46.927,1.827,59.001,8.003c-6.043,19.552-45.189,20.746-60.672,23.074c-10.084,1.516-18.854,4.272-28.977,3.752
				c-6.567-0.338-13.605-3.055-19.071,2.248c2.408,2.631,6.095,5.001,7.563,7.807c-15.906,7.037-32.449,13.152-48.638,19.164
				c7.64,8.017,18.048,5.193,27.766,7.936c-0.478,6.996-9.429,9.956-14.965,11.588c-3.379,0.996-7.485,1.955-11.033,1.824
				c-3.259-0.12-7.164-3.327-9.695-2.414c1.3,11.683-12.274,13.621-17.899,6.843c-6.72-8.097-1.437-21.609-7-30.688
				c-1.672,5.787-6.529,15.809-13.322,10.017c0.306,3.354-1.416,3.756-1.932,5.774c-16.321-9.854,1.76-28.564,3-41.346
				c1.654-17.063,0.95-34.52-0.196-51.449c-2.528,5.622-6.396,11.829-12.626,12.569c-1.069-11.812,3.27-25.095,3.826-37.095
				c0.638-13.778,0.032-27.488-2.151-40.646c-10.625,1.988-7.998,21.553-18.649,26.77c-0.306-0.952-0.072-1.793-0.347-2.749
				c-6.196,0.41-8.801,9.038-14.64,11.739c4.197-1.941-5.081-17.797-6.104-18.893c-3.208-3.433-6.394-0.465-8.25-6.93
				c-3.311-11.541,9.094-23.824,12.138-34.069c2.528-8.508,1.729-8.448,9.007-14.223c7.921-6.284,22.117-19.002,25.87-27.606
				c-9.893-2.85-29.458-4.378-39.593-3.123c6.492-2.478,13.307-3.602,19.641-6.324c-1.502-0.269-4.939-2.383-6.817-2.699
				c3.513-4.162,9.513-7.138,14.04-10.05c-6.673-4.846-32.731-3.735-40.968-2.801c-2.576,4.612-22.898,4.481-28.875,4.778
				c0.638,0.549,1.861,0.865,2.628,1.271c-4.352,4.104-17.046,1.571-23.772,2.929c0.535,13.399,31.435,11.662,39.769,15.825
				c-6.921,8.555-21.814,5.47-31.844,6.227c3.616,3.088,8.987,5.424,11.817,9.598c-7.417,0.722-29.49-0.351-28.726-10.63
				c0.563-0.105,1.124-0.229,1.682-0.364c-0.463-0.612-1.177-2.729-1.972-3.78c2.857-3.339,7.665-3.304,11.043-5.83
				c-7.701-1.565-19.317-10.453-25.295-6.325c-3.544,2.446-6.85,14.106-9.997,18.046c-7.152,8.952-19.808,18.009-22.979,0.915
				c-3.225-17.382,5.191-35.249,4.173-52.656c-3.524-1.159-9.866-9.664-11.071-11.878c-4.987-9.152-1.084-7.819,1.297-17.297
				c1.241-4.938,0.947-17.536,0.222-21.776c-0.827-4.842,0.034-3.342-3.274-8.027c-2.69-3.811-6.868-3.52-8.071-9.247
				c-0.748-3.56,2.071-14.884,2.071-19.948c0-7.854-0.629-15.53,1.751-23.02c2.262-7.118,5.726-9.5,2.998-17.98
				c-1.916-5.956-4.51-15.844-8.003-20.853c-12.465,2.281-8.168-19.896-11.774-27.898c-3.625-8.044-5.833-13.259-5.749-22.029
				c0.037-3.884,1.364-7.817,0.575-11.996c-0.732-3.873-4.899-8.396-4.846-12.224c0.081-5.673,5.062-8.621,6.097-14
				c1.011-5.256-1.069-11.249-2.274-16c-2.79-10.995-4.54-22.152-7.945-32.875c-8.005,1.52-7.238,14.423-9.555,20.928
				c-5.28,14.817-5.426,24.902-5.274,40.7c0.119,12.36-4.214,23.894-4,36.247c0.135,7.793-2.354,17.682-0.155,23.829
				c-13.097,2.393-7.274,14.851-2.894,24.171c2.614,5.563,8.548,8.744,6.897,15.774c-0.412,1.754-5.632,2.904-6.697,4.451
				c-1.346,1.956,0.387,5.003-1.08,7.049c-4.266,5.949-6.701,4.438-7.071,12.674c-0.237,5.271,3.762,10.588,3.016,15.078
				c-0.878,5.284-6.222,5.021-6.068,11.974c0.12,5.43,4.658,10.202,4.897,15.85c-16.028-2.663-3.515,39.747-2.793,47.175
				c0.939,9.675-0.074,16.865,3.197,26.973c1.116,3.447,3.601,7.376,4.029,11.004c0.774,6.57-0.704,5.349-2.527,10.774
				c-4.401,13.102,8.062,31.24,2.252,43.229c-3.087,6.372-10.944,8.514-13.055,14.994c-2.329,7.154-1.313,15.146-4.245,21.981
				c-0.736-0.113-1.032-0.862-1.851-0.97c-6.311,6.759-5.779,17.576-12.603,23.836c-2.795-3.835-2.302-8.192-2.248-12.846
				c0.021-1.767,2.149-5.718,1.79-7c-0.952-3.405-3.381-2.677-4.793-5.199c-5.664-10.121-3.206-16.868,2.706-27.071
				c5.583-9.636,9.911-10.298,5.02-21.004c-1.402-3.067-1.087-3.81-4.698-7.974c-3.047-3.516-6.519-4.442-6.851-9.582
				c8.797-3.582,10.298-14.355,9.087-22.394c-1.407-9.342-6.828-16.112-9.042-25.801c-2.895-12.662,12.583-45.722-2.223-56.073
				c-1.112,0.921-3.066,1.424-3.826,1.969c-1.078-18.671-2.549-36.311-7.896-53.872c-5.053-16.596,0.368-36.78-7.306-53.646
				c-1.388,7.598-5.458,13.502-8.223,20.646c-3.744,9.675-1.674,16.058-0.752,26.053c0.731,7.925,3.873,36.769-6.646,35.122
				c4.508,5.813,0.852,8.822,0.404,14.825c-0.419,5.618,2.58,11.093,2.297,15.948c-0.387,6.653-4.662,9.209-5.075,16.052
				c-0.317,5.245,2.625,12.706,3.872,17.802c-3.818,2.031-5.049,3.231-3.948,6.974c-1.672,0.169-3.097,1.19-4.772,1.399
				c0.679,2.159,3.546,6.398,3.673,8.773c0.208,3.91-2.121,7.97-1.82,11.025c0.728,7.402,7.408,11.906,3.765,19.774
				c-1.17,2.526-5.91,2.655-6.817,5.151c-1.805,4.964,3.059,8.387,3.872,12.322c0.704,3.41-0.418,5.599-0.02,8.829
				c0.28,2.271,2.132,6.056,2.464,8.193c0.788,5.069-1.728,12.104-2.493,16.506c-0.599,3.442-2.232,5.104-1.998,9.248
				c0.234,4.132,3.23,6.638,3.02,11c-1.777,36.816-50.258,41.568-77.669,40.125c7.439,39.807-40.495,46.775,11.874,83.396
				c-15.976,28.015-31.773,15.551-55.602,23.922c-31.859,11.191-35.904,26.575-52.876,52.078l8,232.012l1712.827-10.397
				l0.666-194.067C1549.476,1335.863,1535.473,1327.042,1515.881,1309.509z"/>
		</g>
	</g>
</g>
</svg>
