<?xml version="1.0" encoding="utf-8"?>
<!-- Generator: Adobe Illustrator 16.0.0, SVG Export Plug-In . SVG Version: 6.00 Build 0)  -->
<!DOCTYPE svg PUBLIC "-//W3C//DTD SVG 1.1//EN" "http://www.w3.org/Graphics/SVG/1.1/DTD/svg11.dtd">
<svg version="1.1" id="Layer_1" xmlns="http://www.w3.org/2000/svg" xmlns:xlink="http://www.w3.org/1999/xlink" x="0px" y="0px"
	 width="1400px" height="1554.414px" viewBox="0 0 1400 1554.414" enable-background="new 0 0 1400 1554.414" xml:space="preserve">
<linearGradient id="SVGID_1_" gradientUnits="userSpaceOnUse" x1="676.4995" y1="2.5776" x2="676.4995" y2="1585.7075">
	<stop  offset="0" style="stop-color:#14325B"/>
	<stop  offset="0.2591" style="stop-color:#133057"/>
	<stop  offset="0.4885" style="stop-color:#12284D"/>
	<stop  offset="0.7066" style="stop-color:#0E1C3B"/>
	<stop  offset="0.9165" style="stop-color:#0A0B21"/>
	<stop  offset="1" style="stop-color:#080315"/>
</linearGradient>
<path fill="url(#SVGID_1_)" d="M1424.386,152.044c0,0-19.793-0.213-29.659-1.858c-12.035-2.007-24.337-3.02-36.485-4.008
	c-7.16-0.582-14.345-1.151-21.528-1.279c-3.346-0.06-9.875,1.463-12.46-0.368c-6.184,4.455-7.748,13.165-13.764,18.002
	c-5.862,4.714-15.035,7.62-17.986-0.917c-3.987-11.534,6.422-18.803,10.945-28.042c2.737-5.593,1.86-11.057,2.493-17.061
	c0.81-7.693,4.18-14.796,6.778-21.992c2.393-6.618,9.175-34.671-6.384-33.204c-12.39,1.169-5.6,22.172-11.961,28.045
	c-1.172,1.082-4.042,3.424-5.873,3.161c-4.811-0.689-4.049-7.211-4.002-11.026c0.124-10.121,4.357-19.504,5-29.498
	c0.375-5.824-1.563-21.322-9.137-12.111c-3.551,4.315-7.267,17.129-14.862,15.524c-13.008-2.751,6.901-55.135-16.092-52.756
	c-12.225,1.265,1.287,37.694,2.09,46.011c-23.289,8.924-26.578-29.916-49.373-12.518c-3.64,22.484,57.507,20.102,53.183,46.603
	c-12.306,7.132-17.598-19.772-27.194-12.876c-12.36,8.883,9.434,20.051,15.271,23.445c13.846,8.052,22.807,11.689,25.254,29.938
	c1.346,10.043,1.047,26.142-12.76,26.021c-11.956-0.104-7.476-15.335-7.879-23.281c-0.152-3.007-3.244-21.571-9.535-18.424
	c-4.077,2.039-0.041,19.037-3.579,22.924c-9.313,10.232-14.01-30.451-14.411-34.5c-0.732-7.388,1.678-17.82-1.338-24.5
	c-1.902-4.218-6.746-5.942-9.522-0.889c-1.892,3.439-0.195,8.482,0.274,11.889c0.553,3.986,0.89,8.108,1.101,12
	c0.624,11.521-7.624,5.397-13.323,0.692c-5.628-4.646-11.112-9.989-15.69-15.69c-3.982-4.96-14.799-23.381-20.599-11.613
	c-4.168,8.457,5.209,18.551,11.598,23.1c7.367,5.245,16.271,8.083,24.068,12.628c3.859,2.249,8.689,8.777,1.983,12.382
	c-6.564,3.529-10.734-1.837-15.525-5.496c-5.201-3.973-32.152-21.361-29.433-5.22c3.852,22.864,37.229,29.989,55.544,34.606
	c7.153,1.804,13.022,3.383,18.273,8.756c5.589,5.721,8.644,13.931,3.618,21.019c-3.725,5.254-11.42,4.193-16.489,1.208
	c-6.536-3.848-13.474-12.465-20.892-13.996c-4.196-0.865-6.561,0.813-5.635,6.135c0.667,3.839,4.794,7.129,8.012,9.39
	c6.249,4.393,14.84,8.68,22.111,9.989c2.408,0.434,10.83,0.648,9.423,5.135c-0.94,2.998-11.021,3.352-13.436,3.474
	c-3.433,0.175-26.679-0.882-20.124,7.635c5.239,6.808,22.354,0.042,29.527,0.865c9.708,1.116,5.14,8.069,0.364,12.439
	c-4.605,4.215-9.101,4.712-14.181,7.652c-8.693,5.031-25.201,20.655-35.576,11.298c-8.455-7.625,1.996-18.8,4.265-26.75
	c2.45-8.592,5.739-16.68,6.627-25.637c0.596-6.014,0.799-11.267-1.518-16.988c-3.167-7.826-6.168-3.058-8.846,3.51
	c-1.617,3.965-12.314,38.055-18.749,24.976c-2.059-4.184-1.209-9.063-1.876-13.5c-1.255-8.348-4.101-16.774-7.405-24.474
	c-1.484-3.462-3.769-10.425-8.608-10.024c-5.87,0.486-4.993,11.786-5,16.373c-0.018,10.871,5.573,17.597,9.124,27.128
	c1.697,4.56,5.465,15.076-4.124,12.497c-4.47-1.202-7.646-4.611-11.5-6.998c-4.31-2.669-8.239-5.557-11.976-9.004
	c-4.246-3.92-6.849-10.696-11.537-14.022c-4.325-3.07-9.101-1.041-10.61,4.024c-1.421,4.764,1.587,8.631,4.733,11.9
	c6.106,6.343,14.623,11.198,21.39,16.712c7.834,6.385,17.139,11.107,24.623,17.75c3.341,2.966,6.028,6.929,7.382,11.126
	c7.977,24.679-29.746-3.306-36.302-3.084c-18.521,0.627-12.464,15.415-2.388,23.951c14.175,12.005,34.494,11.595,49.484,22.078
	c5.354,3.743,12.123,9.34,4.131,13.49c-4.898,2.544-12.455,3.308-17.934,3.076c-4.346-0.184-29.331-5.58-29.061,2.974
	c0.24,7.546,18.447,12.181,23.575,13.012c8.72,1.412,15.087-2.923,22.659-6.299c12.258-5.464,1.641,11.221-0.326,16.625
	c-3.451,9.488-4.668,18.861-4.592,28.832c0.027,3.818,0.57,7.531-1.177,10.719c-1.727,3.15-7.806,7.249-11.496,9.431
	c-5.183,3.063-23.095,11.369-28.218,4.816c-2.209-2.824-0.587-6.948,1.246-9.5c4.319-6.016,11.778-10.169,14.524-17.609
	c3.552-9.625-5.914-5.638-9.012-0.374c-2.97,5.046-5.752,13.143-12.331,7.396c-5.963-5.21-0.329-11.039,3.594-15.996
	c4.864-6.146,11.899-16.321,11.113-24.526c-1.438-14.993-14.123,4.518-18.111,6.901c-10.894,6.51-12.173-4.302-13.416-11.901
	c-1.643-10.041-6.322-41.455-21.973-39.5c-7.118,0.889-7.392,13.296-6.525,19.387c0.588,4.145,2.665,8.601,4.903,12.128
	c2.517,3.963,7.511,8.158-0.409,8.375c-3.784,0.104-7.468-2.488-10.105-4.917c-3.129-2.883-5.526-6.616-7.424-10.395
	c-0.472-0.939-3.529-10.49-3.722-10.522c-26.827-4.52-11.76,25.494,2.149,32.876c8.823,4.684,18.119,8.89,25.759,15.45
	c3.469,2.979,20.846,17.078,11.763,20.505c-3.79,1.43-10.725-1.31-13.766-3.474c-6.947-4.946-10.293-19.108-18.236-21.8
	c-5.073-1.719-8.581,2.579-9.498,6.889c-0.999,4.696,1.137,7.543,3.486,11.524c3.854,6.529,7.076,16.187,12.727,21.353
	c5.159,4.669,15.423,6.432,21.643,9.6c2.574,1.311,8.118,3.402,9.067,6.515c1.355,4.447-3.7,14.115-6.826,16.896
	c-4.479,3.985-12.133,8.555-18.41,7.536c-0.87-4.115,2.345-9.181,2.911-13.3c0.734-5.319,0.431-10.571-1.488-15.625
	c-1.313-3.46-4.021-8.71-8.495-6.036c-3.992,2.386-2.69,11.334-2.515,15.159c0.49,10.611-0.795,16.732-9.488,23.875
	c-3.102,2.548-6.675,4.162-10.381,5.61c-10.51,4.104-2.971-6.266-0.981-10.108c2.125-4.106,3.838-8.976,4.752-13.5
	c0.907-4.49,1.514-24.984-8.414-18.898c-7.938,4.864-2.318,17.941-6.113,24.286c-1.753,2.931-6.651,6.759-10.387,4.26
	c-3.767-2.52-1.687-10.263-1.476-14.01c0.309-5.458,1.565-10.75,1.5-16.163c-0.063-5.275-2.25-6.375-5.104-1.396
	c-3.934,6.862-0.563,15.861-5.306,22.384c-0.249-4.262-5.29-7.333-5.943-12.171c-0.758-5.621,1.522-11.427,2.854-16.793
	c1.679-6.771,3.966-29.151-4.362-33.646c-8.604-4.644-3.755,15.749-5.111,19.648c-3.499,10.062-14.749-9.292-21.025-10.524
	c-4.076-0.801-7.68,1.705-7.01,6.024c0.603,3.884,6.423,7.866,9.508,9.999c5.059,3.497,17.457,7.803,14.162,16.03
	c-3.028,7.565-12.768,4.027-17.686,0.571C965,359.888,958.012,348.308,949.5,338c-3.965-4.801-15.005-23.428-21.889-13.998
	c-7.214,9.881,9.796,22.015,16.369,27.029c8.717,6.649,17.813,13.167,24.789,21.732c1.955,2.401,14.196,22.378,5.729,22.747
	c-4.259,0.186-12.663-11.265-15.986-14.121c-4.317-3.71-23.675-23.804-30.053-16.902c-7.021,7.598,14.307,17.877,18.65,21.027
	c2.355,1.709,9.724,6.13,8.909,9.986c-1.224,5.802-12.852,0.933-16.145,0.476c-2.542-0.353-10.896,0.106-10.95,4.024
	c-0.05,3.703,9.439,6.254,11.978,6.889c10.038,2.512,20.675,0.708,30.706,0.113c6.886-0.408,15.471,1.783,17.413,9.468
	c1.485,5.88-0.317,11.583-6.233,13.874c-4.719,1.827-14.93,5.218-19.789,4.168c-6.995-1.511-8.773-8.656-11.125-14.512
	c-1.955-4.868-8.008-13.318-9.4-3c-0.842,6.235,6.563,9.991,5.45,15.425c-8.195,2.228-14.826-17.16-21.438-20.048
	c-6.494-2.837-4.655,4.85-1.986,8.124c3.122,3.83,8.307,5.402,11.375,9.124c2.944,3.572,2.012,6.145-3.35,5.4
	c-3.918-0.545-10.14-8.101-14.523-6.034c-6.974,3.285,5.922,8.263,8.621,8.885c5.035,1.161,10.066,2.317,14.877,4
	c2.673,0.936,6.084,1.519,5.413,5.037c-0.156,0.819-16.826,3.291-18.373,3.251c-7.693-0.201-10.387-4.547-16.948-7.283
	c-5.528-2.306-11.188-3.811-17.036-6.887c-5.832-3.068-10.782-5.256-16.918-6.443c-8.64-1.67-19.217,1.06-27.534-1.415
	c-5.924-1.761-10.756-7.05-17.221-8.762c-7.04-1.866-17.847-2.337-24.832-0.036c-5.706,1.878-11.375,6.322-16.567,8.873
	c-16.633-12.891-28.204-25.719-51.087-29.164c-4.681-0.703-12.265,0.258-16.258-2.08c-1.916-1.119-4.062-4.611-5.688-6.223
	c-4.968-4.921-9.475-7.258-16.986-5.867c-6.854,1.268-11.307,6.76-17.82,8.905c7.958-10.394,26.993-16.38,22.302-31.128
	c-7.282-22.89-16.563,20.064-30.064,15.132c0.133-3.75-3.529-7.112-3.369-9.845c0.251-4.23,2.908-4.311,3.73-7.67
	c1.868-7.649,2.681-14.942,1.598-22.984c-14.245-4.283-2.299,34.021-19.755,21.032c-9.331-6.944-0.292-27.718-8.175-36.568
	c-10.612,4.551-6.438,12.271-5.189,19.899c-21.066,7.535-16.729-21.543-26.815-22.535c-3.344,14.742,7.548,23.563,16.122,33.806
	c4.302,5.139,23.624,24.698,21.741,30.088c-16.887,3.61-19.418-25.98-32.326-25.107c-4.584,19.647,28.564,31.299,21.821,48.671
	c-5.359,13.8-14.372-2.443-22.229-2.738c-12.413-0.471-10.265,16.896-21.51,17.617c-26.274,1.68-5.295-27.48,2.778-34.898
	c4.179-3.838,17.729-8.773,7.038-15.584c-9.318-5.939-14.732,6.084-16.507,11.912c-2.88,1.081-7.213,1.081-10.095,0
	c-5.479-10.597-2.699-19.299,0.277-29.899c2.37-8.45,2.879-19.101,1.588-28.52c-17.742-6.944-12.653,25.21-13.966,32.842
	c-15.29-7.038-22.372-13.644-27.707-30.542c-22.217-5.973-5.688,14.707-0.122,21.006c6.708,7.596,17.674,19.937,14.077,30.088
	c-14.963,1.109-26.651-29.104-37.729-27.694c-6.227,24.374,39.705,32.87,32.271,53.384c-13.497,4.322-13.319-15.378-21.616-15.43
	c-18.683-0.115,7.104,19.42,8.817,20.858c8.873,7.444,14.388,14.822,13.209,25.888c-0.598,5.616-0.151,14.052-4.31,18.486
	c-1.923,2.052-5.932,3.854-8.657,2.047c-4.622-3.063-1.554-11.313-0.764-15.405c0.59-3.059,4.316-16.587-2.732-12.998
	c-4.721,2.404-4.041,12.361-5.265,16.506c-1.539,5.21-8.808,10.748-14.18,6.471c-4.646-3.698-1.223-13.229,0.595-17.618
	c5.147-12.445,5.039-17.7,1.604-30.643c-9.721-1.107-12.998,16.301-8.022,22.328c-21.428,4.52-13.579-9.637-22.32-20.132
	c-8.758-10.512-21.085-4.72-19.004,7.905c2.856,17.323,25.089,29.063,25.211,47.854c-9.189-4.147-11.91-11.214-18.863-17.13
	c-9.503-8.084-13.832-2.886-8.285,7.854c4.283,8.293,11.635,11.104,13.193,20.556c1.266,7.668,0.543,17.914-0.483,25.502
	c-22.208-4.875-9.147-25.527-16.64-40.64c-16.482,0.146-3.643,26.011-2.789,32.851c-9.319-6.092-19.975-3.566-29.218-10.63
	c-3.548-2.71-23.686-22.788-25.208-7.646c9.813,7.813,19.519,11.653,29.9,16.682c23.196,11.233-1.135,15.177-11.05,23.116
	c-8.241,6.603-4.426,11.536,1.988,14.461c-2.036,0.333-4.126,0.679-6.328,0.922c-10.955,1.216-6.744,4.084-6.522,13.044
	c0.129,5.207,1.593,13.446-3.478,17.067c-5.049,3.604-9.77-2.035-16.685-1.234c-2.645,0.306-4.319,1.722-7.645,1.558
	c-3.18-0.157-5.83-2.305-9.041-1.264c0.133,10.328-9.776,8.776-14.354,14.234c2.527,3.063,10.836,6.063,4.467,11.338
	c-5.459,4.521-6.218-4.245-11.959-5.203c-14.888-2.482-1.269,21.652-12.369,22.95c-3.324,0.39-5.856-2.458-9.338-1.575
	c-1.833,0.465-2.562,2.992-4.141,3.352c-4.724,1.07-11.807-1.137-9.763-7.704c2.756-8.856,22.685-5.905,21.502-15.619
	c-6.673-1.482-13.821,1.86-21.193,0.979c-5.296-17.383,21.946-14.144,30.695-17.135c3.365-1.151,12.318-8.652,8.994-13.188
	c-3.664-4.999-11.559,1.845-12.388,5.647c-11.556,3.858-3.948-11.706-4.599-16.914c-14.097-4.728-2.347,22.91-14.985,18.396
	c-0.679-5.086,0.276-10.461-0.491-15.527c-0.854-0.528-1.708-0.528-2.563,0c0.19,6.229-7.199,13.532-8.056,4.119
	c-0.376-4.139,5.945-11.221,9.25-13.436c6.63-4.44,25.675-7.691,21.483-19.634c-6.361-2.254-4.682,6.974-12.204,3.066
	c-3.106-1.613-5.354-6-4.242-9.128c1.227-3.439,7.753-5.636,10.804-6.886c6.07-2.486,7.711-3.054,10.076-9.018
	c1.396-3.521,2.415-13.371-5.438-8.402c-3.107,1.968-0.897,9.81-6.531,8.501c-7.56-1.755-0.704-18.327-1.732-23.063
	c-9.539-3.528-8.705,11.293-9.273,15.498c-1.615,0.582-4.079,0.563-5.676-0.032c-0.837-2.972-2.792-5.221-3.629-8.19
	c-8.438-1.069-12.052,0.698-9,8.442c2.221,5.631,9.28,9.071,10.654,14.307c-1.815,0.127-21.833-14.459-18.18-1.477
	c5.909-0.468,11.354,5.672,14.122,10.034c3.936,6.205,1.045,7.978-0.688,14.597c-2.335,0.436-4.914,0.436-7.255,0
	c-0.622-3.221,2.276-5.367,2.966-8.477c0.551-2.488,0.006-6.046-0.309-8.511c-2.574-0.194-4.629,0.967-7.257,1.518
	c-0.759,5.544,0.351,11.427-0.503,16.951c-6.936,0.495-8.087-9.063-10.505-12.897c-4.265-6.761-18.42-5.719-13.634,4.102
	c1.269,2.6,5.637,3.959,7.455,6.015c2.914,3.296,5.032,7.934,7.297,11.665c4.734,7.806,5.381,13.093,3.178,21.549
	c-0.839,0.529-1.681,0.529-2.526,0c-0.738-3.155,2.446-9.43,1.083-11.509c-3.146-4.799-8.071-0.04-9.145,3.009
	c-2.594,7.365,7.26,12.337,6.02,18.4c-2.85-3.32-7.869-4.881-10.274-8.589c-2.153-3.32-1.868-7.612-3.664-11.015
	c-5.62-0.675-11.407-1.379-10.617,5.619c0.574,5.084,6.655,7.743,9.421,11.115c3.27,3.985,2.808,8.046,4.176,13.126
	c1.08,4.004,7.066,9.639,6.355,12.852c-9.256-2.21-5.37-14.351-16.557-9.346c-0.152,6.448,7.783,12.128,11.777,17.185
	c5.749,7.285,5.272,12.852,3.174,21.435c-9.635,2.647-11.026-11.222-16.385-14.118c-4.02,9.525-5.246,15.004-17.182,12.642
	c2.861-5.958,2.07-11.222,6.407-16.854c2.854-3.706,8.704-7.953,7.104-13.111c-8.634-2.869-7.288,6.69-12.046,10.035
	c-7.51,5.275-12.736-2.007-10.923-8.834c2.208-8.308,20.784-15.623,16.794-25.834c-7.24-1.5-10.589,1.477-13.324,7.026
	c-3.162,6.414-2.766,8.236-10.999,3.984c6.376-7.617,0.063-12.699-0.233-19.848c-0.297-7.195,4.032-13.57,2.932-21.599
	c-17.813-6.054,1.891,27.928-12.543,20.496c-5.138-2.646-4.736-12.154-6.109-16.367c-2.108-6.463-5.688-10.456-6.064-17.172
	c-11.689-3.756-5.899,13.314-4.486,18.621c2.205,8.271,10.778,13.788,12.285,21.52c-9.161,2.878-10.109-12.149-18.452-8.58
	c-9.647,4.13,1.372,12.966,6.253,14.597c8.182,2.732,12.191,8.182,17.336,14.137c2.533,2.935,8.961,15.648-0.079,14.664
	c0.019-6.363-9.343-19.797-9.607-7.057c-0.12,5.742,3.851,18.316-4.485,21.838c-9.014,3.805-13.354-5.03-12.469-11.698
	c0.545-4.085,1.529-6.248,4.596-8.696c3.541-2.823,8.355-2.143,6.02-8.477c-5.14-1.744-6.266,3.021-10.234,2.426
	c-1.201-0.182-8.141-4.741-9.072-5.434c1.627-4.375,5.383-8.009,3.859-12.935c-1.604-0.572-4.107-0.572-5.712,0
	c-0.696,5.111,0.216,10.494-0.467,15.612c-6.489-1.972-6.408-7.704-9.458-12.933c-4.367-7.488-3.383-3.847-11.695-4.141
	c-1.641,3.87,8.879,15.363,11.736,18.702c4.932,5.762,13.188,5,10.926,14.238c-2.127,0.021-24.444-13.402-19.916,0.254
	c1.268,3.828,8.783,4.523,12.113,6.089c3.498,1.642,6.365,4.327,9.696,6.563c8.553,5.736,14.146,8.134,13.824,19.162
	c-0.431,14.754-10.203,5.015-20.081,7.535c-6.998,1.785-6.305,8.171-12.364,7.021c-4.411-0.839-7.778-5.949-12.353-7.021
	c-9.48-2.218-14.223,7.05-18.586,12.713c-1.954,2.535-0.241,2.909-4.59,4.459c-1.85,0.658-5.694-0.063-7.719-0.067
	c-4.424-0.016-9.288-0.482-13.559,0.32c-10.115,1.903-16.705,3.726-26.457-1.738c0.75-5.695,10.207-7.982,15.221-10.184
	c3.307-1.451,8.335-2.426,6.326-7.311c-1.209-2.944-4.409-3.682-7.527-2.582c-0.176,0.802-0.352,1.603-0.527,2.404
	c-1.606,0.595-4.094,0.608-5.718,0.027c-0.539-4.681,1.831-10.21,1.118-15.533c-6.839-2.067-5.708,7.886-6.179,11.181
	c-1.445,0.508-2.733,0.508-4.179,0c-0.65-4.922,1.147-15.384-4.438-18.713c-7.439-4.438-3.93,6.819-3.477,10.24
	c0.676,5.125,0.818,12.667-1.121,17.392c-2.854,6.946-8.854,6.401-15.674,5.579c-2.381-7.694,8.317-11.611,5.717-18.397
	c-5.837-1.575-7.686,4.281-11.785,5.39c-6.355-4.254-2.211-12.997-0.768-18.656c1.829-7.172,6.772-9.849,10.893-15.946
	c3.857-5.709,3.615-19.016-4.672-10.176c-3.971,4.232-2.404,15.987-11.743,12.858c-0.546-4.004-1.129-9.807,0.894-13.217
	c2.185-3.686,6.994-4.084,4.783-9.498c-10.05-0.854,1.73-21.619-11.818-14.494c-0.467,2.702-0.087,5.505-0.504,8.226
	c-7.822,2.637-13.963-17.604-19.534-6.734c-3.572,6.969,11.611,15.15,15.016,19.702c-9.345,1.323-12.197-2.232-19.929-5.535
	c-3.031-1.296-8.521-3.421-9.444,1.487c-0.892,4.74,5.015,3.617,7.864,4.626c4.063,1.437,7.016,2.868,10.818,3.985
	c3.616,1.061,5.758,1.604,7.757,4.391c1.783,2.484,5.606,12.588,4.362,15.754c-11.512,3.669-10.336-17.186-19.619-14.044
	c-1.223,5.849,1.075,9.391,5.568,13.177c1.725,1.454,5.346,2.871,6.591,4.278c3.563,4.026,1.539,2.396,1.429,6.957
	c-0.264,10.966,7.484,18.871,6.031,30.211c-6.56,2.093-9.158-3.26-12.513-6.738c-1.673-1.735-4.617-2.59-5.905-4.599
	c-2.154-3.361-0.254-3.513-0.229-6.153c0.029-3.104,2.15-10.854-0.748-13.146c-6.164-4.877-6.674,4.224-6.86,7.557
	c-4.85-1.417-8.55-4.279-10.967-8.511c-2.179-3.813-2.992-11.818-8.501-11.371c-12.529,1.018,3.199,19.581,6.882,22.605
	c-7.966,4.651-13.446,0.939-22.476,1.957c-3.377,7.639,9.289,5.589,13.664,5.578c7.289-0.017,8.486-0.153,12.199,5.47
	c-4.406,1.065-18.871,3.543-16.631,10.259c5.097,0.596,9.717,0.64,14.28-1.853c3.568-1.947,6.543-6.284,11.082-5.795
	c4.231,0.456,8.132,4.227,5.5,8.522c-4.208,6.868-14.264,7.083-21.361,7.062c-3.842-0.012-7.772-0.143-11.599-0.502
	c-4.744-0.446-7.826-2.855-12.351-3.995c-3.664-0.922-8.171-0.326-12.014-0.327c-6.432-0.002-17.741-0.291-21.627,4.587
	L-82,1585.707h1517L1424.386,152.044z M364.551,883.292c-4.378,5.282-21.313,1.433-29.146-0.285
	c-16.258-3.564-27.064-20.727-43.922-24.079c-19.621-3.901-41.615,17.63-59.488,11.475c-4.109-14.424,11.096-22.576,6.791-34.869
	c-15.16-4.812-8.842,21.873-26.805,14.869c-3.403-25.789-3.919-42.154-21.701-12.479c-12.043,20.099-24.967,17.7-42.969,27.604
	c-4.744-7.723-5.139-17.256-3.224-25.81c16.66-3.744,22.584-15.468,18.399-32.392c-9.236,14.075-13.587,13.481-31.189,15.602
	c-5.881,0.708-13.092,7.237-19.096,3.475c-9.803-6.145-2.896-16.622,6.598-16.064c0.439-10.544,6.241-21.537,4.591-31.315
	l-3.928,3.928c-1.266,1.409-2.61,2.773-4.072,4.072l4.072-4.072c17.114-19.061,18.085-47.085,51.928-51.038
	c11.65-1.36,27.245,2.107,37.188-3.7c11.543-6.744,6.254-16.83,26.193-12.585c7.916,23.268-30.106,28.816-22.764,50.791
	c27.941,7.854,29.102-33.441,46.685-30.869c3.559,11.409-6.388,20.262-2.685,30.869c6.051,1.199,12.727,1.199,18.777,0
	c4.184-11.235-4.397-25.886-2.713-38.869c2.213-1.458,4.429-1.462,6.648-0.015c-0.914,8.83,2.976,15.966,11.986,14.977
	c-0.676-6.814,0.392-14.301,7.985-15.169c3.895,10.668-5.188,22.919-2.712,35.063c14.858,5.817,16.212-13.569,23.303-19.966
	c14.983,6.66,7.229,29.087,3.103,39.787c-4.89,12.682-8.678,19.994-6.299,36.101c5.575,1.071,8.96,4.267,14.513,5.395
	c1.043,17.022,21.582,22.267,29.787,34.32C364.905,864.678,370.837,875.706,364.551,883.292z M973.295,439.212
	c5.6-1.672,11.303-3.999,16.554-4.32c-1.054,7.16-8.034,17.923-16.542,12.799C968.102,444.554,970.523,442.149,973.295,439.212z
	 M467.621,517.146c2.098-2.244,4.086-4.774,6.061-7.554l27.66-9.441c-1.106,1.685-2.081,3.339-2.537,4.797
	c-6.07,2.915-13.393,1.72-19.771,5.004C475.165,511.942,471.404,514.581,467.621,517.146z M1223.645,718.575
	c-3.438,3.36-20.182,9.348-24.815,8.754c-2.818-0.36-2.293-4.597-6.688-3.706c-3.475,0.703-5.553,7.387-6.228,10.274
	c-1.916,8.192-0.789,16.713-1.854,25.12c-1.485,11.728-26.763,43.77-28.937,18.896c-0.635-7.266-0.246-14.51,2.512-21.257
	c1.297-3.174,11.247-22.245,1.543-21.488c-5.809,0.454-4.532,13.98-6.073,17.623c-2.096,4.957-6.739,17.881-14.161,15.161
	c-0.428-9.606-1.503-28.328-14.363-28.44c-2.378,15.297,8.985,21.688,7.675,36.17c-6.331,1.766-15.818-7.326-20.073-1.771
	c-5.572,7.273,9.385,10.735,8.225,17.237c5.438,1.764,10.003-2.966,15.854-1.354c7.704,18.304-43.723,0.596-36.484,18.754
	c11.876,2.479,20.646-7.417,32.365-5.22c4.417,9.879-19,9.239-10.586,17.667c4.316,4.322,16.276-4.247,23.256-2.538
	c15.411,3.773-0.16,13.987-6.172,19.369c-6.766,6.057-9.633,13.973-15.873,19.748c-21.356,19.767-56.422,7.457-80.631,23.236
	c-7.318,4.771-11.706,13.665-18.794,18.84c-8.847,6.459-19.938,6.92-30.681,5.512c-0.813-7.854-0.531-13.249,3.855-19.507
	c4.403-6.281,6.274-9.989,8.186-16.924c1.836-6.671-0.066-14.876,1.967-21.25c2.062-6.458,16.311-10.148,14.294-17.139
	c-7.857-1.996-18.265,15.376-20.839,20.958c-3.812,8.263-4.418,21.045-12.305,26.853c-9.347-1.655-5.035-20.095-6.132-26.607
	c-10.159,3.586,2.192,21.703-7.271,27.423c-10.436,6.307-10.749-15.349-14.477-20.367c-8.541-11.502-20.254,0.574-12.447,9.752
	c4.331,5.092,19.197,11.988,15.749,21.356c-5.399,0.672-21.821-1.994-17.899,7.729c3.177,0.187,6.527,0.384,9.708,0.569
	c2.488,7.165-13.219,9.557-15.888,14.696c3.652,3.998,10.681,5.833,16.152,4.437c5.102-1.303,8.614-7.647,14.12-5.592
	c1.146,9.202,0.451,13.697-7.941,19.073c-5.477,3.509-12.714,11.539-18.432,13.572c-8.82,3.137-22.914-0.178-32.59,1.84
	c-13.291,2.77-26.496,2.919-39.651,5.804c-11.98,2.627-22.119,6.734-32.904,12.066c-10.734,5.306-18.516,12.615-30.896,15.556
	c-10.248,2.435-20.869,1.455-30.896,3.675c-7.667,1.698-18.497,11.56-26.465,8.979c-0.129-2.652-3.16-11.825-2.108-13.321
	c2.598-3.694,11.775-1.611,15.902-2.132c4.216-11.029-15.367-13.987-14.253-24.923c0.895-8.775,18.485-12.511,14.154-22.896
	c-5.538,3.585-14.041,8.039-17.661,13.804c-3.918,6.234-0.379,13.764-6.089,19.316c-15.977,15.542-3.768-32.669-18.791-27.223
	c0.694,5.435-2.471,9.52-2.355,15.16c0.123,6.025,4.86,12.091-0.531,16.899c-9.849,8.784-16.267-14.007-16.404-20.618
	c-8.644,6.97,7.1,22.227-13.654,21.402c1.979,15.92-15.88,7.906-12.72-6.234c0.925-4.131,4.267-6.87,4.264-11.493
	c-0.003-3.935-3.282-7.58-4.621-11.353c-10.654,1.935-4.912,23.529-12.418,28.11c-3.533-2.591-3.846-5.642-6.12-8.604
	c-2.316-3.019-8.067-1.263-5.461-7.731c1.352-3.357,6.615-3.226,7.976-8.064c1.024-3.644,0.136-9.668-0.359-13.324
	c-7.37-1.602-16.334,9.839-12.243,15.25c-10.374,9.481-12.248-5.077-12.161-11.632c0.123-9.421-4.551-17.943-4.472-26.807
	c-9.608-1.8-8.979,12.577-7.888,17.044c2.063,8.461,2.124,16.342,2.061,25.222c-0.082,11.309,5.072,12.764,10.35,21.209
	c5.382,8.611,0.938,15.213-9.991,13.282c-0.791-3.091-1.877-13.144-4.896-14.867c-8.048-4.601-6.326,5.889-9.274,7.998
	c-6.648,4.756-9.726-1.633-15.131-4.048c-8.849-3.952-3.022,2.81-10.085,3.655c-5.387,0.646-9.498-5.448-10.506-9.845
	c-1.694-7.4,2.314-9.082,8.332-12.116c7.23-3.648,20.325-7.93,16.173-18.503c-8.271-1.706-22.091,2.316-26.868,9.123
	c-10.063-0.786-5.503-17.696-3.648-22.844c1.285-3.57,5.591-9.544,4.191-13.727c-0.861-2.58-8.08-7.677-11.043-6.358
	c-2.606,1.16-2.451,9.352-3.979,11.87c-2.722,4.487-6.366,3.544-5.807,10.048c0.747,8.658,14.643,21.7-4.026,25.259
	c-8.621,1.646-5.919-2.94-10.709-6.078c-3.979-2.606-10.311,0.363-13.589-2.08c-2.885-2.148-4.183-12.415-4.072-15.212
	c0.218-5.604,0.151-6.62,5.6-9.719c3.59-2.041,6.091-0.555,9.902-4.144c2.96-2.786,5.227-7.387,4.723-11.271
	c-1.184-9.085-16.203-10.537-22.227-5.936c-9.58-10.778,2.971-15.199,9.309-21.07c4.802-4.444,3.308-5.999,10.767-7.768
	c4.258-1.01,11.839-2.656,16.166-2.182c5.924-27.857-26.06,1.487-26.414-12.513c-3.599,3.626-8.806,10.763-14.471,11.117
	c-7.798,0.489-14.13-7.138-12.405-13.815c2.629-10.186,30.471-9.666,26.466-18.957c-1.123-0.206-2.243-0.424-3.361-0.652
	c-0.914-3.063-1.971-5.951-2.811-9.033c-6.823-1.923-20.103,4.886-24.883,9.314c-2.542,2.354-5.507,9.379-9.73,9.842
	c-6.38,0.699-7.238-7.131-5.871-11.479c11.289,2.087,8.771-2.467,8.346-11.842c-0.312-6.871,3.076-13.962,8.29-18.839
	c5.186-4.852,13.056-3.507,18.183-8.063c3.929-3.491,9.747-16.095,7.767-21.114c-1.227-0.329-2.397-0.475-3.523-0.476
	c-0.969,0.5-1.938,1.022-2.915,1.577c-1.697,0.963-4.9,1.968-8.422,3.074c-4.916,3.617-9.571,8.132-15.451,8.813
	c-0.646-3.749,8.099-6.504,15.451-8.813c3.473-2.558,7.078-4.659,11.337-4.651c8.187-4.235,16.132-6.455,26.182-5.323
	c1.114,8.189-1.042,42.438,16.478,36.132c2.891-7.276-4.401-18.803-3.551-26.462c1.979-0.688,3.643-0.629,5.619,0
	c-0.846,7.182,5.516,17.584,14.762,12.836c11.304-5.805-3.789-12.021-9.979-13.473c-0.918-5.488-6.524-10.004-6.168-14.88
	c4.218,2.885,8.514,3.145,11.578,7.449c3.203,4.498,0.719,10.58,10.396,7.475c2.063-9.044-3.857-13.73-11.48-17.629
	c-9.735-4.977-16.736,0.405-27.07-1.732c-0.753-1.067-0.753-2.137,0-3.204c8.973-1.198,17.869,0.895,26.498-2.271
	c6.261-2.295,21.205-9.241,18.179-17.145c-7.29,0.519-14.812,6.318-22.291,8.937c-4.786,1.676-23.367,5.467-16.618-3.908
	c3.485-4.842,19.496-4.939,24.857-7.156c5.951-2.459,13.203-7.979,16.266-13.188c-18.279-4.281-34.039,13.057-53.028,10.918
	c-3.895-10.555,9.213-11.184,16.166-14.638c6.287-3.123,14.27-12.113,21.701-12.163c6.266-8.169,19.156-15.816,26.082-21.211
	c14.421-11.229,30.378-20.483,44.997-31.442c20.924-15.685,44.459-24.23,67.429-36.685c18.058-9.791,35.678-21.135,54.044-30.104
	c18.082-8.83,37.253-13.319,57.739-16.313c20.625-3.015,40.582-2.129,59.611,6.273c16.588,7.327,29.178,20.016,42.764,31.449
	c15.222,12.813,29.445,21.768,50.087,24.2c10.837,1.277,19.223-1.396,30.137,0.491c18.081,3.123,35.882,2.387,53.699-2.424
	c22.934-6.191,43.429-14.688,68.02-15.068c8.919-0.137,17.863,0.046,26.784,0.046c4.813,0,14.126-1.646,18.53,0.393
	c3.85,1.781,5.748,6.56,8.657,9.361c2.965,2.859,7.168,4.786,10.25,7.551c10.132,9.086,20.207,21.022,24.864,33.417
	c3.545,9.434,2.068,20.7,4.585,30.446C1227.83,695.305,1230.652,711.722,1223.645,718.575z"/>
</svg>
