<?xml version="1.0" encoding="utf-8"?>
<!-- Generator: Adobe Illustrator 16.0.0, SVG Export Plug-In . SVG Version: 6.00 Build 0)  -->
<!DOCTYPE svg PUBLIC "-//W3C//DTD SVG 1.1//EN" "http://www.w3.org/Graphics/SVG/1.1/DTD/svg11.dtd">
<svg version="1.1" id="Layer_1" xmlns="http://www.w3.org/2000/svg" xmlns:xlink="http://www.w3.org/1999/xlink" x="0px" y="0px"
	 width="1400px" height="1554.414px" viewBox="0 0 1400 1554.414" enable-background="new 0 0 1400 1554.414" xml:space="preserve">
<g>
	<g>
		<g>
			<g>
				<linearGradient id="SVGID_1_" gradientUnits="userSpaceOnUse" x1="1055.2305" y1="297.2417" x2="1055.2305" y2="295.7051">
					<stop  offset="0" style="stop-color:#160A2B"/>
					<stop  offset="1" style="stop-color:#131B52"/>
				</linearGradient>
				<path fill="url(#SVGID_1_)" d="M1055.462,297.242c-0.142-0.505-0.293-1.017-0.464-1.537
					C1055.145,296.221,1055.302,296.731,1055.462,297.242z"/>
			</g>
			<g>
				<linearGradient id="SVGID_2_" gradientUnits="userSpaceOnUse" x1="718.748" y1="1554.4141" x2="718.748" y2="24.5635">
					<stop  offset="0" style="stop-color:#160A2B"/>
					<stop  offset="1" style="stop-color:#131B52"/>
				</linearGradient>
				<path fill="url(#SVGID_2_)" d="M1507.361,721.44c-30.662-32.981-61.901,27.851-88.843,43.36
					c-15.194-21.321-24.708-75.491-27.96-104.437c-23.691,1.411-30.32,31.997-48.844,40.388
					c3.723-61.649-10.884-118.728-12.222-180.024c-56.493,76.612-53.725-108.22-52.679-138.81
					c-11.8,6.921-22.35,16.646-36.013,24.36c-0.621-61.879-13.955-118.917-23.345-180.042
					c-2.963-19.291-11.018-37.073-18.588-54.886c-3.811-8.96-7.544-17.944-10.526-27.221c-1.173-3.645-3.894-9.108-3.96-12.893
					c-0.075-4.316,3.195-7.731,2.792-12.051c-2.586-2.119-3.902-3.425-5.66-6.3c-17.302,0.536-4.901-6.343-2.43-12.539
					c2.741-6.881-2.208-15.444-10.799-17.286c3.867-11.44-3.271-22.032-5.158-33.379c-1.466-8.817-0.488-16.837-3.131-25.118
					c-13.838,12.486-9.451,53.904-9.481,71.526c-0.031,17.813,4.314,40.618-5.89,55.91c-6.472-7.639-5.464-29.527-6.773-39.542
					c-0.263-2.014,1.087-6.32,0.26-8.021c-1.613-3.321-6.598-4.82-8.948-8.25c-2.772-4.044-2.164-9.666-5.822-13.414
					c-1.484,12.203-3.183,22.909-2.001,34.801c1.785,17.967-3.977,35.947,1.095,52.169c9.043,28.974-1.111,56.681-1.274,86.041
					c-0.069,12.592,6.751,25.742-2.638,36.614c0.817-9.155-3.451-15.82-5.167-24.998c-1.837-9.818-0.679-18.982-3.104-28.25
					c-5.303-20.275-13.965-44.915-13.979-65.658c-1.836-0.014-6.091,1.004-7.792,1.652c-0.859,21.037,7.841,41.085,5.45,63.063
					c-5.312,0.582-10.609-0.889-15.43-2.72c5.747,2.961,1.837,9.273,2.944,14.271c1.307,5.903,6.713,11.164,8.372,17.181
					c2.459,8.926-1.526,8.544-3.803,16.074c-2.305,7.619,0.455,11.673,3.006,19.204c4.082,12.037,6.569,24.166,6.55,36.851
					c-0.02,12.303,2.909,28.879-3.97,40.279c-5.704-4.821-3.687-16.107-6.795-23.128c-9.668-1.501-16.983-24.403-19.405-33.268
					c-2.442-8.934-7.146-16.817-9.942-25.708c3.681,13.121-2.234,21.044-4.234,33.984c-1.502,9.712,2.298,20.372,2.301,30.059
					c-8.959,1.798-12.869-10.274-16.859-15.663c1.086,17.63,8.155,34.85,8.126,52.418c-0.025,12.511-12.283,54.535,4.677,59.668
					c-2.862,32.899,0.403,66.494-1.305,99.568c-0.878,16.992-2.131,34.402-6.499,50.911c-1.655,6.254-3.572,12.937-7.118,18.428
					c-0.653,1.013-9.827,10.293-9.901,9.691c-5.412-43.814-10.728-87.754-12.636-131.818c-0.111-2.588,0.411-7.484-0.26-10.031
					c-1.479-5.604-2.837-4.222-5.563-8.549c-4.272-6.782-6.468-12.089-5.92-21.079c0.227-3.737,1.759-6.278,1.807-9.924
					c0.064-4.729-5.298-4.067-1.165-9.347c-10.98-5.93-14.063-12.797-13.406-24.45c0.71-12.571-2.005-24.065-3.123-36.461
					c-2.351-26.094-4.697-52.351-7.2-78.145c-18.57,32.283-15.293,71.82-15.63,109.156c-3.028-4.63-4.111-13.194-4.969-19.035
					c-7.092-1.673-10.04-18.145-10.817-24.655c-4.902,11.269-4.58,30.894-6.853,43.84c-2.769,15.774-2.488,33.704-0.941,49.333
					c2.159,21.823,1.731,43.698,3.595,65.517c1.04,12.197,4.943,15.867,8.865,26.968c2.593,7.34,1.365,16.112-0.247,23.77
					c-1.676,7.956-4.243,8.542-8.112,15.598c-6.042,11.016,3.039,19.705,3.795,30.432c0.751,10.667-5.269,21.151-4.791,32.356
					c0.376,8.844,4.114,16.543,3.741,25.424c-0.773,18.417-1.662,36.275-7.972,53.632c-9.112-8.142-4.414-26.657-5.848-38.046
					c-1.447-11.508-3.883-22.543-5.004-34.577c-1.175-12.635-7.982-23.045-9.429-35.486c-1.31-11.277-6.264-27.214-5.21-38.216
					c-2.073,1.165-5.759,3.119-7.132,3.93c3.431,10.851,1.607,37.363-3.416,48.493c-2.402,5.324-7.421,7.142-9.684,12.534
					c-1.888,4.522,0.327,8.469-2.619,12.072c-1.986,2.429-7.667,1.135-10.138,4.789c-3.241,4.791,1.962,18.001-6.929,19.406
					c9.965,12.298,3.267,9.599-4.955,19.766c-7.082,8.758,1.14,10.491,2.804,19.874c1.719,9.688-3.763,20.622-4.614,30.15
					c-0.92,10.317,2.228,28.946-7.813,35.021c-2.951-5.295-0.815-11.503-3.109-16.857c-3.443-8.034-5.325-4.133-12.486-8.911
					c2.666-5.375-0.58-9.879-0.323-15.505c0.296-6.456,4.385-10.006,4.854-16.048c0.706-9.095-5.323-21.703-6.373-32.174
					c-0.839-8.355,1.603-15.155,2.234-23.388c0.727-9.459-2.293-18.604-3.334-27.964c-1.533-13.77-2.071-28.554-3.834-41.164
					c-7.438,13.109-9.455,33.73-12.782,48.346c-2.929,12.87-0.416,22.656-7.734,34.404c-4.119,6.614-11.089,13.23-14.387,20.036
					c-3.54,7.307-4.392,18.812-5.13,27.237c-0.625,7.133,1.821,20.346-4.293,24.956c-5.842-9.547-3.303-33.569-2.666-45.317
					c0.887-16.349-7.08-32.491-7.677-49.156c-5.522,6.753-3.673,13.548-4.857,21.421c-1.353,8.991-5.014,17.695-5.442,26.807
					c-0.337,7.163,2.28,38.445-8.27,32.164c-4.099-2.44-6.545-13.354-7.917-17.501c-5.958-18.013-8.875-37.15-11.74-55.846
					c-5.332-34.795-5.709-72.524-15.909-106.342c-3.927,5.915-16.207,11-19.073,14.111c-4.623-15.655-10.059-31.148-11.274-46.922
					c-0.917,8.961-7.105,20.305-9.355,30.029c-23.368-13.206-22.805-81.58-21.708-107.763c-0.365,0.461-4.136,8.857-4.363,9.424
					c-11.173-14.416-10.826-37.299-17.542-52.377c-5.336-1.389-3.409,5.862-5.385,7.933c-1.745-3.323-4.852-9.531-9.63-11.716
					c-12.162,44.649,1.801,147.615-29.124,177.896c-8.532-37.948-13.149-100.336-33.314-132.26
					c4.632,7.335-6.807,46.94-13.324,50.951c-4.202-13.415-2.929-30.457-3.349-44.532c-0.286-9.542-0.723-15.569-3.457-24.239
					c-2.835-8.991-5.343-20.165-3.744-30.201c1.455-9.134,3.612-13.506,2.208-22.92c-1.214-8.134-0.229-14.521,0.188-23.021
					c0.9-18.352,1.457-40.135-1.992-57.854c-3.534,6.06-8.949,11.389-11.245,18.115c-2.435,7.13-2.177,16.4-3.717,23.862
					c-2.467,11.967-0.805,24.658-5.969,36.031c-1.342-8.521-6.182-15.792-7.78-24.123c-2.539-13.246-0.522-28.708-1.479-42.271
					c-2.021-28.612-5.928-57.054-8.012-85.66c-14.445,21.451-17.419,45.998-18.784,71.795c-1.162,21.954,3.674,45.982-3.646,67.731
					c-1.285,0.102-2.403,0.016-3.681-0.119c-2.375-13.449-5.958-26.506-7.886-40.181c-2.01-14.266,1.125-28.256-0.264-42.342
					c-1.202-12.193,0.418-27.958-3.703-39.172c-5.453-14.839-9.516-31.822-14.847-47.877c-3.626-10.92-4.771-22.646-9.258-33.171
					c-19.142,16.872-5.084,48.175-16.408,68.939c-7.305,13.394-5.143,23.521-5.202,38.784c-0.04,10.177-2.321,20.259-3.185,30.384
					c-1.548-18.539-8.493-39.252-21.363-50.547c-4.096,8.397-4.076,22.527-5.844,31.838c-3.189,16.796,1.838,32.708,0.176,49.875
					c-0.71,7.328-3.425,15.237-2.749,22.616c0.649,7.081,4.509,13.204,4.759,20.77c0.304,9.237,1.329,27.313-5.532,33.431
					c-1.454-17.92-8.881-36.955-9.479-54.43c-0.443-12.949-2.368-25.286-8.098-36.654c-13.181,17.622-6.665,45.303-13.562,65.417
					c-8.782-2.368-4.596-19.035-4.67-26.367c-0.106-10.532-6.686,4.688-14.768-0.566c-16.471-10.708-35.148-7.39-26.998,1.584
					c-2.708,3.474-7.796,3.936-12.217,4.574c-0.872,7.471,1.611,14.52,0.75,21.694c-0.966,8.061-0.197,10.233,4.131,18.433
					c-8.967,11.036,9.094,42.099-5.413,49.008c-9.48,4.515-12.769-37.148-14.671-45.032c-1.717-7.116-5.084-14.038-5.175-21.299
					c-0.094-7.576,1.397-10.736-1.055-18.035c-3.647-10.859-10.365-19.912-11.401-31.67c-0.724-8.232,1.413-12.655-7.994-16.334
					c-0.458,8.617,1.679,17.16,0.731,25.989c-0.692,6.455,3.392,13.977,1.843,19.098c-2.038,6.732-10.728,6.175-15.358,9.471
					c-9.536,6.788-2.998,5.908,0.268,15.565c1.931,5.704-0.75,13.04-0.313,19.208c0.956,13.522,0.699,22.06-1.625,35.837
					c-2.829,16.762,1.926,32.453-4.485,48.98c-2.875,7.413-5.369,12.883-8.351,2.33c-1.602-5.67-1.038-13.792-2.229-19.871
					c-1.48-7.56-0.451-12.021,1.072-18.847c-4.748-1.265-11.869-4.906-14.34-8.731c6.2-1.62,3.264-9.565,9.709-12.655
					c-2.825-2.597-8.21-2.78-10.73-6.344c1.399-0.802,2.137-2.191,2.996-2.873c-3.524-2.034-6.9-5.057-8.358-8.666
					c12.009-6.255-5.12-30.09-7.448-38.407c-4.978-17.789-0.869-38.658-5.004-56.281c-4.767,5.764-11.496,16.882-13.097,24.328
					c-2.218,10.323,3.436,20.693,2.274,30.952c-2.963-0.357-5.057,0.972-7.829,0.896c2.614,4.331,7.201,9.67,12.259,11.729
					c-5.991,5.631-11.695,5.278-10.784,16.462c0.881,10.812,13.081,18.684-4.875,19.7c-1.994,18.61-4.017,36.912-6.025,55.617
					c-1.697,15.804,0.416,33.615-6.731,47.625c-5.948-6.816-3.32-18.011-4.3-26.19c-1.247-10.392-5.407-20.674-5.485-31.297
					c-0.06-8.328,0.574-15.893-0.55-23.79c-3.136-22.004-7.646-45.19-6.897-67.569c-12.443-4.316-9.177,28.741-10.689,36.393
					c-1.71,8.66-5.732,16.314-6.396,25.882c-1.939,27.981-4.825,54.077-12.403,81.16c-6.983-7.714-6.103-20.738-7.23-30.625
					c-1.027-9.015-3.027-15.303-5.555-23.825c-2.363-7.961-0.563-13.267-4.144-21.546c-2.979-6.89-5.455-11.785-5.899-19.947
					c-2.602,6.901-9.705,10.472-11.973,17.132c-2.93,8.622-1.876,18.049-4.782,26.968c-2.972,9.123-7.229,17.022-6.943,27.041
					c0.589,20.716,2.666,38.881-0.38,60.426c-2.847,20.13-3.306,40.883-4.338,61.355c-0.927,18.383-6.899,30.569-15.618,46.461
					c0.09-18.044-11.489-33.763-17.604-50.052c-3.859-10.285-15.333-59.93-24.601-56.024c-10.901,4.593-74.25,44.625-74.564,53.326
					c-0.466,12.963-2.823,924.453-0.882,924.707c0.016,0.002,1583.168-0.455,1583.168-0.455l-2.411-844.075
					C1508.102,713.704,1508.556,717.542,1507.361,721.44z"/>
			</g>
		</g>
	</g>
</g>
<linearGradient id="SVGID_3_" gradientUnits="userSpaceOnUse" x1="676.4995" y1="2.5776" x2="676.4995" y2="1479.5005">
	<stop  offset="0" style="stop-color:#14325B"/>
	<stop  offset="0.2591" style="stop-color:#133057"/>
	<stop  offset="0.4885" style="stop-color:#12284D"/>
	<stop  offset="0.7066" style="stop-color:#0E1C3B"/>
	<stop  offset="0.9165" style="stop-color:#0A0B21"/>
	<stop  offset="1" style="stop-color:#080315"/>
</linearGradient>
<path fill="url(#SVGID_3_)" d="M1424.386,152.044c0,0-19.793-0.213-29.659-1.858c-12.035-2.007-24.337-3.02-36.485-4.008
	c-7.16-0.582-14.345-1.151-21.528-1.279c-3.346-0.06-9.875,1.463-12.46-0.368c-6.184,4.455-7.748,13.165-13.764,18.002
	c-5.862,4.714-15.035,7.62-17.986-0.917c-3.987-11.534,6.422-18.803,10.945-28.042c2.737-5.593,1.86-11.057,2.493-17.061
	c0.81-7.693,4.18-14.796,6.778-21.992c2.393-6.618,9.175-34.671-6.384-33.204c-12.39,1.169-5.6,22.172-11.961,28.045
	c-1.172,1.082-4.042,3.424-5.873,3.161c-4.811-0.689-4.049-7.211-4.002-11.026c0.124-10.121,4.357-19.504,5-29.498
	c0.375-5.824-1.563-21.322-9.137-12.111c-3.551,4.315-7.267,17.129-14.862,15.524c-13.008-2.751,6.901-55.135-16.092-52.756
	c-12.225,1.265,1.287,37.694,2.09,46.011c-23.289,8.924-26.578-29.916-49.373-12.518c-3.64,22.484,57.507,20.102,53.183,46.603
	c-12.306,7.132-17.598-19.772-27.194-12.876c-12.36,8.883,9.434,20.051,15.271,23.445c13.846,8.052,22.807,11.689,25.254,29.938
	c1.346,10.043,1.047,26.142-12.76,26.021c-11.956-0.104-7.476-15.335-7.879-23.281c-0.152-3.007-3.244-21.571-9.535-18.424
	c-4.077,2.039-0.041,19.037-3.579,22.924c-9.313,10.232-14.01-30.451-14.411-34.5c-0.732-7.388,1.678-17.82-1.338-24.5
	c-1.902-4.218-6.746-5.942-9.522-0.889c-1.892,3.439-0.195,8.482,0.274,11.889c0.553,3.986,0.89,8.108,1.101,12
	c0.624,11.521-7.624,5.397-13.323,0.692c-5.628-4.646-11.112-9.989-15.69-15.69c-3.982-4.96-14.799-23.381-20.599-11.613
	c-4.168,8.457,5.209,18.551,11.598,23.1c7.367,5.245,16.271,8.083,24.068,12.628c3.859,2.249,8.689,8.777,1.983,12.382
	c-6.564,3.529-10.734-1.837-15.525-5.496c-5.201-3.973-32.152-21.361-29.433-5.22c3.852,22.864,37.229,29.989,55.544,34.606
	c7.153,1.804,13.022,3.383,18.273,8.756c5.589,5.721,8.644,13.931,3.618,21.019c-3.725,5.254-11.42,4.193-16.489,1.208
	c-6.536-3.848-13.474-12.465-20.892-13.996c-4.196-0.865-6.561,0.813-5.635,6.135c0.667,3.839,4.794,7.129,8.012,9.39
	c6.249,4.393,14.84,8.68,22.111,9.989c2.408,0.434,10.83,0.648,9.423,5.135c-0.94,2.998-11.021,3.352-13.436,3.474
	c-3.433,0.175-26.679-0.882-20.124,7.635c5.239,6.808,22.354,0.042,29.527,0.865c9.708,1.116,5.14,8.069,0.364,12.439
	c-4.605,4.215-9.101,4.712-14.181,7.652c-8.693,5.031-25.201,20.655-35.576,11.298c-8.455-7.625,1.996-18.8,4.265-26.75
	c2.45-8.592,5.739-16.68,6.627-25.637c0.596-6.014,0.799-11.267-1.518-16.988c-3.167-7.826-6.168-3.058-8.846,3.51
	c-1.617,3.965-12.314,38.055-18.749,24.976c-2.059-4.184-1.209-9.063-1.876-13.5c-1.255-8.348-4.101-16.774-7.405-24.474
	c-1.484-3.462-3.769-10.425-8.608-10.024c-5.87,0.486-4.993,11.786-5,16.373c-0.018,10.871,5.573,17.597,9.124,27.128
	c1.697,4.56,5.465,15.076-4.124,12.497c-4.47-1.202-7.646-4.611-11.5-6.998c-4.31-2.669-8.239-5.557-11.976-9.004
	c-4.246-3.92-6.849-10.696-11.537-14.022c-4.325-3.07-9.101-1.041-10.61,4.024c-1.421,4.764,1.587,8.631,4.733,11.9
	c6.106,6.343,14.623,11.198,21.39,16.712c7.834,6.385,17.139,11.107,24.623,17.75c3.341,2.966,6.028,6.929,7.382,11.126
	c7.977,24.679-29.746-3.306-36.302-3.084c-18.521,0.627-12.464,15.415-2.388,23.951c14.175,12.005,34.494,11.595,49.484,22.078
	c5.354,3.743,12.123,9.34,4.131,13.49c-4.898,2.544-12.455,3.308-17.934,3.076c-4.346-0.184-29.331-5.58-29.061,2.974
	c0.24,7.546,18.447,12.181,23.575,13.012c8.72,1.412,15.087-2.923,22.659-6.299c12.258-5.464,1.641,11.221-0.326,16.625
	c-3.451,9.488-4.668,18.861-4.592,28.832c0.027,3.818,0.57,7.531-1.177,10.719c-1.727,3.15-7.806,7.249-11.496,9.431
	c-5.183,3.063-23.095,11.369-28.218,4.816c-2.209-2.824-0.587-6.948,1.246-9.5c4.319-6.016,11.778-10.169,14.524-17.609
	c3.552-9.625-5.914-5.638-9.012-0.374c-2.97,5.046-5.752,13.143-12.331,7.396c-5.963-5.21-0.329-11.039,3.594-15.996
	c4.864-6.146,11.899-16.321,11.113-24.526c-1.438-14.993-14.123,4.518-18.111,6.901c-10.894,6.51-12.173-4.302-13.416-11.901
	c-1.643-10.041-6.322-41.455-21.973-39.5c-7.118,0.889-7.392,13.296-6.525,19.387c0.588,4.145,2.665,8.601,4.903,12.128
	c2.517,3.963,7.511,8.158-0.409,8.375c-3.784,0.104-7.468-2.488-10.105-4.917c-3.129-2.883-5.526-6.616-7.424-10.395
	c-0.472-0.939-3.529-10.49-3.722-10.522c-26.827-4.52-11.76,25.494,2.149,32.876c8.823,4.684,18.119,8.89,25.759,15.45
	c3.469,2.979,20.846,17.078,11.763,20.505c-3.79,1.43-10.725-1.31-13.766-3.474c-6.947-4.946-10.293-19.108-18.236-21.8
	c-5.073-1.719-8.581,2.579-9.498,6.889c-0.999,4.696,1.137,7.543,3.486,11.524c3.854,6.529,7.076,16.187,12.727,21.353
	c5.159,4.669,15.423,6.432,21.643,9.6c2.574,1.311,8.118,3.402,9.067,6.515c1.355,4.447-3.7,14.115-6.826,16.896
	c-4.479,3.985-12.133,8.555-18.41,7.536c-0.87-4.115,2.345-9.181,2.911-13.3c0.734-5.319,0.431-10.571-1.488-15.625
	c-1.313-3.46-4.021-8.71-8.495-6.036c-3.992,2.386-2.69,11.334-2.515,15.159c0.49,10.611-0.795,16.732-9.488,23.875
	c-3.102,2.548-6.675,4.162-10.381,5.61c-10.51,4.104-2.971-6.266-0.981-10.108c2.125-4.106,3.838-8.976,4.752-13.5
	c0.907-4.49,1.514-24.984-8.414-18.898c-7.938,4.864-2.318,17.941-6.113,24.286c-1.753,2.931-6.651,6.759-10.387,4.26
	c-3.767-2.52-1.687-10.263-1.476-14.01c0.309-5.458,1.565-10.75,1.5-16.163c-0.063-5.275-2.25-6.375-5.104-1.396
	c-3.934,6.862-0.563,15.861-5.306,22.384c-0.249-4.262-5.29-7.333-5.943-12.171c-0.758-5.621,1.522-11.427,2.854-16.793
	c1.679-6.771,3.966-29.151-4.362-33.646c-8.604-4.644-3.755,15.749-5.111,19.648c-3.499,10.062-14.749-9.292-21.025-10.524
	c-4.076-0.801-7.68,1.705-7.01,6.024c0.603,3.884,6.423,7.866,9.508,9.999c5.059,3.497,17.457,7.803,14.162,16.03
	c-3.028,7.565-12.768,4.027-17.686,0.571C965,359.888,958.012,348.308,949.5,338c-3.965-4.801-15.005-23.428-21.889-13.998
	c-7.214,9.881,9.796,22.015,16.369,27.029c8.717,6.649,17.813,13.167,24.789,21.732c1.955,2.401,14.196,22.378,5.729,22.747
	c-4.259,0.186-12.663-11.265-15.986-14.121c-4.317-3.71-23.675-23.804-30.053-16.902c-7.021,7.598,14.307,17.877,18.65,21.027
	c2.355,1.709,9.724,6.13,8.909,9.986c-1.224,5.802-12.852,0.933-16.145,0.476c-2.542-0.353-10.896,0.106-10.95,4.024
	c-0.05,3.703,9.439,6.254,11.978,6.889c10.038,2.512,20.675,0.708,30.706,0.113c6.886-0.408,15.471,1.783,17.413,9.468
	c1.485,5.88-0.317,11.583-6.233,13.874c-4.719,1.827-14.93,5.218-19.789,4.168c-6.995-1.511-8.773-8.656-11.125-14.512
	c-1.955-4.868-8.008-13.318-9.4-3c-0.842,6.235,6.563,9.991,5.45,15.425c-8.195,2.228-14.826-17.16-21.438-20.048
	c-6.494-2.837-4.655,4.85-1.986,8.124c3.122,3.83,8.307,5.402,11.375,9.124c2.944,3.572,2.012,6.145-3.35,5.4
	c-3.918-0.545-10.14-8.101-14.523-6.034c-6.974,3.285,5.922,8.263,8.621,8.885c5.035,1.161,10.066,2.317,14.877,4
	c2.673,0.936,6.084,1.519,5.413,5.037c-0.156,0.819-16.826,3.291-18.373,3.251c-7.693-0.201-10.387-4.547-16.948-7.283
	c-5.528-2.306-11.188-3.811-17.036-6.887c-5.832-3.068-10.782-5.256-16.918-6.443c-8.64-1.67-19.217,1.06-27.534-1.415
	c-5.924-1.761-10.756-7.05-17.221-8.762c-7.04-1.866-17.847-2.337-24.832-0.036c-5.706,1.878-11.375,6.322-16.567,8.873
	c-16.633-12.891-28.204-25.719-51.087-29.164c-4.681-0.703-12.265,0.258-16.258-2.08c-1.916-1.119-4.062-4.611-5.688-6.223
	c-4.968-4.921-9.475-7.258-16.986-5.867c-6.854,1.268-11.307,6.76-17.82,8.905c7.958-10.394,26.993-16.38,22.302-31.128
	c-7.282-22.89-16.563,20.064-30.064,15.132c0.133-3.75-3.529-7.112-3.369-9.845c0.251-4.23,2.908-4.311,3.73-7.67
	c1.868-7.649,2.681-14.942,1.598-22.984c-14.245-4.283-2.299,34.021-19.755,21.032c-9.331-6.944-0.292-27.718-8.175-36.568
	c-10.612,4.551-6.438,12.271-5.189,19.899c-21.066,7.535-16.729-21.543-26.815-22.535c-3.344,14.742,7.548,23.563,16.122,33.806
	c4.302,5.139,23.624,24.698,21.741,30.088c-16.887,3.61-19.418-25.98-32.326-25.107c-4.584,19.647,28.564,31.299,21.821,48.671
	c-5.359,13.8-14.372-2.443-22.229-2.738c-12.413-0.471-10.265,16.896-21.51,17.617c-26.274,1.68-5.295-27.48,2.778-34.898
	c4.179-3.838,17.729-8.773,7.038-15.584c-9.318-5.939-14.732,6.084-16.507,11.912c-2.88,1.081-7.213,1.081-10.095,0
	c-5.479-10.597-2.699-19.299,0.277-29.899c2.37-8.45,2.879-19.101,1.588-28.52c-17.742-6.944-12.653,25.21-13.966,32.842
	c-15.29-7.038-22.372-13.644-27.707-30.542c-22.217-5.973-5.688,14.707-0.122,21.006c6.708,7.596,17.674,19.937,14.077,30.088
	c-14.963,1.109-26.651-29.104-37.729-27.694c-6.227,24.374,39.705,32.87,32.271,53.384c-13.497,4.322-13.319-15.378-21.616-15.43
	c-18.683-0.115,7.104,19.42,8.817,20.858c8.873,7.444,14.388,14.822,13.209,25.888c-0.598,5.616-0.151,14.052-4.31,18.486
	c-1.923,2.052-5.932,3.854-8.657,2.047c-4.622-3.063-1.554-11.313-0.764-15.405c0.59-3.059,4.316-16.587-2.732-12.998
	c-4.721,2.404-4.041,12.361-5.265,16.506c-1.539,5.21-8.808,10.748-14.18,6.471c-4.646-3.698-1.223-13.229,0.595-17.618
	c5.147-12.445,5.039-17.7,1.604-30.643c-9.721-1.107-12.998,16.301-8.022,22.328c-21.428,4.52-13.579-9.637-22.32-20.132
	c-8.758-10.512-21.085-4.72-19.004,7.905c2.856,17.323,25.089,29.063,25.211,47.854c-9.189-4.147-11.91-11.214-18.863-17.13
	c-9.503-8.084-13.832-2.886-8.285,7.854c4.283,8.293,11.635,11.104,13.193,20.556c1.266,7.668,0.543,17.914-0.483,25.502
	c-22.208-4.875-9.147-25.527-16.64-40.64c-16.482,0.146-3.643,26.011-2.789,32.851c-9.319-6.092-19.975-3.566-29.218-10.63
	c-3.548-2.71-23.686-22.788-25.208-7.646c9.813,7.813,19.519,11.653,29.9,16.682c23.196,11.233-1.135,15.177-11.05,23.116
	c-8.241,6.603-4.426,11.536,1.988,14.461c-2.036,0.333-4.126,0.679-6.328,0.922c-10.955,1.216-6.744,4.084-6.522,13.044
	c0.129,5.207,1.593,13.446-3.478,17.067c-5.049,3.604-9.77-2.035-16.685-1.234c-2.645,0.306-4.319,1.722-7.645,1.558
	c-3.18-0.157-5.83-2.305-9.041-1.264c0.133,10.328-9.776,8.776-14.354,14.234c2.527,3.063,10.836,6.063,4.467,11.338
	c-5.459,4.521-6.218-4.245-11.959-5.203c-14.888-2.482-1.269,21.652-12.369,22.95c-3.324,0.39-5.856-2.458-9.338-1.575
	c-1.833,0.465-2.562,2.992-4.141,3.352c-4.724,1.07-11.807-1.137-9.763-7.704c2.756-8.856,22.685-5.905,21.502-15.619
	c-6.673-1.482-13.821,1.86-21.193,0.979c-5.296-17.383,21.946-14.144,30.695-17.135c3.365-1.151,12.318-8.652,8.994-13.188
	c-3.664-4.999-11.559,1.845-12.388,5.647c-11.556,3.858-3.948-11.706-4.599-16.914c-14.097-4.728-2.347,22.91-14.985,18.396
	c-0.679-5.086,0.276-10.461-0.491-15.527c-0.854-0.528-1.708-0.528-2.563,0c0.19,6.229-7.199,13.532-8.056,4.119
	c-0.376-4.139,5.945-11.221,9.25-13.436c6.63-4.44,25.675-7.691,21.483-19.634c-6.361-2.254-4.682,6.974-12.204,3.066
	c-3.106-1.613-5.354-6-4.242-9.128c1.227-3.439,7.753-5.636,10.804-6.886c6.07-2.486,7.711-3.054,10.076-9.018
	c1.396-3.521,2.415-13.371-5.438-8.402c-3.107,1.968-0.897,9.81-6.531,8.501c-7.56-1.755-0.704-18.327-1.732-23.063
	c-9.539-3.528-8.705,11.293-9.273,15.498c-1.615,0.582-4.079,0.563-5.676-0.032c-0.837-2.972-2.792-5.221-3.629-8.19
	c-8.438-1.069-12.052,0.698-9,8.442c2.221,5.631,9.28,9.071,10.654,14.307c-1.815,0.127-21.833-14.459-18.18-1.477
	c5.909-0.468,11.354,5.672,14.122,10.034c3.936,6.205,1.045,7.978-0.688,14.597c-2.335,0.436-4.914,0.436-7.255,0
	c-0.622-3.221,2.276-5.367,2.966-8.477c0.551-2.488,0.006-6.046-0.309-8.511c-2.574-0.194-4.629,0.967-7.257,1.518
	c-0.759,5.544,0.351,11.427-0.503,16.951c-6.936,0.495-8.087-9.063-10.505-12.897c-4.265-6.761-18.42-5.719-13.634,4.102
	c1.269,2.6,5.637,3.959,7.455,6.015c2.914,3.296,5.032,7.934,7.297,11.665c4.734,7.806,5.381,13.093,3.178,21.549
	c-0.839,0.529-1.681,0.529-2.526,0c-0.738-3.155,2.446-9.43,1.083-11.509c-3.146-4.799-8.071-0.04-9.145,3.009
	c-2.594,7.365,7.26,12.337,6.02,18.4c-2.85-3.32-7.869-4.881-10.274-8.589c-2.153-3.32-1.868-7.612-3.664-11.015
	c-5.62-0.675-11.407-1.379-10.617,5.619c0.574,5.084,6.655,7.743,9.421,11.115c3.27,3.985,2.808,8.046,4.176,13.126
	c1.08,4.004,7.066,9.639,6.355,12.852c-9.256-2.21-5.37-14.351-16.557-9.346c-0.152,6.448,7.783,12.128,11.777,17.185
	c5.749,7.285,5.272,12.852,3.174,21.435c-9.635,2.647-11.026-11.222-16.385-14.118c-4.02,9.525-5.246,15.004-17.182,12.642
	c2.861-5.958,2.07-11.222,6.407-16.854c2.854-3.706,8.704-7.953,7.104-13.111c-8.634-2.869-7.288,6.69-12.046,10.035
	c-7.51,5.275-12.736-2.007-10.923-8.834c2.208-8.308,20.784-15.623,16.794-25.834c-7.24-1.5-10.589,1.477-13.324,7.026
	c-3.162,6.414-2.766,8.236-10.999,3.984c6.376-7.617,0.063-12.699-0.233-19.848c-0.297-7.195,4.032-13.57,2.932-21.599
	c-17.813-6.054,1.891,27.928-12.543,20.496c-5.138-2.646-4.736-12.154-6.109-16.367c-2.108-6.463-5.688-10.456-6.064-17.172
	c-11.689-3.756-5.899,13.314-4.486,18.621c2.205,8.271,10.778,13.788,12.285,21.52c-9.161,2.878-10.109-12.149-18.452-8.58
	c-9.647,4.13,1.372,12.966,6.253,14.597c8.182,2.732,12.191,8.182,17.336,14.137c2.533,2.935,8.961,15.648-0.079,14.664
	c0.019-6.363-9.343-19.797-9.607-7.057c-0.12,5.742,3.851,18.316-4.485,21.838c-9.014,3.805-13.354-5.03-12.469-11.698
	c0.545-4.085,1.529-6.248,4.596-8.696c3.541-2.823,8.355-2.143,6.02-8.477c-5.14-1.744-6.266,3.021-10.234,2.426
	c-1.201-0.182-8.141-4.741-9.072-5.434c1.627-4.375,5.383-8.009,3.859-12.935c-1.604-0.572-4.107-0.572-5.712,0
	c-0.696,5.111,0.216,10.494-0.467,15.612c-6.489-1.972-6.408-7.704-9.458-12.933c-4.367-7.488-3.383-3.847-11.695-4.141
	c-1.641,3.87,8.879,15.363,11.736,18.702c4.932,5.762,13.188,5,10.926,14.238c-2.127,0.021-24.444-13.402-19.916,0.254
	c1.268,3.828,8.783,4.523,12.113,6.089c3.498,1.642,6.365,4.327,9.696,6.563c8.553,5.736,14.146,8.134,13.824,19.162
	c-0.431,14.754-10.203,5.015-20.081,7.535c-6.998,1.785-6.305,8.171-12.364,7.021c-4.411-0.839-7.778-5.949-12.353-7.021
	c-9.48-2.218-14.223,7.05-18.586,12.713c-1.954,2.535-0.241,2.909-4.59,4.459c-1.85,0.658-5.694-0.063-7.719-0.067
	c-4.424-0.016-9.288-0.482-13.559,0.32c-10.115,1.903-16.705,3.726-26.457-1.738c0.75-5.695,10.207-7.982,15.221-10.184
	c3.307-1.451,8.335-2.426,6.326-7.311c-1.209-2.944-4.409-3.682-7.527-2.582c-0.176,0.802-0.352,1.603-0.527,2.404
	c-1.606,0.595-4.094,0.608-5.718,0.027c-0.539-4.681,1.831-10.21,1.118-15.533c-6.839-2.067-5.708,7.886-6.179,11.181
	c-1.445,0.508-2.733,0.508-4.179,0c-0.65-4.922,1.147-15.384-4.438-18.713c-7.439-4.438-3.93,6.819-3.477,10.24
	c0.676,5.125,0.818,12.667-1.121,17.392c-2.854,6.946-8.854,6.401-15.674,5.579c-2.381-7.694,8.317-11.611,5.717-18.397
	c-5.837-1.575-7.686,4.281-11.785,5.39c-6.355-4.254-2.211-12.997-0.768-18.656c1.829-7.172,6.772-9.849,10.893-15.946
	c3.857-5.709,3.615-19.016-4.672-10.176c-3.971,4.232-2.404,15.987-11.743,12.858c-0.546-4.004-1.129-9.807,0.894-13.217
	c2.185-3.686,6.994-4.084,4.783-9.498c-10.05-0.854,1.73-21.619-11.818-14.494c-0.467,2.702-0.087,5.505-0.504,8.226
	c-7.822,2.637-13.963-17.604-19.534-6.734c-3.572,6.969,11.611,15.15,15.016,19.702c-9.345,1.323-12.197-2.232-19.929-5.535
	c-3.031-1.296-8.521-3.421-9.444,1.487c-0.892,4.74,5.015,3.617,7.864,4.626c4.063,1.437,7.016,2.868,10.818,3.985
	c3.616,1.061,5.758,1.604,7.757,4.391c1.783,2.484,5.606,12.588,4.362,15.754c-11.512,3.669-10.336-17.186-19.619-14.044
	c-1.223,5.849,1.075,9.391,5.568,13.177c1.725,1.454,5.346,2.871,6.591,4.278c3.563,4.026,1.539,2.396,1.429,6.957
	c-0.264,10.966,7.484,18.871,6.031,30.211c-6.56,2.093-9.158-3.26-12.513-6.738c-1.673-1.735-4.617-2.59-5.905-4.599
	c-2.154-3.361-0.254-3.513-0.229-6.153c0.029-3.104,2.15-10.854-0.748-13.146c-6.164-4.877-6.674,4.224-6.86,7.557
	c-4.85-1.417-8.55-4.279-10.967-8.511c-2.179-3.813-2.992-11.818-8.501-11.371c-12.529,1.018,3.199,19.581,6.882,22.605
	c-7.966,4.651-13.446,0.939-22.476,1.957c-3.377,7.639,9.289,5.589,13.664,5.578c7.289-0.017,8.486-0.153,12.199,5.47
	c-4.406,1.065-18.871,3.543-16.631,10.259c5.097,0.596,9.717,0.64,14.28-1.853c3.568-1.947,6.543-6.284,11.082-5.795
	c4.231,0.456,8.132,4.227,5.5,8.522c-4.208,6.868-14.264,7.083-21.361,7.062c-3.842-0.012-7.772-0.143-11.599-0.502
	c-4.744-0.446-7.826-2.855-12.351-3.995c-3.664-0.922-8.171-0.326-12.014-0.327c-6.432-0.002-17.741-0.291-21.627,4.587L-82,1479.5
	h1517L1424.386,152.044z M364.551,883.292c-4.378,5.282-21.313,1.433-29.146-0.285c-16.258-3.564-27.064-20.727-43.922-24.079
	c-19.621-3.901-41.615,17.63-59.488,11.475c-4.109-14.424,11.096-22.576,6.791-34.869c-15.16-4.812-8.842,21.873-26.805,14.869
	c-3.403-25.789-3.919-42.154-21.701-12.479c-12.043,20.099-24.967,17.7-42.969,27.604c-4.744-7.723-5.139-17.256-3.224-25.81
	c16.66-3.744,22.584-15.468,18.399-32.392c-9.236,14.075-13.587,13.481-31.189,15.602c-5.881,0.708-13.092,7.237-19.096,3.475
	c-9.803-6.145-2.896-16.622,6.598-16.064c0.439-10.544,6.241-21.537,4.591-31.315l-3.928,3.928c-1.266,1.409-2.61,2.773-4.072,4.072
	l4.072-4.072c17.114-19.061,18.085-47.085,51.928-51.038c11.65-1.36,27.245,2.107,37.188-3.7
	c11.543-6.744,6.254-16.83,26.193-12.585c7.916,23.268-30.106,28.816-22.764,50.791c27.941,7.854,29.102-33.441,46.685-30.869
	c3.559,11.409-6.388,20.262-2.685,30.869c6.051,1.199,12.727,1.199,18.777,0c4.184-11.235-4.397-25.886-2.713-38.869
	c2.213-1.458,4.429-1.462,6.648-0.015c-0.914,8.83,2.976,15.966,11.986,14.977c-0.676-6.814,0.392-14.301,7.985-15.169
	c3.895,10.668-5.188,22.919-2.712,35.063c14.858,5.817,16.212-13.569,23.303-19.966c14.983,6.66,7.229,29.087,3.103,39.787
	c-4.89,12.682-8.678,19.994-6.299,36.101c5.575,1.071,8.96,4.267,14.513,5.395c1.043,17.022,21.582,22.267,29.787,34.32
	C364.905,864.678,370.837,875.706,364.551,883.292z M973.295,439.212c5.6-1.672,11.303-3.999,16.554-4.32
	c-1.054,7.16-8.034,17.923-16.542,12.799C968.102,444.554,970.523,442.149,973.295,439.212z M467.621,517.146
	c2.098-2.244,4.086-4.774,6.061-7.554l27.66-9.441c-1.106,1.685-2.081,3.339-2.537,4.797c-6.07,2.915-13.393,1.72-19.771,5.004
	C475.165,511.942,471.404,514.581,467.621,517.146z M1223.645,718.575c-3.438,3.36-20.182,9.348-24.815,8.754
	c-2.818-0.36-2.293-4.597-6.688-3.706c-3.475,0.703-5.553,7.387-6.228,10.274c-1.916,8.192-0.789,16.713-1.854,25.12
	c-1.485,11.728-26.763,43.77-28.937,18.896c-0.635-7.266-0.246-14.51,2.512-21.257c1.297-3.174,11.247-22.245,1.543-21.488
	c-5.809,0.454-4.532,13.98-6.073,17.623c-2.096,4.957-6.739,17.881-14.161,15.161c-0.428-9.606-1.503-28.328-14.363-28.44
	c-2.378,15.297,8.985,21.688,7.675,36.17c-6.331,1.766-15.818-7.326-20.073-1.771c-5.572,7.273,9.385,10.735,8.225,17.237
	c5.438,1.764,10.003-2.966,15.854-1.354c7.704,18.304-43.723,0.596-36.484,18.754c11.876,2.479,20.646-7.417,32.365-5.22
	c4.417,9.879-19,9.239-10.586,17.667c4.316,4.322,16.276-4.247,23.256-2.538c15.411,3.773-0.16,13.987-6.172,19.369
	c-6.766,6.057-9.633,13.973-15.873,19.748c-21.356,19.767-56.422,7.457-80.631,23.236c-7.318,4.771-11.706,13.665-18.794,18.84
	c-8.847,6.459-19.938,6.92-30.681,5.512c-0.813-7.854-0.531-13.249,3.855-19.507c4.403-6.281,6.274-9.989,8.186-16.924
	c1.836-6.671-0.066-14.876,1.967-21.25c2.062-6.458,16.311-10.148,14.294-17.139c-7.857-1.996-18.265,15.376-20.839,20.958
	c-3.812,8.263-4.418,21.045-12.305,26.853c-9.347-1.655-5.035-20.095-6.132-26.607c-10.159,3.586,2.192,21.703-7.271,27.423
	c-10.436,6.307-10.749-15.349-14.477-20.367c-8.541-11.502-20.254,0.574-12.447,9.752c4.331,5.092,19.197,11.988,15.749,21.356
	c-5.399,0.672-21.821-1.994-17.899,7.729c3.177,0.187,6.527,0.384,9.708,0.569c2.488,7.165-13.219,9.557-15.888,14.696
	c3.652,3.998,10.681,5.833,16.152,4.437c5.102-1.303,8.614-7.647,14.12-5.592c1.146,9.202,0.451,13.697-7.941,19.073
	c-5.477,3.509-12.714,11.539-18.432,13.572c-8.82,3.137-22.914-0.178-32.59,1.84c-13.291,2.77-26.496,2.919-39.651,5.804
	c-11.98,2.627-22.119,6.734-32.904,12.066c-10.734,5.306-18.516,12.615-30.896,15.556c-10.248,2.435-20.869,1.455-30.896,3.675
	c-7.667,1.698-18.497,11.56-26.465,8.979c-0.129-2.652-3.16-11.825-2.108-13.321c2.598-3.694,11.775-1.611,15.902-2.132
	c4.216-11.029-15.367-13.987-14.253-24.923c0.895-8.775,18.485-12.511,14.154-22.896c-5.538,3.585-14.041,8.039-17.661,13.804
	c-3.918,6.234-0.379,13.764-6.089,19.316c-15.977,15.542-3.768-32.669-18.791-27.223c0.694,5.435-2.471,9.52-2.355,15.16
	c0.123,6.025,4.86,12.091-0.531,16.899c-9.849,8.784-16.267-14.007-16.404-20.618c-8.644,6.97,7.1,22.227-13.654,21.402
	c1.979,15.92-15.88,7.906-12.72-6.234c0.925-4.131,4.267-6.87,4.264-11.493c-0.003-3.935-3.282-7.58-4.621-11.353
	c-10.654,1.935-4.912,23.529-12.418,28.11c-3.533-2.591-3.846-5.642-6.12-8.604c-2.316-3.019-8.067-1.263-5.461-7.731
	c1.352-3.357,6.615-3.226,7.976-8.064c1.024-3.644,0.136-9.668-0.359-13.324c-7.37-1.602-16.334,9.839-12.243,15.25
	c-10.374,9.481-12.248-5.077-12.161-11.632c0.123-9.421-4.551-17.943-4.472-26.807c-9.608-1.8-8.979,12.577-7.888,17.044
	c2.063,8.461,2.124,16.342,2.061,25.222c-0.082,11.309,5.072,12.764,10.35,21.209c5.382,8.611,0.938,15.213-9.991,13.282
	c-0.791-3.091-1.877-13.144-4.896-14.867c-8.048-4.601-6.326,5.889-9.274,7.998c-6.648,4.756-9.726-1.633-15.131-4.048
	c-8.849-3.952-3.022,2.81-10.085,3.655c-5.387,0.646-9.498-5.448-10.506-9.845c-1.694-7.4,2.314-9.082,8.332-12.116
	c7.23-3.648,20.325-7.93,16.173-18.503c-8.271-1.706-22.091,2.316-26.868,9.123c-10.063-0.786-5.503-17.696-3.648-22.844
	c1.285-3.57,5.591-9.544,4.191-13.727c-0.861-2.58-8.08-7.677-11.043-6.358c-2.606,1.16-2.451,9.352-3.979,11.87
	c-2.722,4.487-6.366,3.544-5.807,10.048c0.747,8.658,14.643,21.7-4.026,25.259c-8.621,1.646-5.919-2.94-10.709-6.078
	c-3.979-2.606-10.311,0.363-13.589-2.08c-2.885-2.148-4.183-12.415-4.072-15.212c0.218-5.604,0.151-6.62,5.6-9.719
	c3.59-2.041,6.091-0.555,9.902-4.144c2.96-2.786,5.227-7.387,4.723-11.271c-1.184-9.085-16.203-10.537-22.227-5.936
	c-9.58-10.778,2.971-15.199,9.309-21.07c4.802-4.444,3.308-5.999,10.767-7.768c4.258-1.01,11.839-2.656,16.166-2.182
	c5.924-27.857-26.06,1.487-26.414-12.513c-3.599,3.626-8.806,10.763-14.471,11.117c-7.798,0.489-14.13-7.138-12.405-13.815
	c2.629-10.186,30.471-9.666,26.466-18.957c-1.123-0.206-2.243-0.424-3.361-0.652c-0.914-3.063-1.971-5.951-2.811-9.033
	c-6.823-1.923-20.103,4.886-24.883,9.314c-2.542,2.354-5.507,9.379-9.73,9.842c-6.38,0.699-7.238-7.131-5.871-11.479
	c11.289,2.087,8.771-2.467,8.346-11.842c-0.312-6.871,3.076-13.962,8.29-18.839c5.186-4.852,13.056-3.507,18.183-8.063
	c3.929-3.491,9.747-16.095,7.767-21.114c-1.227-0.329-2.397-0.475-3.523-0.476c-0.969,0.5-1.938,1.022-2.915,1.577
	c-1.697,0.963-4.9,1.968-8.422,3.074c-4.916,3.617-9.571,8.132-15.451,8.813c-0.646-3.749,8.099-6.504,15.451-8.813
	c3.473-2.558,7.078-4.659,11.337-4.651c8.187-4.235,16.132-6.455,26.182-5.323c1.114,8.189-1.042,42.438,16.478,36.132
	c2.891-7.276-4.401-18.803-3.551-26.462c1.979-0.688,3.643-0.629,5.619,0c-0.846,7.182,5.516,17.584,14.762,12.836
	c11.304-5.805-3.789-12.021-9.979-13.473c-0.918-5.488-6.524-10.004-6.168-14.88c4.218,2.885,8.514,3.145,11.578,7.449
	c3.203,4.498,0.719,10.58,10.396,7.475c2.063-9.044-3.857-13.73-11.48-17.629c-9.735-4.977-16.736,0.405-27.07-1.732
	c-0.753-1.067-0.753-2.137,0-3.204c8.973-1.198,17.869,0.895,26.498-2.271c6.261-2.295,21.205-9.241,18.179-17.145
	c-7.29,0.519-14.812,6.318-22.291,8.937c-4.786,1.676-23.367,5.467-16.618-3.908c3.485-4.842,19.496-4.939,24.857-7.156
	c5.951-2.459,13.203-7.979,16.266-13.188c-18.279-4.281-34.039,13.057-53.028,10.918c-3.895-10.555,9.213-11.184,16.166-14.638
	c6.287-3.123,14.27-12.113,21.701-12.163c6.266-8.169,19.156-15.816,26.082-21.211c14.421-11.229,30.378-20.483,44.997-31.442
	c20.924-15.685,44.459-24.23,67.429-36.685c18.058-9.791,35.678-21.135,54.044-30.104c18.082-8.83,37.253-13.319,57.739-16.313
	c20.625-3.015,40.582-2.129,59.611,6.273c16.588,7.327,29.178,20.016,42.764,31.449c15.222,12.813,29.445,21.768,50.087,24.2
	c10.837,1.277,19.223-1.396,30.137,0.491c18.081,3.123,35.882,2.387,53.699-2.424c22.934-6.191,43.429-14.688,68.02-15.068
	c8.919-0.137,17.863,0.046,26.784,0.046c4.813,0,14.126-1.646,18.53,0.393c3.85,1.781,5.748,6.56,8.657,9.361
	c2.965,2.859,7.168,4.786,10.25,7.551c10.132,9.086,20.207,21.022,24.864,33.417c3.545,9.434,2.068,20.7,4.585,30.446
	C1227.83,695.305,1230.652,711.722,1223.645,718.575z"/>
<linearGradient id="SVGID_4_" gradientUnits="userSpaceOnUse" x1="252.8159" y1="599.7334" x2="252.8159" y2="1554.4146">
	<stop  offset="0" style="stop-color:#2D537E"/>
	<stop  offset="0.7537" style="stop-color:#14224A"/>
</linearGradient>
<path fill="url(#SVGID_4_)" d="M467.669,1287.107c-11.536-1.642-12.521-22.133-19.422-33.698l0,0
	c-0.687-1.154-1.434-2.216-2.255-3.166c15.394-8.385,51.916-61.673,50.656-82.751c-0.044-0.014-0.089-0.026-0.134-0.045
	c-8.325,9.919-15.725,16.185-28.52,16.716c-5.237,0.214-12.488-1.823-17.33,0.643c-6.002,3.057-5.724,8.332-9.875,13.506
	c-8.121,10.118-19.128,9.88-26.302,22.885c7.172-13.005,18.181-12.767,26.302-22.886c4.151-5.174,3.873-10.449,9.875-13.506
	c4.843-2.466,12.093-0.429,17.33-0.643c12.796-0.531,20.196-6.797,28.521-16.716c-14.695-5.028-17.256-16.949-28.033-26.696
	c-7.957-7.198-20.047-10.92-29.524-20.031c-19.965-19.182-23.042-33.686-47.905-29.267c-1.015,0.746-2.119,1.325-3.327,1.704
	c1.208-0.379,2.312-0.959,3.327-1.704c-1.639,0.29-3.375,0.664-5.218,1.127c-0.015-22.61,10.61-78.828,23.856-94.25
	c-2.397-1.52-3.412-3.541-4.969-5.26c-1.219-1.34-2.769-2.488-5.563-3.068c1.193-8.399,2.713-19.109,3.902-27.509
	c-13.695-5.045-32.932-12.167-44.141-22.422c2.576-2.232,4.813-4.704,6.854-7.302c8.582-10.906,13.714-24.043,26.19-31.204
	c-0.821-3.076-1.903-5.905-3.197-8.512c-9.109-18.321-28.914-25.54-45.285-28.304c-1.096-27.921,2.888-45.614-22.411-51.413
	c2.249-3.665,3.955-7.122,5.177-10.392c4.2-11.21,2.77-20.273-1.754-28.107c-0.777,0.66-1.552,1.274-2.309,1.832
	c0.757-0.558,1.532-1.172,2.309-1.833c-8.295-14.381-27.019-24.602-40.469-36.292c-3.472-3.02-6.589-6.129-9.091-9.438
	c2.87-1.733,6.062-6.614,9.351-8.409c-0.602-1.448-1.364-3.075-2.263-4.843c-8.693-17.149-29.989-47.53-39.258-55.578
	c5.507-0.503-5.066-35.931,0.063-37.251c1.476-7.131-15.036-23.292-15.036-23.292s-14.343,60.206-20.642,74.616l-9.749,22.765
	c7.073,0.65,13.971-0.029,20.898,2.169c8.522,2.708,15.378,6.358,24.176,6.813c0.185,0.618,0.293,1.23,0.334,1.834
	c-0.041-0.604-0.149-1.215-0.334-1.833c-8.797-0.456-15.654-4.107-24.176-6.813c-6.927-2.199-13.825-1.52-20.898-2.17l-0.609,1.43
	c3.066-5.052,8.987,12.97,14.022,21.327c0,0,0,0,0.004,0c1.969,3.266,3.805,5.056,5.281,3.412c-0.553,1.424-1.16,2.707-1.829,3.861
	c-2.924,5.051-7.027,7.62-13.019,8.65c1.773,10.473,4.408,20.567,12.197,24.494c-0.189,12.771-3.939,22.329-2.003,33.191
	c-2.787,0.027-5.738,0.85-8.541,0.907c-0.925,10.588,2.765,20.24,8.358,27.348c-4.671,1.458-7.269,6.171-12.811,6.832
	c0.625,1.847,1.171,3.76,1.672,5.702c1.123,0.65,2.17,1.249,3.07,1.78c5.634,3.305,13.439,5.365,19.56,8.551
	c6.268,3.266,13.417,3.925,20.376,4.824c-6.959-0.898-14.108-1.558-20.376-4.823c-6.121-3.187-13.926-5.246-19.56-8.551
	c-0.9-0.532-1.948-1.13-3.07-1.78c2.973,11.479,4.479,23.877,12.506,29.213c2.724,0.495,5.47,0.979,8.263,1.228
	c-2.793-0.248-5.539-0.731-8.263-1.228c1.554,1.029,3.346,1.8,5.441,2.245c-10.418,18.535-30.419,43.424-37.723,64.313
	c-0.308,0.888-0.572,1.742-0.792,2.573c2.297,3.265,4.95,6.624,7.483,9.761c-2.534-3.137-5.186-6.496-7.483-9.76
	c-3.679,13.878,4.364,20.591,2.554,32.883c-0.468,3.186-1.238,5.797-2.252,8.042c2.448,1.49,5.312,2.705,8.059,3.644
	c-2.747-0.938-5.611-2.153-8.059-3.644c-3.274,7.263-9.072,10.645-15.286,16.945c24.856,29.905-35.04,94.779-42.305,87.886
	c-2.865,5.563-7.009,11.28-11.923,16.138c1.011,0.451,2.125,0.808,3.303,1.094c-1.178-0.286-2.292-0.643-3.302-1.093
	c-3.037,3-6.37,5.673-9.875,7.775c3.255,11.832,7.994,24.59,16.04,32.565c1.739,1.724,3.631,3.224,5.698,4.443
	c-10.27,11.553-83.131-2.554-93.567,22.438c8.808,5.717,19.3,10.492,26.41,14.52c13.283,7.515,27.2,7.259,40.51,13.615
	c8.508,4.063,17.273,6.982,26.219,8.856c-8.946-1.874-17.711-4.792-26.219-8.855c-13.31-6.357-27.227-6.1-40.51-13.615
	c-7.109-4.027-17.602-8.803-26.41-14.52c-4.783,11.447,3.53,31.093,36.946,65.158c1.817,1.852,3.709,3.751,5.675,5.688
	c-5.159,5.36-42.446,56.651-47.263,62.443c5.199,15.074,23.488,53.356,35.162,59.941c-6.953,5.422-11.48,10.587-14.123,15.668
	c-7.095,13.621-0.699,26.654,8.667,42.503c3.446,5.833,7.296,12.044,11.023,18.81c-1.635,1.898-3.355,3.821-5.095,5.778
	c-13,14.641-26.934,31.216-12.792,54.028c-12.603,16.223-37.886,60.155-37.886,60.155l487.724,2.507v-244.54
	C496.677,1309.874,469.796,1300.531,467.669,1287.107z"/>
<g>
	<g>
		<g>
			<linearGradient id="SVGID_5_" gradientUnits="userSpaceOnUse" x1="1638.2813" y1="1340.6006" x2="1638.2813" y2="1348.0967">
				<stop  offset="0" style="stop-color:#375E7B"/>
				<stop  offset="1" style="stop-color:#1F3054"/>
			</linearGradient>
			<path fill="url(#SVGID_5_)" d="M1636.514,1340.601l-0.021,5.966c0.321,0.507,0.642,1.011,0.964,1.53
				C1643.744,1346.763,1636.742,1344.651,1636.514,1340.601z"/>
			<linearGradient id="SVGID_6_" gradientUnits="userSpaceOnUse" x1="703.7539" y1="739.6289" x2="703.7538" y2="1564.0347">
				<stop  offset="0" style="stop-color:#375E7B"/>
				<stop  offset="1" style="stop-color:#1F3054"/>
			</linearGradient>
			<path fill="url(#SVGID_6_)" d="M1515.881,1309.509c-11.146-9.973-20.771-19.418-29.767-33.548
				c-6.472-10.164-15.511-37.962-22.569-44.896c-19.348-19.014-50.402-21.952-75.227-29.332c-6.447-1.917-13.112-3.849-19.187-6.784
				c-8.189-3.961-6.104-5.118-10.04-11.367c-6.23-9.893-15.822-15.979-27.593-18.08c-14.984-2.676-31.361-4.613-44.717-12.026
				c3.133-1.239,7.104-2.035,10.612-3.195c-10.471-12.192-38.188-6.133-44.867-21.626c16.138-0.401,30.98-3.602,44.095-11.125
				c-3.386-4.941-9.201-7.534-13.04-11.823c11.62-0.855,21.146-4.095,32.091-7.23c5.92-1.697,12.285-1.87,17.896-4.946
				c2.648-1.452,5.309-5.53,8.048-7.025c-6.308-10.187-22.696-2.502-32.043-6.004c0.413-0.373,1.434-1.287,1.849-1.772
				c-6.021-1.132-11.367-3.825-16.746-6.396c-0.385-9.217,60.991-18.834,70.742-28.652c-11.552-0.646-22.876-3.709-33.92-4.226
				c-6.468-0.303-11.972,3.356-18.023,3.298c-5.121-0.051-7.339-3.126-12.119-5.22c16.125-14.2,56.604-8.291,66.714-28.05
				c-17.039-6.395-40.114-2.016-58.643-2.978c-8.355-0.434-15.538-2.913-23.961-4.052c-10.458-1.413-22.841-0.188-32.733-4.226
				c15.067-5.346,90.953-16.921,87.614-38.568c-5.956,0.528-12.578,3.081-18.071,3.063c-8.688-0.024-16.76-1.62-25.842,0.027
				c-7.06,1.28-51.805,7.79-34.71-6.999c5.181-4.479,18.237-5.517,24.774-7.523c6.773-2.082,13.353-4.47,19.977-7
				c12.511-4.781,27.325-7.269,35.772-18.571c-4.431-0.229-9.395,1.964-13.772,0.845c-4.67-1.192-6-4.456-10.251-6.745
				c-9.412-5.068-21.335-4.115-30.741-11.199c-2.971-2.236-3.697-6.144-6.965-7.066c-3.878-1.098-10.061,2.527-14.046,3.039
				c-7.979,1.021-13.714-1.344-20.974-3.271c-10.272-2.725-29.006-12.662-38.025-1.802c-2.405,2.896-0.926,6.421-2.959,8.996
				c-3.411,4.322-8.429,6.054-13.765,8.326c-7.129,3.035-14.75,6.233-22.168,7.896c5.476,6.872,32.67,5.337,42.613,5.056
				c-10.396,5.664-29.156,3.191-37.744,14.504c-11.946,15.733,27.979,13.805,36.965,15.443c-1.774,1.097-4.878,4.479-7.036,5.822
				c5.045,5.937,21.235,13.684,28.991,15.175c-7.022,16.181-67.23,7.182-82.74,7.98c1.133,5.012,5.035,4.338,7.892,7.877
				c2.058,2.55,2.462,6.013,3.953,7.995c5.568,7.4,14.086,6.612,20.144,11.947c-8.845,9.231-31.424,6.267-43.108,5.028
				c-13.218-1.398-21.15-7.751-22.833-21.826c11.287-5.709,22.693-12.11,33.742-17.896c-18.019-8.38-33.739-5.174-52.144-7.055
				c-9.567-0.979-17.806-4.767-11.723,6.776c3.947,7.489,10.647,9.744,16.063,14.974c-6.928,8.61-23.111-3.605-29.358-7.774
				c-7.745-5.167-7.944-3.214-5.46-11.995c0.573-2.027,8.043-18.534,10.183-18.269c-13.416-1.663-23.052-12.086-35.773-15.601
				c-14.163-3.91-29.25,2.531-43.484,4.889c-13.397,2.217-26.75,4.747-40.196,7.023c-13.451,2.279-29.495,1.377-41.942,5.729
				c2.745,2.298,5.472,5.769,4.766,9.876c-1.563,0.208-3.279,1.191-4.598,1.373c4.008,2.729,8.955,3.72,13.427,4.479
				c-0.584,0.808-1.269,1.529-1.824,2.319c12.373,10.373,54.641-2.082,62.263,11.945c-10.783,12.994-53.303,5.222-69.063,6.202
				c0.534,0.713,1.308,1.939,1.871,2.623c-26.226,3.102-52.729,7.697-78.863,12.4c2.441,8.83,21.458,9.38,29.21,12.803
				c10.238,4.521,7.813,6.8,12.459,15c6.744,11.905,15.068,7.245,26.067,8.754c5.438,0.747,19.091,7.749,21.067,13.1
				c-4.204,0.229-8.582,0.068-12.784,0.299c8.417,13.383-2.274,16.116-16.352,18.095c-9.908,1.392-20.881,4.342-30.294,1.994
				c-9.803-2.444-19.104-7.902-29.21-10.24c-10.055-2.326-24.845-1.123-33.316-7.648c1.186,3.228,3.234,6.135,5.737,8.668
				c-3.77,0.883-7.923,1.439-10.789,3.934c6.124,9.603,15.67,11.605,25.431,13.938c-1.827,0.872-3.335,2.118-4.669,3.565
				c-9.217,1.169-20.704-0.144-28.618-0.455c-7.692-0.304-12.338-3.281-19.224-4.801c-5.355-1.183-13.293,0.538-17.123-1.021
				c2.593,2.916,5.791,5.946,8.271,8.623c-9.841,0.642-8.964,7.415-18.918,9.249c-7.675,1.414-15.496-0.116-23.028,1.948
				c-10.104,2.771-7.604,5.828-6.958,16.023c0.425,6.698-1.969,11.302,5.811,15.146c0.031,3.2,1.308,3.609,3.571,3.75
				c-9.861,12.564-17.983,27.706-31.004,37.39c-3.198,2.38-17.137,11.755-21.253,8.408c-3.994-3.248,7.061-19.372,7.854-23.772
				c0.796-4.422-1.413-7.283-1.993-11.949c-0.208-1.671,1.802-6.309,1.821-6.215c-0.513-2.332-2.741-3.497-3.096-5.809
				c-1.583-10.308,3.95-14.418,5.517-23.974c1.645-10.035,1.777-17.479-10.092-18.151c0.964-6.384,5.903-12.063,6.868-19.123
				c0.747-5.46,0.106-11.974-0.174-17.427c-9.26,8.471-21.51,12.472-33.697,13.854c0.51,12.916-14.647,17.107-24.174,21.6
				c-3.833,1.807-9.126,0.868-8.997,6.249c0.107,4.477,5.188,5.774,8.895,6.223c-6.881,7.754-25.093,11.121-34.992,12.802
				c-6.927,1.175-9.759-0.124-12.105,6.754c-1.83,5.366-1.708,9.118,6.14,8.418c-6.104,4.836-10.086,3.871-11.789,12.604
				c8.387,5.504,24.902,4.36,30.987,11.203c-7.084,7.302-24.081,14.16-33.894,18.021c-7.742,3.044-33.094,4.879-36.379,10.799
				c-5.65,0.378-42.989,3.715-22.197,10.433c-18.822,12.876-44.765,7.84-64.392,17.522c8.565,2.84,17.704,4.379,26.619,5.394
				c0.158,19.73,46.927,1.827,59.001,8.003c-6.043,19.552-45.189,20.746-60.672,23.074c-10.084,1.516-18.854,4.272-28.977,3.752
				c-6.567-0.338-13.605-3.055-19.071,2.248c2.408,2.631,6.095,5.001,7.563,7.807c-15.906,7.037-32.449,13.152-48.638,19.164
				c7.64,8.017,18.048,5.193,27.766,7.936c-0.478,6.996-9.429,9.956-14.965,11.588c-3.379,0.996-7.485,1.955-11.033,1.824
				c-3.259-0.12-7.164-3.327-9.695-2.414c1.3,11.683-12.274,13.621-17.899,6.843c-6.72-8.097-1.437-21.609-7-30.688
				c-1.672,5.787-6.529,15.809-13.322,10.017c0.306,3.354-1.416,3.756-1.932,5.774c-16.321-9.854,1.76-28.564,3-41.346
				c1.654-17.063,0.95-34.52-0.196-51.449c-2.528,5.622-6.396,11.829-12.626,12.569c-1.069-11.812,3.27-25.095,3.826-37.095
				c0.638-13.778,0.032-27.488-2.151-40.646c-10.625,1.988-7.998,21.553-18.649,26.77c-0.306-0.952-0.072-1.793-0.347-2.749
				c-6.196,0.41-8.801,9.038-14.64,11.739c4.197-1.941-5.081-17.797-6.104-18.893c-3.208-3.433-6.394-0.465-8.25-6.93
				c-3.311-11.541,9.094-23.824,12.138-34.069c2.528-8.508,1.729-8.448,9.007-14.223c7.921-6.284,22.117-19.002,25.87-27.606
				c-9.893-2.85-29.458-4.378-39.593-3.123c6.492-2.478,13.307-3.602,19.641-6.324c-1.502-0.269-4.939-2.383-6.817-2.699
				c3.513-4.162,9.513-7.138,14.04-10.05c-6.673-4.846-32.731-3.735-40.968-2.801c-2.576,4.612-22.898,4.481-28.875,4.778
				c0.638,0.549,1.861,0.865,2.628,1.271c-4.352,4.104-17.046,1.571-23.772,2.929c0.535,13.399,31.435,11.662,39.769,15.825
				c-6.921,8.555-21.814,5.47-31.844,6.227c3.616,3.088,8.987,5.424,11.817,9.598c-7.417,0.722-29.49-0.351-28.726-10.63
				c0.563-0.105,1.124-0.229,1.682-0.364c-0.463-0.612-1.177-2.729-1.972-3.78c2.857-3.339,7.665-3.304,11.043-5.83
				c-7.701-1.565-19.317-10.453-25.295-6.325c-3.544,2.446-6.85,14.106-9.997,18.046c-7.152,8.952-19.808,18.009-22.979,0.915
				c-3.225-17.382,5.191-35.249,4.173-52.656c-3.524-1.159-9.866-9.664-11.071-11.878c-4.987-9.152-1.084-7.819,1.297-17.297
				c1.241-4.938,0.947-17.536,0.222-21.776c-0.827-4.842,0.034-3.342-3.274-8.027c-2.69-3.811-6.868-3.52-8.071-9.247
				c-0.748-3.56,2.071-14.884,2.071-19.948c0-7.854-0.629-15.53,1.751-23.02c2.262-7.118,5.726-9.5,2.998-17.98
				c-1.916-5.956-4.51-15.844-8.003-20.853c-12.465,2.281-8.168-19.896-11.774-27.898c-3.625-8.044-5.833-13.259-5.749-22.029
				c0.037-3.884,1.364-7.817,0.575-11.996c-0.732-3.873-4.899-8.396-4.846-12.224c0.081-5.673,5.062-8.621,6.097-14
				c1.011-5.256-1.069-11.249-2.274-16c-2.79-10.995-4.54-22.152-7.945-32.875c-8.005,1.52-7.238,14.423-9.555,20.928
				c-5.28,14.817-5.426,24.902-5.274,40.7c0.119,12.36-4.214,23.894-4,36.247c0.135,7.793-2.354,17.682-0.155,23.829
				c-13.097,2.393-7.274,14.851-2.894,24.171c2.614,5.563,8.548,8.744,6.897,15.774c-0.412,1.754-5.632,2.904-6.697,4.451
				c-1.346,1.956,0.387,5.003-1.08,7.049c-4.266,5.949-6.701,4.438-7.071,12.674c-0.237,5.271,3.762,10.588,3.016,15.078
				c-0.878,5.284-6.222,5.021-6.068,11.974c0.12,5.43,4.658,10.202,4.897,15.85c-16.028-2.663-3.515,39.747-2.793,47.175
				c0.939,9.675-0.074,16.865,3.197,26.973c1.116,3.447,3.601,7.376,4.029,11.004c0.774,6.57-0.704,5.349-2.527,10.774
				c-4.401,13.102,8.062,31.24,2.252,43.229c-3.087,6.372-10.944,8.514-13.055,14.994c-2.329,7.154-1.313,15.146-4.245,21.981
				c-0.736-0.113-1.032-0.862-1.851-0.97c-6.311,6.759-5.779,17.576-12.603,23.836c-2.795-3.835-2.302-8.192-2.248-12.846
				c0.021-1.767,2.149-5.718,1.79-7c-0.952-3.405-3.381-2.677-4.793-5.199c-5.664-10.121-3.206-16.868,2.706-27.071
				c5.583-9.636,9.911-10.298,5.02-21.004c-1.402-3.067-1.087-3.81-4.698-7.974c-3.047-3.516-6.519-4.442-6.851-9.582
				c8.797-3.582,10.298-14.355,9.087-22.394c-1.407-9.342-6.828-16.112-9.042-25.801c-2.895-12.662,12.583-45.722-2.223-56.073
				c-1.112,0.921-3.066,1.424-3.826,1.969c-1.078-18.671-2.549-36.311-7.896-53.872c-5.053-16.596,0.368-36.78-7.306-53.646
				c-1.388,7.598-5.458,13.502-8.223,20.646c-3.744,9.675-1.674,16.058-0.752,26.053c0.731,7.925,3.873,36.769-6.646,35.122
				c4.508,5.813,0.852,8.822,0.404,14.825c-0.419,5.618,2.58,11.093,2.297,15.948c-0.387,6.653-4.662,9.209-5.075,16.052
				c-0.317,5.245,2.625,12.706,3.872,17.802c-3.818,2.031-5.049,3.231-3.948,6.974c-1.672,0.169-3.097,1.19-4.772,1.399
				c0.679,2.159,3.546,6.398,3.673,8.773c0.208,3.91-2.121,7.97-1.82,11.025c0.728,7.402,7.408,11.906,3.765,19.774
				c-1.17,2.526-5.91,2.655-6.817,5.151c-1.805,4.964,3.059,8.387,3.872,12.322c0.704,3.41-0.418,5.599-0.02,8.829
				c0.28,2.271,2.132,6.056,2.464,8.193c0.788,5.069-1.728,12.104-2.493,16.506c-0.599,3.442-2.232,5.104-1.998,9.248
				c0.234,4.132,3.23,6.638,3.02,11c-1.777,36.816-50.258,41.568-77.669,40.125c7.439,39.807-40.495,46.775,11.874,83.396
				c-15.976,28.015-31.773,15.551-55.602,23.922c-31.859,11.191-35.904,26.575-52.876,52.078l8,232.012l1712.827-10.397
				l0.666-194.067C1549.476,1335.863,1535.473,1327.042,1515.881,1309.509z"/>
		</g>
	</g>
</g>
</svg>
