<?xml version="1.0" encoding="utf-8"?>
<!-- Generator: Adobe Illustrator 16.0.0, SVG Export Plug-In . SVG Version: 6.00 Build 0)  -->
<!DOCTYPE svg PUBLIC "-//W3C//DTD SVG 1.1//EN" "http://www.w3.org/Graphics/SVG/1.1/DTD/svg11.dtd">
<svg version="1.1" id="Layer_1" xmlns="http://www.w3.org/2000/svg" xmlns:xlink="http://www.w3.org/1999/xlink" x="0px" y="0px"
	 width="1400px" height="1554.414px" viewBox="0 0 1400 1554.414" enable-background="new 0 0 1400 1554.414" xml:space="preserve">
<g>
	<g>
		<g>
			<g>
				<linearGradient id="SVGID_1_" gradientUnits="userSpaceOnUse" x1="1055.2305" y1="297.2417" x2="1055.2305" y2="295.7051">
					<stop  offset="0" style="stop-color:#160A2B"/>
					<stop  offset="1" style="stop-color:#131B52"/>
				</linearGradient>
				<path fill="url(#SVGID_1_)" d="M1055.462,297.242c-0.142-0.505-0.293-1.017-0.464-1.537
					C1055.145,296.221,1055.302,296.731,1055.462,297.242z"/>
			</g>
			<g>
				<linearGradient id="SVGID_2_" gradientUnits="userSpaceOnUse" x1="718.748" y1="1554.4141" x2="718.748" y2="24.5635">
					<stop  offset="0" style="stop-color:#160A2B"/>
					<stop  offset="1" style="stop-color:#131B52"/>
				</linearGradient>
				<path fill="url(#SVGID_2_)" d="M1507.361,721.44c-30.662-32.981-61.901,27.851-88.843,43.36
					c-15.194-21.321-24.708-75.491-27.96-104.437c-23.691,1.411-30.32,31.997-48.844,40.388
					c3.723-61.649-10.884-118.728-12.222-180.024c-56.493,76.612-53.725-108.22-52.679-138.81
					c-11.8,6.921-22.35,16.646-36.013,24.36c-0.621-61.879-13.955-118.917-23.345-180.042
					c-2.963-19.291-11.018-37.073-18.588-54.886c-3.811-8.96-7.544-17.944-10.526-27.221c-1.173-3.645-3.894-9.108-3.96-12.893
					c-0.075-4.316,3.195-7.731,2.792-12.051c-2.586-2.119-3.902-3.425-5.66-6.3c-17.302,0.536-4.901-6.343-2.43-12.539
					c2.741-6.881-2.208-15.444-10.799-17.286c3.867-11.44-3.271-22.032-5.158-33.379c-1.466-8.817-0.488-16.837-3.131-25.118
					c-13.838,12.486-9.451,53.904-9.481,71.526c-0.031,17.813,4.314,40.618-5.89,55.91c-6.472-7.639-5.464-29.527-6.773-39.542
					c-0.263-2.014,1.087-6.32,0.26-8.021c-1.613-3.321-6.598-4.82-8.948-8.25c-2.772-4.044-2.164-9.666-5.822-13.414
					c-1.484,12.203-3.183,22.909-2.001,34.801c1.785,17.967-3.977,35.947,1.095,52.169c9.043,28.974-1.111,56.681-1.274,86.041
					c-0.069,12.592,6.751,25.742-2.638,36.614c0.817-9.155-3.451-15.82-5.167-24.998c-1.837-9.818-0.679-18.982-3.104-28.25
					c-5.303-20.275-13.965-44.915-13.979-65.658c-1.836-0.014-6.091,1.004-7.792,1.652c-0.859,21.037,7.841,41.085,5.45,63.063
					c-5.312,0.582-10.609-0.889-15.43-2.72c5.747,2.961,1.837,9.273,2.944,14.271c1.307,5.903,6.713,11.164,8.372,17.181
					c2.459,8.926-1.526,8.544-3.803,16.074c-2.305,7.619,0.455,11.673,3.006,19.204c4.082,12.037,6.569,24.166,6.55,36.851
					c-0.02,12.303,2.909,28.879-3.97,40.279c-5.704-4.821-3.687-16.107-6.795-23.128c-9.668-1.501-16.983-24.403-19.405-33.268
					c-2.442-8.934-7.146-16.817-9.942-25.708c3.681,13.121-2.234,21.044-4.234,33.984c-1.502,9.712,2.298,20.372,2.301,30.059
					c-8.959,1.798-12.869-10.274-16.859-15.663c1.086,17.63,8.155,34.85,8.126,52.418c-0.025,12.511-12.283,54.535,4.677,59.668
					c-2.862,32.899,0.403,66.494-1.305,99.568c-0.878,16.992-2.131,34.402-6.499,50.911c-1.655,6.254-3.572,12.937-7.118,18.428
					c-0.653,1.013-9.827,10.293-9.901,9.691c-5.412-43.814-10.728-87.754-12.636-131.818c-0.111-2.588,0.411-7.484-0.26-10.031
					c-1.479-5.604-2.837-4.222-5.563-8.549c-4.272-6.782-6.468-12.089-5.92-21.079c0.227-3.737,1.759-6.278,1.807-9.924
					c0.064-4.729-5.298-4.067-1.165-9.347c-10.98-5.93-14.063-12.797-13.406-24.45c0.71-12.571-2.005-24.065-3.123-36.461
					c-2.351-26.094-4.697-52.351-7.2-78.145c-18.57,32.283-15.293,71.82-15.63,109.156c-3.028-4.63-4.111-13.194-4.969-19.035
					c-7.092-1.673-10.04-18.145-10.817-24.655c-4.902,11.269-4.58,30.894-6.853,43.84c-2.769,15.774-2.488,33.704-0.941,49.333
					c2.159,21.823,1.731,43.698,3.595,65.517c1.04,12.197,4.943,15.867,8.865,26.968c2.593,7.34,1.365,16.112-0.247,23.77
					c-1.676,7.956-4.243,8.542-8.112,15.598c-6.042,11.016,3.039,19.705,3.795,30.432c0.751,10.667-5.269,21.151-4.791,32.356
					c0.376,8.844,4.114,16.543,3.741,25.424c-0.773,18.417-1.662,36.275-7.972,53.632c-9.112-8.142-4.414-26.657-5.848-38.046
					c-1.447-11.508-3.883-22.543-5.004-34.577c-1.175-12.635-7.982-23.045-9.429-35.486c-1.31-11.277-6.264-27.214-5.21-38.216
					c-2.073,1.165-5.759,3.119-7.132,3.93c3.431,10.851,1.607,37.363-3.416,48.493c-2.402,5.324-7.421,7.142-9.684,12.534
					c-1.888,4.522,0.327,8.469-2.619,12.072c-1.986,2.429-7.667,1.135-10.138,4.789c-3.241,4.791,1.962,18.001-6.929,19.406
					c9.965,12.298,3.267,9.599-4.955,19.766c-7.082,8.758,1.14,10.491,2.804,19.874c1.719,9.688-3.763,20.622-4.614,30.15
					c-0.92,10.317,2.228,28.946-7.813,35.021c-2.951-5.295-0.815-11.503-3.109-16.857c-3.443-8.034-5.325-4.133-12.486-8.911
					c2.666-5.375-0.58-9.879-0.323-15.505c0.296-6.456,4.385-10.006,4.854-16.048c0.706-9.095-5.323-21.703-6.373-32.174
					c-0.839-8.355,1.603-15.155,2.234-23.388c0.727-9.459-2.293-18.604-3.334-27.964c-1.533-13.77-2.071-28.554-3.834-41.164
					c-7.438,13.109-9.455,33.73-12.782,48.346c-2.929,12.87-0.416,22.656-7.734,34.404c-4.119,6.614-11.089,13.23-14.387,20.036
					c-3.54,7.307-4.392,18.812-5.13,27.237c-0.625,7.133,1.821,20.346-4.293,24.956c-5.842-9.547-3.303-33.569-2.666-45.317
					c0.887-16.349-7.08-32.491-7.677-49.156c-5.522,6.753-3.673,13.548-4.857,21.421c-1.353,8.991-5.014,17.695-5.442,26.807
					c-0.337,7.163,2.28,38.445-8.27,32.164c-4.099-2.44-6.545-13.354-7.917-17.501c-5.958-18.013-8.875-37.15-11.74-55.846
					c-5.332-34.795-5.709-72.524-15.909-106.342c-3.927,5.915-16.207,11-19.073,14.111c-4.623-15.655-10.059-31.148-11.274-46.922
					c-0.917,8.961-7.105,20.305-9.355,30.029c-23.368-13.206-22.805-81.58-21.708-107.763c-0.365,0.461-4.136,8.857-4.363,9.424
					c-11.173-14.416-10.826-37.299-17.542-52.377c-5.336-1.389-3.409,5.862-5.385,7.933c-1.745-3.323-4.852-9.531-9.63-11.716
					c-12.162,44.649,1.801,147.615-29.124,177.896c-8.532-37.948-13.149-100.336-33.314-132.26
					c4.632,7.335-6.807,46.94-13.324,50.951c-4.202-13.415-2.929-30.457-3.349-44.532c-0.286-9.542-0.723-15.569-3.457-24.239
					c-2.835-8.991-5.343-20.165-3.744-30.201c1.455-9.134,3.612-13.506,2.208-22.92c-1.214-8.134-0.229-14.521,0.188-23.021
					c0.9-18.352,1.457-40.135-1.992-57.854c-3.534,6.06-8.949,11.389-11.245,18.115c-2.435,7.13-2.177,16.4-3.717,23.862
					c-2.467,11.967-0.805,24.658-5.969,36.031c-1.342-8.521-6.182-15.792-7.78-24.123c-2.539-13.246-0.522-28.708-1.479-42.271
					c-2.021-28.612-5.928-57.054-8.012-85.66c-14.445,21.451-17.419,45.998-18.784,71.795c-1.162,21.954,3.674,45.982-3.646,67.731
					c-1.285,0.102-2.403,0.016-3.681-0.119c-2.375-13.449-5.958-26.506-7.886-40.181c-2.01-14.266,1.125-28.256-0.264-42.342
					c-1.202-12.193,0.418-27.958-3.703-39.172c-5.453-14.839-9.516-31.822-14.847-47.877c-3.626-10.92-4.771-22.646-9.258-33.171
					c-19.142,16.872-5.084,48.175-16.408,68.939c-7.305,13.394-5.143,23.521-5.202,38.784c-0.04,10.177-2.321,20.259-3.185,30.384
					c-1.548-18.539-8.493-39.252-21.363-50.547c-4.096,8.397-4.076,22.527-5.844,31.838c-3.189,16.796,1.838,32.708,0.176,49.875
					c-0.71,7.328-3.425,15.237-2.749,22.616c0.649,7.081,4.509,13.204,4.759,20.77c0.304,9.237,1.329,27.313-5.532,33.431
					c-1.454-17.92-8.881-36.955-9.479-54.43c-0.443-12.949-2.368-25.286-8.098-36.654c-13.181,17.622-6.665,45.303-13.562,65.417
					c-8.782-2.368-4.596-19.035-4.67-26.367c-0.106-10.532-6.686,4.688-14.768-0.566c-16.471-10.708-35.148-7.39-26.998,1.584
					c-2.708,3.474-7.796,3.936-12.217,4.574c-0.872,7.471,1.611,14.52,0.75,21.694c-0.966,8.061-0.197,10.233,4.131,18.433
					c-8.967,11.036,9.094,42.099-5.413,49.008c-9.48,4.515-12.769-37.148-14.671-45.032c-1.717-7.116-5.084-14.038-5.175-21.299
					c-0.094-7.576,1.397-10.736-1.055-18.035c-3.647-10.859-10.365-19.912-11.401-31.67c-0.724-8.232,1.413-12.655-7.994-16.334
					c-0.458,8.617,1.679,17.16,0.731,25.989c-0.692,6.455,3.392,13.977,1.843,19.098c-2.038,6.732-10.728,6.175-15.358,9.471
					c-9.536,6.788-2.998,5.908,0.268,15.565c1.931,5.704-0.75,13.04-0.313,19.208c0.956,13.522,0.699,22.06-1.625,35.837
					c-2.829,16.762,1.926,32.453-4.485,48.98c-2.875,7.413-5.369,12.883-8.351,2.33c-1.602-5.67-1.038-13.792-2.229-19.871
					c-1.48-7.56-0.451-12.021,1.072-18.847c-4.748-1.265-11.869-4.906-14.34-8.731c6.2-1.62,3.264-9.565,9.709-12.655
					c-2.825-2.597-8.21-2.78-10.73-6.344c1.399-0.802,2.137-2.191,2.996-2.873c-3.524-2.034-6.9-5.057-8.358-8.666
					c12.009-6.255-5.12-30.09-7.448-38.407c-4.978-17.789-0.869-38.658-5.004-56.281c-4.767,5.764-11.496,16.882-13.097,24.328
					c-2.218,10.323,3.436,20.693,2.274,30.952c-2.963-0.357-5.057,0.972-7.829,0.896c2.614,4.331,7.201,9.67,12.259,11.729
					c-5.991,5.631-11.695,5.278-10.784,16.462c0.881,10.812,13.081,18.684-4.875,19.7c-1.994,18.61-4.017,36.912-6.025,55.617
					c-1.697,15.804,0.416,33.615-6.731,47.625c-5.948-6.816-3.32-18.011-4.3-26.19c-1.247-10.392-5.407-20.674-5.485-31.297
					c-0.06-8.328,0.574-15.893-0.55-23.79c-3.136-22.004-7.646-45.19-6.897-67.569c-12.443-4.316-9.177,28.741-10.689,36.393
					c-1.71,8.66-5.732,16.314-6.396,25.882c-1.939,27.981-4.825,54.077-12.403,81.16c-6.983-7.714-6.103-20.738-7.23-30.625
					c-1.027-9.015-3.027-15.303-5.555-23.825c-2.363-7.961-0.563-13.267-4.144-21.546c-2.979-6.89-5.455-11.785-5.899-19.947
					c-2.602,6.901-9.705,10.472-11.973,17.132c-2.93,8.622-1.876,18.049-4.782,26.968c-2.972,9.123-7.229,17.022-6.943,27.041
					c0.589,20.716,2.666,38.881-0.38,60.426c-2.847,20.13-3.306,40.883-4.338,61.355c-0.927,18.383-6.899,30.569-15.618,46.461
					c0.09-18.044-11.489-33.763-17.604-50.052c-3.859-10.285-15.333-59.93-24.601-56.024c-10.901,4.593-74.25,44.625-74.564,53.326
					c-0.466,12.963-2.823,924.453-0.882,924.707c0.016,0.002,1583.168-0.455,1583.168-0.455l-2.411-844.075
					C1508.102,713.704,1508.556,717.542,1507.361,721.44z"/>
			</g>
		</g>
	</g>
</g>
</svg>
