<?xml version="1.0" encoding="utf-8"?>
<!-- Generator: Adobe Illustrator 16.0.0, SVG Export Plug-In . SVG Version: 6.00 Build 0)  -->
<!DOCTYPE svg PUBLIC "-//W3C//DTD SVG 1.1//EN" "http://www.w3.org/Graphics/SVG/1.1/DTD/svg11.dtd">
<svg version="1.1" id="Layer_1" xmlns="http://www.w3.org/2000/svg" xmlns:xlink="http://www.w3.org/1999/xlink" x="0px" y="0px"
	 width="1400px" height="1612.471px" viewBox="0 0 1400 1612.471" enable-background="new 0 0 1400 1612.471" xml:space="preserve">
<linearGradient id="SVGID_1_" gradientUnits="userSpaceOnUse" x1="805.1016" y1="1260.2783" x2="805.1015" y2="554.8916" gradientTransform="matrix(1 0 0 -1 0 1613.4707)">
	<stop  offset="0" style="stop-color:#3B6A8D"/>
	<stop  offset="0.114" style="stop-color:#366387"/>
	<stop  offset="0.6812" style="stop-color:#1F446D"/>
	<stop  offset="1" style="stop-color:#163963"/>
</linearGradient>
<path fill="url(#SVGID_1_)" d="M1273.049,784.879c-0.078-13.251,4.462-23.968,6.069-35.875c2.04-15.112-0.065-28.279-6.165-41.182
	c-7.396-15.646-12.077-35.46-23.154-49.042c-8.705-10.673-14.907-16.186-18.668-29.858c-3.227-11.729-4.982-24.707-9.755-36.003
	c-9.646-22.834-23.888-39.804-13.667-66.076c3.26-8.378,5.75-6.961,3.07-15.669c-1.402-4.557-8.453-8.918-9.204-11.932
	c-1.653-6.645,3.169-8.17,2.681-14.266c-0.426-5.319-5.03-12.946-6.962-18.07c-7.604-20.158-20.088-37.324-29.256-57.006
	c-2.702-5.805-4.478-12.551-8.927-17.479c-2.445-2.71-8.328-3.083-11.408-7.191c-4.844-6.458-7.248-24.001-7.269-32.037
	c-5.271,4.096-13.614,2.695-20.335,3.369c-8.771,0.88-17.771,3.883-26.629,5.846c0.187,19.293-18.919,32.638-36.443,32.491
	c-14.523-0.122-16.608-1.522-21.002,12.001c-3.229,9.932-4.232,16.554-5.849,27.002c-1.888,12.224-6.742,14.268-3.893,27.083
	c2.574,11.571,4.411,18.098,1.475,29.923c-2.646,10.653-6.43,18.946-6.736,30.003c-0.214,7.604,2.632,20.094,0.146,27.146
	c-2.607,7.4-12.405,10.346-16.037,17.121c-2.92,5.449-4.54,18.602-5.265,24.584c-2.22,18.337,0.103,38.646,0.153,57.16
	c0.03,10.971-1.703,15.47-5.332,24.67c-3.611,9.159-2.523,16.933-3.515,27.003c-1.966,20.022-9.512,37.989-9.001,58.435
	c-7.283-13.014-3.193-24.167-6.012-38.1c-2.837-14.028-11.256-23.513-9.3-39.004c2.352-18.618,13.354-61.181-14.324-66.529
	c-0.377-4.555-0.717-9.434-0.978-14.023c-21.424-2.927-16.384-2.479-23.464-21.611c-3.199-8.652-14.643-17.256-15.002-25.871
	c-5.534,8.383-8.429,25.271-9.087,35.027c-0.8,11.871-3.122,22.161-5.836,33.014c-3.227,12.908-6.285,22.307-6.165,35.993
	c0.088,9.935-0.747,23.229-14.559,21.445c-4.104,11.104,9.696,22.748-8.862,27.142c-0.415,1.652-0.803,3.313-1.164,4.979
	c-10.858-2.166-12.328-3.075-14.408,9.455c-1.396,8.405,0.338,17.539,2.252,24.729c4.727,17.729-2.118,32.071-8.932,50.27
	c-6.711,17.932-15.874,32.477-21.07,51.006c-6.236,22.237-3.818,49.189-4.329,72.016c-0.369,16.512-0.591,33.027-0.738,49.543
	c-0.104,11.604,4.561,34.223-1.949,43.973c-1.868,2.798-5.257,0.634-7.522,4.231c-1.976,3.138-1.039,7.513-1.223,11.023
	c-0.867,16.621,6.729,30.817-1.726,46.223c-4.073,7.42-9.226,11.596-11.274,19.777c-2.372,9.474-4.659,21.114-2.777,30.777
	c3.871,19.883,8.193,37.689,1.801,57.12c-6.453-5.182-12.512-17.014-16.798-3.672c-3.813,11.87,2.26,30.458,2.798,42.746
	c0.689,15.753-1.586,26.454-6.801,41.028c-3.117,8.712-0.756,29.044-14.071,28.846c-0.851-9.473-2.562-18.514-4.397-27.846
	c-1.48-7.53-0.456-15.518-1.979-22.996c-2.763-13.562-10.515-25.457-17.517-6.736c-2.575,6.887-1.496,22.583-12.007,17.478
	c-9.854-4.786-10.717-33.199-14.028-42.542c-2.212-6.241-6.568-9.242-9.219-14.104c-4.737-8.685-1.788-14.882-0.227-24.325
	c2.992-18.1-2.987-32.751-7.025-49.974c-3.657-15.6,6.462-35.989,0.045-49.797c-6.928-14.905-15.947,1.247-27.023-1.158
	c-18.056-3.922-10.317-24.243-12.993-36.798c-1.777-8.338-1.008-20.524-4.487-28.096c-1.948-4.239-7.078-7.168-8.295-11.462
	c-0.901-3.18,0.813-11.812,0.571-15.878c-0.649-10.916-1.457-22.065-4.178-32.695c-5.263-20.563-7.063-41.653-12.684-63.317
	c-13.948-2.284-15.986-18.148-19.21-28.697c-3.432-11.229-11.511-21.896-15.096-32.901c-8.578-26.337-10.589-59.197-13.794-86.776
	c-9.395,8.089,1.054,33.611-7.228,46.378c-3.514-9.713-9.417-19.693-11.896-29.317c0.006,7.708-14.096,10.944-20.271,6.018
	c-6.364-5.077-3.788-16.048-3.715-23.396c0.161-16.166,2.634-35.534-0.904-51.107c-3.304-14.548-15.096-27.214-20.19-40.687
	c-5.18-13.683-2.97-30.35-10.903-42.997c-7.302,11.661-7.127,33.178-8,46.601c-1.346,20.688-0.48,42.254,0.207,62.98
	c-6.59-19.253-27.212-37.033-24.797-58.199c-2.986,0.543-7.83-1.719-10.818-1.182c-1.615-12.923,0.53-26.334-0.604-39.41
	c-1.201-13.844-7.849-23.066-11.975-36.207c-4.632-14.752,0.069-13.999,5.068-27.587c5.286-14.364,1.932-17.705-3.986-29.21
	c-3.646-7.09-8.302-5.382-9.382-15.01c-0.742-6.616,6.159-12.325,4.464-20.192c-2.347-10.895-16.558-14.045-20.371-23.601
	c-2.214-5.547,1.44-14.335,0.285-20.285c-1.013-5.217-4.087-7.265-5.188-11.701c-2.965-11.933-1.977-23.347-3.494-35.616
	c-19.272,2.325-11.285-19.507-26.633-21.352c-0.578-2.165-1.064-4.35-1.459-6.555c-28.586-11.423-19.42,51.862-19.317,67.316
	c0.12,18.056-7.102,17.772-12.192,31.81c-3.858,10.646-0.548,28.774-2.918,40.19c-5.032,24.255-2.355,52.181-9.004,75.887
	c-6.881,24.55-17.103,50.321-7.886,76.113l-3.479,963.835h949.35V989.514h-0.464C1277.892,933.93,1273.161,803.921,1273.049,784.879
	z"/>
</svg>
