<?xml version="1.0" encoding="utf-8"?>
<!-- Generator: Adobe Illustrator 16.0.0, SVG Export Plug-In . SVG Version: 6.00 Build 0)  -->
<!DOCTYPE svg PUBLIC "-//W3C//DTD SVG 1.1//EN" "http://www.w3.org/Graphics/SVG/1.1/DTD/svg11.dtd">
<svg version="1.1" id="Layer_1" xmlns="http://www.w3.org/2000/svg" xmlns:xlink="http://www.w3.org/1999/xlink" x="0px" y="0px"
	 width="1400px" height="1612.471px" viewBox="0 0 1400 1612.471" enable-background="new 0 0 1400 1612.471" xml:space="preserve">
<linearGradient id="SVGID_1_" gradientUnits="userSpaceOnUse" x1="694.4478" y1="4.9941" x2="694.4477" y2="1075.6073">
	<stop  offset="0" style="stop-color:#4B85A2"/>
	<stop  offset="0.381" style="stop-color:#366588"/>
	<stop  offset="0.7681" style="stop-color:#244C72"/>
	<stop  offset="1" style="stop-color:#1E426A"/>
</linearGradient>
<path fill="url(#SVGID_1_)" d="M1470.502,79.587c-5-11.298-16.938-15.097-27.646-17.334c-13.516-2.824-24.006-7.841-34.666-17.02
	c-9.508-8.187-16.663-17.775-26.72-25.127c-8.243-6.026-26.278-18.303-36.753-14.339c-1.517,12.069-0.046,22.397,3.49,32.876
	c3.968,11.759,3.795,23.993-1.13,34.887c-1.929,4.265-6.58,10.125-7.073,14.78c-0.71,6.731,3.953,9.508,6.107,15.216
	c2.537,6.726,8.51,25.891,6.539,32.434c-9.503,3.781-25.707-23.382-33.582-27.797c-0.453,5.523-1.268,8.112-3.111,12.798
	c-1.422,3.613-6.553,8.444-5.574,12.712c0.924,4.029,7.129,5.784,8.301,11.34c1.027,4.86-0.726,10.446-0.151,15.379
	c0.889,7.632,7.829,18.882,2.888,26.648c-4.887,7.68-26.168,16.874-34.592,18.813c-0.885-6.968-4.922-20.407-8.428-26.094
	c-7.146-11.6-6.736-2.034-16.029,1.886c-4.559,1.923-11.702,1.901-16.641,3.159c-7.763,1.979-15.396,0.864-23.389,1.968
	c0.485,12.165-9.712,18.084-15.877,27.595c-6.868,10.595-3.25,21.95-14.918,28.849c-4.898,2.895-14.882,4.69-18.386,9.208
	c-4.927,6.353-0.409,7.86,1.274,14.563c2.039,8.128,1.234,20.159,0.422,28.612c-0.45,4.663-3.791,11.53-0.787,15.211
	c-5.153,1.497-10.312,7.173-14.229,10.803c-6.375,5.907-12.653,10.208-19.354,15.371c-7.875,6.067-15.072,17.784-25.387,19.349
	c-2.653-19.49-3.72-39.262-7.238-58.485c-2.952,2.585-0.456,6.25-2.104,10.245c-1.796,4.357-6.495,8.628-8.734,13.078
	c-4.442,8.825-2.649,16.377-4.077,26.283c-3.936,1.306-15.13,5.118-17.426,8.514c-3.53,5.23,1.273,17.35,0.623,24.58
	c-0.687,7.639-2.704,16.997-1.647,24.497c0.847,6.024,3.717,11.484,4.118,17.963c0.813,13.144-1.391,26.202-1.391,39.323
	c0,20.845,1.605,40.366,2.25,60.413c-2.525-6.835-7.618-12.917-10.354-19.513c-3.716-8.952-5.496-12.353-15.125-7.809
	c-0.739,5.121,1.435,29.394-6.916,26.656c1.387,10.749-6.413,17.07-6.383,27.435c0.03,11.504,3.364,22.706,1.87,34.616
	c-11.655,0.765-8.175,2.737-15.235,10.799c-4.868,5.561-12.437,7.066-18.774,9.098c-17.861,5.724-25.065,22.38-25.331,40.263
	c-0.109,7.543,0.941,15.5-7.855,17.759c-9.114,2.341-17.615-5.843-27.155-4.428c0.54,8.04,7.211,18.052,9.448,25.884
	c2.422,8.489,4.172,16.231,2.979,25.916c-1.501,0.625-2.829,0.549-4.313-0.038c-1.151-5.029-6.37-9.99-11.303-10.989
	c-0.819,7.499,1.997,13.212,1.141,20.854c-1.138-0.134-2.99,0.692-4.038,0.521c3.873,8.136,15.154,11.577,16.984,20.736
	c-7.366,2.962-16.449-12.117-25.386-10.955c-0.51,6.703,16.983,15.895,21.922,19.785c7.28,5.736,16.343,12.484,16.37,22.948
	c0.027,9.854-8.561,12.999-17.11,12.813c-9.013-0.194-17.097-5.349-25.741-6.035c-7.883-0.624-12.385,5.392-19.21,8.829
	c-16.934,8.532-32.932-4.839-49.519,1.412c-7.596,2.862-9.343,13.866-16.641,18.146c-8.833,5.179-10.442,2.913-12.884-7.079
	c-1.536-6.286-7.667-46.636-19.832-29.612c0.23,13.684-2.468,26.149-1.993,39.745c-3.663-4.063-8.641-10.758-9.11-16.396
	c-16.778-1.866-10.307,45.181-10.307,56.425c0,20.589,0.244,40.851-2.471,60.776c-5.442,1.13-6.555-4.084-10.883-5.813
	c-3.563-1.423-8.31-0.252-12.081-0.767c0.469-5.147-4.592-15.008-8.424-18.596c-1.034,7.129-6.896,10.923-11.312,15.965
	c1.066-4.05-0.655-7.5-4.245-9.358c-3.674,9.133-10.217,18.09-12.391,27.58c-2.041,8.911,0.385,18.976-0.753,28.021
	c-5.143,1.154-9.829,0.224-14.221-2.337c-1.67-0.974-2.492-3.568-4.188-4.467c-2.36-1.251-4.555-0.907-7.021-2.075
	c-7.611-3.607-13.904-16.226-21.093-17.334c0-5.248-3.204-13.116-7.271-16.787c-4.19,0.388-6.511,12.87-8.107,17.274
	c-2.699,7.446-4.515,8.204-10.734,12.974c-1.386,1.063-2.513,2.294-3.539,3.581c-7.326-15.771-14.616-33.357-24.728-46.46
	c-5.342-6.923-11.802-8.866-18.381-6.909c-9.554,2.843-10.159,12.358-16.929,18.899c-4.476-6.549-7.074-15.421-10.924-22.785
	c-5.657-10.832-8.386-15.289-20.188-16.168c-2.807-5.947-1.002-14.342-8.199-16.829c-4.448,7.249-11.435,17.015-19.086,20.752
	c-6.69-11.086-9.321-27.47-13.547-40.589c-4.454-13.823-7.636-27.461-12.623-41.354c-5.188-14.452-9.255-27.813-14.195-41.452
	c-1.997-5.516-2.626-15.38-10.514-15.355c-6.729,0.021-8.998,9.093-12.093,13.009c-4.312-15.614-9.236-31.448-16.824-46.073
	c-2.979-5.738-15.786-37.327-22.016-26.429c-5.818-4.811-8.243-19.587-16.932-15.13c-6.14,3.151-9.918,16.134-14.142,20.563
	c-8.765-8.077-7.016-32.024-10.974-43.426c-2.513-7.229-6.86-16.425-8-24.446c-0.902-6.359,4.129-22.729-5.949-22.164
	c-0.195-4.849,0.25-9.924-2.529-14.225c0.937,10.297-7.436,19.252-8.235,29.077c-4.769-4.469-1.283-14.53-2.637-20.535
	c-1.77-7.857-3.75-13.33-3.729-22.324c0.016-7.058,3.435-40.656-5.956-38.896c0.058,7.127-5.514,25.954-10.398,30.063
	c-0.234-8.737-6.587-15.583-8.46-23.806c-2.152-9.444-0.604-18.867-3.992-28.439c-3.236-9.15-7.431-16.212-8.573-26.037
	c-0.821-7.052,0.078-14.429-0.787-21.462c-6.489-0.781-19.237,4.992-24.495,1.521c-8.862-5.852-1.891-18.815-2.899-25.604
	c-9.164,7.314-38.559,3.273-41.726-8.884c-1.266-4.862,0.127-7.895-2.529-12.744c-1.732-3.165-4.466-1.744-5.882-6.867
	c-1.768-6.402,3.911-16.975-6.042-17.968c5.962-6.896,17.525-8.537,25.543-14.222c10.222-7.248,12.58-18.27,20.629-28.836
	c11.928-15.661,8.331-41.071,8.331-41.071s-17.411,16.815-22.711,27.906c-4.999,10.461-7.483,23.534-16.706,31.214
	c-3.469,2.888-8.215,4.04-11.614,7.472c-4.976,5.021-6.775,12.017-11.681,17.363c-6.722-4.954-0.37-20.583-0.419-27.67
	c-0.043-6.273,1.063-13.522-0.007-19.655c-0.839-4.805-3.403-6.667-4.3-10.748c-2.427-11.048,3.673-49.52-12.053-52.388
	c23.854-0.075,47.354-2.733,71.16-7.662c14.83-3.07,46.179,0.624,46.179,0.624s-25.854-16.899-40-16.948
	c-12.984-0.044-27.1-1.676-39.951-0.051c-8.54,1.08-37.119,17.575-41.894,11.423c9.928-0.316,24.164-9.222,32.959-14.095
	c11.222-6.218,13.707-19.082,16.885-30.442c4.265-15.244,23.59-32.753,23.59-32.753s-31.609,3.48-37.265,17.984
	c-5.601,14.362-14.042,35.341-27.919,41.986c-7.27,3.48-9.485,3.805-14.719,10.306c-4.077,5.063-6.104,11.054-12.666,6.104
	c-5.459-4.12-4.771-14.588-7.743-19.713c-5.092-8.777-11.267-8.499-19.592-6.002c-4.966,1.489-14.651,7.668-19.493,2.819
	c-4.721-4.728-0.56-14.715,1.135-19.717c5.245-15.485,2.171-31.85,4.157-48.477c0.963-8.066,2.789-14.054-0.536-21.729
	c-1.645-3.799-9.612-15.741-14.236-15.029c-3.159,12.777-7.574,24.072-10.988,36.758c-3.131,11.631-11.112,26.083-10.29,38.453
	c-11.273-7.519-1.549-29.289-18.729-29.457c0.021,6.901-4.315,8.135-6.249,13.237c-2.091,5.521,0.179,12.978-0.737,18.841
	c-10.084,3.046-20.609-7.117-30.904-6.537c-2.538-20.596,1.522-42.122-0.326-62.866c-0.628-7.047-2.889-25.417-8.83-30.178
	c-2.987-2.394-10.712,0.464-14.341-0.279c-4.169-0.854-7.83-5.234-12.258-4.13c0.182,7.347-4.004,16.124-6.094,23.207
	c-2.731,9.256-1.965,13.85-11.044,15.731c-11.162,2.313-11.162-2.828-14.652-11.001c-1.893-4.435-6.292-8.118-6.465-12.962
	c-0.177-4.962,4.314-12.566,5.889-17.434c2.247-6.94,3.601-12.961,6.241-19.62c5.209-13.14,2.991-27.281,4.727-40.687
	c-6.164,6.664-9.71,14.719-16.403,21.02c-5.946,5.598-6.059,10.25-11.076,16.786c2.98-18.202,7.793-35.584,12.873-53.39
	c-16.458-7.924-20.78,5.437-29.958,16.634C-58.118,51.275-68.5,64.382-84.5,62.023l9.742,1631.621h1548.154L1470.502,79.587z"/>
</svg>
