<?xml version="1.0" encoding="utf-8"?>
<!-- Generator: Adobe Illustrator 16.0.0, SVG Export Plug-In . SVG Version: 6.00 Build 0)  -->
<!DOCTYPE svg PUBLIC "-//W3C//DTD SVG 1.1//EN" "http://www.w3.org/Graphics/SVG/1.1/DTD/svg11.dtd">
<svg version="1.1" id="Layer_1" xmlns="http://www.w3.org/2000/svg" xmlns:xlink="http://www.w3.org/1999/xlink" x="0px" y="0px"
	 width="1400px" height="899.215px" viewBox="0 0 1400 899.215" enable-background="new 0 0 1400 899.215" xml:space="preserve">
<linearGradient id="SVGID_1_" gradientUnits="userSpaceOnUse" x1="781.5796" y1="1296.9224" x2="501.0234" y2="1190.3973" gradientTransform="matrix(1 0 0 1 638 -640.0117)">
	<stop  offset="0" style="stop-color:#FCB39D"/>
	<stop  offset="1" style="stop-color:#FBC9A7"/>
</linearGradient>
<path fill="url(#SVGID_1_)" d="M1602.799,567.52c0,0-128.411,57.686-150.656,66.061c-22.243,8.373-53.044,13.025-26.521-5.584
	c26.521-18.607,59.032-37.217,59.032-37.217s-135.175,64.199-166.83,40.939c0,0-319.973,106.066-397.828,83.736
	s65.877-19.537,126.62-34.426c60.745-14.887,53.044-51.172,116.354-56.754c63.313-5.582,65.878-50.242,120.633-56.756
	c54.756-6.513,73.577,5.582,73.577,5.582s11.121-52.103,51.333-54.894c40.21-2.792,82.132,6.513,82.132,6.513
	s-2.567-46.521,43.633-54.895c46.199-8.374,68.443,9.305,68.443,9.305L1602.799,567.52z"/>
<linearGradient id="SVGID_2_" gradientUnits="userSpaceOnUse" x1="-2.1738" y1="1314.021" x2="-304.4649" y2="1546.6174" gradientTransform="matrix(1.1087 0.0906 -0.0814 0.9967 301.4267 -799.7607)">
	<stop  offset="0" style="stop-color:#FBC9A7"/>
	<stop  offset="1" style="stop-color:#FCB39D"/>
</linearGradient>
<path fill="url(#SVGID_2_)" d="M-219.176,635.194c0.012,0.07,100.082,41.254,158.872,44.531c-2.705-3.008-6.597-5-10.763-7.104
	c-62.92-31.748-78.223-38.6-78.223-38.6s99.358,31.924,208.383,49.234c109.023,17.311,229.049,14.514,229.049,14.514
	s80.559-1.043,1.24-14.914c-50.4-8.813-102.976-2.533-152.113-17.561c-58.745-17.965-40.27-74.578-117.65-81.955
	c-34.698-3.306-27.25,3.586-50.93-18.086c-17.274-15.807-31.788-31.868-52.5-45.67c-31.839-21.217-136.521-31.848-136.521-31.848
	S-221.659,620.941-219.176,635.194z"/>
</svg>
