<?xml version="1.0" encoding="utf-8"?>
<!-- Generator: Adobe Illustrator 16.0.0, SVG Export Plug-In . SVG Version: 6.00 Build 0)  -->
<!DOCTYPE svg PUBLIC "-//W3C//DTD SVG 1.1//EN" "http://www.w3.org/Graphics/SVG/1.1/DTD/svg11.dtd">
<svg version="1.1" id="Layer_1" xmlns="http://www.w3.org/2000/svg" xmlns:xlink="http://www.w3.org/1999/xlink" x="0px" y="0px"
	 width="1400px" height="899.215px" viewBox="0 0 1400 899.215" enable-background="new 0 0 1400 899.215" xml:space="preserve">
<linearGradient id="SVGID_1_" gradientUnits="userSpaceOnUse" x1="404.2319" y1="1130.5542" x2="640.3185" y2="1539.4683" gradientTransform="matrix(1 0 0 1 638 -640.0117)">
	<stop  offset="0" style="stop-color:#FCEEA6"/>
	<stop  offset="0.5567" style="stop-color:#FDD4AF"/>
	<stop  offset="1" style="stop-color:#FFB395"/>
</linearGradient>
<path fill="url(#SVGID_1_)" d="M1602.57,899.247V406.092c-8-26.202-73.679-3.904-87.095,7.251
	c-8.717-33.558-25.945-73.134-67.355-74.242c-41.196-1.101-66.698,39.863-72.949,74.25c-20.548-14.957-49.174-9.09-46.425,20.373
	c-45.509-1.688-79.478,45.82-76.021,89.019c-1.404-48.825-87.223-90.127-106.155-31.711c5.667-49.865-45.202-40.853-71.073-18.045
	c-30.593,26.97-48.18,75.022-47.835,115.001c-10.771-45.465-85.228-33.784-105.685-6.873c-5.843,7.688-5.526,11.969-13.455,17.102
	c-8.818,5.707-23.288,3.236-31.722,11.169c-13.511,12.709-6.173,37.312-3.923,53.179c-28.549,2.641-50.994-10.506-102.803-0.172
	c-34.451,6.873-104.682,35.543-122.828,111.662c-32.001,104.434,42.421,126.154,39.791,125.16"/>
<linearGradient id="SVGID_2_" gradientUnits="userSpaceOnUse" x1="298.7876" y1="1514.0259" x2="168.8747" y2="1904.1787" gradientTransform="matrix(0.9849 0.1729 -0.1729 0.9849 240.7168 -1038.7)">
	<stop  offset="0" style="stop-color:#FCEEA6"/>
	<stop  offset="0.5567" style="stop-color:#FDD4AF"/>
	<stop  offset="1" style="stop-color:#FFB395"/>
</linearGradient>
<path fill="url(#SVGID_2_)" d="M-242.941,335.037c-0.273-22.894,73.128-12.372,85.976-5.695
	c25.592,13.299,33.291,33.457,42.662,58.269c16.483-10.921,45.723-10.354,36.956,17.397c22.693-7.992,41.176,6.17,45.733,29
	c4.229,21.202-6.06,36.279-16.754,53.452c14.037-7.617,21.184,5.853,17.657,18.312c28.697-25.693,66.445-5.38,74.379,25.864
	c20.149-29.316,48.001-51.183,84.616-50.648c28.83,0.422,61.259,20.698,66.634,50.655c7.547-16.744,44.091-17.427,38.706,7.358
	c18.167-20.507,62.17-17.563,55.465,17.161c22.804,2.08,49.821-5.337,64.83,19.178c12.012,19.621,23.091,59.121,19.375,82.557
	c11.619-2.133,22.906-10.988,35.87-12.451c18.701-2.109,38.041,5.152,53.674,14.723c29.683,18.168,64.574,44.906,77.449,78.301
	c10.729,27.826,3.257,54.041-6.547,80.047c-7.701,20.43-6.445,16.721,12.581,24.924c18.057,7.787,17.454,13.289,21.192,31.818
	c21.589-1.869,39.485-3.816,58.538,9.098c10.689,7.246,26.126,39.822,28.782,40.482l-901.935,7.248L-242.941,335.037z"/>
</svg>
