<?xml version="1.0" encoding="utf-8"?>
<!-- Generator: Adobe Illustrator 16.0.0, SVG Export Plug-In . SVG Version: 6.00 Build 0)  -->
<!DOCTYPE svg PUBLIC "-//W3C//DTD SVG 1.1//EN" "http://www.w3.org/Graphics/SVG/1.1/DTD/svg11.dtd">
<svg version="1.1" id="Layer_1" xmlns="http://www.w3.org/2000/svg" xmlns:xlink="http://www.w3.org/1999/xlink" x="0px" y="0px"
	 width="1400px" height="899.215px" viewBox="0 0 1400 899.215" enable-background="new 0 0 1400 899.215" xml:space="preserve">
<linearGradient id="SVGID_1_" gradientUnits="userSpaceOnUse" x1="355.6846" y1="639.0112" x2="355.6846" y2="948.8872" gradientTransform="matrix(1 0 0 1 638 -640.0117)">
	<stop  offset="0" style="stop-color:#A4A9BD"/>
	<stop  offset="0.335" style="stop-color:#D4A8AF"/>
	<stop  offset="0.6453" style="stop-color:#E9AAA4"/>
	<stop  offset="1" style="stop-color:#F6ABA2"/>
</linearGradient>
<path fill="url(#SVGID_1_)" d="M900.249-0.998c-13.854,19.452,30.816,54.146,8.446,67.025c-9.61,5.534-18.465-4.644-26.938,7.365
	c-6.546,9.278-4.646,23.195,1.217,31.67c-30.435,7.887-27.154,35.113-21.497,60.089c12.58,55.528-46.056,2.635-40.997,35.834
	c-20.916-3.601-17.076,6.697-22.162,24.279c-7.213,24.936-15.452,1.406-30.389,12.406c-9.683,7.13-5.289,30.217-13.853,40.532
	c-7.676,9.246-24.549,13.469-34.961,10.337c-15.141,33.401,51.624,16.626,62.525,12.208c9.914-4.019,15.05-13.88,23.973-18.37
	c12.111-6.095,19.846,4.533,31.857,1.538c11.349-2.829,13.738-14.52,20.904-22.58c11.183-12.577,22.491-10.112,37.617-4.174
	c16.265,6.385,89.1,30.25,71.431-12.131c5.938-0.324,21.455,2.9,26.337-0.532c7.782-5.474,3.421-21.381,4.502-30.884
	c3.806-33.461,17.265-64.195,52.45-66.583c33.729-2.29,99.796,22.69,100.984-37.27c37.713-2.229,70.439,0.102,96.087-35.964
	c10.274-14.446,33.608-57.803,16.759-74.799L900.249-0.998z"/>
<linearGradient id="SVGID_2_" gradientUnits="userSpaceOnUse" x1="-211.4185" y1="639.8315" x2="-211.4185" y2="919.7437" gradientTransform="matrix(1 0 0 1 638 -640.0117)">
	<stop  offset="0" style="stop-color:#A4A9BD"/>
	<stop  offset="0.335" style="stop-color:#D4A8AF"/>
	<stop  offset="0.6453" style="stop-color:#E9AAA4"/>
	<stop  offset="1" style="stop-color:#F6ABA2"/>
</linearGradient>
<path fill="url(#SVGID_2_)" d="M190.752-0.18c-3.971,0.971,45.383,84.693,81.948,107.322c16.287,10.08,32.513,14.102,49.939,18.224
	c17.304,4.093,18.315,7.529,29.025,22.718c23.625,33.507,55.622,56.094,92.451,62.384c9.663,1.65,34.29-4.966,40.429-0.649
	c5.091,3.58,3.068,15.983,9.51,21.447c5.51,4.671,11.082,2.939,17.739,3.448c30.564,2.331,46.562,13.559,72.935,28.298
	c26.587,14.857,49.354,22.316,77.908,11.796c-17.775-23.52-48.196-13.932-69.191-33.523c-18.598-17.354-18.427-42.694-46.682-43.327
	c-3.908-49.825-39.591-10.792-61.033-32.552c-18.119-18.385-3.722-56.153-39.618-60.589c-1.082-24.346-0.041-43.384-12.023-64.546
	c-10.63-18.776-22.743-29.777-36.827-39.102L190.752-0.18z"/>
</svg>
