<?xml version="1.0" encoding="utf-8"?>
<!-- Generator: Adobe Illustrator 16.0.0, SVG Export Plug-In . SVG Version: 6.00 Build 0)  -->
<!DOCTYPE svg PUBLIC "-//W3C//DTD SVG 1.1//EN" "http://www.w3.org/Graphics/SVG/1.1/DTD/svg11.dtd">
<svg version="1.1" id="Layer_1" xmlns="http://www.w3.org/2000/svg" xmlns:xlink="http://www.w3.org/1999/xlink" x="0px" y="0px"
	 width="1400px" height="899.215px" viewBox="0 0 1400 899.215" enable-background="new 0 0 1400 899.215" xml:space="preserve">
<linearGradient id="SVGID_1_" gradientUnits="userSpaceOnUse" x1="-222.6685" y1="721.9517" x2="-222.6685" y2="1038.6187" gradientTransform="matrix(1 0 0 1 638 -640.0117)">
	<stop  offset="0" style="stop-color:#A4A9BD"/>
	<stop  offset="0.2113" style="stop-color:#BBA9B5"/>
	<stop  offset="0.5052" style="stop-color:#D4AAAC"/>
	<stop  offset="0.7719" style="stop-color:#E4AAA6"/>
	<stop  offset="0.9852" style="stop-color:#E9AAA4"/>
</linearGradient>
<path fill="url(#SVGID_1_)" d="M154.441,86.502c14.885,10.147,38.483,22.973,54.401,38.786c16.287,16.18,29.182,37.646,44.7,55.532
	c8.271,9.532,14.294,16.438,26.52,18.405c13.121,2.112,21.756,1.275,33.22,10.894c7.497,6.289,12.215,15.874,21.216,21.039
	c12.862,7.381,23.953-1.668,39.427-1.872c35.165-0.464,38.43,16.788,45.719,46.591c4.721,19.297,10.472,12.801,25.118,15.031
	c9.128,1.389,6.304,3.104,12.908,7.55c5.534,3.727,5.55,4.53,12.217,7.479c8.74,3.868,10.126,3.625,18.145,11.646
	c7.353,7.354,13.626,13.429,23.76,15.485c15.568,3.158,27.516,2.112,41.841,11.904c13.979,9.553,22.86,14.914,39.082,18.079
	c10.524,2.052,17.058-10.279,26.559-4.378c25.969,16.12,52.357,20.463,79.376,30.731c-8.65,14.366-51.094,8.164-65.457,6.046
	c-24.14-3.559-46.4,1.931-69.788-4.971c-22.271-6.574-45.127-20.762-67.003-24.417c-24.847-4.152-43.524-0.996-59.736-25.596
	c-8.576-13.013-6.39-10.714-22.608-10.48c-12.012,0.173-20.754-2.076-30.78-8.981c-19.969-13.754-22.096-44.159-43.155-54.187
	c-20.239-9.637-47.414-10.499-63.9-30.357c-7.396-8.912-9.202-17.882-18.186-25.582c-7.858-6.735-17.431-13.136-25.707-18.832
	c-21.619-14.878-26.645-37.101-44.042-56.317c-16.554-18.286-60.33-23.233-55.965-53.507c8.907-1.305,14.918,2.154,22.121,5.784"/>
<linearGradient id="SVGID_2_" gradientUnits="userSpaceOnUse" x1="-864.3032" y1="434.2632" x2="-864.3032" y2="774.9521" gradientTransform="matrix(0.9954 -0.0959 0.0959 0.9954 957.4022 -465.7238)">
	<stop  offset="0" style="stop-color:#A4A9BD"/>
	<stop  offset="0.5222" style="stop-color:#C9AAB0"/>
	<stop  offset="0.9852" style="stop-color:#E9AAA4"/>
</linearGradient>
<path fill="url(#SVGID_2_)" d="M-24.665,97.977c1.705,19.166,30.457,23.2,42.593,21.208c23.259-3.818,27.447,5.739,35.071,27.958
	c7.833-11.21,21.495-17.227,34.82-14.396c16.854,3.582,22.656,21.845,33.646,31.645c1.884,1.678,6.091-1.018,9.009,1.685
	c2.177,2.015,1.596,9.193,3.268,10.59c6.547,5.475,10.515,0.625,18.669,3.738c13.434,5.13,15.022,23.229,13.229,36.518
	c20.945-1.026,39.903,1.241,57.323,15.798c18.483,15.448,14.496,26.512,17.569,47.366c19.038,24.093,44.042,33.61,67.062,48.756
	c21.771,14.322,48.401,23.788,67.616,39.912c-18.802,5.184-95.91-38.403-114.499-47.086
	c-37.598-17.563-151.455-103.973-176.188-119.172c-19.307-11.865-37.192-25.503-55.355-39.556
	c-18.114-14.014-37.25-25.933-54.775-40.665c-13.781-11.585-40.123-31.677-39.261-53.233
	C-52.214,77.562-43.958,92.826-24.665,97.977"/>
<linearGradient id="SVGID_3_" gradientUnits="userSpaceOnUse" x1="717.627" y1="193.813" x2="487.3796" y2="495.5801" gradientTransform="matrix(1.0853 0.0319 -0.0366 1.2445 276.3252 -85.6718)">
	<stop  offset="0" style="stop-color:#A4A9BD"/>
	<stop  offset="0.6207" style="stop-color:#E9AAA4"/>
	<stop  offset="1" style="stop-color:#F6ABA2"/>
</linearGradient>
<path fill="url(#SVGID_3_)" d="M781.105,440.126c26.744-3.574,56.538-5.451,80.174-12.837c26.036-8.137,56.841-29.902,83.386-36.254
	c24.433-5.845,53.624-10.686,75.857-23.738c11.005-6.461,30.263-38.858,41.907-43.113c12.695-4.642,26.083-10.402,39.068-13.84
	c8.699-2.304,16.206-6.017,23.197-12.988c5.587-5.572,13.222-13.443,10.322-20.599c-12.527-2.92-24.942,12.064-35.29,17.039
	c-12.754,6.132-43.643,3.727-56.56,2.748c-28.9-2.192-42.001,35.894-57.784,42.846c-7.034,3.098-12.688,8.387-19.871,5.04
	c-5.887-2.744-10.997-8.569-16.92-11.793c-28.732-15.64-53.963-8.259-75.303,16.784c-8.181,9.601-16.902,19.387-22.205,31.503
	c-2.67,6.101-4.513,11.05-6.522,16.952c-3.716,10.917-2.403,5.533-11.261,3.341c-9.711-2.404-22.379,0.424-24.055,13.174
	c-9.247-5.344-20.776-29.073-31.285-22.684c-9.379,5.702-7.454,16.832-17.209,18.828c-15.915,3.257-50.174,1.387-54.354,24.28
	C715.228,441.875,762.95,446.13,781.105,440.126"/>
</svg>
