<?xml version="1.0" encoding="utf-8"?>
<!-- Generator: Adobe Illustrator 16.0.0, SVG Export Plug-In . SVG Version: 6.00 Build 0)  -->
<!DOCTYPE svg PUBLIC "-//W3C//DTD SVG 1.1//EN" "http://www.w3.org/Graphics/SVG/1.1/DTD/svg11.dtd">
<svg version="1.1" id="Layer_1" xmlns="http://www.w3.org/2000/svg" xmlns:xlink="http://www.w3.org/1999/xlink" x="0px" y="0px"
	 width="1400px" height="899.215px" viewBox="0 0 1400 899.215" enable-background="new 0 0 1400 899.215" xml:space="preserve">
<linearGradient id="SVGID_1_" gradientUnits="userSpaceOnUse" x1="521.6416" y1="1132.0474" x2="1038.0913" y2="615.5976" gradientTransform="matrix(1 0 0 1 638 -640.0117)">
	<stop  offset="0" style="stop-color:#FED1AD"/>
	<stop  offset="1" style="stop-color:#FEC8A7"/>
</linearGradient>
<path fill="url(#SVGID_1_)" d="M1617.458,148.263c1.582,0.819-19.074,5.963-27.219,8.019c-14.83,3.745-28.24,8.901-40.906,18.031
	c-20.905,15.068-32.84,37.95-52.83,54.324c-11.053,9.054-20.134,13.03-33.262,16.531c-11.206,2.987-12.299,7.954-19.567,16.36
	c-16.995,19.651-50.748,22.283-73.681,28.75c-25.285,7.132-45.064,11.042-64.273,31.087c-5.123,5.347-10.111,11.951-16.492,15.498
	c-7.138,3.967-16.013,3.262-23.489,6.766c-13.953,6.542-27.167,13.755-41.799,19.04c-13.972,5.045-38.799,20.104-54.013,14.046
	c-15.257-6.075,18.485-18.053,24.89-21.313c6.608-3.364,13.566-6.885,19.774-11.523c6.811-5.091,11.408-12.998,17.882-18.057
	c13.463-10.521,31.374-3.197,45.384-12.449c16.522-10.911,28.984-30.707,45.59-42.882c14.504-10.632,31.619-18.249,48.379-22.096
	c12.863-2.955,29.257-0.016,40.938-8.209c12.522-8.783,8.717-27.514,19.308-39.095c12.395-13.549,25.594-5.779,38.222,0.144
	c0.432-2.349,0.69-4.882,2.02-6.886c9.595-14.449,17.394-27.231,36.287-26.049c8.181,0.513,13.34,5.094,18.839-3.956
	c3.771-6.205,3.641-15.417,5.301-22.148c4.158-16.854,17.342-28.625,34.686-24.236c11.863,3.004,30.951,18.831,40.729,2.25
	L1617.458,148.263z"/>
<linearGradient id="SVGID_2_" gradientUnits="userSpaceOnUse" x1="-655.8447" y1="860.978" x2="-804.0851" y2="946.5646" gradientTransform="matrix(1 0 0 1 638 -640.0117)">
	<stop  offset="0" style="stop-color:#FED1AD"/>
	<stop  offset="1" style="stop-color:#F9B4A0"/>
</linearGradient>
<path fill="url(#SVGID_2_)" d="M-216.789,218.731c0,0,66.954,32.727,99.518,60.779c32.564,28.052,130.241,90.169,170.248,95.179
	c40.008,5.01,4.645-5.009-22.338-25.047c-26.982-20.037-1.865-57.107-33.5-71.133c-31.633-14.026-44.663-12.023-44.663-12.023
	s3.053-44.031-39.078-62.116c-42.13-18.086-22.294-19.036-39.042-46.086c-16.749-27.051-58.583-55.682-91.146-26.839V218.731z"/>
</svg>
