<?xml version="1.0" encoding="utf-8"?>
<!-- Generator: Adobe Illustrator 16.0.0, SVG Export Plug-In . SVG Version: 6.00 Build 0)  -->
<!DOCTYPE svg PUBLIC "-//W3C//DTD SVG 1.1//EN" "http://www.w3.org/Graphics/SVG/1.1/DTD/svg11.dtd">
<svg version="1.1" id="Layer_1" xmlns="http://www.w3.org/2000/svg" xmlns:xlink="http://www.w3.org/1999/xlink" x="0px" y="0px"
	 width="1400px" height="899.215px" viewBox="0 0 1400 899.215" enable-background="new 0 0 1400 899.215" xml:space="preserve">
<g>
	<defs>
		<rect id="SVGID_1_" width="1400" height="899.247"/>
	</defs>
	<clipPath id="SVGID_2_">
		<use xlink:href="#SVGID_1_"  overflow="visible"/>
	</clipPath>
	
		<linearGradient id="SVGID_3_" gradientUnits="userSpaceOnUse" x1="47.9478" y1="613.7935" x2="47.9477" y2="1422.0898" gradientTransform="matrix(1 0 0 1 638 -640.0117)">
		<stop  offset="0" style="stop-color:#A4A9BD"/>
		<stop  offset="0.1126" style="stop-color:#B2A9B8"/>
		<stop  offset="0.3256" style="stop-color:#D8AAAA"/>
		<stop  offset="0.4138" style="stop-color:#E9AAA4"/>
		<stop  offset="0.67" style="stop-color:#F6ABA2"/>
		<stop  offset="1" style="stop-color:#F6ABA2"/>
	</linearGradient>
	<rect x="-207.021" clip-path="url(#SVGID_2_)" fill="url(#SVGID_3_)" width="1785.938" height="899.247"/>
	
		<linearGradient id="SVGID_4_" gradientUnits="userSpaceOnUse" x1="-222.6685" y1="721.9517" x2="-222.6685" y2="1038.6187" gradientTransform="matrix(1 0 0 1 638 -640.0117)">
		<stop  offset="0" style="stop-color:#A4A9BD"/>
		<stop  offset="0.2113" style="stop-color:#BBA9B5"/>
		<stop  offset="0.5052" style="stop-color:#D4AAAC"/>
		<stop  offset="0.7719" style="stop-color:#E4AAA6"/>
		<stop  offset="0.9852" style="stop-color:#E9AAA4"/>
	</linearGradient>
	<path clip-path="url(#SVGID_2_)" fill="url(#SVGID_4_)" d="M154.441,86.502c14.885,10.147,38.483,22.973,54.401,38.786
		c16.287,16.18,29.182,37.646,44.7,55.532c8.271,9.532,14.294,16.438,26.52,18.405c13.121,2.112,21.756,1.275,33.22,10.894
		c7.497,6.289,12.215,15.874,21.216,21.039c12.862,7.381,23.953-1.668,39.427-1.872c35.165-0.464,38.43,16.788,45.719,46.591
		c4.721,19.297,10.472,12.801,25.118,15.031c9.128,1.389,6.304,3.104,12.908,7.55c5.534,3.727,5.55,4.53,12.217,7.479
		c8.74,3.868,10.126,3.625,18.145,11.646c7.353,7.354,13.626,13.429,23.76,15.485c15.568,3.158,27.516,2.112,41.841,11.904
		c13.979,9.553,22.86,14.914,39.082,18.079c10.524,2.052,17.058-10.279,26.559-4.378c25.969,16.12,52.357,20.463,79.376,30.731
		c-8.65,14.366-51.094,8.164-65.457,6.046c-24.14-3.559-46.4,1.931-69.788-4.971c-22.271-6.574-45.127-20.762-67.003-24.417
		c-24.847-4.152-43.524-0.996-59.736-25.596c-8.576-13.013-6.39-10.714-22.608-10.48c-12.012,0.173-20.754-2.076-30.78-8.981
		c-19.969-13.754-22.096-44.159-43.155-54.187c-20.239-9.637-47.414-10.499-63.9-30.357c-7.396-8.912-9.202-17.882-18.186-25.582
		c-7.858-6.735-17.431-13.136-25.707-18.832c-21.619-14.878-26.645-37.101-44.042-56.317c-16.554-18.286-60.33-23.233-55.965-53.507
		c8.907-1.305,14.918,2.154,22.121,5.784"/>
	
		<linearGradient id="SVGID_5_" gradientUnits="userSpaceOnUse" x1="355.6846" y1="648.8472" x2="355.6846" y2="948.8872" gradientTransform="matrix(1 0 0 1 638 -640.0117)">
		<stop  offset="0" style="stop-color:#A4A9BD"/>
		<stop  offset="0.335" style="stop-color:#D4A8AF"/>
		<stop  offset="0.6453" style="stop-color:#E9AAA4"/>
		<stop  offset="1" style="stop-color:#F6ABA2"/>
	</linearGradient>
	<path clip-path="url(#SVGID_2_)" fill="url(#SVGID_5_)" d="M900.249,8.838c-13.854,19.452,30.816,44.31,8.446,57.19
		c-9.61,5.534-18.465-4.644-26.938,7.365c-6.546,9.278-4.646,23.195,1.217,31.67c-30.435,7.887-27.154,35.113-21.497,60.089
		c12.58,55.528-46.056,2.635-40.997,35.834c-20.916-3.601-17.076,6.697-22.162,24.279c-7.213,24.936-15.452,1.406-30.389,12.406
		c-9.683,7.13-5.289,30.217-13.853,40.532c-7.676,9.246-24.549,13.469-34.961,10.337c-15.141,33.401,51.624,16.626,62.525,12.208
		c9.914-4.019,15.05-13.88,23.973-18.37c12.111-6.095,19.846,4.533,31.857,1.538c11.349-2.829,13.738-14.52,20.904-22.58
		c11.183-12.577,22.491-10.112,37.617-4.174c16.265,6.385,89.1,30.25,71.431-12.131c5.938-0.324,21.455,2.9,26.337-0.532
		c7.782-5.474,3.421-21.381,4.502-30.884c3.806-33.461,17.265-64.195,52.45-66.583c33.729-2.29,99.796,22.69,100.984-37.27
		c37.713-2.229,70.439,0.102,96.087-35.964c10.274-14.446,33.608-47.967,16.759-64.963L900.249,8.838z"/>
	
		<linearGradient id="SVGID_6_" gradientUnits="userSpaceOnUse" x1="-211.4185" y1="639.8315" x2="-211.4185" y2="919.7437" gradientTransform="matrix(1 0 0 1 638 -640.0117)">
		<stop  offset="0" style="stop-color:#A4A9BD"/>
		<stop  offset="0.335" style="stop-color:#D4A8AF"/>
		<stop  offset="0.6453" style="stop-color:#E9AAA4"/>
		<stop  offset="1" style="stop-color:#F6ABA2"/>
	</linearGradient>
	<path clip-path="url(#SVGID_2_)" fill="url(#SVGID_6_)" d="M190.752-0.18c-3.971,0.971,45.383,84.693,81.948,107.322
		c16.287,10.08,32.513,14.102,49.939,18.224c17.304,4.093,18.315,7.529,29.025,22.718c23.625,33.507,55.622,56.094,92.451,62.384
		c9.663,1.65,34.29-4.966,40.429-0.649c5.091,3.58,3.068,15.983,9.51,21.447c5.51,4.671,11.082,2.939,17.739,3.448
		c30.564,2.331,46.562,13.559,72.935,28.298c26.587,14.857,49.354,22.316,77.908,11.796c-17.775-23.52-48.196-13.932-69.191-33.523
		c-18.598-17.354-18.427-42.694-46.682-43.327c-3.908-49.825-39.591-10.792-61.033-32.552
		c-18.119-18.385-3.722-56.153-39.618-60.589c-1.082-24.346-0.041-43.384-12.023-64.546c-10.63-18.776-22.743-29.777-36.827-39.102
		L190.752-0.18z"/>
	
		<linearGradient id="SVGID_7_" gradientUnits="userSpaceOnUse" x1="-864.3032" y1="434.2632" x2="-864.3032" y2="774.9521" gradientTransform="matrix(0.9954 -0.0959 0.0959 0.9954 957.4022 -465.7238)">
		<stop  offset="0" style="stop-color:#A4A9BD"/>
		<stop  offset="0.5222" style="stop-color:#C9AAB0"/>
		<stop  offset="0.9852" style="stop-color:#E9AAA4"/>
	</linearGradient>
	<path clip-path="url(#SVGID_2_)" fill="url(#SVGID_7_)" d="M-24.665,97.977c1.705,19.166,30.457,23.2,42.593,21.208
		c23.259-3.818,27.447,5.739,35.071,27.958c7.833-11.21,21.495-17.227,34.82-14.396c16.854,3.582,22.656,21.845,33.646,31.645
		c1.884,1.678,6.091-1.018,9.009,1.685c2.177,2.015,1.596,9.193,3.268,10.59c6.547,5.475,10.515,0.625,18.669,3.738
		c13.434,5.13,15.022,23.229,13.229,36.518c20.945-1.026,39.903,1.241,57.323,15.798c18.483,15.448,14.496,26.512,17.569,47.366
		c19.038,24.093,44.042,33.61,67.062,48.756c21.771,14.322,48.401,23.788,67.616,39.912c-18.802,5.184-95.91-38.403-114.499-47.086
		c-37.598-17.563-151.455-103.973-176.188-119.172c-19.307-11.865-37.192-25.503-55.355-39.556
		c-18.114-14.014-37.25-25.933-54.775-40.665c-13.781-11.585-40.123-31.677-39.261-53.233
		C-52.214,77.562-43.958,92.826-24.665,97.977"/>
	
		<linearGradient id="SVGID_8_" gradientUnits="userSpaceOnUse" x1="717.627" y1="193.813" x2="487.3796" y2="495.5801" gradientTransform="matrix(1.0853 0.0319 -0.0366 1.2445 276.3252 -85.6718)">
		<stop  offset="0" style="stop-color:#A4A9BD"/>
		<stop  offset="0.6207" style="stop-color:#E9AAA4"/>
		<stop  offset="1" style="stop-color:#F6ABA2"/>
	</linearGradient>
	<path clip-path="url(#SVGID_2_)" fill="url(#SVGID_8_)" d="M781.105,440.126c26.744-3.574,56.538-5.451,80.174-12.837
		c26.036-8.137,56.841-29.902,83.386-36.254c24.433-5.845,53.624-10.686,75.857-23.738c11.005-6.461,30.263-38.858,41.907-43.113
		c12.695-4.642,26.083-10.402,39.068-13.84c8.699-2.304,16.206-6.017,23.197-12.988c5.587-5.572,13.222-13.443,10.322-20.599
		c-12.527-2.92-24.942,12.064-35.29,17.039c-12.754,6.132-43.643,3.727-56.56,2.748c-28.9-2.192-42.001,35.894-57.784,42.846
		c-7.034,3.098-12.688,8.387-19.871,5.04c-5.887-2.744-10.997-8.569-16.92-11.793c-28.732-15.64-53.963-8.259-75.303,16.784
		c-8.181,9.601-16.902,19.387-22.205,31.503c-2.67,6.101-4.513,11.05-6.522,16.952c-3.716,10.917-2.403,5.533-11.261,3.341
		c-9.711-2.404-22.379,0.424-24.055,13.174c-9.247-5.344-20.776-29.073-31.285-22.684c-9.379,5.702-7.454,16.832-17.209,18.828
		c-15.915,3.257-50.174,1.387-54.354,24.28C715.228,441.875,762.95,446.13,781.105,440.126"/>
	
		<linearGradient id="SVGID_9_" gradientUnits="userSpaceOnUse" x1="-50.6309" y1="1067.5815" x2="965.6377" y2="1067.5815" gradientTransform="matrix(1 0 0 1 638 -640.0117)">
		<stop  offset="0" style="stop-color:#F7B1A2"/>
		<stop  offset="0.4975" style="stop-color:#F9BDA3"/>
		<stop  offset="1" style="stop-color:#FBCAA3"/>
	</linearGradient>
	<path clip-path="url(#SVGID_2_)" fill="url(#SVGID_9_)" d="M1484.928-6.567c-33.106,7.158-23.037,39.797-34.697,60.313
		c-11.648,20.495-45.679,25.799-63.263,40.24c-23.544,19.335-31.735,40.821-37.509,69.366c-2.181,10.797-3.809,22.401-13.227,30.305
		c-9.354,7.849-24.76,7.728-35.203,15.584c-13.856,10.426-17.575,29.91-26.422,43.656c-12.895,20.039-28.516,26.753-48.345,38.11
		c27.221-18.694,16.192-47.464,21.384-73.495c3.835-19.225,21.047-23.251,36.284-34.774c19.891-15.042,19.347-20.187,8.988-39.108
		c-10.761-19.653-2.479-16.666,12.564-27.308c15.439-10.923,3.672-22.12,15.106-33.828c4.81-4.925,17.225-4.681,23.529-8.658
		c6.033-3.807,14.202-12.07,17.604-18.2c8.391-15.116,12.057-70.435-10.814-75.701c-0.633,34.251-18.396,41.585-47.067,53.281
		c-28.925,11.798-37.762,26.764-39.265,55.566c-30.201,3.689-41.62,28.477-42.149,56.134c-23.202-0.218-47.318,10.436-56.392,32.089
		c-12.3,29.357,1.205,64.165-8.943,95.536c-12.201,37.711-36.384,39.739-71.769,46.997c-16.11,3.305-34.485,10.227-45.31,22.836
		c-10.965,12.774-8.677,24.981-9.638,40.768c-10.424-4.543-15-12.967-27.828-14.977c-16.323-2.558-33.096,2.297-46.752,10.536
		c-30.098,18.157-37.546,39.947-34.083,72.906c1.908,18.146,0.092,18.63-17.514,18.543c-14.56-0.072-24.217,2.176-35.56,11.762
		c-10.868,9.186-19.116,22.737-22.201,36.448c-2.802,12.455-0.742,22.372-14.396,26.972c-19.534,6.58-35.114-12.741-47.706-22.836
		c-16.089-12.898-33.045-13.926-50.725-4.507c-32.068,17.082-53.324,49.75-57.568,83.584c-30.722,5.072-50.952-24.855-73.135,7.815
		c-16.723,24.628-9.55,213.804-15.54,249.124l1016.269,16.689l-3.19-875.702L1484.928-6.567z"/>
	
		<linearGradient id="SVGID_10_" gradientUnits="userSpaceOnUse" x1="-857.1763" y1="1057.2261" x2="198.4434" y2="1057.2261" gradientTransform="matrix(1 0 0 1 638 -640.0117)">
		<stop  offset="0" style="stop-color:#F9B4A0"/>
		<stop  offset="1" style="stop-color:#FBCAA3"/>
	</linearGradient>
	<path clip-path="url(#SVGID_2_)" fill="url(#SVGID_10_)" d="M-219.176-71.825c28.96,0.089,69.088,19.026,75.862,53.518
		c2.48,12.624-3.497,26.518-3.524,36.856c-0.048,16.873,9.941,20.331,24.66,26.032c24.199,9.373,39.136,22.697,23.122,50.99
		c-1.825,3.225-8.998,10.674-9.172,14.203c-0.611,12.346,3.687,5.924,10.381,12.611c9.672,9.659,16.584,17.155,19.587,31.214
		c2.587,12.113-3.885,26.251,4.893,35.277c9.047,9.305,29.479,6.333,36.11-4.379c14.91-24.086-30.403-49.541-27.09-74.44
		c9.743-0.968,16.478,15.334,22.169,22.82c8.227,10.819,16.972,19.373,29.136,26.033c27.306,14.948,51.955,20.979,73.894,45.372
		c20.856,23.188,28.911,47.761,56.456,64.013c9.646,5.691,29.709,12.542,36.412,21.533c12.869,17.262-10.789,8.927-19.817,6.534
		c-18.163-4.818-35.621-10.472-51.454-22.756c-17.468-13.551-33.174-36.143-57.102-32.106c9.777,6.29,8.85,23.735,16.588,33.771
		c7.422,9.625,16.021,17.983,25.436,25.587c21.558,17.412,47.133,10.699,72.674,15.003c11.854,1.999,26.643,6.802,36.402,16.045
		c20.69,19.598,14.856,24.638,43.59,19.774c21.979-3.721,46.737,0.469,65.11,14.598c10.387,7.987,19.76,16.743,27.866,27.889
		c3.858,5.303,5.744,14.393,11.217,18.04c9.685,6.453,3.066,1.619,13.394-0.941c16.338-4.05,24.714-11.148,41.495-2.065
		c15.132,8.191,18.166,24.266,30.608,35.114c15.652,13.646,17.194-2.702,35.865,1.415c13.826,3.048,19.467,18.319,33.503,18.679
		c10.601,0.273,20.848-7.632,33.494-6.115c12.249,1.469,23.823,6.64,35.26,11.583c26.338,11.385,48.989,26.607,71.274,45.583
		c16.877,14.372,46.007,50.641,46.007,50.641s65.767-15.736,117.256,32.487c29.868,27.973,37.099,61.719,54.06,300.635
		c-32.244,14.316-239.552,2.355-274.297,2.355c-72.072,0-144.144,0-216.214,0c-150.989,0-301.975,0-452.962,0
		c-36.447,0-72.894,0-109.341,0L-219.176-71.825z"/>
	
		<linearGradient id="SVGID_11_" gradientUnits="userSpaceOnUse" x1="404.2319" y1="1130.5542" x2="640.3185" y2="1539.4683" gradientTransform="matrix(1 0 0 1 638 -640.0117)">
		<stop  offset="0" style="stop-color:#FCEEA6"/>
		<stop  offset="0.5567" style="stop-color:#FDD4AF"/>
		<stop  offset="1" style="stop-color:#FFB395"/>
	</linearGradient>
	<path clip-path="url(#SVGID_2_)" fill="url(#SVGID_11_)" d="M1602.57,899.247V406.092c-8-26.202-73.679-3.904-87.095,7.251
		c-8.717-33.558-25.945-73.134-67.355-74.242c-41.196-1.101-66.698,39.863-72.949,74.25c-20.548-14.957-49.174-9.09-46.425,20.373
		c-45.509-1.688-79.478,45.82-76.021,89.019c-1.404-48.825-87.223-90.127-106.155-31.711c5.667-49.865-45.202-40.853-71.073-18.045
		c-30.593,26.97-48.18,75.022-47.835,115.001c-10.771-45.465-85.228-33.784-105.685-6.873c-5.843,7.688-5.526,11.969-13.455,17.102
		c-8.818,5.707-23.288,3.236-31.722,11.169c-13.511,12.709-6.173,37.312-3.923,53.179c-28.549,2.641-50.994-10.506-102.803-0.172
		c-34.451,6.873-104.682,35.543-122.828,111.662c-32.001,104.434,42.421,126.154,39.791,125.16"/>
	
		<linearGradient id="SVGID_12_" gradientUnits="userSpaceOnUse" x1="298.7876" y1="1514.0259" x2="168.8747" y2="1904.1787" gradientTransform="matrix(0.9849 0.1729 -0.1729 0.9849 240.7168 -1038.7)">
		<stop  offset="0" style="stop-color:#FCEEA6"/>
		<stop  offset="0.5567" style="stop-color:#FDD4AF"/>
		<stop  offset="1" style="stop-color:#FFB395"/>
	</linearGradient>
	<path clip-path="url(#SVGID_2_)" fill="url(#SVGID_12_)" d="M-242.941,335.037c-0.273-22.894,73.128-12.372,85.976-5.695
		c25.592,13.299,33.291,33.457,42.662,58.269c16.483-10.921,45.723-10.354,36.956,17.397c22.693-7.992,41.176,6.17,45.733,29
		c4.229,21.202-6.06,36.279-16.754,53.452c14.037-7.617,21.184,5.853,17.657,18.312c28.697-25.693,66.445-5.38,74.379,25.864
		c20.149-29.316,48.001-51.183,84.616-50.648c28.83,0.422,61.259,20.698,66.634,50.655c7.547-16.744,44.091-17.427,38.706,7.358
		c18.167-20.507,62.17-17.563,55.465,17.161c22.804,2.08,49.821-5.337,64.83,19.178c12.012,19.621,23.091,59.121,19.375,82.557
		c11.619-2.133,22.906-10.988,35.87-12.451c18.701-2.109,38.041,5.152,53.674,14.723c29.683,18.168,64.574,44.906,77.449,78.301
		c10.729,27.826,3.257,54.041-6.547,80.047c-7.701,20.43-6.445,16.721,12.581,24.924c18.057,7.787,17.454,13.289,21.192,31.818
		c21.589-1.869,39.485-3.816,58.538,9.098c10.689,7.246,26.126,39.822,28.782,40.482l-901.935,7.248L-242.941,335.037z"/>
	
		<linearGradient id="SVGID_13_" gradientUnits="userSpaceOnUse" x1="521.6416" y1="1132.0474" x2="1038.0913" y2="615.5976" gradientTransform="matrix(1 0 0 1 638 -640.0117)">
		<stop  offset="0" style="stop-color:#FED1AD"/>
		<stop  offset="1" style="stop-color:#FEC8A7"/>
	</linearGradient>
	<path clip-path="url(#SVGID_2_)" fill="url(#SVGID_13_)" d="M1617.458,148.263c1.582,0.819-19.074,5.963-27.219,8.019
		c-14.83,3.745-28.24,8.901-40.906,18.031c-20.905,15.068-32.84,37.95-52.83,54.324c-11.053,9.054-20.134,13.03-33.262,16.531
		c-11.206,2.987-12.299,7.954-19.567,16.36c-16.995,19.651-50.748,22.283-73.681,28.75c-25.285,7.132-45.064,11.042-64.273,31.087
		c-5.123,5.347-10.111,11.951-16.492,15.498c-7.138,3.967-16.013,3.262-23.489,6.766c-13.953,6.542-27.167,13.755-41.799,19.04
		c-13.972,5.045-38.799,20.104-54.013,14.046c-15.257-6.075,18.485-18.053,24.89-21.313c6.608-3.364,13.566-6.885,19.774-11.523
		c6.811-5.091,11.408-12.998,17.882-18.057c13.463-10.521,31.374-3.197,45.384-12.449c16.522-10.911,28.984-30.707,45.59-42.882
		c14.504-10.632,31.619-18.249,48.379-22.096c12.863-2.955,29.257-0.016,40.938-8.209c12.522-8.783,8.717-27.514,19.308-39.095
		c12.395-13.549,25.594-5.779,38.222,0.144c0.432-2.349,0.69-4.882,2.02-6.886c9.595-14.449,17.394-27.231,36.287-26.049
		c8.181,0.513,13.34,5.094,18.839-3.956c3.771-6.205,3.641-15.417,5.301-22.148c4.158-16.854,17.342-28.625,34.686-24.236
		c11.863,3.004,30.951,18.831,40.729,2.25L1617.458,148.263z"/>
	
		<linearGradient id="SVGID_14_" gradientUnits="userSpaceOnUse" x1="781.5796" y1="1296.9224" x2="501.0234" y2="1190.3973" gradientTransform="matrix(1 0 0 1 638 -640.0117)">
		<stop  offset="0" style="stop-color:#FCB39D"/>
		<stop  offset="1" style="stop-color:#FBC9A7"/>
	</linearGradient>
	<path clip-path="url(#SVGID_2_)" fill="url(#SVGID_14_)" d="M1602.799,567.52c0,0-128.411,57.686-150.656,66.061
		c-22.243,8.373-53.044,13.025-26.521-5.584c26.521-18.607,59.032-37.217,59.032-37.217s-135.175,64.199-166.83,40.939
		c0,0-319.973,106.066-397.828,83.736s65.877-19.537,126.62-34.426c60.745-14.887,53.044-51.172,116.354-56.754
		c63.313-5.582,65.878-50.242,120.633-56.756c54.756-6.513,73.577,5.582,73.577,5.582s11.121-52.103,51.333-54.894
		c40.21-2.792,82.132,6.513,82.132,6.513s-2.567-46.521,43.633-54.895c46.199-8.374,68.443,9.305,68.443,9.305L1602.799,567.52z"/>
	
		<linearGradient id="SVGID_15_" gradientUnits="userSpaceOnUse" x1="-655.8447" y1="860.978" x2="-804.0851" y2="946.5646" gradientTransform="matrix(1 0 0 1 638 -640.0117)">
		<stop  offset="0" style="stop-color:#FED1AD"/>
		<stop  offset="1" style="stop-color:#F9B4A0"/>
	</linearGradient>
	<path clip-path="url(#SVGID_2_)" fill="url(#SVGID_15_)" d="M-216.789,218.731c0,0,66.954,32.727,99.518,60.779
		c32.564,28.052,130.241,90.169,170.248,95.179c40.008,5.01,4.645-5.009-22.338-25.047c-26.982-20.037-1.865-57.107-33.5-71.133
		c-31.633-14.026-44.663-12.023-44.663-12.023s3.053-44.031-39.078-62.116c-42.13-18.086-22.294-19.036-39.042-46.086
		c-16.749-27.051-58.583-55.682-91.146-26.839V218.731z"/>
	
		<linearGradient id="SVGID_16_" gradientUnits="userSpaceOnUse" x1="-2.1738" y1="1314.021" x2="-304.4649" y2="1546.6174" gradientTransform="matrix(1.1087 0.0906 -0.0814 0.9967 301.4267 -799.7607)">
		<stop  offset="0" style="stop-color:#FBC9A7"/>
		<stop  offset="1" style="stop-color:#FCB39D"/>
	</linearGradient>
	<path clip-path="url(#SVGID_2_)" fill="url(#SVGID_16_)" d="M-219.176,635.194c0.012,0.07,100.082,41.254,158.872,44.531
		c-2.705-3.008-6.597-5-10.763-7.104c-62.92-31.748-78.223-38.6-78.223-38.6s99.358,31.924,208.383,49.234
		c109.023,17.311,229.049,14.514,229.049,14.514s80.559-1.043,1.24-14.914c-50.4-8.813-102.976-2.533-152.113-17.561
		c-58.745-17.965-40.27-74.578-117.65-81.955c-34.698-3.306-27.25,3.586-50.93-18.086c-17.274-15.807-31.788-31.868-52.5-45.67
		c-31.839-21.217-136.521-31.848-136.521-31.848S-221.659,620.941-219.176,635.194z"/>
</g>
</svg>
