<?xml version="1.0" encoding="utf-8"?>
<!-- Generator: Adobe Illustrator 16.0.0, SVG Export Plug-In . SVG Version: 6.00 Build 0)  -->
<!DOCTYPE svg PUBLIC "-//W3C//DTD SVG 1.1//EN" "http://www.w3.org/Graphics/SVG/1.1/DTD/svg11.dtd">
<svg version="1.1" id="Layer_1" xmlns="http://www.w3.org/2000/svg" xmlns:xlink="http://www.w3.org/1999/xlink" x="0px" y="0px"
	 width="684.273px" height="684.273px" viewBox="0 0 684.273 684.273" enable-background="new 0 0 684.273 684.273"
	 xml:space="preserve">
<path fill="#9C8C95" d="M440.292,449.461c0,0-3.85-10.436-12.857-6.07c-3.24,1.569-5.193,16.246,7.988,27.564
	c0,0,9.688,8.496,11.875,14.422c0,0,2.666-12.248,1.418-22.086C448.716,463.291,445.116,453.094,440.292,449.461z"/>
<g>
	<g>
		<path fill="#9C8C95" d="M439.632,451.291l9.289,13.019c0,0,8.596-19.847,30.088-33.23c12.357-7.697,28.359-13.183,28.359-13.183
			s28.469-8.018-6.086-3.588C466.726,418.736,452.751,438.373,439.632,451.291z"/>
		<path fill="#9C8C95" d="M439.421,451.299l-9.365,13.083c0,0-8.863-18.685-31.215-30.579c-12.85-6.84-29.268-11.223-29.268-11.223
			s-28.947-6.066,5.828-3.994C410.181,420.658,425.454,439.301,439.421,451.299z"/>
	</g>
</g>
<path fill="#9C8C95" d="M295.077,357c0,0,1.676-8.324,8.984-6.092c2.627,0.802,5.828,11.643-2.781,21.731
	c0,0-6.307,7.548-7.26,12.274c0,0-3.453-8.923-3.668-16.491C290.353,368.423,291.866,360.308,295.077,357z"/>
<g>
	<g>
		<path fill="#9C8C95" d="M295.79,358.303l-5.473,10.913c0,0-8.82-13.958-26.606-21.522c-10.226-4.352-22.942-6.604-22.942-6.604
			s-22.416-2.696,4.168-3.423C271.522,336.938,284.374,350.104,295.79,358.303z"/>
		<path fill="#9C8C95" d="M295.95,358.283l8.604,8.766c0,0,4.486-15.136,19.943-26.738c8.889-6.672,20.756-11.91,20.756-11.91
			s21.119-7.982-4.865-2.326C314.399,331.73,305.073,347.59,295.95,358.283z"/>
	</g>
</g>
</svg>
