<?xml version="1.0" encoding="utf-8"?>
<!-- Generator: Adobe Illustrator 16.0.0, SVG Export Plug-In . SVG Version: 6.00 Build 0)  -->
<!DOCTYPE svg PUBLIC "-//W3C//DTD SVG 1.1//EN" "http://www.w3.org/Graphics/SVG/1.1/DTD/svg11.dtd">
<svg version="1.1" id="Layer_1" xmlns="http://www.w3.org/2000/svg" xmlns:xlink="http://www.w3.org/1999/xlink" x="0px" y="0px"
	 width="3836px" height="1900.988px" viewBox="0 0 3836 1900.988" enable-background="new 0 0 3836 1900.988" xml:space="preserve">
<g>
	<linearGradient id="SVGID_1_" gradientUnits="userSpaceOnUse" x1="1919.501" y1="-52.0723" x2="1919.5009" y2="1939.532">
		<stop  offset="0" style="stop-color:#90B5B3"/>
		<stop  offset="0.5699" style="stop-color:#F4B592"/>
		<stop  offset="0.8602" style="stop-color:#FBDA94"/>
	</linearGradient>
	<rect fill="url(#SVGID_1_)" width="3839" height="1786"/>
	<linearGradient id="SVGID_2_" gradientUnits="userSpaceOnUse" x1="1337.7905" y1="176.1348" x2="1337.7905" y2="856.833">
		<stop  offset="0" style="stop-color:#90B5B3"/>
		<stop  offset="1" style="stop-color:#F4B592"/>
	</linearGradient>
	<path fill="url(#SVGID_2_)" d="M776.989,185.943c31.994,21.813,82.723,49.383,116.938,83.373
		c35.009,34.779,62.725,80.924,96.084,119.37c17.779,20.488,30.725,35.334,57.006,39.563c28.205,4.538,46.764,2.739,71.41,23.415
		c16.114,13.518,26.256,34.123,45.602,45.225c27.652,15.865,51.488-3.586,84.751-4.025c75.591-0.998,82.61,36.088,98.278,100.153
		c10.145,41.48,22.51,27.514,53.994,32.308c19.621,2.987,13.549,6.672,27.746,16.229c11.897,8.01,11.93,9.738,26.26,16.078
		c18.789,8.313,21.766,7.792,39.004,25.035c15.803,15.809,29.289,28.865,51.074,33.285c33.463,6.789,59.143,4.541,89.939,25.588
		c30.05,20.535,49.14,32.059,84.009,38.861c22.621,4.412,36.667-22.092,57.091-9.412c55.82,34.652,112.545,43.99,170.623,66.059
		c-18.596,30.881-109.83,17.549-140.705,12.998c-51.889-7.65-99.742,4.151-150.015-10.687
		c-47.873-14.13-97.005-44.627-144.025-52.485c-53.412-8.927-93.56-2.141-128.409-55.02c-18.435-27.973-13.736-23.033-48.598-22.529
		c-25.822,0.371-44.615-4.463-66.162-19.305c-42.926-29.567-47.498-94.924-92.769-116.479
		c-43.503-20.714-101.919-22.569-137.353-65.253c-15.903-19.158-19.783-38.439-39.094-54.992
		c-16.892-14.478-37.471-28.236-55.26-40.481c-46.468-31.981-57.275-79.749-94.67-121.056
		c-35.586-39.307-129.682-49.941-120.301-115.019c19.15-2.804,32.07,4.63,47.551,12.435"/>
	<linearGradient id="SVGID_3_" gradientUnits="userSpaceOnUse" x1="2581.002" y1="18.9941" x2="2581.002" y2="663.9521">
		<stop  offset="0" style="stop-color:#90B5B3"/>
		<stop  offset="1" style="stop-color:#F4B592"/>
	</linearGradient>
	<path fill="url(#SVGID_3_)" d="M2380.154,18.997c-29.777,41.815,66.24,95.249,18.156,122.935
		c-20.658,11.896-39.689-9.982-57.904,15.832c-14.07,19.943-9.988,49.857,2.613,68.076c-65.42,16.952-58.369,75.477-46.207,129.166
		c27.041,119.359-99,5.664-88.129,77.027c-44.959-7.74-36.705,14.396-47.637,52.191c-15.504,53.598-33.215,3.022-65.324,26.668
		c-20.813,15.326-11.369,64.953-29.777,87.126c-16.5,19.874-52.768,28.952-75.152,22.218
		c-32.545,71.799,110.971,35.741,134.404,26.243c21.311-8.636,32.352-29.834,51.533-39.487c26.033-13.1,42.66,9.744,68.48,3.306
		c24.391-6.081,29.529-31.21,44.934-48.536c24.037-27.035,48.346-21.74,80.863-8.973c34.961,13.725,191.525,65.025,153.545-26.077
		c12.762-0.695,46.117,6.235,56.611-1.144c16.73-11.764,7.355-45.961,9.678-66.385c8.18-71.928,37.111-137.992,112.746-143.125
		c72.504-4.92,214.516,48.774,217.074-80.113c81.066-4.791,151.412,0.219,206.545-77.308
		c22.084-31.052,72.244-103.109,36.025-139.644L2380.154,18.997z"/>
	<linearGradient id="SVGID_4_" gradientUnits="userSpaceOnUse" x1="1361.9722" y1="-0.3867" x2="1361.9722" y2="601.3047">
		<stop  offset="0" style="stop-color:#90B5B3"/>
		<stop  offset="1" style="stop-color:#F4B592"/>
	</linearGradient>
	<path fill="url(#SVGID_4_)" d="M855.041-0.387c-8.536,2.088,97.557,182.054,176.152,230.697
		c35.011,21.668,69.89,30.313,107.349,39.174c37.195,8.799,39.37,16.184,62.391,48.834
		c50.786,72.027,119.563,120.578,198.728,134.099c20.771,3.548,73.708-10.675,86.906-1.395c10.944,7.696,6.597,34.359,20.442,46.101
		c11.843,10.04,23.821,6.318,38.132,7.412c65.701,5.009,100.088,29.146,156.778,60.828c57.151,31.939,106.093,47.971,167.47,25.358
		c-38.21-50.558-103.601-29.948-148.733-72.06c-39.976-37.302-39.609-91.773-100.345-93.135
		c-8.402-107.101-85.103-23.199-131.197-69.971c-38.948-39.519-7.999-120.706-85.159-130.242
		c-2.33-52.332-0.092-93.256-25.847-138.746c-22.85-40.361-48.889-64.006-79.164-84.051L855.041-0.387z"/>
	
		<linearGradient id="SVGID_5_" gradientUnits="userSpaceOnUse" x1="290.6392" y1="106.9092" x2="290.6391" y2="839.2432" gradientTransform="matrix(0.9954 -0.0959 0.0959 0.9954 443.6396 27.7056)">
		<stop  offset="0" style="stop-color:#90B5B3"/>
		<stop  offset="1" style="stop-color:#F4B592"/>
	</linearGradient>
	<path fill="url(#SVGID_5_)" d="M391.985,210.607c3.665,41.199,65.47,49.871,91.559,45.588
		c49.996-8.208,58.997,12.336,75.389,60.099c16.837-24.097,46.203-37.032,74.845-30.946c36.23,7.7,48.703,46.956,72.326,68.021
		c4.047,3.608,13.091-2.188,19.365,3.623c4.677,4.332,3.429,19.76,7.024,22.765c14.074,11.767,22.606,1.345,40.128,8.035
		c28.88,11.028,32.293,49.933,28.438,78.499c45.021-2.206,85.773,2.666,123.218,33.959c39.734,33.205,31.162,56.989,37.766,101.816
		c40.924,51.789,94.674,72.248,144.154,104.803c46.797,30.788,104.041,51.134,145.346,85.795
		c-40.416,11.143-206.168-82.551-246.123-101.215c-80.818-37.752-325.564-223.496-378.73-256.168
		c-41.499-25.504-79.946-54.82-118.99-85.028c-38.936-30.124-80.071-55.745-117.742-87.411
		c-29.625-24.904-86.249-68.094-84.394-114.428C332.767,166.725,350.514,199.537,391.985,210.607"/>
	
		<linearGradient id="SVGID_6_" gradientUnits="userSpaceOnUse" x1="2792.8857" y1="-475.1582" x2="2193.8748" y2="78.8451" gradientTransform="matrix(1.0853 0.0319 -0.0366 1.2445 -286.8648 934.915)">
		<stop  offset="0" style="stop-color:#90B5B3"/>
		<stop  offset="1" style="stop-color:#F4B592"/>
	</linearGradient>
	<path fill="url(#SVGID_6_)" d="M2124.047,946.084c57.488-7.683,121.533-11.718,172.338-27.596
		c55.971-17.49,122.184-64.277,179.244-77.928c52.521-12.566,115.27-22.97,163.063-51.028
		c23.656-13.888,65.051-83.528,90.082-92.675c27.291-9.975,56.066-22.359,83.979-29.75c18.701-4.953,34.836-12.933,49.865-27.917
		c12.01-11.976,28.42-28.899,22.188-44.281c-26.928-6.275-53.615,25.935-75.859,36.628c-27.418,13.181-93.811,8.011-121.578,5.905
		c-62.123-4.712-90.285,77.157-124.211,92.101c-15.121,6.661-27.275,18.029-42.715,10.833c-12.654-5.898-23.639-18.419-36.371-25.35
		c-61.76-33.62-115.996-17.752-161.869,36.079c-17.586,20.637-36.334,41.672-47.732,67.719c-5.74,13.114-9.701,23.753-14.02,36.442
		c-7.988,23.465-5.166,11.892-24.205,7.179c-20.875-5.168-48.105,0.912-51.707,28.321c-19.877-11.489-44.66-62.496-67.252-48.761
		c-20.16,12.256-16.02,36.18-36.991,40.471c-34.209,7-107.851,2.983-116.837,52.193
		C1982.438,949.842,2085.021,958.988,2124.047,946.084"/>
	<linearGradient id="SVGID_7_" gradientUnits="userSpaceOnUse" x1="1707.6021" y1="919.0889" x2="3892.1445" y2="919.0889">
		<stop  offset="0" style="stop-color:#F4B592"/>
		<stop  offset="1" style="stop-color:#FBDA94"/>
	</linearGradient>
	<path fill="url(#SVGID_7_)" d="M3636.963-14.115c-71.164,15.387-49.52,85.547-74.584,129.646
		c-25.039,44.056-98.189,55.456-135.988,86.498c-50.609,41.563-68.217,87.748-80.627,149.108
		c-4.691,23.209-8.188,48.153-28.432,65.142c-20.107,16.871-53.223,16.612-75.67,33.5c-29.787,22.411-37.779,64.293-56.797,93.843
		c-27.719,43.073-61.295,57.508-103.92,81.919c58.512-40.186,34.807-102.028,45.965-157.982
		c8.242-41.328,45.242-49.983,77.996-74.752c42.756-32.334,41.588-43.393,19.32-84.065c-23.131-42.247-5.328-35.825,27.008-58.7
		c33.188-23.48,7.893-47.549,32.473-72.715c10.34-10.586,37.027-10.062,50.576-18.61c12.971-8.183,30.529-25.947,37.844-39.122
		c18.037-32.492,25.918-151.404-23.246-162.725c-1.361,73.625-39.545,89.391-101.176,114.532
		c-62.176,25.362-81.17,57.532-84.4,119.445c-64.92,7.929-89.467,61.212-90.604,120.663
		c-49.875-0.467-101.715,22.434-121.217,68.979c-26.441,63.105,2.59,137.926-19.225,205.361
		c-26.227,81.063-78.209,85.422-154.273,101.02c-34.631,7.103-74.127,21.985-97.393,49.088
		c-23.572,27.459-18.654,53.699-20.717,87.634c-22.408-9.765-32.244-27.872-59.818-32.194c-35.088-5.5-71.143,4.939-100.498,22.648
		c-64.697,39.03-80.709,85.869-73.264,156.717c4.1,39.006,0.197,40.047-37.646,39.859c-31.297-0.154-52.055,4.678-76.436,25.283
		c-23.363,19.746-41.096,48.877-47.725,78.35c-6.023,26.769-1.592,48.089-30.947,57.976c-41.99,14.143-75.479-27.387-102.547-49.087
		c-34.582-27.727-71.031-29.935-109.035-9.689c-68.931,36.719-114.625,106.944-123.748,179.672
		c-66.038,10.901-109.525-53.43-157.208,16.799c-35.946,52.941-20.528,459.588-33.403,535.512l2184.542,35.873L3885.279-1.07
		L3636.963-14.115z"/>
	<linearGradient id="SVGID_8_" gradientUnits="userSpaceOnUse" x1="-26.1304" y1="896.8359" x2="2243" y2="896.8359">
		<stop  offset="0" style="stop-color:#F4B592"/>
		<stop  offset="1" style="stop-color:#FBDA94"/>
	</linearGradient>
	<path fill="url(#SVGID_8_)" d="M-26.13-154.393c62.252,0.191,148.51,40.898,163.073,115.039
		c5.331,27.138-7.517,57.002-7.578,79.225c-0.101,36.27,21.369,43.702,53.011,55.958c52.016,20.146,84.122,48.788,49.7,109.606
		c-3.924,6.932-19.341,22.943-19.716,30.531c-1.312,26.536,7.923,12.733,22.314,27.106c20.789,20.764,35.649,36.878,42.106,67.099
		c5.561,26.037-8.351,56.429,10.516,75.831c19.447,20,63.365,13.612,77.62-9.415c32.05-51.773-65.355-106.49-58.228-160.014
		c20.941-2.08,35.419,32.963,47.653,49.054c17.683,23.255,36.481,41.644,62.629,55.958c58.697,32.133,111.681,45.096,158.839,97.529
		c44.833,49.845,62.145,102.666,121.356,137.601c20.733,12.233,63.861,26.961,78.27,46.286
		c27.662,37.104-23.194,19.191-42.599,14.045c-39.045-10.357-76.57-22.512-110.607-48.917
		c-37.546-29.129-71.308-77.691-122.746-69.015c21.019,13.522,19.025,51.021,35.66,72.594
		c15.954,20.688,34.435,38.656,54.674,55.001c46.341,37.428,101.318,22.998,156.22,32.251c25.481,4.295,57.27,14.621,78.246,34.489
		c44.478,42.128,31.935,52.96,93.702,42.505c47.245-7.998,100.463,1.008,139.959,31.379c22.328,17.169,42.474,35.99,59.9,59.949
		c8.292,11.4,12.347,30.939,24.114,38.779c20.816,13.869,6.59,3.479,28.79-2.024c35.118-8.706,53.124-23.965,89.197-4.437
		c32.526,17.607,39.046,52.16,65.793,75.477c33.647,29.332,36.959-5.807,77.096,3.042c29.719,6.551,41.845,39.378,72.014,40.153
		c22.789,0.585,44.817-16.406,72-13.145c26.33,3.158,51.21,14.273,75.793,24.9c56.618,24.473,105.306,57.193,153.21,97.984
		c36.277,30.891,98.896,108.854,98.896,108.854s141.37-33.826,252.051,69.832c64.203,60.13,79.743,132.669,116.203,646.237
		c-69.311,30.777-514.935,5.063-589.621,5.063c-154.923,0-309.846,0-464.769,0c-324.558,0-649.115,0-973.672,0
		c-78.345,0-156.69,0-235.036,0L-26.13-154.393z"/>
	<linearGradient id="SVGID_9_" gradientUnits="userSpaceOnUse" x1="2700.1982" y1="1045.8848" x2="3196.4104" y2="1905.3496">
		<stop  offset="0" style="stop-color:#FBF596"/>
		<stop  offset="0.6075" style="stop-color:#FCDBA0"/>
		<stop  offset="0.9946" style="stop-color:#FCBE86"/>
	</linearGradient>
	<path fill="url(#SVGID_9_)" d="M3885.279,1900.67l4.566-1027.745c-17.197-56.323-158.375-8.394-187.217,15.588
		c-18.736-72.135-55.768-157.208-144.783-159.588c-88.555-2.367-143.373,85.687-156.811,159.603
		c-44.17-32.15-105.701-19.538-99.793,43.793c-97.824-3.628-170.84,98.493-163.41,191.353
		c-3.021-104.952-187.494-193.735-228.193-68.164c12.184-107.192-97.164-87.817-152.775-38.79
		c-65.762,57.973-103.566,161.265-102.824,247.203c-23.154-97.732-183.203-72.621-227.176-14.776
		c-12.563,16.528-11.881,25.73-28.924,36.762c-18.955,12.268-50.059,6.956-68.186,24.008c-29.043,27.319-13.27,80.203-8.434,114.313
		c-61.367,5.673-128.021-17.202-188.457,4.519c-71.064,25.541-172.467,72.182-204,145.068
		c-44.66,103.233-1.365,361.245-7.018,359.11"/>
	
		<linearGradient id="SVGID_10_" gradientUnits="userSpaceOnUse" x1="1878.5913" y1="939.3857" x2="1599.3345" y2="1778.0468" gradientTransform="matrix(0.9849 0.1729 -0.1729 0.9849 -655.4982 -166.3569)">
		<stop  offset="0" style="stop-color:#FBF596"/>
		<stop  offset="0.6075" style="stop-color:#FCDBA0"/>
		<stop  offset="0.9946" style="stop-color:#FCBE86"/>
	</linearGradient>
	<path fill="url(#SVGID_10_)" d="M-77.213,720.185c-0.59-49.212,157.194-26.594,184.809-12.243
		c55.013,28.588,71.563,71.918,91.708,125.254c35.43-23.475,98.282-22.258,79.44,37.398c48.779-17.18,88.511,13.263,98.304,62.336
		c9.094,45.574-13.024,77.984-36.015,114.899c30.177-16.373,45.539,12.582,37.957,39.363
		c61.689-55.229,142.83-11.565,159.884,55.597c43.312-63.016,103.185-110.022,181.888-108.871
		c61.969,0.906,131.677,44.49,143.235,108.887c16.222-35.995,94.776-37.461,83.201,15.816
		c39.05-44.081,133.639-37.752,119.225,36.888c49.019,4.47,107.094-11.472,139.356,41.224
		c25.822,42.178,49.635,127.084,41.646,177.464c24.976-4.587,49.239-23.619,77.106-26.764c40.2-4.536,81.771,11.074,115.376,31.646
		c63.803,39.054,138.805,96.53,166.484,168.315c23.063,59.813,7,116.161-14.075,172.065c-16.553,43.914-13.853,35.943,27.043,53.576
		c38.816,16.736,37.521,28.565,45.556,68.396c46.407-4.021,84.876-8.202,125.83,19.557c22.979,15.576,56.161,85.6,61.87,87.02
		l-1938.771,15.579L-77.213,720.185z"/>
	<linearGradient id="SVGID_11_" gradientUnits="userSpaceOnUse" x1="2937.7373" y1="1057.666" x2="4047.8884" y2="-52.4852">
		<stop  offset="0" style="stop-color:#FCDBA0"/>
		<stop  offset="0.3106" style="stop-color:#FCD69D"/>
		<stop  offset="0.6668" style="stop-color:#FCC893"/>
		<stop  offset="0.9946" style="stop-color:#FCB586"/>
	</linearGradient>
	<path fill="url(#SVGID_11_)" d="M3921.846,318.703c3.402,1.762-41.002,12.816-58.508,17.237
		c-31.877,8.05-60.705,19.134-87.93,38.758c-44.938,32.39-70.594,81.575-113.563,116.774c-23.76,19.463-43.279,28.008-71.498,35.534
		c-24.088,6.423-26.436,17.097-42.064,35.167c-36.531,42.242-109.086,47.9-158.381,61.803
		c-54.354,15.33-96.869,23.734-138.16,66.823c-11.012,11.493-21.734,25.687-35.451,33.313c-15.344,8.531-34.42,7.013-50.492,14.546
		c-29.994,14.063-58.398,29.568-89.85,40.926c-30.033,10.846-83.402,43.214-116.104,30.193
		c-32.795-13.057,39.736-38.804,53.502-45.812c14.205-7.232,29.164-14.8,42.506-24.771c14.641-10.943,24.523-27.94,38.438-38.814
		c28.939-22.617,67.441-6.873,97.555-26.76c35.516-23.454,62.307-66.007,98-92.176c31.178-22.857,67.967-39.226,103.994-47.499
		c27.65-6.35,62.889-0.034,88-17.646c26.918-18.88,18.736-59.144,41.504-84.037c26.641-29.126,55.014-12.423,82.16,0.308
		c0.926-5.047,1.484-10.496,4.342-14.8c20.623-31.06,37.387-58.536,78-55.994c17.584,1.101,28.674,10.95,40.496-8.504
		c8.105-13.339,7.824-33.14,11.395-47.609c8.936-36.231,37.277-61.533,74.555-52.097c25.504,6.457,66.535,40.479,87.555,4.836
		L3921.846,318.703z"/>
	<linearGradient id="SVGID_12_" gradientUnits="userSpaceOnUse" x1="3060.8682" y1="1201.9951" x2="3339.5337" y2="1480.6605">
		<stop  offset="0" style="stop-color:#FCDBA0"/>
		<stop  offset="0.9946" style="stop-color:#FCB586"/>
	</linearGradient>
	<path fill="url(#SVGID_12_)" d="M3890.334,1219.925c0,0-276.029,124-323.844,142c-47.816,18-114.021,28-57.012-12
		c57.012-40,126.895-80,126.895-80s-290.568,138-358.613,88c0,0-687.805,228-855.16,180c-167.354-48,141.607-42,272.18-74
		s114.021-110,250.111-122s141.607-108,259.307-122s158.158,12,158.158,12s23.908-112,110.344-118c86.434-6,176.549,14,176.549,14
		s-5.518-100,93.791-118s147.123,20,147.123,20L3890.334,1219.925z"/>
	<linearGradient id="SVGID_13_" gradientUnits="userSpaceOnUse" x1="406.6465" y1="474.9805" x2="87.9905" y2="658.9566">
		<stop  offset="0" style="stop-color:#FCDBA0"/>
		<stop  offset="0.3259" style="stop-color:#FCD39B"/>
		<stop  offset="0.8249" style="stop-color:#FCBE8C"/>
		<stop  offset="0.9946" style="stop-color:#FCB586"/>
	</linearGradient>
	<path fill="url(#SVGID_13_)" d="M-21,470.18c0,0,143.923,70.347,213.923,130.648c70,60.301,279.961,193.824,365.961,204.592
		c86,10.769,9.981-10.768-48.019-53.84s-4.01-122.756-72.01-152.906s-96.005-25.844-96.005-25.844s6.561-94.648-84.001-133.523
		c-90.563-38.877-47.925-40.919-83.925-99.066S49,220.549-21,282.549V470.18z"/>
	
		<linearGradient id="SVGID_14_" gradientUnits="userSpaceOnUse" x1="1109.7827" y1="1030.2588" x2="459.9869" y2="1530.2411" gradientTransform="matrix(1.1087 0.0906 -0.0814 0.9967 -288.7091 -31.7075)">
		<stop  offset="0" style="stop-color:#FCDBA0"/>
		<stop  offset="0.9946" style="stop-color:#FCB586"/>
	</linearGradient>
	<path fill="url(#SVGID_14_)" d="M-26.13,1365.393c0.026,0.152,215.132,88.681,341.506,95.723
		c-5.813-6.466-14.18-10.746-23.135-15.266c-135.25-68.247-168.145-82.975-168.145-82.975s213.578,68.625,447.932,105.834
		c234.354,37.21,492.358,31.197,492.358,31.197s173.168-2.24,2.667-32.056c-108.339-18.946-221.354-5.446-326.978-37.748
		c-126.276-38.618-86.56-160.315-252.898-176.168c-74.585-7.108-58.577,7.708-109.48-38.879
		c-37.129-33.98-68.329-68.503-112.852-98.173c-68.438-45.606-293.46-68.458-293.46-68.458S-31.467,1334.757-26.13,1365.393z"/>
</g>
</svg>
