<?xml version="1.0" encoding="utf-8"?>
<!-- Generator: Adobe Illustrator 16.0.0, SVG Export Plug-In . SVG Version: 6.00 Build 0)  -->
<!DOCTYPE svg PUBLIC "-//W3C//DTD SVG 1.1//EN" "http://www.w3.org/Graphics/SVG/1.1/DTD/svg11.dtd">
<svg version="1.1" id="Layer_4" xmlns="http://www.w3.org/2000/svg" xmlns:xlink="http://www.w3.org/1999/xlink" x="0px" y="0px"
	 width="400px" height="400px" viewBox="0 0 400 400" enable-background="new 0 0 400 400" xml:space="preserve">
<g>
	<path fill="#EDEEF1" d="M177.8,138.991c0,0-27.488,37.766-29.678,42.475c-1.926,4.133,18.69,16.532,20.656,16.321
		c2.633-0.281,28.781-34.196,28.781-34.196l91.523,66.614l37.859-49.553l-63.761-49.574l-6.572,7.205c0,0-35.413-1.929-36.957-2.185
		C218.106,135.84,177.8,138.991,177.8,138.991z"/>
	<path fill="#EDEEF1" d="M146.881,256.549c-1.042,1.455-3.693,1.359-5.928-0.216l-12.161-8.559
		c-2.234-1.578-3.208-4.038-2.171-5.496l16.693-23.24c1.042-1.459,3.694-1.36,5.935,0.216l12.156,8.559
		c2.234,1.58,3.209,4.037,2.174,5.496L146.881,256.549z"/>
	<path fill="#EDEEF1" d="M169.515,274.841c-0.997,1.389-3.676,1.209-5.991-0.409l-12.559-8.792c-2.313-1.616-3.379-4.06-2.386-5.452
		l24.123-33.457c0.998-1.395,3.682-1.209,5.994,0.405l12.56,8.795c2.31,1.616,3.375,4.059,2.382,5.452L169.515,274.841z"/>
	<path fill="#EDEEF1" d="M190.749,289.964c-1.14,1.617-4.063,1.511-6.521-0.229l-10.402-7.36c-2.462-1.746-3.526-4.466-2.392-6.082
		l21.137-29.596c1.142-1.614,4.063-1.507,6.525,0.238l10.396,7.36c2.463,1.741,3.531,4.461,2.394,6.074L190.749,289.964z"/>
	<path fill="#EDEEF1" d="M210.023,302.858c-1.147,1.607-4.335,1.317-7.126-0.665l-6.745-4.772c-2.792-1.975-4.135-4.885-2.991-6.5
		l12.866-17.923c1.142-1.608,4.333-1.321,7.125,0.661l6.743,4.772c2.794,1.978,4.136,4.892,2.988,6.503L210.023,302.858z"/>
	<path fill="none" stroke="#EDEEF1" stroke-width="7" stroke-miterlimit="10" d="M120.733,121.758l-30.985-21.71l-43.986,64.022
		l30.985,21.714L120.733,121.758z"/>
	<path fill="none" stroke="#EDEEF1" stroke-width="7" stroke-miterlimit="10" d="M288.478,229.265l-46.041-30.108l-38.785-34.491
		l16.021-17.112l-45.882-3.369v0.001l-42.214-14.312L88.016,193.44l56.585,51.715l28.567,15.698l44.692,29.221
		c3.147,2.063,7.044,1.67,8.684-0.869l3.973-6.143c1.644-2.546,0.417-6.277-2.729-8.337l-31.99-20.922l2.072-2.432l42.155,27.564
		c2.675,1.749,5.89,1.569,7.171-0.402l5.403-8.361c1.276-1.976,0.144-5-2.544-6.752l-40.085-26.219l2.318-2.722l48.803,31.916
		c2.43,1.589,5.428,1.271,6.71-0.711l6.946-10.738c1.279-1.981,0.352-4.869-2.077-6.454l-46.429-30.358l2.236-2.616l48.426,31.66
		c3.336,2.175,7.069,2.341,8.345,0.364l6.95-10.745C293.474,234.816,291.809,231.445,288.478,229.265z"/>
	<ellipse fill="#EDEEF1" cx="69.935" cy="159.498" rx="6.822" ry="6.75"/>
	<path fill="#EDEEF1" d="M290.938,96.104l-23.893,30.756l63.298,49.173l23.895-30.753L290.938,96.104z M330.409,157.559
		c-3.768,0-6.821-3.024-6.821-6.753s3.054-6.751,6.821-6.751c3.771,0,6.823,3.022,6.823,6.751S334.18,157.559,330.409,157.559z"/>
</g>
</svg>
