<?xml version="1.0" encoding="utf-8"?>
<!-- Generator: Adobe Illustrator 16.0.0, SVG Export Plug-In . SVG Version: 6.00 Build 0)  -->
<!DOCTYPE svg PUBLIC "-//W3C//DTD SVG 1.1//EN" "http://www.w3.org/Graphics/SVG/1.1/DTD/svg11.dtd">
<svg version="1.1" xmlns="http://www.w3.org/2000/svg" xmlns:xlink="http://www.w3.org/1999/xlink" x="0px" y="0px" width="500px"
	 height="500px" viewBox="0 0 500 500" enable-background="new 0 0 500 500" xml:space="preserve">
<g id="Layer_2">
</g>
<g id="Layer_1">
	<g>
		<rect x="23.635" y="376.715" fill="none" stroke="#FFFFFF" stroke-width="8" stroke-miterlimit="10" width="100" height="51"/>
		<rect x="78.635" y="311.715" fill="none" stroke="#FFFFFF" stroke-width="8" stroke-miterlimit="10" width="100" height="51"/>
		<rect x="191.635" y="311.715" fill="none" stroke="#FFFFFF" stroke-width="8" stroke-miterlimit="10" width="100" height="51"/>
		<rect x="252.635" y="376.715" fill="none" stroke="#FFFFFF" stroke-width="8" stroke-miterlimit="10" width="100" height="51"/>
		<rect x="138.635" y="376.715" fill="none" stroke="#FFFFFF" stroke-width="8" stroke-miterlimit="10" width="100" height="51"/>
		<rect x="306.635" y="311.715" fill="none" stroke="#FFFFFF" stroke-width="8" stroke-miterlimit="10" width="100" height="51"/>
		<rect x="367.635" y="376.715" fill="none" stroke="#FFFFFF" stroke-width="8" stroke-miterlimit="10" width="100" height="51"/>
		<g>
			
				<rect x="284.761" y="116.286" transform="matrix(0.8255 0.5644 -0.5644 0.8255 141.9704 -167.8336)" fill="none" stroke="#FFFFFF" stroke-width="8" stroke-miterlimit="10" width="115.339" height="58.824"/>
			<path fill="#FFFFFF" d="M328.707,99.699l-14.942,21.974l12.055,8.661l7.702-12.046l10.351-7.214l55.705,37.488l17.96-26.875
				l-33.788-26.887l-2.893,3.269c0,0-22.982-3.131-23.896-3.283C356.047,94.634,328.707,99.699,328.707,99.699z"/>
			<path fill="#FFFFFF" d="M311.223,174.59c-0.635,0.984-2.366,1-3.868,0.033l-8.167-5.246c-1.501-0.967-2.207-2.549-1.575-3.533
				l13.364-20.797c0.634-0.983,2.366-0.999,3.87-0.033l8.165,5.247c1.502,0.967,2.208,2.547,1.576,3.533L311.223,174.59z"/>
			<path fill="#FFFFFF" d="M326.476,185.568c-0.589,0.916-2.284,0.877-3.788-0.089l-8.165-5.246
				c-1.502-0.966-2.243-2.494-1.655-3.41l17.428-27.116c0.59-0.918,2.286-0.877,3.789,0.088l8.164,5.248
				c1.502,0.966,2.244,2.492,1.654,3.409L326.476,185.568z"/>
			<path fill="#FFFFFF" d="M340.406,194.798c-0.633,0.986-2.364,1.002-3.866,0.035l-6.352-4.079
				c-1.503-0.967-2.206-2.55-1.576-3.535l14.895-23.172c0.633-0.985,2.363-1,3.866-0.035l6.352,4.082
				c1.502,0.967,2.206,2.548,1.575,3.531L340.406,194.798z"/>
			<path fill="#FFFFFF" d="M352.815,202.58c-0.635,0.982-2.531,0.894-4.235-0.203l-4.119-2.646
				c-1.705-1.096-2.576-2.783-1.943-3.769l10.311-16.043c0.632-0.983,2.528-0.895,4.234,0.203l4.118,2.646
				c1.705,1.096,2.577,2.785,1.942,3.769L352.815,202.58z"/>
			<path fill="#FFFFFF" d="M398.195,72.092L384.04,90.313l37.5,29.133l14.156-18.222L398.195,72.092z M421.646,107.817
				c-2.271,0-4.109-1.567-4.109-3.501s1.839-3.5,4.109-3.5c2.27,0,4.109,1.566,4.109,3.5S423.916,107.817,421.646,107.817z"/>
		</g>
		<g>
			
				<rect x="75.016" y="168.567" transform="matrix(0.9116 -0.411 0.411 0.9116 -68.7142 68.5293)" fill="none" stroke="#FFFFFF" stroke-width="8" stroke-miterlimit="10" width="100" height="51.001"/>
			<path fill="#FFFFFF" d="M87.876,121.161l-14.088-18.272l-37.607,28.993l14.087,18.272L87.876,121.161z M47.41,134.9
				c0.57-2.197,2.548-3.585,4.42-3.099c1.873,0.485,2.926,2.658,2.357,4.855c-0.57,2.199-2.546,3.585-4.42,3.101
				C47.897,139.271,46.842,137.099,47.41,134.9z"/>
			<path fill="#FFFFFF" d="M166.248,212.865l-20.62-25.24l-15.738-26.418l12.11-6.799l-25.313-10.109v0.001l-20.811-15.485
				l-34.235,27.613l20.502,39.68l13.328,13.975l20.015,24.497c1.41,1.729,3.68,2.203,5.063,1.061l3.341-2.758
				c1.383-1.144,1.359-3.47-0.05-5.196l-14.329-17.539l1.608-1.002l18.877,23.107c1.2,1.467,3.047,1.941,4.123,1.055l4.548-3.754
				c1.074-0.889,0.973-2.799-0.229-4.271l-17.952-21.977l1.797-1.121l21.856,26.753c1.086,1.331,2.84,1.688,3.916,0.8l5.845-4.824
				c1.076-0.89,1.069-2.687-0.02-4.018l-20.792-25.449l1.731-1.078l21.687,26.543c1.493,1.826,3.573,2.586,4.649,1.699l5.846-4.826
				C168.076,216.893,167.738,214.691,166.248,212.865z"/>
		</g>
		<rect x="141.635" y="248.715" fill="none" stroke="#FFFFFF" stroke-width="8" stroke-miterlimit="10" width="100" height="51"/>
	</g>
</g>
</svg>
