<?xml version="1.0" encoding="utf-8"?>
<!-- Generator: Adobe Illustrator 16.0.0, SVG Export Plug-In . SVG Version: 6.00 Build 0)  -->
<!DOCTYPE svg PUBLIC "-//W3C//DTD SVG 1.1//EN" "http://www.w3.org/Graphics/SVG/1.1/DTD/svg11.dtd">
<svg version="1.1" id="Layer_1" xmlns="http://www.w3.org/2000/svg" xmlns:xlink="http://www.w3.org/1999/xlink" x="0px" y="0px"
	 width="775.054px" height="1215px" viewBox="0 0 775.054 1215" enable-background="new 0 0 775.054 1215" xml:space="preserve">
<g id="Layer_2">
	<path fill="#ABA5BB" d="M72.387,448c210,27,411.999,25,620.999-2c26.545-3.123,47.873-7.454,73.406-11.111l-16.99-11.414
		l-154.346-56.159l-59.172-130.764l-60.439-57.679L406.011,8.441l-30.228,93.689l-39.424,0.04l-51.456,74.187l-58.701-14.253
		l-13.438,98.316l-89.377,39.471l-1,2.704L6.493,441.361l0.04,0.302c7.294,1.946,14.574,2.878,21.868,4.337
		C43.401,450,57.387,446,72.387,448z"/>
	<path fill="#ABA5BB" d="M693.386,446c-209,27-431.451,21.277-620.999,2c-15.055-1.531-58.588-4.391-65.882-6.337L82.56,778.292
		l47.991,16.66l36.621,148.085l80.582,28.096l133.402,233.964l132.546-127.441l11.424-95.184l48.084,12.65l39.387-94.14
		l20.594-12.672l14.33-132.32l23.162,36.806l97.373-356.549l-1.262-1.358C741.259,438.546,719.931,442.877,693.386,446z"/>
</g>
<g id="Layer_1_1_">
	<g id="XMLID_1_">
		<g>
			<polygon fill="#B6B6C8" points="530.137,945.69 530.137,945.7 530.077,946.11 525.126,982.47 513.707,1077.65 436.086,644.27 
				436.086,644.26 405.307,472.41 547.067,640.25 			"/>
			<polygon fill="#9F9AAF" points="436.086,644.27 365.987,964.01 365.937,963.89 247.757,971.14 247.757,971.13 			"/>
			<polygon fill="#ABA5BB" points="405.307,472.41 436.086,644.26 181.507,457.66 181.527,457.66 237.827,463.42 			"/>
			<polygon fill="#B6B6C8" points="436.086,644.26 436.086,644.27 247.757,971.13 321.347,646.45 321.517,646.45 181.507,457.66 			
				"/>
			<polygon fill="#8F8B9E" points="130.917,794.13 181.507,457.66 181.507,924.79 181.497,924.94 167.177,943.04 166.947,943.09 
				130.907,795.07 130.917,795.07 131.037,794.63 			"/>
			<polygon fill="#E9E9F0" points="181.507,924.79 181.507,457.66 286.007,797.75 247.757,971.13 247.747,971.13 			"/>
			<polygon fill="#9F9AAF" points="321.347,646.45 247.757,971.13 286.007,797.75 181.507,457.66 321.517,646.45 			"/>
			<path fill="#F4F7F9" d="M592.796,357.16l0.021,0.03L592.796,357.16z"/>
			<polygon fill="#F4F7F9" points="773.057,436.25 755.927,490.14 755.927,490.17 671.997,793.67 671.677,794.77 592.836,457.09 			
				"/>
			<polygon fill="#B6B6C8" points="773.057,436.25 592.836,457.09 464.157,448.92 464.147,448.92 410.437,445.51 478.897,394.69 
				751.807,423.48 751.827,423.48 			"/>
			<polygon fill="#F4F7F9" points="751.827,423.48 751.807,423.48 478.897,394.69 599.457,367.32 599.467,367.31 			"/>
			<polygon fill="#ABA5BB" points="671.997,793.67 671.677,794.8 647.517,755.99 547.067,640.25 464.157,448.92 592.836,457.09 
				671.677,794.77 			"/>
			<polygon fill="#9F9AAF" points="547.067,640.25 647.517,755.99 633.187,888.31 613.017,900.72 612.597,900.04 			"/>
			<polygon fill="#ABA5BB" points="612.597,900.04 613.017,900.72 612.597,900.98 573.207,995.12 573.197,995.12 530.137,945.7 
				530.137,945.69 547.067,640.25 			"/>
			<polygon fill="#B6B6C8" points="592.817,357.19 599.457,367.32 478.897,394.69 492.007,236.46 592.796,357.16 			"/>
			<polygon fill="#F4F7F9" points="538.287,236.55 592.796,357.16 492.007,236.46 428.887,204.54 428.857,204.28 428.887,204.31 
				428.857,204.25 408.017,8.45 477.847,178.87 477.857,178.87 			"/>
			<polygon fill="#838191" points="530.137,945.7 573.197,995.12 525.137,982.47 525.126,982.47 530.077,946.11 			"/>
			<polygon fill="#E9E9F0" points="464.157,448.92 547.067,640.25 405.307,472.41 464.147,448.92 			"/>
			<polygon fill="#838191" points="513.707,1077.65 446.737,1141.31 381.777,1205.42 381.157,1206.04 380.747,1205.33 
				381.157,1205.1 428.397,1125.49 429.287,1124 			"/>
			<polygon fill="#ABA5BB" points="492.007,236.46 478.897,394.69 410.437,445.51 403.397,431.62 355.547,328.47 355.187,327.73 			
				"/>
			<polygon fill="#B6B6C8" points="492.007,236.46 355.187,327.73 354.957,327.24 428.887,204.54 			"/>
			<polygon fill="#F4F7F9" points="464.147,448.92 405.307,472.41 237.827,463.42 181.527,457.66 301.797,437.05 410.437,445.51 			
				"/>
			<polygon fill="#9F9AAF" points="365.987,964.01 429.287,1124 428.397,1125.49 381.157,1205.1 365.907,964.36 			"/>
			<polygon fill="#ABA5BB" points="428.857,204.28 428.887,204.54 354.957,327.24 284.907,176.36 286.137,174.58 336.357,102.17 
				336.387,102.13 336.397,102.13 336.597,102.13 			"/>
			<polygon fill="#E9E9F0" points="428.857,204.25 428.857,204.28 336.597,102.13 375.787,102.13 375.827,101.99 			"/>
			<polygon fill="#B6B6C8" points="408.017,8.45 428.857,204.25 375.827,101.99 			"/>
			<polygon fill="#E9E9F0" points="403.397,431.62 410.437,445.51 301.797,437.05 122.277,298.89 212.707,260.42 302.427,427.94 
				226.207,162.1 226.267,161.68 284.907,176.36 354.957,327.24 355.187,327.73 355.547,328.47 			"/>
			<polygon fill="#8F8B9E" points="365.907,964.36 381.157,1205.1 380.747,1205.33 247.747,971.14 247.757,971.14 365.937,963.89 
				365.987,964.01 			"/>
			<polygon fill="#B6B6C8" points="226.207,162.1 302.427,427.94 212.707,260.42 			"/>
			<polygon fill="#ABA5BB" points="301.797,437.05 181.527,457.66 5.387,439.62 122.277,298.89 			"/>
			<rect x="247.747" y="971.13" fill="#586490" width="0.01" height="0.01"/>
			<polygon fill="#838191" points="247.747,971.13 247.747,971.14 167.167,943.98 166.947,943.09 167.177,943.04 181.497,924.94 
				181.507,924.79 			"/>
			<polygon fill="#9F9AAF" points="5.387,439.62 181.527,457.66 181.507,457.66 130.917,794.13 131.037,794.63 130.917,795.07 
				23.367,490.45 			"/>
			<polygon fill="#8F8B9E" points="23.367,490.45 130.917,795.07 130.907,795.07 130.547,794.95 99.937,784.64 82.557,778.29 
				5.387,439.62 			"/>
		</g>
		<g>
		</g>
	</g>
</g>
</svg>
