<?xml version="1.0" encoding="utf-8"?>
<!-- Generator: Adobe Illustrator 16.0.0, SVG Export Plug-In . SVG Version: 6.00 Build 0)  -->
<!DOCTYPE svg PUBLIC "-//W3C//DTD SVG 1.1//EN" "http://www.w3.org/Graphics/SVG/1.1/DTD/svg11.dtd">
<svg version="1.1" xmlns="http://www.w3.org/2000/svg" xmlns:xlink="http://www.w3.org/1999/xlink" x="0px" y="0px" width="500px"
	 height="500px" viewBox="0 0 500 500" enable-background="new 0 0 500 500" xml:space="preserve">
<g id="Layer_2">
</g>
<g id="Layer_1">
	<g>
		<path fill="#FFFFFF" d="M191.635,243.117c0,1.587-1.857,2.598-3.997,2.598h-27.109c-2.139,0-3.895-1.011-3.895-2.598v-0.959
			c0-1.588,1.756-2.443,3.895-2.443h27.109c2.139,0,3.997,0.855,3.997,2.443V243.117z"/>
	</g>
	<g>
		<g>
			<polygon fill="#FFFFFF" points="166.045,275.88 173.229,322.073 181.005,275.471 174.229,271.437 183.461,258.715 
				162.999,258.715 171.979,271.436 			"/>
		</g>
		<g>
			<path fill="#FFFFFF" d="M231.119,290.58c-3.937-12.498-7.398-23.479-7.398-23.479l-28.086-14.323v28.646l-23.431,48.016
				l-20.569-48.016v-28.646l-27.466,14.323l-8.624,27.599l-5.708,16.135l61.988,67.056l65.666-63.976"/>
		</g>
	</g>
	<polygon fill="#FFFFFF" points="465,197 365,224 394.151,251.461 315.475,321.526 288.525,293.579 170.772,406.283 76.789,310.926 
		63.211,322.742 169.044,431.717 287.475,318.421 314.525,346.474 407.304,263.852 434,289 	"/>
	<path fill="#FFFFFF" d="M215.613,170.288c-4.756-22.549-20.037-35.573-41.938-35.573c-0.052,0-0.107,0-0.159,0
		c-22.829,0-38.491,13.424-42.972,36.466c-4.594,23.627,4.123,50.507,18.288,56.28c3.646,1.486,3.589,3.593,3.485,4.204l0.021-0.099
		l1.214,0.29c-1.78,0.331-3.917,1.23-3.917,2.477v0.958c0,1.588,3.474,2.424,5.252,2.424h38.623c1.777,0,2.125-0.836,2.125-2.424
		v-0.958c0-0.753-0.084-1.375-0.356-1.826l0.232-0.01c-0.001-0.036-0.013-3.646,1.903-4.485
		C211.961,221.639,220.635,194.098,215.613,170.288z M169.198,231.715l-9.686-38.442c0.085-0.034,0.172-0.069,0.249-0.09
		c0.216,0.861,0.62,2.005,1.614,3.136c1.588,1.807,3.365,2.699,5.261,2.615c3.041-0.113,4.906-2.583,6.269-4.387
		c0.357-0.473,0.871-1.154,1.187-1.461c0.234,0.325,0.52,0.798,0.73,1.149c0.908,1.506,2.852,4.733,6.474,4.733
		c0.631,0,1.313-0.098,2.049-0.32c1.023-0.308,1.806-0.896,2.452-1.557l-7.466,34.549l0.348,0.075H169.198z M194.605,221.646
		c-4.549,1.993-5.933,6.852-6.081,10.068h-3.047l9.387-43.439l-6.842-1.479l-0.067,0.312c-0.539,0.037-1.122,0.138-1.755,0.321
		c-2.361,0.679-3.703,2.513-4.684,3.852c-0.048,0.065-0.101,0.138-0.156,0.212c-0.187-0.285-0.384-0.612-0.541-0.872
		c-1.091-1.811-3.987-6.618-9.698-3.918c-1.656,0.784-2.796,2.293-3.801,3.625c-0.221,0.292-0.516,0.683-0.797,1.026
		c-0.016-0.07-0.034-0.153-0.055-0.251c-0.253-1.193-0.924-4.363-5.448-4.912c-1.194-0.145-2.26,0.001-3.22,0.28l-0.015-0.057
		l-6.788,1.71l10.983,43.59h-2.646c0.126-3.181-1.354-8.137-7.86-10.789c-9.846-4.012-18.312-26.529-14.058-48.408
		c2.223-11.433,9.872-30.803,36.12-30.803c0.049,0,0.095,0,0.144,0c25.03,0,32.727,18.834,35.084,30.014
		C213.013,191.877,206,216.653,194.605,221.646z"/>
	<g>
		
			<rect x="199.5" y="93.688" transform="matrix(0.9785 0.2061 -0.2061 0.9785 26.6625 -39.507)" fill="#FFFFFF" width="7" height="29.125"/>
	</g>
	<g>
		
			<rect x="222.102" y="104.941" transform="matrix(0.7296 0.6839 -0.6839 0.7296 143.6837 -121.6048)" fill="#FFFFFF" width="6.999" height="31.869"/>
	</g>
	<g>
		
			<rect x="235.409" y="128.155" transform="matrix(0.3362 0.9418 -0.9418 0.3362 292.4808 -130.6298)" fill="#FFFFFF" width="7" height="28.03"/>
	</g>
</g>
</svg>
