<?xml version="1.0" encoding="utf-8"?>
<!-- Generator: Adobe Illustrator 16.0.0, SVG Export Plug-In . SVG Version: 6.00 Build 0)  -->
<!DOCTYPE svg PUBLIC "-//W3C//DTD SVG 1.1//EN" "http://www.w3.org/Graphics/SVG/1.1/DTD/svg11.dtd">
<svg version="1.1" id="Layer_1" xmlns="http://www.w3.org/2000/svg" xmlns:xlink="http://www.w3.org/1999/xlink" x="0px" y="0px"
	 width="3836px" height="4241px" viewBox="0 0 3836 4241" enable-background="new 0 0 3836 4241" xml:space="preserve">
<linearGradient id="SVGID_1_" gradientUnits="userSpaceOnUse" x1="1809.9038" y1="2864.4268" x2="1809.9038" y2="1705.4482" gradientTransform="matrix(0.9837 0.18 -0.18 0.9837 123.8401 -226.6704)">
	<stop  offset="0" style="stop-color:#1D4759"/>
	<stop  offset="0.1811" style="stop-color:#1A5261;stop-opacity:0.8189"/>
	<stop  offset="0.4991" style="stop-color:#116F75;stop-opacity:0.5009"/>
	<stop  offset="0.9138" style="stop-color:#039E96;stop-opacity:0.0862"/>
	<stop  offset="1" style="stop-color:#00A99D;stop-opacity:0"/>
</linearGradient>
<path fill="url(#SVGID_1_)" d="M1013.542,1904.774c32.437-30.83,54.985-67.828,74.803-108.722
	c13.846-28.569,44.883-105.599,83.449-97.126c-2.082,55.902-49.242,147.178-10.287,197.099
	c15.494-13.561,24.968-35.364,27.859-55.595c4.884-2.079,9.243-1.281,13.078,2.395c-5.875,29.565,8.47,59.894,2.93,87.886
	c14.919,4.797,22.906-8.668,32.586-16.743c-3.973,18.906,0.22,36.108,1.037,55.213c6.76,4.039,13.316,5.38,21.102,3.862
	c8.84-26.966,23.367-108.565,60.404-109.031c-2.607,66.607-17.411,127.5-17.342,191.366c0.035,32.586-5.469,62.316-7.664,96.191
	c-2.047,31.601,12.06,53.153,17.223,83.644c36.359-11.295,19.881-76.54,63.881-90.158c1.989,11.639,4.521,24.672,2.66,37.491
	c22.994-13.438,22.355-101.763,31.494-130.804c35.568-4.683,11.916,54.649,11.159,73.519c16.981-1.801,21.23-25.437,40.829-15.206
	c0.436,18.769-5.523,36.622-15.6,51.776c11.658,4.438,24.933,6.22,36.971,9.197c-1.786,6.169,0.838,16.27-1.262,22.156
	c18.408-5.374,18.648-26.822,35.311-32.742c-0.549,20.762-7.33,41.336-8.506,62.047c62.295-19.34,19.578,33.616,14.92,50.92
	c25.021,12.85,59.607,3.283,62.613-27.165c6.531,13.538,14.568,53.314,10.407,73.278c35.761,2.27,40.037,43.639,20.21,67.316
	c41.015-20.59,24.131-117.965,83.059-111.439c-0.661,15.321-5.31,30.315-5.92,45.618c21.138,13.149,40.515-18.027,56.926-3.52
	c12.538,11.083-0.646,40.169-1.178,54.416c55.711,29.912,42.158-59.562,101.699-35.858c1.748,11.056-1.416,22.394-8.723,29.706
	c-0.471,2.679,0.656,18.949,1.422,23.458c16.416,6.691,36.939,12.125,47.389-4.162c-9.041-5.855-7.207-13.635-10.838-18.67
	c30.906-23.481,53.93-6.797,43.615,29.344c11.898,7.113,26.754,6.257,37.639,0.794c1.348,25.609-21.303,45.372-17.76,68.487
	c34.145-0.688,42.068-35.517,83.613-25.913c0.125-6.187,6.332-14.914,6.402-20.984c4.889-2.05,9.246-1.242,13.072,2.422
	c-0.5,15.508-6.955,30.827-7.514,46.352c-0.545,15.106,11.93,36.214,8.465,50.535c-4.316,17.842-22.465,12.773-24.502,36.208
	c-1.564,18.033,20.529,27.802,17.156,50.492c11.945,7.142,42.465,5.829,54.609,5.088c3.625,5.177,8.547,7.853,14.768,8.029
	c6.791-3.059,12.951-7.094,18.48-12.103c16.371-3.553,21.6-19.639,40.594-7.36c9.629,35.068-1.615,69.444,4.314,105.461
	c2.512,15.272,8.564,26.102,10.734,42.238c2.719,20.199-6.266,36.146,24.188,38.16c-2.111,22.338,12.754,42.881,11.865,66.033
	c-0.813,21.105-5.887,42.268-9.773,63.274c-6.207,33.552-16.633,81.563,3.246,110.995c-50.947-31.139-114.912-7.098-168.012-10.605
	c-63.271-4.18-125.412-31.516-188.756-35.156c-127.065-7.302-257.302-22.506-383.831-45.664
	c-161.395-29.54-322.789-59.08-484.184-88.619c-69.918-12.797-139.002-25.491-205.088-45.858
	c-55.659-17.153-111.042-28.651-167.268-48.109c13.771-19.079,35.872-24.875,46.803-46.976
	c10.182-20.586,9.849-55.883,14.019-78.734c10.452-57.265,1.219-106.604,4.791-161.78c3.561-54.991-4.671-110.567-2.746-162.74
	c1.01-27.354,4.241-52.873,6.988-80.47c2.433-24.455-13.031-58.761-0.336-80.162c25.69,1.164,37.987,11.482,56.971-7.096
	c16.278-15.931,16.986-40.262,12.109-61.59c14.378,0.266,28.061,1.73,38.469,10.906c-3.555-33.462,22.343-19.044,39.291-28.233
	c19.347-10.489,24.529-26.317,30.488-45.447c9.166-29.433-8.646-117.94,56.535-94.31c0.807,13.477,2.824,26.338,4.301,39.761
	c12.115-8.765,23.421-33.56,32.734-48.872c21.123-2.65,32.959,13.736,51.519,15.104c5.446-16.652,13.464-77.37,41.124-40.229"/>
<linearGradient id="SVGID_2_" gradientUnits="userSpaceOnUse" x1="3804.3398" y1="2535.3262" x2="2733.6052" y2="680.7599">
	<stop  offset="0" style="stop-color:#1D4759"/>
	<stop  offset="0.1811" style="stop-color:#1A5261;stop-opacity:0.8189"/>
	<stop  offset="0.4991" style="stop-color:#116F75;stop-opacity:0.5009"/>
	<stop  offset="0.9138" style="stop-color:#039E96;stop-opacity:0.0862"/>
	<stop  offset="1" style="stop-color:#00A99D;stop-opacity:0"/>
</linearGradient>
<path fill="url(#SVGID_2_)" d="M3809.792,190.312c6.035,38.565-188.33,58.317-225.779,70.007
	c-36.098,11.269-74.385,16.942-110.191,26.207c-25.465,6.588-59.104,18.684-86.82,16.996c-2.879,22.559-7.266,59.506,6.406,77.396
	c10.488,13.726,54.178,31.669,70.791,43.588c37.398,26.833,96.412,63.407,144.541,63.145c2.945,4.408,2.926,8.787-0.055,13.139
	c-31.465,7.852-62.688,30.102-95.078,33.908c-30.416,3.576-50.678-9.212-81.594-2.35c-30.703,6.814-150.508-2.623-143.402,40.812
	c-31.588-0.297-63.215,9.448-96.598,9.182c-34.047-0.272-68.947,2.696-102.221,7.559c-31.006,4.53-97.668,18.285-118.947,42.192
	c4.053,23.579,52.838,31.536,69.553,48c21.121,20.803,27.262,41.802,64.342,47.801c6.471,43.023-92.543,19.063-105.455,44.042
	c-19.996,38.686,146.332,24.002,167.877,27.973c-55.178,45.084-100.949,53.371-173.184,62.434
	c-52.131,6.54-100.086,16.117-150.535,30.192c-23.65,6.598-52.814,8.651-64.854,31.799c22.426,10.152,58.598,24.617,76.756,40
	c-27.264,20.189-65.582,20.987-93.91,40c-19.666,13.2-34.486,27.744-55.613,40c-52.699,30.572-54.488,97.095,21.424,89.795
	c-6.152,1.351-10.641,5.017-13.227,6.221c76.453,13.086,146.744,50.85,223.773,57.937c42.408,3.902,81.898-0.183,119.787,16.057
	c40.258,17.254,24.461,58.484,30.434,104.385c7.463,57.357-34.385,53.766-79.814,63.146
	c-105.799,21.844-215.98,7.052-320.029,34.435c-56.416,14.847-123.863,1.769-174.59,23.573
	c-38.566,16.578-73.432,42.378-118.549,39.643c-17.537,42.47,39.559,27.54,60.955,30.378c27.576,3.657,39.314,19.204,57.621,32.413
	c35.588,25.676,89.027,24.155,136.186,24c52.73-0.174,100.33,19.718,152,25.779c26.236,3.079,52.145,5.59,80.186,6.221
	c27.58,0.62,52.344,10.172,78.834,9.808c0.594,3.137-0.549,5.201-3.432,6.192c15.371,14.688,61.164,16.016,83.389,17.395
	c4.982,25.104-51.186,47.675-70.977,52.798c-27.836,7.204-66.172,27.683-94.633,26.989c-2.881,51.977-105.143,66.618-143.588,80.826
	c-34.977,12.928-57.807,21.962-96.184,21.992c-32.023,0.025-53.346-11.669-83.375-16.186c-26.02-3.913-55.244-1.726-76.027,9.78
	c-11.24,6.223-21.191,17.43-34.193,24.157c-15.367,7.952-25.713,10.514-41.623,14.248c-44.393,10.421-171.438-12.428-197.766,30.434
	c6.779-0.66,15.803,3.17,22.75,2.72c-5.785,38.376-87.41,41.896-102.508,77.224c49.74,3.816,136.711,32.853,180.699,0.824
	c-19.662,9.877-39.131,16.658-59.133,25.212c45.109-5.411,96.018,11.981,141.553,16.028c20.078,1.784,124.564-2.188,127.389,22.007
	c-47.451,6.88-95.352,40.136-143.332,51.958c-45.053,11.1-90.244,16.214-134.221,31.587c-20.898,7.305-53.639,17.632-72.029,31.63
	c-31.564,24.027-49.963,47.335-95.359,46.349c70.186,1.013,136.646,20.951,205.395,24.028c61.951,2.773,135.967-0.878,197.795,9.623
	c-36.014,16.66-39.779,63.334-77.195,80.755c-34.816,16.211-69.609,8.332-95.803,35.642c46.088,9.258,6.887,56.14,23.418,81.952
	c19.113,29.847,76.23,34.751,109.777,41.993c44.605,9.629,92.551,5.749,136.414,15.63c18.076,4.072,26.908,17.03,50.193,14.818
	c17.406-1.652,33.953-12.81,55.615-8.798c26.059,4.824,47.473,25.129,73.723,30.762c22.186,4.761,47.51,1.786,70.248,1.623
	c67.492-0.485,132.311,16.146,200.611,16c186.279-0.399,371.537-37.543,557.582-54.02c89.199-7.9,179.318-22.608,268.699-26.365
	c38.439-1.616,77.918,3.21,115.926-0.824c1.738-22.238,11.996-42.031,15.375-64.257c10.381-68.297,1.971-144.383,1.836-213.292
	c-0.689-348.983,40.92-701.844-0.057-1049.557c-16.795-142.517-32.215-288.259-18.137-431.546
	c6.836-69.577,8.17-136.546,9.979-206.146c3.047-117.184,24.576-240.822-23.814-353.993"/>
<linearGradient id="SVGID_3_" gradientUnits="userSpaceOnUse" x1="2401.5293" y1="1259.8086" x2="3420.9001" y2="3028.1609" gradientTransform="matrix(0.9998 0.021 -0.02 0.9514 4.2151 -94.2803)">
	<stop  offset="0" style="stop-color:#3D9997"/>
	<stop  offset="0.1694" style="stop-color:#37908F"/>
	<stop  offset="0.4512" style="stop-color:#287678"/>
	<stop  offset="0.8082" style="stop-color:#0F4D53"/>
	<stop  offset="1" style="stop-color:#00343D"/>
</linearGradient>
<path fill="url(#SVGID_3_)" d="M3686.351,793.035c12.637-31.071-69.531-84.125-95.166-111.831
	c-33.176-35.861-48.281-72.931-82.752-110.514c-65.477,19.744,30.104,116.521,37.738,142.576
	c-26.107-22.158-39.014-49.144-87.805-55.465c-0.682,24.932,20.104,56.794,39.074,79.056c23.145,27.154,48.303,38.06,48.516,70.517
	c0.379,58.177,30.936,112.466,14.629,172.809c-42.178-8.808-49.424-61.458-63.777-82.911c-21.43-32.029-46.789-58.781-60.875-92.214
	c-23.129-54.896-31.646-112.128-76.697-160.986c-31.311,40.758-16.111,72.444-1.793,112.918
	c14.818,41.881,59.488,73.872,77.584,117.225c9.387,22.482,6.969,47.046,17.711,69.55c10.477,21.938,26.65,42.732,38.928,64.232
	c20.063,35.142,48.707,91.973,14.861,126.974c-21.461-8.896-35.705-42.884-48.766-58.512c-18.027-21.565-25.488-40.378-36.5-62.457
	c1.176,8.196-6.092,11.895-7.865,14.944c-0.281-11.773-8.795-22.429-13.459-33.95c-68.326,6.669-32.916,95.122-63.088,117.671
	c-60.414,45.148-98.021-55.471-106.078-79.71c0.344,45.152-9.529,87.483-22.012,130.495c-4.787,16.483-42.43,83.814-94.725,57.326
	c-26.16-13.253-4.164-85.307-4.844-105.541c-1.178-34.954-34.863-71.174-30.055-104.069c-30.242,16.52-25.959,88.018-20.459,115.799
	c6.277,31.687,25.805,56.956,16.596,90.584c-55.393,5.507-71.961-136.609-105.459-160.833c2.18,34.755,12.076,61.831,31.037,95.443
	c10.617,18.816,71.959,53.965,64.729,70.816c-75.463,12.778-128.453-72.941-185.068-93.24
	c-13.408,25.454,53.803,61.542,86.936,75.029c29.709,12.095,76.928,21.61,98.33,35.078c-78.381,6.323-131.217-24.234-207.941-19.221
	c22.916,35.74,146.871,21.783,196.789,27.058c11.852,28.266,22.322,30.489,3.014,58.143c-15.568,22.295-23.314,49.267-31.822,72.836
	c-11.67,32.336,3.885,66.012-14.287,97.679c-9.035,15.742-28.178,58.223-59.506,55.81c-0.061-20.439-9.045-42.671-12.611-63.186
	c-3.145-18.076-2.387-38.806-6.049-57.661c-4.41-22.689-2.545-93.092-67.217-87.129c-13.236,54.529,6.193,107.742,5.109,160.762
	c-0.715,34.981,27.287,146.747-33.744,164.147c-62.912-34.866-48.271-80.033-47.1-126.646c0.717-28.5,10.137-144.882-85.881-126.612
	c-26.443,113.926,49.055,224.199,21.588,339.702c-11.359,47.761-22.979,96.571-33.781,143.108
	c-2.877,12.387,6.691,29.007-0.145,40.782c-11.121,19.147-20.699,10.938-50.797,15.936c-52.275,8.682-40.473,32.146-41.08,60.958
	c0.705-33.469,7.67-68.882-0.111-102.002c-4.129-17.564-20.373-58.944-49.047-68.209c-30.248,26.869-18.992,80.172-19.68,112.858
	c-0.363,17.257,0.217,34.632-1.092,51.86c-1.477,19.444-14.352,35.9-10.662,55.679c-37.58-31.375,18.127-130.196-35.424-148.426
	c-8.518,28.894-11.74,62.67-13.928,91.483c-1.164,15.332,0.195,30.764-0.971,46.097c-1.357,17.866-13.646,33.501-13.109,51.013
	c-37.953-7.275-22.482-35.263-54.816-45.95c-5.232,7.452-9.719,13.866-14.908,21.329c-3.979-1.617-12.037-3.003-15.689-4.854
	c0.629,15.194-17.299,28.521-5.768,41.239c12.869,14.193,35.445,10.283,42.572,28.025c14.711,36.629-81.451,39.126-60.059,72.805
	c37.457,5.533,45.355,21.042,69.482,36.893c20.408,13.407,63.289,27.07,58.541,46.645c24.717,4.883,39.309-7.033,66.66-2.342
	c14.91,2.557,31.271,14.839,49.865,18.2c9.254,12.519-39.17,45.606-58.799,50.05c-38.268,8.661-96.582-13.288-140.674-7.988
	c-47.207,5.676-78.252,23.193-130.256,19.146c-43.309-3.369-88.66-14.412-129.99-2.83c-26.469,7.419-83.471,39.648-54.236,58.313
	c21.721,13.867,111.908-6.752,90.869,29.361c-8.293,14.234-77.586,37.833-99.592,49.334c-43.148,22.553-44.766,36.096-52.961,67.191
	c-35.133-0.034-79.859,26.316-92.445,43.894c-15.059,21.027-7.717,47.698-25.578,69.919c-8.232,10.24-27.486,23.099-43.045,28.195
	c-15.133,4.962-33.699,1.333-48.525,11.38c-21,14.229-37.977,67.788-24.779,85.076c16.764,21.964,70.242,25.523,79.879,53.154
	c8.289,23.776-17.6,46.39-21.695,68.854c-3.922,21.51-4.938,47.514-1.42,69.146c3.475,21.369,0.361,18.893,36.814,23.948
	c41.359,5.736,92.232-0.209,132.822-3.082c178.342-12.628,349.814-20.052,519.193-52.779
	c57.297-11.07,124.857-10.622,185.174-13.396c35.109-1.614,71.768,3.713,107.02,2.828c57.879-1.449,113.012-12.324,168.75-19.803
	c109.359-14.676,211.35-56.552,317.088-79.908c157.072-34.693,290.584-98.369,378.949-181.622
	c46.031-43.369,82.35-80.616,95.234-130.991c12.215-47.761,20.641-91.75,52.004-136.909c37.922-54.6,78.996-107.007,124.83-159.4
	c54.984-62.854,71.205-142.589,74.717-212.583c5.693-113.429-52.32-217.988-66.98-330.132
	c-14.561-111.384-19.799-223.093-33.02-334.536c-8.195-69.117-2.285-145.403-41.834-212.503
	c-29.863-50.666-88.484-84.233-88.018-140.186c0.434-51.756-9.244-100.009,3.604-150.842c9.902-39.18-51.441-67.369-117.393-66.754
	c-6.045-9.509-4.037-18.123,8.957-21.999"/>
<g>
	
		<linearGradient id="SVGID_4_" gradientUnits="userSpaceOnUse" x1="3120.0156" y1="2811.3906" x2="3120.0156" y2="1706.9639" gradientTransform="matrix(0.9998 0.021 -0.02 0.9514 4.2151 -94.2803)">
		<stop  offset="0" style="stop-color:#153A4A"/>
		<stop  offset="0.6001" style="stop-color:#0A3C41;stop-opacity:0.3999"/>
		<stop  offset="1" style="stop-color:#003D39;stop-opacity:0"/>
	</linearGradient>
	<path fill="url(#SVGID_4_)" d="M3454.925,1850.627c12.43-13.799,14.156-32.497-9.891-43.693
		c-12.344-5.745-32.961-8.68-48.16-11.413c-5.098-0.918-10.234-1.594-15.398-2.109c1.516-0.739,3.057-1.397,4.637-1.908
		c7.033-2.276,16.781-2.774,24.133-4.769c-1.178-14.289-44.246-12.714-47.383-0.197c-7.387-7.925-1.83-17.038-1.854-25.254
		c-0.029-9.118-1.645-17.246,2.012-26.57c4.654-11.857,0.705-21.208-0.707-33.243c-1.746-14.949-3.875-31.729-9.289-46.428
		c-3.084-8.377-10.732-26.294-29.977-16.278c-13.422,6.986-6.664,27.622-6.58,37.33c0.17,19.423,2.742,38.871,4.629,58.305
		c1.031,10.629,1.033,26.912-7.764,35.812c-6.236-4.531-5.041-10.735-7.6-15.947c-2.309-4.7-7.021-8.95-8.35-13.741
		c-3.359-12.118-2.186-25.731-3.768-38.093c-2.66-20.776-10.432-40.438-23.629-60.057c-6.822-10.134-13.479-33.049-31.311-39.391
		c-29.318,10.049-2.109,57.003,3.975,70.689c12.119,27.267,16.949,55.376,28.111,82.473c-2.84,1.298-5.766,1.854-9.52,1.796
		c-6.16-10.208-20.707-14.674-22.234-26.101c-1.428-10.664-4.854-20.734-8.713-31.064c-10.492-28.099-26.99-56.517-50.93-82.46
		c-5.357-5.802-13.906-30.034-29.463-18.605c-3.893,2.861-4.564,12.742-5.588,16.413c-2.309,8.246-0.854,13.86,3.762,21.764
		c12.193,20.883,20.445,42.088,34.5,62.965c6.373,9.472,12.594,18.642,20.227,27.599c-10.373-8.023-17.689-17.905-23.713-26.891
		c-9.982-14.888-23.525-29.858-37.564-43.833c-11.725-11.671-27.848-35.748-51.605-41.459
		c-12.676,8.856,15.668,35.023,25.125,43.173c18.361,15.829,32.24,32.394,48.596,48.923c13.533,13.676,32.137,23.548,41.955,38.417
		c9.057,13.716,38.383,22.317,35.943,36.706c-3.27,1.449-6.697,1.697-10.199,1.076l0.559-0.215c0.836-0.547,1.67-1.094,2.504-1.64
		c-2.752-0.389-6.148-0.449-9.791-0.297c-16.381-7.37-33.092-28.962-41.363-33.49c-36-19.712-70.137-44.646-87.459-71.027
		c-8.301-12.645-17.699-28.86-34.891-38.812c-7.717-4.465-31.73-15.907-38.166-6.094c-3.271,4.988,13.732,20.461,18.596,24.502
		c14.32,11.898,31.117,23.17,44.688,35.324c27.67,24.775,68.396,50.171,87.572,77.062c3.752,5.262,21.078,22.027,9.055,25.368
		c-12.289,3.415-33.836-11.831-38.828-15.355c-27.232-19.238-60.734-35.882-88.66-54.954c-13.678-9.341-72.42-57.75-97.402-46.932
		c0.631,5.408,10.451,12.444,15.578,16.979c9.348,8.273,21.711,15.885,31.307,24.11c18.869,16.174,40.553,30.667,62.506,45.699
		c21.523,14.737,45.932,25.949,70.639,38.717c16.539,8.545,26.986,16.887,46.943,22c-5.566,8.266-12.992,15.243-22.674,18.375
		c-9.656,3.121-24.879,1.666-33.863,5.405c-12.557,5.226-9.926,15.388-15.219,22.794c-5.965,8.354-16.309,16.377-22.176,24.096
		c-5.08,6.687-6.432,16.445-12.584,22.389c-7.021,6.782-16.174,10.306-22.146,17.945c-4.824,6.166-7.592,14.43-15.617,19.453
		c0.959-10.771,3.111-19.261-7.555-28.038c-12.398-10.206-16.229-21.487-20.771-33.357c-4.932-12.879-0.988-25.248-2.957-38.467
		c-2.418-16.22-12.82-31.84-14.85-47.873c-16.84,1.372-21.277,30.707-22.863,38.2c-2.422,11.445,1.494,22.361,3.156,33.449
		c1.822,12.152,7.838,24.854,13.402,36.734c2.674,5.703,5.488,11.012,8.188,16.634c2.197,4.585,9.764,11.421,6.385,16.331
		c-17.93-3.112-26.881-26.78-32.469-35.393c-9.688-14.922-19.393-29.521-31.705-43.787c-6.969-8.073-6.955-21.657-16.301-28.588
		c-20.324-15.071-27.115,5.008-25.787,13.926c2.02,13.615,18.848,24.125,24.73,36.915c5.053,10.987,14.434,18.581,21.902,29.173
		c6.861,9.733,8.891,17.482,20.068,26.627c7.375,6.036,25.715,17.74,20.182,25.281c-34.443-11.921-58.1-33.796-88.266-48.865
		c-17.629-8.807-37.643-15.129-53.037-25.223c-15.883-10.413-31.484-12.915-32.797,2.963c-0.811,9.795,0.014,12.285,13.697,18.731
		c10.748,5.064,21.707,10.865,33.441,15.173c20.951,7.691,46.459,13.473,63.361,24.244c11.936,7.606,22.641,13.745,35.115,20.739
		c8.605,4.826,4.729,5.213,17.711,6.57c9.842,1.029,17.68-0.805,25.717-1.192c-0.648,7.121-10.967,13.657-19.635,19.329
		c-12.73,8.33-10.123,11.043-5.887,20.841c3.291,7.612,0.529,14.809,2.053,22.603c1.715,8.759,8.031,18.146,11.094,26.942
		c2.186,6.282,9.889,16.305,6.908,22.704c-2.82,6.059-14.023,9.683-20.207,15.486c-5.17,4.85-9.986,13.178-22.631,13.912
		c-21.117,1.227-27.273-12.773-35.311-20.264c-11.492,6.071-6.738,19.79-8.84,27.848c-2.887,11.071-3.809,21.436-4.637,32.821
		c-0.443,6.065-2.846,8.712-6.863,14.212c-4.383,5.999-3.867,9.876-5.053,16.302c-1.588,8.617-2.232,18.997-12.174,25.718
		c7.834-6.554,6.289-20.071,4.715-27.921c-1.816-9.065-10.588-10.293-20.488-17.049c1.629,5.531-11.064-1.254-16.537-2.697
		c-11.047-2.918-21.814-3.854-33.758-4.31c-10.217-0.391-19.525-1.107-27.223,1.438c-9.994,3.304-17.355,9.504-26.271,13.346
		c-25.242,10.882-32.754,26.015-45.375,42.161c-10.363,13.26-18.625,28.341-15.182,43.034c8.709-0.398,24.859-20.777,29.188-25.99
		c5.807-6.986,9.254-16.297,22.926-19.708c3.074,12.188-5.951,24.693-12.102,35.993c-3.402,6.248-6.602,10.54-7.035,17.171
		c-0.363,5.592-4.619,12.813-3.57,17.656c2.072,0.795,4.146,0.839,6.223,0.131c3.654-12.092,15.891-26.856,24.051-38.296
		c8.885-12.455,16.336-27.827,29.709-38.698c4.146-3.369,12.564-10.77,20.957-10.977c16.348-0.402,10.23,10.395,7.361,16.092
		c-7.188,14.267-12.852,29.28-8.73,44.771c13.803-2.614,15.664-17.438,18.631-24.046c2.781-6.19,8.65-22.108,22.691-9.777
		c9.018,7.92,5.023,18.263,6.668,26.947c1.641,8.644,7.338,16.938,7.139,26.706c-0.184,9.11,4.877,51.801-22.742,46.274
		c-1.854-0.369-3.582-1.059-5.227-1.943c-3.854,5.609-23.207,7.725-29.211,11.486c13.266-0.154,27.865,5.285,14.773,10.445
		c-10.723,4.228-38.684,1.146-37.563,11.679c14.514,1.757,41.467,3.166,54.684-0.338c-8.176,5.352-37.176,16.122-32.555,23.419
		c28.133,6.141,33.285-22.771,51.938-20.795c-3.543,6.285-12.447,10.629-15.846,17.755c-3.828,8.029-3.098,16.746-7.205,24.353
		c-3.311,6.138-18.221,18.042-14.951,24.449c1.365,2.675,8.797,2.825,10.139,4.724c1.424,2.016-0.354,3.722,0.42,5.713
		c1.541,3.965,0.617,10.289-0.199,14.297c-2.055,10.079-7.102,20.208-4.574,30.762c0.986,4.135,4.99,8.026,3.746,12.329
		c-1.379,4.78-9.377,7.452-11.859,12.07c-8.814,16.379-19.352,35.72-23.643,52.77c-2.299,9.131-2.148,22.286,4.035,31.01
		c6.314,8.903,19.092,26.682,32.268,32.97c15.518,7.405,49.965,8.163,67.455,6.435c40.869-4.036,69.143-17.885,93.682-35.765
		c46.887-34.169,101.176-74.609,111.686-118.462c13.967-58.27,1.834-119.143,57.285-171.49
		c19.787-18.68,45.914-35.027,65.469-53.856c21-20.221,33.607-42.316,49.043-63.948c24.721-34.646,92.939-45.923,121.172-79.516
		c17.037-20.271,21.092-42.936,27.383-64.832c5.002-17.42,12.557-35.469,13.281-53.091c0.527-12.742,0.342-23.525-5.9-35.913
		c-5.48-10.884-5.43-19.63-7.592-30.466c-2.242-11.224-13.945-21.527-10.932-33.35
		C3414.735,1879.569,3439.241,1868.041,3454.925,1850.627z"/>
	
		<linearGradient id="SVGID_5_" gradientUnits="userSpaceOnUse" x1="2857.9619" y1="2486.4766" x2="2857.9619" y2="2475.5098" gradientTransform="matrix(0.9998 0.021 -0.02 0.9514 4.2151 -94.2803)">
		<stop  offset="0" style="stop-color:#153A4A"/>
		<stop  offset="0.6001" style="stop-color:#0A3C41;stop-opacity:0.3999"/>
		<stop  offset="1" style="stop-color:#003D39;stop-opacity:0"/>
	</linearGradient>
	<path fill="url(#SVGID_5_)" d="M2811.737,2321.34c-7.865-1.596-18.33,0.563-14.201,5.648c1.814,2.237,19.533,3.982,29.744,4.705
		C2822.124,2327.492,2817.464,2322.499,2811.737,2321.34z"/>
	
		<linearGradient id="SVGID_6_" gradientUnits="userSpaceOnUse" x1="2876.5771" y1="2490.4902" x2="2876.5771" y2="2486.4766" gradientTransform="matrix(0.9998 0.021 -0.02 0.9514 4.2151 -94.2803)">
		<stop  offset="0" style="stop-color:#153A4A"/>
		<stop  offset="0.6001" style="stop-color:#0A3C41;stop-opacity:0.3999"/>
		<stop  offset="1" style="stop-color:#003D39;stop-opacity:0"/>
	</linearGradient>
	<path fill="url(#SVGID_6_)" d="M2833.317,2332.041c-1.227-0.04-3.383-0.16-6.037-0.348c1.816,1.479,3.693,2.858,5.701,3.94
		C2833.712,2334.572,2833.892,2333.388,2833.317,2332.041z"/>
</g>
<linearGradient id="SVGID_7_" gradientUnits="userSpaceOnUse" x1="1199.438" y1="1114.9219" x2="363.1557" y2="2924.8521" gradientTransform="matrix(0.9998 0.021 -0.02 0.9514 4.2156 -94.2798)">
	<stop  offset="0" style="stop-color:#3D9997"/>
	<stop  offset="0.1694" style="stop-color:#37908F"/>
	<stop  offset="0.4512" style="stop-color:#287678"/>
	<stop  offset="0.8082" style="stop-color:#0F4D53"/>
	<stop  offset="1" style="stop-color:#00343D"/>
</linearGradient>
<path fill="url(#SVGID_7_)" d="M66.385,751.86c0.053-9.203,12.768-22.36,18.643-31.027c9.279-13.689,19.264-30.402,38.189-40.482
	c43.816-23.336,27.214,24.838,17.323,36.794c-14.125,17.069-9.517,36.559-15.926,54.78c-6.097,17.329-14.077,39.153-7.946,58.256
	c15.923-4.264,11.768-20.412,15.643-29.105c7.845-17.613,27.257-32.929,39.682-49.54c2.768-3.7,13.603-22.393,26.819-21.398
	c25.905,1.948-5.781,36.78-8.551,41.295c-10.165,16.568-21.066,34.843-26.526,52.183c-4.587,14.569-14.348,25.27-23.271,38.859
	c-12.686,19.319-18.551,43.616-13.052,64.82c9.382-2.305,20.499-6.37,29.104-8.758c11.169-3.1,22.064-5.594,29.107-12.106
	c5.829-5.388,6.268-13.787,8.837-19.245c3.4-7.228,7.181-13.811,9.891-21.499c8.576-24.336,5.417-49.627,14.324-73.795
	c2.219-6.019,2.794-14.62,13.051-17.288c4.872-1.269,33.056-1.585,37.803-1.2c10.773,28.977,1.016,59.715-1.152,89.161
	c-1.044,14.183-3.268,29.122-5.162,43.743c-1.747,13.477-7.576,26.633-4.384,40.641c2.336,0.934,4.693,0.983,7.072,0.148
	c0.073-11.302,10.913-25.935,17.541-35.645c8.589-12.579,12.049-24.635,9.328-38.559c-2.336-11.95-5.883-24.609,1.605-36.301
	c2.763-4.314,9.693-16.592,16.385-19.196c6.977-2.714,20.505-0.225,30.936,0.823c18.471,1.859,13.778,1.783,16.667,11.743
	c3.649,12.572,3.837,24.89,3.577,37.65c-0.417,20.627-0.869,41.253-1.302,61.881c-0.217,10.288-9.967,71.61,10.544,70.694
	c-0.442-7.197,3.488-29.757,21.931-25.498c3.343,15.335-3.086,35.737,4.564,50.587c2.245,4.355,10.154,7.391,11.975,12.364
	c1.366,3.727-0.877,8.273-0.445,12.101c1.134,10.025,13.462,19.234,12.774,28.971c12.24,2.327,26.183-1.58,37.765-3.021
	c13.978-1.737,27.579-3.499,42.018-5.045c5.867-23.671,4.35-48.14,9.743-72.04c2.502-11.092,32.665-53.58,14.477-61.641
	c9.423,1.604,35.713,4.156,43.141,7.559c12.55,5.746,12.276,18.225,12.009,26.482c-0.718,22.183-5.163,43.035-5.631,65.271
	c-0.452,21.434,10.48,40.201,2.048,60.608c-4.366,10.57-20.891,52.319-5.54,60.245c2.574-10.565,13.909-15.26,19.69-25.981
	c7.689-14.264,16.646-30.25,20.118-45.051c2.59-11.038-9.526-57.304,6.23-63.075c22.742-8.329,22.31,14.386,21.267,19.99
	c-2.851,15.28-7.227,30.514-10.526,45.86c-4.774,22.21-9.722,49.073-3.972,71.79c11.674-3.375,8.089-14.518,8.129-21.31
	c0.075-13.25,4.582-26.326,13.461-38.542c7.204-9.911,20.856-60.91,47.488-56.879c4.393,24.139-20.103,41.884-29.77,64.455
	c-5.032,11.745-9.271,24.811-13.438,36.657c-1.894,5.39-8.016,18.263-4.84,23.329c20.068-2.837,28.231-30.321,35.215-40.245
	c8.499-12.07,25.789-33.978,50.151-37.553c5.707,12.556-20.182,30.019-30.095,40.579c-9.564,10.186-20.48,21.391-31.173,30.643
	c-8.07,6.984-20.595,12.936-26.304,20.725c-2.402,3.275-1.03,6.903-3.117,10.271c-2.645,4.263-8.25,4.374-9.236,9.446
	c-2.183,11.232,31.79,29.342,40.986,39.674c6.1,6.855,16.192,12.931,22.142,19.729c7.059,8.06,3.667,17.556,11.053,26.182
	c2.462-11.801,5.05-24.35,11.083-36.077c8.99-17.475,30.423-30.793,45.992-46.274c9.768-9.709,23.726-20.615,27.38-31.873
	c5.307-16.331,0.559-36.224,0.908-52.855c0.922-43.794-3.227-90.041,28.521-130.301c8.824-11.194,19.894-21.898,27.162-33.345
	c4.193-6.604,8.551-15.263,16.527-20.478c-3.442,44.39-14.832,87.416-15.772,132.148c-0.221,10.454-2.652,21.662-0.979,32.071
	c1.971,12.269,12.394,21.325,12.44,34.061c0.08,21.22-4.078,36.87-22.311,55.233c-14.868,14.973-28.125,24.316-34.21,41.801
	c-4.108,11.807-10.49,20.332-19.795,31.011c-10.926,12.539-30.528,33.157-29.703,47.625c-0.541-8.307,20.406-13.01,30.235-17.485
	c18.567-8.455,30.033-20.208,46.317-30.44c40.066-25.183,64.101-49.368,71.25-83.881c8.838-42.682,24.342-84.874,33.314-127.723
	c5.576-26.633,3.379-65.317,43.578-83.071c-1.166,12.944,7.514,23.386,7.645,36.137c0.132,12.516-6.025,23.883-8.621,36.142
	c-4.246,20.055-0.421,40.744-1.911,60.93c-3.337,45.143-14.844,89.418-23.374,133.754c-3.566,18.531-12.922,26.419-40.063,37.99
	c-26.212,11.175-42.768,19.914-50.828,38.215c-7.293,16.562-24.189,31.754-48.787,42.034c-11.725,4.9-30.696,4.601-39.648,9.285
	c-7.9,4.133-15.021,15.995-16.547,21.442c-5,17.849,3.891,35.728,6.67,53.024c3.883,24.134,8.539,49.322,7.92,73.238
	c-0.286,11.091-3.764,23.557,3.238,34.048c8.402,12.59,28.072,19.594,42.783,29.166c-14.994-9.313-10.188-25.806-4.104-36.219
	c8.218-14.062,31.076-24.248,48.727-34.66c40.312-23.78,86.631-41.115,98.525-74.771c21.396-60.551,80.938-115.882,80.197-180.063
	c-0.499,25.433,7.611,51.294,6.989,77.08c-0.608,25.191,6.66,55.589-4.671,79.897c-7.328,15.719-17.475,32.118-32.047,45.896
	c-13.293,12.565-22.445,28.515-38.916,39.746c-14.89,10.153-32.378,17.752-40.211,30.643c-5.246,8.633-7.352,21.229-17.466,28.763
	c-10.904,8.122-32.511,12.65-45.542,20.911c-8.289,5.254-31.73,15.354-26.018,23.308c9.74-4.097,29.301-1.564,41.721-1.303
	c23.588,0.497,33.559,1.207,51.459-8.122c10.387-5.411,17.158-11.033,25.72-17.437c11.132-8.323,22.866-15.863,33.614-24.609
	c19.391,18.909-8.271,45.56-34.109,57.166c-18.172,8.161-44.143,11.28-64.442,18.085c-14.858,4.981-33.448,11.182-50.587,10.856
	c-11.512,13.154-11.08,43.104,3.327,55.358c11.897,10.12,26.507,10.971,28.302,24.701c1.213,9.273-7.785,26.634,11.068,31.598
	c12.646-15.021,35.722-32.54,60.893-41.279c4.131,20.016-5.764,41.624,0.283,61.463c12.701-17.916,23.842-37.729,38.545-56.107
	c9.268-11.577,22.297-22.27,29.578-34.31c8.377-13.853,17.121-25.199,32.707-36.979c11.251-8.506,24.598-14.474,33.363-24.02
	c11.072-12.055,23.665-23.489,38.961-33.875c17.537-11.911,38.238-18.154,64.39-22.121c13.335-2.025,33.065-3.996,42.419-8.256
	c-44.061-7.09-78.473,28.745-94.282,45.919c-13.969,15.175-31.599,32.412-38.507,49.382c-5.658,13.909-0.221,27.864-13.33,41.023
	c-17.998,18.07-55.394,33.156-62.006,54.952c-3.163,10.432,3.67,21.946,2.843,31.542c-0.918,10.618-18.682,14.624-22.985,22.873
	c-6.278,12.037,0.371,31.55-2.405,44.746c-6.224,29.565-17.45,59.158-8.16,89.169c2.525,8.157,6.327,31.655,29.453,29.092
	c13.732-1.522,19.825-24.964,21.806-31.316c4.322-13.861,11.149-27.733,13.625-41.787c1.806-10.259-7.406-27.372,5.986-34.971
	c12.627,11.043,4.71,31.958,4.451,44.247c-0.34,16.11-0.679,32.221-1.018,48.332c-0.195,9.258-11.826,70.23,16.17,68.614
	c32.143-1.853,24.125-74.674,24.37-86.315c0.308-14.636-3.643-31.916,2.175-46.061c4.73-11.498,17.51-20.68,23.529-31.314
	c35.188,10.93,8.707,63.333,8.393,81.385c-0.441,25.479,0.348,51.15-1.602,76.584c-0.854,11.139-5.324,21.11-7.609,32.146
	c-3.291,15.884-5.096,32.456-5.449,49.261c-0.314,14.965,0.815,30.254-2.208,45.01c-2.438,11.885-13.39,24.92,10.823,31.394
	c3.102-9.681,4.409-18.503,8.368-28.183c32.292-6.745,18.258,89.951,32.401,100.084c12.854-3.465,23.477-13.021,22.975-21.53
	c17.154,14.137,9.195,43.234,8.814,61.37c-0.455,21.564-6.642,46.211-0.43,67.463c47.164-4.17,18.491-116.629,18.945-138.202
	c0.296-14.048-14.074-106.952,12.295-112.433c14.391,12.302,12.387,27.161,11.91,41.093c-0.725,21.25,6.299,41.917,10.186,63.093
	c3.877,21.134,4.617,41.885,4.184,63.238c-0.352,17.14,7.118,30.51,10.656,46.796c6.707,30.872-1.662,65.057-2.317,96.186
	c-0.582,27.641-0.467,55.332-1.878,82.946c1.248-10.24,9.637-22.944,13.304-33.328c7.953-22.507,14.997-42.745,18.536-65.851
	c2.488-16.249-7.902-76.981,22.139-85.979c9.195,30.852,2.751,63.484,10.486,94.814c8.295,33.599,6.089,65.688,10.523,99.282
	c4.986,37.786,3.096,75.576,7.57,113.322c1.166,9.841-1.197,43.034,14.877,48.432c11.299-23.81,28.288-45.097,31.246-70.054
	c2.559-21.587-4.535-59.176,28.667-73.729c6.411,19.961,2.077,41.605,4.656,61.772c3.003,23.473,10.151,44.548,9.649,68.402
	c-0.856,40.668-1.713,81.335-2.569,122.003c-0.446,21.188-3.747,43.346-0.782,64.507c2.848,20.318,12.432,43.846,11.527,63.853
	c5.418-8.749,14.367-17.824,16.619-27.738c2.225-9.801-6.188-23.59,7.693-31.144c14.263,9.867,18.313,32.466,20.665,44.657
	c2.429,12.59,1.897,29.466-0.866,41.963c-3.816,17.253-22.338,22.715-51.76,24.026c-55.809,2.485-114.248-2.041-170.423-2.858
	c-43.058-0.627-79.427,6.131-120.719,10.445c-53.589,5.602-110.413,0.433-164.351-3.634c-53.879-4.062-105.557-6.655-156.113-19.341
	c-39.883-10.006-78.93-20.308-119.721-29.159c-49.852-10.815-103.323-17.976-151.298-31.381
	c-70.22-19.621-108.425-58.894-136.537-99.293c-60.427-86.847-100.386-176.979-156.46-264.735
	c-59.079-92.457-117.238-186.303-164.88-280.764c-49.4-97.942-37.306-202.463-81.11-300.537
	c-15.78-35.333-32.492-71.391-40.274-107.415c-14.641-67.774-5.677-136.156-15.034-203.916
	c-7.204-52.156-36.692-102.326-35.852-154.95c0.688-43.062,38.125-78.693,42.775-121.18c4.575-41.797-20.755-84.993-30.379-126.581
	c-5.195-22.461-6.134-44.796-16.749-66.842c-8.447-17.546-22.966-33.876-31.953-51.289c-18.042-34.961,17.492-58.8,23.778-92.854
	c4.072-22.048-2.802-43.628,8.06-65.284c8.545-17.037,26.213-30.744,38.008-46.846c14.818-20.233,42.274-40.995,42.494-63.691
	c0.211-21.833-19.078-41.509,2.538-60.585c7.323-6.463,22.538-10.853,31.87-16.205c16.851-9.664,18.228-21.138,41.296-14.536
	c16.443,4.706,72.482,31.572,67.209,42.666"/>
<linearGradient id="SVGID_8_" gradientUnits="userSpaceOnUse" x1="2942.2666" y1="674.7227" x2="2942.2664" y2="4335.1631" gradientTransform="matrix(0.9998 0.021 -0.02 0.9514 4.2156 -94.2798)">
	<stop  offset="0" style="stop-color:#1D5052"/>
	<stop  offset="0.3323" style="stop-color:#16474A"/>
	<stop  offset="0.8831" style="stop-color:#042D34"/>
	<stop  offset="1" style="stop-color:#00272E"/>
</linearGradient>
<path fill="url(#SVGID_8_)" d="M3813.312,644.345c3.537-3.466,4.262-6.375,10.676-8.902c6.402,36.244-51.053,73.02-52.846,110.698
	c-1.605,33.736-28.176,61.771-42.025,93.274c-13.6,30.942-41.551,63.316-42.045,97.565c-0.248,17.224,9.959,33.368,6.732,48.16
	c-2.889,13.244-24.102,29.468-31.148,44.288c-16.168,33.994-12.4,74.041-19.887,109.096c-10.301,48.199-20.23,97.397-33.604,145.577
	c-6.5,23.416-16.811,47.003-21.174,70.361c-3.77,20.188,4.814,41.857-3.326,61.581c-7.594,18.4-23.465,35.142-29.156,53.788
	c-4.707,15.404-0.967,51.08-18.814,59.77c-12.215-53.48-20.146-112.207-18.717-165.695c1.082-40.509-9.869-75.024-17.859-113.412
	c-6.68-32.098,4.086-63.011-7.574-93.404c-8.354-21.775,0.613-76.101-28.324-91.623c-71.963,67.647-7.063,150.065-24.449,221.881
	c-7.611,31.427-21.559,63.849-22.307,97.835c-0.818,37.255,12.246,83.366-1.994,119.328c-12.992,32.8-35.732,63.675-42.584,98.469
	c-8.588,43.625-11.871,86.937-12.805,131.255c-0.766,36.305,4.35,74.24-2.09,110.258c-6.932,38.772-32.662,78.899-34.959,117.916
	c-22.363-13.009-18.238-41.135-34.336-58.805c2.074,19.399-24.082,16.247-40.57,25.808c-25.395,14.721-23.078,34.415-23.361,53.239
	c-0.273,18.221-1.002,36.436-1.15,54.658c-0.184,22.75-4.93,26.094-28.646,38.874c-42.107,22.692-52.213,46.234-44.424,80.176
	c8.643,37.646,77.121,50.338,67.092,93.14c-51.445,5.802-121.75,17.761-147.262,42.836c-24.914,24.486,1.293,81.743-51.791,95.278
	c-28.053-12.469-32.012-41.357-80.359-32.849c0.693,27.58-45.238,50.77-63.082,74.402c-10.02,13.269-8.051,23.024-10.846,38.051
	c-2.859,15.394-14.289,28.609-18.664,43.354c-7.717,26.021-13.426,56.712-13.951,81.732c-0.602,28.555,14.137,56.156,6.666,86.809
	c-35.469,4.977-72.592-10.901-106.77-11.659c-9,32.438-15.871,35.647-52.543,59.437c-36.627,23.758-15.777,59.521-23.719,90.547
	c-57.053,2.799-114.215-8.546-161.828,12.326c-47.941,21.015-104.275,30.204-155.109,42.676
	c-56.561,13.877-140.369,19.472-187.238,53.155c4.303-3.092,6.357-7.993,8.971-10.856c-17.082,0.026-28.449-8.63-47.4-6.854
	c-15.984,1.499-32.35,3.406-47.982,6.93c-35.682,8.043-74,25.901-107.932,39.831c-42.623,17.496-80.498,43.884-125.936,54.266
	c-45.748,10.454-94.673,8.482-141.816,6.711c32.186,27.561,51.489,72.308,93.949,87.546c12.111,4.347,24.262,7.667,36.281,0.036
	c8.949-5.683,6.982-13.477,12.734-18.638c27.518-24.7,30.535,1.197,51.764,16.723c-0.012-5.112,2.639-11.212,2.492-16.251
	c9.65,9.546,6.129,35.495,18.262,49.234c18.527-29.387,39.893-36.548,69.229-50.699c19.326-9.323,55.26-32.896,78.104-26.463
	c3.498,22.087,25.107,66.064,38.613,84.197c13.328-10.729,24.695-18.624,35.936-32.377c10.33-12.638,17.537-33.59,32.98-40.313
	c15.299,16.194,34.027,47.874,54.004,55.67c12.709-16.989,8.658-39.058,25.443-54.574c24.033,14.14,20.461,83.927,64.734,59.825
	c22.27-12.123,15.592-38.043,26.486-55.902c7.492-12.28,22.088-26.419,36.977-30.225c21.029-5.375,16.789,4.243,32.584,7.987
	c33.096,7.846,61.424-0.515,90.883,22.34c31.965,24.803,24.561,44.626,71.494,46.582c42.092,1.753,79.992-27.044,119.689-34.925
	c37.494-7.445,85.531,0.535,120.951,8.965c13.502,3.214,19.211,12,35.133,14.857c17.688,3.173,44.813-7.85,60.881,1.524
	c23.826,13.899,37.93,75.613,37.313,99.624c40.998,8.073,63.035-60.225,97.795-35.985c24.281,16.93,18.178,89.663,23,116.667
	c22.334-16.073,41.863-63.004,73.084-34.059c20.939,19.415,6.859,77.037,10.678,102.139c35.17,6.55,48.02-39.193,47.906-65.57
	c84.268,0.187,71.59,125.922,84.225,179.985c8.23-3.003,21.35,0.827,32.186-5.74c-1.275,19.363,4.393,70.504,12.973,87.138
	c24.871,48.221,29.502,27.539,63.947,14.396c35-13.354,37.35-22.213,60.277,17.541c4.801,8.322,4.404,33.185,7.898,37.372
	c10.465,12.54,26.57,12.49,36.936,22.296c23.816,22.53,53.059,21.489,33.994,68.538c-14.82,36.571-47.256,29.081-10.43,57.741
	c11.207,8.72,30.939-3.84,46.516,10.33c3.379,3.073,11.352,28.374,14.52,34.247c15.838,29.378,22.299,62.295,69.656,59.733
	c8.861,43.95,73.266,50.11,76.234,99.216c55.32,6.754,79.771-9.17,118.648,33.354c28.045,30.675,47.287,84.879,80.512,104.486
	c29.193-33.111,21.375-106.294,29.535-147.385c17.682-89.04,21.193-168.898,21.059-260.335
	c-0.189-129.015-24.227-253.457-24.418-382.164c-0.064-43.372,6.256-91.279,0.477-134.262c-6.617-49.218-20.008-48.452,14.58-88.51
	c19.9-23.048,37.684-31.163,44.943-59.678c0.002-0.014,0.006-0.026,0.01-0.039c9.098-35.818,2.033-78.3,2.949-114.879
	c1.406-56.255,4.404-112.427-4.508-168.353c-20.273-127.241-14.113-255.818-13.898-383.392
	c0.246-149.214-52.572-299.933-3.293-447.632c42.678-127.907,58.277-257.143,83.121-386.546
	c11.258-58.648,17.379-116.749,21.023-175.861c3.23-52.34,20.924-104.313,23.779-156.769c2.41-44.287,3.564-87.636-7.756-131.404
	c-12.363-47.779-0.727-95.731-8.959-143.652c-6.09-35.424-25.213-74.242-47.461-107.827c-19.828-29.925-34.236-60.285-53.439-90.138
	c-13.629-21.182-31.285-39.252-41.49-60.87c-9.928-21.036-31.203-34.893-69.096-45.076"/>
<g id="XMLID_18_">
	<g>
		<linearGradient id="SVGID_9_" gradientUnits="userSpaceOnUse" x1="959.1543" y1="750.7432" x2="890.3488" y2="4018.8521">
			<stop  offset="0" style="stop-color:#1D5052"/>
			<stop  offset="0.3323" style="stop-color:#16474A"/>
			<stop  offset="0.8831" style="stop-color:#042D34"/>
			<stop  offset="1" style="stop-color:#00272E"/>
		</linearGradient>
		<path fill="url(#SVGID_9_)" d="M398.886,3663.103c-56.85,14.23-159.06,47.747-186.512,95.735
			c-25.817,45.151-2.7,81.907-50.941,114.413c-44.878,30.225-89.994,15.297-142.499,21.621
			c-2.1,47.477-24.781,124.268-95.977,99.269c0.001-37.486-14.093-73.239-13.891-112.532
			c0.707-138.158,42.33-234.763-45.976-353.133c-87.174-116.863-86.778-248.534-86.872-386.695
			c-0.027-40.911-1.434-68.543,14.908-105.671c11.521-26.17,34.377-59.032,52.959-79.558c17.441-19.258,31.242-5.159,33.837-36.951
			c1.604-19.748-23.833-47.865-31.773-65.224c-15.773-34.462-18.468-65.688-24.951-102.333
			c-31.056-175.377-69.056-348.261-94.192-524.954c-21.966-154.398,43.953-301.758,47.369-454.508
			c0.659-29.529-2.098-56.614,19.044-84.072c15.895-20.657,30.3-38.878,41.301-60.547c20.162-39.734,27.631-79.046,65.17-113.595
			l61.049-47.931c6.221-21.004,30.908-42.201,44.1-63.353c17.618-28.222,29.592-59.864,36.978-89.272
			c7.769-30.958,6.754-61.787,13.637-92.799c4.202-18.962,3.744-57.797,22.07-73.345c39.254,58.647,37.097,125.48,46.09,185.488
			c4.036,26.914-15.565,110.722,55.658,115.447c25.635-16.925,23.036-49.722,23.502-71.271
			c0.791-36.354,5.893-70.767,12.012-106.524c12.035-70.221,19.891-140.358,34.439-209.925
			c11.808-56.445,35.242-110.813,43.748-167.246c4.217-27.991,5.618-54.75,12-81.63c3.955-16.731-1.698-64.904,21.346-74.584
			c28.563,16.938,18.578,74.099,17.965,97.265c-0.876,33.291-1.402,66.59-2.103,99.892c-0.977,46.399,18.324,88.577,17.187,134.248
			c-1.067,42.939-9.587,88.182-2.996,131.021c4.027,26.149,17.959,50.633,18.59,77.093c0.589,24.319-1.519,48.985,8.006,72.454
			c21.785,53.68,19.022,99.352,5.064,153.38c-5.065,19.6-11.98,39.106-6.817,60.009c4.426,17.927,27.13,34.475,34.459,51.157
			c17.105,38.893-9.092,83.681-0.846,123.343c9.982,48.072-4.759,100.676,9.654,148.63c34.145-16.507,39.503-115.352,78.41-112.072
			c6.456,26.645-3.214,54.61,2.251,81.377c9.502,46.524,15.579,87.036,41.673,127.354c9.643,14.913,21.646,28.208,27.023,44.877
			c6.001,18.562,13.478,46.628,27.889,60.206c16.018,15.082,40.375,10.748,61.099,10.904c51.076,0.364,99.777-16,151.999-16.001
			c25.33,0,50.671,0.001,76,0.001c18.037-0.003,47.468-5.331,58.507,12.783c-18.104,26.981-63.813,39.643-94.625,46.321
			c-17.064,3.701-35.462,7.196-51.878,12.791c-15.66,5.337-27.021,15.556-40.991,23.212c-13.249,7.267-29.169,9.522-43.113,15.894
			c-12.617,5.771-22.823,14.038-35.013,22.094c-21.222,14.03-53.631,20.621-61.871,46.013c-4.027,12.438-5.534,31.142-7.224,44.887
			c-1.689,13.697-2.498,31.288,7.129,40.992c16.021,16.169,55.745,25.761,76.874,31.012c12.468,3.099,38.782,6.817,48.477-6.902
			c8.316-11.78-22.283-22.876-31.472-33.199c-9.238-10.373-10.854-23.333-20.817-31.902c-10.431-8.962-23.658-6.917-35.194-12.696
			c-1.817-6.963-7.442-16.035-4.971-23.496c9.55-28.829,69.952-16.928,92.175-19.714c36.357-4.553,75.209-8.164,112.207-8.089
			c36.01,0.067,72.368-6.898,107.805-12.892c38.927-6.59,80.179-17.868,120.206-19.097c13.342-0.41,44.33-2.997,52.172,11.885
			c9.285,17.66-31.701,26.962-44.363,33.1c-44.533,21.572-86.364,46.099-125.002,74.021c-33.824,24.443-60.674,44.985-63.014,88.984
			c-1.362,25.468-13.325,32.858-28.2,51.999c-10.838,13.948-17.849,27.93-12.434,45.201c5.392,17.195,17.785,31.004,17.241,50.296
			c10.186,0.386,25.429-4.734,35.498-8.282c24.246-8.54,44.04-22.484,67.837-31.102c38.909-14.083,82.47-25.087,123.442-33.199
			c26.578-5.264,53.5-3.077,80.612-9.923c27.829-7.036,52.7-13.771,79.003-24.981c52.935-22.563,103.876-24.725,161.187-24.01
			c21.596,0.27,29.157,8.29,43.817,23.11c10.545,10.667,24.454,15.437,34.878,25.889c21.621,21.687-10.152,69.871-21.888,95.011
			c-21.953,46.977-49.401,79.298-84.997,115.973c-29.944,30.861-51.272,68.991-80.113,99.137
			c-20.297,21.221-44.765,41.459-52.901,70.885c-12.336,44.684,32.357,1.844,49-4.99c14.763-6.06,29.215-4.532,44.624-9.813
			c18.231-6.261,50.662-10.253,66.486-19.811c14.924-9.003,17.818-33.57,41.091-31.563c19.889,1.717,43.448,25.229,64.799,13.347
			c14.429-8.036,26.719-56.528,46.338-52.649c0.289,5.857,3.791,9.465,5.691,14.263c10.524-16.252,20.118-35.265,27.083-53.581
			c1.774,10.783,5.434,22.911,8.688,33.521c5.654,18.396,9.528,40.543,19.114,57.554c11.298,20.067,16.216,25.893,16.083,50.62
			c-0.071,15.83-1.764,33.259,0.824,48.789c28.941-10.539,35.146-63.438,48.196-88.599c13.156-25.391,13.049-39.952,34.903-15.097
			c9.846,11.206,31.745,29.754,47.415,28.689c7.054,26.786,21.198,51.275,29.863,77.549c9.889,29.936,5.375,48.911,0.98,77.631
			c49.569,11.933,107.024,5.172,157.934,9.839c43.633,3.995,106.6,7.521,138.821,41.981c-115.974,19.466-351.83,4.65-467.004,20.6
			c-12.806,25.404-14.573,47.575-15.839,76.23c-29.013,9.82-57.646-0.831-61.229-31.475c-27.086,56.144-47.475,13.957-93.077,9.06
			c-26.895-2.891-145.657-51.182-165.18-34.073c-38.052,33.369-33.919,75.911-93.015,42.95
			c-12.784-7.125-22.792-32.572-39.066-32.539c-14.422,0.031-33.358,27.856-45.011,33.6c-5.766-8.939-19.818-14.608-24.327-19.7
			c-21.52,95.921-174.227,70.08-250.254,65.991c20.91,28.705-26.303,42.114-50.553,48.452c-12.856,35.534,73.434,54.193,13.5,92.544
			c-41.017,26.245-91.565-36.625-135.345-46.646c-57.25-13.099-11.348,110.06-62.75,112.668
			c-62.271,3.167-85.976-75.155-154.021-55.507c-10.142,28.394-30.314,53.219-53.039,75.052
			c-14.924,14.327-69.565,33.608-70.395,59.326c-0.844,26.422,32.981,25.679,38.314,45.695
			c8.104,30.391-16.453,34.063-25.038,57.459C342.656,3621.739,417.35,3618.473,398.886,3663.103z"/>
	</g>
	<g>
	</g>
</g>
<path fill="#00383D" d="M3471.792,1066.312c-11.631,7.339-4.646,70.087-3.109,84.876c3.908,37.623,2.32,76.625,6.902,114.248
	c5.045,41.426,7.809,83.271,13.084,124.89c7.053,55.667,11.123,111.297,11.123,167.986c0,64.634,4,128.414,4,193.068
	c0,38.294-1.627,76.717,4.207,114.042c5.643,36.089,9.109,73.209,12.684,109.687c1.918,19.579,3.104,38.244,3.109,58.234
	c0.006,18.392,4.576,35.451,4.891,52.649c8.67-8.787,10.234-33.129,14.113-46.698c7.086-24.794,8.543-50.859,14.094-75.992
	c13.293-60.206,10.902-124.087,10.902-185.994c0-46.263-5.504-96.254-0.207-142.092c1.727-14.931,8.619-33.24,4.4-49.111
	c-3.662-13.769-17.123-25.304-20.4-39.586c-3.625-15.797-9.119-28.064-12.682-44.207c-3.309-14.984-5.881-33.719-10.891-48.207
	c-9.998-28.911-20.453-59.605-20.221-91.793c0.49-67.637-5.873-133.267-8-200c-0.613-19.272-6.578-83.597-36-76"/>
<path fill="#00383D" d="M3875.792,1678.312c2.834-13.838-7.965-16.16-16.027-23.821c-15.568-14.793-32.176-31.396-39.068-51.986
	c-12.832-38.326-28.061-77.926-49.793-111.396c-7.018-10.806-20.008-17.733-26.414-28.797c-7.447-12.862-3.389-29.089-4.604-43.11
	c-2.41-27.8-9.959-57.502-16.883-84.192c-10.107-3.252-15.576-14.469-26.414-5.075c-8.502,7.371-14.404,37.8-15.893,48.378
	c-5.051,35.914-1.018,75.432-0.904,111.779c0.229,73.027-34.484,139.679-36,212.221c-0.836,40.007-2.299,79.675-4.092,119.203
	c-1.588,35.021-0.986,73.133-6.926,107.814c-7.738,45.186-17.367,91.104-16.969,136.961c0.268,30.729-7.262,60.871-3.408,91.795
	c25.191-3.684,33.605-76.217,46.299-96.072c14.396-22.521,43.416-20.752,53.195-47.701c7.955-21.922,8.01-56.258,7.9-80
	c-0.125-27.622,0-55.247,0-82.869c-0.096,123.193,38.475,241.168,3.111,362.976c-12.604,43.412-9.711,97.553-11.098,142.797
	c-0.77,25.142-2.047,51.706,3.004,76.192c4.227,20.484,2.979,39.85,5.588,60.3c41.547,14.246,53.881-117.467,55.602-140.3
	c3.32-44.083,5.344-87.189,12.797-131.109c8.643-50.925,22.369-100.983,30.213-151.88c8.408-54.563,12.762-109.594,19.793-164.313
	c5.289-41.147,13.219-82.538,12.977-123.985c-0.146-25.009-2.57-51.696-0.178-76.591c1.66-17.295,28.004-64.102,4.191-75.217"/>
<path fill="#00383D" d="M3291.792,1906.312c1.666-1.475,5.193-2.664,7.096-3.602c5.141,19.857,7.795,42.595,5.111,63.588
	c-3.285,25.688-8.986,37.102,11.793,55.899c17.143,15.509,30.688,31.941,21.189,56.114c-6.131,15.601-25.078,32.157-40.492,36.697
	c-2.658,17.133-5.947,34.318-8.811,51.396c-2.027,12.08-3.33,8.748,4.035,19.921c6.541,9.924,16.463,18.703,24.078,27.908
	c15.945,19.271,30.078,55.27,37.082,80.171c3.885,13.805,5.527,30.629,15.033,42.491c16.865-61.135,27.885-117.074,27.885-182.491
	c0-18.874-1.217-37.614,4.891-55.188c6.807-19.587,6.869-18.518-4-36.697c-8.434-14.104-12.746-29.59-16.891-44
	c-4.143-14.411-13.088-28.266-12.59-43.603c-21.756-2.97-29.439-5.946-44.4-23.614c-12.424-14.674-23.006-31.209-35.01-44.99"/>
<path fill="#00383D" d="M3831.792,642.312c16.791,8.236,11.973,31.92,12,47.922c0.066,38.228-9.986,67.501-18.996,104.078
	c-13.033,52.913-6.406,117.106-40.705,162.903c-13.107,17.502-36.822,35.285-43.502,57.004c-5.031,16.362-0.791,39.971-0.797,56.997
	c-0.016,51.699-0.826,108.252-19.51,155.082c26.48,17.313,24.213,46.994,36.514,72.106c6.061,12.371,11.605,21.979,15.873,35.018
	c3.424,10.462,7.75,26.143,15.238,35.46c6.564-42.045,16.021-84.72,19.871-126.57c1.943-21.129-2.863-43.203-0.193-64.192
	c2.189-17.195,4.027-49.325,15.41-62.791c6.234,43.128,0.797,91.202,0.797,134.983c0,42.76,8.26,82.178,12.207,124.114
	c1.988,21.121-11.752,178.299,15.018,175.388c1.85-8.771,7.543-12.902,11.68-20.213c11.83-20.91,16.563-48.476,20.191-71.815
	c5.516-35.451,5.816-71.622,9.809-107.253c4.092-36.516,14.938-71.943,20.285-108.313c8.059-54.804,6.98-119.321-8.092-172.604
	c-14.582-51.54-22.295-105.771-34.193-158.299c-7.225-31.887-12.168-64.399-14.996-96.114c-2.088-23.413,9.5-38.886,12.186-60.683
	c2.305-18.715,2.598-45.779-0.982-64.207c-1.785-9.187-4.521-19.292-7.111-28c-2.848-9.578-0.787-15.357-12-20"/>
<path fill="#00383D" d="M318.421,745.153c1.732-1.458,3.955-2.251,6.06-2.701c7.103,7.051,1.887,25.73,2.787,34.979
	c2.509,25.81,2.988,49.629,0.24,75.733c-3.072,29.189-3.171,57.881-3.086,87.389c0.073,25.141-4.937,49.104-6.011,73.96
	c-0.855,19.78-10.145,38.337-12.146,58.341c-2.32,23.19,3.148,47.143,3.155,70.593c0.004,12.053-1.293,24.824-0.155,36.81
	c1.049,11.049,6.321,22.802,6.38,33.767c0.104,19.484-5.899,42.78-9.071,62.029c-3.306,20.067-13.278,40.213-12.215,60.914
	c1.217,23.688,7.602,47.383,9.226,71.254c3.498,51.425,5.732,103.567,5.835,155.124c0.052,26.262-2.991,51.845-3,78.157
	c-0.004,13.213,0.275,26.457,0.069,39.666c-0.259,16.689-5.01,31.922-6.214,48.374c-2.519,34.399,2.053,69.48,3.3,103.873
	c-12.41-21.097-9.809-54.34-15.744-77.896c-3.941-15.644-8.512-30.892-16.688-44.406c-7.571-12.515-17.963-22.873-24.777-35.854
	c-10.35-19.719-8.726-44.194-14.21-66.006c-5.696-22.652-14.865-42.231-24.232-63.076c-10.699-23.807-18.934-48.133-15.669-75.104
	c1.069-8.834,4.507-21.586,5.488-30.361c1.52-13.588-1.092-27.888,0.598-41.491c3.059-24.617,2.947-50.299,5.915-75.008
	c1.506-12.537,1.407-26.183,3.001-39.073c1.6-12.939,7.668-25.794,9.311-38.779c3.572-28.233,4.454-56.262,8.777-84.163
	c3.8-24.529,9.055-47.951,15.156-72.008c7.536-29.714,11.084-60.173,17.916-89.998c6.281-27.424,14.457-53.129,20.345-81.019
	c3.11-14.727,5.074-26.962,7.325-42.004c1.212-8.099,4.432-15.602,5.322-24.003c0.845-7.971-0.298-16.099,0.678-24.002
	c1.827-14.785,6.057-30.406,7.666-45.005c1.492-13.532,2.353-25.898,15.669-33.003"/>
<path fill="#00383D" d="M502,1774c0,0,0-7.186,0-10.906c0,14.361-1.344,27.005-4.018,41.097
	c-4.372,23.042-3.297,46.405-7.662,69.813c-7.729,41.455-4.077,77.733-3.824,119.371c0.265,43.621-15.287,86.96-15.026,131.095
	c0.108,18.402,0.53,36.088-3.018,54.149c-2.534,12.906-6.71,29.368-6.512,42.149c-0.892,0.545-4.886,2.16-5.738,2.381
	c1.476-13.594-5.021-29.911-8.014-43.185c-3.296-14.616-4.648-28.874-6.59-43.425c-3.161-23.692-6.461-47.58-9.236-71.254
	c-2.304-19.652-2.931-38.867-2.931-59.173c0-17.978,3.493-33.899,3-51.839c-0.453-16.477-6.096-31.356-6-48.004
	c0.047-8.295-1.124-15.466,2.941-21.74c4.881-7.533,13.36-11.582,17.468-20.265c12.656-26.752,24.494-56.273,34.188-83.426
	c9.737-1.502,7.672-13.066,20.69-9.711"/>
<path fill="#00383D" d="M943.792,2094.312c1.102-0.878,2.202-1.756,3.303-2.634c7.822,25.059-49.527,53.14-67.096,61.744
	c-32.584,15.959-65.015,30.777-96.299,48.89c-14.4,8.337-27.822,14.899-44.114,20c-12.913,4.043-25.575,4.883-38.903,8.797
	c-11.689,3.434-26.199,14.396-36.89,20.093c-12.839,6.843-26.496,12.526-39.188,18.712c-6.979-28.309,30.728-51.596,51.088-64.592
	c28.87-18.428,59.369-33.525,92.1-42.896c28.387-8.127,56.381-23.765,83.908-33.11c24.342-8.266,68.547-18.58,76.868-46.214
	c4.222-1.139,7.237-3.954,11.224-4.79"/>
<path fill="#00383D" d="M1151.792,2218.312c-0.409-3.082,0.653-4.313,3.189-3.694c7.697,31.332-56.779,62.364-75.089,76.685
	c-31.511,24.645-65.866,44.434-96.101,71.01c-11.773,10.349-30.589,19.551-38.996,33.004c-8.572,13.719-5.242,31.937-13.018,46.982
	c-6.933,13.415-22.01,20.574-30.982,32.811c-10.219,13.938-15.742,34.601-21.687,50.584c-28.13,9.341-7.185-40.153-3.331-47.381
	c7.516-14.098,15.07-29.355,19.9-43.907c5.466-16.469,12.757-31.854,16.221-48c4.541-21.174,11.83-32.192,27.787-48.199
	c30.875-30.976,71.688-52.274,105.203-78.89c16.023-12.725,30.281-15.619,47.885-24.008c17.688-8.428,26.645-16.782,47.018-16.996"
	/>
<path fill="#00383D" d="M93.792,1674.312c-2.937,0.322-4.46-0.977-4.57-3.894c4.659-8.692,31.047-17.403,40.855-19.502
	c24.434-5.227,19.128,13.489,19.622,31.303c1.532,55.227,12.951,114.21,28.079,167.488c9.579,33.735,18.5,69.228,20.121,104.397
	c1.024,22.226-1.299,90.458,31.032,95.98c4.949-12.021,17.495-26.781,28.848-32.807c20.001-10.613,15.191,7.07,22.917,24.236
	c9.817,21.809,27.532,39.485,38.087,60.89c19.166,38.864,33.406,80.029,44.12,123.7c7.171,29.23,11.951,62.279,26.797,88.207
	c8.96,15.647,26.592,38.806,44.107,44.192c8.087,2.487,19.227-2.233,27.082-1.068c5.414,0.803,2.926-3.475,10.015,0.619
	c2.854,1.647,8.706,16.221,9.999,19.175c11.949,27.291,9.022,58.654,25.78,83.873c33.375-28.741,44.627-79.608,60.106-118.677
	c9.098-22.963,17.919-45.881,28.1-68.307c4.835-10.652,9.035-34.049,18.106-39.474c5.205,31.238-1.481,65.034,1.688,96.648
	c3.369,33.612,7.051,65.72,7.11,100.114c0.053,31.007-12.768,54.112-16.207,84c-3.051,26.52,1.001,39.955-18.811,60
	c-17.676,17.884-44.864,15.323-57.965-5.019c-4.222-6.555-12.368-37.221-19.801-39.552c-11.836-3.712-15.914,15.281-20.221,23.487
	c-14.409,27.455-34.843,48.793-54.982,72.079c-14.778,17.086-27.15,35.77-44.107,50.776
	c-16.102-58.131-31.332-116.131-38.911-175.966c-2.847-22.478-9.268-45.216-12.107-66.89c-1.964-14.996-1.032-29.545-4.775-44.014
	c-7.936-30.672-16.134-61.481-27.124-91.986c-5.544-15.387-11.327-24.49-12.99-40.014c-1.522-14.202-5.41-25.506-8.697-39.488
	c-12.994-2.322-29.09,12.166-43.509,11.787c-10.676-0.28-34.124-12.88-40.876-20c-8.026-8.463-9.068-30.592-23.536-32.869
	c-9.94-1.564-31.367,18.658-38.492,24.363c-11.458,9.178-24.571,31.83-39.096,36.45c-23.29,7.409-20.96-44.964-24.79-64.165
	c-8.766-43.945-9.004-87.621-9.004-132.271c0-31.536-2.394-64.36,3.886-95.018c4.454-21.743,8.985-43.8,11.225-65.887
	c8.441-83.265-11.54-164.721-11.11-247.899c0.137-26.595-3.992-52.102-4-79.004c-0.007-23.231,2.262-47.753,0.093-70.903
	c-2.133-22.756-10.31-63.004,15.11-76.777c10.116,59.139-4.981,123.07,17.794,178.685c5.837,14.253,13.197,26.295,18.021,41.089
	c2.336,7.164,6.51,12.819,8.982,19.7c6.444,17.937-0.751,14.777-12,28.207"/>
<path fill="#00383D" d="M1448.792,2437.312c-0.047,40.235,13.348,62.344-20.018,94.11c-13.846,13.184-31.513,20.667-40.092,38.797
	c-8.803,18.602-13.285,38.222-24.79,56.093c-23.888,37.104-58.831,45.517-91.985,68.99c-11.172,7.908-19.49,17.137-29.004,27.01
	c-11.766,12.209-26.325,35.214-42.506,39.681c-1.819-13.7-0.863-26.399-4.711-39.667c-4.621-15.932-2.304-16.326-18.897-11.018
	c-10.953,3.505-17.064,9.455-29.011,10.99c-14.779,1.898-29.5,2.5-43.986,4c-23.334,2.415-50.576,8.81-71.885-0.99
	c-14.228-6.543-19.484-10.676-36.115-10.996c-15.94-0.307-28.302,1.243-43.487,4.711c0.096,16.909,8.347,38.064,11.396,55.289
	c4.316,24.383,22.697,38.975,40.299,55.203c23.855,21.994,59.288,42.544,63.779,76.811c2.904,22.157-10.304,83.68,19.922,88.172
	c21.918,3.257,32.206-25.793,39.096-40.278c7.354-15.46,20.68-28.418,29.993-43.602c18.731,7.042,18.856,34.548,39.097,6.677
	c9.688-13.344,18.293-41.934,32.989-15.189c4.894,8.905,5.062,46.187,22.014,35.475c7.479-4.727,17.813-45.271,20.903-55.268
	c20.039-64.831,69.511-99.795,112-147.779c10.273-11.602,15.887-24.065,24.783-36.028c11.078-14.896,25.987-28.488,34.213-45.082
	c14.613-29.477,32.336-56.973,46.008-87.11c11.482-25.309,46.91-47.137,29.979-75.886c-8.025-13.626-24.197-20.222-33.979-32.008
	c-11.846-14.276-25.063-8.906-37.004-23.106"/>
<path fill="#00383D" d="M3215.792,2254.312c-2.559-0.677-5.025-0.475-7.395,0.604c-3.52,20.687-5.609,35.008-13.596,55.175
	c-8.52,21.517-18.148,34.016-31.102,52.221c-23.236,32.659-10.736,84.624-16.512,123.381c-14.652,2.008-29.387,4.361-43.396,3.95
	c-14.928-0.439-6.334-12.37-16.982,3.793c-3.768,5.722-5.779,12.112-10.027,17.958c-7.096,9.769-17.701,17.286-28.896,19.011
	c-21.459,3.305-25.063-5.226-32.982,15.921c-14.223,37.966-6.268,82.535-19.125,119.779c-6.256,18.122-21.422,33.493-24.078,52.207
	c-2.035,14.334-1.092,33.213,0.684,47.409c4.605-0.235,12.738,5.691,15.201,5.175c9.992-2.092,14.408-15.264,19.795-23.074
	c13.313-19.308,26.51-45.426,44.426-60.605c9.926-8.409,26.551-18.406,39.986-16.969c16.516,1.767,25.691,20.06,39.793,28.164
	c11.557,6.642,30.893,14.029,44.207,16.107c19.455,3.035,18.76-4.112,27.908-16.428c8.68-11.685,19.426-21.229,24.191-36.604
	c6.041-19.485,1.402-43.435,12.107-61.951c-0.199,7.604-0.598,15.046,0.605,22.457c18.682-11.819,11.93-37.928,15.984-56.777
	c5.154-23.954,15.318-41.592,15.203-66.903c-0.074-16.576,2.777-35.693,0.207-52c-0.813-5.15-4.332-16.847-9.004-20.064
	c-10.508-7.238-11.174,2.895-22.611-0.462c-4.479-32.676-4.58-66.093-4.592-99.474c-0.006-17.525-0.92-28.331-7.004-44.106
	c-4.889-12.679-8.824-30.062-8.996-43.894"/>
</svg>
