<?xml version="1.0" encoding="utf-8"?>
<!-- Generator: Adobe Illustrator 16.0.0, SVG Export Plug-In . SVG Version: 6.00 Build 0)  -->
<!DOCTYPE svg PUBLIC "-//W3C//DTD SVG 1.1//EN" "http://www.w3.org/Graphics/SVG/1.1/DTD/svg11.dtd">
<svg version="1.1" id="Layer_6" xmlns="http://www.w3.org/2000/svg" xmlns:xlink="http://www.w3.org/1999/xlink" x="0px" y="0px"
	 width="400px" height="400px" viewBox="0 0 400 400" enable-background="new 0 0 400 400" xml:space="preserve">
<path fill="none" stroke="#293C63" stroke-width="10" stroke-miterlimit="10" d="M-50.818,122.533"/>
<path fill="none" stroke="#293C63" stroke-width="10" stroke-miterlimit="10" d="M265.438,173.852"/>
<path fill="none" stroke="#293C63" stroke-width="10" stroke-miterlimit="10" d="M287.34,142.614"/>
<polygon fill="#EDEEF1" points="259.845,95.86 266.938,87.371 283.391,104.074 315.27,64.789 323.264,72.307 284.435,120.416 "/>
<path fill="none" stroke="#EDEEF1" stroke-width="7" stroke-miterlimit="10" d="M291.671,37.83
	c-29.259,0-52.979,23.461-52.979,52.404c0,12.379,4.308,23.71,11.564,32.677l0,0l-8.698,19.726l22.396-7.742l0,0
	c8.064,4.907,17.553,7.742,27.717,7.742c29.257,0,52.978-23.461,52.978-52.403S320.928,37.83,291.671,37.83z"/>
<path fill="#EDEEF1" d="M246.471,203.799c2.085-0.203,8.529,2.445,8.529,3.239V175h-32.991c0.561-2,0.884-4.388,0.884-6.212
	c0-8.57-6.754-16.027-15.084-16.027c-8.331,0-15.083,7.712-15.083,16.281c0,1.826,0.324,3.958,0.885,5.958H164v27.386
	c-1-0.586-3.04-0.918-4.825-0.918c-8.328,0-14.955,6.95-14.955,15.519c0,8.57,6.565,15.517,14.894,15.517
	c1.785,0,3.887-0.333,4.887-0.918V257h32.111c-0.56-1-0.883-3.262-0.883-5.088c0-8.568,6.753-15.463,15.081-15.463
	c8.333,0,15.085,6.865,15.085,15.435c0,1.828-0.322,4.116-0.885,5.116H255v-32.403c0,0.796-4.667,3.236-8.529,3.24
	c-5.663,0.006-11.085-3.949-11.085-12.519C235.386,206.747,241.734,204.261,246.471,203.799z"/>
<path fill="none" stroke="#EDEEF1" stroke-width="7" stroke-miterlimit="10" d="M164.5,286v-28.5h-29.941
	c0.481,3,0.75,4.158,0.75,5.838c0,8.572-6.755,15.613-15.085,15.613c-8.329,0-15.081-7.088-15.081-15.658
	c0-1.681,0.267-2.793,0.747-5.793H75.5v26.468c-1-0.588-3.416-0.921-5.197-0.921c-8.334,0-15.147,6.948-15.147,15.518
	s6.847,15.518,15.177,15.518c1.783,0,4.168-0.332,5.168-0.919V342.5h28.721c-0.48,1-0.748,2.949-0.748,4.629
	c0,8.572,6.752,15.426,15.082,15.426c8.332,0,15.085-6.811,15.085-15.383c0-1.681-0.267-3.672-0.75-4.672h31.61V311"/>
<path fill="none" stroke="#EDEEF1" stroke-width="7" stroke-miterlimit="10" d="M246.719,200.468c2.1,0,4.781,0.44,4.781,1.239
	v-7.874V174.5h-87v83h31.611c-0.56-2-0.883-3.182-0.883-5.006c0-8.566,6.753-15.421,15.081-15.421
	c8.333,0,15.085,6.808,15.085,15.375c0,1.826-0.322,3.052-0.885,5.052h26.99v-27.234c0,0.796-2.682,1.237-4.781,1.237
	c-8.33,0-15.082-6.946-15.082-15.517C231.637,207.418,238.389,200.468,246.719,200.468z"/>
<path fill="none" stroke="#EDEEF1" stroke-width="7" stroke-miterlimit="10" d="M193,257.5h-28.5v27.247
	c1-0.553,3.205-0.866,4.935-0.866c8.333,0,15.087,6.949,15.087,15.518c0,8.572-6.753,15.519-15.082,15.519
	c-1.733,0-3.939-0.313-4.939-0.867v28.45h32.448c-0.563-1-0.887-3.558-0.887-5.383c0-8.566,6.753-15.605,15.083-15.605
	c8.331,0,15.084,7.083,15.084,15.652c0,1.825-0.323,4.336-0.882,5.336H251.5v-28.932c2,0.76,4.852,1.184,6.896,1.184
	c8.33,0,13.649-5.949,13.649-14.521c0-8.567-5.602-14.518-13.932-14.518c-2.043,0-4.614,0.423-6.614,1.185V257.5H224"/>
<path fill="none" stroke="#EDEEF1" stroke-width="7" stroke-miterlimit="10" d="M133,257.5h31.5v-83h-29.806
	c0.395-1,0.614-3.277,0.614-4.793c0-8.569-6.755-15.734-15.085-15.734c-8.329,0-15.081,7.271-15.081,15.841
	c0,1.517,0.219,3.687,0.612,4.687H75.5v26.834c2-0.553,3.078-0.866,4.811-0.866c8.33,0,15.021,6.95,15.021,15.519
	c0,8.57-6.661,15.517-14.99,15.517c-1.731,0-2.842-0.314-4.842-0.864V257.5H107"/>
</svg>
