<?xml version="1.0" encoding="utf-8"?>
<!-- Generator: Adobe Illustrator 16.0.0, SVG Export Plug-In . SVG Version: 6.00 Build 0)  -->
<!DOCTYPE svg PUBLIC "-//W3C//DTD SVG 1.1//EN" "http://www.w3.org/Graphics/SVG/1.1/DTD/svg11.dtd">
<svg version="1.1" xmlns="http://www.w3.org/2000/svg" xmlns:xlink="http://www.w3.org/1999/xlink" x="0px" y="0px" width="500px"
	 height="500px" viewBox="0 0 500 500" enable-background="new 0 0 500 500" xml:space="preserve">
<g id="Layer_2">
</g>
<g id="Layer_1">
	<g>
		<g>
			<path fill="none" stroke="#293C63" stroke-width="10" stroke-miterlimit="10" d="M285.028,224.719"/>
		</g>
		<g>
			<path fill="none" stroke="#293C63" stroke-width="10" stroke-miterlimit="10" d="M256.531,196.12"/>
		</g>
		<g>
			<path fill="none" stroke="#293C63" stroke-width="10" stroke-miterlimit="10" d="M321.717,165.811"/>
		</g>
		<path fill="#FFFFFF" d="M327.651,355.715h-0.119c-0.423,0-1.229,0.076-2.19,0.152l0.188-39.152h-0.043l-0.202-38.83
			c-2.98,1.449-6.363,2.194-9.951,2.194c-11.967,0-21.667-9.144-21.667-20.373c0-11.23,9.7-20.354,21.667-20.354
			c3.514,0,6.828,0.78,9.763,2.172l-0.208-39.918l-40.607-0.473c0.824-2.258,1.305-2.322,1.332-4.688
			c0.131-11.04-9.236-20.092-20.924-20.229c-11.686-0.139-21.266,8.682-21.396,19.723c-0.027,2.364,0.404,2.445,1.174,4.723
			l-36.832,0.52v-0.467h-37.226c0.165-1.127,0.252-2.274,0.252-3.394c0-13.001-11.063-23.578-24.662-23.578
			s-24.662,10.596-24.662,23.62c0,1.117,0.083,2.245,0.245,3.352H82.635v38.444c-0.811-0.061-1.518-0.074-1.995-0.074
			c-13.622,0-24.292,10.319-24.292,23.492c0,13.173,10.589,23.492,24.107,23.492c0.429,0,1.229-0.013,2.18-0.088v38.733h1v28.861
			c-1.127-0.189-2.293-0.285-3.494-0.285c-12.916,0-23.033,10.832-23.033,24.661s10.184,24.662,23.186,24.662
			c1.155,0,2.266-0.089,3.342-0.269v39.369h39.28c-0.062,0.825-0.076,1.546-0.076,2.031c0,13.434,10.319,23.957,23.492,23.957
			c13.173,0,23.492-10.627,23.492-24.192c0-0.498-0.014-1.118-0.062-1.796h29.874v0.101l50.184,0.241l-3.127-5.339
			c-1.534-2.539-2.494-7.899-2.473-11.315c0.057-9.758,8.372-17.688,18.474-17.688h0.115c4.944,0,9.576,1.912,13.042,5.318
			c3.439,3.379,5.318,7.841,5.29,12.577c-0.021,3.429-1.073,8.77-2.609,11.257l-3.277,5.309l49.685,0.238l0.181-39.906
			c0.888,0.074,1.66,0.207,2.167,0.207h0.125c0.001,0,0.002,0,0.003,0c13.599,0,24.3-10.275,24.362-23.383
			C351.838,366.158,341.242,355.715,327.651,355.715z M80.455,279.069c-9.593,0-17.107-7.244-17.107-16.492
			s7.595-16.492,17.292-16.492c1.977,0,3.461,0.296,3.754,0.421l5.241,3.004v-41.795h41.617l-1.91-4.795
			c-0.629-1.58-1.004-3.657-1.004-5.557c0-9.165,7.923-16.62,17.662-16.62s17.662,7.437,17.662,16.578
			c0,1.925-0.375,4.018-1.005,5.599l-1.91,4.795h39.889v31.749c-1.369-0.249-2.821-0.378-4.312-0.378
			c-13.599,0-24.662,10.539-24.662,23.492c0,12.954,11.063,23.492,24.662,23.492c1.491,0,2.943-0.13,4.312-0.378v30.023h-0.004
			l-0.004,1H158.76l2.793,5.165c0.831,1.536,1.27,3.594,1.27,5.948c0,5.25-2.162,9.958-5.568,13.196
			c-3.036,2.281-6.941,3.637-11.256,3.637c-3.321,0-6.42-0.867-9.077-2.347c-4.275-3.194-7.083-8.492-7.083-14.486
			c0-2.354,0.439-4.411,1.271-5.947l2.796-5.166H89.635v-35.031l0.085-6.091l-5.243,3.011
			C84.11,278.761,82.503,279.069,80.455,279.069z M165.438,434.715l-6.061-0.038l3.004,5.241c0.144,0.307,0.441,1.589,0.441,3.593
			c0,9.641-7.244,17.192-16.492,17.192c-9.248,0-16.492-7.448-16.492-16.957c0-1.994,0.297-3.495,0.421-3.788l3.011-5.243H90.635
			v-42.752l-5.042,2.475c-1.637,0.803-3.321,1.177-5.3,1.177c-9.076,0-16.186-7.758-16.186-17.662
			c0-9.903,7.042-17.661,16.033-17.661c2.026,0,3.86,0.396,5.452,1.177l5.042,2.475v-39.228h31.002
			c-0.198,1.171-0.299,2.385-0.299,3.621c0,8.428,4.75,15.824,11.851,19.924c3.753,2.67,8.277,4.23,13.143,4.23
			c6.323,0,12.066-2.641,16.293-6.921c4.935-4.253,8.036-10.367,8.036-17.151c0-1.254-0.106-2.5-0.312-3.703h30.238l-0.197,40.867
			l5.019-2.426c1.86-0.877,3.994-1.441,6.434-1.441c0,0,0.001,0,0.001,0c4.559,0,8.698,1.68,11.821,4.385
			c2.699,3.138,4.36,7.289,4.36,11.853c0,6.372-3.243,11.949-8.077,15.056c-2.468,1.228-5.276,1.932-8.263,1.932
			c-2.389-0.012-4.549-0.477-6.422-1.381l-4.997-2.414l-0.198,43.57H165.438z M327.323,395.715c-0.001,0-0.002,0-0.003,0
			c-2.128,0-3.715-0.461-4.086-0.638l-5.071-2.709l-0.194,43.013l-31.264-0.15c0.929-3.225,1.418-6.791,1.435-9.575
			c0.039-6.645-2.583-12.897-7.384-17.614c-4.772-4.689-11.132-7.326-17.907-7.326h-0.156c-13.938,0-25.344,11.037-25.424,24.632
			c-0.017,2.791,0.441,6.365,1.354,9.625l-30.988-0.178v-32.446c1.183,0.174,2.393,0.267,3.561,0.267
			c5.184,0,9.982-1.728,13.897-4.647c6.776-4.17,11.295-11.411,11.334-19.634c0.033-6.921-3.097-13.188-8.092-17.523
			c-4.314-4.632-10.351-7.519-17.027-7.519c-1.195,0-2.449,0.098-3.673,0.277v-28.854v-1.9l40.544,0.194l-2.091-4.899
			c-0.875-2.051-1.229-3.686-1.219-5.642c0.043-8.961,7.791-15.98,17.737-15.98c4.787,0.022,9.248,1.743,12.563,4.842
			c3.26,3.048,5.043,7.115,5.021,11.452c-0.009,1.903-0.354,3.392-1.272,5.488l-2.141,4.884l41.72,0.207l-0.176,36.518l-0.042,5.732
			l5.096-2.503c0.387-0.172,2.003-0.393,4.242-0.393c0,0,0.001,0,0.002,0c9.664,0,17.2,7.336,17.156,16.584
			C344.731,388.5,337.105,395.715,327.323,395.715z"/>
		<g>
			<polygon fill="#FFFFFF" points="350.327,102.788 359.794,92.91 378.938,112.346 414.816,66.637 424.116,75.384 378.938,131.359 
							"/>
		</g>
		<g>
			<path fill="#FFFFFF" d="M322.611,163.143l12.513-28.375c-8.452-11.167-12.907-24.44-12.907-38.526
				c0-35.55,29.222-64.473,65.141-64.473s65.141,28.922,65.141,64.473s-29.222,64.473-65.141,64.473
				c-11.495,0-22.741-2.993-32.635-8.671L322.611,163.143z M355.522,144.36l1.406,0.855c9.137,5.56,19.659,8.498,30.429,8.498
				c32.059,0,58.141-25.782,58.141-57.473s-26.082-57.473-58.141-57.473s-58.141,25.782-58.141,57.473
				c0,13.186,4.383,25.571,12.676,35.819l1.344,1.66l-7.746,17.564L355.522,144.36z"/>
		</g>
	</g>
</g>
</svg>
