<?xml version="1.0" encoding="utf-8"?>
<!-- Generator: Adobe Illustrator 16.0.0, SVG Export Plug-In . SVG Version: 6.00 Build 0)  -->
<!DOCTYPE svg PUBLIC "-//W3C//DTD SVG 1.1//EN" "http://www.w3.org/Graphics/SVG/1.1/DTD/svg11.dtd">
<svg version="1.1" id="Layer_9" xmlns="http://www.w3.org/2000/svg" xmlns:xlink="http://www.w3.org/1999/xlink" x="0px" y="0px"
	 width="400px" height="400px" viewBox="0 0 400 400" enable-background="new 0 0 400 400" xml:space="preserve">
<g>
	<rect x="149" y="92" fill="#EDEEF1" width="103" height="65"/>
	<rect x="25" y="266" fill="#EDEEF1" width="72" height="42"/>
	<rect x="304" y="266" fill="#EDEEF1" width="71" height="42"/>
	<rect x="165" y="266" fill="#EDEEF1" width="70" height="42"/>
	<polygon fill="#EDEEF1" points="203.581,191 210.489,191 199.709,175.528 189.44,191 196.513,191 199.966,250.841 	"/>
	<path fill="#EDEEF1" d="M91.942,189.373l-4.751-5.496l17.648-2.066l-3.165,18.821l-4.868-5.63
		c-7.824,3.164-14.289,10.776-17.887,16.386c-8.565,13.357-10.352,34.67-10.352,34.67s-0.641-21.162,6.149-35.544
		C81.13,196.936,91.942,189.373,91.942,189.373z"/>
	<polygon fill="#EDEEF1" points="147,290.061 147,296.085 158.218,286.682 147,277.72 147,283.89 103.605,286.901 	"/>
	<polygon fill="#EDEEF1" points="285,290.061 285,296.085 296.218,286.682 285,277.72 285,283.89 241.604,286.901 	"/>
	<path fill="#EDEEF1" d="M304.908,189.373l4.751-5.496l-17.65-2.066l3.168,18.821l4.865-5.63
		c7.825,3.164,14.289,10.776,17.888,16.386c8.565,13.357,10.354,34.67,10.354,34.67s0.641-21.162-6.151-35.544
		C315.722,196.936,304.908,189.373,304.908,189.373z"/>
</g>
</svg>
