<?xml version="1.0" encoding="utf-8"?>
<!-- Generator: Adobe Illustrator 16.0.0, SVG Export Plug-In . SVG Version: 6.00 Build 0)  -->
<!DOCTYPE svg PUBLIC "-//W3C//DTD SVG 1.1//EN" "http://www.w3.org/Graphics/SVG/1.1/DTD/svg11.dtd">
<svg version="1.1" id="Layer_1" xmlns="http://www.w3.org/2000/svg" xmlns:xlink="http://www.w3.org/1999/xlink" x="0px" y="0px"
	 width="3836px" height="308.921px" viewBox="0 1637.062 3836 308.921" enable-background="new 0 1637.062 3836 308.921"
	 xml:space="preserve">
<g>
	
		<linearGradient id="SVGID_1_" gradientUnits="userSpaceOnUse" x1="1047.2246" y1="2242.209" x2="1489.0645" y2="2242.209" gradientTransform="matrix(1 0 0 -1 -56 4096)">
		<stop  offset="0.0049" style="stop-color:#5CD5DB"/>
		<stop  offset="0.1285" style="stop-color:#65D8DD"/>
		<stop  offset="0.333" style="stop-color:#7EDFE3"/>
		<stop  offset="0.5931" style="stop-color:#A7EBED"/>
		<stop  offset="0.8956" style="stop-color:#E0FBFB"/>
		<stop  offset="0.9722" style="stop-color:#EFFFFF"/>
	</linearGradient>
	<path fill="url(#SVGID_1_)" d="M1425.749,1843.268c0.668,0.959,3.845-1.174,1.714,1.166
		c-36.407,2.865-179.906-26.285-227.75-24.151c-47.881,2.137-154.705,17.338-168.443,21.859c-7.934,2.611-32.4,1.507-37.558,5.626
		c-0.831,0.031-1.659,0.021-2.487-0.035c49.198,17.351,105.434-16.595,253.033,32.666c54.681,18.248,126.166-1.992,177.325-27.791
		c5.132-2.589,8.94-1.01,11.481-7.5c-1.668-0.439-2.849-1.079-4.315-1.84"/>
	
		<linearGradient id="SVGID_2_" gradientUnits="userSpaceOnUse" x1="-1336.3638" y1="2314.832" x2="962.7725" y2="2314.832" gradientTransform="matrix(1 0.0071 0.0071 -1 -87.204 4061.208)">
		<stop  offset="0" style="stop-color:#7DF6FF"/>
		<stop  offset="0.9722" style="stop-color:#EFFFFF"/>
	</linearGradient>
	<path fill="url(#SVGID_2_)" d="M-1311.45,1739.035c188.376-34.325,332.179,79.729,514.966,87.844
		c116.35,5.166,234.211,1.193,341.021-34.791c99.863-33.643,189.503-61.456,296.996-64.915
		c202.173-6.505,367.689,88.708,564.297,99.972c144.954,8.306,343.62,20.064,486.02-52.237
		c-143.786,14.671-419.561,0.442-557.287-36.253c-80.91-21.56-154.693-51.409-238.811-61.596
		c-92.988-11.259-174.875-24.627-286.996-14.104c-170.984,16.047-309.808,121.857-483.12,128.672
		c-97.674,3.839-195.286-1.251-289.094-18.134c-81.662-14.695-148.082-60.54-223.309-73.371
		c-37.27-6.357-79.605-6.343-115.127,5.884c-36.685,12.628-60.228,36.438-105.249,32.354"/>
	
		<linearGradient id="SVGID_3_" gradientUnits="userSpaceOnUse" x1="1060.75" y1="2242.5605" x2="1752.7383" y2="2242.5605" gradientTransform="matrix(1 0 0 -1 -56 4096)">
		<stop  offset="0" style="stop-color:#56BBC2"/>
		<stop  offset="0.9722" style="stop-color:#EFFFFF"/>
	</linearGradient>
	<path fill="url(#SVGID_3_)" d="M1004.75,1815.494c53.82,3.766,317.371-16.133,375.475-17.856
		c110.73-3.286,214.728,14.348,316.514,36.891c-54.495,25.987-97.171,52.592-162.208,62.996
		c-63.447,10.149-125.216,12.113-191.255,12.113c-129.081,0-210.218-32.652-317.24-83"/>
	
		<linearGradient id="SVGID_4_" gradientUnits="userSpaceOnUse" x1="255.9854" y1="2331.9453" x2="1333.4819" y2="2331.9453" gradientTransform="matrix(1 0.0071 0.0071 -1 -87.204 4061.208)">
		<stop  offset="0.0049" style="stop-color:#5CD5DB"/>
		<stop  offset="0.1285" style="stop-color:#65D8DD"/>
		<stop  offset="0.333" style="stop-color:#7EDFE3"/>
		<stop  offset="0.5931" style="stop-color:#A7EBED"/>
		<stop  offset="0.8956" style="stop-color:#E0FBFB"/>
		<stop  offset="0.9722" style="stop-color:#EFFFFF"/>
	</linearGradient>
	<path fill="url(#SVGID_4_)" d="M1243.77,1728.07c-71.16,36.426-205.549,3.021-282.489-9.879
		c-85.599-14.355-173.332-18.847-261.701-21.964c-83.738-2.952-154.59,7.226-230.652,22.595
		c-64.643,13.061-210.402,16.263-283.627,17.667c39.22,16.39,141.813,40.238,216.046,33.622
		c61.553-5.486,124.623,0.829,186.568,1.33c81.394,0.657,151.741-19.634,229.938-34.599c73.113-13.992,161.687-8.529,230.68,8.867
		c45.421,11.453,206.689,55.368,214.378-17.506"/>
	
		<linearGradient id="SVGID_5_" gradientUnits="userSpaceOnUse" x1="340.811" y1="2299.6152" x2="1143.7959" y2="2299.6152" gradientTransform="matrix(1 0.0071 0.0071 -1 -87.204 4061.208)">
		<stop  offset="0" style="stop-color:#46B9C2"/>
		<stop  offset="0.9722" style="stop-color:#CCFFFF"/>
	</linearGradient>
	<path fill="url(#SVGID_5_)" d="M269.963,1760c128.378,112.334,498.464,69.817,587.023,41.342
		c35.518-11.42,72.16-30.833,107.961-38.129c34.394-7.008,73.926-8.779,108.099-11.348c-72.687-36.609-177.106-63.41-259.771-44.834
		C665.255,1740.296,394.715,1769.249,269.963,1760"/>
	
		<linearGradient id="SVGID_6_" gradientUnits="userSpaceOnUse" x1="1056.9253" y1="1933.646" x2="1801.689" y2="1933.646" gradientTransform="matrix(0.996 0.0891 0.0891 -0.996 -426.4463 3679.1934)">
		<stop  offset="0" style="stop-color:#56BBC2"/>
		<stop  offset="0.9722" style="stop-color:#EFFFFF"/>
	</linearGradient>
	<path fill="url(#SVGID_6_)" d="M1542.145,1893.467c-32.416,22.676-54.177,31.572-85.791,40.869
		c-36.38,10.697-89.784,11.688-127.713,11.646c-61.871-0.068-139.804-5.199-198.417-18.97
		c-56.422-13.254-104.593-44.313-156.236-63.983c-56.15-21.388-112.536-22.49-174.186-29.684
		c20.779-46.506,161.283-29.079,206.875-19.965C1120.386,1836.109,1320.781,1938.695,1542.145,1893.467"/>
	
		<linearGradient id="SVGID_7_" gradientUnits="userSpaceOnUse" x1="-537.3208" y1="2257.0859" x2="604.5205" y2="2257.0859" gradientTransform="matrix(1 0.0071 0.0071 -1 -87.204 4061.208)">
		<stop  offset="0.0049" style="stop-color:#5CD5DB"/>
		<stop  offset="0.1285" style="stop-color:#65D8DD"/>
		<stop  offset="0.333" style="stop-color:#7EDFE3"/>
		<stop  offset="0.5931" style="stop-color:#A7EBED"/>
		<stop  offset="0.8956" style="stop-color:#E0FBFB"/>
		<stop  offset="0.9722" style="stop-color:#EFFFFF"/>
	</linearGradient>
	<path fill="url(#SVGID_7_)" d="M-608.668,1823.998c101.898,0.762,196.295-33.04,297.911-25.885
		c90.241,6.354,176.612,39.766,261.917,61.723c156.977,40.404,203.909,56.516,582.008-26.927
		c-118.521-7.41-232.858-71.897-347.869-96.42c-115.126-24.548-206.571-21.194-323.384-13.079
		c-71.357,4.955-138.734,1.99-206.826,17.365C-406.642,1754.713-546.641,1828.77-608.668,1823.998"/>
	
		<linearGradient id="SVGID_8_" gradientUnits="userSpaceOnUse" x1="698.0557" y1="2348.3018" x2="1139.8843" y2="2348.3018" gradientTransform="matrix(1 0.0071 0.0071 -1 -87.204 4061.208)">
		<stop  offset="0.0049" style="stop-color:#5CD5DB"/>
		<stop  offset="0.1285" style="stop-color:#65D8DD"/>
		<stop  offset="0.333" style="stop-color:#7EDFE3"/>
		<stop  offset="0.5931" style="stop-color:#A7EBED"/>
		<stop  offset="0.8956" style="stop-color:#E0FBFB"/>
		<stop  offset="0.9722" style="stop-color:#EFFFFF"/>
	</linearGradient>
	<path fill="url(#SVGID_8_)" d="M1062.112,1710.418c0.661,0.964,3.854-1.146,1.706,1.179
		c-36.428,2.607-179.717-27.556-227.574-25.759c-47.895,1.797-154.823,16.244-168.595,20.67c-7.95,2.555-32.41,1.278-37.595,5.36
		c-0.831,0.023-1.659,0.007-2.487-0.052c49.074,17.694,105.547-15.853,252.797,34.448c54.549,18.636,126.177-1.102,177.517-26.539
		c5.149-2.551,8.947-0.944,11.534-7.418c-1.665-0.45-2.84-1.1-4.303-1.868"/>
	
		<linearGradient id="SVGID_9_" gradientUnits="userSpaceOnUse" x1="467.5898" y1="2319.9053" x2="2766.7275" y2="2319.9053" gradientTransform="matrix(1 0.0071 0.0071 -1 -87.204 4061.208)">
		<stop  offset="0" style="stop-color:#7DF6FF"/>
		<stop  offset="0.9722" style="stop-color:#EFFFFF"/>
	</linearGradient>
	<path fill="url(#SVGID_9_)" d="M492.541,1746.77c188.377-34.325,332.179,79.729,514.966,87.844
		c116.351,5.166,234.211,1.192,341.021-34.79c99.862-33.644,189.503-61.457,296.997-64.916
		c202.173-6.505,367.688,88.708,564.295,99.972c144.955,8.307,343.621,20.065,486.021-52.238
		c-143.787,14.672-419.562,0.444-557.287-36.253c-80.908-21.558-154.693-51.409-238.812-61.594
		c-92.987-11.26-174.875-24.627-286.994-14.104c-170.985,16.047-309.809,121.858-483.121,128.672
		c-97.674,3.84-195.286-1.252-289.094-18.135c-81.662-14.695-148.082-60.54-223.31-73.371c-37.271-6.356-79.604-6.343-115.128,5.885
		c-36.685,12.627-60.228,36.438-105.249,32.354"/>
	
		<linearGradient id="SVGID_10_" gradientUnits="userSpaceOnUse" x1="734.5806" y1="2308.6582" x2="1426.5513" y2="2308.6582" gradientTransform="matrix(1 0.0071 0.0071 -1 -87.204 4061.208)">
		<stop  offset="0" style="stop-color:#56BBC2"/>
		<stop  offset="0.9722" style="stop-color:#EFFFFF"/>
	</linearGradient>
	<path fill="url(#SVGID_10_)" d="M664.037,1719.835c53.792,4.146,317.478-13.892,375.591-15.206
		c110.752-2.504,214.621,15.863,316.245,39.123c-54.677,25.602-97.539,51.904-162.647,61.85
		c-63.518,9.703-125.299,11.23-191.336,10.765c-129.078-0.91-209.98-34.136-316.646-85.236"/>
	
		<linearGradient id="SVGID_11_" gradientUnits="userSpaceOnUse" x1="2059.9404" y1="2337.0176" x2="3137.4346" y2="2337.0176" gradientTransform="matrix(1 0.0071 0.0071 -1 -87.204 4061.208)">
		<stop  offset="0.0049" style="stop-color:#5CD5DB"/>
		<stop  offset="0.1285" style="stop-color:#65D8DD"/>
		<stop  offset="0.333" style="stop-color:#7EDFE3"/>
		<stop  offset="0.5931" style="stop-color:#A7EBED"/>
		<stop  offset="0.8956" style="stop-color:#E0FBFB"/>
		<stop  offset="0.9722" style="stop-color:#EFFFFF"/>
	</linearGradient>
	<path fill="url(#SVGID_11_)" d="M3047.761,1735.805c-71.159,36.427-205.549,3.021-282.489-9.881
		c-85.599-14.354-173.332-18.845-261.701-21.961c-83.738-2.954-154.59,7.225-230.652,22.593
		c-64.643,13.063-210.402,16.264-283.627,17.667c39.219,16.39,141.811,40.239,216.045,33.622
		c61.553-5.485,124.623,0.831,186.568,1.331c81.395,0.658,151.741-19.635,229.938-34.598c73.113-13.992,161.686-8.529,230.68,8.866
		c45.422,11.452,206.689,55.368,214.377-17.505"/>
	
		<linearGradient id="SVGID_12_" gradientUnits="userSpaceOnUse" x1="2144.7666" y1="2304.6895" x2="2947.75" y2="2304.6895" gradientTransform="matrix(1 0.0071 0.0071 -1 -87.204 4061.208)">
		<stop  offset="0" style="stop-color:#46B9C2"/>
		<stop  offset="0.9722" style="stop-color:#CCFFFF"/>
	</linearGradient>
	<path fill="url(#SVGID_12_)" d="M2073.954,1767.734c128.377,112.334,498.463,69.815,587.022,41.342
		c35.519-11.42,72.16-30.834,107.961-38.129c34.394-7.008,73.927-8.779,108.099-11.349
		c-72.687-36.609-177.107-63.411-259.771-44.834C2469.245,1748.029,2198.706,1776.982,2073.954,1767.734"/>
	
		<linearGradient id="SVGID_13_" gradientUnits="userSpaceOnUse" x1="674.7104" y1="1952.6602" x2="1419.4365" y2="1952.6602" gradientTransform="matrix(0.9954 0.0961 0.0961 -0.9954 -453.7415 3641.8179)">
		<stop  offset="0" style="stop-color:#56BBC2"/>
		<stop  offset="0.9722" style="stop-color:#EFFFFF"/>
	</linearGradient>
	<path fill="url(#SVGID_13_)" d="M1148.777,1814.232c-32.574,22.444-54.397,31.188-86.077,40.262
		c-36.453,10.438-89.864,11.053-127.791,10.742c-61.87-0.506-139.765-6.187-198.278-20.367
		c-56.327-13.653-104.277-45.051-155.781-65.086c-55.998-21.783-112.375-23.285-173.972-30.912
		c21.107-46.357,161.485-27.939,207.012-18.504C727.434,1753.898,927.1,1857.896,1148.777,1814.232"/>
	
		<linearGradient id="SVGID_14_" gradientUnits="userSpaceOnUse" x1="1266.6343" y1="2262.1602" x2="2408.4756" y2="2262.1602" gradientTransform="matrix(1 0.0071 0.0071 -1 -87.204 4061.208)">
		<stop  offset="0.0049" style="stop-color:#5CD5DB"/>
		<stop  offset="0.1285" style="stop-color:#65D8DD"/>
		<stop  offset="0.333" style="stop-color:#7EDFE3"/>
		<stop  offset="0.5931" style="stop-color:#A7EBED"/>
		<stop  offset="0.8956" style="stop-color:#E0FBFB"/>
		<stop  offset="0.9722" style="stop-color:#EFFFFF"/>
	</linearGradient>
	<path fill="url(#SVGID_14_)" d="M1195.323,1831.73c101.896,0.763,196.295-33.039,297.91-25.884
		c90.241,6.354,176.613,39.767,261.918,61.723c156.977,40.404,203.907,56.516,582.008-26.928
		c-118.521-7.409-232.859-71.896-347.869-96.42c-115.127-24.548-206.57-21.193-323.385-13.08
		c-71.356,4.957-138.734,1.991-206.826,17.365C1397.349,1762.447,1257.349,1836.504,1195.323,1831.73"/>
	
		<linearGradient id="SVGID_15_" gradientUnits="userSpaceOnUse" x1="1911.5508" y1="2359.9648" x2="4210.6875" y2="2359.9648" gradientTransform="matrix(1 0.0071 0.0071 -1 -87.204 4061.208)">
		<stop  offset="0" style="stop-color:#7DF6FF"/>
		<stop  offset="0.9722" style="stop-color:#EFFFFF"/>
	</linearGradient>
	<path fill="url(#SVGID_15_)" d="M1936.786,1716.962c188.377-34.325,332.18,79.729,514.967,87.844
		c116.351,5.166,234.211,1.193,341.021-34.79c99.863-33.643,189.502-61.457,296.996-64.916
		c202.172-6.505,367.689,88.708,564.295,99.973c144.955,8.306,343.621,20.064,486.021-52.238
		c-143.785,14.671-419.562,0.444-557.287-36.253c-80.908-21.558-154.692-51.409-238.812-61.594
		c-92.987-11.261-174.875-24.627-286.993-14.105c-170.984,16.047-309.81,121.859-483.121,128.672
		c-97.675,3.84-195.285-1.252-289.095-18.134c-81.662-14.696-148.082-60.54-223.309-73.371c-37.27-6.355-79.605-6.343-115.129,5.884
		c-36.684,12.628-60.228,36.438-105.248,32.355"/>
	
		<linearGradient id="SVGID_16_" gradientUnits="userSpaceOnUse" x1="2178.541" y1="2348.7178" x2="2870.5117" y2="2348.7178" gradientTransform="matrix(1 0.0071 0.0071 -1 -87.204 4061.208)">
		<stop  offset="0" style="stop-color:#56BBC2"/>
		<stop  offset="0.9722" style="stop-color:#EFFFFF"/>
	</linearGradient>
	<path fill="url(#SVGID_16_)" d="M2108.282,1690.028c53.793,4.146,317.479-13.893,375.592-15.206
		c110.752-2.504,214.621,15.862,316.244,39.123c-54.677,25.602-97.537,51.903-162.646,61.85
		c-63.518,9.703-125.299,11.23-191.336,10.764c-129.077-0.91-209.979-34.135-316.646-85.235"/>
	
		<linearGradient id="SVGID_17_" gradientUnits="userSpaceOnUse" x1="3503.9023" y1="2377.0762" x2="4581.3965" y2="2377.0762" gradientTransform="matrix(1 0.0071 0.0071 -1 -87.204 4061.208)">
		<stop  offset="0.0049" style="stop-color:#5CD5DB"/>
		<stop  offset="0.1285" style="stop-color:#65D8DD"/>
		<stop  offset="0.333" style="stop-color:#7EDFE3"/>
		<stop  offset="0.5931" style="stop-color:#A7EBED"/>
		<stop  offset="0.8956" style="stop-color:#E0FBFB"/>
		<stop  offset="0.9722" style="stop-color:#EFFFFF"/>
	</linearGradient>
	<path fill="url(#SVGID_17_)" d="M4492.007,1705.998c-71.16,36.426-205.549,3.021-282.49-9.881
		c-85.599-14.354-173.332-18.844-261.701-21.961c-83.737-2.954-154.59,7.225-230.651,22.593
		c-64.644,13.062-210.402,16.263-283.627,17.667c39.221,16.39,141.813,40.239,216.047,33.623
		c61.551-5.487,124.623,0.83,186.567,1.33c81.394,0.658,151.74-19.635,229.937-34.598c73.115-13.992,161.686-8.529,230.68,8.865
		c45.422,11.453,206.689,55.368,214.377-17.505"/>
	
		<linearGradient id="SVGID_18_" gradientUnits="userSpaceOnUse" x1="3588.7285" y1="2344.748" x2="4391.7139" y2="2344.748" gradientTransform="matrix(1 0.0071 0.0071 -1 -87.204 4061.208)">
		<stop  offset="0" style="stop-color:#46B9C2"/>
		<stop  offset="0.9722" style="stop-color:#CCFFFF"/>
	</linearGradient>
	<path fill="url(#SVGID_18_)" d="M3518.2,1737.927c128.379,112.334,498.463,69.817,587.022,41.343
		c35.519-11.42,72.16-30.834,107.961-38.129c34.394-7.008,73.926-8.778,108.101-11.348c-72.688-36.61-177.108-63.412-259.771-44.834
		C3913.493,1718.223,3642.952,1747.176,3518.2,1737.927"/>
	
		<linearGradient id="SVGID_19_" gradientUnits="userSpaceOnUse" x1="2109.3682" y1="2121.1113" x2="2854.0918" y2="2121.1113" gradientTransform="matrix(0.9954 0.0961 0.0961 -0.9954 -453.7415 3641.8179)">
		<stop  offset="0" style="stop-color:#56BBC2"/>
		<stop  offset="0.9722" style="stop-color:#EFFFFF"/>
	</linearGradient>
	<path fill="url(#SVGID_19_)" d="M2593.021,1784.426c-32.573,22.445-54.396,31.188-86.075,40.262
		c-36.453,10.439-89.865,11.054-127.791,10.742c-61.871-0.505-139.765-6.186-198.277-20.367
		c-56.328-13.652-104.279-45.052-155.783-65.086c-55.998-21.782-112.375-23.284-173.971-30.911
		c21.107-46.357,161.484-27.939,207.012-18.505C2171.681,1724.092,2371.347,1828.09,2593.021,1784.426"/>
	
		<linearGradient id="SVGID_20_" gradientUnits="userSpaceOnUse" x1="2710.5957" y1="2302.2188" x2="3852.4375" y2="2302.2188" gradientTransform="matrix(1 0.0071 0.0071 -1 -87.204 4061.208)">
		<stop  offset="0.0049" style="stop-color:#5CD5DB"/>
		<stop  offset="0.1285" style="stop-color:#65D8DD"/>
		<stop  offset="0.333" style="stop-color:#7EDFE3"/>
		<stop  offset="0.5931" style="stop-color:#A7EBED"/>
		<stop  offset="0.8956" style="stop-color:#E0FBFB"/>
		<stop  offset="0.9722" style="stop-color:#EFFFFF"/>
	</linearGradient>
	<path fill="url(#SVGID_20_)" d="M2639.569,1801.925c101.896,0.763,196.295-33.04,297.909-25.884
		c90.24,6.354,176.613,39.766,261.918,61.722c156.978,40.405,203.908,56.517,582.009-26.927
		c-118.521-7.41-232.857-71.896-347.869-96.42c-115.125-24.548-206.57-21.193-323.385-13.08
		c-71.355,4.957-138.734,1.991-206.824,17.365C2841.595,1732.641,2701.595,1806.697,2639.569,1801.925"/>
</g>
</svg>
